<?xml version="1.0" encoding="UTF-8" standalone="no"?>
<svg
   xmlns:dc="http://purl.org/dc/elements/1.1/"
   xmlns:cc="http://creativecommons.org/ns#"
   xmlns:rdf="http://www.w3.org/1999/02/22-rdf-syntax-ns#"
   xmlns:svg="http://www.w3.org/2000/svg"
   xmlns="http://www.w3.org/2000/svg"
   xmlns:sodipodi="http://sodipodi.sourceforge.net/DTD/sodipodi-0.dtd"
   xmlns:inkscape="http://www.inkscape.org/namespaces/inkscape"
   width="600mm"
   height="400mm"
   id="svg2"
   version="1.1"
   inkscape:version="0.91 r13725"
   sodipodi:docname="LUHC-01_Base.svg">
  <metadata
     id="metadata1984">
    <rdf:RDF>
      <cc:Work
         rdf:about="">
        <dc:format>image/svg+xml</dc:format>
        <dc:type
           rdf:resource="http://purl.org/dc/dcmitype/StillImage" />
        <dc:title></dc:title>
      </cc:Work>
    </rdf:RDF>
  </metadata>
  <sodipodi:namedview
     pagecolor="#ffffff"
     bordercolor="#666666"
     borderopacity="1"
     objecttolerance="10"
     gridtolerance="10"
     guidetolerance="10"
     inkscape:pageopacity="0"
     inkscape:pageshadow="2"
     inkscape:window-width="1691"
     inkscape:window-height="1030"
     id="namedview1982"
     showgrid="false"
     inkscape:document-units="mm"
     units="mm"
     inkscape:zoom="1.2061101"
     inkscape:cx="892.20255"
     inkscape:cy="729.47851"
     inkscape:window-x="0"
     inkscape:window-y="0"
     inkscape:window-maximized="0"
     inkscape:current-layer="g20"
     showguides="false" />
  <desc
     id="desc4">G:\GPIO_CASE_VER1.1\hacker case base.dxf - scale = 1.000000, origin = (0.000000, 0.000000), auto = False</desc>
  <defs
     id="defs6">
    <marker
       refY="0"
       refX="0"
       style="overflow:visible"
       id="DistanceX"
       orient="auto">
      <path
         style="stroke:#000000;stroke-width:0.5"
         d="M 3,-3 -3,3 M 0,-5 0,5"
         id="path9"
         inkscape:connector-curvature="0" />
    </marker>
    <pattern
       height="8"
       width="8"
       patternUnits="userSpaceOnUse"
       y="0"
       x="0"
       id="Hatch">
      <path
         linecap="square"
         stroke="#000000"
         stroke-width="0.25"
         d="M8 4 l-4,4"
         id="path12" />
      <path
         linecap="square"
         stroke="#000000"
         stroke-width="0.25"
         d="M6 2 l-4,4"
         id="path14" />
      <path
         linecap="square"
         stroke="#000000"
         stroke-width="0.25"
         d="M4 0 l-4,4"
         id="path16" />
    </pattern>
    <symbol
       id="*MODEL_SPACE" />
    <symbol
       id="*PAPER_SPACE" />
  </defs>
  <g
     inkscape:label="0"
     inkscape:groupmode="layer"
     id="g20"
     transform="translate(0,364.96061)">
    <path
       id="path52"
       style="fill:none;stroke:#000000"
       d="m 1467.359,399.96383 -64.6393,64.63927 m 67.7527,-346.81422 0,274.65845 M 900.42987,464.6031 835.7906,399.96383 m 72.15577,67.75271 c -2.78614,0.01 -5.55343,-1.13632 -7.5165,-3.11344 m 494.77333,3.11344 -487.25683,0 m -75.26921,-75.26921 0,-274.65845 m 3.11344,-7.51649 64.63927,-64.639272 m 7.5165,-3.113433 487.25683,0 M 835.7906,399.96383 c -1.97712,-1.96307 -3.12337,-4.73036 -3.11344,-7.5165 m 0,-274.65845 c -0.01,-2.78613 1.13632,-5.55342 3.11344,-7.51649 m 64.63927,-64.639272 c 1.96307,-1.977119 4.73036,-3.123365 7.5165,-3.113433 m 487.25683,0 c 2.7862,-0.0099 5.5535,1.136314 7.5165,3.113433 m 64.6393,64.639272 c 1.9771,1.96307 3.1234,4.73036 3.1134,7.51649 m -67.7527,-72.155762 64.6393,64.639272 m 3.1134,282.17494 c 0.01,2.78614 -1.1363,5.55343 -3.1134,7.5165 m -64.6393,64.63927 c -1.963,1.97712 -4.7303,3.12337 -7.5165,3.11344" />
    <path
       id="path696"
       style="fill:none;stroke:#000000"
       d="M 935.07002,204.35235 1076.8023,346.08463 M 934.38221,203.16103 c 0.11959,0.44825 0.35941,0.86363 0.68781,1.19132 m -0.68781,-2.56693 c -0.12056,0.44798 -0.12056,0.92762 0,1.37561 m 0.68781,-2.56692 c -0.3284,0.32768 -0.56822,0.74306 -0.68781,1.19131 m 1.87913,-1.87912 c -0.44825,0.11958 -0.86363,0.3594 -1.19132,0.68781 m 2.56693,-0.68781 c -0.44799,-0.12057 -0.92763,-0.12057 -1.37561,0 m 2.56693,0.68781 c -0.32769,-0.32841 -0.74307,-0.56823 -1.19132,-0.68781 M 1080.5606,342.32639 938.82827,200.59411 M 1081.2484,343.5177 c -0.1196,-0.44825 -0.3594,-0.86363 -0.6878,-1.19131 m 0.6878,2.56693 c 0.1205,-0.44799 0.1205,-0.92763 0,-1.37562 m -0.6878,2.56693 c 0.3284,-0.32769 0.5682,-0.74307 0.6878,-1.19131 m -1.8792,1.87912 c 0.4483,-0.11959 0.8637,-0.3594 1.1914,-0.68781 m -2.567,0.68781 c 0.448,0.12056 0.9276,0.12056 1.3756,0 m -2.5669,-0.68781 c 0.3277,0.32841 0.7431,0.56822 1.1913,0.68781 M 935.07002,222.06888 1076.8023,363.80117 M 934.38221,220.87757 c 0.11959,0.44825 0.35941,0.86363 0.68781,1.19131 m -0.68781,-2.56693 c -0.12056,0.44799 -0.12056,0.92763 0,1.37562 m 0.68781,-2.56693 c -0.3284,0.32768 -0.56822,0.74307 -0.68781,1.19131 m 1.87913,-1.87912 c -0.44825,0.11958 -0.86363,0.35941 -1.19132,0.68781 m 2.56693,-0.68781 c -0.44799,-0.12056 -0.92763,-0.12056 -1.37561,0 m 2.56693,0.68781 c -0.32769,-0.3284 -0.74307,-0.56823 -1.19132,-0.68781 M 1080.5606,360.04292 938.82827,218.31064 m 142.42013,142.9236 c -0.1196,-0.44825 -0.3594,-0.86363 -0.6878,-1.19132 m 0.6878,2.56693 c 0.1205,-0.44799 0.1205,-0.92763 0,-1.37561 m -0.6878,2.56693 c 0.3284,-0.32769 0.5682,-0.74307 0.6878,-1.19132 m -1.8792,1.87912 c 0.4483,-0.11958 0.8637,-0.3594 1.1914,-0.6878 m -2.567,0.6878 c 0.448,0.12056 0.9276,0.12056 1.3756,0 m -2.5669,-0.6878 c 0.3277,0.3284 0.7431,0.56822 1.1913,0.6878 M 935.07002,239.78542 1076.8023,381.5177 M 934.38221,238.5941 c 0.11959,0.44825 0.35941,0.86363 0.68781,1.19132 m -0.68781,-2.56693 c -0.12056,0.44799 -0.12056,0.92763 0,1.37561 m 0.68781,-2.56692 c -0.3284,0.32768 -0.56822,0.74306 -0.68781,1.19131 m 1.87913,-1.87912 c -0.44825,0.11958 -0.86363,0.3594 -1.19132,0.68781 m 2.56693,-0.68781 c -0.44799,-0.12056 -0.92763,-0.12056 -1.37561,0 m 2.56693,0.68781 c -0.32769,-0.32841 -0.74307,-0.56823 -1.19132,-0.68781 M 1080.5606,377.75946 938.82827,236.02718 m 142.42013,142.92359 c -0.1196,-0.44824 -0.3594,-0.86363 -0.6878,-1.19131 m 0.6878,2.56693 c 0.1205,-0.44799 0.1205,-0.92763 0,-1.37562 m -0.6878,2.56693 c 0.3284,-0.32768 0.5682,-0.74306 0.6878,-1.19131 m -1.8792,1.87912 c 0.4483,-0.11958 0.8637,-0.3594 1.1914,-0.68781 m -2.567,0.68781 c 0.448,0.12056 0.9276,0.12056 1.3756,0 m -2.5669,-0.68781 c 0.3277,0.32841 0.7431,0.56823 1.1913,0.68781 m 2.567,13.27048 -141.73233,-141.73228 m 142.42013,142.9236 c -0.1196,-0.44825 -0.3594,-0.86363 -0.6878,-1.19132 m 0.6878,2.56693 c 0.1205,-0.44798 0.1205,-0.92763 0,-1.37561 m -0.6878,2.56693 c 0.3284,-0.32769 0.5682,-0.74307 0.6878,-1.19132 m -1.8792,1.87912 c 0.4483,-0.11958 0.8637,-0.3594 1.1914,-0.6878 m -2.567,0.6878 c 0.448,0.12056 0.9276,0.12056 1.3756,0 m -2.5669,-0.6878 c 0.3277,0.3284 0.7431,0.56822 1.1913,0.6878 M 935.07002,257.50195 1076.8023,399.23424 M 934.38221,256.31064 c 0.11959,0.44825 0.35941,0.86363 0.68781,1.19131 m -0.68781,-2.56693 c -0.12056,0.44799 -0.12056,0.92763 0,1.37562 m 0.68781,-2.56693 c -0.3284,0.32769 -0.56822,0.74307 -0.68781,1.19131 m 1.87913,-1.87912 c -0.44825,0.11958 -0.86363,0.35941 -1.19132,0.68781 m 2.56693,-0.68781 c -0.44799,-0.12056 -0.92763,-0.12056 -1.37561,0 m 2.56693,0.68781 c -0.32769,-0.3284 -0.74307,-0.56823 -1.19132,-0.68781 m 69.49055,146.86614 c -0.4483,-0.11958 -0.8636,-0.3594 -1.1913,-0.6878 m 2.5669,0.6878 c -0.448,0.12056 -0.9276,0.12056 -1.3756,0 m 2.5669,-0.6878 c -0.3277,0.3284 -0.7431,0.56822 -1.1913,0.6878 m 1.8791,-1.87912 c -0.1196,0.44825 -0.3594,0.86363 -0.6878,1.19132 m 0.6878,-2.56693 c 0.1206,0.44798 0.1206,0.92763 0,1.37561 m -0.6878,-2.56693 c 0.3284,0.32769 0.5682,0.74307 0.6878,1.19132 m -71.55393,-72.05746 70.86613,70.86614 m -72.05745,-71.55395 c 0.44825,0.11959 0.86363,0.35941 1.19132,0.68781 m -2.56693,-0.68781 c 0.44798,-0.12056 0.92762,-0.12056 1.37561,0 m -2.56693,0.68781 c 0.32769,-0.3284 0.74307,-0.56822 1.19132,-0.68781 m -1.87913,1.87913 c 0.11959,-0.44825 0.35941,-0.86363 0.68781,-1.19132 m -0.68781,2.56693 c -0.12056,-0.44799 -0.12056,-0.92763 0,-1.37561 m 0.68781,2.56693 c -0.3284,-0.32769 -0.56822,-0.74307 -0.68781,-1.19132 m 71.55399,72.05746 -70.86618,-70.86614 m 89.77398,71.55394 c -0.4482,-0.11958 -0.8636,-0.3594 -1.1913,-0.6878 m 2.5669,0.6878 c -0.448,0.12056 -0.9276,0.12056 -1.3756,0 m 2.5669,-0.6878 c -0.3276,0.3284 -0.743,0.56822 -1.1913,0.6878 m 1.8792,-1.87912 c -0.1196,0.44825 -0.3595,0.86363 -0.6879,1.19132 m 0.6879,-2.56693 c 0.1205,0.44798 0.1205,0.92763 0,1.37561 m -0.6879,-2.56693 c 0.3284,0.32769 0.5683,0.74307 0.6879,1.19132 m -89.27053,-89.77399 88.58263,88.58267 m -89.77395,-89.27048 c 0.44825,0.11958 0.86363,0.3594 1.19132,0.68781 m -2.56693,-0.68781 c 0.44798,-0.12056 0.92762,-0.12056 1.37561,0 m -2.56693,0.68781 c 0.32769,-0.32841 0.74307,-0.56823 1.19132,-0.68781 m -1.87913,1.87912 c 0.11959,-0.44825 0.35941,-0.86363 0.68781,-1.19131 m -0.68781,2.56692 c -0.12056,-0.44798 -0.12056,-0.92762 0,-1.37561 m 0.68781,2.56693 c -0.3284,-0.32769 -0.56822,-0.74307 -0.68781,-1.19132 m 89.27049,89.774 -88.58268,-88.58268 m 107.49048,89.27048 c -0.4482,-0.11958 -0.8636,-0.3594 -1.1913,-0.6878 m 2.567,0.6878 c -0.448,0.12056 -0.9277,0.12056 -1.3757,0 m 2.567,-0.6878 c -0.3277,0.3284 -0.7431,0.56822 -1.1913,0.6878 m 1.8791,-1.87912 c -0.1196,0.44825 -0.3594,0.86363 -0.6878,1.19132 m 0.6878,-2.56693 c 0.1206,0.44798 0.1206,0.92763 0,1.37561 m -0.6878,-2.56693 c 0.3284,0.32769 0.5682,0.74307 0.6878,1.19132 M 938.82827,289.17678 1045.1275,395.47599 M 937.63695,288.48897 c 0.44825,0.11959 0.86363,0.35941 1.19132,0.68781 m -2.56693,-0.68781 c 0.44798,-0.12056 0.92762,-0.12056 1.37561,0 m -2.56693,0.68781 c 0.32769,-0.3284 0.74307,-0.56822 1.19132,-0.68781 m -1.87913,1.87912 c 0.11959,-0.44824 0.35941,-0.86362 0.68781,-1.19131 m -0.68781,2.56693 c -0.12056,-0.44799 -0.12056,-0.92763 0,-1.37562 m 0.68781,2.56694 c -0.3284,-0.32769 -0.56822,-0.74307 -0.68781,-1.19132 M 1041.3692,399.23424 935.07002,292.93503 m 54.34092,106.98701 c -0.44824,-0.11958 -0.86362,-0.3594 -1.19131,-0.6878 m 2.56693,0.6878 c -0.44799,0.12056 -0.92763,0.12056 -1.37562,0 m 2.56693,-0.6878 c -0.32769,0.3284 -0.74306,0.56822 -1.19131,0.6878 m 1.87912,-1.87912 c -0.11958,0.44825 -0.3594,0.86363 -0.68781,1.19132 m 0.68781,-2.56693 c 0.12056,0.44798 0.12056,0.92763 0,1.37561 m -0.68781,-2.56693 c 0.32841,0.32769 0.56823,0.74307 0.68781,1.19132 m -53.83741,-54.34092 53.1496,53.1496 m -54.34092,-53.83741 c 0.44825,0.11958 0.86363,0.3594 1.19132,0.68781 m -2.56693,-0.68781 c 0.44798,-0.12056 0.92762,-0.12056 1.37561,0 m -2.56693,0.68781 c 0.32769,-0.32841 0.74307,-0.56823 1.19132,-0.68781 m -1.87913,1.87912 c 0.11959,-0.44825 0.35941,-0.86363 0.68781,-1.19131 m -0.68781,2.56693 c -0.12056,-0.44799 -0.12056,-0.92763 0,-1.37562 m 0.68781,2.56693 c -0.3284,-0.32769 -0.56822,-0.74307 -0.68781,-1.19131 m 53.83742,54.34092 -53.14961,-53.14961 m 36.62439,53.83741 c -0.44825,-0.11958 -0.86363,-0.3594 -1.19132,-0.6878 m 2.56693,0.6878 c -0.44799,0.12056 -0.92763,0.12056 -1.37561,0 m 2.56693,-0.6878 c -0.32769,0.3284 -0.74307,0.56822 -1.19132,0.6878 m 1.87912,-1.87912 c -0.11958,0.44825 -0.3594,0.86363 -0.6878,1.19132 m 0.6878,-2.56693 c 0.12057,0.44798 0.12057,0.92763 0,1.37561 m -0.6878,-2.56693 c 0.3284,0.32769 0.56822,0.74307 0.6878,1.19132 m -36.12087,-36.62439 35.43307,35.43307 m -36.62439,-36.12088 c 0.44825,0.11959 0.86363,0.35941 1.19132,0.68781 m -2.56693,-0.68781 c 0.44798,-0.12056 0.92762,-0.12056 1.37561,0 m -2.56693,0.68781 c 0.32769,-0.3284 0.74307,-0.56822 1.19132,-0.68781 m -1.87913,1.87913 c 0.11959,-0.44825 0.35941,-0.86363 0.68781,-1.19132 m -0.68781,2.56693 c -0.12056,-0.44799 -0.12056,-0.92763 0,-1.37561 m 0.68781,2.56693 c -0.3284,-0.32769 -0.56822,-0.74307 -0.68781,-1.19132 m 36.12088,36.62439 -35.43307,-35.43307 M 1062.844,395.47599 938.82827,271.46025 m 124.70353,125.20706 c -0.1196,-0.44825 -0.3594,-0.86363 -0.6878,-1.19132 m 0.6878,2.56693 c 0.1206,-0.44798 0.1206,-0.92763 0,-1.37561 m -0.6878,2.56693 c 0.3284,-0.32769 0.5682,-0.74307 0.6878,-1.19132 m -1.8791,1.87912 c 0.4482,-0.11958 0.8636,-0.3594 1.1913,-0.6878 m -2.5669,0.6878 c 0.448,0.12056 0.9276,0.12056 1.3756,0 m -2.5669,-0.6878 c 0.3277,0.3284 0.743,0.56822 1.1913,0.6878 M 935.07002,275.21849 1059.0858,399.23424 M 934.38221,274.02717 c 0.11959,0.44825 0.35941,0.86363 0.68781,1.19132 m -0.68781,-2.56693 c -0.12056,0.44799 -0.12056,0.92763 0,1.37561 m 0.68781,-2.56692 c -0.3284,0.32768 -0.56822,0.74306 -0.68781,1.19131 m 1.87913,-1.87912 c -0.44825,0.11958 -0.86363,0.3594 -1.19132,0.68781 m 2.56693,-0.68781 c -0.44799,-0.12056 -0.92763,-0.12056 -1.37561,0 m 2.56693,0.68781 c -0.32769,-0.32841 -0.74307,-0.56823 -1.19132,-0.68781 m -2.56693,110.74526 17.71654,17.71654 m -18.40435,-18.90785 c 0.11959,0.44825 0.35941,0.86363 0.68781,1.19131 m -0.68781,-2.56693 c -0.12056,0.44799 -0.12056,0.92763 0,1.37562 m 0.68781,-2.56693 c -0.3284,0.32768 -0.56822,0.74307 -0.68781,1.19131 m 1.87913,-1.87912 c -0.44825,0.11958 -0.86363,0.35941 -1.19132,0.68781 m 2.56693,-0.68781 c -0.44799,-0.12056 -0.92763,-0.12056 -1.37561,0 m 2.56693,0.68781 c -0.32769,-0.3284 -0.74307,-0.56823 -1.19132,-0.68781 m 18.90785,18.40434 -17.71653,-17.71653 m 18.40434,18.90785 c -0.11958,-0.44825 -0.3594,-0.86363 -0.68781,-1.19132 m 0.68781,2.56693 c 0.12056,-0.44798 0.12056,-0.92763 0,-1.37561 m -0.68781,2.56693 c 0.32841,-0.32769 0.56823,-0.74307 0.68781,-1.19132 m -1.87912,1.87912 c 0.44825,-0.11958 0.86363,-0.3594 1.19131,-0.6878 m -2.56693,0.6878 c 0.44799,0.12056 0.92763,0.12056 1.37562,0 m -2.56693,-0.6878 c 0.32768,0.3284 0.74307,0.56822 1.19131,0.6878 M 1077.9936,329.0559 c -0.4482,-0.11958 -0.8636,-0.3594 -1.1913,-0.6878 m 2.5669,0.6878 c -0.448,0.12056 -0.9276,0.12056 -1.3756,0 m 2.567,-0.6878 c -0.3277,0.3284 -0.7431,0.56822 -1.1914,0.6878 m 1.8792,-1.87912 c -0.1196,0.44825 -0.3594,0.86363 -0.6878,1.19132 m 0.6878,-2.56693 c 0.1205,0.44798 0.1205,0.92762 0,1.37561 m -0.6878,-2.56693 c 0.3284,0.32769 0.5682,0.74307 0.6878,1.19132 M 938.82827,182.87757 1080.5606,324.60985 M 937.63695,182.18976 c 0.44825,0.11958 0.86363,0.3594 1.19132,0.68781 m -2.56693,-0.68781 c 0.44798,-0.12056 0.92762,-0.12056 1.37561,0 m -2.56693,0.68781 c 0.32769,-0.32841 0.74307,-0.56823 1.19132,-0.68781 m -1.87913,1.87912 c 0.11959,-0.44824 0.35941,-0.86363 0.68781,-1.19131 m -0.68781,2.56693 c -0.12056,-0.44799 -0.12056,-0.92763 0,-1.37562 m 0.68781,2.56693 c -0.3284,-0.32769 -0.56822,-0.74306 -0.68781,-1.19131 M 1076.8023,328.3681 935.07002,186.63581 m 142.92358,124.70356 c -0.4482,-0.11959 -0.8636,-0.3594 -1.1913,-0.68781 m 2.5669,0.68781 c -0.448,0.12056 -0.9276,0.12056 -1.3756,0 m 2.567,-0.68781 c -0.3277,0.32841 -0.7431,0.56822 -1.1914,0.68781 m 1.8792,-1.87913 c -0.1196,0.44825 -0.3594,0.86363 -0.6878,1.19132 m 0.6878,-2.56693 c 0.1205,0.44799 0.1205,0.92763 0,1.37561 m -0.6878,-2.56692 c 0.3284,0.32768 0.5682,0.74306 0.6878,1.19131 M 938.82827,165.16103 1080.5606,306.89332 M 937.63695,164.47323 c 0.44825,0.11958 0.86363,0.3594 1.19132,0.6878 m -2.56693,-0.6878 c 0.44798,-0.12057 0.92762,-0.12057 1.37561,0 m -2.56693,0.6878 c 0.32769,-0.3284 0.74307,-0.56822 1.19132,-0.6878 m -1.87913,1.87912 c 0.11959,-0.44825 0.35941,-0.86363 0.68781,-1.19132 m -0.68781,2.56693 c -0.12056,-0.44799 -0.12056,-0.92763 0,-1.37561 m 0.68781,2.56693 c -0.3284,-0.32769 -0.56822,-0.74307 -0.68781,-1.19132 M 1076.8023,310.65156 935.07002,168.91928 m 146.17838,103.73228 c -0.1196,-0.44825 -0.3594,-0.86363 -0.6878,-1.19131 m 0.6878,2.56692 c 0.1205,-0.44798 0.1205,-0.92762 0,-1.37561 m -0.6878,2.56693 c 0.3284,-0.32769 0.5682,-0.74307 0.6878,-1.19132 m -1.8792,1.87913 c 0.4483,-0.11959 0.8637,-0.35941 1.1914,-0.68781 m -2.567,0.68781 c 0.448,0.12056 0.9276,0.12056 1.3756,0 m -2.5669,-0.68781 c 0.3277,0.3284 0.7431,0.56822 1.1913,0.68781 M 935.07002,133.48621 1076.8023,275.21849 M 934.38221,132.29489 c 0.11959,0.44825 0.35941,0.86363 0.68781,1.19132 m -0.68781,-2.56693 c -0.12056,0.44798 -0.12056,0.92762 0,1.37561 m 0.68781,-2.56693 c -0.3284,0.32769 -0.56822,0.74307 -0.68781,1.19132 m 1.87913,-1.87913 c -0.44825,0.11959 -0.86363,0.35941 -1.19132,0.68781 m 2.56693,-0.68781 c -0.44799,-0.12056 -0.92763,-0.12056 -1.37561,0 m 2.56693,0.68781 c -0.32769,-0.3284 -0.74307,-0.56822 -1.19132,-0.68781 M 1080.5606,271.46025 938.82827,129.72796 m 139.16533,110.74527 c -0.4482,-0.11959 -0.8636,-0.35941 -1.1913,-0.68781 m 2.5669,0.68781 c -0.448,0.12056 -0.9276,0.12056 -1.3756,0 m 2.567,-0.68781 c -0.3277,0.3284 -0.7431,0.56822 -1.1914,0.68781 m 1.8792,-1.87913 c -0.1196,0.44825 -0.3594,0.86363 -0.6878,1.19132 m 0.6878,-2.56693 c 0.1205,0.44799 0.1205,0.92763 0,1.37561 m -0.6878,-2.56692 c 0.3284,0.32768 0.5682,0.74306 0.6878,1.19131 M 956.5448,112.01143 1080.5606,236.02718 M 955.35349,111.32362 c 0.44825,0.11958 0.86363,0.3594 1.19131,0.68781 m -2.56693,-0.68781 c 0.44799,-0.12056 0.92763,-0.12056 1.37562,0 m -2.56693,0.68781 c 0.32768,-0.32841 0.74307,-0.56823 1.19131,-0.68781 m -1.87912,1.87912 c 0.11958,-0.44825 0.35941,-0.86363 0.68781,-1.19131 m -0.68781,2.56693 c -0.12056,-0.44799 -0.12056,-0.92763 0,-1.37562 m 0.68781,2.56693 c -0.3284,-0.32769 -0.56823,-0.74306 -0.68781,-1.19131 M 1076.8023,239.78542 952.78656,115.76967 m 125.20704,89.27048 c -0.4482,-0.11958 -0.8636,-0.3594 -1.1913,-0.6878 m 2.5669,0.6878 c -0.448,0.12056 -0.9276,0.12056 -1.3756,0 m 2.567,-0.6878 c -0.3277,0.3284 -0.7431,0.56822 -1.1914,0.6878 m 1.8792,-1.87912 c -0.1196,0.44825 -0.3594,0.86363 -0.6878,1.19132 m 0.6878,-2.56693 c 0.1205,0.44798 0.1205,0.92762 0,1.37561 m -0.6878,-2.56692 c 0.3284,0.32768 0.5682,0.74306 0.6878,1.19131 m -89.27053,-89.77399 88.58273,88.58268 m -89.77404,-89.27049 c 0.44825,0.11958 0.86362,0.3594 1.19131,0.68781 m -2.56693,-0.68781 c 0.44799,-0.12056 0.92763,-0.12056 1.37562,0 m -2.56693,0.68781 c 0.32769,-0.32841 0.74307,-0.56823 1.19131,-0.68781 m -1.87912,1.87912 c 0.11958,-0.44825 0.35941,-0.86363 0.68781,-1.19131 m -0.68781,2.56693 c -0.12056,-0.44799 -0.12056,-0.92763 0,-1.37562 m 0.68781,2.56693 c -0.3284,-0.32769 -0.56823,-0.74306 -0.68781,-1.19131 m 89.27048,89.77399 -88.58267,-88.58268 m 93.02877,103.73228 c -0.1196,-0.44824 -0.3594,-0.86363 -0.6878,-1.19131 m 0.6878,2.56693 c 0.1205,-0.44799 0.1205,-0.92763 0,-1.37562 m -0.6878,2.56693 c 0.3284,-0.32768 0.5682,-0.74306 0.6878,-1.19131 m -1.8792,1.87912 c 0.4483,-0.11958 0.8637,-0.3594 1.1914,-0.68781 m -2.567,0.68781 c 0.448,0.12056 0.9276,0.12056 1.3756,0 m -2.5669,-0.68781 c 0.3277,0.32841 0.7431,0.56823 1.1913,0.68781 M 970.50309,115.76967 1076.8023,222.06888 M 969.81529,114.57836 c 0.11958,0.44825 0.3594,0.86362 0.6878,1.19131 m -0.6878,-2.56693 c -0.12057,0.44799 -0.12057,0.92763 0,1.37562 m 0.6878,-2.56693 c -0.3284,0.32768 -0.56822,0.74306 -0.6878,1.19131 m 1.87912,-1.87912 c -0.44825,0.11958 -0.86363,0.3594 -1.19132,0.68781 m 2.56693,-0.68781 c -0.44799,-0.12056 -0.92763,-0.12056 -1.37561,0 m 2.56693,0.68781 c -0.32769,-0.32841 -0.74307,-0.56823 -1.19132,-0.68781 M 1080.5606,218.31064 974.26134,112.01143 m 106.98706,72.05745 c -0.1196,-0.44824 -0.3594,-0.86363 -0.6878,-1.19131 m 0.6878,2.56693 c 0.1205,-0.44799 0.1205,-0.92763 0,-1.37562 m -0.6878,2.56693 c 0.3284,-0.32769 0.5682,-0.74306 0.6878,-1.19131 m -1.8792,1.87912 c 0.4483,-0.11958 0.8637,-0.3594 1.1914,-0.68781 m -2.567,0.68781 c 0.448,0.12056 0.9276,0.12056 1.3756,0 m -2.5669,-0.68781 c 0.3277,0.32841 0.7431,0.56823 1.1913,0.68781 m -72.0574,-71.55395 70.8661,70.86614 m -71.5539,-72.05745 c 0.1195,0.44825 0.3594,0.86362 0.6878,1.19131 m -0.6878,-2.56693 c -0.1206,0.44799 -0.1206,0.92763 0,1.37562 m 0.6878,-2.56693 c -0.3284,0.32768 -0.5683,0.74306 -0.6878,1.19131 m 1.8791,-1.87912 c -0.4483,0.11958 -0.8636,0.3594 -1.1913,0.68781 m 2.5669,-0.68781 c -0.448,-0.12056 -0.9276,-0.12056 -1.3756,0 m 2.5669,0.68781 c -0.3277,-0.32841 -0.7431,-0.56823 -1.1913,-0.68781 m 72.0575,71.55395 -70.8662,-70.86614 m 71.554,36.62438 c -0.1196,-0.44825 -0.3594,-0.86363 -0.6878,-1.19131 m 0.6878,2.56693 c 0.1205,-0.44799 0.1205,-0.92763 0,-1.37562 m -0.6878,2.56693 c 0.3284,-0.32769 0.5682,-0.74306 0.6878,-1.19131 m -1.8792,1.87912 c 0.4483,-0.11959 0.8637,-0.3594 1.1914,-0.68781 m -2.567,0.68781 c 0.448,0.12056 0.9276,0.12056 1.3756,0 m -2.5669,-0.68781 c 0.3277,0.32841 0.7431,0.56822 1.1913,0.68781 m -36.6244,-36.12088 35.4331,35.43307 m -36.1209,-36.62438 c 0.1196,0.44825 0.3594,0.86362 0.6878,1.19131 m -0.6878,-2.56693 c -0.1205,0.44799 -0.1205,0.92763 0,1.37562 m 0.6878,-2.56693 c -0.3284,0.32768 -0.5682,0.74306 -0.6878,1.19131 m 1.8791,-1.87912 c -0.4482,0.11958 -0.8636,0.3594 -1.1913,0.68781 m 2.567,-0.68781 c -0.448,-0.12056 -0.9277,-0.12056 -1.3757,0 m 2.567,0.68781 c -0.3277,-0.32841 -0.7431,-0.56823 -1.1913,-0.68781 m 36.6244,36.12088 -35.4331,-35.43307 m 32.8661,22.16258 c -0.4482,-0.11958 -0.8636,-0.3594 -1.1913,-0.6878 m 2.5669,0.6878 c -0.448,0.12056 -0.9276,0.12056 -1.3756,0 m 2.567,-0.6878 c -0.3277,0.3284 -0.7431,0.56822 -1.1914,0.6878 m 1.8792,-1.87912 c -0.1196,0.44825 -0.3594,0.86363 -0.6878,1.19132 m 0.6878,-2.56693 c 0.1205,0.44798 0.1205,0.92762 0,1.37561 m -0.6878,-2.56693 c 0.3284,0.32769 0.5682,0.74307 0.6878,1.19132 m -18.4044,-18.90785 17.7166,17.71653 m -18.9079,-18.40434 c 0.4482,0.11958 0.8636,0.3594 1.1913,0.68781 m -2.5669,-0.68781 c 0.448,-0.12056 0.9276,-0.12056 1.3756,0 m -2.5669,0.68781 c 0.3277,-0.32841 0.743,-0.56823 1.1913,-0.68781 m -1.8791,1.87912 c 0.1195,-0.44825 0.3594,-0.86363 0.6878,-1.19131 m -0.6878,2.56693 c -0.1206,-0.44799 -0.1206,-0.92763 0,-1.37562 m 0.6878,2.56693 c -0.3284,-0.32769 -0.5683,-0.74306 -0.6878,-1.19131 m 18.4043,18.90785 -17.7165,-17.71654 m 18.9078,142.42009 c -0.4482,-0.11958 -0.8636,-0.3594 -1.1913,-0.68781 m 2.5669,0.68781 c -0.448,0.12056 -0.9276,0.12056 -1.3756,0 m 2.567,-0.68781 c -0.3277,0.32841 -0.7431,0.56823 -1.1914,0.68781 m 1.8792,-1.87912 c -0.1196,0.44825 -0.3594,0.86363 -0.6878,1.19131 m 0.6878,-2.56693 c 0.1205,0.44799 0.1205,0.92763 0,1.37562 m -0.6878,-2.56693 c 0.3284,0.32769 0.5682,0.74307 0.6878,1.19131 M 938.82827,112.01143 1080.5606,253.74371 M 937.63695,111.32362 c 0.44825,0.11958 0.86363,0.3594 1.19132,0.68781 m -2.56693,-0.68781 c 0.44798,-0.12056 0.92762,-0.12056 1.37561,0 m -2.56693,0.68781 c 0.32769,-0.32841 0.74307,-0.56823 1.19132,-0.68781 m -1.87913,1.87912 c 0.11959,-0.44825 0.35941,-0.86363 0.68781,-1.19131 m -0.68781,2.56693 c -0.12056,-0.44799 -0.12056,-0.92763 0,-1.37562 m 0.68781,2.56693 c -0.3284,-0.32769 -0.56822,-0.74306 -0.68781,-1.19131 M 1076.8023,257.50195 935.07002,115.76967 m 142.92358,177.85316 c -0.4482,-0.11958 -0.8636,-0.3594 -1.1913,-0.6878 m 2.5669,0.6878 c -0.448,0.12056 -0.9276,0.12056 -1.3756,0 m 2.567,-0.6878 c -0.3277,0.3284 -0.7431,0.56822 -1.1914,0.6878 m 1.8792,-1.87912 c -0.1196,0.44825 -0.3594,0.86363 -0.6878,1.19132 m 0.6878,-2.56694 c 0.1205,0.44799 0.1205,0.92763 0,1.37562 m -0.6878,-2.56693 c 0.3284,0.32769 0.5682,0.74307 0.6878,1.19131 M 938.82827,147.4445 1080.5606,289.17678 M 937.63695,146.75669 c 0.44825,0.11958 0.86363,0.3594 1.19132,0.68781 m -2.56693,-0.68781 c 0.44798,-0.12056 0.92762,-0.12056 1.37561,0 m -2.56693,0.68781 c 0.32769,-0.32841 0.74307,-0.56823 1.19132,-0.68781 m -1.87913,1.87912 c 0.11959,-0.44825 0.35941,-0.86363 0.68781,-1.19131 m -0.68781,2.56693 c -0.12056,-0.44799 -0.12056,-0.92763 0,-1.37562 m 0.68781,2.56693 c -0.3284,-0.32769 -0.56822,-0.74306 -0.68781,-1.19131 M 1076.8023,292.93503 935.07002,151.20274 m 142.92358,18.40434 c -0.4482,-0.11958 -0.8636,-0.3594 -1.1913,-0.6878 m 2.5669,0.6878 c -0.448,0.12056 -0.9276,0.12056 -1.3756,0 m 2.567,-0.6878 c -0.3277,0.3284 -0.7431,0.56822 -1.1914,0.6878 m 1.8792,-1.87912 c -0.1196,0.44825 -0.3594,0.86363 -0.6878,1.19132 m 0.6878,-2.56693 c 0.1205,0.44798 0.1205,0.92762 0,1.37561 m -0.6878,-2.56693 c 0.3284,0.32769 0.5682,0.74307 0.6878,1.19132 m -53.8375,-54.34092 53.1497,53.1496 m -54.341,-53.83741 c 0.4483,0.11958 0.8637,0.3594 1.1913,0.68781 m -2.5669,-0.68781 c 0.448,-0.12056 0.9276,-0.12056 1.3756,0 m -2.5669,0.68781 c 0.3277,-0.32841 0.7431,-0.56823 1.1913,-0.68781 m -1.8791,1.87912 c 0.1196,-0.44825 0.3594,-0.86363 0.6878,-1.19131 m -0.6878,2.56693 c -0.1206,-0.44799 -0.1206,-0.92763 0,-1.37562 m 0.6878,2.56693 c -0.3284,-0.32769 -0.5682,-0.74306 -0.6878,-1.19131 m 53.8374,54.34092 -53.1496,-53.14961" />
    <path
       id="path916"
       style="fill:none;stroke:#000000"
       d="m 1106.5714,236.51575 c 0.4648,-0.80304 0.7131,-1.72963 0.7121,-2.65748 m -2.6575,4.60289 c 0.804,-0.46305 1.4823,-1.14136 1.9454,-1.94541 m -4.6029,2.65748 c 0.9279,0.001 1.8544,-0.24727 2.6575,-0.71207 m -5.315,0 c 0.8031,0.4648 1.7297,0.71308 2.6575,0.71207 m -4.6029,-2.65748 c 0.4631,0.80405 1.1414,1.48236 1.9454,1.94541 m -2.6575,-4.60289 c -10e-4,0.92785 0.2473,1.85444 0.7121,2.65748 m 0,-5.31496 c -0.4648,0.80303 -0.7131,1.72963 -0.7121,2.65748 m 2.6575,-4.60289 c -0.804,0.46304 -1.4823,1.14136 -1.9454,1.94541 m 4.6029,-2.65748 c -0.9278,-0.001 -1.8544,0.24726 -2.6575,0.71207 m 5.315,0 c -0.8031,-0.46481 -1.7296,-0.71309 -2.6575,-0.71207 m 4.6029,2.65748 c -0.4631,-0.80405 -1.1414,-1.48237 -1.9454,-1.94541 m 2.6575,4.60289 c 10e-4,-0.92785 -0.2473,-1.85445 -0.7121,-2.65748" />
    <path
       id="path940"
       style="fill:none;stroke:#000000"
       d="m 1205.784,279.03543 c 0.4648,-0.80303 0.7131,-1.72963 0.7121,-2.65748 m -2.6575,4.60289 c 0.804,-0.46304 1.4823,-1.14136 1.9454,-1.94541 m -4.6029,2.65748 c 0.9279,0.001 1.8544,-0.24726 2.6575,-0.71207 m -5.315,0 c 0.8031,0.46481 1.7297,0.71309 2.6575,0.71207 m -4.6029,-2.65748 c 0.4631,0.80405 1.1414,1.48237 1.9454,1.94541 m -2.6575,-4.60289 c -10e-4,0.92785 0.2473,1.85445 0.7121,2.65748 m 0,-5.31496 c -0.4648,0.80304 -0.7131,1.72963 -0.7121,2.65748 m 2.6575,-4.60289 c -0.804,0.46305 -1.4823,1.14136 -1.9454,1.94541 m 4.6029,-2.65748 c -0.9278,-0.001 -1.8544,0.24727 -2.6575,0.71207 m 5.315,0 c -0.8031,-0.4648 -1.7296,-0.71308 -2.6575,-0.71207 m 4.6029,2.65748 c -0.4631,-0.80405 -1.1414,-1.48236 -1.9454,-1.94541 m 2.6575,4.60289 c 10e-4,-0.92785 -0.2473,-1.85444 -0.7121,-2.65748" />
    <path
       id="path1384"
       style="fill:none;stroke:#000000"
       d="m 1209.3273,381.79134 c 0.4648,-0.80304 0.7131,-1.72963 0.7121,-2.65748 m -2.6575,4.60289 c 0.804,-0.46305 1.4824,-1.14136 1.9454,-1.94541 m -4.6029,2.65748 c 0.9279,10e-4 1.8545,-0.24727 2.6575,-0.71207 m -5.315,0 c 0.8031,0.4648 1.7297,0.71308 2.6575,0.71207 m -4.6029,-2.65748 c 0.4631,0.80405 1.1414,1.48236 1.9454,1.94541 m -2.6575,-4.60289 c -10e-4,0.92785 0.2473,1.85444 0.7121,2.65748 m 0,-5.31496 c -0.4648,0.80303 -0.7131,1.72963 -0.7121,2.65748 m 2.6575,-4.60289 c -0.804,0.46304 -1.4823,1.14136 -1.9454,1.94541 m 4.6029,-2.65748 c -0.9278,-10e-4 -1.8544,0.24726 -2.6575,0.71207 m 5.315,0 c -0.803,-0.46481 -1.7296,-0.71309 -2.6575,-0.71207 m 4.6029,2.65748 c -0.463,-0.80405 -1.1414,-1.48237 -1.9454,-1.94541 m 2.6575,4.60289 c 0,-0.92785 -0.2473,-1.85445 -0.7121,-2.65748" />
    <path
       id="path1408"
       style="fill:none;stroke:#000000"
       d="m 1209.3273,133.75984 c 0.4648,-0.80304 0.7131,-1.72963 0.7121,-2.65748 m -2.6575,4.60289 c 0.804,-0.46304 1.4824,-1.14136 1.9454,-1.94541 m -4.6029,2.65748 c 0.9279,0.001 1.8545,-0.24726 2.6575,-0.71207 m -5.315,0 c 0.8031,0.46481 1.7297,0.71309 2.6575,0.71207 m -4.6029,-2.65748 c 0.4631,0.80405 1.1414,1.48237 1.9454,1.94541 m -2.6575,-4.60289 c -10e-4,0.92785 0.2473,1.85444 0.7121,2.65748 m 0,-5.31496 c -0.4648,0.80304 -0.7131,1.72963 -0.7121,2.65748 m 2.6575,-4.60289 c -0.804,0.46305 -1.4823,1.14136 -1.9454,1.94541 m 4.6029,-2.65748 c -0.9278,-0.001 -1.8544,0.24727 -2.6575,0.71207 m 5.315,0 c -0.803,-0.4648 -1.7296,-0.71308 -2.6575,-0.71207 m 4.6029,2.65748 c -0.463,-0.80405 -1.1414,-1.48236 -1.9454,-1.94541 m 2.6575,4.60289 c 0,-0.92785 -0.2473,-1.85444 -0.7121,-2.65748" />
    <path
       style="fill:none;stroke:#000000"
       d="m 1328.7402,59.88189 17.7165,0"
       id="path1410"
       inkscape:connector-curvature="0" />
    <path
       style="fill:none;stroke:#000000"
       d="m 1346.4567,59.88189 0,10.984252"
       id="path1412"
       inkscape:connector-curvature="0" />
    <path
       style="fill:none;stroke:#000000"
       d="m 1346.4567,70.866142 -17.7165,0"
       id="path1414"
       inkscape:connector-curvature="0" />
    <path
       style="fill:none;stroke:#000000"
       d="m 1328.7402,70.866142 0,-10.984252"
       id="path1416"
       inkscape:connector-curvature="0" />
    <path
       style="fill:none;stroke:#000000"
       d="m 1275.5906,59.88189 17.7165,0"
       id="path1418"
       inkscape:connector-curvature="0" />
    <path
       style="fill:none;stroke:#000000"
       d="m 1293.3071,59.88189 0,10.984252"
       id="path1420"
       inkscape:connector-curvature="0" />
    <path
       style="fill:none;stroke:#000000"
       d="m 1293.3071,70.866142 -17.7165,0"
       id="path1422"
       inkscape:connector-curvature="0" />
    <path
       style="fill:none;stroke:#000000"
       d="m 1275.5906,70.866142 0,-10.984252"
       id="path1424"
       inkscape:connector-curvature="0" />
    <path
       style="fill:none;stroke:#000000"
       d="m 1169.2913,59.88189 17.7166,0"
       id="path1426"
       inkscape:connector-curvature="0" />
    <path
       style="fill:none;stroke:#000000"
       d="m 1187.0079,59.88189 0,10.984252"
       id="path1428"
       inkscape:connector-curvature="0" />
    <path
       style="fill:none;stroke:#000000"
       d="m 1187.0079,70.866142 -17.7166,0"
       id="path1430"
       inkscape:connector-curvature="0" />
    <path
       style="fill:none;stroke:#000000"
       d="m 1169.2913,70.866142 0,-10.984252"
       id="path1432"
       inkscape:connector-curvature="0" />
    <path
       style="fill:none;stroke:#000000"
       d="m 1222.4409,70.866142 0,-10.984252"
       id="path1434"
       inkscape:connector-curvature="0" />
    <path
       style="fill:none;stroke:#000000"
       d="m 1222.4409,59.88189 17.7166,0"
       id="path1436"
       inkscape:connector-curvature="0" />
    <path
       style="fill:none;stroke:#000000"
       d="m 1240.1575,59.88189 0,10.984252"
       id="path1438"
       inkscape:connector-curvature="0" />
    <path
       style="fill:none;stroke:#000000"
       d="m 1240.1575,70.866142 -17.7166,0"
       id="path1440"
       inkscape:connector-curvature="0" />
    <path
       style="fill:none;stroke:#000000"
       d="m 956.69291,59.88189 17.71654,0"
       id="path1442"
       inkscape:connector-curvature="0" />
    <path
       style="fill:none;stroke:#000000"
       d="m 974.40945,59.88189 0,10.984252"
       id="path1444"
       inkscape:connector-curvature="0" />
    <path
       style="fill:none;stroke:#000000"
       d="m 974.40945,70.866142 -17.71654,0"
       id="path1446"
       inkscape:connector-curvature="0" />
    <path
       style="fill:none;stroke:#000000"
       d="m 956.69291,70.866142 0,-10.984252"
       id="path1448"
       inkscape:connector-curvature="0" />
    <path
       style="fill:none;stroke:#000000"
       d="m 1009.8425,59.88189 17.7166,0"
       id="path1450"
       inkscape:connector-curvature="0" />
    <path
       style="fill:none;stroke:#000000"
       d="m 1027.5591,59.88189 0,10.984252"
       id="path1452"
       inkscape:connector-curvature="0" />
    <path
       style="fill:none;stroke:#000000"
       d="m 1027.5591,70.866142 -17.7166,0"
       id="path1454"
       inkscape:connector-curvature="0" />
    <path
       style="fill:none;stroke:#000000"
       d="m 1009.8425,70.866142 0,-10.984252"
       id="path1456"
       inkscape:connector-curvature="0" />
    <path
       style="fill:none;stroke:#000000"
       d="m 1062.9921,59.88189 17.7166,0"
       id="path1458"
       inkscape:connector-curvature="0" />
    <path
       style="fill:none;stroke:#000000"
       d="m 1080.7087,59.88189 0,10.984252"
       id="path1460"
       inkscape:connector-curvature="0" />
    <path
       style="fill:none;stroke:#000000"
       d="m 1080.7087,70.866142 -17.7166,0"
       id="path1462"
       inkscape:connector-curvature="0" />
    <path
       style="fill:none;stroke:#000000"
       d="m 1062.9921,70.866142 0,-10.984252"
       id="path1464"
       inkscape:connector-curvature="0" />
    <path
       style="fill:none;stroke:#000000"
       d="m 1116.1417,59.88189 17.7166,0"
       id="path1466"
       inkscape:connector-curvature="0" />
    <path
       style="fill:none;stroke:#000000"
       d="m 1133.8583,59.88189 0,10.984252"
       id="path1468"
       inkscape:connector-curvature="0" />
    <path
       style="fill:none;stroke:#000000"
       d="m 1133.8583,70.866142 -17.7166,0"
       id="path1470"
       inkscape:connector-curvature="0" />
    <path
       style="fill:none;stroke:#000000"
       d="m 1116.1417,70.866142 0,-10.984252"
       id="path1472"
       inkscape:connector-curvature="0" />
    <path
       id="path1496"
       style="fill:none;stroke:#000000"
       d="m 1106.5714,94.783465 c 0.4648,-0.803038 0.7131,-1.72963 0.7121,-2.657481 m -2.6575,4.602891 c 0.804,-0.463047 1.4823,-1.14136 1.9454,-1.94541 m -4.6029,2.65748 c 0.9279,0.001 1.8544,-0.247266 2.6575,-0.71207 m -5.315,0 c 0.8031,0.464804 1.7297,0.713083 2.6575,0.71207 m -4.6029,-2.65748 c 0.4631,0.80405 1.1414,1.482363 1.9454,1.94541 m -2.6575,-4.602891 c -10e-4,0.927851 0.2473,1.854443 0.7121,2.657481 m 0,-5.314961 c -0.4648,0.803037 -0.7131,1.72963 -0.7121,2.65748 m 2.6575,-4.60289 c -0.804,0.463046 -1.4823,1.141359 -1.9454,1.94541 m 4.6029,-2.65748 c -0.9278,-0.001 -1.8544,0.247266 -2.6575,0.71207 m 5.315,0 c -0.8031,-0.464804 -1.7296,-0.713084 -2.6575,-0.71207 m 4.6029,2.65748 c -0.4631,-0.804051 -1.1414,-1.482364 -1.9454,-1.94541 m 2.6575,4.60289 c 10e-4,-0.92785 -0.2473,-1.854443 -0.7121,-2.65748" />
    <path
       id="path1520"
       style="fill:none;stroke:#000000"
       d="m 1205.784,94.783465 c 0.4648,-0.803038 0.7131,-1.72963 0.7121,-2.657481 m -2.6575,4.602891 c 0.804,-0.463047 1.4823,-1.14136 1.9454,-1.94541 m -4.6029,2.65748 c 0.9279,0.001 1.8544,-0.247266 2.6575,-0.71207 m -5.315,0 c 0.8031,0.464804 1.7297,0.713083 2.6575,0.71207 m -4.6029,-2.65748 c 0.4631,0.80405 1.1414,1.482363 1.9454,1.94541 m -2.6575,-4.602891 c -10e-4,0.927851 0.2473,1.854443 0.7121,2.657481 m 0,-5.314961 c -0.4648,0.803037 -0.7131,1.72963 -0.7121,2.65748 m 2.6575,-4.60289 c -0.804,0.463046 -1.4823,1.141359 -1.9454,1.94541 m 4.6029,-2.65748 c -0.9278,-0.001 -1.8544,0.247266 -2.6575,0.71207 m 5.315,0 c -0.8031,-0.464804 -1.7296,-0.713084 -2.6575,-0.71207 m 4.6029,2.65748 c -0.4631,-0.804051 -1.1414,-1.482364 -1.9454,-1.94541 m 2.6575,4.60289 c 10e-4,-0.92785 -0.2473,-1.854443 -0.7121,-2.65748" />
    <path
       id="path1544"
       style="fill:none;stroke:#000000"
       d="m 1205.784,420.76772 c 0.4648,-0.80304 0.7131,-1.72963 0.7121,-2.65748 m -2.6575,4.60289 c 0.804,-0.46305 1.4823,-1.14136 1.9454,-1.94541 m -4.6029,2.65748 c 0.9279,10e-4 1.8544,-0.24727 2.6575,-0.71207 m -5.315,0 c 0.8031,0.4648 1.7297,0.71308 2.6575,0.71207 m -4.6029,-2.65748 c 0.4631,0.80405 1.1414,1.48236 1.9454,1.94541 m -2.6575,-4.60289 c -10e-4,0.92785 0.2473,1.85444 0.7121,2.65748 m 0,-5.31496 c -0.4648,0.80303 -0.7131,1.72963 -0.7121,2.65748 m 2.6575,-4.60289 c -0.804,0.46304 -1.4823,1.14135 -1.9454,1.94541 m 4.6029,-2.65748 c -0.9278,-10e-4 -1.8544,0.24726 -2.6575,0.71207 m 5.315,0 c -0.8031,-0.46481 -1.7296,-0.71309 -2.6575,-0.71207 m 4.6029,2.65748 c -0.4631,-0.80406 -1.1414,-1.48237 -1.9454,-1.94541 m 2.6575,4.60289 c 10e-4,-0.92785 -0.2473,-1.85445 -0.7121,-2.65748" />
    <path
       id="path1568"
       style="fill:none;stroke:#000000"
       d="m 1106.5714,420.76772 c 0.4648,-0.80304 0.7131,-1.72963 0.7121,-2.65748 m -2.6575,4.60289 c 0.804,-0.46305 1.4823,-1.14136 1.9454,-1.94541 m -4.6029,2.65748 c 0.9279,10e-4 1.8544,-0.24727 2.6575,-0.71207 m -5.315,0 c 0.8031,0.4648 1.7297,0.71308 2.6575,0.71207 m -4.6029,-2.65748 c 0.4631,0.80405 1.1414,1.48236 1.9454,1.94541 m -2.6575,-4.60289 c -10e-4,0.92785 0.2473,1.85444 0.7121,2.65748 m 0,-5.31496 c -0.4648,0.80303 -0.7131,1.72963 -0.7121,2.65748 m 2.6575,-4.60289 c -0.804,0.46304 -1.4823,1.14135 -1.9454,1.94541 m 4.6029,-2.65748 c -0.9278,-10e-4 -1.8544,0.24726 -2.6575,0.71207 m 5.315,0 c -0.8031,-0.46481 -1.7296,-0.71309 -2.6575,-0.71207 m 4.6029,2.65748 c -0.4631,-0.80406 -1.1414,-1.48237 -1.9454,-1.94541 m 2.6575,4.60289 c 10e-4,-0.92785 -0.2473,-1.85445 -0.7121,-2.65748" />
    <path
       id="path1592"
       style="fill:none;stroke:#000000"
       d="m 1390.036,94.783465 c 0.4648,-0.803038 0.713,-1.72963 0.712,-2.657481 m -2.6574,4.602891 c 0.804,-0.463047 1.4823,-1.14136 1.9454,-1.94541 m -4.6029,2.65748 c 0.9278,0.001 1.8544,-0.247266 2.6575,-0.71207 m -5.315,0 c 0.803,0.464804 1.7296,0.713083 2.6575,0.71207 m -4.6029,-2.65748 c 0.463,0.80405 1.1413,1.482363 1.9454,1.94541 m -2.6575,-4.602891 c -10e-4,0.927851 0.2473,1.854443 0.7121,2.657481 m 0,-5.314961 c -0.4648,0.803037 -0.7131,1.72963 -0.7121,2.65748 m 2.6575,-4.60289 c -0.8041,0.463046 -1.4824,1.141359 -1.9454,1.94541 m 4.6029,-2.65748 c -0.9279,-0.001 -1.8545,0.247266 -2.6575,0.71207 m 5.315,0 c -0.8031,-0.464804 -1.7297,-0.713084 -2.6575,-0.71207 m 4.6029,2.65748 c -0.4631,-0.804051 -1.1414,-1.482364 -1.9454,-1.94541 m 2.6574,4.60289 c 10e-4,-0.92785 -0.2472,-1.854443 -0.712,-2.65748" />
    <path
       style="fill:none;stroke:#000000"
       d="m 1379.2323,135.70525 c 0.803,0.46481 1.7296,0.71309 2.6575,0.71207"
       id="path1610"
       inkscape:connector-curvature="0" />
    <path
       style="fill:none;stroke:#000000"
       d="m 1381.8898,136.41732 c 0.9278,0.001 1.8544,-0.24726 2.6574,-0.71207"
       id="path1612"
       inkscape:connector-curvature="0" />
    <path
       id="path1616"
       style="fill:none;stroke:#000000"
       d="m 1386.4927,133.75984 c 0.4648,-0.80304 0.713,-1.72963 0.712,-2.65748 m -2.6575,4.60289 c 0.8041,-0.46304 1.4824,-1.14136 1.9455,-1.94541 m -9.2058,0 c 0.463,0.80405 1.1413,1.48237 1.9454,1.94541 m -2.6575,-4.60289 c 0,0.92785 0.2473,1.85444 0.7121,2.65748 m 0,-5.31496 c -0.4648,0.80304 -0.7131,1.72963 -0.7121,2.65748 m 2.6575,-4.60289 c -0.8041,0.46305 -1.4824,1.14136 -1.9454,1.94541 m 4.6029,-2.65748 c -0.9279,-0.001 -1.8545,0.24727 -2.6575,0.71207 m 5.3149,0 c -0.803,-0.4648 -1.7296,-0.71308 -2.6574,-0.71207 m 4.6029,2.65748 c -0.4631,-0.80405 -1.1414,-1.48236 -1.9455,-1.94541 m 2.6575,4.60289 c 10e-4,-0.92785 -0.2472,-1.85444 -0.712,-2.65748" />
    <path
       id="path1640"
       style="fill:none;stroke:#000000"
       d="m 1386.4927,381.79134 c 0.4648,-0.80304 0.713,-1.72963 0.712,-2.65748 m -2.6575,4.60289 c 0.8041,-0.46305 1.4824,-1.14136 1.9455,-1.94541 m -4.6029,2.65748 c 0.9278,10e-4 1.8544,-0.24727 2.6574,-0.71207 m -5.3149,0 c 0.803,0.4648 1.7296,0.71308 2.6575,0.71207 m -4.6029,-2.65748 c 0.463,0.80405 1.1413,1.48236 1.9454,1.94541 m -2.6575,-4.60289 c 0,0.92785 0.2473,1.85444 0.7121,2.65748 m 0,-5.31496 c -0.4648,0.80303 -0.7131,1.72963 -0.7121,2.65748 m 2.6575,-4.60289 c -0.8041,0.46304 -1.4824,1.14136 -1.9454,1.94541 m 4.6029,-2.65748 c -0.9279,-10e-4 -1.8545,0.24726 -2.6575,0.71207 m 5.3149,0 c -0.803,-0.46481 -1.7296,-0.71309 -2.6574,-0.71207 m 4.6029,2.65748 c -0.4631,-0.80405 -1.1414,-1.48237 -1.9455,-1.94541 m 2.6575,4.60289 c 10e-4,-0.92785 -0.2472,-1.85445 -0.712,-2.65748" />
    <path
       id="path1664"
       style="fill:none;stroke:#000000"
       d="m 1390.036,420.76772 c 0.4648,-0.80304 0.713,-1.72963 0.712,-2.65748 m -2.6574,4.60289 c 0.804,-0.46305 1.4823,-1.14136 1.9454,-1.94541 m -4.6029,2.65748 c 0.9278,10e-4 1.8544,-0.24727 2.6575,-0.71207 m -5.315,0 c 0.803,0.4648 1.7296,0.71308 2.6575,0.71207 m -4.6029,-2.65748 c 0.463,0.80405 1.1413,1.48236 1.9454,1.94541 m -2.6575,-4.60289 c -10e-4,0.92785 0.2473,1.85444 0.7121,2.65748 m 0,-5.31496 c -0.4648,0.80303 -0.7131,1.72963 -0.7121,2.65748 m 2.6575,-4.60289 c -0.8041,0.46304 -1.4824,1.14135 -1.9454,1.94541 m 4.6029,-2.65748 c -0.9279,-10e-4 -1.8545,0.24726 -2.6575,0.71207 m 5.315,0 c -0.8031,-0.46481 -1.7297,-0.71309 -2.6575,-0.71207 m 4.6029,2.65748 c -0.4631,-0.80406 -1.1414,-1.48237 -1.9454,-1.94541 m 2.6574,4.60289 c 10e-4,-0.92785 -0.2472,-1.85445 -0.712,-2.65748" />
    <path
       style="fill:none;stroke:#000000"
       d="m 1381.8898,70.866142 0,-10.984252"
       id="path1666"
       inkscape:connector-curvature="0" />
    <path
       style="fill:none;stroke:#000000"
       d="m 1381.8898,59.88189 17.7165,0"
       id="path1668"
       inkscape:connector-curvature="0" />
    <path
       style="fill:none;stroke:#000000"
       d="m 1399.6063,59.88189 0,10.984252"
       id="path1670"
       inkscape:connector-curvature="0" />
    <path
       style="fill:none;stroke:#000000"
       d="m 1399.6063,70.866142 -17.7165,0"
       id="path1672"
       inkscape:connector-curvature="0" />
    <path
       id="path1696"
       style="fill:none;stroke:#000000"
       d="m 922.31943,420.76772 c 0.4648,-0.80304 0.71308,-1.72963 0.71207,-2.65748 m -2.65748,4.60289 c 0.80405,-0.46305 1.48236,-1.14136 1.94541,-1.94541 m -4.60289,2.65748 c 0.92785,10e-4 1.85444,-0.24727 2.65748,-0.71207 m -5.31497,0 c 0.80304,0.4648 1.72963,0.71308 2.65749,0.71207 m -4.60289,-2.65748 c 0.46304,0.80405 1.14135,1.48236 1.9454,1.94541 m -2.65748,-4.60289 c -10e-4,0.92785 0.24727,1.85444 0.71208,2.65748 m 0,-5.31496 c -0.46481,0.80303 -0.71309,1.72963 -0.71208,2.65748 m 2.65748,-4.60289 c -0.80405,0.46304 -1.48236,1.14135 -1.9454,1.94541 m 4.60289,-2.65748 c -0.92786,-10e-4 -1.85445,0.24726 -2.65749,0.71207 m 5.31497,0 c -0.80304,-0.46481 -1.72963,-0.71309 -2.65748,-0.71207 m 4.60289,2.65748 c -0.46305,-0.80406 -1.14136,-1.48237 -1.94541,-1.94541 m 2.65748,4.60289 c 10e-4,-0.92785 -0.24727,-1.85445 -0.71207,-2.65748" />
    <path
       style="fill:none;stroke:#000000"
       d="m 903.54331,70.866142 0,-10.984252"
       id="path1698"
       inkscape:connector-curvature="0" />
    <path
       style="fill:none;stroke:#000000"
       d="m 903.54331,59.88189 17.71653,0"
       id="path1700"
       inkscape:connector-curvature="0" />
    <path
       style="fill:none;stroke:#000000"
       d="m 921.25984,59.88189 0,10.984252"
       id="path1702"
       inkscape:connector-curvature="0" />
    <path
       style="fill:none;stroke:#000000"
       d="m 921.25984,70.866142 -17.71653,0"
       id="path1704"
       inkscape:connector-curvature="0" />
    <path
       style="fill:none;stroke:#000000"
       d="m 923.0315,92.125984 c 10e-4,-0.92785 -0.24727,-1.854443 -0.71207,-2.65748"
       id="path1706"
       inkscape:connector-curvature="0" />
    <path
       style="fill:none;stroke:#000000"
       d="m 922.31943,89.468504 c -0.46305,-0.804051 -1.14136,-1.482364 -1.94541,-1.94541"
       id="path1708"
       inkscape:connector-curvature="0" />
    <path
       style="fill:none;stroke:#000000"
       d="m 920.37402,87.523094 c -0.80304,-0.464804 -1.72963,-0.713084 -2.65748,-0.71207"
       id="path1710"
       inkscape:connector-curvature="0" />
    <path
       style="fill:none;stroke:#000000"
       d="m 917.71654,86.811024 c -0.92786,-0.001 -1.85445,0.247266 -2.65749,0.71207"
       id="path1712"
       inkscape:connector-curvature="0" />
    <path
       style="fill:none;stroke:#000000"
       d="m 915.05905,87.523094 c -0.80405,0.463046 -1.48236,1.141359 -1.9454,1.94541"
       id="path1714"
       inkscape:connector-curvature="0" />
    <path
       style="fill:none;stroke:#000000"
       d="m 913.11365,89.468504 c -0.46481,0.803037 -0.71309,1.72963 -0.71208,2.65748"
       id="path1716"
       inkscape:connector-curvature="0" />
    <path
       style="fill:none;stroke:#000000"
       d="m 912.40157,92.125984 c -10e-4,0.927851 0.24727,1.854443 0.71208,2.657481"
       id="path1718"
       inkscape:connector-curvature="0" />
    <path
       style="fill:none;stroke:#000000"
       d="m 913.11365,94.783465 c 0.46304,0.80405 1.14135,1.482363 1.9454,1.94541"
       id="path1720"
       inkscape:connector-curvature="0" />
    <path
       style="fill:none;stroke:#000000"
       d="m 915.05905,96.728875 c 0.80304,0.464804 1.72963,0.713083 2.65749,0.71207"
       id="path1722"
       inkscape:connector-curvature="0" />
    <path
       style="fill:none;stroke:#000000"
       d="m 917.71654,97.440945 c 0.92785,0.001 1.85444,-0.247266 2.65748,-0.71207"
       id="path1724"
       inkscape:connector-curvature="0" />
    <path
       style="fill:none;stroke:#000000"
       d="m 920.37402,96.728875 c 0.80405,-0.463047 1.48236,-1.14136 1.94541,-1.94541"
       id="path1726"
       inkscape:connector-curvature="0" />
    <path
       style="fill:none;stroke:#000000"
       d="m 922.31943,94.783465 c 0.4648,-0.803038 0.71308,-1.72963 0.71207,-2.657481"
       id="path1728"
       inkscape:connector-curvature="0" />
    <path
       id="path1736"
       style="fill:none;stroke:#000000"
       d="m 956.69291,453.54331 0,-10.98426 m 17.71654,10.98426 -17.71654,0 m 17.71654,-10.98426 0,10.98426 m -17.71654,-10.98426 17.71654,0" />
    <path
       id="path1744"
       style="fill:none;stroke:#000000"
       d="m 1009.8425,442.55905 17.7166,0 m -17.7166,10.98426 0,-10.98426 m 17.7166,10.98426 -17.7166,0 m 17.7166,-10.98426 0,10.98426" />
    <path
       id="path1752"
       style="fill:none;stroke:#000000"
       d="m 1062.9921,442.55905 17.7166,0 m -17.7166,10.98426 0,-10.98426 m 17.7166,10.98426 -17.7166,0 m 17.7166,-10.98426 0,10.98426" />
    <path
       id="path1760"
       style="fill:none;stroke:#000000"
       d="m 1116.1417,453.54331 0,-10.98426 m 17.7166,10.98426 -17.7166,0 m 17.7166,-10.98426 0,10.98426 m -17.7166,-10.98426 17.7166,0" />
    <path
       id="path1768"
       style="fill:none;stroke:#000000"
       d="m 1328.7402,453.54331 0,-10.98426 m 17.7165,10.98426 -17.7165,0 m 17.7165,-10.98426 0,10.98426 m -17.7165,-10.98426 17.7165,0" />
    <path
       id="path1776"
       style="fill:none;stroke:#000000"
       d="m 1275.5906,453.54331 0,-10.98426 m 17.7165,10.98426 -17.7165,0 m 17.7165,-10.98426 0,10.98426 m -17.7165,-10.98426 17.7165,0" />
    <path
       id="path1784"
       style="fill:none;stroke:#000000"
       d="m 1169.2913,453.54331 0,-10.98426 m 17.7166,10.98426 -17.7166,0 m 17.7166,-10.98426 0,10.98426 m -17.7166,-10.98426 17.7166,0" />
    <path
       id="path1792"
       style="fill:none;stroke:#000000"
       d="m 1222.4409,453.54331 0,-10.98426 m 17.7166,10.98426 -17.7166,0 m 17.7166,-10.98426 0,10.98426 m -17.7166,-10.98426 17.7166,0" />
    <path
       id="path1800"
       style="fill:none;stroke:#000000"
       d="m 903.54331,453.54331 0,-10.98426 m 17.71653,10.98426 -17.71653,0 m 17.71653,-10.98426 0,10.98426 m -17.71653,-10.98426 17.71653,0" />
    <path
       id="path1808"
       style="fill:none;stroke:#000000"
       d="m 1381.8898,453.54331 0,-10.98426 m 17.7165,10.98426 -17.7165,0 m 17.7165,-10.98426 0,10.98426 m -17.7165,-10.98426 17.7165,0" />
    <path
       id="path1832"
       style="fill:none;stroke:#000000"
       d="m 855.30345,133.93701 c 0.49579,-0.85657 0.76062,-1.84494 0.75954,-2.83465 m -2.83464,4.90975 c 0.85765,-0.49392 1.58118,-1.21745 2.0751,-2.0751 m -4.90975,2.83464 c 0.98971,0.001 1.97808,-0.26375 2.83465,-0.75954 m -5.6693,0 c 0.85657,0.49579 1.84494,0.76062 2.83465,0.75954 m -4.90975,-2.83464 c 0.49392,0.85765 1.21745,1.58118 2.0751,2.0751 m -2.83464,-4.90975 c -0.001,0.98971 0.26375,1.97808 0.75954,2.83465 m 0,-5.66929 c -0.49579,0.85657 -0.76062,1.84493 -0.75954,2.83464 m 2.83464,-4.90975 c -0.85765,0.49392 -1.58118,1.21745 -2.0751,2.07511 m 4.90975,-2.83465 c -0.98971,-0.001 -1.97808,0.26375 -2.83465,0.75954 m 5.6693,0 c -0.85657,-0.49579 -1.84494,-0.76062 -2.83465,-0.75954 m 4.90975,2.83465 c -0.49392,-0.85766 -1.21745,-1.58119 -2.0751,-2.07511 m 2.83464,4.90975 c 10e-4,-0.98971 -0.26375,-1.97807 -0.75954,-2.83464" />
    <path
       id="path1856"
       style="fill:none;stroke:#000000"
       d="m 886.88635,356.98819 c 0.46481,-0.80304 0.71309,-1.72963 0.71208,-2.65748 m -2.65748,4.60289 c 0.80405,-0.46305 1.48236,-1.14136 1.9454,-1.94541 m -4.60289,2.65748 c 0.92786,10e-4 1.85445,-0.24727 2.65749,-0.71207 m -5.31497,0 c 0.80304,0.4648 1.72963,0.71308 2.65748,0.71207 m -4.60289,-2.65748 c 0.46305,0.80405 1.14136,1.48236 1.94541,1.94541 m -2.65748,-4.60289 c -10e-4,0.92785 0.24727,1.85444 0.71207,2.65748 m 0,-5.31496 c -0.4648,0.80304 -0.71308,1.72963 -0.71207,2.65748 m 2.65748,-4.60289 c -0.80405,0.46304 -1.48236,1.14136 -1.94541,1.94541 m 4.60289,-2.65748 c -0.92785,-0.001 -1.85444,0.24726 -2.65748,0.71207 m 5.31497,0 c -0.80304,-0.46481 -1.72963,-0.71309 -2.65749,-0.71207 m 4.60289,2.65748 c -0.46304,-0.80405 -1.14135,-1.48237 -1.9454,-1.94541 m 2.65748,4.60289 c 10e-4,-0.92785 -0.24727,-1.85444 -0.71208,-2.65748" />
    <path
       id="path1880"
       style="fill:none;stroke:#000000"
       d="m 855.30345,373.79385 c 0.49579,-0.85657 0.76062,-1.84493 0.75954,-2.83464 m -2.83464,4.90975 c 0.85765,-0.49392 1.58118,-1.21745 2.0751,-2.07511 m -4.90975,2.83465 c 0.98971,0.001 1.97808,-0.26375 2.83465,-0.75954 m -5.6693,0 c 0.85657,0.49579 1.84494,0.76062 2.83465,0.75954 m -4.90975,-2.83465 c 0.49392,0.85766 1.21745,1.58119 2.0751,2.07511 m -2.83464,-4.90975 c -0.001,0.98971 0.26375,1.97807 0.75954,2.83464 m 0,-5.66929 c -0.49579,0.85657 -0.76062,1.84494 -0.75954,2.83465 m 2.83464,-4.90975 c -0.85765,0.49392 -1.58118,1.21745 -2.0751,2.0751 m 4.90975,-2.83464 c -0.98971,-10e-4 -1.97808,0.26375 -2.83465,0.75954 m 5.6693,0 c -0.85657,-0.49579 -1.84494,-0.76062 -2.83465,-0.75954 m 4.90975,2.83464 c -0.49392,-0.85765 -1.21745,-1.58118 -2.0751,-2.0751 m 2.83464,4.90975 c 10e-4,-0.98971 -0.26375,-1.97808 -0.75954,-2.83465" />
    <path
       id="path1904"
       style="fill:none;stroke:#000000"
       d="m 1457.6657,133.93701 c 0.4957,-0.85657 0.7606,-1.84494 0.7595,-2.83465 m -2.8346,4.90975 c 0.8576,-0.49392 1.5811,-1.21745 2.0751,-2.0751 m -4.9098,2.83464 c 0.9897,0.001 1.9781,-0.26375 2.8347,-0.75954 m -5.6693,0 c 0.8565,0.49579 1.8449,0.76062 2.8346,0.75954 m -4.9097,-2.83464 c 0.4939,0.85765 1.2174,1.58118 2.0751,2.0751 m -2.8347,-4.90975 c 0,0.98971 0.2638,1.97808 0.7596,2.83465 m 0,-5.66929 c -0.4958,0.85657 -0.7607,1.84493 -0.7596,2.83464 m 2.8347,-4.90975 c -0.8577,0.49392 -1.5812,1.21745 -2.0751,2.07511 m 4.9097,-2.83465 c -0.9897,-0.001 -1.9781,0.26375 -2.8346,0.75954 m 5.6693,0 c -0.8566,-0.49579 -1.845,-0.76062 -2.8347,-0.75954 m 4.9098,2.83465 c -0.494,-0.85766 -1.2175,-1.58119 -2.0751,-2.07511 m 2.8346,4.90975 c 0,-0.98971 -0.2638,-1.97807 -0.7595,-2.83464" />
    <path
       id="path1928"
       style="fill:none;stroke:#000000"
       d="m 1425.469,158.56299 c 0.4648,-0.80304 0.7131,-1.72963 0.7121,-2.65748 m -2.6575,4.60289 c 0.8041,-0.46304 1.4824,-1.14136 1.9454,-1.94541 m -4.6029,2.65748 c 0.9279,0.001 1.8545,-0.24726 2.6575,-0.71207 m -5.3149,0 c 0.803,0.46481 1.7296,0.71309 2.6574,0.71207 m -4.6028,-2.65748 c 0.463,0.80405 1.1413,1.48237 1.9454,1.94541 m -2.6575,-4.60289 c 0,0.92785 0.2472,1.85444 0.7121,2.65748 m 0,-5.31496 c -0.4649,0.80304 -0.7131,1.72963 -0.7121,2.65748 m 2.6575,-4.60289 c -0.8041,0.46305 -1.4824,1.14136 -1.9454,1.94541 m 4.6028,-2.65748 c -0.9278,-0.001 -1.8544,0.24727 -2.6574,0.71207 m 5.3149,0 c -0.803,-0.4648 -1.7296,-0.71308 -2.6575,-0.71207 m 4.6029,2.65748 c -0.463,-0.80405 -1.1413,-1.48236 -1.9454,-1.94541 m 2.6575,4.60289 c 10e-4,-0.92785 -0.2473,-1.85444 -0.7121,-2.65748" />
    <path
       id="path1952"
       style="fill:none;stroke:#000000"
       d="m 1457.6657,381.9685 c 0.4957,-0.85657 0.7606,-1.84493 0.7595,-2.83464 m -2.8346,4.90975 c 0.8576,-0.49392 1.5811,-1.21745 2.0751,-2.07511 m -4.9098,2.83465 c 0.9897,10e-4 1.9781,-0.26375 2.8347,-0.75954 m -5.6693,0 c 0.8565,0.49579 1.8449,0.76062 2.8346,0.75954 m -4.9097,-2.83465 c 0.4939,0.85766 1.2174,1.58119 2.0751,2.07511 m -2.8347,-4.90975 c 0,0.98971 0.2638,1.97807 0.7596,2.83464 m 0,-5.66929 c -0.4958,0.85657 -0.7607,1.84494 -0.7596,2.83465 m 2.8347,-4.90975 c -0.8577,0.49392 -1.5812,1.21745 -2.0751,2.0751 m 4.9097,-2.83464 c -0.9897,-10e-4 -1.9781,0.26375 -2.8346,0.75954 m 5.6693,0 c -0.8566,-0.49579 -1.845,-0.76062 -2.8347,-0.75954 m 4.9098,2.83464 c -0.494,-0.85765 -1.2175,-1.58118 -2.0751,-2.0751 m 2.8346,4.90975 c 0,-0.98971 -0.2638,-1.97808 -0.7595,-2.83465" />
    <path
       id="path1980"
       style="fill:none;stroke:#000000"
       d="m 1222.0779,168.91928 141.7323,141.73228 m -142.4201,-142.9236 c 0.1196,0.44825 0.3594,0.86363 0.6878,1.19132 m -0.6878,-2.56693 c -0.1206,0.44798 -0.1206,0.92762 0,1.37561 m 0.6878,-2.56693 c -0.3284,0.32769 -0.5682,0.74307 -0.6878,1.19132 m 1.8791,-1.87912 c -0.4482,0.11958 -0.8636,0.3594 -1.1913,0.6878 m 2.5669,-0.6878 c -0.448,-0.12057 -0.9276,-0.12057 -1.3756,0 m 2.5669,0.6878 c -0.3276,-0.3284 -0.743,-0.56822 -1.1913,-0.6878 m 142.9236,142.42009 -141.7323,-141.73229 m 142.4201,142.9236 c -0.1196,-0.44825 -0.3594,-0.86363 -0.6878,-1.19131 m 0.6878,2.56692 c 0.1206,-0.44798 0.1206,-0.92762 0,-1.37561 m -0.6878,2.56693 c 0.3284,-0.32769 0.5682,-0.74307 0.6878,-1.19132 m -1.8791,1.87913 c 0.4483,-0.11959 0.8636,-0.3594 1.1913,-0.68781 m -2.5669,0.68781 c 0.448,0.12056 0.9276,0.12056 1.3756,0 m -2.5669,-0.68781 c 0.3277,0.32841 0.743,0.56822 1.1913,0.68781 m -1.1913,17.02873 -141.7323,-141.73229 m 142.9236,142.42009 c -0.4483,-0.11958 -0.8636,-0.3594 -1.1913,-0.6878 m 2.5669,0.6878 c -0.448,0.12056 -0.9276,0.12056 -1.3756,0 m 2.5669,-0.6878 c -0.3277,0.3284 -0.743,0.56822 -1.1913,0.6878 m 1.8791,-1.87912 c -0.1196,0.44825 -0.3594,0.86363 -0.6878,1.19132 m 0.6878,-2.56693 c 0.1206,0.44798 0.1206,0.92762 0,1.37561 m -0.6878,-2.56693 c 0.3284,0.32769 0.5682,0.74307 0.6878,1.19132 m -142.4201,-142.9236 141.7323,141.73228 M 1224.6448,182.18976 c 0.4483,0.11958 0.8637,0.3594 1.1913,0.68781 m -2.5669,-0.68781 c 0.448,-0.12056 0.9276,-0.12056 1.3756,0 m -2.5669,0.68781 c 0.3277,-0.32841 0.7431,-0.56823 1.1913,-0.68781 m -1.8791,1.87912 c 0.1196,-0.44824 0.3594,-0.86363 0.6878,-1.19131 m -0.6878,2.56693 c -0.1206,-0.44799 -0.1206,-0.92763 0,-1.37562 m 0.6878,2.56693 c -0.3284,-0.32769 -0.5682,-0.74306 -0.6878,-1.19131 m 36.1209,213.78974 -35.4331,-35.43307 m 36.6244,36.12087 c -0.4483,-0.11958 -0.8636,-0.3594 -1.1913,-0.6878 m 2.5669,0.6878 c -0.448,0.12056 -0.9276,0.12056 -1.3756,0 m 2.5669,-0.6878 c -0.3277,0.3284 -0.7431,0.56822 -1.1913,0.6878 m 1.8791,-1.87912 c -0.1196,0.44825 -0.3594,0.86363 -0.6878,1.19132 m 0.6878,-2.56693 c 0.1206,0.44798 0.1206,0.92763 0,1.37561 m -0.6878,-2.56693 c 0.3284,0.32769 0.5682,0.74307 0.6878,1.19132 m -36.1209,-36.62439 35.4331,35.43307 m -36.6244,-36.12088 c 0.4483,0.11959 0.8637,0.35941 1.1913,0.68781 m -2.5669,-0.68781 c 0.448,-0.12056 0.9276,-0.12056 1.3756,0 m -2.5669,0.68781 c 0.3277,-0.3284 0.7431,-0.56822 1.1913,-0.68781 m -1.8791,1.87913 c 0.1196,-0.44825 0.3594,-0.86363 0.6878,-1.19132 m -0.6878,2.56693 c -0.1206,-0.44799 -0.1206,-0.92763 0,-1.37561 m 0.6878,2.56693 c -0.3284,-0.32769 -0.5682,-0.74307 -0.6878,-1.19132 m 53.8374,36.62439 -53.1496,-53.14961 m 54.3409,53.83741 c -0.4482,-0.11958 -0.8636,-0.3594 -1.1913,-0.6878 m 2.5669,0.6878 c -0.448,0.12056 -0.9276,0.12056 -1.3756,0 m 2.5669,-0.6878 c -0.3276,0.3284 -0.743,0.56822 -1.1913,0.6878 m 1.8792,-1.87912 c -0.1196,0.44825 -0.3594,0.86363 -0.6879,1.19132 m 0.6879,-2.56693 c 0.1205,0.44798 0.1205,0.92763 0,1.37561 m -0.6879,-2.56693 c 0.3285,0.32769 0.5683,0.74307 0.6879,1.19132 m -53.8375,-54.34092 53.1496,53.1496 m -54.3409,-53.83741 c 0.4483,0.11958 0.8637,0.3594 1.1913,0.68781 m -2.5669,-0.68781 c 0.448,-0.12056 0.9276,-0.12056 1.3756,0 m -2.5669,0.68781 c 0.3277,-0.32841 0.7431,-0.56823 1.1913,-0.68781 m -1.8791,1.87912 c 0.1196,-0.44825 0.3594,-0.86363 0.6878,-1.19131 m -0.6878,2.56693 c -0.1206,-0.44799 -0.1206,-0.92763 0,-1.37562 m 0.6878,2.56693 c -0.3284,-0.32769 -0.5682,-0.74307 -0.6878,-1.19131 m 89.2705,54.34092 -88.5827,-88.58268 m 89.774,89.27048 c -0.4483,-0.11958 -0.8636,-0.3594 -1.1913,-0.6878 m 2.5669,0.6878 c -0.448,0.12056 -0.9276,0.12056 -1.3756,0 m 2.5669,-0.6878 c -0.3277,0.3284 -0.743,0.56822 -1.1913,0.6878 m 1.8791,-1.87912 c -0.1196,0.44825 -0.3594,0.86363 -0.6878,1.19132 m 0.6878,-2.56693 c 0.1206,0.44798 0.1206,0.92763 0,1.37561 m -0.6878,-2.56693 c 0.3284,0.32769 0.5682,0.74307 0.6878,1.19132 m -89.2705,-89.77399 88.5827,88.58267 m -89.774,-89.27048 c 0.4483,0.11958 0.8637,0.3594 1.1913,0.68781 m -2.5669,-0.68781 c 0.448,-0.12056 0.9276,-0.12056 1.3756,0 m -2.5669,0.68781 c 0.3277,-0.32841 0.7431,-0.56823 1.1913,-0.68781 m -1.8791,1.87912 c 0.1196,-0.44825 0.3594,-0.86363 0.6878,-1.19131 m -0.6878,2.56692 c -0.1206,-0.44798 -0.1206,-0.92762 0,-1.37561 m 0.6878,2.56693 c -0.3284,-0.32769 -0.5682,-0.74307 -0.6878,-1.19132 m 110.7453,86.01575 -106.2993,-106.29921 m 106.9871,107.49053 c -0.1196,-0.44825 -0.3594,-0.86363 -0.6878,-1.19132 m 0.6878,2.56693 c 0.1205,-0.44798 0.1205,-0.92763 0,-1.37561 m -0.6878,2.56693 c 0.3284,-0.32769 0.5682,-0.74307 0.6878,-1.19132 m -1.8792,1.87912 c 0.4483,-0.11958 0.8637,-0.3594 1.1914,-0.6878 m -2.567,0.6878 c 0.448,0.12056 0.9277,0.12056 1.3756,0 m -2.5669,-0.6878 c 0.3277,0.3284 0.7431,0.56822 1.1913,0.6878 m -107.4905,-106.98701 106.2992,106.29921 m -106.987,-107.49053 c 0.1196,0.44825 0.3594,0.86363 0.6878,1.19132 m -0.6878,-2.56694 c -0.1206,0.44799 -0.1206,0.92763 0,1.37562 m 0.6878,-2.56693 c -0.3284,0.32769 -0.5682,0.74307 -0.6878,1.19131 m 1.8791,-1.87912 c -0.4482,0.11959 -0.8636,0.35941 -1.1913,0.68781 m 2.5669,-0.68781 c -0.448,-0.12056 -0.9276,-0.12056 -1.3756,0 m 2.5669,0.68781 c -0.3276,-0.3284 -0.743,-0.56822 -1.1913,-0.68781 m -2.5669,-13.27048 124.0157,124.01575 M 1221.3901,274.02717 c 0.1196,0.44825 0.3594,0.86363 0.6878,1.19132 m -0.6878,-2.56693 c -0.1206,0.44799 -0.1206,0.92763 0,1.37561 m 0.6878,-2.56692 c -0.3284,0.32768 -0.5682,0.74306 -0.6878,1.19131 m 1.8791,-1.87912 c -0.4482,0.11958 -0.8636,0.3594 -1.1913,0.68781 m 2.5669,-0.68781 c -0.448,-0.12056 -0.9276,-0.12056 -1.3756,0 m 2.5669,0.68781 c -0.3276,-0.32841 -0.743,-0.56823 -1.1913,-0.68781 m 125.2071,124.70355 -124.0158,-124.01574 m 124.7036,125.20706 c -0.1196,-0.44825 -0.3594,-0.86363 -0.6878,-1.19132 m 0.6878,2.56693 c 0.1206,-0.44798 0.1206,-0.92763 0,-1.37561 m -0.6878,2.56693 c 0.3284,-0.32769 0.5682,-0.74307 0.6878,-1.19132 m -1.8791,1.87912 c 0.4482,-0.11958 0.8636,-0.3594 1.1913,-0.6878 m -2.5669,0.6878 c 0.4479,0.12056 0.9276,0.12056 1.3756,0 m -2.567,-0.6878 c 0.3277,0.3284 0.7431,0.56822 1.1914,0.6878 m 16.5252,-0.6878 -141.7323,-141.73229 m 142.9236,142.42009 c -0.4483,-0.11958 -0.8636,-0.3594 -1.1913,-0.6878 m 2.5669,0.6878 c -0.448,0.12056 -0.9276,0.12056 -1.3756,0 m 2.5669,-0.6878 c -0.3277,0.3284 -0.743,0.56822 -1.1913,0.6878 m 1.8791,-1.87912 c -0.1196,0.44825 -0.3594,0.86363 -0.6878,1.19132 m 0.6878,-2.56693 c 0.1206,0.44798 0.1206,0.92763 0,1.37561 m -0.6878,-2.56693 c 0.3284,0.32769 0.5682,0.74307 0.6878,1.19132 m -142.4201,-142.9236 141.7323,141.73228 M 1224.6448,253.0559 c 0.4483,0.11958 0.8637,0.35941 1.1913,0.68781 m -2.5669,-0.68781 c 0.448,-0.12056 0.9276,-0.12056 1.3756,0 m -2.5669,0.68781 c 0.3277,-0.3284 0.7431,-0.56823 1.1913,-0.68781 m -1.8791,1.87912 c 0.1196,-0.44824 0.3594,-0.86362 0.6878,-1.19131 m -0.6878,2.56693 c -0.1206,-0.44799 -0.1206,-0.92763 0,-1.37562 m 0.6878,2.56693 c -0.3284,-0.32768 -0.5682,-0.74306 -0.6878,-1.19131 m 71.5539,142.9236 -70.8661,-70.86614 m 72.0575,71.55394 c -0.4483,-0.11958 -0.8637,-0.3594 -1.1914,-0.6878 m 2.567,0.6878 c -0.448,0.12056 -0.9277,0.12056 -1.3756,0 m 2.5669,-0.6878 c -0.3277,0.3284 -0.7431,0.56822 -1.1913,0.6878 m 1.8791,-1.87912 c -0.1196,0.44825 -0.3594,0.86363 -0.6878,1.19132 m 0.6878,-2.56693 c 0.1206,0.44798 0.1206,0.92763 0,1.37561 m -0.6878,-2.56693 c 0.3284,0.32769 0.5682,0.74307 0.6878,1.19132 m -71.554,-72.05746 70.8662,70.86614 m -72.0575,-71.55395 c 0.4483,0.11959 0.8637,0.35941 1.1913,0.68781 m -2.5669,-0.68781 c 0.448,-0.12056 0.9276,-0.12056 1.3756,0 m -2.5669,0.68781 c 0.3277,-0.3284 0.7431,-0.56822 1.1913,-0.68781 m -1.8791,1.87913 c 0.1196,-0.44825 0.3594,-0.86363 0.6878,-1.19132 m -0.6878,2.56693 c -0.1206,-0.44799 -0.1206,-0.92763 0,-1.37561 m 0.6878,2.56693 c -0.3284,-0.32769 -0.5682,-0.74307 -0.6878,-1.19132 m 146.8661,-178.54097 c -0.1196,-0.44825 -0.3594,-0.86363 -0.6878,-1.19131 m 0.6878,2.56693 c 0.1206,-0.44799 0.1206,-0.92763 0,-1.37562 m -0.6878,2.56693 c 0.3284,-0.32769 0.5682,-0.74306 0.6878,-1.19131 m -1.8791,1.87912 c 0.4483,-0.11959 0.8636,-0.3594 1.1913,-0.68781 m -2.5669,0.68781 c 0.448,0.12056 0.9276,0.12056 1.3756,0 m -2.5669,-0.68781 c 0.3277,0.32841 0.743,0.56822 1.1913,0.68781 m -36.6244,-36.12088 35.4331,35.43307 m -36.1209,-36.62438 c 0.1196,0.44825 0.3594,0.86362 0.6878,1.19131 m -0.6878,-2.56693 c -0.1206,0.44799 -0.1206,0.92763 0,1.37562 m 0.6878,-2.56693 c -0.3284,0.32768 -0.5682,0.74306 -0.6878,1.19131 m 1.8791,-1.87912 c -0.4482,0.11958 -0.8636,0.3594 -1.1913,0.68781 m 2.5669,-0.68781 c -0.4479,-0.12056 -0.9276,-0.12056 -1.3756,0 m 2.567,0.68781 c -0.3277,-0.32841 -0.7431,-0.56823 -1.1914,-0.68781 m 36.6244,36.12088 -35.433,-35.43307 m 36.1208,89.77399 c -0.1196,-0.44825 -0.3594,-0.86363 -0.6878,-1.19131 m 0.6878,2.56692 c 0.1206,-0.44799 0.1206,-0.92763 0,-1.37561 m -0.6878,2.56693 c 0.3284,-0.32769 0.5682,-0.74307 0.6878,-1.19132 m -1.8791,1.87912 c 0.4483,-0.11958 0.8636,-0.3594 1.1913,-0.6878 m -2.5669,0.6878 c 0.448,0.12056 0.9276,0.12056 1.3756,0 m -2.5669,-0.6878 c 0.3277,0.3284 0.743,0.56822 1.1913,0.6878 m -89.774,-89.27048 88.5827,88.58268 m -89.2705,-89.77399 c 0.1196,0.44825 0.3594,0.86362 0.6878,1.19131 m -0.6878,-2.56693 c -0.1206,0.44799 -0.1206,0.92763 0,1.37562 m 0.6878,-2.56693 c -0.3284,0.32768 -0.5682,0.74306 -0.6878,1.19131 m 1.8791,-1.87912 c -0.4482,0.11958 -0.8636,0.3594 -1.1913,0.68781 m 2.5669,-0.68781 c -0.448,-0.12056 -0.9276,-0.12056 -1.3756,0 m 2.5669,0.68781 c -0.3276,-0.32841 -0.743,-0.56823 -1.1913,-0.68781 m 89.774,89.27049 -88.5827,-88.58268 m 86.0158,128.4618 c -0.4483,-0.11959 -0.8636,-0.35941 -1.1913,-0.68781 m 2.5669,0.68781 c -0.448,0.12056 -0.9276,0.12056 -1.3756,0 m 2.5669,-0.68781 c -0.3277,0.3284 -0.743,0.56822 -1.1913,0.68781 m 1.8791,-1.87913 c -0.1196,0.44825 -0.3594,0.86363 -0.6878,1.19132 m 0.6878,-2.56693 c 0.1206,0.44799 0.1206,0.92763 0,1.37561 m -0.6878,-2.56692 c 0.3284,0.32768 0.5682,0.74306 0.6878,1.19131 m -124.7035,-125.20706 124.0157,124.01575 m -125.207,-124.70356 c 0.4482,0.11958 0.8636,0.3594 1.1913,0.68781 m -2.567,-0.68781 c 0.448,-0.12056 0.9277,-0.12056 1.3757,0 m -2.567,0.68781 c 0.3277,-0.32841 0.7431,-0.56823 1.1913,-0.68781 m -1.8791,1.87912 c 0.1196,-0.44825 0.3594,-0.86363 0.6878,-1.19131 m -0.6878,2.56693 c -0.1205,-0.44799 -0.1205,-0.92763 0,-1.37562 m 0.6878,2.56693 c -0.3284,-0.32769 -0.5682,-0.74306 -0.6878,-1.19131 m 124.7036,125.20706 -124.0158,-124.01575 m 124.0158,159.44882 -141.7323,-141.73228 m 142.9236,142.42009 c -0.4483,-0.11959 -0.8636,-0.35941 -1.1913,-0.68781 m 2.5669,0.68781 c -0.448,0.12056 -0.9276,0.12056 -1.3756,0 m 2.5669,-0.68781 c -0.3277,0.3284 -0.743,0.56822 -1.1913,0.68781 m 1.8791,-1.87913 c -0.1196,0.44825 -0.3594,0.86363 -0.6878,1.19132 m 0.6878,-2.56693 c 0.1206,0.44799 0.1206,0.92763 0,1.37561 m -0.6878,-2.56692 c 0.3284,0.32768 0.5682,0.74306 0.6878,1.19131 m -142.4201,-142.9236 141.7323,141.73229 m -142.9236,-142.4201 c 0.4483,0.11959 0.8637,0.35941 1.1913,0.68781 m -2.5669,-0.68781 c 0.448,-0.12056 0.9276,-0.12056 1.3756,0 m -2.5669,0.68781 c 0.3277,-0.3284 0.7431,-0.56822 1.1913,-0.68781 m -1.8791,1.87913 c 0.1196,-0.44825 0.3594,-0.86363 0.6878,-1.19132 m -0.6878,2.56693 c -0.1206,-0.44799 -0.1206,-0.92763 0,-1.37561 m 0.6878,2.56693 c -0.3284,-0.32769 -0.5682,-0.74307 -0.6878,-1.19132 m 146.8661,158.0732 c -0.1196,-0.44824 -0.3594,-0.86362 -0.6878,-1.19131 m 0.6878,2.56693 c 0.1206,-0.44799 0.1206,-0.92763 0,-1.37562 m -0.6878,2.56694 c 0.3284,-0.32769 0.5682,-0.74307 0.6878,-1.19132 m -1.8791,1.87912 c 0.4483,-0.11958 0.8636,-0.3594 1.1913,-0.6878 m -2.5669,0.6878 c 0.448,0.12056 0.9276,0.12056 1.3756,0 m -2.5669,-0.6878 c 0.3277,0.3284 0.743,0.56822 1.1913,0.6878 m -142.9236,-142.42009 141.7323,141.73229 m -142.4201,-142.9236 c 0.1196,0.44825 0.3594,0.86362 0.6878,1.19131 m -0.6878,-2.56693 c -0.1206,0.44799 -0.1206,0.92763 0,1.37562 m 0.6878,-2.56693 c -0.3284,0.32768 -0.5682,0.74306 -0.6878,1.19131 m 1.8791,-1.87912 c -0.4482,0.11958 -0.8636,0.3594 -1.1913,0.68781 m 2.5669,-0.68781 c -0.448,-0.12056 -0.9276,-0.12056 -1.3756,0 m 2.5669,0.68781 c -0.3276,-0.32841 -0.743,-0.56823 -1.1913,-0.68781 M 1367.5684,289.17678 1225.8361,147.4445 m 137.9741,234.0732 -141.7323,-141.73228 m 142.9236,142.42009 c -0.4483,-0.11958 -0.8636,-0.3594 -1.1913,-0.68781 m 2.5669,0.68781 c -0.448,0.12056 -0.9276,0.12056 -1.3756,0 m 2.5669,-0.68781 c -0.3277,0.32841 -0.743,0.56823 -1.1913,0.68781 m 1.8791,-1.87912 c -0.1196,0.44825 -0.3594,0.86363 -0.6878,1.19131 m 0.6878,-2.56693 c 0.1206,0.44799 0.1206,0.92763 0,1.37562 m -0.6878,-2.56693 c 0.3284,0.32768 0.5682,0.74307 0.6878,1.19131 M 1225.8361,236.02718 1367.5684,377.75946 M 1224.6448,235.33937 c 0.4483,0.11958 0.8637,0.3594 1.1913,0.68781 m -2.5669,-0.68781 c 0.448,-0.12056 0.9276,-0.12056 1.3756,0 m -2.5669,0.68781 c 0.3277,-0.32841 0.7431,-0.56823 1.1913,-0.68781 m -1.8791,1.87912 c 0.1196,-0.44825 0.3594,-0.86363 0.6878,-1.19131 m -0.6878,2.56692 c -0.1206,-0.44798 -0.1206,-0.92762 0,-1.37561 m 0.6878,2.56693 c -0.3284,-0.32769 -0.5682,-0.74307 -0.6878,-1.19132 m 18.4043,160.64014 -17.7165,-17.71654 m 18.9078,18.40434 c -0.4482,-0.11958 -0.8636,-0.3594 -1.1913,-0.6878 m 2.567,0.6878 c -0.448,0.12056 -0.9277,0.12056 -1.3757,0 m 2.567,-0.6878 c -0.3277,0.3284 -0.7431,0.56822 -1.1913,0.6878 m 1.8791,-1.87912 c -0.1196,0.44825 -0.3594,0.86363 -0.6878,1.19132 m 0.6878,-2.56693 c 0.1205,0.44798 0.1205,0.92763 0,1.37561 m -0.6878,-2.56693 c 0.3284,0.32769 0.5682,0.74307 0.6878,1.19132 m -18.4044,-18.90785 17.7166,17.71653 m -18.9079,-18.40434 c 0.4483,0.11958 0.8637,0.35941 1.1913,0.68781 m -2.5669,-0.68781 c 0.448,-0.12056 0.9276,-0.12056 1.3756,0 m -2.5669,0.68781 c 0.3277,-0.3284 0.7431,-0.56823 1.1913,-0.68781 m -1.8791,1.87912 c 0.1196,-0.44824 0.3594,-0.86363 0.6878,-1.19131 m -0.6878,2.56693 c -0.1206,-0.44799 -0.1206,-0.92763 0,-1.37562 m 0.6878,2.56693 c -0.3284,-0.32768 -0.5682,-0.74306 -0.6878,-1.19131 m 0.6878,-158.25751 141.7323,141.73229 m -142.4201,-142.9236 c 0.1196,0.44825 0.3594,0.86363 0.6878,1.19131 m -0.6878,-2.56693 c -0.1206,0.44799 -0.1206,0.92763 0,1.37562 m 0.6878,-2.56693 c -0.3284,0.32768 -0.5682,0.74307 -0.6878,1.19131 m 1.8791,-1.87912 c -0.4482,0.11958 -0.8636,0.35941 -1.1913,0.68781 m 2.5669,-0.68781 c -0.448,-0.12056 -0.9276,-0.12056 -1.3756,0 m 2.5669,0.68781 c -0.3276,-0.3284 -0.743,-0.56823 -1.1913,-0.68781 m 142.9236,142.42009 -141.7323,-141.73228 m 142.4201,142.9236 c -0.1196,-0.44825 -0.3594,-0.86363 -0.6878,-1.19132 m 0.6878,2.56693 c 0.1206,-0.44799 0.1206,-0.92763 0,-1.37561 m -0.6878,2.56693 c 0.3284,-0.32769 0.5682,-0.74307 0.6878,-1.19132 m -1.8791,1.87912 c 0.4483,-0.11958 0.8636,-0.3594 1.1913,-0.6878 m -2.5669,0.6878 c 0.448,0.12056 0.9276,0.12056 1.3756,0 m -2.5669,-0.6878 c 0.3277,0.3284 0.743,0.56822 1.1913,0.6878 m 2.5669,-199.32794 -53.1496,-53.1496 m 53.8374,54.34092 c -0.1196,-0.44825 -0.3594,-0.86363 -0.6878,-1.19132 m 0.6878,2.56693 c 0.1206,-0.44799 0.1206,-0.92763 0,-1.37561 m -0.6878,2.56693 c 0.3284,-0.32769 0.5682,-0.74307 0.6878,-1.19132 m -1.8791,1.87912 c 0.4483,-0.11958 0.8636,-0.3594 1.1913,-0.6878 m -2.5669,0.6878 c 0.448,0.12056 0.9276,0.12056 1.3756,0 m -2.5669,-0.6878 c 0.3277,0.3284 0.743,0.56822 1.1913,0.6878 m -54.3409,-53.83741 53.1496,53.14961 m -53.8374,-54.34092 c 0.1195,0.44825 0.3594,0.86362 0.6878,1.19131 m -0.6878,-2.56693 c -0.1206,0.44799 -0.1206,0.92763 0,1.37562 m 0.6878,-2.56693 c -0.3284,0.32768 -0.5683,0.74306 -0.6878,1.19131 m 1.8791,-1.87912 c -0.4483,0.11958 -0.8636,0.3594 -1.1913,0.68781 m 2.5669,-0.68781 c -0.448,-0.12056 -0.9276,-0.12056 -1.3756,0 m 2.5669,0.68781 c -0.3277,-0.32841 -0.743,-0.56823 -1.1913,-0.68781 m 54.3409,18.40434 -17.7165,-17.71653 m 18.4043,18.90785 c -0.1196,-0.44825 -0.3594,-0.86363 -0.6878,-1.19132 m 0.6878,2.56693 c 0.1206,-0.44799 0.1206,-0.92763 0,-1.37561 m -0.6878,2.56693 c 0.3284,-0.32769 0.5682,-0.74307 0.6878,-1.19132 m -1.8791,1.87912 c 0.4483,-0.11958 0.8636,-0.3594 1.1913,-0.6878 m -2.5669,0.6878 c 0.448,0.12056 0.9276,0.12056 1.3756,0 m -2.5669,-0.6878 c 0.3277,0.3284 0.743,0.56822 1.1913,0.6878 m -18.9079,-18.40434 17.7166,17.71654 m -18.4044,-18.90785 c 0.1196,0.44825 0.3594,0.86362 0.6878,1.19131 m -0.6878,-2.56693 c -0.1205,0.44799 -0.1205,0.92763 0,1.37562 m 0.6878,-2.56693 c -0.3284,0.32768 -0.5682,0.74306 -0.6878,1.19131 m 1.8792,-1.87912 c -0.4483,0.11958 -0.8637,0.3594 -1.1914,0.68781 m 2.567,-0.68781 c -0.448,-0.12056 -0.9277,-0.12056 -1.3756,0 m 2.5669,0.68781 c -0.3277,-0.32841 -0.7431,-0.56823 -1.1913,-0.68781 m 16.3409,111.43307 c -0.4483,-0.11958 -0.8636,-0.3594 -1.1913,-0.68781 m 2.5669,0.68781 c -0.448,0.12056 -0.9276,0.12056 -1.3756,0 m 2.5669,-0.68781 c -0.3277,0.32841 -0.743,0.56823 -1.1913,0.68781 m 1.8791,-1.87912 c -0.1196,0.44825 -0.3594,0.86363 -0.6878,1.19131 m 0.6878,-2.56693 c 0.1206,0.44799 0.1206,0.92763 0,1.37562 m -0.6878,-2.56693 c 0.3284,0.32768 0.5682,0.74307 0.6878,1.19131 m -106.987,-107.49052 106.2992,106.29921 M 1260.0779,111.32362 c 0.4482,0.11958 0.8636,0.3594 1.1913,0.68781 m -2.5669,-0.68781 c 0.448,-0.12056 0.9276,-0.12056 1.3756,0 m -2.5669,0.68781 c 0.3277,-0.32841 0.743,-0.56823 1.1913,-0.68781 m -1.8791,1.87912 c 0.1195,-0.44825 0.3594,-0.86363 0.6878,-1.19131 m -0.6878,2.56693 c -0.1206,-0.44799 -0.1206,-0.92763 0,-1.37562 m 0.6878,2.56693 c -0.3284,-0.32769 -0.5683,-0.74306 -0.6878,-1.19131 m 106.987,107.49052 -106.2992,-106.29921 m 110.7452,68.29921 c -0.1196,-0.44824 -0.3594,-0.86363 -0.6878,-1.19131 m 0.6878,2.56693 c 0.1206,-0.44799 0.1206,-0.92763 0,-1.37562 m -0.6878,2.56693 c 0.3284,-0.32769 0.5682,-0.74306 0.6878,-1.19131 m -1.8791,1.87912 c 0.4483,-0.11958 0.8636,-0.3594 1.1913,-0.68781 m -2.5669,0.68781 c 0.448,0.12056 0.9276,0.12056 1.3756,0 m -2.5669,-0.68781 c 0.3277,0.32841 0.743,0.56823 1.1913,0.68781 m -72.0575,-71.55395 70.8662,70.86614 m -71.554,-72.05745 c 0.1196,0.44825 0.3594,0.86362 0.6878,1.19131 m -0.6878,-2.56693 c -0.1205,0.44799 -0.1205,0.92763 0,1.37562 m 0.6878,-2.56693 c -0.3284,0.32768 -0.5682,0.74306 -0.6878,1.19131 m 1.8792,-1.87912 c -0.4483,0.11958 -0.8637,0.3594 -1.1914,0.68781 m 2.567,-0.68781 c -0.448,-0.12056 -0.9277,-0.12056 -1.3756,0 m 2.5669,0.68781 c -0.3277,-0.32841 -0.7431,-0.56823 -1.1913,-0.68781 m 72.0574,71.55395 -70.8661,-70.86614 m 67.1079,145.49052 -141.7323,-141.73228 m 142.9236,142.42009 c -0.4483,-0.11958 -0.8636,-0.3594 -1.1913,-0.68781 m 2.5669,0.68781 c -0.448,0.12056 -0.9276,0.12056 -1.3756,0 m 2.5669,-0.68781 c -0.3277,0.32841 -0.743,0.56823 -1.1913,0.68781 m 1.8791,-1.87912 c -0.1196,0.44825 -0.3594,0.86363 -0.6878,1.19131 m 0.6878,-2.56693 c 0.1206,0.44799 0.1206,0.92763 0,1.37562 m -0.6878,-2.56693 c 0.3284,0.32769 0.5682,0.74307 0.6878,1.19131 M 1225.8361,112.01143 1367.5684,253.74371 M 1224.6448,111.32362 c 0.4483,0.11958 0.8637,0.3594 1.1913,0.68781 m -2.5669,-0.68781 c 0.448,-0.12056 0.9276,-0.12056 1.3756,0 m -2.5669,0.68781 c 0.3277,-0.32841 0.7431,-0.56823 1.1913,-0.68781 m -1.8791,1.87912 c 0.1196,-0.44825 0.3594,-0.86363 0.6878,-1.19131 m -0.6878,2.56693 c -0.1206,-0.44799 -0.1206,-0.92763 0,-1.37562 m 0.6878,2.56693 c -0.3284,-0.32769 -0.5682,-0.74306 -0.6878,-1.19131 m 142.4201,231.50627 -141.7323,-141.73228 m 142.9236,142.42009 c -0.4483,-0.11959 -0.8636,-0.3594 -1.1913,-0.68781 m 2.5669,0.68781 c -0.448,0.12056 -0.9276,0.12056 -1.3756,0 m 2.5669,-0.68781 c -0.3277,0.32841 -0.743,0.56822 -1.1913,0.68781 m 1.8791,-1.87912 c -0.1196,0.44824 -0.3594,0.86362 -0.6878,1.19131 m 0.6878,-2.56693 c 0.1206,0.44799 0.1206,0.92763 0,1.37562 m -0.6878,-2.56693 c 0.3284,0.32768 0.5682,0.74306 0.6878,1.19131 M 1225.8361,200.59411 1367.5684,342.32639 M 1224.6448,199.9063 c 0.4483,0.11958 0.8637,0.3594 1.1913,0.68781 m -2.5669,-0.68781 c 0.448,-0.12057 0.9276,-0.12057 1.3756,0 m -2.5669,0.68781 c 0.3277,-0.32841 0.7431,-0.56823 1.1913,-0.68781 m -1.8791,1.87912 c 0.1196,-0.44825 0.3594,-0.86363 0.6878,-1.19131 m -0.6878,2.56692 c -0.1206,-0.44799 -0.1206,-0.92763 0,-1.37561 m 0.6878,2.56693 c -0.3284,-0.32769 -0.5682,-0.74307 -0.6878,-1.19132" />
  </g>
</svg>
