<?xml version="1.0" encoding="UTF-8" standalone="no"?>
<svg
   xmlns:dc="http://purl.org/dc/elements/1.1/"
   xmlns:cc="http://creativecommons.org/ns#"
   xmlns:rdf="http://www.w3.org/1999/02/22-rdf-syntax-ns#"
   xmlns:svg="http://www.w3.org/2000/svg"
   xmlns="http://www.w3.org/2000/svg"
   xmlns:sodipodi="http://sodipodi.sourceforge.net/DTD/sodipodi-0.dtd"
   xmlns:inkscape="http://www.inkscape.org/namespaces/inkscape"
   width="744.094488189"
   height="1052.36220472"
   id="svg2"
   version="1.1"
   inkscape:version="0.91 r13725"
   sodipodi:docname="LUHC-01_Side_Slot_CLK_SMA.svg">
  <metadata
     id="metadata5622">
    <rdf:RDF>
      <cc:Work
         rdf:about="">
        <dc:format>image/svg+xml</dc:format>
        <dc:type
           rdf:resource="http://purl.org/dc/dcmitype/StillImage" />
        <dc:title></dc:title>
      </cc:Work>
    </rdf:RDF>
  </metadata>
  <sodipodi:namedview
     pagecolor="#ffffff"
     bordercolor="#666666"
     borderopacity="1"
     objecttolerance="10"
     gridtolerance="10"
     guidetolerance="10"
     inkscape:pageopacity="0"
     inkscape:pageshadow="2"
     inkscape:window-width="1282"
     inkscape:window-height="966"
     id="namedview5620"
     showgrid="false"
     inkscape:zoom="2.3639758"
     inkscape:cx="1127.7077"
     inkscape:cy="784.95758"
     inkscape:window-x="0"
     inkscape:window-y="0"
     inkscape:window-maximized="0"
     inkscape:current-layer="g20" />
  <desc
     id="desc4">C:\Users\Dave\Documents\GitHub\LimeSDR-USB_Hacker_Case\LUHC-01_Side_Slot_CLK_SMA.dxf - scale = 1.000000, origin = (0.000000, 0.000000), auto = False</desc>
  <defs
     id="defs6">
    <marker
       refY="0.0"
       refX="0.0"
       style="overflow:visible"
       id="DistanceX"
       orient="auto">
      <path
         style="stroke:#000000; stroke-width:0.5"
         d="M 3,-3 L -3,3 M 0,-5 L  0,5"
         id="path9" />
    </marker>
    <pattern
       height="8"
       width="8"
       patternUnits="userSpaceOnUse"
       y="0"
       x="0"
       id="Hatch">
      <path
         linecap="square"
         stroke="#000000"
         stroke-width="0.25"
         d="M8 4 l-4,4"
         id="path12" />
      <path
         linecap="square"
         stroke="#000000"
         stroke-width="0.25"
         d="M6 2 l-4,4"
         id="path14" />
      <path
         linecap="square"
         stroke="#000000"
         stroke-width="0.25"
         d="M4 0 l-4,4"
         id="path16" />
    </pattern>
    <symbol
       id="*MODEL_SPACE" />
    <symbol
       id="*PAPER_SPACE" />
  </defs>
  <g
     inkscape:label="0"
     inkscape:groupmode="layer"
     id="g20">
    <path
       id="path1652"
       style="stroke:#000000;fill:none"
       d="m 1087.806,116.92698 0,10.62993 m 0,0 0,0.17709 m 0,0 0.013,0.17664 m 0,0 0.022,0.17577 m 0,0 0.031,0.17444 m -10e-4,0 0.04,0.17268 m 0,0 0.048,0.17049 m -3e-4,0 0.057,0.16788 m -5e-4,0 0.065,0.16483 m -1e-4,0 0.073,0.16139 m 0,0 0.081,0.15754 m -2e-4,0 0.089,0.15329 m 2e-4,0 0.096,0.14865 m 4e-4,0 0.1036,0.14366 m 0,0 0.1107,0.13831 m 0,0 0.1175,0.13259 m 0,0 0.1239,0.12656 m 0,0 0.1302,0.1202 m 0,0 0.1359,0.11355 m 0,0 0.1415,0.10662 m 0,0 0.1466,0.0994 m 0,-4e-5 0.1514,0.092 m 0,-7e-5 0.1559,0.0843 m 0,-4e-5 0.1598,0.0764 m 0,-1e-5 0.1634,0.0683 m 0,4e-5 0.1667,0.06 m 0,8e-5 0.1695,0.0516 m 0,0 0.1718,0.0431 m 0,0 0.1737,0.0345 m 0,0 0.1753,0.0257 m 0,0 0.1763,0.017 m 0,1e-4 0.177,0.008 m -3e-4,2.4e-4 0.074,7.6e-4 m -3e-4,0 7.0866,0 m 0,0 0,35.43307 m 0,0 -7.0866,0 m 0,0 -0.1771,0.004 m 0,4e-4 -0.1767,0.0133 m 0,0 -0.1757,0.0221 m 0,0 -0.1745,0.0308 m 0,1e-4 -0.1726,0.0395 m 0,0 -0.1705,0.0481 m 0,-4e-5 -0.1679,0.0566 m 0,-5e-5 -0.1648,0.0649 m 0,3e-5 -0.1614,0.073 m 0,5e-5 -0.1576,0.081 m 0,0 -0.1533,0.0888 m 0,3e-5 -0.1486,0.0963 m 0,4e-5 -0.1437,0.10365 m 0,0 -0.1383,0.1107 m 0,0 -0.1326,0.11747 m 0,0 -0.1265,0.12395 m 0,0 -0.1202,0.13013 m 0,0 -0.1136,0.13596 m 0,0 -0.1066,0.14148 m -4e-4,0 -0.099,0.14662 m -4e-4,0 -0.092,0.15141 m -2e-4,0 -0.084,0.15582 m -6e-4,0 -0.076,0.15983 m -7e-4,0 -0.068,0.16345 m -4e-4,0 -0.06,0.16667 m 3e-4,0 -0.052,0.16945 m 0,0 -0.043,0.17182 m 0,0 -0.034,0.17376 m 0,0 -0.026,0.17527 m 0,0 -0.017,0.17634 m 0,0 -0.01,0.17696 m 7e-4,-2e-5 -7e-4,0.0737 m 0,-2e-5 0,10.62992 m 0,0 0,0.17709 m 0,0 0.013,0.17665 m 0,0 0.022,0.17577 m 0,0 0.031,0.17444 m -10e-4,0 0.04,0.17268 m 0,0 0.048,0.17049 m -3e-4,0 0.057,0.16787 m -5e-4,0 0.065,0.16484 m -10e-5,0 0.073,0.16139 m 0,0 0.081,0.15753 m -2e-4,0 0.089,0.15329 m 2e-4,0 0.096,0.14866 m 4e-4,0 0.1036,0.14366 m 0,0 0.1107,0.1383 m 0,0 0.1175,0.1326 m 0,0 0.1239,0.12655 m 0,0 0.1302,0.12021 m 0,0 0.1359,0.11355 m 0,0 0.1415,0.10661 m 0,1e-5 0.1466,0.0994 m 0,-3e-5 0.1514,0.092 m 0,-7e-5 0.1559,0.0843 m 0,-5e-5 0.1598,0.0764 m 0,-2e-5 0.1634,0.0683 m 0,-5e-5 0.1667,0.0601 m 0,-2e-5 0.1695,0.0516 m 0,0 0.1718,0.0431 m 0,0 0.1737,0.0345 m 0,0 0.1753,0.0257 m 0,1e-4 0.1763,0.0169 m 0,2e-4 0.177,0.008 m -3e-4,2.3e-4 0.074,7.7e-4 m -3e-4,0 7.0866,0 m 0,0 0,35.43307 m 0,0 -7.0866,0 m 0,0 -0.1771,0.004 m 0,4e-4 -0.1767,0.0133 m 0,0 -0.1757,0.0221 m 0,0 -0.1745,0.0308 m 0,1e-4 -0.1726,0.0395 m 0,0 -0.1705,0.0481 m 0,-3e-5 -0.1679,0.0566 m 0,-6e-5 -0.1648,0.0649 m 0,3e-5 -0.1614,0.073 m 0,6e-5 -0.1576,0.081 m 0,0 -0.1533,0.0888 m 0,3e-5 -0.1486,0.0963 m 0,4e-5 -0.1437,0.10365 m 0,0 -0.1383,0.1107 m 0,0 -0.1326,0.11747 m 0,0 -0.1265,0.12395 m 0,0 -0.1202,0.13012 m 0,0 -0.1136,0.13597 m 0,0 -0.1066,0.14147 m -4e-4,0 -0.099,0.14663 m -4e-4,0 -0.092,0.15141 m -2e-4,0 -0.084,0.15582 m -6e-4,0 -0.076,0.15983 m -7e-4,0 -0.068,0.16345 m -4e-4,0 -0.06,0.16666 m 3e-4,0 -0.052,0.16945 m 0,0 -0.043,0.17183 m -10e-4,0 -0.034,0.17376 m 0,0 -0.026,0.17527 m 0,0 -0.017,0.17633 m 0,0 -0.01,0.17696 m 7e-4,-1e-5 -7e-4,0.0737 m 0,-1e-5 0,10.62992 m 0,0 0,0.17709 m 0.01,0 0.013,0.17665 m 0,0 0.022,0.17576 m 0,0 0.031,0.17444 m -10e-4,0 0.04,0.17269 m 0,0 0.048,0.17049 m -3e-4,0 0.057,0.16787 m -5e-4,0 0.065,0.16483 m -10e-5,0 0.073,0.1614 m 0,0 0.081,0.15753 m -2e-4,0 0.089,0.15329 m 2e-4,0 0.096,0.14866 m 4e-4,0 0.1036,0.14366 m 0,0 0.1107,0.1383 m 0,0 0.1175,0.13259 m 0,0 0.1239,0.12656 m 0,0 0.1302,0.1202 m 0,0 0.1359,0.11356 m 0,0 0.1415,0.10661 m 0,1e-5 0.1466,0.0994 m 0,-4e-5 0.1514,0.092 m 0,-7e-5 0.1559,0.0843 m 0,-4e-5 0.1598,0.0764 m 0,-2e-5 0.1634,0.0683 m 0,4e-5 0.1667,0.06 m 0,8e-5 0.1695,0.0516 m 0,0 0.1718,0.0431 m 0,0 0.1737,0.0345 m 0,0 0.1753,0.0257 m 0,1e-4 0.1763,0.0169 m 0,2e-4 0.177,0.008 m -3e-4,2.4e-4 0.074,7.6e-4 m -3e-4,0 7.0866,0 m 0,0 0,35.43308 m 0,0 -7.0866,0 m 0,0 -0.1771,0.004 m 0,4e-4 -0.1767,0.0133 m 0,0 -0.1757,0.0221 m 0,0 -0.1745,0.0308 m 0,10e-5 -0.1726,0.0395 m 0,0 -0.1705,0.0481 m 0,-3e-5 -0.1679,0.0566 m 0,-5e-5 -0.1648,0.0649 m 0,2e-5 -0.1614,0.073 m 0,6e-5 -0.1576,0.081 m 0,0 -0.1533,0.0888 m 0,2e-5 -0.1486,0.0963 m 0,4e-5 -0.1437,0.10365 m 0,0 -0.1383,0.1107 m 0,0 -0.1326,0.11747 m 0,0 -0.1265,0.12396 m 0,0 -0.1202,0.13012 m 0,0 -0.1136,0.13597 m 0,0 -0.1066,0.14147 m -4e-4,0 -0.099,0.14663 m -4e-4,0 -0.092,0.15141 m -2e-4,0 -0.084,0.15581 m -6e-4,0 -0.076,0.15984 m -7e-4,0 -0.068,0.16345 m -4e-4,0 -0.06,0.16666 m 3e-4,0 -0.052,0.16945 m 0,0 -0.043,0.17182 m -10e-4,0 -0.034,0.17377 m 0,0 -0.026,0.17526 m 0,0 -0.017,0.17634 m 0,0 -0.01,0.17696 m 7e-4,-2e-5 -7e-4,0.0737 m 0,-2e-5 0,10.62992 m 0,0 0,0.17709 m 0.01,0 0.013,0.17665 m 0,0 0.022,0.17577 m 0,0 0.031,0.17444 m 0,0 0.04,0.17268 m 0,0 0.048,0.17049 m -3e-4,0 0.057,0.16788 m -5e-4,0 0.065,0.16483 m -10e-5,0 0.073,0.16139 m 0,0 0.081,0.15754 m -2e-4,0 0.089,0.15328 m 2e-4,0 0.096,0.14866 m 4e-4,0 0.1036,0.14366 m 0,0 0.1107,0.13831 m 0,0 0.1175,0.13259 m 0,0 0.1239,0.12656 m 0,0 0.1302,0.1202 m 0,0 0.1359,0.11355 m 0,0 0.1415,0.10662 m 0,0 0.1466,0.0994 m 0,-4e-5 0.1514,0.092 m 0,-7e-5 0.1559,0.0843 m 0,-4e-5 0.1598,0.0764 m 0,-2e-5 0.1634,0.0683 m 0,-6e-5 0.1667,0.0601 m 0,-10e-6 0.1695,0.0516 m 0,0 0.1718,0.0431 m 0,0 0.1737,0.0345 m 0,0 0.1753,0.0257 m 0,1e-4 0.1763,0.0169 m 0,2e-4 0.177,0.008 m -3e-4,2.4e-4 0.074,7.6e-4 m -3e-4,0 7.0866,0 m 0,0 0,35.43307 m 0,0 -7.0866,0 m 0,0 -0.1771,0.004 m 0,4e-4 -0.1767,0.0133 m 0,0 -0.1757,0.0221 m 0,0 -0.1745,0.0308 m 0,10e-5 -0.1726,0.0395 m 0,0 -0.1705,0.0481 m 0,-4e-5 -0.1679,0.0566 m 0,-5e-5 -0.1648,0.0649 m 0,3e-5 -0.1614,0.073 m 0,5e-5 -0.1576,0.081 m 0,0 -0.1533,0.0888 m 0,3e-5 -0.1486,0.0963 m 0,4e-5 -0.1437,0.10365 m 0,0 -0.1383,0.1107 m 0,0 -0.1326,0.11747 m 0,0 -0.1265,0.12395 m 0,0 -0.1202,0.13013 m 0,0 -0.1136,0.13596 m 0,0 -0.1066,0.14148 m -4e-4,0 -0.099,0.14662 m -4e-4,0 -0.092,0.15141 m -2e-4,0 -0.084,0.15582 m -6e-4,0 -0.076,0.15983 m -7e-4,0 -0.068,0.16345 m -4e-4,0 -0.06,0.16667 m 3e-4,0 -0.052,0.16945 m 0,0 -0.043,0.17182 m -10e-4,0 -0.034,0.17376 m 0,0 -0.026,0.17527 m 0,0 -0.017,0.17634 m 0,0 -0.01,0.17696 m 7e-4,-2e-5 -7e-4,0.0737 m 0,-2e-5 0,10.62992 m 0,0 0,0.17709 m 0.01,0 0.013,0.17665 m 0,0 0.022,0.17576 m 0,0 0.031,0.17445 m -10e-4,0 0.04,0.17268 m 0,0 0.048,0.17049 m -3e-4,0 0.057,0.16787 m -5e-4,0 0.065,0.16484 m -1e-4,0 0.073,0.16139 m 0,0 0.081,0.15753 m -2e-4,0 0.089,0.15329 m 2e-4,0 0.096,0.14866 m 4e-4,0 0.1036,0.14366 m 0,0 0.1107,0.1383 m 0,0 0.1175,0.1326 m 0,0 0.1239,0.12655 m 0,0 0.1302,0.12021 m 0,0 0.1359,0.11355 m 0,0 0.1415,0.10661 m 0,1e-5 0.1466,0.0994 m 0,-3e-5 0.1514,0.092 m 0,-7e-5 0.1559,0.0843 m 0,-5e-5 0.1598,0.0764 m 0,-2e-5 0.1634,0.0683 m 0,-5e-5 0.1667,0.0601 m 0,-2e-5 0.1695,0.0516 m 0,0 0.1718,0.0431 m 0,0 0.1737,0.0345 m 0,0 0.1753,0.0257 m 0,10e-5 0.1763,0.0169 m 0,2e-4 0.177,0.008 m -3e-4,2.3e-4 0.074,7.7e-4 m -3e-4,0 7.0866,0 m 0,0 0,35.43307 m 0,0 -7.0866,0 m 0,0 -0.1771,0.004 m 0,4e-4 -0.1767,0.0133 m 0,0 -0.1757,0.0221 m 0,0 -0.1745,0.0308 m 0,10e-5 -0.1726,0.0395 m 0,0 -0.1705,0.0481 m 0,-3e-5 -0.1679,0.0566 m 0,-6e-5 -0.1648,0.0649 m 0,2e-5 -0.1614,0.073 m 0,6e-5 -0.1576,0.081 m 0,1e-5 -0.1533,0.0888 m 0,3e-5 -0.1486,0.0963 m 0,4e-5 -0.1437,0.10365 m 0,0 -0.1383,0.11069 m 0,0 -0.1326,0.11748 m 0,0 -0.1265,0.12395 m 0,0 -0.1202,0.13012 m 0,0 -0.1136,0.13597 m 0,0 -0.1066,0.14147 m -4e-4,0 -0.099,0.14663 m -4e-4,0 -0.092,0.15141 m -2e-4,0 -0.084,0.15581 m -6e-4,0 -0.076,0.15984 m -7e-4,0 -0.068,0.16345 m -4e-4,0 -0.06,0.16666 m 3e-4,0 -0.052,0.16945 m 0,0 -0.043,0.17183 m -10e-4,0 -0.034,0.17376 m 0,0 -0.026,0.17527 m 0,0 -0.017,0.17633 m 0,0 -0.01,0.17696 m 7e-4,-2e-5 -7e-4,0.0737 m 0,-2e-5 0,10.62993 m 0,0 0,0.17709 m 0,0 0.013,0.17665 m 0,0 0.022,0.17576 m 0,0 0.031,0.17444 m -10e-4,0 0.04,0.17268 m 0,0 0.048,0.17049 m -3e-4,0 0.057,0.16788 m -5e-4,0 0.065,0.16483 m -1e-4,0 0.073,0.16139 m 0,0 0.081,0.15754 m -2e-4,0 0.089,0.15329 m 2e-4,0 0.096,0.14866 m 4e-4,0 0.1036,0.14366 m 0,0 0.1107,0.1383 m 0,0 0.1175,0.13259 m 0,0 0.1239,0.12656 m 0,0 0.1302,0.1202 m 0,0 0.1359,0.11355 m 0,0 0.1415,0.10662 m 0,10e-6 0.1466,0.0994 m 0,6e-5 0.1514,0.0919 m 0,3e-5 0.1559,0.0843 m 0,-4e-5 0.1598,0.0764 m 0,-2e-5 0.1634,0.0683 m 0,4e-5 0.1667,0.06 m 0,8e-5 0.1695,0.0516 m 0,0 0.1718,0.0431 m 0,0 0.1737,0.0345 m 0,0 0.1753,0.0257 m 0,0 0.1763,0.017 m 0,10e-5 0.177,0.008 m -3e-4,2.4e-4 0.074,7.6e-4 m -3e-4,0 7.0866,0 m 0,0 106.2992,0 m -0.01,0.002 7.0866,0 m 0,0 0.1771,-0.004 m 0,-4e-4 0.1767,-0.0133 m 0,10e-5 0.1757,-0.0221 m 0,0 0.1745,-0.0308 m 0,-1e-4 0.1727,-0.0395 m 0,0 0.1704,-0.0481 m 0,3e-5 0.1679,-0.0566 m 0,6e-5 0.1649,-0.0649 m 0,-2e-5 0.1613,-0.073 m 0,-6e-5 0.1576,-0.081 m 0,-10e-6 0.1533,-0.0888 m 0,-2e-5 0.1486,-0.0963 m 0,-3e-5 0.1437,-0.10365 m 0,0 0.1383,-0.1107 m 0,0 0.1326,-0.11748 m 0,0 0.1265,-0.12395 m 0,0 0.1202,-0.13012 m 0,0 0.1136,-0.13597 m 0,0 0.1066,-0.14147 m 4e-4,0 0.099,-0.14663 m 4e-4,0 0.092,-0.15141 m 2e-4,0 0.084,-0.15581 m 6e-4,0 0.076,-0.15984 m 7e-4,0 0.068,-0.16345 m 4e-4,0 0.06,-0.16666 m -3e-4,0 0.052,-0.16945 m 0,0 0.043,-0.17182 m 10e-4,0 0.034,-0.17377 m 0,0 0.026,-0.17526 m 0,0 0.017,-0.17634 m 0,0 0.01,-0.17696 m -7e-4,2e-5 7e-4,-0.0737 m 0,2e-5 0,-10.62993 m 0,0 0,-0.17709 m -0.01,0 -0.013,-0.17664 m 0,0 -0.022,-0.17577 m 0,0 -0.031,-0.17444 m 0,0 -0.039,-0.17268 m 0,0 -0.048,-0.17049 m 3e-4,0 -0.057,-0.16788 m 5e-4,0 -0.065,-0.16483 m 10e-5,0 -0.073,-0.16139 m 0,0 -0.081,-0.15754 m 2e-4,0 -0.089,-0.15328 m -2e-4,0 -0.096,-0.14867 m -4e-4,0 -0.1036,-0.14365 m 0,0 -0.1107,-0.13831 m 0,0 -0.1175,-0.13259 m 0,0 -0.1239,-0.12656 m 0,0 -0.1302,-0.1202 m 0,0 -0.1359,-0.11355 m 0,0 -0.1415,-0.10662 m 0,0 -0.1466,-0.0994 m 0,4e-5 -0.1514,-0.092 m 0,6e-5 -0.1558,-0.0843 m 0,4e-5 -0.1599,-0.0764 m 0,2e-5 -0.1634,-0.0683 m 0,-4e-5 -0.1667,-0.06 m 0,-8e-5 -0.1694,-0.0516 m 0,0 -0.1719,-0.0431 m 0,0 -0.1737,-0.0345 m 0,0 -0.1753,-0.0257 m 0,0 -0.1763,-0.017 m 0,-10e-5 -0.177,-0.008 m 3e-4,-2.4e-4 -0.074,-7.6e-4 m 3e-4,0 -7.0866,0 m 0,0 0,-35.43307 m 0,0 7.0866,0 m 0,0 0.1771,-0.004 m 0,-4e-4 0.1767,-0.0133 m 0,0 0.1757,-0.0221 m 0,0 0.1745,-0.0308 m 0,-10e-5 0.1727,-0.0395 m 0,0 0.1704,-0.0481 m 0,4e-5 0.1679,-0.0566 m 0,5e-5 0.1649,-0.0649 m 0,-3e-5 0.1613,-0.073 m 0,-5e-5 0.1576,-0.081 m 0,0 0.1533,-0.0888 m 0,-3e-5 0.1486,-0.0963 m 0,-4e-5 0.1437,-0.10365 m 0,0 0.1383,-0.1107 m 0,0 0.1326,-0.11747 m 0,0 0.1265,-0.12395 m 0,0 0.1202,-0.13013 m 0,0 0.1136,-0.13597 m 0,0 0.1066,-0.14147 m 4e-4,0 0.099,-0.14662 m 4e-4,0 0.092,-0.15141 m 2e-4,0 0.084,-0.15582 m 6e-4,0 0.076,-0.15984 m 7e-4,0 0.068,-0.16344 m 4e-4,0 0.06,-0.16667 m -3e-4,0 0.052,-0.16945 m 0,0 0.043,-0.17182 m 10e-4,0 0.034,-0.17376 m 0,0 0.026,-0.17527 m 0,0 0.017,-0.17634 m 0,0 0.01,-0.17696 m -7e-4,2e-5 7e-4,-0.0737 m 0,2e-5 0,-10.62992 m 0,0 0,-0.17709 m 0,0 -0.013,-0.17665 m 0,0 -0.022,-0.17577 m 0,0 -0.031,-0.17444 m 0,0 -0.039,-0.17268 m -10e-4,0 -0.048,-0.17049 m 3e-4,0 -0.057,-0.16787 m 5e-4,0 -0.065,-0.16484 m 10e-5,0 -0.073,-0.16139 m 0,0 -0.081,-0.15753 m 2e-4,0 -0.089,-0.15329 m -2e-4,0 -0.096,-0.14866 m -4e-4,0 -0.1036,-0.14366 m 0,0 -0.1107,-0.1383 m 0,0 -0.1175,-0.1326 m 0,0 -0.1239,-0.12655 m 0,0 -0.1302,-0.12021 m 0,0 -0.1359,-0.11355 m 0,0 -0.1415,-0.10661 m 0,-1e-5 -0.1466,-0.0994 m 0,3e-5 -0.1514,-0.092 m 0,7e-5 -0.1558,-0.0843 m 0,5e-5 -0.1599,-0.0764 m 0,2e-5 -0.1634,-0.0683 m 0,-5e-5 -0.1667,-0.06 m 0,-8e-5 -0.1694,-0.0516 m 0,0 -0.1719,-0.0431 m 0,0 -0.1737,-0.0345 m 0,0 -0.1753,-0.0257 m 0,-10e-5 -0.1763,-0.0169 m 0,-10e-5 -0.177,-0.008 m 3e-4,-2.3e-4 -0.074,-7.7e-4 m 3e-4,0 -7.0866,0 m 0,0 0,-35.43307 m 0,0 7.0866,0 m 0,0 0.1771,-0.004 m 0,-4e-4 0.1767,-0.0133 m 0,0 0.1757,-0.0221 m 0,0 0.1745,-0.0308 m 0,-10e-5 0.1727,-0.0395 m 0,0 0.1704,-0.0481 m 0,3e-5 0.1679,-0.0566 m 0,6e-5 0.1649,-0.0649 m 0,7e-5 0.1613,-0.0731 m 0,4e-5 0.1576,-0.081 m 0,0 0.1533,-0.0888 m 0,-3e-5 0.1486,-0.0963 m 0,-4e-5 0.1437,-0.10365 m 0,0 0.1383,-0.1107 m 0,0 0.1326,-0.11747 m 0,0 0.1265,-0.12395 m 0,0 0.1202,-0.13012 m 0,0 0.1136,-0.13597 m 0,0 0.1066,-0.14147 m 4e-4,0 0.099,-0.14663 m 4e-4,0 0.092,-0.15141 m 2e-4,0 0.084,-0.15582 m 6e-4,0 0.076,-0.15983 m 7e-4,0 0.068,-0.16345 m 4e-4,0 0.06,-0.16666 m -3e-4,0 0.052,-0.16945 m 0,0 0.043,-0.17183 m 10e-4,0 0.034,-0.17376 m 0,0 0.026,-0.17527 m 0,0 0.017,-0.17633 m 0,0 0.01,-0.17696 m -7e-4,1e-5 7e-4,-0.0737 m 0,1e-5 0,-10.62992 m 0,0 0,-0.17709 m 0,0 -0.013,-0.17665 m 0,0 -0.022,-0.17576 m 0,0 -0.031,-0.17444 m 0,0 -0.039,-0.17269 m -10e-4,0 -0.048,-0.17049 m 3e-4,0 -0.057,-0.16787 m 5e-4,0 -0.065,-0.16483 m 10e-5,0 -0.073,-0.1614 m 0,0 -0.081,-0.15753 m 2e-4,0 -0.089,-0.15329 m -2e-4,0 -0.096,-0.14866 m -4e-4,0 -0.1036,-0.14366 m 0,0 -0.1107,-0.1383 m 0,0 -0.1175,-0.13259 m 0,0 -0.1239,-0.12656 m 0,0 -0.1302,-0.1202 m 0,0 -0.1359,-0.11355 m 0,0 -0.1415,-0.10662 m 0,-10e-6 -0.1466,-0.0994 m 0,-6e-5 -0.1514,-0.0919 m 0,-3e-5 -0.1558,-0.0843 m 0,4e-5 -0.1599,-0.0764 m 0,2e-5 -0.1634,-0.0683 m 0,-4e-5 -0.1667,-0.06 m 0,-8e-5 -0.1694,-0.0516 m 0,0 -0.1719,-0.0431 m 0,0 -0.1737,-0.0345 m 0,0 -0.1753,-0.0257 m 0,0 -0.1763,-0.017 m 0,-10e-5 -0.177,-0.008 m 3e-4,-2.4e-4 -0.074,-7.6e-4 m 3e-4,0 -7.0866,0 m 0,0 0,-35.43308 m 0,0 7.0866,0 m 0,0 0.1771,-0.004 m 0,-4e-4 0.1767,-0.0133 m 0,0 0.1757,-0.0221 m 0,0 0.1745,-0.0308 m 0,-1e-4 0.1727,-0.0395 m 0,0 0.1704,-0.0481 m 0,3e-5 0.1679,-0.0566 m 0,5e-5 0.1649,-0.0649 m 0,-2e-5 0.1613,-0.073 m 0,-6e-5 0.1576,-0.081 m 0,0 0.1533,-0.0888 m 0,-2e-5 0.1486,-0.0963 m 0,-4e-5 0.1437,-0.10365 m 0,0 0.1383,-0.1107 m 0,0 0.1326,-0.11747 m 0,0 0.1265,-0.12395 m 0,0 0.1202,-0.13013 m 0,0 0.1136,-0.13597 m 0,0 0.1066,-0.14147 m 4e-4,0 0.099,-0.14663 m 4e-4,0 0.092,-0.15141 m 2e-4,0 0.084,-0.15581 m 6e-4,0 0.076,-0.15984 m 7e-4,0 0.068,-0.16345 m 4e-4,0 0.06,-0.16666 m -3e-4,0 0.052,-0.16945 m 0,0 0.043,-0.17182 m 10e-4,0 0.034,-0.17377 m 0,0 0.026,-0.17526 m 0,0 0.017,-0.17634 m 0,0 0.01,-0.17696 m -7e-4,2e-5 7e-4,-0.0737 m 0,2e-5 0,-10.62992 m 0,0 0,-0.17709 m 0,0 -0.013,-0.17665 m 0,0 -0.022,-0.17577 m 0,0 -0.031,-0.17444 m 0,0 -0.039,-0.17268 m -0,0 -0.048,-0.17049 m 3e-4,0 -0.057,-0.16788 m 5e-4,0 -0.065,-0.16483 m 10e-5,0 -0.073,-0.16139 m 0,0 -0.081,-0.15754 m 2e-4,0 -0.089,-0.15328 m -2e-4,0 -0.096,-0.14866 m -4e-4,0 -0.1036,-0.14366 m 0,0 -0.1107,-0.13831 m 0,0 -0.1175,-0.13259 m 0,0 -0.1239,-0.12656 m 0,0 -0.1302,-0.1202 m 0,0 -0.1359,-0.11355 m 0,0 -0.1415,-0.10662 m 0,0 -0.1466,-0.0994 m 0,4e-5 -0.1514,-0.092 m 0,7e-5 -0.1558,-0.0843 m 0,4e-5 -0.1599,-0.0764 m 0,2e-5 -0.1634,-0.0683 m 0,-4e-5 -0.1667,-0.06 m 0,-9e-5 -0.1694,-0.0516 m 0,0 -0.1719,-0.0431 m 0,0 -0.1737,-0.0345 m 0,0 -0.1753,-0.0257 m 0,0 -0.1763,-0.017 m 0,-1e-4 -0.177,-0.008 m 3e-4,-2.4e-4 -0.074,-7.6e-4 m 3e-4,0 -7.0866,0 m 0,0 0,-35.43307 m 0,0 7.0866,0 m 0,0 0.1771,-0.004 m 0,-4e-4 0.1767,-0.0133 m 0,0 0.1757,-0.0221 m 0,0 0.1745,-0.0308 m 0,-1e-4 0.1727,-0.0395 m 0,0 0.1704,-0.0481 m 0,4e-5 0.1679,-0.0566 m 0,5e-5 0.1649,-0.0649 m 0,-3e-5 0.1613,-0.073 m 0,-5e-5 0.1576,-0.081 m 0,0 0.1533,-0.0888 m 0,-3e-5 0.1486,-0.0963 m 0,-4e-5 0.1437,-0.10365 m 0,0 0.1383,-0.1107 m 0,0 0.1326,-0.11747 m 0,0 0.1265,-0.12395 m 0,0 0.1202,-0.13013 m 0,0 0.1136,-0.13596 m 0,0 0.1066,-0.14148 m 4e-4,0 0.099,-0.14662 m 4e-4,0 0.092,-0.15141 m 2e-4,0 0.084,-0.15582 m 6e-4,0 0.076,-0.15983 m 7e-4,0 0.068,-0.16345 m 4e-4,0 0.06,-0.16667 m -3e-4,0 0.052,-0.16945 m 0,0 0.043,-0.17182 m 0,0 0.034,-0.17376 m 0,0 0.026,-0.17527 m 0,0 0.017,-0.17634 m 0,0 0.01,-0.17696 m -7e-4,2e-5 7e-4,-0.0737 m 0,2e-5 0,-10.62992 m 0,0 0,-0.17709 m 0,0 -0.013,-0.17665 m 0,0 -0.022,-0.17577 m 0,0 -0.031,-0.17444 m 0,0 -0.039,-0.17268 m -10e-4,0 -0.048,-0.17049 m 3e-4,0 -0.057,-0.16787 m 5e-4,0 -0.065,-0.16484 m 1e-4,0 -0.073,-0.16139 m 0,0 -0.081,-0.15753 m 2e-4,0 -0.089,-0.15329 m -2e-4,0 -0.096,-0.14866 m -4e-4,0 -0.1036,-0.14366 m 0,0 -0.1107,-0.1383 m 0,0 -0.1175,-0.1326 m 0,0 -0.1239,-0.12655 m 0,0 -0.1302,-0.12021 m 0,0 -0.1359,-0.11355 m 0,0 -0.1415,-0.10661 m 0,-1e-5 -0.1466,-0.0994 m 0,3e-5 -0.1514,-0.092 m 0,7e-5 -0.1558,-0.0843 m 0,5e-5 -0.1599,-0.0764 m 0,2e-5 -0.1634,-0.0683 m 0,-5e-5 -0.1667,-0.06 m 0,-8e-5 -0.1694,-0.0516 m 0,0 -0.1719,-0.0431 m 0,0 -0.1737,-0.0345 m 0,0 -0.1753,-0.0257 m 0,-1e-4 -0.1763,-0.0169 m 0,-1e-4 -0.177,-0.008 m 3e-4,-2.3e-4 -0.074,-7.7e-4 m 3e-4,0 -7.0866,0 m 0,0 0,-35.43307 m 0,0 7.0866,0 m 0,0 0.1771,-0.004 m 0,-4e-4 0.1767,-0.0133 m 0,0 0.1757,-0.0221 m 0,0 0.1745,-0.0308 m 0,-1e-4 0.1727,-0.0395 m 0,0 0.1704,-0.0481 m 0,3e-5 0.1679,-0.0566 m 0,6e-5 0.1649,-0.0649 m 0,7e-5 0.1613,-0.0731 m 0,4e-5 0.1576,-0.081 m 0,0 0.1533,-0.0888 m 0,-3e-5 0.1486,-0.0963 m 0,-4e-5 0.1437,-0.10365 m 0,0 0.1383,-0.1107 m 0,0 0.1326,-0.11747 m 0,0 0.1265,-0.12395 m 0,0 0.1202,-0.13012 m 0,0 0.1136,-0.13597 m 0,0 0.1066,-0.14147 m 4e-4,0 0.099,-0.14663 m 4e-4,0 0.092,-0.15141 m 2e-4,0 0.084,-0.15582 m 6e-4,0 0.076,-0.15983 m 7e-4,0 0.068,-0.16345 m 4e-4,0 0.06,-0.16666 m -3e-4,0 0.052,-0.16945 m 0,0 0.043,-0.17183 m 10e-4,0 0.034,-0.17376 m 0,0 0.026,-0.17527 m 0,0 0.017,-0.17633 m 0,0 0.01,-0.17696 m -7e-4,2e-5 7e-4,-0.0737 m 0,2e-5 0,-10.62993 m -0.025,0 0,-0.17709 m 0,0 -0.013,-0.17664 m 0,0 -0.022,-0.17577 m 0,0 -0.031,-0.17444 m 0,0 -0.039,-0.17268 m -0,0 -0.048,-0.17049 m 3e-4,0 -0.057,-0.16788 m 5e-4,0 -0.065,-0.16483 m 10e-5,0 -0.073,-0.16139 m 0,0 -0.081,-0.15754 m 2e-4,0 -0.089,-0.15329 m -2e-4,0 -0.096,-0.14866 m -4e-4,0 -0.1036,-0.14366 m 0,0 -0.1107,-0.1383 m 0,0 -0.1175,-0.13259 m 0,0 -0.1239,-0.12656 m 0,0 -0.1302,-0.1202 m 0,0 -0.1359,-0.11355 m 0,0 -0.1415,-0.10662 m 0,-10e-6 -0.1466,-0.0994 m 0,-6e-5 -0.1514,-0.0919 m 0,-3e-5 -0.1558,-0.0843 m 0,4e-5 -0.1599,-0.0764 m 0,2e-5 -0.1634,-0.0683 m 0,-4e-5 -0.1667,-0.06 m 0,-8e-5 -0.1694,-0.0516 m 0,0 -0.1719,-0.0431 m 0,0 -0.1737,-0.0345 m 0,0 -0.1753,-0.0257 m 0,-1e-4 -0.1763,-0.0169 m 0,-2e-4 -0.177,-0.008 m 3e-4,-2.4e-4 -0.074,-7.6e-4 m 3e-4,0 -7.0866,0 m -106.2979,3e-5 -7.0866,0 m 0,0 -0.1771,0.004 m 0,4e-4 -0.1767,0.0133 m 0,0 -0.1757,0.0221 m 0,-10e-5 -0.1745,0.0309 m 0,0 -0.1726,0.0395 m 0,0 -0.1705,0.0481 m 0,-3e-5 -0.1679,0.0566 m 0,-5e-5 -0.1648,0.0649 m 0,2e-5 -0.1614,0.073 m 0,6e-5 -0.1576,0.081 m 0,1e-5 -0.1533,0.0888 m 0,3e-5 -0.1486,0.0963 m 0,4e-5 -0.1437,0.10364 m 0,0 -0.1383,0.1107 m 0,0 -0.1326,0.11747 m 0,0 -0.1265,0.12396 m 0,0 -0.1202,0.13012 m 0,0 -0.1136,0.13597 m 0,0 -0.1066,0.14147 m -4e-4,0 -0.099,0.14663 m -4e-4,0 -0.092,0.15141 m -2e-4,0 -0.084,0.15581 m -6e-4,0 -0.076,0.15984 m -7e-4,0 -0.068,0.16345 m -4e-4,0 -0.06,0.16666 m 3e-4,0 -0.052,0.16945 m 0,0 -0.043,0.17183 m -10e-4,0 -0.034,0.17376 m 0,0 -0.026,0.17527 m 0,0 -0.017,0.17633 m 0,0 -0.01,0.17696 m 7e-4,-2e-5 -7e-4,0.0737 m 116.9291,-3.54332 -106.2992,0" />
    <path
       id="path2848"
       style="stroke:#000000;fill:none"
       d="m 1130.3255,137.30572 -0.1772,0.001 m 0,0 -0.1771,0.004 m 0,-1e-4 -0.177,0.007 m 0,-7e-4 -0.177,0.01 m 0,-4e-4 -0.1767,0.0122 m 0,0 -0.1765,0.015 m 0,0 -0.1763,0.0177 m 0,0 -0.176,0.0204 m 0,0 -0.1756,0.0231 m 0,0 -0.1753,0.0258 m 0,0 -0.1749,0.0285 m 0,0 -0.1744,0.0312 m 0,0 -0.1739,0.0339 m 0,0 -0.1733,0.0365 m 0,0 -0.1728,0.0392 m 0,-1e-4 -0.1721,0.0419 m 0,-10e-5 -0.1715,0.0445 m 0,0 -0.1708,0.0471 m 0,10e-5 -0.17,0.0497 m 0,1e-5 -0.1693,0.0524 m 0,-9e-5 -0.1684,0.055 m 0,-1e-5 -0.1676,0.0575 m 0,4e-5 -0.1666,0.0601 m 0,-3e-5 -0.1658,0.0627 m 0,-2e-5 -0.1647,0.0652 m 0,4e-5 -0.1637,0.0677 m 0,7e-5 -0.1626,0.0702 m 0,8e-5 -0.1616,0.0727 m 0,6e-5 -0.1604,0.0752 m 0,-1e-5 -0.1592,0.0777 m 0,-2e-5 -0.158,0.0801 m 0,5e-5 -0.1568,0.0825 m 0,8e-5 -0.1555,0.0849 m 0,5e-5 -0.1541,0.0873 m 0,-1e-5 -0.1528,0.0897 m 0,0 -0.1514,0.092 m 0,6e-5 -0.1499,0.0943 m 0,7e-5 -0.1485,0.0966 m 0,4e-5 -0.147,0.0989 m 0,1e-5 -0.1455,0.10116 m 0,0 -0.1438,0.10338 m 0,0 -0.1423,0.10558 m 0,0 -0.1406,0.10776 m 0,0 -0.139,0.10991 m 0,0 -0.1372,0.11203 m 0,0 -0.1355,0.11414 m 0,0 -0.1337,0.1162 m 0,0 -0.132,0.11824 m 0,0 -0.1301,0.12026 m 0,0 -0.1282,0.12226 m 0,0 -0.1263,0.1242 m 0,0 -0.1244,0.12614 m 0,0 -0.1225,0.12803 m 0,0 -0.1204,0.12991 m 0,0 -0.1185,0.13174 m 0,0 -0.1164,0.13355 m 0,0 -0.1144,0.13532 m 0,0 -0.1122,0.13707 m 0,0 -0.1101,0.13877 m 0,0 -0.108,0.14046 m 0,0 -0.1058,0.1421 m 0,0 -0.1036,0.14371 m 0,0 -0.1014,0.14529 m -10e-5,0 -0.099,0.14682 m 0,0 -0.097,0.14834 m 5e-4,0 -0.095,0.14981 m 2e-4,0 -0.092,0.15125 m -2e-4,0 -0.09,0.15265 m -5e-4,0 -0.087,0.15401 m -7e-4,0 -0.085,0.15535 m 0,0 -0.083,0.15663 m -10e-5,0 -0.08,0.15789 m -3e-4,0 -0.078,0.15911 m -4e-4,0 -0.075,0.16028 m -4e-4,0 -0.073,0.16143 m 5e-4,0 -0.071,0.16254 m 5e-4,0 -0.068,0.16359 m 5e-4,0 -0.066,0.16463 m 6e-4,0 -0.063,0.16561 m -3e-4,0 -0.06,0.16656 m -2e-4,0 -0.058,0.16747 m 0,0 -0.055,0.16834 m 2e-4,0 -0.053,0.16917 m 4e-4,0 -0.05,0.16996 m 0,0 -0.047,0.1707 m 0,0 -0.045,0.17142 m 0,0 -0.042,0.17208 m -10e-4,0 -0.039,0.17272 m 0,0 -0.037,0.1733 m 0,0 -0.034,0.17384 m -10e-4,0 -0.031,0.17435 m 0,0 -0.029,0.17481 m 0,0 -0.026,0.17524 m -10e-4,0 -0.023,0.17561 m 0,0 -0.021,0.17595 m 0,0 -0.018,0.17625 m 0,0 -0.015,0.17651 m 0,0 -0.013,0.17672 m 10e-4,0 -0.01,0.17689 m 0,0 -0.01,0.17702 m -10e-4,0 0,0.17711 m -0.01,0 0,0.17716 m -6e-4,0 0,0.17716 m 0,0 0,0.17712 m 0,0 0.01,0.17705 m -0,0 0.01,0.17692 m -10e-4,0 0.012,0.17675 m 0,0 0.015,0.17656 m 0,0 0.017,0.1763 m 0,0 0.02,0.17602 m 0,0 0.023,0.17569 m 0,0 0.025,0.17531 m 10e-4,0 0.028,0.1749 m 0,0 0.031,0.17445 m -10e-4,0 0.034,0.17395 m 0,0 0.036,0.17341 m 0,0 0.039,0.17284 m 0,0 0.042,0.17222 m 0,0 0.044,0.17155 m 0,0 0.047,0.17086 m -10e-4,0 0.05,0.17011 m -4e-4,0 0.052,0.16933 m -2e-4,0 0.055,0.16851 m 0,0 0.057,0.16765 m 1e-4,0 0.06,0.16675 m 2e-4,0 0.062,0.16581 m 4e-4,0 0.065,0.16483 m 4e-4,0 0.067,0.16381 m 4e-4,0 0.07,0.16275 m 5e-4,0 0.072,0.16166 m 5e-4,0 0.075,0.16052 m 4e-4,0 0.077,0.15935 m 3e-4,0 0.08,0.15814 m 2e-4,0 0.082,0.1569 m 0,0 0.085,0.1556 m -3e-4,0 0.087,0.15429 m -5e-4,0 0.09,0.15293 m -7e-4,0 0.092,0.15154 m -10e-5,0 0.094,0.1501 m 5e-4,0 0.096,0.14864 m 0,0 0.099,0.14714 m -4e-4,0 0.101,0.1456 m 0,0 0.1031,0.14404 m 0,0 0.1054,0.14243 m 0,0 0.1075,0.14079 m 0,0 0.1097,0.13912 m 0,0 0.1118,0.13742 m 0,0 0.1139,0.13568 m 0,0 0.116,0.13391 m 0,0 0.1181,0.13211 m 0,0 0.12,0.13028 m 0,0 0.1221,0.12842 m 0,0 0.124,0.12653 m 0,0 0.1259,0.1246 m 0,0 0.1279,0.12265 m 0,0 0.1297,0.12067 m 0,0 0.1316,0.11866 m 0,0 0.1333,0.11662 m 0,0 0.1352,0.11455 m 0,0 0.1369,0.11247 m 0,0 0.1386,0.11034 m 0,0 0.1402,0.1082 m 0,0 0.142,0.10602 m 0,0 0.1435,0.10384 m 0,0 0.1452,0.10161 m 0,-4e-5 0.1466,0.0994 m 0,-4e-5 0.1482,0.0971 m 0,10e-6 0.1497,0.0948 m 0,0 0.1511,0.0925 m 0,-5e-5 0.1525,0.0902 m 0,-4e-5 0.1539,0.0878 m 0,3e-5 0.1552,0.0854 m 0,5e-5 0.1565,0.083 m 0,3e-5 0.1577,0.0806 m 0,-2e-5 0.159,0.0782 m 0,-2e-5 0.1602,0.0757 m 0,-4e-5 0.1613,0.0733 m 0,-1e-4 0.1624,0.0708 m 0,-1e-4 0.1635,0.0683 m 0,-3e-5 0.1645,0.0657 m 0,0 0.1656,0.0632 m 0,1e-5 0.1664,0.0606 m 0,-1e-5 0.1674,0.0581 m 0,-5e-5 0.1683,0.0555 m 0,-3e-5 0.169,0.0529 m 0,-4e-5 0.1699,0.0503 m 0,-1e-4 0.1707,0.0477 m 0,0 0.1713,0.045 m 0,0 0.172,0.0424 m 0,0 0.1727,0.0397 m 0,0 0.1732,0.0371 m 0,0 0.1738,0.0344 m 0,0 0.1743,0.0317 m 0,10e-5 0.1748,0.029 m 0,0 0.1752,0.0264 m 0,-1e-4 0.1755,0.0237 m 0,0 0.176,0.0209 m 0,1e-4 0.1762,0.0182 m 0,1e-4 0.1765,0.0155 m 0,0 0.1767,0.0128 m 0,0 0.1768,0.0101 m 0,4e-4 0.177,0.007 m 0,0 0.1771,0.005 m 0,0 0.1772,0.002 m 0,-1.9e-4 0.1772,-8.1e-4 m 0,8.1e-4 0.1771,-0.004 m 0,0 0.177,-0.006 m 0,-2e-4 0.177,-0.009 m 0,0 0.1768,-0.0117 m 0,0 0.1765,-0.0144 m 0,-1e-4 0.1764,-0.0171 m 0,-1e-4 0.176,-0.0198 m 0,-1e-4 0.1757,-0.0225 m 0,0 0.1754,-0.0253 m 0,0 0.1749,-0.0279 m 0,-1e-4 0.1745,-0.0306 m 0,-10e-5 0.174,-0.0333 m 0,0 0.1735,-0.036 m 0,1e-4 0.1729,-0.0387 m 0,0 0.1723,-0.0413 m 0,0 0.1716,-0.044 m 0,0 0.1709,-0.0466 m 0,0 0.1702,-0.0492 m 0,-3e-5 0.1694,-0.0518 m 0,-5e-5 0.1686,-0.0544 m 0,-4e-5 0.1678,-0.057 m 0,0 0.1668,-0.0596 m 0,-3e-5 0.1659,-0.0621 m 0,-4e-5 0.165,-0.0647 m 0,-2e-5 0.1639,-0.0672 m 0,-5e-5 0.1628,-0.0697 m 0,-6e-5 0.1618,-0.0722 m 0,-5e-5 0.1606,-0.0747 m 0,1e-5 0.1595,-0.0772 m 0,1e-5 0.1583,-0.0796 m 0,-6e-5 0.157,-0.082 m 0,1e-5 0.1557,-0.0845 m 0,1e-5 0.1545,-0.0868 m 0,-4e-5 0.153,-0.0892 m 0,-4e-5 0.1517,-0.0915 m 0,-1e-5 0.1503,-0.0939 m 0,6e-5 0.1488,-0.0962 m 0,-1e-5 0.1472,-0.0984 m 0,-4e-5 0.1458,-0.1007 m 0,0 0.1442,-0.10294 m 0,0 0.1426,-0.10513 m 0,0 0.141,-0.10732 m 0,0 0.1393,-0.10947 m 0,0 0.1375,-0.11161 m 0,0 0.1359,-0.1137 m 0,0 0.1341,-0.11579 m 0,0 0.1323,-0.11783 m 0,0 0.1305,-0.11985 m 0,0 0.1286,-0.12185 m 0,0 0.1267,-0.12381 m 0,0 0.1248,-0.12575 m 0,0 0.1228,-0.12765 m 0,0 0.1209,-0.12952 m 0,0 0.1189,-0.13137 m 0,0 0.1168,-0.13319 m 0,0 0.1148,-0.13496 m 0,0 0.1127,-0.13672 m 0,0 0.1105,-0.13843 m 0,0 0.1084,-0.14011 m 0,0 0.1063,-0.14177 m 0,0 0.104,-0.14339 m 0,0 0.1019,-0.14496 m -4e-4,0 0.1,-0.14652 m -10e-5,0 0.097,-0.14804 m 3e-4,0 0.095,-0.14951 m -2e-4,0 0.093,-0.15096 m 2e-4,0 0.09,-0.15236 m 4e-4,0 0.088,-0.15374 m -3e-4,0 0.086,-0.15508 m -10e-5,0 0.083,-0.15637 m 10e-5,0 0.081,-0.15764 m 3e-4,0 0.078,-0.15886 m 4e-4,0 0.076,-0.16005 m 5e-4,0 0.073,-0.1612 m 5e-4,0 0.071,-0.16231 m -5e-4,0 0.069,-0.16339 m -5e-4,0 0.066,-0.16442 m 4e-4,0 0.063,-0.16541 m 3e-4,0 0.061,-0.16637 m 2e-4,0 0.058,-0.16729 m 1e-4,0 0.056,-0.16816 m -10e-5,0 0.053,-0.16901 m -3e-4,0 0.051,-0.1698 m 0,0 0.048,-0.17056 m 0,0 0.045,-0.17127 m 0,0 0.043,-0.17195 m 0,0 0.04,-0.17259 m 0,0 0.037,-0.17318 m 0,0 0.035,-0.17374 m 0,0 0.032,-0.17425 m 0,0 0.029,-0.17472 m 0,0 0.027,-0.17515 m -10e-4,0 0.024,-0.17555 m 0,0 0.021,-0.17588 m 10e-4,0 0.018,-0.1762 m 0,0 0.016,-0.17645 m 0,0 0.013,-0.17668 m 0,0 0.01,-0.17686 m -0,0 0.01,-0.177 m 0,0 0,-0.1771 m 0.01,0 0,-0.17715 m 5e-4,0 -5e-4,-0.17716 m 5e-4,0 0,-0.17713 m 0,0 -0.01,-0.17707 m 0.01,0 -0.01,-0.17694 m 10e-4,0 -0.011,-0.1768 m -10e-4,0 -0.014,-0.1766 m 0,0 -0.017,-0.17636 m 10e-4,0 -0.02,-0.17608 m 0,0 -0.022,-0.17576 m 0,0 -0.025,-0.17539 m 0,0 -0.028,-0.17499 m 0,0 -0.03,-0.17454 m 0,0 -0.033,-0.17405 m 0,0 -0.036,-0.17353 m 0,0 -0.038,-0.17296 m -10e-4,0 -0.041,-0.17234 m 0,0 -0.044,-0.17169 m 0,0 -0.046,-0.17101 m 0,0 -0.049,-0.17026 m 5e-4,0 -0.052,-0.1695 m 3e-4,0 -0.054,-0.16868 m 10e-5,0 -0.057,-0.16783 m -10e-5,0 -0.059,-0.16694 m -2e-4,0 -0.062,-0.166 m -3e-4,0 -0.064,-0.16503 m -4e-4,0 -0.067,-0.16402 m 5e-4,0 -0.07,-0.16297 m 6e-4,0 -0.072,-0.16188 m 6e-4,0 -0.075,-0.16076 m 6e-4,0 -0.077,-0.15959 m -3e-4,0 -0.079,-0.15839 m -2e-4,0 -0.082,-0.15715 m 0,0 -0.084,-0.15588 m 2e-4,0 -0.087,-0.15455 m 4e-4,0 -0.089,-0.15321 m -3e-4,0 -0.091,-0.15182 m 10e-5,0 -0.094,-0.1504 m 5e-4,0 -0.096,-0.14895 m -10e-5,0 -0.098,-0.14744 m -2e-4,0 -0.1005,-0.14592 m 0,0 -0.1027,-0.14436 m 0,0 -0.1049,-0.14276 m 0,0 -0.1071,-0.14112 m 0,0 -0.1093,-0.13947 m 0,0 -0.1114,-0.13777 m 0,0 -0.1135,-0.13603 m 0,0 -0.1155,-0.13428 m 0,0 -0.1177,-0.13248 m 0,0 -0.1196,-0.13066 m 0,0 -0.1217,-0.12879 m 0,0 -0.1236,-0.12691 m 0,0 -0.1255,-0.125 m 0,0 -0.1275,-0.12305 m 0,0 -0.1293,-0.12108 m 0,0 -0.1312,-0.11907 m 0,0 -0.133,-0.11703 m 0,0 -0.1348,-0.11498 m 0,0 -0.1365,-0.11289 m 0,0 -0.1383,-0.11078 m 0,0 -0.1399,-0.10864 m 0,0 -0.1416,-0.10647 m 0,0 -0.1433,-0.10428 m 0,0 -0.1448,-0.10206 m 0,-3e-5 -0.1463,-0.0998 m 0,1e-5 -0.1479,-0.0976 m 0,6e-5 -0.1494,-0.0953 m 0,6e-5 -0.1508,-0.093 m 0,0 -0.1522,-0.0906 m 0,-2e-5 -0.1536,-0.0883 m 0,1e-5 -0.155,-0.0859 m 0,-2e-5 -0.1562,-0.0835 m 0,-1e-5 -0.1575,-0.0811 m 0,3e-5 -0.1587,-0.0787 m 0,1e-5 -0.16,-0.0762 m 0,3e-5 -0.1611,-0.0738 m 0,9e-5 -0.1622,-0.0713 m 0,8e-5 -0.1632,-0.0688 m 0,0 -0.1644,-0.0662 m 0,-4e-5 -0.1653,-0.0637 m 0,-5e-5 -0.1662,-0.0611 m 0,-3e-5 -0.1672,-0.0586 m 0,1e-5 -0.1681,-0.056 m 0,-2e-5 -0.1689,-0.0534 m 0,-2e-5 -0.1698,-0.0508 m 0,0 -0.1704,-0.0482 m 0,0 -0.1712,-0.0456 m 0,0 -0.1719,-0.0429 m 0,0 -0.1726,-0.0403 m 0,0 -0.1731,-0.0376 m 0,-1e-4 -0.1737,-0.0349 m 0,0 -0.1742,-0.0323 m 0,0 -0.1746,-0.0296 m 0,0 -0.1751,-0.0269 m 0,0 -0.1756,-0.0242 m 0,0 -0.1758,-0.0215 m 0,0 -0.1762,-0.0188 m 0,0 -0.1764,-0.0161 m 0,1e-4 -0.1767,-0.0134 m 0,0 -0.1768,-0.0106 m 0,0 -0.177,-0.008 m 0,-1e-4 -0.1771,-0.005 m 0,-0.001 -0.1771,-0.002 m -10e-5,-7.7e-4 -0.072,-2.3e-4 m -10e-5,6.20074 -0.1772,0.003 m 0,-2e-4 -0.1769,0.009 m 0,-1e-4 -0.1765,0.0147 m 0,1e-4 -0.176,0.0206 m 0,0 -0.1752,0.0265 m 0,0 -0.1742,0.0323 m 0,0 -0.173,0.0381 m 0,0 -0.1716,0.0438 m 0,1e-4 -0.1701,0.0495 m 0,-1e-5 -0.1684,0.0552 m 0,2e-5 -0.1664,0.0607 m 0,1e-5 -0.1643,0.0663 m 0,-5e-5 -0.162,0.0717 m 0,-5e-5 -0.1595,0.0771 m 0,-1e-5 -0.1569,0.0823 m 0,4e-5 -0.154,0.0875 m 0,1e-5 -0.151,0.0926 m 0,-2e-5 -0.1479,0.0976 m 0,-2e-5 -0.1445,0.10245 m 0,0 -0.141,0.10722 m 0,0 -0.1374,0.11185 m 0,0 -0.1336,0.11637 m 0,0 -0.1296,0.12076 m 0,0 -0.1256,0.12501 m 0,0 -0.1212,0.12912 m 0,0 -0.117,0.1331 m 0,0 -0.1124,0.13691 m 0,0 -0.1078,0.14059 m 0,0 -0.103,0.14411 m -2e-4,0 -0.098,0.14745 m -4e-4,0 -0.093,0.15065 m -4e-4,0 -0.088,0.15367 m -2e-4,0 -0.083,0.15652 m 3e-4,0 -0.078,0.1592 m -10e-5,0 -0.072,0.16171 m -3e-4,0 -0.067,0.16402 m -3e-4,0 -0.061,0.16617 m -3e-4,0 -0.056,0.16811 m -10e-5,0 -0.05,0.16989 m 0,0 -0.045,0.17147 m 10e-4,0 -0.039,0.17286 m 0,0 -0.033,0.17405 m 0,0 -0.027,0.17505 m 0,0 -0.021,0.17587 m -10e-4,0 -0.015,0.17648 m 0,0 -0.01,0.1769 m -0,0 0,0.17712 m 0,0 0,0.17714 m 0,0 0.01,0.17697 m -0,0 0.014,0.1766 m 0,0 0.02,0.17604 m 0,0 0.026,0.17527 m -10e-4,0 0.032,0.17432 m 0,0 0.037,0.17318 m 10e-4,0 0.043,0.17183 m 0,0 0.049,0.17029 m 3e-4,0 0.054,0.16858 m 6e-4,0 0.06,0.16666 m -3e-4,0 0.066,0.16458 m -4e-4,0 0.071,0.16229 m 4e-4,0 0.076,0.15984 m 10e-5,0 0.082,0.1572 m -5e-4,0 0.087,0.15439 m -2e-4,0 0.092,0.15142 m 0,0 0.097,0.14826 m 0,0 0.1018,0.14495 m 0,0 0.1067,0.14147 m 0,0 0.1113,0.13784 m 0,0 0.1158,0.13406 m 0,0 0.1202,0.13012 m 0,0 0.1245,0.12604 m 0,0 0.1286,0.12183 m 0,0 0.1326,0.11746 m 0,0 0.1365,0.11299 m 0,0 0.1401,0.10837 m 0,0 0.1437,0.10365 m 0,0 0.147,0.0988 m 0,4e-5 0.1503,0.0938 m 0,2e-5 0.1533,0.0888 m 0,0 0.1562,0.0836 m 0,-1e-5 0.1589,0.0784 m 0,1e-5 0.1614,0.073 m 0,5e-5 0.1637,0.0676 m 0,3e-5 0.1659,0.0621 m 0,-2e-5 0.1679,0.0566 m 0,-1e-5 0.1697,0.0509 m 0,1e-4 0.1713,0.0452 m 0,10e-5 0.1727,0.0395 m 0,1e-4 0.1739,0.0337 m 0,1e-4 0.1749,0.0279 m 0,0 0.1758,0.0221 m 0,0 0.1764,0.0162 m 0,0 0.1769,0.0103 m 0,4e-4 0.1771,0.004 m 0,0 0.1771,-0.001 m 0,-10e-4 0.177,-0.007 m 0,-4e-4 0.1767,-0.0133 m 0,1e-4 0.1761,-0.0192 m 0,0 0.1754,-0.025 m 0,-1e-4 0.1744,-0.0308 m 0,0 0.1733,-0.0367 m 0,0 0.1721,-0.0424 m 0,0 0.1705,-0.0481 m 0,1e-5 0.1687,-0.0538 m 0,6e-5 0.167,-0.0594 m 0,3e-5 0.1648,-0.0649 m 0,4e-5 0.1626,-0.0704 m 0,0 0.1601,-0.0757 m 0,-7e-5 0.1576,-0.081 m 0,-7e-5 0.1547,-0.0862 m 0,-8e-5 0.1518,-0.0913 m 0,0 0.1487,-0.0964 m 0,4e-5 0.1453,-0.10125 m 0,0 0.142,-0.10605 m 0,0 0.1383,-0.11072 m 0,0 0.1345,-0.11526 m 0,0 0.1306,-0.11968 m 0,0 0.1266,-0.12397 m 0,0 0.1223,-0.12812 m 0,0 0.118,-0.13212 m 0,0 0.1136,-0.13599 m 0,0 0.1089,-0.13969 m 0,0 0.1043,-0.14325 m 4e-4,0 0.099,-0.14664 m 8e-4,0 0.094,-0.14987 m -10e-5,0 0.09,-0.15294 m -3e-4,0 0.084,-0.15583 m 3e-4,0 0.079,-0.15855 m -3e-4,0 0.074,-0.1611 m -10e-5,0 0.068,-0.16347 m 10e-5,0 0.063,-0.16565 m 10e-5,0 0.057,-0.16765 m -10e-5,0 0.052,-0.16947 m 0,0 0.046,-0.17109 m 0,0 0.04,-0.17253 m 10e-4,0 0.034,-0.17377 m 0,0 0.029,-0.17483 m -10e-4,0 0.023,-0.17569 m 0,0 0.017,-0.17634 m 0,0 0.011,-0.17681 m -0,0 0.01,-0.17709 m -0.01,0 -7e-4,-0.17715 m 7e-4,0 -0.01,-0.17704 m 0,0 -0.013,-0.1767 m 0,0 -0.018,-0.1762 m -10e-4,0 -0.024,-0.17549 m 0,0 -0.03,-0.17457 m 0,0 -0.036,-0.17347 m 0,0 -0.042,-0.17218 m 0,0 -0.047,-0.17069 m -5e-4,0 -0.053,-0.16902 m 2e-4,0 -0.059,-0.16716 m 10e-5,0 -0.064,-0.16511 m 10e-5,0 -0.07,-0.16288 m 3e-4,0 -0.075,-0.16046 m -4e-4,0 -0.08,-0.15787 m 0,0 -0.086,-0.15511 m 7e-4,0 -0.091,-0.15216 m 5e-4,0 -0.096,-0.14906 m 2e-4,0 -0.1006,-0.14578 m 0,0 -0.1055,-0.14235 m 0,0 -0.1101,-0.13876 m 0,0 -0.1147,-0.13501 m 0,0 -0.1192,-0.13111 m 0,0 -0.1234,-0.12707 m 0,0 -0.1276,-0.12288 m 0,0 -0.1317,-0.11856 m 0,0 -0.1355,-0.11411 m 0,0 -0.1392,-0.10952 m 0,0 -0.1428,-0.10483 m 0,0 -0.1463,-0.10001 m 0,2e-5 -0.1494,-0.0951 m 0,-2e-5 -0.1526,-0.09 m 0,-5e-5 -0.1555,-0.0849 m 0,0 -0.1582,-0.0797 m 0,5e-5 -0.1608,-0.0744 m 0,7e-5 -0.1632,-0.069 m 0,5e-5 -0.1654,-0.0635 m 0,-2e-5 -0.1674,-0.0579 m 0,-7e-5 -0.1693,-0.0523 m 0,0 -0.1709,-0.0467 m 0,0 -0.1723,-0.0409 m 0,0 -0.1737,-0.0352 m 0,1e-4 -0.1747,-0.0294 m 0,0 -0.1755,-0.0235 m 0,0 -0.1763,-0.0177 m 0,1e-4 -0.1768,-0.0118 m 0,1e-4 -0.177,-0.006 m 2e-4,-2.8e-4 -0.088,-7.2e-4" />
    <path
       id="path4044"
       style="stroke:#000000;fill:none"
       d="m 1172.8402,137.30572 -0.1771,0.001 m 0,0 -0.1771,0.004 m 0,-1e-4 -0.1771,0.007 m 0,-7e-4 -0.1769,0.01 m 0,-4e-4 -0.1767,0.0122 m 0,0 -0.1765,0.015 m 0,0 -0.1763,0.0177 m 0,0 -0.176,0.0204 m 0,0 -0.1757,0.0231 m 0,0 -0.1752,0.0258 m 0,0 -0.1749,0.0285 m 0,0 -0.1744,0.0312 m 0,0 -0.1739,0.0339 m 0,0 -0.1733,0.0365 m 0,0 -0.1728,0.0392 m 0,-1e-4 -0.1722,0.0419 m 0,-10e-5 -0.1714,0.0445 m 0,0 -0.1708,0.0471 m 0,10e-5 -0.1701,0.0497 m 0,1e-5 -0.1692,0.0524 m 0,-9e-5 -0.1684,0.055 m 0,-1e-5 -0.1676,0.0575 m 0,4e-5 -0.1667,0.0601 m 0,-3e-5 -0.1657,0.0627 m 0,-2e-5 -0.1647,0.0652 m 0,4e-5 -0.1637,0.0677 m 0,7e-5 -0.1626,0.0702 m 0,8e-5 -0.1616,0.0727 m 0,6e-5 -0.1604,0.0752 m 0,-1e-5 -0.1592,0.0777 m 0,-2e-5 -0.158,0.0801 m 0,5e-5 -0.1568,0.0825 m 0,8e-5 -0.1555,0.0849 m 0,5e-5 -0.1541,0.0873 m 0,-1e-5 -0.1528,0.0897 m 0,0 -0.1514,0.092 m 0,6e-5 -0.15,0.0943 m 0,7e-5 -0.1485,0.0966 m 0,4e-5 -0.1469,0.0989 m 0,1e-5 -0.1455,0.10116 m 0,0 -0.1439,0.10338 m 0,0 -0.1422,0.10558 m 0,0 -0.1406,0.10776 m 0,0 -0.139,0.10991 m 0,0 -0.1372,0.11203 m 0,0 -0.1355,0.11414 m 0,0 -0.1338,0.1162 m 0,0 -0.1319,0.11824 m 0,0 -0.1301,0.12026 m 0,0 -0.1282,0.12226 m 0,0 -0.1263,0.1242 m 0,0 -0.1244,0.12614 m 0,0 -0.1225,0.12803 m 0,0 -0.1205,0.12991 m 0,0 -0.1184,0.13174 m 0,0 -0.1164,0.13355 m 0,0 -0.1144,0.13532 m 0,0 -0.1122,0.13707 m 0,0 -0.1101,0.13877 m 0,0 -0.108,0.14046 m 0,0 -0.1058,0.1421 m 0,0 -0.1036,0.14371 m 0,0 -0.1014,0.14529 m -2e-4,0 -0.099,0.14682 m 0,0 -0.097,0.14834 m 6e-4,0 -0.095,0.14981 m 10e-5,0 -0.092,0.15125 m -2e-4,0 -0.09,0.15265 m 6e-4,0 -0.088,0.15401 m 3e-4,0 -0.085,0.15535 m 0,0 -0.083,0.15663 m -1e-4,0 -0.08,0.15789 m -3e-4,0 -0.078,0.15911 m -4e-4,0 -0.075,0.16028 m -4e-4,0 -0.073,0.16143 m 5e-4,0 -0.071,0.16254 m 5e-4,0 -0.068,0.16359 m -5e-4,0 -0.065,0.16463 m -4e-4,0 -0.063,0.16561 m -3e-4,0 -0.06,0.16656 m -2e-4,0 -0.058,0.16747 m 0,0 -0.055,0.16834 m 2e-4,0 -0.053,0.16917 m 4e-4,0 -0.05,0.16996 m 0,0 -0.047,0.1707 m 0,0 -0.045,0.17142 m 0,0 -0.042,0.17208 m 0,0 -0.04,0.17272 m 10e-4,0 -0.037,0.1733 m 0,0 -0.034,0.17384 m 0,0 -0.031,0.17435 m 0,0 -0.029,0.17481 m 0,0 -0.026,0.17524 m 0,0 -0.023,0.17561 m 0,0 -0.021,0.17595 m 0,0 -0.018,0.17625 m 0,0 -0.015,0.17651 m 0,0 -0.013,0.17672 m 10e-4,0 -0.01,0.17689 m 0,0 -0.01,0.17702 m -10e-4,0 0,0.17711 m -0.01,0 0,0.17716 m -6e-4,0 0,0.17716 m 0,0 0,0.17712 m 0,0 0.01,0.17705 m -0,0 0.01,0.17692 m -10e-4,0 0.012,0.17675 m 0,0 0.015,0.17656 m 0,0 0.017,0.1763 m 10e-4,0 0.02,0.17602 m 0,0 0.023,0.17569 m -10e-4,0 0.026,0.17531 m 0,0 0.028,0.1749 m 0,0 0.031,0.17445 m 0,0 0.034,0.17395 m 0,0 0.036,0.17341 m 0,0 0.039,0.17284 m 0,0 0.041,0.17222 m 10e-4,0 0.044,0.17155 m 0,0 0.047,0.17086 m -10e-4,0 0.05,0.17011 m -4e-4,0 0.052,0.16933 m -2e-4,0 0.055,0.16851 m 0,0 0.057,0.16765 m 10e-5,0 0.06,0.16675 m 2e-4,0 0.062,0.16581 m 4e-4,0 0.065,0.16483 m 4e-4,0 0.067,0.16381 m 4e-4,0 0.07,0.16275 m 5e-4,0 0.072,0.16166 m 5e-4,0 0.075,0.16052 m 4e-4,0 0.077,0.15935 m 3e-4,0 0.08,0.15814 m 10e-5,0 0.082,0.1569 m -10e-5,0 0.085,0.1556 m -2e-4,0 0.087,0.15429 m -4e-4,0 0.09,0.15293 m -8e-4,0 0.092,0.15154 m -2e-4,0 0.094,0.1501 m 5e-4,0 0.096,0.14864 m 10e-5,0 0.099,0.14714 m -3e-4,0 0.101,0.1456 m 0,0 0.1031,0.14404 m 0,0 0.1054,0.14243 m 0,0 0.1075,0.14079 m 0,0 0.1097,0.13912 m 0,0 0.1118,0.13742 m 0,0 0.1139,0.13568 m 0,0 0.116,0.13391 m 0,0 0.1181,0.13211 m 0,0 0.12,0.13028 m 0,0 0.1221,0.12842 m 0,0 0.124,0.12653 m 0,0 0.1259,0.1246 m 0,0 0.1279,0.12265 m 0,0 0.1297,0.12067 m 0,0 0.1315,0.11866 m 0,0 0.1334,0.11662 m 0,0 0.1351,0.11455 m 0,0 0.1369,0.11247 m 0,0 0.1386,0.11034 m 0,0 0.1403,0.1082 m 0,0 0.142,0.10602 m 0,0 0.1435,0.10384 m 0,0 0.1451,0.10161 m 0,-4e-5 0.1467,0.0994 m 0,-4e-5 0.1482,0.0971 m 0,10e-6 0.1497,0.0948 m 0,0 0.1511,0.0925 m 0,-5e-5 0.1525,0.0902 m 0,-4e-5 0.1538,0.0878 m 0,3e-5 0.1553,0.0854 m 0,5e-5 0.1565,0.083 m 0,3e-5 0.1577,0.0806 m 0,-2e-5 0.159,0.0782 m 0,-2e-5 0.1602,0.0757 m 0,-4e-5 0.1613,0.0733 m 0,-1e-4 0.1624,0.0708 m 0,-1e-4 0.1635,0.0683 m 0,-3e-5 0.1645,0.0657 m 0,0 0.1655,0.0632 m 0,1e-5 0.1665,0.0606 m 0,-1e-5 0.1674,0.0581 m 0,-5e-5 0.1682,0.0555 m 0,-3e-5 0.1691,0.0529 m 0,-4e-5 0.1699,0.0503 m 0,-1e-4 0.1706,0.0477 m 0,0 0.1714,0.045 m 0,0 0.172,0.0424 m 0,0 0.1727,0.0397 m 0,0 0.1732,0.0371 m 0,0 0.1738,0.0344 m 0,0 0.1743,0.0317 m 0,10e-5 0.1748,0.029 m 0,0 0.1751,0.0264 m 0,-1e-4 0.1756,0.0237 m 0,0 0.1759,0.0209 m 0,1e-4 0.1763,0.0182 m 0,1e-4 0.1764,0.0155 m 0,0 0.1767,0.0128 m 0,0 0.1769,0.0101 m 0,4e-4 0.177,0.007 m 0,0 0.1771,0.005 m 0,0 0.1772,0.002 m 0,-1.9e-4 0.1772,-8.1e-4 m 0,8.1e-4 0.1771,-0.004 m 0,0 0.177,-0.006 m 0,-2e-4 0.177,-0.009 m 0,0 0.1767,-0.0117 m 0,0 0.1766,-0.0144 m 0,-1e-4 0.1764,-0.0171 m 0,-1e-4 0.176,-0.0198 m 0,-1e-4 0.1757,-0.0225 m 0,0 0.1754,-0.0253 m 0,0 0.1749,-0.0279 m 0,-1e-4 0.1745,-0.0306 m 0,-10e-5 0.174,-0.0333 m 0,0 0.1735,-0.036 m 0,1e-4 0.1729,-0.0387 m 0,0 0.1723,-0.0413 m 0,0 0.1716,-0.044 m 0,0 0.1709,-0.0466 m 0,0 0.1702,-0.0492 m 0,-3e-5 0.1694,-0.0518 m 0,-5e-5 0.1686,-0.0544 m 0,-4e-5 0.1678,-0.057 m 0,0 0.1668,-0.0596 m 0,-3e-5 0.1659,-0.0621 m 0,-4e-5 0.1649,-0.0647 m 0,-2e-5 0.164,-0.0672 m 0,-5e-5 0.1628,-0.0697 m 0,-6e-5 0.1618,-0.0722 m 0,-5e-5 0.1606,-0.0747 m 0,1e-5 0.1595,-0.0772 m 0,1e-5 0.1583,-0.0796 m 0,-6e-5 0.157,-0.082 m 0,1e-5 0.1557,-0.0845 m 0,1e-5 0.1545,-0.0868 m 0,-4e-5 0.153,-0.0892 m 0,-4e-5 0.1517,-0.0915 m 0,-1e-5 0.1503,-0.0939 m 0,6e-5 0.1487,-0.0962 m 0,-1e-5 0.1473,-0.0984 m 0,-4e-5 0.1458,-0.1007 m 0,0 0.1442,-0.10294 m 0,0 0.1426,-0.10513 m 0,0 0.1409,-0.10732 m 0,0 0.1393,-0.10947 m 0,0 0.1376,-0.11161 m 0,0 0.1359,-0.1137 m 0,0 0.1341,-0.11579 m 0,0 0.1323,-0.11783 m 0,0 0.1305,-0.11985 m 0,0 0.1286,-0.12185 m 0,0 0.1267,-0.12381 m 0,0 0.1248,-0.12575 m 0,0 0.1228,-0.12765 m 0,0 0.1209,-0.12952 m 0,0 0.1189,-0.13137 m 0,0 0.1168,-0.13319 m 0,0 0.1148,-0.13496 m 0,0 0.1126,-0.13672 m 0,0 0.1106,-0.13843 m 0,0 0.1084,-0.14011 m 0,0 0.1063,-0.14177 m 0,0 0.104,-0.14339 m 0,0 0.1019,-0.14496 m -4e-4,0 0.1,-0.14652 m -10e-5,0 0.097,-0.14804 m 3e-4,0 0.095,-0.14951 m -2e-4,0 0.093,-0.15096 m 2e-4,0 0.09,-0.15236 m 4e-4,0 0.088,-0.15374 m -3e-4,0 0.086,-0.15508 m -10e-5,0 0.083,-0.15637 m 10e-5,0 0.081,-0.15764 m 3e-4,0 0.078,-0.15886 m 4e-4,0 0.076,-0.16005 m -5e-4,0 0.074,-0.1612 m -5e-4,0 0.071,-0.16231 m -5e-4,0 0.069,-0.16339 m -5e-4,0 0.066,-0.16442 m 4e-4,0 0.063,-0.16541 m 3e-4,0 0.061,-0.16637 m 2e-4,0 0.058,-0.16729 m 10e-5,0 0.056,-0.16816 m -10e-5,0 0.053,-0.16901 m -4e-4,0 0.051,-0.1698 m 0,0 0.048,-0.17056 m 0,0 0.045,-0.17127 m 0,0 0.043,-0.17195 m 0,0 0.04,-0.17259 m 0,0 0.037,-0.17318 m 0,0 0.035,-0.17374 m 0,0 0.032,-0.17425 m 0,0 0.029,-0.17472 m 0,0 0.027,-0.17515 m 0,0 0.024,-0.17555 m 0,0 0.021,-0.17588 m 0,0 0.019,-0.1762 m -10e-4,0 0.016,-0.17645 m 0,0 0.013,-0.17668 m 0,0 0.01,-0.17686 m -0,0 0.01,-0.177 m 0,0 0,-0.1771 m 0.01,0 0,-0.17715 m 6e-4,0 -6e-4,-0.17716 m 6e-4,0 0,-0.17713 m 0,0 -0.01,-0.17707 m 0,0 -0.01,-0.17694 m 10e-4,0 -0.011,-0.1768 m -10e-4,0 -0.014,-0.1766 m 0,0 -0.017,-0.17636 m 10e-4,0 -0.02,-0.17608 m 0,0 -0.022,-0.17576 m 0,0 -0.025,-0.17539 m 0,0 -0.028,-0.17499 m 0,0 -0.03,-0.17454 m 0,0 -0.033,-0.17405 m 0,0 -0.036,-0.17353 m 0,0 -0.038,-0.17296 m -10e-4,0 -0.041,-0.17234 m 0,0 -0.044,-0.17169 m 0,0 -0.046,-0.17101 m 0,0 -0.049,-0.17026 m 5e-4,0 -0.052,-0.1695 m 3e-4,0 -0.054,-0.16868 m 10e-5,0 -0.057,-0.16783 m -10e-5,0 -0.059,-0.16694 m -2e-4,0 -0.062,-0.166 m -3e-4,0 -0.064,-0.16503 m -4e-4,0 -0.067,-0.16402 m -5e-4,0 -0.069,-0.16297 m -5e-4,0 -0.072,-0.16188 m -4e-4,0 -0.074,-0.16076 m -3e-4,0 -0.077,-0.15959 m -3e-4,0 -0.079,-0.15839 m -2e-4,0 -0.082,-0.15715 m 0,0 -0.084,-0.15588 m 2e-4,0 -0.087,-0.15455 m 4e-4,0 -0.089,-0.15321 m -3e-4,0 -0.091,-0.15182 m 10e-5,0 -0.094,-0.1504 m 5e-4,0 -0.096,-0.14895 m -2e-4,0 -0.098,-0.14744 m -3e-4,0 -0.1004,-0.14592 m 0,0 -0.1027,-0.14436 m 0,0 -0.105,-0.14276 m 0,0 -0.107,-0.14112 m 0,0 -0.1093,-0.13947 m 0,0 -0.1114,-0.13777 m 0,0 -0.1135,-0.13603 m 0,0 -0.1156,-0.13428 m 0,0 -0.1176,-0.13248 m 0,0 -0.1196,-0.13066 m 0,0 -0.1217,-0.12879 m 0,0 -0.1236,-0.12691 m 0,0 -0.1255,-0.125 m 0,0 -0.1275,-0.12305 m 0,0 -0.1293,-0.12108 m 0,0 -0.1312,-0.11907 m 0,0 -0.133,-0.11703 m 0,0 -0.1348,-0.11498 m 0,0 -0.1365,-0.11289 m 0,0 -0.1383,-0.11078 m 0,0 -0.14,-0.10864 m 0,0 -0.1416,-0.10647 m 0,0 -0.1432,-0.10428 m 0,0 -0.1448,-0.10206 m 0,-3e-5 -0.1463,-0.0998 m 0,1e-5 -0.1479,-0.0976 m 0,6e-5 -0.1494,-0.0953 m 0,6e-5 -0.1508,-0.093 m 0,0 -0.1522,-0.0906 m 0,-2e-5 -0.1536,-0.0883 m 0,1e-5 -0.155,-0.0859 m 0,-2e-5 -0.1562,-0.0835 m 0,-1e-5 -0.1575,-0.0811 m 0,3e-5 -0.1588,-0.0787 m 0,1e-5 -0.1599,-0.0762 m 0,3e-5 -0.1611,-0.0738 m 0,9e-5 -0.1622,-0.0713 m 0,8e-5 -0.1633,-0.0688 m 0,0 -0.1643,-0.0662 m 0,-4e-5 -0.1653,-0.0637 m 0,-5e-5 -0.1663,-0.0611 m 0,-3e-5 -0.1672,-0.0586 m 0,1e-5 -0.168,-0.056 m 0,-2e-5 -0.169,-0.0534 m 0,-2e-5 -0.1697,-0.0508 m 0,0 -0.1705,-0.0482 m 0,0 -0.1712,-0.0456 m 0,0 -0.1718,-0.0429 m 0,0 -0.1726,-0.0403 m 0,0 -0.1731,-0.0376 m 0,-1e-4 -0.1737,-0.0349 m 0,0 -0.1742,-0.0323 m 0,0 -0.1747,-0.0296 m 0,0 -0.1751,-0.0269 m 0,0 -0.1755,-0.0242 m 0,0 -0.1758,-0.0215 m 0,0 -0.1762,-0.0188 m 0,0 -0.1764,-0.0161 m 0,1e-4 -0.1767,-0.0134 m 0,0 -0.1768,-0.0106 m 0,0 -0.177,-0.008 m 0,-1e-4 -0.1771,-0.005 m 0,-0.001 -0.1771,-0.002 m -2e-4,-7.7e-4 -0.072,-2.3e-4 m -2e-4,6.20074 -0.1771,0.003 m 0,-2e-4 -0.1769,0.009 m 0,-1e-4 -0.1766,0.0147 m 0,1e-4 -0.1759,0.0206 m 0,0 -0.1752,0.0265 m 0,0 -0.1742,0.0323 m 0,0 -0.173,0.0381 m 0,0 -0.1716,0.0438 m 0,1e-4 -0.1701,0.0495 m 0,-1e-5 -0.1684,0.0552 m 0,2e-5 -0.1664,0.0607 m 0,1e-5 -0.1643,0.0663 m 0,-5e-5 -0.162,0.0717 m 0,-5e-5 -0.1595,0.0771 m 0,-1e-5 -0.1569,0.0823 m 0,4e-5 -0.154,0.0875 m 0,1e-5 -0.151,0.0926 m 0,-2e-5 -0.1479,0.0976 m 0,-2e-5 -0.1445,0.10245 m 0,0 -0.1411,0.10722 m 0,0 -0.1373,0.11185 m 0,0 -0.1336,0.11637 m 0,0 -0.1296,0.12076 m 0,0 -0.1256,0.12501 m 0,0 -0.1213,0.12912 m 0,0 -0.1169,0.1331 m 0,0 -0.1124,0.13691 m 0,0 -0.1078,0.14059 m 0,0 -0.103,0.14411 m -2e-4,0 -0.098,0.14745 m -5e-4,0 -0.093,0.15065 m -4e-4,0 -0.088,0.15367 m -10e-5,0 -0.083,0.15652 m 3e-4,0 -0.078,0.1592 m -10e-5,0 -0.072,0.16171 m -3e-4,0 -0.067,0.16402 m -3e-4,0 -0.061,0.16617 m -3e-4,0 -0.056,0.16811 m -10e-5,0 -0.05,0.16989 m 0,0 -0.045,0.17147 m 10e-4,0 -0.039,0.17286 m 0,0 -0.033,0.17405 m 0,0 -0.027,0.17505 m 0,0 -0.021,0.17587 m 0,0 -0.016,0.17648 m 10e-4,0 -0.01,0.1769 m -0,0 0,0.17712 m 0,0 0,0.17714 m 0,0 0.01,0.17697 m -0,0 0.014,0.1766 m 0,0 0.02,0.17604 m 0,0 0.026,0.17527 m -10e-4,0 0.032,0.17432 m 0,0 0.037,0.17318 m 10e-4,0 0.043,0.17183 m 0,0 0.049,0.17029 m 3e-4,0 0.054,0.16858 m 6e-4,0 0.06,0.16666 m 6e-4,0 0.065,0.16458 m 6e-4,0 0.071,0.16229 m 5e-4,0 0.076,0.15984 m 0,0 0.082,0.1572 m -5e-4,0 0.087,0.15439 m -10e-5,0 0.092,0.15142 m 0,0 0.097,0.14826 m 0,0 0.1018,0.14495 m 0,0 0.1067,0.14147 m 0,0 0.1112,0.13784 m 0,0 0.1159,0.13406 m 0,0 0.1202,0.13012 m 0,0 0.1245,0.12604 m 0,0 0.1286,0.12183 m 0,0 0.1326,0.11746 m 0,0 0.1364,0.11299 m 0,0 0.1402,0.10837 m 0,0 0.1437,0.10365 m 0,0 0.147,0.0988 m 0,4e-5 0.1503,0.0938 m 0,2e-5 0.1533,0.0888 m 0,0 0.1562,0.0836 m 0,-1e-5 0.1588,0.0784 m 0,1e-5 0.1614,0.073 m 0,5e-5 0.1638,0.0676 m 0,3e-5 0.1659,0.0621 m 0,-2e-5 0.1679,0.0566 m 0,-1e-5 0.1697,0.0509 m 0,1e-4 0.1712,0.0452 m 0,10e-5 0.1727,0.0395 m 0,1e-4 0.174,0.0337 m 0,1e-4 0.1749,0.0279 m 0,0 0.1758,0.0221 m 0,0 0.1764,0.0162 m 0,0 0.1768,0.0103 m 0,4e-4 0.1771,0.004 m 0,0 0.1772,-0.001 m 0,-10e-4 0.177,-0.007 m 0,-4e-4 0.1767,-0.0133 m 0,1e-4 0.1761,-0.0192 m 0,0 0.1754,-0.025 m 0,-1e-4 0.1744,-0.0308 m 0,0 0.1733,-0.0367 m 0,0 0.172,-0.0424 m 0,0 0.1705,-0.0481 m 0,1e-5 0.1688,-0.0538 m 0,6e-5 0.1669,-0.0594 m 0,3e-5 0.1649,-0.0649 m 0,4e-5 0.1626,-0.0704 m 0,0 0.1601,-0.0757 m 0,-7e-5 0.1576,-0.081 m 0,-7e-5 0.1547,-0.0862 m 0,-8e-5 0.1518,-0.0913 m 0,0 0.1487,-0.0964 m 0,4e-5 0.1453,-0.10125 m 0,0 0.1419,-0.10605 m 0,0 0.1383,-0.11072 m 0,0 0.1346,-0.11526 m 0,0 0.1306,-0.11968 m 0,0 0.1266,-0.12397 m 0,0 0.1223,-0.12812 m 0,0 0.118,-0.13212 m 0,0 0.1136,-0.13599 m 0,0 0.1089,-0.13969 m 0,0 0.1043,-0.14325 m 4e-4,0 0.099,-0.14664 m 8e-4,0 0.094,-0.14987 m 8e-4,0 0.089,-0.15294 m 7e-4,0 0.084,-0.15583 m 3e-4,0 0.079,-0.15855 m -3e-4,0 0.074,-0.1611 m 0,0 0.068,-0.16347 m 10e-5,0 0.063,-0.16565 m 1e-4,0 0.057,-0.16765 m -10e-5,0 0.052,-0.16947 m 0,0 0.046,-0.17109 m 0,0 0.04,-0.17253 m 10e-4,0 0.034,-0.17377 m 0,0 0.029,-0.17483 m 0,0 0.023,-0.17569 m 0,0 0.017,-0.17634 m 0,0 0.011,-0.17681 m -0.01,0 0.01,-0.17709 m -0.01,0 -8e-4,-0.17715 m 8e-4,0 -0.01,-0.17704 m 0,0 -0.013,-0.1767 m 0,0 -0.018,-0.1762 m -10e-4,0 -0.024,-0.17549 m 0,0 -0.03,-0.17457 m 0,0 -0.036,-0.17347 m 0,0 -0.042,-0.17218 m 0,0 -0.047,-0.17069 m -5e-4,0 -0.053,-0.16902 m 2e-4,0 -0.059,-0.16716 m 10e-5,0 -0.064,-0.16511 m 10e-5,0 -0.07,-0.16288 m 3e-4,0 -0.075,-0.16046 m -4e-4,0 -0.08,-0.15787 m 0,0 -0.086,-0.15511 m 7e-4,0 -0.091,-0.15216 m 5e-4,0 -0.096,-0.14906 m 2e-4,0 -0.1006,-0.14578 m 0,0 -0.1055,-0.14235 m 0,0 -0.1101,-0.13876 m 0,0 -0.1147,-0.13501 m 0,0 -0.1192,-0.13111 m 0,0 -0.1234,-0.12707 m 0,0 -0.1276,-0.12288 m 0,0 -0.1317,-0.11856 m 0,0 -0.1355,-0.11411 m 0,0 -0.1392,-0.10952 m 0,0 -0.1429,-0.10483 m 0,0 -0.1462,-0.10001 m 0,2e-5 -0.1495,-0.0951 m 0,-2e-5 -0.1525,-0.09 m 0,-5e-5 -0.1555,-0.0849 m 0,0 -0.1582,-0.0797 m 0,5e-5 -0.1608,-0.0744 m 0,7e-5 -0.1632,-0.069 m 0,5e-5 -0.1654,-0.0635 m 0,-2e-5 -0.1674,-0.0579 m 0,-7e-5 -0.1693,-0.0523 m 0,0 -0.1709,-0.0467 m 0,0 -0.1723,-0.0409 m 0,0 -0.1737,-0.0352 m 0,1e-4 -0.1747,-0.0294 m 0,0 -0.1756,-0.0235 m 0,0 -0.1762,-0.0177 m 0,1e-4 -0.1768,-0.0118 m 0,1e-4 -0.1771,-0.006 m 2e-4,-2.8e-4 -0.088,-7.2e-4" />
    <path
       style="stroke:#000000;fill:none"
       d="M 1148.005701,173.616778 1147.197798,173.623780"
       id="path4060" />
    <path
       id="path5162"
       style="stroke:#fe0000;fill:none;stroke-opacity:1;stroke-width:0.70866142;stroke-miterlimit:4;stroke-dasharray:none"
       d="m 1150.6554,152.19306 -0.073,0.001 m 10e-5,0 -0.177,0.007 m 0,2e-4 -0.1766,0.0135 m 0,0 -0.1761,0.0201 m 0,0 -0.1751,0.0268 m 0,0 -0.1739,0.0337 m 0,0 -0.1724,0.0407 m 0,0 -0.1706,0.0478 m 0,-4e-5 -0.1684,0.0551 m 0,-7e-5 -0.1658,0.0624 m 0,-6e-5 -0.1628,0.0698 m 0,-4e-5 -0.1595,0.0772 m 0,4e-5 -0.1556,0.0846 m 0,8e-5 -0.1513,0.092 m 0,4e-5 -0.1467,0.0994 m 0,0 -0.1414,0.10664 m 0,0 -0.1358,0.11373 m 0,0 -0.1298,0.12062 m 0,0 -0.1232,0.12728 m 0,0 -0.1163,0.13363 m 0,0 -0.1089,0.13966 m 0,0 -0.1014,0.1453 m -4e-4,0 -0.093,0.15052 m -6e-4,0 -0.085,0.1553 m -10e-5,0 -0.077,0.1596 m -2e-4,0 -0.068,0.16343 m -10e-5,0 -0.06,0.16675 m 0,0 -0.051,0.16957 m 0,0 -0.043,0.17193 m 0,0 -0.034,0.1738 m 0,0 -0.026,0.17524 m 0,0 -0.018,0.17624 m 0,0 -0.01,0.17688 m -0,0 0,0.17713 m 0,-4e-5 0,0.0705 m 0,-4e-5 0.01,0.17696 m -0,0 0.016,0.17642 m 0,0 0.024,0.17551 m 0,0 0.032,0.17418 m 0,0 0.041,0.17242 m 0,0 0.049,0.1702 m -3e-4,0 0.058,0.16751 m -2e-4,0 0.066,0.16433 m -2e-4,0 0.075,0.16066 m -4e-4,0 0.083,0.1565 m 2e-4,0 0.091,0.15188 m 3e-4,0 0.099,0.1468 m 1e-4,0 0.1069,0.14128 m 0,0 0.1142,0.13539 m 0,0 0.1213,0.12914 m 0,0 0.1279,0.12258 m 0,0 0.134,0.11575 m 0,0 0.1399,0.10872 m 0,0 0.1452,0.10149 m 0,-4e-5 0.15,0.0942 m 0,-10e-6 0.1545,0.0867 m 0,-1e-5 0.1584,0.0793 m 0,-7e-5 0.162,0.0718 m 0,-2e-5 0.1651,0.0643 m 0,1e-5 0.1677,0.0569 m 0,-5e-5 0.1701,0.0496 m 0,0 0.172,0.0423 m 0,0 0.1737,0.0352 m 0,0 0.1749,0.0282 m 0,0 0.1758,0.0213 m 0,10e-5 0.1766,0.0146 m 0,1e-4 0.1769,0.008 m 0,0 0.1772,0.002 m -10e-5,-2.9e-4 0.065,-9.5e-4 m -10e-5,-5e-5 0.177,-0.007 m 0,2e-4 0.1766,-0.0134 m 0,10e-5 0.1761,-0.02 m 0,0 0.1751,-0.0267 m 0,-1e-4 0.1739,-0.0336 m 0,-1e-4 0.1724,-0.0407 m 0,0 0.1706,-0.0479 m 0,0 0.1683,-0.0551 m 0,-2e-5 0.1658,-0.0625 m 0,10e-6 0.1628,-0.0699 m 0,-4e-5 0.1594,-0.0773 m 0,-2e-5 0.1555,-0.0848 m 0,3e-5 0.1513,-0.0922 m 0,-10e-6 0.1465,-0.0995 m 0,-2e-5 0.1414,-0.10675 m 0,0 0.1357,-0.11382 m 0,0 0.1297,-0.12069 m 0,0 0.1232,-0.12731 m 0,0 0.1163,-0.13364 m 0,0 0.1089,-0.13965 m 0,0 0.1014,-0.14526 m 5e-4,0 0.093,-0.15047 m 8e-4,0 0.085,-0.15524 m 3e-4,0 0.077,-0.15954 m -4e-4,0 0.069,-0.16335 m -5e-4,0 0.06,-0.16669 m 3e-4,0 0.051,-0.16952 m 0,0 0.043,-0.17188 m 0,0 0.034,-0.17376 m 10e-4,0 0.026,-0.17522 m 0,0 0.018,-0.17623 m 0,0 0.01,-0.17687 m 0,0 0,-0.17713 m 0,4e-5 0,-0.0674 m 0,4e-5 -0.01,-0.17696 m 0,0 -0.016,-0.17645 m 0,0 -0.024,-0.17556 m 0,0 -0.032,-0.17426 m 0,0 -0.04,-0.17253 m 0,0 -0.049,-0.17035 m 4e-4,0 -0.057,-0.16769 m 2e-4,0 -0.066,-0.16455 m 3e-4,0 -0.074,-0.16091 m -5e-4,0 -0.082,-0.15677 m -2e-4,0 -0.091,-0.15217 m 6e-4,0 -0.099,-0.14709 m 3e-4,0 -0.1065,-0.14158 m 0,0 -0.1139,-0.13567 m 0,0 -0.121,-0.12941 m 0,0 -0.1276,-0.12282 m 0,0 -0.1339,-0.11596 m 0,0 -0.1398,-0.10889 m 0,0 -0.145,-0.10164 m 0,5e-5 -0.15,-0.0943 m 0,6e-5 -0.1545,-0.0868 m 0,3e-5 -0.1584,-0.0793 m 0,5e-5 -0.162,-0.0718 m 0,6e-5 -0.165,-0.0643 m 0,-2e-5 -0.1678,-0.0568 m 0,-4e-5 -0.1701,-0.0495 m 0,0 -0.1721,-0.0422 m 0,0 -0.1736,-0.0351 m 0,0 -0.1749,-0.0281 m 0,0 -0.1759,-0.0213 m 0,1e-4 -0.1765,-0.0146 m 0,0 -0.177,-0.008 m 0,0 -0.1772,-0.002 m -3.5544,9.61753 4.4822,-0.0362 m 5e-4,5e-5 0.053,-5e-5 m 5e-4,-9.5e-4 0.1771,0.006 m 0,-5e-4 0.1765,0.0149 m 0,0 0.1754,0.0251 m 0,0 0.1733,0.0364 m 0,-1e-4 0.1704,0.0486 m 0,-1e-5 0.166,0.0617 m 0,-10e-6 0.1601,0.0757 m 0,2e-5 0.1524,0.0901 m 0,5e-5 0.1428,0.10479 m 0,0 0.1311,0.119 m 0,0 0.1178,0.13225 m 0,0 0.1031,0.14396 m -3e-4,0 0.088,0.15384 m 0,0 0.072,0.16169 m 5e-4,0 0.057,0.16763 m 10e-5,0 0.043,0.17184 m -10e-4,0 0.03,0.17462 m -10e-4,0 0.018,0.17626 m -0,0 0.01,0.17702 m 0,3e-5 0,0.0513 m 0,3e-5 -0.01,0.17701 m 0,0 -0.018,0.1762 m 0,0 -0.031,0.17446 m 0,0 -0.044,0.1715 m -10e-5,0 -0.059,0.16702 m -2e-4,0 -0.074,0.16077 m -3e-4,0 -0.09,0.15253 m 0,0 -0.1054,0.1423 m 0,0 -0.1199,0.13024 m 0,0 -0.1331,0.11683 m 0,0 -0.1444,0.10256 m 0,5e-5 -0.1536,0.088 m 0,4e-5 -0.161,0.0738 m 0,-5e-5 -0.1666,0.0602 m 0,-7e-5 -0.1707,0.0474 m 0,0 -0.1735,0.0355 m 0,0 -0.1755,0.0247 m 0,0 -0.1765,0.0147 m 0,-3e-4 -0.177,0.006 m 0,-3e-4 -4.4822,0.0362 m -0,-4e-5 0.01,0.90351 m -0,-5e-5 4.4928,-0.0362 m -0,-5e-5 0.01,-5e-5 m -0,5e-5 0.1771,-0.005 m 0,2e-4 0.1768,-0.0115 m 0,0 0.1762,-0.0186 m 0,0 0.1752,-0.0262 m 0,-1e-4 0.1738,-0.0344 m 0,0 0.1718,-0.0432 m 0,0 0.1692,-0.0524 m 0,-7e-5 0.1658,-0.0622 m 0,-2e-5 0.1616,-0.0725 m 0,5e-5 0.1565,-0.0831 m 0,0 0.1502,-0.0938 m 0,-4e-5 0.143,-0.10458 m 0,0 0.1346,-0.11512 m 0,0 0.1253,-0.12514 m 0,0 0.1153,-0.13448 m 0,0 0.1046,-0.14292 m -3e-4,0 0.094,-0.15034 m 2e-4,0 0.082,-0.15671 m 2e-4,0 0.072,-0.162 m -3e-4,0 0.061,-0.16629 m -2e-4,0 0.051,-0.1697 m 0,0 0.041,-0.17228 m 0,0 0.032,-0.17421 m 0,0 0.024,-0.17556 m -10e-4,0 0.016,-0.17644 m -0,0 0.01,-0.17695 m 0,0 0,-0.17715 m 0,0 0,-0.17421 m -0,0 -0.011,-0.17679 m 0,0 -0.019,-0.17616 m 10e-4,0 -0.027,-0.17515 m 0,0 -0.035,-0.17366 m 0,0 -0.044,-0.17159 m 0,0 -0.054,-0.16884 m 7e-4,0 -0.064,-0.16529 m 10e-5,0 -0.074,-0.16085 m -2e-4,0 -0.085,-0.15542 m 2e-4,0 -0.096,-0.14894 m 2e-4,0 -0.1067,-0.14142 m 0,0 -0.1171,-0.13289 m 0,0 -0.1269,-0.12351 m 0,0 -0.1361,-0.11341 m 0,0 -0.1442,-0.10285 m 0,-4e-5 -0.1513,-0.092 m 0,-4e-5 -0.1574,-0.0812 m 0,-3e-5 -0.1625,-0.0705 m 0,-3e-5 -0.1666,-0.0602 m 0,2e-5 -0.1699,-0.0503 m 0,0 -0.1723,-0.0409 m 0,0 -0.1743,-0.032 m 0,0 -0.1755,-0.0237 m 0,1e-4 -0.1765,-0.0159 m 0,4e-4 -0.1769,-0.009 m 0,6e-4 -0.1772,-0.002 m 0,2e-4 -4.5034,0.0363 m -0,3e-5 0.01,0.90351 m 1.0004,-28.50784 0.4333,-0.76533 m -2e-4,4e-5 -0.075,-0.0507 m -2e-4,4e-5 -0.1409,-0.10729 m 0,0 -0.1326,-0.11748 m 0,0 -0.1236,-0.12683 m 0,0 -0.1142,-0.13541 m 0,0 -0.1042,-0.14322 m 2e-4,0 -0.094,-0.1503 m 5e-4,0 -0.083,-0.15663 m 10e-5,0 -0.071,-0.16217 m -4e-4,0 -0.059,-0.16693 m -10e-5,0 -0.047,-0.17082 m 0,0 -0.034,-0.17381 m 0,0 -0.021,-0.17586 m 0,0 -0.01,-0.17695 m 0.01,0 0,-0.17249 m 0,0 0.015,-0.17651 m 0,0 0.026,-0.17518 m 0,0 0.038,-0.17308 m 0,0 0.049,-0.17019 m -4e-4,0 0.061,-0.1665 m -9e-4,0 0.072,-0.16202 m 0,0 0.082,-0.15677 m 3e-4,0 0.093,-0.15082 m -10e-5,0 0.1029,-0.14421 m 0,0 0.1123,-0.137 m 0,0 0.1211,-0.12926 m 0,0 0.1292,-0.12109 m 0,0 0.1368,-0.11254 m 0,0 0.1436,-0.1037 m 0,5e-5 0.1498,-0.0947 m 0,0 0.1551,-0.0854 m 0,-4e-5 0.16,-0.0762 m 0,1e-5 0.164,-0.0669 m 0,4e-5 0.1675,-0.0577 m 0,4e-5 0.1704,-0.0485 m 0,0 0.1726,-0.0395 m 0,0 0.1745,-0.0306 m 0,0 0.1758,-0.022 m 0,0 0.1766,-0.0136 m 0,-4e-4 0.1771,-0.005 m 0,0 0.1671,0.002 m 0,3e-4 0.1768,0.0104 m 0,1e-4 0.1762,0.0189 m 0,0 0.175,0.0277 m 0,0 0.1733,0.0366 m 0,0 0.1711,0.0457 m 0,-1e-5 0.1684,0.0549 m 0,10e-6 0.1651,0.0642 m 0,4e-5 0.1612,0.0735 m 0,9e-5 0.1566,0.0828 m 0,5e-5 0.1513,0.0921 m 0,0 0.1454,0.1012 m 0,0 0.1387,0.11011 m 0,0 0.1315,0.11873 m 0,0 0.1234,0.12701 m 0,0 0.1149,0.13486 m 0,0 0.1056,0.14221 m -2e-4,0 0.096,0.14899 m 3e-4,0 0.085,0.15512 m 3e-4,0 0.075,0.16058 m -5e-4,0 0.064,0.16527 m 10e-5,0 0.052,0.1692 m 0,0 0.041,0.17232 m 0,0 0.03,0.17466 m 0,0 0.018,0.1762 m -0,0 0.01,0.177 m 10e-4,1e-5 -10e-4,0.0927 m 0,1e-5 -0.012,0.17674 m 0,0 -0.025,0.1754 m 0,0 -0.037,0.17313 m 0,0 -0.05,0.16993 m -3e-4,0 -0.062,0.16582 m -4e-4,0 -0.074,0.16084 m 2e-4,0 -0.086,0.15502 m 5e-4,0 -0.097,0.14837 m 2e-4,0 -0.1073,0.14093 m 0,0 -0.1173,0.13268 m 0,0 -0.1269,0.12362 m 0,0 -0.1357,0.11375 m 0,0 -0.1441,0.10302 m 0,0 0.4456,0.76888 m 0,3e-5 0.078,-0.0584 m 0,3e-5 0.1385,-0.11046 m 0,0 0.1337,-0.11622 m 0,0 0.1283,-0.12212 m 0,0 0.1223,-0.12813 m 0,0 0.1157,-0.13415 m 0,0 0.1084,-0.1401 m 0,0 0.1006,-0.14585 m 10e-5,0 0.092,-0.15132 m 3e-4,0 0.083,-0.15638 m 10e-5,0 0.074,-0.16096 m 4e-4,0 0.064,-0.16498 m 5e-4,0 0.055,-0.16841 m 4e-4,0 0.045,-0.17121 m 10e-4,0 0.036,-0.17342 m 0,0 0.027,-0.17507 m 0,0 0.018,-0.17619 m 0,0 0.01,-0.17685 m 0,0 0,-0.17714 m -7e-4,0 0,-0.12998 m -0,0 -0.011,-0.17681 m 0,0 -0.019,-0.17615 m 0,0 -0.027,-0.17512 m 0,0 -0.035,-0.17369 m 0,0 -0.043,-0.17188 m 0,0 -0.051,-0.16966 m 0,0 -0.059,-0.167 m -2e-4,0 -0.067,-0.16394 m -3e-4,0 -0.075,-0.16044 m 0,0 -0.083,-0.15653 m 4e-4,0 -0.091,-0.1522 m 2e-4,0 -0.098,-0.14745 m -10e-5,0 -0.1055,-0.14231 m 0,0 -0.1126,-0.1368 m 0,0 -0.1193,-0.13093 m 0,0 -0.1258,-0.12472 m 0,0 -0.1319,-0.11823 m 0,0 -0.1377,-0.11144 m 0,0 -0.1431,-0.10444 m 0,-3e-5 -0.1481,-0.0972 m 0,-8e-5 -0.1526,-0.0898 m 0,-1e-5 -0.1569,-0.0824 m 0,6e-5 -0.1606,-0.0748 m 0,6e-5 -0.1639,-0.0672 m 0,1e-5 -0.1668,-0.0595 m 0,-6e-5 -0.1694,-0.0519 m 0,0 -0.1715,-0.0444 m 0,0 -0.1733,-0.0369 m 0,0 -0.1746,-0.0296 m 0,0 -0.1758,-0.0224 m 0,0 -0.1765,-0.0154 m 0,5e-4 -0.1769,-0.009 m 0,7e-4 -0.1772,-0.002 m 0,0 -0.1354,0.003 m 0,-3e-4 -0.1769,0.01 m 0,-2e-4 -0.1764,0.0165 m 0,0 -0.1756,0.0235 m 0,0 -0.1745,0.0306 m 0,0 -0.173,0.0379 m 0,0 -0.1713,0.0452 m 0,1e-4 -0.1691,0.0527 m 0,6e-5 -0.1666,0.0602 m 0,4e-5 -0.1637,0.0678 m 0,-4e-5 -0.1603,0.0754 m 0,-7e-5 -0.1566,0.0829 m 0,-2e-5 -0.1524,0.0903 m 0,4e-5 -0.1478,0.0976 m 0,3e-5 -0.1428,0.10479 m 0,0 -0.1375,0.11176 m 0,0 -0.1316,0.11851 m 0,0 -0.1256,0.12497 m 0,0 -0.1191,0.13116 m 0,0 -0.1123,0.13702 m 0,0 -0.1052,0.14251 m 10e-5,0 -0.098,0.14764 m -2e-4,0 -0.09,0.15237 m 10e-5,0 -0.083,0.1567 m 6e-4,0 -0.075,0.16061 m 5e-4,0 -0.067,0.1641 m 7e-4,0 -0.059,0.16716 m 8e-4,0 -0.051,0.1698 m 0,0 -0.042,0.17201 m 0,0 -0.034,0.17381 m 0,0 -0.026,0.17521 m 0,0 -0.018,0.17622 m 0,0 -0.01,0.17686 m -0,0 0,0.17713 m -7e-4,0 0,0.0921 m 10e-4,0 0.01,0.17691 m 0,0 0.017,0.17628 m 0,0 0.026,0.17523 m 0,0 0.035,0.17367 m 0,0 0.044,0.17159 m 0,0 0.053,0.16893 m 0,0 0.063,0.16565 m -10e-5,0 0.072,0.1618 m 5e-4,0 0.081,0.15736 m 6e-4,0 0.09,0.15238 m 3e-4,0 0.099,0.14694 m 0,0 0.107,0.14112 m 0,0 0.1148,0.13498 m 0,0 0.1217,0.12863 m 0,0 0.1283,0.12216 m 0,0 0.1342,0.11563 m 0,0 0.1396,0.10913 m 0,0 0.1443,0.10268 m 2.5589,19.82605 -0.1771,0.005 m 0,-1e-4 -0.1767,0.0123 m 0,0 -0.1761,0.0198 m 0,0 -0.1749,0.0277 m 0,0 -0.1735,0.0358 m 0,1e-4 -0.1715,0.0442 m 0,0 -0.1691,0.053 m 0,-4e-5 -0.166,0.0619 m 0,-1e-5 -0.1622,0.0711 m 0,3e-5 -0.1578,0.0804 m 0,7e-5 -0.1526,0.0899 m 0,7e-5 -0.1466,0.0994 m 0,5e-5 -0.1397,0.10893 m 0,0 -0.1319,0.11824 m 0,0 -0.1232,0.12724 m 0,0 -0.1137,0.13581 m 0,0 -0.1035,0.14379 m -4e-4,0 -0.092,0.15107 m -4e-4,0 -0.081,0.15751 m -3e-4,0 -0.069,0.16305 m -5e-4,0 -0.057,0.16762 m -5e-4,0 -0.045,0.17125 m -10e-4,0 -0.033,0.17394 m 0,0 -0.022,0.17576 m 0,0 -0.011,0.1768 m -10e-4,0 0,0.12102 m 0,0 0.01,0.17702 m -0,0 0.017,0.17627 m 0,0 0.029,0.17479 m 0,0 0.04,0.17248 m 10e-4,0 0.052,0.16927 m 3e-4,0 0.064,0.16512 m 0,0 0.076,0.16002 m -5e-4,0 0.088,0.15398 m -8e-4,0 0.099,0.14709 m -4e-4,0 0.1093,0.13944 m 0,0 0.119,0.13112 m 0,0 0.1282,0.12231 m 0,0 0.1363,0.1131 m 0,0 0.1436,0.10368 m 0,1e-5 0.1501,0.0941 m 0,-4e-5 0.1556,0.0846 m 0,-1e-4 0.1605,0.0751 m 0,-5e-5 0.1645,0.0657 m 0,4e-5 0.1679,0.0565 m 0,4e-5 0.1706,0.0476 m 0,0 0.1728,0.0389 m 0,1e-4 0.1745,0.0305 m 0,1e-4 0.1757,0.0224 m 0,0 0.1766,0.0146 m 0,0 0.177,0.007 m 0,3.6e-4 0.1184,6.4e-4 m 0,3.6e-4 0.1771,-0.005 m 0,-10e-5 0.1767,-0.0125 m 0,0 0.176,-0.0203 m 0,0 0.1749,-0.0282 m 0,0 0.1734,-0.0365 m 0,0 0.1713,-0.045 m 0,0 0.1688,-0.0537 m 0,-3e-5 0.1657,-0.0627 m 0,4e-5 0.1619,-0.0719 m 0,6e-5 0.1574,-0.0812 m 0,4e-5 0.1523,-0.0906 m 0,2e-5 0.1462,-0.10002 m 0,0 0.1393,-0.10938 m 0,0 0.1316,-0.11857 m 0,0 0.123,-0.12746 m 0,0 0.1135,-0.13593 m 0,0 0.1034,-0.14383 m 5e-4,0 0.092,-0.15104 m 6e-4,0 0.081,-0.15746 m 5e-4,0 0.069,-0.16298 m 8e-4,0 0.057,-0.16757 m 8e-4,0 0.045,-0.17122 m 0,0 0.034,-0.17393 m -10e-4,0 0.022,-0.17578 m 0,0 0.011,-0.17681 m 10e-4,0 0,-0.11304 m 0,0 -0.01,-0.17702 m 0,0 -0.017,-0.17628 m 0,0 -0.029,-0.1748 m 0,0 -0.04,-0.17251 m 0,0 -0.052,-0.1693 m -10e-5,0 -0.064,-0.16516 m 2e-4,0 -0.076,-0.16007 m 7e-4,0 -0.088,-0.15402 m 9e-4,0 -0.099,-0.14713 m 4e-4,0 -0.1092,-0.13946 m 0,0 -0.1191,-0.13114 m 0,0 -0.1281,-0.12232 m 0,0 -0.1363,-0.1131 m 0,0 -0.1436,-0.10366 m 0,-1e-5 -0.1501,-0.0941 m 0,-5e-5 -0.1557,-0.0845 m 0,-8e-5 -0.1604,-0.075 m 0,-3e-5 -0.1645,-0.0657 m 0,-2e-5 -0.1679,-0.0565 m 0,-3e-5 -0.1706,-0.0476 m 0,0 -0.1729,-0.0389 m 0,-10e-5 -0.1745,-0.0305 m 0,0 -0.1757,-0.0224 m 0,0 -0.1765,-0.0145 m 0,0 -0.1771,-0.007 m 0,-4.1e-4 -0.1156,-5.9e-4 m 1.0902,-12.44621 -0.8232,0.73659 m 0,0 3.2854,2.72673 m -9e-4,0 0.01,1.12319 m -9e-4,0 -3.8319,-3.25738 m 0,0 -3.4267,3.05373 m 9e-4,0 -0.01,-1.13382 m 9e-4,0 3.7299,-3.24044 m -10e-5,0 -3.7558,0.0303 m 0,0 -0.01,-0.90351 m 0,-4e-5 7.2565,-0.0585 m -0,-4e-5 0.01,0.90351 m -0,4e-5 -2.4341,0.0196 m 2.4175,-2.08479 -0.8043,0.006 m -3e-4,4.9e-4 -0.027,-3.37666 m -3e-4,-5e-5 -6.4521,0.0521 m 0,-5e-5 -0.01,-0.90351 m 0,-5e-5 7.2564,-0.0585 m -4e-4,-5e-5 0.035,4.28018 m 0.5584,13.05655 -0.05,-6.20413 m -10e-5,1.6e-4 0.5988,-0.005 m 10e-5,1.6e-4 0.05,6.20413 m 10e-5,-1.6e-4 -0.5988,0.005 m -7.5337,21.96911 -0.044,-5.50612 m -4e-4,4.9e-4 0.8079,-0.007 m 5e-4,4.9e-4 0.018,2.29598 m 5e-4,-2e-5 6.4486,-0.052 m -0,-2e-5 0.01,0.90351 m -0,3e-5 -6.4486,0.052 m -4e-4,3e-5 0.019,2.30661" />
    <path
       id="path5170"
       style="stroke:#000000;fill:none"
       d="m 1186.9415,183.8512 0,195.22899 m 0,0 -36.1508,0 m 0,0 0,-195.22899 m 0,0 36.1508,0" />
    <path
       id="path5618"
       style="stroke:#ff0000;fill:none;stroke-opacity:1;stroke-width:0.70866142;stroke-miterlimit:4;stroke-dasharray:none"
       d="m 1195.4554,136.47431 -0.4456,-0.76887 m 0,0 0.144,-0.10302 m 0,0 0.1358,-0.11375 m 0,0 0.1269,-0.12362 m 0,0 0.1173,-0.13268 m 0,0 0.1073,-0.14093 m -3e-4,0 0.097,-0.14838 m -6e-4,0 0.086,-0.15501 m -10e-5,0 0.074,-0.16084 m 5e-4,0 0.062,-0.16582 m 3e-4,0 0.05,-0.16993 m 0,0 0.037,-0.17313 m 0,0 0.025,-0.17541 m -10e-4,0 0.012,-0.17673 m 0,-2e-5 10e-4,-0.0927 m -10e-4,-2e-5 -0.01,-0.177 m 0,0 -0.018,-0.1762 m 0,0 -0.03,-0.17465 m 0,0 -0.041,-0.17233 m 0,0 -0.052,-0.16919 m -10e-5,0 -0.064,-0.16528 m 5e-4,0 -0.075,-0.16057 m -3e-4,0 -0.085,-0.15513 m -3e-4,0 -0.096,-0.14899 m 2e-4,0 -0.1056,-0.14221 m 0,0 -0.1149,-0.13486 m 0,0 -0.1234,-0.127 m 0,0 -0.1315,-0.11874 m 0,0 -0.1388,-0.1101 m 0,0 -0.1453,-0.1012 m 0,0 -0.1513,-0.0921 m 0,4e-5 -0.1566,-0.0829 m 0,0 -0.1612,-0.0735 m 0,-4e-5 -0.1651,-0.0642 m 0,0 -0.1684,-0.0549 m 0,1e-5 -0.1711,-0.0457 m 0,0 -0.1734,-0.0366 m 0,0 -0.1749,-0.0277 m 0,0 -0.1762,-0.0189 m 0,-1e-4 -0.1768,-0.0104 m 0,-3e-4 -0.1671,-0.002 m 0,0 -0.1771,0.005 m 0,4e-4 -0.1766,0.0136 m 0,0 -0.1758,0.022 m 0,0 -0.1745,0.0306 m 0,0 -0.1727,0.0395 m 0,0 -0.1703,0.0485 m 0,6e-5 -0.1675,0.0576 m 0,6e-5 -0.1641,0.0669 m 0,-1e-5 -0.1599,0.0762 m 0,-6e-5 -0.1551,0.0855 m 0,-9e-5 -0.1498,0.0947 m 0,-5e-5 -0.1436,0.1037 m 0,0 -0.1368,0.11254 m 0,0 -0.1293,0.12108 m 0,0 -0.1211,0.12927 m 0,0 -0.1122,0.137 m 0,0 -0.1029,0.1442 m 10e-5,0 -0.093,0.15082 m -3e-4,0 -0.082,0.15678 m 0,0 -0.072,0.16202 m 9e-4,0 -0.061,0.16649 m 4e-4,0 -0.049,0.17019 m 0,0 -0.038,0.17308 m 0,0 -0.026,0.17519 m 0,0 -0.015,0.1765 m -0,0 0,0.1725 m -0.01,0 0.01,0.17694 m -0,0 0.021,0.17587 m 0,0 0.034,0.17381 m 0,0 0.047,0.17082 m 10e-5,0 0.059,0.16692 m 4e-4,0 0.071,0.16218 m -10e-5,0 0.083,0.15663 m -5e-4,0 0.094,0.15029 m -2e-4,0 0.1042,0.14323 m 0,0 0.1142,0.1354 m 0,0 0.1236,0.12684 m 0,0 0.1326,0.11748 m 0,0 0.1409,0.10729 m 10e-5,-4e-5 0.075,0.0507 m 10e-5,-4e-5 -0.4332,0.76533 m 0,0 -0.1443,-0.10269 m 0,0 -0.1396,-0.10912 m 0,0 -0.1342,-0.11563 m 0,0 -0.1283,-0.12216 m 0,0 -0.1218,-0.12864 m 0,0 -0.1147,-0.13497 m 0,0 -0.1071,-0.14112 m 10e-5,0 -0.099,-0.14694 m -2e-4,0 -0.09,-0.15239 m -7e-4,0 -0.081,-0.15736 m -5e-4,0 -0.072,-0.16179 m 2e-4,0 -0.063,-0.16566 m -10e-5,0 -0.053,-0.16892 m 0,0 -0.044,-0.17159 m 0,0 -0.035,-0.17367 m 0,0 -0.026,-0.17523 m 0,0 -0.017,-0.17629 m 0,0 -0.01,-0.1769 m -0,0 0,-0.0921 m 7e-4,0 0,-0.17714 m 0,0 0.01,-0.17685 m 0,0 0.018,-0.17623 m 0,0 0.026,-0.17521 m 0,0 0.034,-0.17381 m 10e-4,0 0.042,-0.17201 m 0,0 0.051,-0.16979 m -8e-4,0 0.059,-0.16716 m -6e-4,0 0.067,-0.1641 m -5e-4,0 0.075,-0.16061 m -6e-4,0 0.083,-0.1567 m -10e-5,0 0.09,-0.15238 m 2e-4,0 0.098,-0.14764 m -10e-5,0 0.1052,-0.14251 m 0,0 0.1123,-0.13701 m 0,0 0.1191,-0.13116 m 0,0 0.1255,-0.12498 m 0,0 0.1317,-0.1185 m 0,0 0.1375,-0.11176 m 0,0 0.1428,-0.1048 m 0,-3e-5 0.1478,-0.0976 m 0,-4e-5 0.1524,-0.0903 m 0,2e-5 0.1566,-0.0829 m 0,7e-5 0.1603,-0.0754 m 0,4e-5 0.1637,-0.0678 m 0,-4e-5 0.1665,-0.0602 m 0,-5e-5 0.1692,-0.0527 m 0,-1e-4 0.1712,-0.0452 m 0,0 0.1731,-0.0379 m 0,0 0.1745,-0.0306 m 0,0 0.1756,-0.0235 m 0,0 0.1764,-0.0165 m 0,2e-4 0.1768,-0.01 m 0,3e-4 0.1355,-0.003 m 0,0 0.1772,0.002 m 0,3e-4 0.1769,0.008 m 0,5e-4 0.1765,0.0154 m 0,0 0.1757,0.0224 m 0,0 0.1747,0.0296 m 0,0 0.1733,0.0369 m 0,0 0.1715,0.0444 m 0,0 0.1693,0.0519 m 0,5e-5 0.1669,0.0595 m 0,-1e-5 0.1639,0.0672 m 0,-6e-5 0.1606,0.0748 m 0,-6e-5 0.1568,0.0824 m 0,-8e-5 0.1527,0.0899 m 0,-1e-5 0.1481,0.0972 m 0,3e-5 0.1431,0.10443 m 0,0 0.1377,0.11145 m 0,0 0.1319,0.11822 m 0,0 0.1258,0.12473 m 0,0 0.1193,0.13092 m 0,0 0.1126,0.1368 m 0,0 0.1055,0.14232 m 1e-4,0 0.098,0.14745 m -2e-4,0 0.091,0.15219 m -4e-4,0 0.083,0.15653 m 0,0 0.075,0.16044 m 2e-4,0 0.067,0.16394 m 2e-4,0 0.059,0.16701 m 10e-5,0 0.051,0.16965 m 0,0 0.043,0.17188 m 0,0 0.035,0.1737 m 0,0 0.027,0.17512 m 0,0 0.019,0.17614 m 0,0 0.011,0.17682 m 0,0 0,0.12997 m 8e-4,0 0,0.17714 m -0,0 -0.01,0.17686 m -10e-4,0 -0.018,0.17619 m 0,0 -0.027,0.17506 m 0,0 -0.036,0.17343 m -10e-4,0 -0.045,0.17121 m -4e-4,0 -0.055,0.16841 m -5e-4,0 -0.064,0.16498 m -5e-4,0 -0.074,0.16096 m -2e-4,0 -0.083,0.15638 m -3e-4,0 -0.092,0.15132 m -10e-5,0 -0.1005,0.14585 m 0,0 -0.1084,0.14009 m 0,0 -0.1157,0.13416 m 0,0 -0.1223,0.12813 m 0,0 -0.1283,0.12212 m 0,0 -0.1338,0.11621 m 0,0 -0.1384,0.11046 m 0,-3e-5 -0.078,0.0584 m -5.842,22.66124 -0.01,-0.92477 m 0,-4e-5 7.2564,-0.0585 m -0,-4e-5 0.01,0.90351 m -0,0 -5.8498,0.0472 m -2e-4,0 5.884,4.18692 m -0,0 0.01,0.87162 m -0,5e-5 -7.2565,0.0585 m 0,5e-5 -0.01,-0.90352 m 0,2e-5 5.7364,-0.0463 m -2e-4,2e-5 -5.7702,-4.13469 m -0.018,-2.51566 -0.01,-0.90351 m 0,-5e-5 7.2565,-0.0585 m -0,-5e-5 0.01,0.90352 m -0,4e-5 -7.2565,0.0585 m -0.067,-8.35481 -0.01,-1.13382 m 9e-4,0 3.7299,-3.24043 m -10e-5,0 -3.7558,0.0303 m 0,0 -0.01,-0.90351 m 0,-5e-5 7.2564,-0.0585 m -0,-5e-5 0.01,0.90351 m -0,4e-5 -2.4341,0.0196 m 0,4e-5 -0.8233,0.73659 m 0,0 3.2855,2.72673 m -9e-4,0 0.01,1.12319 m -9e-4,0 -3.8319,-3.25738 m 0,0 -3.4267,3.05373 m -0.086,-10.68985 7.2564,-0.0585 m -4e-4,-4e-5 0.035,4.28017 m -4e-4,4.9e-4 -0.8043,0.006 m -3e-4,4.9e-4 -0.027,-3.37666 m -3e-4,-4e-5 -6.4521,0.0521 m 0,-4e-5 -0.01,-0.90352 m 8.4514,17.27318 -0.5988,0.005 m -1e-4,-1.7e-4 -0.05,-6.20413 m -10e-5,1.7e-4 0.5988,-0.005 m 10e-5,1.7e-4 0.05,6.20413" />
  </g>
</svg>
