999
dxfrw 0.6.3
  0
SECTION
  2
HEADER
  9
$ACADVER
  1
AC1021
  9
$DWGCODEPAGE
  3
ANSI_1252
  9
$INSBASE
 10
0
 20
0
 30
0
  9
$EXTMIN
 10
0.13222
 20
0.132723
 30
0
  9
$EXTMAX
 10
36.132663
 20
50.132885
 30
0
  9
$LIMMIN
 10
0
 20
0
  9
$LIMMAX
 10
420
 20
297
  9
$ORTHOMODE
 70
    0
  9
$REGENMODE
 70
    1
  9
$FILLMODE
 70
    1
  9
$QTEXTMODE
 70
    0
  9
$MIRRTEXT
 70
    0
  9
$LTSCALE
 40
1
  9
$ATTMODE
 70
    0
  9
$TEXTSIZE
 40
2.5
  9
$TRACEWID
 40
15.68
  9
$TEXTSTYLE
  7
STANDARD
  9
$CLAYER
  8
0
  9
$CELTYPE
  6
BYLAYER
  9
$CECOLOR
 62
  256
  9
$CELTSCALE
 40
1
  9
$DISPSILH
 70
    0
  9
$DIMSCALE
 40
2.5
  9
$DIMASZ
 40
2.5
  9
$DIMEXO
 40
0.625
  9
$DIMDLI
 40
3.75
  9
$DIMRND
 40
0
  9
$DIMDLE
 40
0
  9
$DIMEXE
 40
1.25
  9
$DIMTP
 40
0
  9
$DIMTM
 40
0
  9
$DIMTXT
 40
2.5
  9
$DIMCEN
 40
2.5
  9
$DIMTSZ
 40
0
  9
$DIMTOL
 70
    0
  9
$DIMLIM
 70
    0
  9
$DIMTIH
 70
    0
  9
$DIMTOH
 70
    0
  9
$DIMSE1
 70
    0
  9
$DIMSE2
 70
    0
  9
$DIMTAD
 70
    1
  9
$DIMZIN
 70
    8
  9
$DIMBLK
  1

  9
$DIMASO
 70
    1
  9
$DIMSHO
 70
    1
  9
$DIMPOST
  1

  9
$DIMAPOST
  1

  9
$DIMALT
 70
    0
  9
$DIMALTD
 70
    3
  9
$DIMALTF
 40
0.03937
  9
$DIMLFAC
 40
1
  9
$DIMTOFL
 70
    1
  9
$DIMTVP
 40
0
  9
$DIMTIX
 70
    0
  9
$DIMSOXD
 70
    0
  9
$DIMSAH
 70
    0
  9
$DIMBLK1
  1

  9
$DIMBLK2
  1

  9
$DIMSTYLE
  2
Standard
  9
$DIMCLRD
 70
    0
  9
$DIMCLRE
 70
    0
  9
$DIMCLRT
 70
    0
  9
$DIMTFAC
 40
1
  9
$DIMGAP
 40
0.625
  9
$DIMJUST
 70
    0
  9
$DIMSD1
 70
    0
  9
$DIMSD2
 70
    0
  9
$DIMTOLJ
 70
    0
  9
$DIMTZIN
 70
    8
  9
$DIMALTZ
 70
    0
  9
$DIMALTTZ
 70
    0
  9
$DIMUPT
 70
    0
  9
$DIMDEC
 70
    2
  9
$DIMTDEC
 70
    2
  9
$DIMALTU
 70
    2
  9
$DIMALTTD
 70
    3
  9
$DIMTXSTY
  7
STANDARD
  9
$DIMAUNIT
 70
    0
  9
$DIMADEC
 70
    0
  9
$DIMALTRND
 40
0
  9
$DIMAZIN
 70
    0
  9
$DIMDSEP
 70
   44
  9
$DIMATFIT
 70
    3
  9
$DIMFRAC
 70
    0
  9
$DIMLDRBLK
  1
STANDARD
  9
$DIMLUNIT
 70
    2
  9
$DIMLWD
 70
   -2
  9
$DIMLWE
 70
   -2
  9
$DIMTMOVE
 70
    0
  9
$DIMFXL
 40
1
  9
$DIMFXLON
 70
    0
  9
$DIMJOGANG
 40
0.7854
  9
$DIMTFILL
 70
    0
  9
$DIMTFILLCLR
 70
    0
  9
$DIMARCSYM
 70
    0
  9
$DIMLTYPE
  6

  9
$DIMLTEX1
  6

  9
$DIMLTEX2
  6

  9
$LUNITS
 70
    2
  9
$LUPREC
 70
    4
  9
$SKETCHINC
 40
1
  9
$FILLETRAD
 40
0
  9
$AUNITS
 70
    0
  9
$AUPREC
 70
    2
  9
$MENU
  1
.
  9
$ELEVATION
 40
0
  9
$PELEVATION
 40
0
  9
$THICKNESS
 40
0
  9
$LIMCHECK
 70
    0
  9
$CHAMFERA
 40
0
  9
$CHAMFERB
 40
0
  9
$CHAMFERC
 40
0
  9
$CHAMFERD
 40
0
  9
$SKPOLY
 70
    0
  9
$USRTIMER
 70
    1
  9
$ANGBASE
 50
0
  9
$ANGDIR
 70
    0
  9
$PDMODE
 70
   34
  9
$PDSIZE
 40
0
  9
$PLINEWID
 40
0
  9
$SPLFRAME
 70
    0
  9
$SPLINETYPE
 70
    2
  9
$SPLINESEGS
 70
    8
  9
$HANDSEED
  5
20000
  9
$SURFTAB1
 70
    6
  9
$SURFTAB2
 70
    6
  9
$SURFTYPE
 70
    6
  9
$SURFU
 70
    6
  9
$SURFV
 70
    6
  9
$UCSBASE
  2

  9
$UCSNAME
  2

  9
$UCSORG
 10
0
 20
0
 30
0
  9
$UCSXDIR
 10
1
 20
0
 30
0
  9
$UCSYDIR
 10
0
 20
1
 30
0
  9
$UCSORTHOREF
  2

  9
$UCSORTHOVIEW
 70
    0
  9
$UCSORGTOP
 10
0
 20
0
 30
0
  9
$UCSORGBOTTOM
 10
0
 20
0
 30
0
  9
$UCSORGLEFT
 10
0
 20
0
 30
0
  9
$UCSORGRIGHT
 10
0
 20
0
 30
0
  9
$UCSORGFRONT
 10
0
 20
0
 30
0
  9
$UCSORGBACK
 10
0
 20
0
 30
0
  9
$PUCSBASE
  2

  9
$PUCSNAME
  2

  9
$PUCSORG
 10
0
 20
0
 30
0
  9
$PUCSXDIR
 10
1
 20
0
 30
0
  9
$PUCSYDIR
 10
0
 20
1
 30
0
  9
$PUCSORTHOREF
  2

  9
$PUCSORTHOVIEW
 70
    0
  9
$PUCSORGTOP
 10
0
 20
0
 30
0
  9
$PUCSORGBOTTOM
 10
0
 20
0
 30
0
  9
$PUCSORGLEFT
 10
0
 20
0
 30
0
  9
$PUCSORGRIGHT
 10
0
 20
0
 30
0
  9
$PUCSORGFRONT
 10
0
 20
0
 30
0
  9
$PUCSORGBACK
 10
0
 20
0
 30
0
  9
$USERI1
 70
    0
  9
$USERI2
 70
    0
  9
$USERI3
 70
    0
  9
$USERI4
 70
    0
  9
$USERI5
 70
    0
  9
$USERR1
 40
0
  9
$USERR2
 40
0
  9
$USERR3
 40
0
  9
$USERR4
 40
0
  9
$USERR5
 40
0
  9
$WORLDVIEW
 70
    1
  9
$SHADEDGE
 70
    3
  9
$SHADEDIF
 70
   70
  9
$TILEMODE
 70
    1
  9
$MAXACTVP
 70
   64
  9
$PINSBASE
 10
0
 20
0
 30
0
  9
$PLIMCHECK
 70
    0
  9
$PEXTMIN
 10
0
 20
0
 30
0
  9
$PEXTMAX
 10
0
 20
0
 30
0
  9
$GRIDMODE
 70
    0
  9
$SNAPSTYLE
 70
    0
  9
$PLIMMIN
 10
0
 20
0
  9
$PLIMMAX
 10
210
 20
297
  9
$UNITMODE
 70
    0
  9
$VISRETAIN
 70
    1
  9
$PLINEGEN
 70
    0
  9
$PSLTSCALE
 70
    1
  9
$TREEDEPTH
 70
 3020
  9
$CMLSTYLE
  2
Standard
  9
$CMLJUST
 70
    0
  9
$CMLSCALE
 40
20
  9
$PROXYGRAPHICS
 70
    1
  9
$MEASUREMENT
 70
    1
  9
$CELWEIGHT
370
   -1
  9
$ENDCAPS
280
    0
  9
$JOINSTYLE
280
    0
  9
$LWDISPLAY
290
    0
  9
$INSUNITS
 70
    4
  9
$HYPERLINKBASE
  1

  9
$STYLESHEET
  1

  9
$XEDIT
290
    1
  9
$CEPSNTYPE
380
    0
  9
$PSTYLEMODE
290
    1
  9
$EXTNAMES
290
    1
  9
$PSVPSCALE
 40
1
  9
$OLESTARTUP
290
    0
  9
$SORTENTS
280
  127
  9
$INDEXCTL
280
    0
  9
$HIDETEXT
280
    1
  9
$XCLIPFRAME
290
    0
  9
$HALOGAP
280
    0
  9
$OBSCOLOR
 70
  257
  9
$OBSLTYPE
280
    0
  9
$INTERSECTIONDISPLAY
280
    0
  9
$INTERSECTIONCOLOR
 70
  257
  9
$DIMASSOC
280
    1
  9
$PROJECTNAME
  1

  9
$CAMERADISPLAY
290
    0
  9
$LENSLENGTH
 40
50
  9
$CAMERAHEIGHT
 40
0
  9
$STEPSPERSEC
 40
2
  9
$STEPSIZE
 40
50
  9
$3DDWFPREC
 40
2
  9
$PSOLWIDTH
 40
5
  9
$PSOLHEIGHT
 40
80
  9
$LOFTANG1
 40
1.570796326794897
  9
$LOFTANG2
 40
1.570796326794897
  9
$LOFTMAG1
 40
0
  9
$LOFTMAG2
 40
0
  9
$LOFTPARAM
 70
    7
  9
$LOFTNORMALS
280
    1
  9
$LATITUDE
 40
1
  9
$LONGITUDE
 40
1
  9
$NORTHDIRECTION
 40
0
  9
$TIMEZONE
 70
-8000
  9
$LIGHTGLYPHDISPLAY
280
    1
  9
$TILEMODELIGHTSYNCH
280
    1
  9
$SOLIDHIST
280
    1
  9
$SHOWHIST
280
    1
  9
$DWFFRAME
280
    2
  9
$DGNFRAME
280
    0
  9
$REALWORLDSCALE
290
    1
  9
$INTERFERECOLOR
 62
    1
  9
$CSHADOW
280
    0
  9
$SHADOWPLANELOCATION
 40
0
  0
ENDSEC
  0
SECTION
  2
CLASSES
  0
ENDSEC
  0
SECTION
  2
TABLES
  0
TABLE
  2
VPORT
  5
8
330
0
100
AcDbSymbolTable
 70
    1
  0
VPORT
  5
31
330
2
100
AcDbSymbolTableRecord
100
AcDbViewportTableRecord
  2
*ACTIVE
 70
    0
 10
0
 20
0
 11
1
 21
1
 12
182.4772727272727
 22
141.2613636363636
 13
0
 23
0
 14
10
 24
10
 15
10
 25
10
 16
0
 26
0
 36
1
 17
0
 27
0
 37
0
 40
341
 41
1.608471074380165
 42
50
 43
0
 44
0
 50
0
 51
0
 71
    0
 72
  100
 73
    1
 74
    3
 75
    0
 76
    0
 77
    0
 78
    0
281
    0
 65
    1
110
0
120
0
130
0
111
1
121
0
131
0
112
0
122
1
132
0
 79
    0
146
0
348
10020
 60
    7
 61
    5
292
1
282
    1
141
0
142
0
 63
  250
421
3358443
  0
ENDTAB
  0
TABLE
  2
LTYPE
  5
5
330
0
100
AcDbSymbolTable
 70
    4
  0
LTYPE
  5
14
330
5
100
AcDbSymbolTableRecord
100
AcDbLinetypeTableRecord
  2
ByBlock
 70
    0
  3

 72
   65
 73
    0
 40
0
  0
LTYPE
  5
15
330
5
100
AcDbSymbolTableRecord
100
AcDbLinetypeTableRecord
  2
ByLayer
 70
    0
  3

 72
   65
 73
    0
 40
0
  0
LTYPE
  5
16
330
5
100
AcDbSymbolTableRecord
100
AcDbLinetypeTableRecord
  2
Continuous
 70
    0
  3
Solid line
 72
   65
 73
    0
 40
0
  0
LTYPE
  5
32
330
5
100
AcDbSymbolTableRecord
100
AcDbLinetypeTableRecord
  2
DOT
 70
    0
  3
Dot . . . . . . . . . . . . . . . . . . . . . .
 72
   65
 73
    2
 40
6.35
 49
0
 74
    0
 49
-6.35
 74
    0
  0
LTYPE
  5
33
330
5
100
AcDbSymbolTableRecord
100
AcDbLinetypeTableRecord
  2
DOTTINY
 70
    0
  3
Dot (.15x) .....................................
 72
   65
 73
    2
 40
0.9525
 49
0
 74
    0
 49
-0.9525
 74
    0
  0
LTYPE
  5
34
330
5
100
AcDbSymbolTableRecord
100
AcDbLinetypeTableRecord
  2
DOT2
 70
    0
  3
Dot (.5x) .....................................
 72
   65
 73
    2
 40
3.175
 49
0
 74
    0
 49
-3.175
 74
    0
  0
LTYPE
  5
35
330
5
100
AcDbSymbolTableRecord
100
AcDbLinetypeTableRecord
  2
DOTX2
 70
    0
  3
Dot (2x) .  .  .  .  .  .  .  .  .  .  .  .  .
 72
   65
 73
    2
 40
12.7
 49
0
 74
    0
 49
-12.7
 74
    0
  0
LTYPE
  5
36
330
5
100
AcDbSymbolTableRecord
100
AcDbLinetypeTableRecord
  2
DASHED
 70
    0
  3
Dashed _ _ _ _ _ _ _ _ _ _ _ _ _ _ _ _ _
 72
   65
 73
    2
 40
19.05
 49
12.7
 74
    0
 49
-6.35
 74
    0
  0
LTYPE
  5
37
330
5
100
AcDbSymbolTableRecord
100
AcDbLinetypeTableRecord
  2
DASHEDTINY
 70
    0
  3
Dashed (.15x) _ _ _ _ _ _ _ _ _ _ _ _ _ _ _ _ _
 72
   65
 73
    2
 40
2.8575
 49
1.905
 74
    0
 49
-0.9525
 74
    0
  0
LTYPE
  5
38
330
5
100
AcDbSymbolTableRecord
100
AcDbLinetypeTableRecord
  2
DASHED2
 70
    0
  3
Dashed (.5x) _ _ _ _ _ _ _ _ _ _ _ _ _ _ _ _ _
 72
   65
 73
    2
 40
9.524999999999999
 49
6.35
 74
    0
 49
-3.175
 74
    0
  0
LTYPE
  5
39
330
5
100
AcDbSymbolTableRecord
100
AcDbLinetypeTableRecord
  2
DASHEDX2
 70
    0
  3
Dashed (2x) ____  ____  ____  ____  ____  ___
 72
   65
 73
    2
 40
38.09999999999999
 49
25.4
 74
    0
 49
-12.7
 74
    0
  0
LTYPE
  5
3A
330
5
100
AcDbSymbolTableRecord
100
AcDbLinetypeTableRecord
  2
DASHDOT
 70
    0
  3
Dash dot __ . __ . __ . __ . __ . __ . __ . __
 72
   65
 73
    4
 40
25.4
 49
12.7
 74
    0
 49
-6.35
 74
    0
 49
0
 74
    0
 49
-6.35
 74
    0
  0
LTYPE
  5
3B
330
5
100
AcDbSymbolTableRecord
100
AcDbLinetypeTableRecord
  2
DASHDOTTINY
 70
    0
  3
Dash dot (.15x) _._._._._._._._._._._._._._._.
 72
   65
 73
    4
 40
3.81
 49
1.905
 74
    0
 49
-0.9525
 74
    0
 49
0
 74
    0
 49
-0.9525
 74
    0
  0
LTYPE
  5
3C
330
5
100
AcDbSymbolTableRecord
100
AcDbLinetypeTableRecord
  2
DASHDOT2
 70
    0
  3
Dash dot (.5x) _._._._._._._._._._._._._._._.
 72
   65
 73
    4
 40
12.7
 49
6.35
 74
    0
 49
-3.175
 74
    0
 49
0
 74
    0
 49
-3.175
 74
    0
  0
LTYPE
  5
3D
330
5
100
AcDbSymbolTableRecord
100
AcDbLinetypeTableRecord
  2
DASHDOTX2
 70
    0
  3
Dash dot (2x) ____  .  ____  .  ____  .  ___
 72
   65
 73
    4
 40
50.8
 49
25.4
 74
    0
 49
-12.7
 74
    0
 49
0
 74
    0
 49
-12.7
 74
    0
  0
LTYPE
  5
3E
330
5
100
AcDbSymbolTableRecord
100
AcDbLinetypeTableRecord
  2
DIVIDE
 70
    0
  3
Divide ____ . . ____ . . ____ . . ____ . . ____
 72
   65
 73
    6
 40
31.75
 49
12.7
 74
    0
 49
-6.35
 74
    0
 49
0
 74
    0
 49
-6.35
 74
    0
 49
0
 74
    0
 49
-6.35
 74
    0
  0
LTYPE
  5
3F
330
5
100
AcDbSymbolTableRecord
100
AcDbLinetypeTableRecord
  2
DIVIDETINY
 70
    0
  3
Divide (.15x) __..__..__..__..__..__..__..__.._
 72
   65
 73
    6
 40
4.7625
 49
1.905
 74
    0
 49
-0.9525
 74
    0
 49
0
 74
    0
 49
-0.9525
 74
    0
 49
0
 74
    0
 49
-0.9525
 74
    0
  0
LTYPE
  5
40
330
5
100
AcDbSymbolTableRecord
100
AcDbLinetypeTableRecord
  2
DIVIDE2
 70
    0
  3
Divide (.5x) __..__..__..__..__..__..__..__.._
 72
   65
 73
    6
 40
15.875
 49
6.35
 74
    0
 49
-3.175
 74
    0
 49
0
 74
    0
 49
-3.175
 74
    0
 49
0
 74
    0
 49
-3.175
 74
    0
  0
LTYPE
  5
41
330
5
100
AcDbSymbolTableRecord
100
AcDbLinetypeTableRecord
  2
DIVIDEX2
 70
    0
  3
Divide (2x) ________  .  .  ________  .  .  _
 72
   65
 73
    6
 40
63.5
 49
25.4
 74
    0
 49
-12.7
 74
    0
 49
0
 74
    0
 49
-12.7
 74
    0
 49
0
 74
    0
 49
-12.7
 74
    0
  0
LTYPE
  5
42
330
5
100
AcDbSymbolTableRecord
100
AcDbLinetypeTableRecord
  2
BORDER
 70
    0
  3
Border __ __ . __ __ . __ __ . __ __ . __ __ .
 72
   65
 73
    6
 40
44.45
 49
12.7
 74
    0
 49
-6.35
 74
    0
 49
12.7
 74
    0
 49
-6.35
 74
    0
 49
0
 74
    0
 49
-6.35
 74
    0
  0
LTYPE
  5
43
330
5
100
AcDbSymbolTableRecord
100
AcDbLinetypeTableRecord
  2
BORDERTINY
 70
    0
  3
Border (.15x) __.__.__.__.__.__.__.__.__.__.__.
 72
   65
 73
    6
 40
6.6675
 49
1.905
 74
    0
 49
-0.9525
 74
    0
 49
1.905
 74
    0
 49
-0.9525
 74
    0
 49
0
 74
    0
 49
-0.9525
 74
    0
  0
LTYPE
  5
44
330
5
100
AcDbSymbolTableRecord
100
AcDbLinetypeTableRecord
  2
BORDER2
 70
    0
  3
Border (.5x) __.__.__.__.__.__.__.__.__.__.__.
 72
   65
 73
    6
 40
22.225
 49
6.35
 74
    0
 49
-3.175
 74
    0
 49
6.35
 74
    0
 49
-3.175
 74
    0
 49
0
 74
    0
 49
-3.175
 74
    0
  0
LTYPE
  5
45
330
5
100
AcDbSymbolTableRecord
100
AcDbLinetypeTableRecord
  2
BORDERX2
 70
    0
  3
Border (2x) ____  ____  .  ____  ____  .  ___
 72
   65
 73
    6
 40
88.89999999999999
 49
25.4
 74
    0
 49
-12.7
 74
    0
 49
25.4
 74
    0
 49
-12.7
 74
    0
 49
0
 74
    0
 49
-12.7
 74
    0
  0
LTYPE
  5
46
330
5
100
AcDbSymbolTableRecord
100
AcDbLinetypeTableRecord
  2
CENTER
 70
    0
  3
Center ____ _ ____ _ ____ _ ____ _ ____ _ ____
 72
   65
 73
    4
 40
50.8
 49
31.75
 74
    0
 49
-6.35
 74
    0
 49
6.35
 74
    0
 49
-6.35
 74
    0
  0
LTYPE
  5
47
330
5
100
AcDbSymbolTableRecord
100
AcDbLinetypeTableRecord
  2
CENTERTINY
 70
    0
  3
Center (.15x) ___ _ ___ _ ___ _ ___ _ ___ _ ___
 72
   65
 73
    4
 40
7.62
 49
4.7625
 74
    0
 49
-0.9525
 74
    0
 49
0.9525
 74
    0
 49
-0.9525
 74
    0
  0
LTYPE
  5
48
330
5
100
AcDbSymbolTableRecord
100
AcDbLinetypeTableRecord
  2
CENTER2
 70
    0
  3
Center (.5x) ___ _ ___ _ ___ _ ___ _ ___ _ ___
 72
   65
 73
    4
 40
28.575
 49
19.05
 74
    0
 49
-3.175
 74
    0
 49
3.175
 74
    0
 49
-3.175
 74
    0
  0
LTYPE
  5
49
330
5
100
AcDbSymbolTableRecord
100
AcDbLinetypeTableRecord
  2
CENTERX2
 70
    0
  3
Center (2x) ________  __  ________  __  _____
 72
   65
 73
    4
 40
101.6
 49
63.5
 74
    0
 49
-12.7
 74
    0
 49
12.7
 74
    0
 49
-12.7
 74
    0
  0
ENDTAB
  0
TABLE
  2
LAYER
  5
2
330
0
100
AcDbSymbolTable
 70
    1
  0
LAYER
  5
10
330
2
100
AcDbSymbolTableRecord
100
AcDbLayerTableRecord
  2
0
 70
    0
 62
    7
  6
CONTINUOUS
370
   -3
390
F
  0
ENDTAB
  0
TABLE
  2
STYLE
  5
3
330
0
100
AcDbSymbolTable
 70
    3
  0
STYLE
  5
4A
330
2
100
AcDbSymbolTableRecord
100
AcDbTextStyleTableRecord
  2
Standard
 70
    0
 40
0
 41
1
 50
0
 71
    0
 42
1
  3
txt
  4

  0
ENDTAB
  0
TABLE
  2
VIEW
  5
6
330
0
100
AcDbSymbolTable
 70
    0
  0
ENDTAB
  0
TABLE
  2
UCS
  5
7
330
0
100
AcDbSymbolTable
 70
    0
  0
ENDTAB
  0
TABLE
  2
APPID
  5
9
330
0
100
AcDbSymbolTable
 70
    1
  0
APPID
  5
12
330
9
100
AcDbSymbolTableRecord
100
AcDbRegAppTableRecord
  2
ACAD
 70
    0
  0
APPID
  5
4B
330
9
100
AcDbSymbolTableRecord
100
AcDbRegAppTableRecord
  2
LibreCad
 70
    0
  0
ENDTAB
  0
TABLE
  2
DIMSTYLE
  5
A
330
0
100
AcDbSymbolTable
 70
    1
100
AcDbDimStyleTable
 71
    1
  0
DIMSTYLE
105
4C
330
A
100
AcDbSymbolTableRecord
100
AcDbDimStyleTableRecord
  2
Standard
 70
    0
 40
1
 41
2.5
 42
0.625
 43
0.38
 44
1.25
 45
0
 46
0
 47
0
 48
0
 49
1
140
2.5
141
0.09
142
2.5
143
25.4
144
1
145
0
146
1
147
0.625
148
0
 71
    0
 72
    0
 73
    0
 74
    1
 75
    0
 76
    0
 77
    0
 78
    1
 79
    0
170
    0
171
    2
172
    0
173
    0
174
    0
175
    0
176
    0
177
    0
178
    0
179
    0
271
    2
272
    4
273
    2
274
    2
275
    0
276
    0
277
    2
278
    0
279
    0
280
    0
281
    0
282
    0
283
    1
284
    0
285
    0
286
    0
288
    0
289
    3
340
standard
341

371
   -2
372
   -2
  0
ENDTAB
  0
TABLE
  2
BLOCK_RECORD
  5
1
330
0
100
AcDbSymbolTable
 70
    2
  0
BLOCK_RECORD
  5
1F
330
1
100
AcDbSymbolTableRecord
100
AcDbBlockTableRecord
  2
*Model_Space
 70
    0
280
    1
281
    0
  0
BLOCK_RECORD
  5
1E
330
1
100
AcDbSymbolTableRecord
100
AcDbBlockTableRecord
  2
*Paper_Space
 70
    0
280
    1
281
    0
  0
ENDTAB
  0
ENDSEC
  0
SECTION
  2
BLOCKS
  0
BLOCK
  5
20
330
1F
100
AcDbEntity
  8
0
100
AcDbBlockBegin
  2
*Model_Space
 70
    0
 10
0
 20
0
 30
0
  3
*Model_Space
  1

  0
ENDBLK
  5
21
330
1F
100
AcDbEntity
  8
0
100
AcDbBlockEnd
  0
BLOCK
  5
1C
330
1B
100
AcDbEntity
  8
0
100
AcDbBlockBegin
  2
*Paper_Space
 70
    0
 10
0
 20
0
 30
0
  3
*Paper_Space
  1

  0
ENDBLK
  5
1D
330
1F
100
AcDbEntity
  8
0
100
AcDbBlockEnd
  0
ENDSEC
  0
SECTION
  2
ENTITIES
  0
LWPOLYLINE
  5
4D
100
AcDbEntity
  8
0
  6
ByLayer
 62
    7
370
   -1
100
AcDbPolyline
 90
    3
 70
    0
 43
0
 10
3.132281
 20
45.13281
 10
3.133313
 20
35.133122
 10
1.133333
 20
35.133122
  0
LWPOLYLINE
  5
4E
100
AcDbEntity
  8
0
  6
ByLayer
 62
    7
370
   -1
100
AcDbPolyline
 90
    4
 70
    0
 43
0
 10
1.132853
 20
30.133018
 10
3.13276
 20
30.133018
 10
3.13276
 20
20.133036
 10
1.132768
 20
20.133036
  0
LWPOLYLINE
  5
4F
100
AcDbEntity
  8
0
  6
ByLayer
 62
    7
370
   -1
100
AcDbPolyline
 90
    4
 70
    0
 43
0
 10
1.132289
 20
15.132965
 10
3.132196
 20
15.132965
 10
3.132196
 20
5.132993
 10
1.132204
 20
5.132993
  0
LWPOLYLINE
  5
50
100
AcDbEntity
  8
0
  6
ByLayer
 62
    7
370
   -1
100
AcDbPolyline
 90
    4
 70
    0
 43
0
 10
1.132289
 20
0.132988
 10
3.132196
 20
0.132988
 10
33.132126
 20
0.132988
 10
35.131273
 20
0.132723
  0
LWPOLYLINE
  5
51
100
AcDbEntity
  8
0
  6
ByLayer
 62
    7
370
   -1
100
AcDbPolyline
 90
    4
 70
    0
 43
0
 10
35.131469
 20
5.132781
 10
33.131562
 20
5.132781
 10
33.131562
 20
15.132774
 10
35.131554
 20
15.132774
  0
LWPOLYLINE
  5
52
100
AcDbEntity
  8
0
  6
ByLayer
 62
    7
370
   -1
100
AcDbPolyline
 90
    4
 70
    0
 43
0
 10
35.131752
 20
20.132849
 10
33.131845
 20
20.132849
 10
33.131845
 20
30.132828
 10
35.131837
 20
30.132828
  0
LWPOLYLINE
  5
53
100
AcDbEntity
  8
0
  6
ByLayer
 62
    7
370
   -1
100
AcDbPolyline
 90
    4
 70
    0
 43
0
 10
35.132035
 20
35.132902
 10
33.132126
 20
35.132902
 10
33.132126
 20
45.132879
 10
35.132202
 20
45.13281
  0
LWPOLYLINE
  5
54
100
AcDbEntity
  8
0
  6
ByLayer
 62
    7
370
   -1
100
AcDbPolyline
 90
    2
 70
    0
 43
0
 10
35.1324
 20
50.132885
 10
1.132571
 20
50.132885
  0
LWPOLYLINE
  5
55
100
AcDbEntity
  8
0
  6
ByLayer
 62
    7
370
   -1
100
AcDbPolyline
 90
    2
 70
    0
 43
0
 10
1.132373
 20
45.13281
 10
3.132281
 20
45.13281
  0
LWPOLYLINE
  5
56
100
AcDbEntity
  8
0
  6
ByLayer
 62
    7
370
   -1
100
AcDbPolyline
 90
   66
 70
    0
 43
0
 10
1.132768
 20
20.133036
 10
1.082787
 20
20.131978
 10
1.032918
 20
20.128115
 10
0.983332
 20
20.121871
 10
0.9340850000000001
 20
20.113166
 10
0.885373
 20
20.102001
 10
0.8372540000000001
 20
20.088428
 10
0.789869
 20
20.072473
 10
0.743359
 20
20.054164
 10
0.697808
 20
20.033553
 10
0.65333
 20
20.010667
 10
0.610066
 20
19.985611
 10
0.568127
 20
19.958428
 10
0.527572
 20
19.929165
 10
0.488541
 20
19.897923
 10
0.451119
 20
19.864771
 10
0.415418
 20
19.829785
 10
0.381495
 20
19.793063
 10
0.349434
 20
19.754688
 10
0.319349
 20
19.714763
 10
0.291297
 20
19.673382
 10
0.26522
 20
19.630649
 10
0.241458
 20
19.586678
 10
0.219839
 20
19.541567
 10
0.20045
 20
19.495437
 10
0.183403
 20
19.448402
 10
0.168811
 20
19.400581
 10
0.156677
 20
19.352089
 10
0.146801
 20
19.303048
 10
0.139464
 20
19.253584
 10
0.134667
 20
19.203819
 10
0.132418
 20
19.153876
 10
0.132418
 20
19.13308
 10
0.132418
 20
16.133093
 10
0.132418
 20
16.083113
 10
0.137498
 20
16.033258
 10
0.143708
 20
15.983654
 10
0.152457
 20
15.934423
 10
0.163464
 20
15.885689
 10
0.177011
 20
15.837572
 10
0.193013
 20
15.790194
 10
0.211216
 20
15.743675
 10
0.23179
 20
15.698127
 10
0.25465
 20
15.653666
 10
0.279711
 20
15.610407
 10
0.306861
 20
15.568452
 10
0.336212
 20
15.527907
 10
0.367454
 20
15.488873
 10
0.400615
 20
15.451453
 10
0.435583
 20
15.415735
 10
0.472328
 20
15.381813
 10
0.5106810000000001
 20
15.349766
 10
0.550615
 20
15.319675
 10
0.591989
 20
15.291624
 10
0.634718
 20
15.265669
 10
0.678716
 20
15.241883
 10
0.723815
 20
15.220346
 10
0.76993
 20
15.201084
 10
0.816977
 20
15.184151
 10
0.8648130000000001
 20
15.169599
 10
0.913299
 20
15.157428
 10
0.962321
 20
15.147691
 10
1.011794
 20
15.140442
 10
1.061549
 20
15.135653
 10
1.111503
 20
15.133272
 10
1.132302
 20
15.133007
  0
LWPOLYLINE
  5
57
100
AcDbEntity
  8
0
  6
ByLayer
 62
    7
370
   -1
100
AcDbPolyline
 90
   66
 70
    0
 43
0
 10
1.132204
 20
5.132993
 10
1.082222
 20
5.132993
 10
1.032354
 20
5.129024
 10
0.982768
 20
5.122674
 10
0.93352
 20
5.113943
 10
0.884809
 20
5.102831
 10
0.83669
 20
5.089337
 10
0.789305
 20
5.073462
 10
0.742795
 20
5.055206
 10
0.697244
 20
5.034568
 10
0.652766
 20
5.011814
 10
0.609501
 20
4.986679
 10
0.567563
 20
4.959506
 10
0.5270089999999999
 20
4.930243
 10
0.487977
 20
4.898996
 10
0.450555
 20
4.865844
 10
0.414853
 20
4.830866
 10
0.38093
 20
4.794142
 10
0.34887
 20
4.755778
 10
0.319349
 20
4.715905
 10
0.291297
 20
4.674524
 10
0.26522
 20
4.631794
 10
0.241458
 20
4.58782
 10
0.219839
 20
4.542709
 10
0.20045
 20
4.496592
 10
0.183403
 20
4.449549
 10
0.168811
 20
4.401713
 10
0.156677
 20
4.353215
 10
0.146801
 20
4.304188
 10
0.139464
 20
4.254711
 10
0.134667
 20
4.204969
 10
0.132418
 20
4.155016
 10
0.132418
 20
4.134114
 10
0.132418
 20
1.134116
 10
0.132418
 20
1.084136
 10
0.137498
 20
1.034289
 10
0.143708
 20
0.984679
 10
0.152457
 20
0.935467
 10
0.163464
 20
0.886731
 10
0.177011
 20
0.838603
 10
0.193013
 20
0.791243
 10
0.211216
 20
0.744703
 10
0.23179
 20
0.699168
 10
0.25465
 20
0.6546920000000001
 10
0.279711
 20
0.611433
 10
0.306861
 20
0.569496
 10
0.336212
 20
0.528936
 10
0.367454
 20
0.48991
 10
0.400615
 20
0.452498
 10
0.435583
 20
0.416779
 10
0.472328
 20
0.38286
 10
0.5106810000000001
 20
0.350792
 10
0.550615
 20
0.320709
 10
0.591989
 20
0.292663
 10
0.634718
 20
0.266734
 10
0.678716
 20
0.242922
 10
0.723815
 20
0.221491
 10
0.76993
 20
0.202176
 10
0.816977
 20
0.185243
 10
0.8648130000000001
 20
0.170691
 10
0.913299
 20
0.15852
 10
0.962321
 20
0.14873
 10
1.011794
 20
0.141587
 10
1.061549
 20
0.136824
 10
1.111503
 20
0.134178
 10
1.132302
 20
0.133914
  0
LWPOLYLINE
  5
58
100
AcDbEntity
  8
0
  6
ByLayer
 62
    7
370
   -1
100
AcDbPolyline
 90
   66
 70
    0
 43
0
 10
1.132571
 20
50.132885
 10
1.082589
 20
50.131826
 10
1.032722
 20
50.127963
 10
0.983134
 20
50.121719
 10
0.933887
 20
50.113015
 10
0.885176
 20
50.101849
 10
0.8370570000000001
 20
50.088276
 10
0.789672
 20
50.072322
 10
0.743162
 20
50.054013
 10
0.697611
 20
50.033402
 10
0.653133
 20
50.010515
 10
0.609868
 20
49.985459
 10
0.56793
 20
49.958276
 10
0.527375
 20
49.92901
 10
0.488344
 20
49.897768
 10
0.450921
 20
49.864616
 10
0.41522
 20
49.829636
 10
0.381297
 20
49.792909
 10
0.349237
 20
49.754539
 10
0.319152
 20
49.714611
 10
0.291099
 20
49.67323
 10
0.265022
 20
49.6305
 10
0.24126
 20
49.586524
 10
0.21964
 20
49.541415
 10
0.200252
 20
49.495288
 10
0.183205
 20
49.44825
 10
0.168616
 20
49.400427
 10
0.156479
 20
49.351937
 10
0.146602
 20
49.302896
 10
0.139266
 20
49.253433
 10
0.134469
 20
49.203665
 10
0.13222
 20
49.153722
 10
0.13222
 20
49.132926
 10
0.132511
 20
46.132938
 10
0.132511
 20
46.082961
 10
0.137591
 20
46.033106
 10
0.1438
 20
45.983499
 10
0.15255
 20
45.934269
 10
0.163557
 20
45.885535
 10
0.177103
 20
45.837418
 10
0.193105
 20
45.790042
 10
0.211309
 20
45.74352
 10
0.231883
 20
45.697972
 10
0.254743
 20
45.653514
 10
0.279804
 20
45.610253
 10
0.306954
 20
45.568298
 10
0.336305
 20
45.527753
 10
0.367547
 20
45.488722
 10
0.400708
 20
45.451299
 10
0.435675
 20
45.415586
 10
0.472421
 20
45.381658
 10
0.510775
 20
45.349612
 10
0.550708
 20
45.319526
 10
0.592082
 20
45.29147
 10
0.63481
 20
45.265514
 10
0.678809
 20
45.241755
 10
0.723908
 20
45.220218
 10
0.770023
 20
45.200956
 10
0.817069
 20
45.184023
 10
0.864906
 20
45.169471
 10
0.913392
 20
45.1573
 10
0.962413
 20
45.147563
 10
1.011886
 20
45.140314
 10
1.061642
 20
45.135525
 10
1.111595
 20
45.133144
 10
1.132394
 20
45.132879
  0
LWPOLYLINE
  5
59
100
AcDbEntity
  8
0
  6
ByLayer
 62
    7
370
   -1
100
AcDbPolyline
 90
   66
 70
    0
 43
0
 10
1.133333
 20
35.133122
 10
1.083351
 20
35.132064
 10
1.033484
 20
35.128201
 10
0.983896
 20
35.121957
 10
0.934649
 20
35.113252
 10
0.885938
 20
35.102086
 10
0.837819
 20
35.088513
 10
0.790434
 20
35.072559
 10
0.743924
 20
35.05425
 10
0.698373
 20
35.033639
 10
0.653895
 20
35.010752
 10
0.61063
 20
34.985696
 10
0.568692
 20
34.958508
 10
0.528137
 20
34.929245
 10
0.489106
 20
34.898003
 10
0.451683
 20
34.864851
 10
0.415982
 20
34.82987
 10
0.382059
 20
34.793146
 10
0.349999
 20
34.754774
 10
0.319914
 20
34.714848
 10
0.291861
 20
34.673465
 10
0.265784
 20
34.630735
 10
0.242022
 20
34.586759
 10
0.220402
 20
34.541652
 10
0.201014
 20
34.495522
 10
0.183967
 20
34.448488
 10
0.169378
 20
34.400664
 10
0.157241
 20
34.352172
 10
0.147364
 20
34.303131
 10
0.140028
 20
34.253667
 10
0.135231
 20
34.203902
 10
0.132982
 20
34.153962
 10
0.132982
 20
34.133166
 10
0.132982
 20
31.133176
 10
0.132982
 20
31.083196
 10
0.138062
 20
31.033343
 10
0.144271
 20
30.983739
 10
0.153021
 20
30.934508
 10
0.164028
 20
30.885772
 10
0.177574
 20
30.837655
 10
0.193576
 20
30.790279
 10
0.21178
 20
30.74376
 10
0.232354
 20
30.69821
 10
0.255214
 20
30.653752
 10
0.280275
 20
30.61049
 10
0.307424
 20
30.568535
 10
0.336776
 20
30.52799
 10
0.368018
 20
30.488959
 10
0.401179
 20
30.451542
 10
0.436146
 20
30.41582
 10
0.472891
 20
30.381898
 10
0.5112449999999999
 20
30.349849
 10
0.551179
 20
30.319761
 10
0.592553
 20
30.291707
 10
0.635281
 20
30.265752
 10
0.679279
 20
30.241992
 10
0.724379
 20
30.220429
 10
0.770494
 20
30.201167
 10
0.81754
 20
30.184234
 10
0.865377
 20
30.169655
 10
0.913863
 20
30.157484
 10
0.962885
 20
30.147748
 10
1.012357
 20
30.140498
 10
1.062113
 20
30.135709
 10
1.112066
 20
30.133328
 10
1.132865
 20
30.133063
  0
LWPOLYLINE
  5
5A
100
AcDbEntity
  8
0
  6
ByLayer
 62
    7
370
   -1
100
AcDbPolyline
 90
  409
 70
    1
 43
0
 10
12.082429
 20
43.382103
 10
12.03245
 20
43.381045
 10
11.982496
 20
43.379193
 10
11.932543
 20
43.376547
 10
11.882675
 20
43.373213
 10
11.832862
 20
43.369006
 10
11.783107
 20
43.364006
 10
11.733434
 20
43.358238
 10
11.683878
 20
43.351729
 10
11.634403
 20
43.344453
 10
11.585043
 20
43.33641
 10
11.535823
 20
43.327599
 10
11.486745
 20
43.318021
 10
11.437837
 20
43.307729
 10
11.389069
 20
43.296669
 10
11.340497
 20
43.284869
 10
11.292097
 20
43.272328
 10
11.243895
 20
43.259046
 10
11.195916
 20
43.244996
 10
11.148137
 20
43.230206
 10
11.10061
 20
43.214702
 10
11.053308
 20
43.198456
 10
11.006292
 20
43.18147
 10
10.959498
 20
43.16377
 10
10.913016
 20
43.145381
 10
10.866817
 20
43.126252
 10
10.820928
 20
43.106408
 10
10.775322
 20
43.085876
 10
10.730054
 20
43.06463
 10
10.685123
 20
43.042696
 10
10.640533
 20
43.020101
 10
10.596279
 20
42.996791
 10
10.552395
 20
42.97282
 10
10.508903
 20
42.948161
 10
10.465781
 20
42.92284
 10
10.423051
 20
42.896885
 10
10.380747
 20
42.870255
 10
10.338837
 20
42.842971
 10
10.29735
 20
42.815049
 10
10.256287
 20
42.786501
 10
10.215705
 20
42.757323
 10
10.175544
 20
42.727525
 10
10.135865
 20
42.697112
 10
10.096635
 20
42.666092
 10
10.057914
 20
42.634474
 10
10.019673
 20
42.602267
 10
9.981939000000001
 20
42.569472
 10
9.944687999999999
 20
42.536097
 10
9.907969
 20
42.502159
 10
9.871790000000001
 20
42.467658
 10
9.836143
 20
42.432603
 10
9.801035000000001
 20
42.397006
 10
9.766462000000001
 20
42.360869
 10
9.732485
 20
42.324209
 10
9.699040999999999
 20
42.287027
 10
9.666191
 20
42.24934
 10
9.633903999999999
 20
42.211147
 10
9.602238
 20
42.172465
 10
9.571166
 20
42.133296
 10
9.540686000000001
 20
42.093657
 10
9.510827000000001
 20
42.053556
 10
9.481589
 20
42.012996
 10
9.452972000000001
 20
41.971994
 10
9.425003999999999
 20
41.930555
 10
9.397627999999999
 20
41.888692
 10
9.370958
 20
41.846412
 10
9.345050000000001
 20
41.803729
 10
9.319595
 20
41.760647
 10
9.294900999999999
 20
41.717179
 10
9.270716
 20
41.673338
 10
9.24729
 20
41.629134
 10
9.224684
 20
41.584576
 10
9.202586
 20
41.539671
 10
9.181305
 20
41.494432
 10
9.160591
 20
41.448874
 10
9.140694999999999
 20
41.403003
 10
9.121644999999999
 20
41.356833
 10
9.103158000000001
 20
41.310373
 10
9.085547999999999
 20
41.263631
 10
9.068530000000001
 20
41.216626
 10
9.052104
 20
41.169361
 10
9.036581
 20
41.121852
 10
9.02168
 20
41.074111
 10
9.007681
 20
41.026145
 10
8.994417
 20
40.977967
 10
8.981717
 20
40.929588
 10
8.969863999999999
 20
40.881024
 10
8.958574
 20
40.832282
 10
8.948131
 20
40.783371
 10
8.938535
 20
40.734307
 10
8.929505000000001
 20
40.685103
 10
8.921321000000001
 20
40.635769
 10
8.913983999999999
 20
40.586313
 10
8.907211
 20
40.536751
 10
8.901284
 20
40.487094
 10
8.896203999999999
 20
40.437353
 10
8.891971
 20
40.387537
 10
8.888301
 20
40.337663
 10
8.885761
 20
40.287739
 10
8.883777
 20
40.237781
 10
8.883486
 20
40.187798
 10
8.880663
 20
40.1378
 10
8.880493
 20
40.087802
 10
8.880493
 20
40.037814
 10
8.883316000000001
 20
39.98785
 10
8.885009
 20
39.937918
 10
8.888113000000001
 20
39.888034
 10
8.892346
 20
39.838205
 10
8.897143
 20
39.788448
 10
8.902789
 20
39.738772
 10
8.909279
 20
39.689187
 10
8.916335999999999
 20
39.639712
 10
8.924519
 20
39.590352
 10
8.933268999999999
 20
39.541118
 10
8.942582
 20
39.492025
 10
8.952742000000001
 20
39.443085
 10
8.963749
 20
39.394307
 10
8.975602
 20
39.345705
 10
8.988019
 20
39.297287
 10
9.001283000000001
 20
39.249069
 10
9.015112
 20
39.201058
 10
9.029674999999999
 20
39.153269
 10
9.04514
 20
39.105713
 10
9.061227000000001
 20
39.058398
 10
9.078189
 20
39.011336
 10
9.095744
 20
38.964542
 10
9.114201
 20
38.918023
 10
9.133222
 20
38.871793
 10
9.153090000000001
 20
38.825861
 10
9.173550000000001
 20
38.780239
 10
9.194857000000001
 20
38.734935
 10
9.216701
 20
38.689963
 10
9.239362
 20
38.645331
 10
9.262561
 20
38.601053
 10
9.286550999999999
 20
38.557138
 10
9.311019
 20
38.513595
 10
9.336278999999999
 20
38.470434
 10
9.362047
 20
38.427669
 10
9.388547000000001
 20
38.385304
 10
9.415781000000001
 20
38.343355
 10
9.443721
 20
38.301831
 10
9.472113
 20
38.260739
 10
9.50121
 20
38.220086
 10
9.530957000000001
 20
38.17989
 10
9.561297
 20
38.140155
 10
9.592256000000001
 20
38.100894
 10
9.623806999999999
 20
38.062114
 10
9.655951
 20
38.023818
 10
9.688691
 20
37.986025
 10
9.722020000000001
 20
37.94874
 10
9.755887
 20
37.911974
 10
9.790346
 20
37.875731
 10
9.825343
 20
37.840026
 10
9.860873
 20
37.804857
 10
9.89697
 20
37.770245
 10
9.933573000000001
 20
37.736185
 10
9.970715
 20
37.702702
 10
10.008333
 20
37.669788
 10
10.046491
 20
37.637456
 10
10.085128
 20
37.605719
 10
10.124244
 20
37.574575
 10
10.16381
 20
37.544042
 10
10.203886
 20
37.514118
 10
10.244386
 20
37.484815
 10
10.285362
 20
37.456135
 10
10.326738
 20
37.428094
 10
10.368563
 20
37.400702
 10
10.410811
 20
37.373945
 10
10.453454
 20
37.34783
 10
10.496494
 20
37.322378
 10
10.539928
 20
37.297613
 10
10.583729
 20
37.273509
 10
10.627896
 20
37.250067
 10
10.672402
 20
37.227313
 10
10.717275
 20
37.205247
 10
10.762487
 20
37.183895
 10
10.808011
 20
37.163205
 10
10.853842
 20
37.143229
 10
10.899985
 20
37.123993
 10
10.946412
 20
37.10542
 10
10.993147
 20
37.087587
 10
11.040108
 20
37.070495
 10
11.087352
 20
37.054091
 10
11.13485
 20
37.038454
 10
11.182546
 20
37.023531
 10
11.230494
 20
37.00935
 10
11.278672
 20
36.995909
 10
11.327014
 20
36.983209
 10
11.375557
 20
36.97125
 10
11.424296
 20
36.960058
 10
11.473177
 20
36.94958
 10
11.522228
 20
36.93987
 10
11.571419
 20
36.930927
 10
11.620751
 20
36.922725
 10
11.670196
 20
36.915264
 10
11.719726
 20
36.908597
 10
11.769399
 20
36.902696
 10
11.819125
 20
36.897537
 10
11.868938
 20
36.893145
 10
11.918806
 20
36.88952
 10
11.968704
 20
36.886663
 10
12.018654
 20
36.884546
 10
12.068637
 20
36.883223
 10
12.118648
 20
36.882694
 10
12.168657
 20
36.882959
 10
12.218639
 20
36.883752
 10
12.26859
 20
36.88534
 10
12.318546
 20
36.887986
 10
12.368441
 20
36.891293
 10
12.418254
 20
36.895367
 10
12.468038
 20
36.900209
 10
12.517708
 20
36.905818
 10
12.567293
 20
36.912195
 10
12.616797
 20
36.919339
 10
12.666157
 20
36.92725
 10
12.715404
 20
36.935875
 10
12.76451
 20
36.945294
 10
12.813477
 20
36.955454
 10
12.862274
 20
36.966355
 10
12.910899
 20
36.97805
 10
12.959328
 20
36.990458
 10
13.007559
 20
37.003608
 10
13.055594
 20
37.017499
 10
13.103404
 20
37.03213
 10
13.150984
 20
37.047503
 10
13.198342
 20
37.063589
 10
13.245416
 20
37.080417
 10
13.292237
 20
37.097958
 10
13.338803
 20
37.116188
 10
13.38506
 20
37.135159
 10
13.431005
 20
37.154844
 10
13.476669
 20
37.175243
 10
13.521995
 20
37.19633
 10
13.567008
 20
37.218105
 10
13.611683
 20
37.240569
 10
13.655993
 20
37.26372
 10
13.699935
 20
37.287558
 10
13.743538
 20
37.312059
 10
13.786718
 20
37.337247
 10
13.82953
 20
37.36307
 10
13.871948
 20
37.389576
 10
13.913943
 20
37.416707
 10
13.955487
 20
37.444482
 10
13.996635
 20
37.472888
 10
14.037331
 20
37.501937
 10
14.077574
 20
37.531607
 10
14.11737
 20
37.561894
 10
14.156681
 20
37.592792
 10
14.195488
 20
37.624288
 10
14.233842
 20
37.656379
 10
14.271688
 20
37.689055
 10
14.309026
 20
37.722308
 10
14.345855
 20
37.756137
 10
14.382148
 20
37.790522
 10
14.417907
 20
37.825463
 10
14.453128
 20
37.860954
 10
14.487783
 20
37.896977
 10
14.521906
 20
37.933535
 10
14.555461
 20
37.970611
 10
14.588425
 20
38.008197
 10
14.620823
 20
38.046289
 10
14.652629
 20
38.084871
 10
14.683815
 20
38.123939
 10
14.714409
 20
38.163483
 10
14.744407
 20
38.203491
 10
14.77376
 20
38.243959
 10
14.802517
 20
38.284874
 10
14.830627
 20
38.326223
 10
14.857974
 20
38.368001
 10
14.884869
 20
38.410196
 10
14.911062
 20
38.452799
 10
14.936515
 20
38.495802
 10
14.961465
 20
38.539191
 10
14.985648
 20
38.582956
 10
15.009037
 20
38.627085
 10
15.031924
 20
38.671575
 10
15.054016
 20
38.716411
 10
15.07558
 20
38.761578
 10
15.096323
 20
38.807073
 10
15.116511
 20
38.852883
 10
15.135852
 20
38.898992
 10
15.154346
 20
38.945394
 10
15.172232
 20
38.992077
 10
15.189536
 20
39.039033
 10
15.205966
 20
39.086245
 10
15.221788
 20
39.133706
 10
15.236711
 20
39.1814
 10
15.251025
 20
39.229321
 10
15.264571
 20
39.277456
 10
15.277271
 20
39.325796
 10
15.289416
 20
39.374325
 10
15.300713
 20
39.423032
 10
15.311164
 20
39.471909
 10
15.321033
 20
39.520939
 10
15.330056
 20
39.570117
 10
15.338231
 20
39.619427
 10
15.345851
 20
39.668859
 10
15.352334
 20
39.718399
 10
15.35826
 20
39.768038
 10
15.363631
 20
39.817766
 10
15.368156
 20
39.867566
 10
15.371833
 20
39.917429
 10
15.374664
 20
39.967343
 10
15.377046
 20
40.017296
 10
15.377839
 20
40.067273
 10
15.38067
 20
40.117271
 10
15.38067
 20
40.167269
 10
15.380811
 20
40.21726
 10
15.37798
 20
40.267231
 10
15.376657
 20
40.317171
 10
15.373826
 20
40.367066
 10
15.369592
 20
40.416903
 10
15.364803
 20
40.466676
 10
15.359432
 20
40.51637
 10
15.353215
 20
40.565974
 10
15.34615
 20
40.615472
 10
15.338239
 20
40.664859
 10
15.329773
 20
40.714117
 10
15.320459
 20
40.763242
 10
15.310299
 20
40.812216
 10
15.299584
 20
40.861024
 10
15.28773
 20
40.909665
 10
15.275321
 20
40.95812
 10
15.26233
 20
41.00638
 10
15.248493
 20
41.054434
 10
15.233967
 20
41.102268
 10
15.218807
 20
41.149877
 10
15.202746
 20
41.19724
 10
15.186078
 20
41.244354
 10
15.168536
 20
41.291201
 10
15.150385
 20
41.337778
 10
15.131362
 20
41.384067
 10
15.111756
 20
41.430062
 10
15.091595
 20
41.47575
 10
15.070587
 20
41.521121
 10
15.049024
 20
41.566158
 10
15.02664
 20
41.610859
 10
15.003436
 20
41.655211
 10
14.97973
 20
41.699201
 10
14.955229
 20
41.742823
 10
14.930226
 20
41.786061
 10
14.904456
 20
41.828907
 10
14.877955
 20
41.871352
 10
14.851002
 20
41.913388
 10
14.823316
 20
41.954999
 10
14.794897
 20
41.996179
 10
14.765912
 20
42.036922
 10
14.736308
 20
42.07721
 10
14.706082
 20
42.11704
 10
14.675235
 20
42.1564
 10
14.643797
 20
42.19528
 10
14.611764
 20
42.233671
 10
14.579167
 20
42.27157
 10
14.545949
 20
42.308958
 10
14.512196
 20
42.345833
 10
14.47785
 20
42.382181
 10
14.442965
 20
42.418001
 10
14.407548
 20
42.453278
 10
14.371565
 20
42.488001
 10
14.335074
 20
42.522172
 10
14.298045
 20
42.555777
 10
14.260512
 20
42.588807
 10
14.222467
 20
42.621258
 10
14.183944
 20
42.653117
 10
14.144913
 20
42.684383
 10
14.105429
 20
42.71504
 10
14.065467
 20
42.745088
 10
14.025025
 20
42.774523
 10
13.98416
 20
42.803326
 10
13.942869
 20
42.831496
 10
13.901129
 20
42.859036
 10
13.858965
 20
42.885915
 10
13.816407
 20
42.912162
 10
13.773452
 20
42.937721
 10
13.730103
 20
42.962644
 10
13.686359
 20
42.98688
 10
13.642277
 20
43.010454
 10
13.597827
 20
43.033341
 10
13.553036
 20
43.055539
 10
13.507882
 20
43.07705
 10
13.462416
 20
43.097873
 10
13.416641
 20
43.118007
 10
13.37058
 20
43.137401
 10
13.324185
 20
43.156081
 10
13.277534
 20
43.174072
 10
13.230626
 20
43.191323
 10
13.18344
 20
43.207833
 10
13.135998
 20
43.223629
 10
13.088331
 20
43.23871
 10
13.040409
 20
43.25305
 10
12.992319
 20
43.26665
 10
12.944003
 20
43.279509
 10
12.895489
 20
43.291627
 10
12.846777
 20
43.303004
 10
12.797925
 20
43.313613
 10
12.748903
 20
43.323482
 10
12.699741
 20
43.332557
 10
12.650465
 20
43.340918
 10
12.601049
 20
43.348512
 10
12.55149
 20
43.355338
 10
12.501875
 20
43.361397
 10
12.452147
 20
43.366715
 10
12.402363
 20
43.371266
 10
12.352494
 20
43.375023
 10
12.302599
 20
43.378013
 10
12.252646
 20
43.380394
 10
12.202664
 20
43.381717
 10
12.152681
 20
43.382511
 10
12.132335
 20
43.382775
  0
LWPOLYLINE
  5
5B
100
AcDbEntity
  8
0
  6
ByLayer
 62
    7
370
   -1
100
AcDbPolyline
 90
  409
 70
    1
 43
0
 10
24.082183
 20
43.382103
 10
24.032201
 20
43.381045
 10
23.982221
 20
43.379193
 10
23.932295
 20
43.376547
 10
23.882426
 20
43.373213
 10
23.832616
 20
43.369006
 10
23.782858
 20
43.364006
 10
23.733188
 20
43.358238
 10
23.6836
 20
43.351729
 10
23.634158
 20
43.344453
 10
23.584794
 20
43.33641
 10
23.535577
 20
43.327599
 10
23.486497
 20
43.318021
 10
23.437588
 20
43.307729
 10
23.388821
 20
43.296669
 10
23.340222
 20
43.284869
 10
23.291851
 20
43.272328
 10
23.243647
 20
43.259046
 10
23.195641
 20
43.244996
 10
23.147889
 20
43.230206
 10
23.100362
 20
43.214702
 10
23.053062
 20
43.198456
 10
23.006014
 20
43.18147
 10
22.959252
 20
43.16377
 10
22.91277
 20
43.145381
 10
22.866569
 20
43.126252
 10
22.820682
 20
43.106408
 10
22.775073
 20
43.085876
 10
22.729806
 20
43.06463
 10
22.684874
 20
43.042696
 10
22.640284
 20
43.020101
 10
22.596033
 20
42.996791
 10
22.552146
 20
42.97282
 10
22.508657
 20
42.948161
 10
22.465533
 20
42.92284
 10
22.422805
 20
42.896885
 10
22.380472
 20
42.870255
 10
22.338562
 20
42.842971
 10
22.297102
 20
42.815049
 10
22.256041
 20
42.786501
 10
22.215428
 20
42.757323
 10
22.175296
 20
42.727525
 10
22.135616
 20
42.697112
 10
22.096387
 20
42.666092
 10
22.057668
 20
42.634474
 10
22.019425
 20
42.602267
 10
21.981664
 20
42.569472
 10
21.944439
 20
42.536097
 10
21.907721
 20
42.502159
 10
21.871542
 20
42.467658
 10
21.835897
 20
42.432603
 10
21.800787
 20
42.397006
 10
21.766216
 20
42.360869
 10
21.732207
 20
42.324209
 10
21.698793
 20
42.287027
 10
21.665942
 20
42.24934
 10
21.633655
 20
42.211147
 10
21.601993
 20
42.172465
 10
21.570917
 20
42.133296
 10
21.540437
 20
42.093657
 10
21.510579
 20
42.053556
 10
21.481343
 20
42.012996
 10
21.452723
 20
41.971994
 10
21.424727
 20
41.930555
 10
21.397351
 20
41.888692
 10
21.37071
 20
41.846412
 10
21.344781
 20
41.803729
 10
21.319328
 20
41.760647
 10
21.294669
 20
41.717179
 10
21.270751
 20
41.673338
 10
21.247335
 20
41.629134
 10
21.22474
 20
41.584576
 10
21.202647
 20
41.539671
 10
21.181375
 20
41.494432
 10
21.160658
 20
41.448874
 10
21.140761
 20
41.403003
 10
21.121711
 20
41.356833
 10
21.103217
 20
41.310373
 10
21.085331
 20
41.263631
 10
21.068319
 20
41.216626
 10
21.051888
 20
41.169361
 10
21.036357
 20
41.121852
 10
21.021461
 20
41.074111
 10
21.007465
 20
41.026145
 10
20.994209
 20
40.977967
 10
20.981509
 20
40.929588
 10
20.969656
 20
40.881024
 10
20.958358
 20
40.832282
 10
20.948198
 20
40.783371
 10
20.938594
 20
40.734307
 10
20.929836
 20
40.685103
 10
20.92166
 20
40.635769
 10
20.914331
 20
40.586313
 10
20.907849
 20
40.536751
 10
20.901922
 20
40.487094
 10
20.896843
 20
40.437353
 10
20.892609
 20
40.387537
 10
20.888931
 20
40.337663
 10
20.886286
 20
40.287739
 10
20.884434
 20
40.237781
 10
20.884169
 20
40.187798
 10
20.881338
 20
40.1378
 10
20.881169
 20
40.087802
 10
20.881169
 20
40.037814
 10
20.884
 20
39.98785
 10
20.885587
 20
39.937918
 10
20.888683
 20
39.888034
 10
20.892916
 20
39.838205
 10
20.897705
 20
39.788448
 10
20.903632
 20
39.738772
 10
20.910114
 20
39.689187
 10
20.917178
 20
39.639712
 10
20.925089
 20
39.590352
 10
20.933847
 20
39.541118
 10
20.943451
 20
39.492025
 10
20.953611
 20
39.443085
 10
20.964618
 20
39.394307
 10
20.97618
 20
39.345705
 10
20.98888
 20
39.297287
 10
21.002136
 20
39.249069
 10
21.015974
 20
39.201058
 10
21.030526
 20
39.153269
 10
21.046004
 20
39.105713
 10
21.06209
 20
39.058398
 10
21.07905
 20
39.011336
 10
21.096592
 20
38.964542
 10
21.11506
 20
38.918023
 10
21.134083
 20
38.871793
 10
21.153953
 20
38.825861
 10
21.174406
 20
38.780239
 10
21.195705
 20
38.734935
 10
21.217559
 20
38.689963
 10
21.240234
 20
38.645331
 10
21.263411
 20
38.601053
 10
21.287383
 20
38.557138
 10
21.311883
 20
38.513595
 10
21.337177
 20
38.470434
 10
21.362921
 20
38.427669
 10
21.389395
 20
38.385304
 10
21.416629
 20
38.343355
 10
21.444595
 20
38.301831
 10
21.473016
 20
38.260739
 10
21.502113
 20
38.220086
 10
21.53186
 20
38.17989
 10
21.562197
 20
38.140155
 10
21.593158
 20
38.100894
 10
21.62471
 20
38.062114
 10
21.656856
 20
38.023818
 10
21.689593
 20
37.986025
 10
21.722923
 20
37.94874
 10
21.756789
 20
37.911974
 10
21.791249
 20
37.875731
 10
21.826245
 20
37.840026
 10
21.861776
 20
37.804857
 10
21.897873
 20
37.770245
 10
21.934478
 20
37.736185
 10
21.971588
 20
37.702702
 10
22.009236
 20
37.669788
 10
22.047365
 20
37.637456
 10
22.086002
 20
37.605719
 10
22.125118
 20
37.574575
 10
22.164713
 20
37.544042
 10
22.204789
 20
37.514118
 10
22.245286
 20
37.484815
 10
22.286238
 20
37.456135
 10
22.32764
 20
37.428094
 10
22.369465
 20
37.400702
 10
22.411714
 20
37.373945
 10
22.454357
 20
37.34783
 10
22.497396
 20
37.322378
 10
22.540801
 20
37.297613
 10
22.584629
 20
37.273509
 10
22.628799
 20
37.250067
 10
22.673304
 20
37.227313
 10
22.718177
 20
37.205247
 10
22.763389
 20
37.183895
 10
22.808911
 20
37.163205
 10
22.854744
 20
37.143229
 10
22.900888
 20
37.123993
 10
22.947314
 20
37.10542
 10
22.994021
 20
37.087587
 10
23.041011
 20
37.070495
 10
23.088254
 20
37.054091
 10
23.135723
 20
37.038454
 10
23.183449
 20
37.023531
 10
23.231399
 20
37.00935
 10
23.279545
 20
36.995909
 10
23.327919
 20
36.983209
 10
23.376459
 20
36.97125
 10
23.425201
 20
36.960058
 10
23.47408
 20
36.94958
 10
23.523131
 20
36.93987
 10
23.572322
 20
36.930927
 10
23.621653
 20
36.922725
 10
23.671072
 20
36.915264
 10
23.720628
 20
36.908597
 10
23.770272
 20
36.902696
 10
23.820027
 20
36.897537
 10
23.869811
 20
36.893145
 10
23.919679
 20
36.88952
 10
23.969603
 20
36.886663
 10
24.019559
 20
36.884546
 10
24.069539
 20
36.883223
 10
24.119548
 20
36.882694
 10
24.169559
 20
36.882959
 10
24.219539
 20
36.883752
 10
24.269495
 20
36.88534
 10
24.319448
 20
36.887986
 10
24.369317
 20
36.891293
 10
24.419156
 20
36.895367
 10
24.46894
 20
36.900209
 10
24.51861
 20
36.905818
 10
24.568198
 20
36.912195
 10
24.617699
 20
36.919339
 10
24.667059
 20
36.92725
 10
24.716306
 20
36.935875
 10
24.765413
 20
36.945294
 10
24.814379
 20
36.955454
 10
24.863174
 20
36.966355
 10
24.911801
 20
36.97805
 10
24.96023
 20
36.990458
 10
25.008461
 20
37.003608
 10
25.056496
 20
37.017499
 10
25.104304
 20
37.03213
 10
25.151889
 20
37.047503
 10
25.199244
 20
37.063589
 10
25.246318
 20
37.080417
 10
25.293139
 20
37.097958
 10
25.339676
 20
37.116188
 10
25.385963
 20
37.135159
 10
25.431907
 20
37.154844
 10
25.477572
 20
37.175243
 10
25.522895
 20
37.19633
 10
25.567911
 20
37.218105
 10
25.612586
 20
37.240569
 10
25.656895
 20
37.26372
 10
25.700837
 20
37.287558
 10
25.74444
 20
37.312059
 10
25.78762
 20
37.337247
 10
25.830433
 20
37.36307
 10
25.87285
 20
37.389576
 10
25.914816
 20
37.416707
 10
25.956387
 20
37.444482
 10
25.997535
 20
37.472888
 10
26.038233
 20
37.501937
 10
26.078479
 20
37.531607
 10
26.118243
 20
37.561894
 10
26.157555
 20
37.592792
 10
26.19639
 20
37.624288
 10
26.234744
 20
37.656379
 10
26.27259
 20
37.689055
 10
26.309928
 20
37.722308
 10
26.346758
 20
37.756137
 10
26.383051
 20
37.790522
 10
26.418809
 20
37.825463
 10
26.45403
 20
37.860954
 10
26.488688
 20
37.896977
 10
26.522806
 20
37.933535
 10
26.556363
 20
37.970611
 10
26.589327
 20
38.008197
 10
26.621725
 20
38.046289
 10
26.653505
 20
38.084871
 10
26.684717
 20
38.123939
 10
26.715311
 20
38.163483
 10
26.745309
 20
38.203491
 10
26.774662
 20
38.243959
 10
26.80342
 20
38.284874
 10
26.831529
 20
38.326223
 10
26.858876
 20
38.368001
 10
26.885771
 20
38.410196
 10
26.911965
 20
38.452799
 10
26.937418
 20
38.495802
 10
26.962368
 20
38.539191
 10
26.986551
 20
38.582956
 10
27.00994
 20
38.627085
 10
27.032826
 20
38.671575
 10
27.054919
 20
38.716411
 10
27.076482
 20
38.761578
 10
27.097226
 20
38.807073
 10
27.117122
 20
38.852883
 10
27.136463
 20
38.898992
 10
27.154958
 20
38.945394
 10
27.172843
 20
38.992077
 10
27.190147
 20
39.039033
 10
27.206578
 20
39.086245
 10
27.2224
 20
39.133706
 10
27.237322
 20
39.1814
 10
27.25161
 20
39.229321
 10
27.265156
 20
39.277456
 10
27.277856
 20
39.325796
 10
27.290001
 20
39.374325
 10
27.301298
 20
39.423032
 10
27.311749
 20
39.471909
 10
27.321618
 20
39.520939
 10
27.330641
 20
39.570117
 10
27.338816
 20
39.619427
 10
27.346436
 20
39.668859
 10
27.353209
 20
39.718399
 10
27.359136
 20
39.768038
 10
27.364507
 20
39.817766
 10
27.36874
 20
39.867566
 10
27.372418
 20
39.917429
 10
27.375249
 20
39.967343
 10
27.37763
 20
40.017296
 10
27.378424
 20
40.067273
 10
27.381255
 20
40.117271
 10
27.381255
 20
40.167269
 10
27.381425
 20
40.21726
 10
27.378594
 20
40.267231
 10
27.377271
 20
40.317171
 10
27.37444
 20
40.367066
 10
27.370206
 20
40.416903
 10
27.365417
 20
40.466676
 10
27.360046
 20
40.51637
 10
27.353829
 20
40.565974
 10
27.346764
 20
40.615472
 10
27.338853
 20
40.664859
 10
27.330387
 20
40.714117
 10
27.321073
 20
40.763242
 10
27.310913
 20
40.812216
 10
27.300198
 20
40.861024
 10
27.288344
 20
40.909665
 10
27.275935
 20
40.95812
 10
27.262944
 20
41.00638
 10
27.249107
 20
41.054434
 10
27.234581
 20
41.102268
 10
27.219421
 20
41.149877
 10
27.20336
 20
41.19724
 10
27.186692
 20
41.244354
 10
27.16915
 20
41.291201
 10
27.150999
 20
41.337778
 10
27.131976
 20
41.384067
 10
27.11237
 20
41.430062
 10
27.091918
 20
41.47575
 10
27.07091
 20
41.521121
 10
27.049082
 20
41.566158
 10
27.026698
 20
41.610859
 10
27.003495
 20
41.655211
 10
26.979788
 20
41.699201
 10
26.955288
 20
41.742823
 10
26.930285
 20
41.786061
 10
26.904514
 20
41.828907
 10
26.878014
 20
41.871352
 10
26.851061
 20
41.913388
 10
26.823348
 20
41.954999
 10
26.794927
 20
41.996179
 10
26.765944
 20
42.036922
 10
26.736308
 20
42.07721
 10
26.706112
 20
42.11704
 10
26.675266
 20
42.1564
 10
26.643826
 20
42.19528
 10
26.611793
 20
42.233671
 10
26.579167
 20
42.27157
 10
26.545981
 20
42.308958
 10
26.512225
 20
42.345833
 10
26.47788
 20
42.382181
 10
26.442997
 20
42.418001
 10
26.407577
 20
42.453278
 10
26.371594
 20
42.488001
 10
26.335103
 20
42.522172
 10
26.298077
 20
42.555777
 10
26.260541
 20
42.588807
 10
26.222497
 20
42.621258
 10
26.183973
 20
42.653117
 10
26.144942
 20
42.684383
 10
26.105432
 20
42.71504
 10
26.065469
 20
42.745088
 10
26.025054
 20
42.774523
 10
25.98419
 20
42.803326
 10
25.942899
 20
42.831496
 10
25.901158
 20
42.859036
 10
25.858994
 20
42.885915
 10
25.816436
 20
42.912162
 10
25.773481
 20
42.937721
 10
25.730134
 20
42.962644
 10
25.686388
 20
42.98688
 10
25.642306
 20
43.010454
 10
25.597856
 20
43.033341
 10
25.553039
 20
43.055539
 10
25.507911
 20
43.07705
 10
25.462446
 20
43.097873
 10
25.41667
 20
43.118007
 10
25.370582
 20
43.137401
 10
25.324214
 20
43.156081
 10
25.277563
 20
43.174072
 10
25.230629
 20
43.191323
 10
25.18344
 20
43.207833
 10
25.13603
 20
43.223629
 10
25.088333
 20
43.23871
 10
25.040441
 20
43.25305
 10
24.992322
 20
43.26665
 10
24.944006
 20
43.279509
 10
24.895519
 20
43.291627
 10
24.846806
 20
43.303004
 10
24.797957
 20
43.313613
 10
24.748935
 20
43.323482
 10
24.69977
 20
43.332557
 10
24.650465
 20
43.340918
 10
24.601049
 20
43.348512
 10
24.551519
 20
43.355338
 10
24.501904
 20
43.361397
 10
24.452176
 20
43.366715
 10
24.402392
 20
43.371266
 10
24.352524
 20
43.375023
 10
24.302628
 20
43.378013
 10
24.252675
 20
43.380394
 10
24.202693
 20
43.381717
 10
24.152711
 20
43.382511
 10
24.132338
 20
43.382775
  0
LWPOLYLINE
  5
5C
100
AcDbEntity
  8
0
  6
ByLayer
 62
    7
370
   -1
100
AcDbPolyline
 90
  409
 70
    1
 43
0
 10
12.082429
 20
28.382168
 10
12.03245
 20
28.38111
 10
11.982496
 20
28.379258
 10
11.932543
 20
28.376612
 10
11.882675
 20
28.373279
 10
11.832862
 20
28.369072
 10
11.783107
 20
28.364071
 10
11.733434
 20
28.35833
 10
11.683878
 20
28.351821
 10
11.634403
 20
28.344545
 10
11.585043
 20
28.336502
 10
11.535823
 20
28.327691
 10
11.486745
 20
28.318139
 10
11.437837
 20
28.307847
 10
11.389069
 20
28.296788
 10
11.340497
 20
28.284987
 10
11.292097
 20
28.27242
 10
11.243895
 20
28.259138
 10
11.195916
 20
28.245088
 10
11.148137
 20
28.230298
 10
11.10061
 20
28.214793
 10
11.053308
 20
28.198548
 10
11.006292
 20
28.181562
 10
10.959498
 20
28.163861
 10
10.913016
 20
28.145473
 10
10.866817
 20
28.126343
 10
10.820928
 20
28.1065
 10
10.775322
 20
28.085968
 10
10.730054
 20
28.064722
 10
10.685123
 20
28.042788
 10
10.640533
 20
28.020193
 10
10.596279
 20
27.996883
 10
10.552395
 20
27.972912
 10
10.508903
 20
27.948253
 10
10.465781
 20
27.922932
 10
10.423051
 20
27.896977
 10
10.380747
 20
27.870346
 10
10.338837
 20
27.843063
 10
10.29735
 20
27.815139
 10
10.256287
 20
27.78659
 10
10.215705
 20
27.757415
 10
10.175544
 20
27.727615
 10
10.135865
 20
27.697203
 10
10.096635
 20
27.666184
 10
10.057914
 20
27.634569
 10
10.019673
 20
27.602356
 10
9.981939000000001
 20
27.569561
 10
9.944687999999999
 20
27.536189
 10
9.907969
 20
27.502248
 10
9.871790000000001
 20
27.467747
 10
9.836143
 20
27.432692
 10
9.801035000000001
 20
27.397095
 10
9.766462000000001
 20
27.360958
 10
9.732485
 20
27.324298
 10
9.699040999999999
 20
27.287119
 10
9.666191
 20
27.249429
 10
9.633903999999999
 20
27.211239
 10
9.602238
 20
27.172554
 10
9.571166
 20
27.133386
 10
9.540686000000001
 20
27.093748
 10
9.510827000000001
 20
27.053646
 10
9.481589
 20
27.013088
 10
9.452972000000001
 20
26.972083
 10
9.425003999999999
 20
26.930646
 10
9.397627999999999
 20
26.888781
 10
9.370958
 20
26.846504
 10
9.345050000000001
 20
26.803819
 10
9.319595
 20
26.760737
 10
9.294900999999999
 20
26.717271
 10
9.270716
 20
26.673427
 10
9.24729
 20
26.629223
 10
9.224684
 20
26.584665
 10
9.202586
 20
26.53976
 10
9.181305
 20
26.494524
 10
9.160591
 20
26.448965
 10
9.140694999999999
 20
26.403092
 10
9.121644999999999
 20
26.356922
 10
9.103158000000001
 20
26.310462
 10
9.085547999999999
 20
26.263723
 10
9.068530000000001
 20
26.216717
 10
9.052104
 20
26.169455
 10
9.036581
 20
26.121944
 10
9.02168
 20
26.074203
 10
9.007681
 20
26.026234
 10
8.994417
 20
25.978058
 10
8.981717
 20
25.929679
 10
8.969863999999999
 20
25.881113
 10
8.958574
 20
25.832371
 10
8.948131
 20
25.78346
 10
8.938535
 20
25.734402
 10
8.929505000000001
 20
25.685194
 10
8.921321000000001
 20
25.63586
 10
8.913983999999999
 20
25.586405
 10
8.907211
 20
25.536843
 10
8.901284
 20
25.487183
 10
8.896203999999999
 20
25.437442
 10
8.891971
 20
25.387629
 10
8.888301
 20
25.337755
 10
8.885761
 20
25.287833
 10
8.883777
 20
25.237875
 10
8.883486
 20
25.187887
 10
8.880663
 20
25.137892
 10
8.880493
 20
25.087894
 10
8.880493
 20
25.037906
 10
8.883316000000001
 20
24.987939
 10
8.885009
 20
24.938007
 10
8.888113000000001
 20
24.888123
 10
8.892346
 20
24.838297
 10
8.897143
 20
24.788537
 10
8.902789
 20
24.738864
 10
8.909279
 20
24.689281
 10
8.916335999999999
 20
24.639804
 10
8.924519
 20
24.590441
 10
8.933268999999999
 20
24.54121
 10
8.942582
 20
24.492117
 10
8.952742000000001
 20
24.443174
 10
8.963749
 20
24.394398
 10
8.975602
 20
24.345794
 10
8.988019
 20
24.297378
 10
9.001283000000001
 20
24.249158
 10
9.015112
 20
24.20115
 10
9.029674999999999
 20
24.153358
 10
9.04514
 20
24.105802
 10
9.061227000000001
 20
24.058489
 10
9.078189
 20
24.011425
 10
9.095744
 20
23.964634
 10
9.114201
 20
23.918115
 10
9.133222
 20
23.871884
 10
9.153090000000001
 20
23.825953
 10
9.173550000000001
 20
23.780328
 10
9.194857000000001
 20
23.735026
 10
9.216701
 20
23.690055
 10
9.239362
 20
23.645423
 10
9.262561
 20
23.601142
 10
9.286550999999999
 20
23.557227
 10
9.311019
 20
23.513684
 10
9.336278999999999
 20
23.470526
 10
9.362047
 20
23.427758
 10
9.388547000000001
 20
23.385396
 10
9.415781000000001
 20
23.343447
 10
9.443721
 20
23.30192
 10
9.472113
 20
23.260828
 10
9.50121
 20
23.220177
 10
9.530957000000001
 20
23.179982
 10
9.561297
 20
23.140247
 10
9.592256000000001
 20
23.100986
 10
9.623806999999999
 20
23.062203
 10
9.655951
 20
23.02391
 10
9.688691
 20
22.986114
 10
9.722020000000001
 20
22.948835
 10
9.755887
 20
22.912065
 10
9.790346
 20
22.875823
 10
9.825343
 20
22.840112
 10
9.860873
 20
22.804949
 10
9.89697
 20
22.770334
 10
9.933573000000001
 20
22.736279
 10
9.970715
 20
22.702791
 10
10.008333
 20
22.669877
 10
10.046491
 20
22.637548
 10
10.085128
 20
22.605808
 10
10.124244
 20
22.574667
 10
10.16381
 20
22.544131
 10
10.203886
 20
22.514207
 10
10.244386
 20
22.484905
 10
10.285362
 20
22.456226
 10
10.326738
 20
22.428183
 10
10.368563
 20
22.400791
 10
10.410811
 20
22.374036
 10
10.453454
 20
22.347922
 10
10.496494
 20
22.322469
 10
10.539928
 20
22.297704
 10
10.583729
 20
22.273601
 10
10.627896
 20
22.250159
 10
10.672402
 20
22.227405
 10
10.717275
 20
22.205338
 10
10.762487
 20
22.183987
 10
10.808011
 20
22.163323
 10
10.853842
 20
22.143347
 10
10.899985
 20
22.124059
 10
10.946412
 20
22.105511
 10
10.993147
 20
22.087679
 10
11.040108
 20
22.07056
 10
11.087352
 20
22.054156
 10
11.13485
 20
22.038519
 10
11.182546
 20
22.023597
 10
11.230494
 20
22.009415
 10
11.278672
 20
21.995974
 10
11.327014
 20
21.983274
 10
11.375557
 20
21.971315
 10
11.424296
 20
21.960097
 10
11.473177
 20
21.949619
 10
11.522228
 20
21.939909
 10
11.571419
 20
21.930966
 10
11.620751
 20
21.922738
 10
11.670196
 20
21.915303
 10
11.719726
 20
21.908635
 10
11.769399
 20
21.902709
 10
11.819125
 20
21.897549
 10
11.868938
 20
21.893157
 10
11.918806
 20
21.889559
 10
11.968704
 20
21.886701
 10
12.018654
 20
21.884585
 10
12.068637
 20
21.883262
 10
12.118648
 20
21.882733
 10
12.168657
 20
21.882997
 10
12.218639
 20
21.883791
 10
12.26859
 20
21.885379
 10
12.318546
 20
21.888024
 10
12.368441
 20
21.891332
 10
12.418254
 20
21.895406
 10
12.468038
 20
21.900248
 10
12.517708
 20
21.905857
 10
12.567293
 20
21.912234
 10
12.616797
 20
21.919351
 10
12.666157
 20
21.927236
 10
12.715404
 20
21.935887
 10
12.76451
 20
21.94528
 10
12.813477
 20
21.95544
 10
12.862274
 20
21.966341
 10
12.910899
 20
21.977983
 10
12.959328
 20
21.990391
 10
13.007559
 20
22.003515
 10
13.055594
 20
22.017405
 10
13.103404
 20
22.032037
 10
13.150984
 20
22.047409
 10
13.198342
 20
22.063496
 10
13.245416
 20
22.080323
 10
13.292237
 20
22.097865
 10
13.338803
 20
22.116148
 10
13.38506
 20
22.135118
 10
13.431005
 20
22.154803
 10
13.476669
 20
22.175203
 10
13.521995
 20
22.19629
 10
13.567008
 20
22.218065
 10
13.611683
 20
22.240528
 10
13.655993
 20
22.263679
 10
13.699935
 20
22.287518
 10
13.743538
 20
22.312018
 10
13.786718
 20
22.337207
 10
13.82953
 20
22.36303
 10
13.871948
 20
22.389533
 10
13.913943
 20
22.416663
 10
13.955487
 20
22.444437
 10
13.996635
 20
22.472871
 10
14.037331
 20
22.50192
 10
14.077574
 20
22.531588
 10
14.11737
 20
22.56188
 10
14.156681
 20
22.592775
 10
14.195488
 20
22.624271
 10
14.233842
 20
22.656362
 10
14.271688
 20
22.689038
 10
14.309026
 20
22.722294
 10
14.345855
 20
22.75612
 10
14.382148
 20
22.790508
 10
14.417907
 20
22.825449
 10
14.453128
 20
22.860938
 10
14.487783
 20
22.896963
 10
14.521906
 20
22.933518
 10
14.555461
 20
22.970594
 10
14.588425
 20
23.00818
 10
14.620823
 20
23.04627
 10
14.652629
 20
23.084854
 10
14.683815
 20
23.123925
 10
14.714409
 20
23.163467
 10
14.744407
 20
23.203477
 10
14.77376
 20
23.243942
 10
14.802517
 20
23.284857
 10
14.830627
 20
23.326206
 10
14.857974
 20
23.367984
 10
14.884869
 20
23.410182
 10
14.911062
 20
23.452785
 10
14.936515
 20
23.495785
 10
14.961465
 20
23.539174
 10
14.985648
 20
23.582942
 10
15.009037
 20
23.627071
 10
15.031924
 20
23.671561
 10
15.054016
 20
23.716394
 10
15.07558
 20
23.761564
 10
15.096323
 20
23.807059
 10
15.116511
 20
23.852866
 10
15.135852
 20
23.898975
 10
15.154346
 20
23.945378
 10
15.172232
 20
23.992063
 10
15.189536
 20
24.039016
 10
15.205966
 20
24.086231
 10
15.221788
 20
24.133689
 10
15.236711
 20
24.181385
 10
15.251025
 20
24.229307
 10
15.264571
 20
24.27744
 10
15.277271
 20
24.325779
 10
15.289416
 20
24.374306
 10
15.300713
 20
24.423016
 10
15.311164
 20
24.471892
 10
15.321033
 20
24.520924
 10
15.330056
 20
24.570102
 10
15.338231
 20
24.619413
 10
15.345851
 20
24.668842
 10
15.352334
 20
24.718383
 10
15.35826
 20
24.768024
 10
15.363631
 20
24.817747
 10
15.368156
 20
24.867549
 10
15.371833
 20
24.917412
 10
15.374664
 20
24.967326
 10
15.377046
 20
25.017279
 10
15.377839
 20
25.067256
 10
15.38067
 20
25.117254
 10
15.38067
 20
25.167255
 10
15.380811
 20
25.217243
 10
15.37798
 20
25.267215
 10
15.376657
 20
25.317152
 10
15.373826
 20
25.36705
 10
15.369592
 20
25.416892
 10
15.364803
 20
25.466662
 10
15.359432
 20
25.516356
 10
15.353215
 20
25.565958
 10
15.34615
 20
25.615458
 10
15.338239
 20
25.664843
 10
15.329773
 20
25.714103
 10
15.320459
 20
25.763225
 10
15.310299
 20
25.812197
 10
15.299584
 20
25.86101
 10
15.28773
 20
25.909651
 10
15.275321
 20
25.958104
 10
15.26233
 20
26.006366
 10
15.248493
 20
26.054417
 10
15.233967
 20
26.102254
 10
15.218807
 20
26.14986
 10
15.202746
 20
26.197226
 10
15.186078
 20
26.244335
 10
15.168536
 20
26.291187
 10
15.150385
 20
26.337761
 10
15.131362
 20
26.384053
 10
15.111756
 20
26.430045
 10
15.091595
 20
26.475733
 10
15.070587
 20
26.521101
 10
15.049024
 20
26.566141
 10
15.02664
 20
26.610842
 10
15.003436
 20
26.655195
 10
14.97973
 20
26.699184
 10
14.955229
 20
26.742806
 10
14.930226
 20
26.786044
 10
14.904456
 20
26.82889
 10
14.877955
 20
26.871337
 10
14.851002
 20
26.913369
 10
14.823316
 20
26.954985
 10
14.794897
 20
26.996165
 10
14.765912
 20
27.036908
 10
14.736308
 20
27.077196
 10
14.706082
 20
27.117024
 10
14.675235
 20
27.156386
 10
14.643797
 20
27.195263
 10
14.611764
 20
27.23366
 10
14.579167
 20
27.271556
 10
14.545949
 20
27.308944
 10
14.512196
 20
27.345816
 10
14.47785
 20
27.382167
 10
14.442965
 20
27.417981
 10
14.407548
 20
27.453261
 10
14.371565
 20
27.487987
 10
14.335074
 20
27.522155
 10
14.298045
 20
27.555763
 10
14.260512
 20
27.588793
 10
14.222467
 20
27.621242
 10
14.183944
 20
27.653103
 10
14.144913
 20
27.684366
 10
14.105429
 20
27.715026
 10
14.065467
 20
27.745074
 10
14.025025
 20
27.774504
 10
13.98416
 20
27.803309
 10
13.942869
 20
27.831482
 10
13.901129
 20
27.859025
 10
13.858965
 20
27.885901
 10
13.816407
 20
27.912121
 10
13.773452
 20
27.93768
 10
13.730103
 20
27.962604
 10
13.686359
 20
27.98684
 10
13.642277
 20
28.010414
 10
13.597827
 20
28.0333
 10
13.553036
 20
28.055499
 10
13.507882
 20
28.077009
 10
13.462416
 20
28.097832
 10
13.416641
 20
28.117967
 10
13.37058
 20
28.137361
 10
13.324185
 20
28.156067
 10
13.277534
 20
28.174058
 10
13.230626
 20
28.191309
 10
13.18344
 20
28.207845
 10
13.135998
 20
28.223641
 10
13.088331
 20
28.238722
 10
13.040409
 20
28.253063
 10
12.992319
 20
28.266662
 10
12.944003
 20
28.279521
 10
12.895489
 20
28.291639
 10
12.846777
 20
28.303016
 10
12.797925
 20
28.313626
 10
12.748903
 20
28.323495
 10
12.699741
 20
28.33257
 10
12.650465
 20
28.340931
 10
12.601049
 20
28.348524
 10
12.55149
 20
28.35535
 10
12.501875
 20
28.361409
 10
12.452147
 20
28.366701
 10
12.402363
 20
28.371252
 10
12.352494
 20
28.375009
 10
12.302599
 20
28.377999
 10
12.252646
 20
28.38038
 10
12.202664
 20
28.381703
 10
12.152681
 20
28.382497
 10
12.132335
 20
28.382761
  0
LWPOLYLINE
  5
5D
100
AcDbEntity
  8
0
  6
ByLayer
 62
    7
370
   -1
100
AcDbPolyline
 90
  409
 70
    1
 43
0
 10
24.082183
 20
28.382168
 10
24.032201
 20
28.38111
 10
23.982221
 20
28.379258
 10
23.932295
 20
28.376612
 10
23.882426
 20
28.373279
 10
23.832616
 20
28.369072
 10
23.782858
 20
28.364071
 10
23.733188
 20
28.35833
 10
23.6836
 20
28.351821
 10
23.634158
 20
28.344545
 10
23.584794
 20
28.336502
 10
23.535577
 20
28.327691
 10
23.486497
 20
28.318139
 10
23.437588
 20
28.307847
 10
23.388821
 20
28.296788
 10
23.340222
 20
28.284987
 10
23.291851
 20
28.27242
 10
23.243647
 20
28.259138
 10
23.195641
 20
28.245088
 10
23.147889
 20
28.230298
 10
23.100362
 20
28.214793
 10
23.053062
 20
28.198548
 10
23.006014
 20
28.181562
 10
22.959252
 20
28.163861
 10
22.91277
 20
28.145473
 10
22.866569
 20
28.126343
 10
22.820682
 20
28.1065
 10
22.775073
 20
28.085968
 10
22.729806
 20
28.064722
 10
22.684874
 20
28.042788
 10
22.640284
 20
28.020193
 10
22.596033
 20
27.996883
 10
22.552146
 20
27.972912
 10
22.508657
 20
27.948253
 10
22.465533
 20
27.922932
 10
22.422805
 20
27.896977
 10
22.380472
 20
27.870346
 10
22.338562
 20
27.843063
 10
22.297102
 20
27.815139
 10
22.256041
 20
27.78659
 10
22.215428
 20
27.757415
 10
22.175296
 20
27.727615
 10
22.135616
 20
27.697203
 10
22.096387
 20
27.666184
 10
22.057668
 20
27.634569
 10
22.019425
 20
27.602356
 10
21.981664
 20
27.569561
 10
21.944439
 20
27.536189
 10
21.907721
 20
27.502248
 10
21.871542
 20
27.467747
 10
21.835897
 20
27.432692
 10
21.800787
 20
27.397095
 10
21.766216
 20
27.360958
 10
21.732207
 20
27.324298
 10
21.698793
 20
27.287119
 10
21.665942
 20
27.249429
 10
21.633655
 20
27.211239
 10
21.601993
 20
27.172554
 10
21.570917
 20
27.133386
 10
21.540437
 20
27.093748
 10
21.510579
 20
27.053646
 10
21.481343
 20
27.013088
 10
21.452723
 20
26.972083
 10
21.424727
 20
26.930646
 10
21.397351
 20
26.888781
 10
21.37071
 20
26.846504
 10
21.344781
 20
26.803819
 10
21.319328
 20
26.760737
 10
21.294669
 20
26.717271
 10
21.270751
 20
26.673427
 10
21.247335
 20
26.629223
 10
21.22474
 20
26.584665
 10
21.202647
 20
26.53976
 10
21.181375
 20
26.494524
 10
21.160658
 20
26.448965
 10
21.140761
 20
26.403092
 10
21.121711
 20
26.356922
 10
21.103217
 20
26.310462
 10
21.085331
 20
26.263723
 10
21.068319
 20
26.216717
 10
21.051888
 20
26.169455
 10
21.036357
 20
26.121944
 10
21.021461
 20
26.074203
 10
21.007465
 20
26.026234
 10
20.994209
 20
25.978058
 10
20.981509
 20
25.929679
 10
20.969656
 20
25.881113
 10
20.958358
 20
25.832371
 10
20.948198
 20
25.78346
 10
20.938594
 20
25.734402
 10
20.929836
 20
25.685194
 10
20.92166
 20
25.63586
 10
20.914331
 20
25.586405
 10
20.907849
 20
25.536843
 10
20.901922
 20
25.487183
 10
20.896843
 20
25.437442
 10
20.892609
 20
25.387629
 10
20.888931
 20
25.337755
 10
20.886286
 20
25.287833
 10
20.884434
 20
25.237875
 10
20.884169
 20
25.187887
 10
20.881338
 20
25.137892
 10
20.881169
 20
25.087894
 10
20.881169
 20
25.037906
 10
20.884
 20
24.987939
 10
20.885587
 20
24.938007
 10
20.888683
 20
24.888123
 10
20.892916
 20
24.838297
 10
20.897705
 20
24.788537
 10
20.903632
 20
24.738864
 10
20.910114
 20
24.689281
 10
20.917178
 20
24.639804
 10
20.925089
 20
24.590441
 10
20.933847
 20
24.54121
 10
20.943451
 20
24.492117
 10
20.953611
 20
24.443174
 10
20.964618
 20
24.394398
 10
20.97618
 20
24.345794
 10
20.98888
 20
24.297378
 10
21.002136
 20
24.249158
 10
21.015974
 20
24.20115
 10
21.030526
 20
24.153358
 10
21.046004
 20
24.105802
 10
21.06209
 20
24.058489
 10
21.07905
 20
24.011425
 10
21.096592
 20
23.964634
 10
21.11506
 20
23.918115
 10
21.134083
 20
23.871884
 10
21.153953
 20
23.825953
 10
21.174406
 20
23.780328
 10
21.195705
 20
23.735026
 10
21.217559
 20
23.690055
 10
21.240234
 20
23.645423
 10
21.263411
 20
23.601142
 10
21.287383
 20
23.557227
 10
21.311883
 20
23.513684
 10
21.337177
 20
23.470526
 10
21.362921
 20
23.427758
 10
21.389395
 20
23.385396
 10
21.416629
 20
23.343447
 10
21.444595
 20
23.30192
 10
21.473016
 20
23.260828
 10
21.502113
 20
23.220177
 10
21.53186
 20
23.179982
 10
21.562197
 20
23.140247
 10
21.593158
 20
23.100986
 10
21.62471
 20
23.062203
 10
21.656856
 20
23.02391
 10
21.689593
 20
22.986114
 10
21.722923
 20
22.948835
 10
21.756789
 20
22.912065
 10
21.791249
 20
22.875823
 10
21.826245
 20
22.840112
 10
21.861776
 20
22.804949
 10
21.897873
 20
22.770334
 10
21.934478
 20
22.736279
 10
21.971588
 20
22.702791
 10
22.009236
 20
22.669877
 10
22.047365
 20
22.637548
 10
22.086002
 20
22.605808
 10
22.125118
 20
22.574667
 10
22.164713
 20
22.544131
 10
22.204789
 20
22.514207
 10
22.245286
 20
22.484905
 10
22.286238
 20
22.456226
 10
22.32764
 20
22.428183
 10
22.369465
 20
22.400791
 10
22.411714
 20
22.374036
 10
22.454357
 20
22.347922
 10
22.497396
 20
22.322469
 10
22.540801
 20
22.297704
 10
22.584629
 20
22.273601
 10
22.628799
 20
22.250159
 10
22.673304
 20
22.227405
 10
22.718177
 20
22.205338
 10
22.763389
 20
22.183987
 10
22.808911
 20
22.163323
 10
22.854744
 20
22.143347
 10
22.900888
 20
22.124059
 10
22.947314
 20
22.105511
 10
22.994021
 20
22.087679
 10
23.041011
 20
22.07056
 10
23.088254
 20
22.054156
 10
23.135723
 20
22.038519
 10
23.183449
 20
22.023597
 10
23.231399
 20
22.009415
 10
23.279545
 20
21.995974
 10
23.327919
 20
21.983274
 10
23.376459
 20
21.971315
 10
23.425201
 20
21.960097
 10
23.47408
 20
21.949619
 10
23.523131
 20
21.939909
 10
23.572322
 20
21.930966
 10
23.621653
 20
21.922738
 10
23.671072
 20
21.915303
 10
23.720628
 20
21.908635
 10
23.770272
 20
21.902709
 10
23.820027
 20
21.897549
 10
23.869811
 20
21.893157
 10
23.919679
 20
21.889559
 10
23.969603
 20
21.886701
 10
24.019559
 20
21.884585
 10
24.069539
 20
21.883262
 10
24.119548
 20
21.882733
 10
24.169559
 20
21.882997
 10
24.219539
 20
21.883791
 10
24.269495
 20
21.885379
 10
24.319448
 20
21.888024
 10
24.369317
 20
21.891332
 10
24.419156
 20
21.895406
 10
24.46894
 20
21.900248
 10
24.51861
 20
21.905857
 10
24.568198
 20
21.912234
 10
24.617699
 20
21.919351
 10
24.667059
 20
21.927236
 10
24.716306
 20
21.935887
 10
24.765413
 20
21.94528
 10
24.814379
 20
21.95544
 10
24.863174
 20
21.966341
 10
24.911801
 20
21.977983
 10
24.96023
 20
21.990391
 10
25.008461
 20
22.003515
 10
25.056496
 20
22.017405
 10
25.104304
 20
22.032037
 10
25.151889
 20
22.047409
 10
25.199244
 20
22.063496
 10
25.246318
 20
22.080323
 10
25.293139
 20
22.097865
 10
25.339676
 20
22.116148
 10
25.385963
 20
22.135118
 10
25.431907
 20
22.154803
 10
25.477572
 20
22.175203
 10
25.522895
 20
22.19629
 10
25.567911
 20
22.218065
 10
25.612586
 20
22.240528
 10
25.656895
 20
22.263679
 10
25.700837
 20
22.287518
 10
25.74444
 20
22.312018
 10
25.78762
 20
22.337207
 10
25.830433
 20
22.36303
 10
25.87285
 20
22.389533
 10
25.914816
 20
22.416663
 10
25.956387
 20
22.444437
 10
25.997535
 20
22.472871
 10
26.038233
 20
22.50192
 10
26.078479
 20
22.531588
 10
26.118243
 20
22.56188
 10
26.157555
 20
22.592775
 10
26.19639
 20
22.624271
 10
26.234744
 20
22.656362
 10
26.27259
 20
22.689038
 10
26.309928
 20
22.722294
 10
26.346758
 20
22.75612
 10
26.383051
 20
22.790508
 10
26.418809
 20
22.825449
 10
26.45403
 20
22.860938
 10
26.488688
 20
22.896963
 10
26.522806
 20
22.933518
 10
26.556363
 20
22.970594
 10
26.589327
 20
23.00818
 10
26.621725
 20
23.04627
 10
26.653505
 20
23.084854
 10
26.684717
 20
23.123925
 10
26.715311
 20
23.163467
 10
26.745309
 20
23.203477
 10
26.774662
 20
23.243942
 10
26.80342
 20
23.284857
 10
26.831529
 20
23.326206
 10
26.858876
 20
23.367984
 10
26.885771
 20
23.410182
 10
26.911965
 20
23.452785
 10
26.937418
 20
23.495785
 10
26.962368
 20
23.539174
 10
26.986551
 20
23.582942
 10
27.00994
 20
23.627071
 10
27.032826
 20
23.671561
 10
27.054919
 20
23.716394
 10
27.076482
 20
23.761564
 10
27.097226
 20
23.807059
 10
27.117122
 20
23.852866
 10
27.136463
 20
23.898975
 10
27.154958
 20
23.945378
 10
27.172843
 20
23.992063
 10
27.190147
 20
24.039016
 10
27.206578
 20
24.086231
 10
27.2224
 20
24.133689
 10
27.237322
 20
24.181385
 10
27.25161
 20
24.229307
 10
27.265156
 20
24.27744
 10
27.277856
 20
24.325779
 10
27.290001
 20
24.374306
 10
27.301298
 20
24.423016
 10
27.311749
 20
24.471892
 10
27.321618
 20
24.520924
 10
27.330641
 20
24.570102
 10
27.338816
 20
24.619413
 10
27.346436
 20
24.668842
 10
27.353209
 20
24.718383
 10
27.359136
 20
24.768024
 10
27.364507
 20
24.817747
 10
27.36874
 20
24.867549
 10
27.372418
 20
24.917412
 10
27.375249
 20
24.967326
 10
27.37763
 20
25.017279
 10
27.378424
 20
25.067256
 10
27.381255
 20
25.117254
 10
27.381255
 20
25.167255
 10
27.381425
 20
25.217243
 10
27.378594
 20
25.267215
 10
27.377271
 20
25.317152
 10
27.37444
 20
25.36705
 10
27.370206
 20
25.416892
 10
27.365417
 20
25.466662
 10
27.360046
 20
25.516356
 10
27.353829
 20
25.565958
 10
27.346764
 20
25.615458
 10
27.338853
 20
25.664843
 10
27.330387
 20
25.714103
 10
27.321073
 20
25.763225
 10
27.310913
 20
25.812197
 10
27.300198
 20
25.86101
 10
27.288344
 20
25.909651
 10
27.275935
 20
25.958104
 10
27.262944
 20
26.006366
 10
27.249107
 20
26.054417
 10
27.234581
 20
26.102254
 10
27.219421
 20
26.14986
 10
27.20336
 20
26.197226
 10
27.186692
 20
26.244335
 10
27.16915
 20
26.291187
 10
27.150999
 20
26.337761
 10
27.131976
 20
26.384053
 10
27.11237
 20
26.430045
 10
27.091918
 20
26.475733
 10
27.07091
 20
26.521101
 10
27.049082
 20
26.566141
 10
27.026698
 20
26.610842
 10
27.003495
 20
26.655195
 10
26.979788
 20
26.699184
 10
26.955288
 20
26.742806
 10
26.930285
 20
26.786044
 10
26.904514
 20
26.82889
 10
26.878014
 20
26.871337
 10
26.851061
 20
26.913369
 10
26.823348
 20
26.954985
 10
26.794927
 20
26.996165
 10
26.765944
 20
27.036908
 10
26.736308
 20
27.077196
 10
26.706112
 20
27.117024
 10
26.675266
 20
27.156386
 10
26.643826
 20
27.195263
 10
26.611793
 20
27.23366
 10
26.579167
 20
27.271556
 10
26.545981
 20
27.308944
 10
26.512225
 20
27.345816
 10
26.47788
 20
27.382167
 10
26.442997
 20
27.417981
 10
26.407577
 20
27.453261
 10
26.371594
 20
27.487987
 10
26.335103
 20
27.522155
 10
26.298077
 20
27.555763
 10
26.260541
 20
27.588793
 10
26.222497
 20
27.621242
 10
26.183973
 20
27.653103
 10
26.144942
 20
27.684366
 10
26.105432
 20
27.715026
 10
26.065469
 20
27.745074
 10
26.025054
 20
27.774504
 10
25.98419
 20
27.803309
 10
25.942899
 20
27.831482
 10
25.901158
 20
27.859025
 10
25.858994
 20
27.885901
 10
25.816436
 20
27.912121
 10
25.773481
 20
27.93768
 10
25.730134
 20
27.962604
 10
25.686388
 20
27.98684
 10
25.642306
 20
28.010414
 10
25.597856
 20
28.0333
 10
25.553039
 20
28.055499
 10
25.507911
 20
28.077009
 10
25.462446
 20
28.097832
 10
25.41667
 20
28.117967
 10
25.370582
 20
28.137361
 10
25.324214
 20
28.156067
 10
25.277563
 20
28.174058
 10
25.230629
 20
28.191309
 10
25.18344
 20
28.207845
 10
25.13603
 20
28.223641
 10
25.088333
 20
28.238722
 10
25.040441
 20
28.253063
 10
24.992322
 20
28.266662
 10
24.944006
 20
28.279521
 10
24.895519
 20
28.291639
 10
24.846806
 20
28.303016
 10
24.797957
 20
28.313626
 10
24.748935
 20
28.323495
 10
24.69977
 20
28.33257
 10
24.650465
 20
28.340931
 10
24.601049
 20
28.348524
 10
24.551519
 20
28.35535
 10
24.501904
 20
28.361409
 10
24.452176
 20
28.366701
 10
24.402392
 20
28.371252
 10
24.352524
 20
28.375009
 10
24.302628
 20
28.377999
 10
24.252675
 20
28.38038
 10
24.202693
 20
28.381703
 10
24.152711
 20
28.382497
 10
24.132338
 20
28.382761
  0
LWPOLYLINE
  5
5E
100
AcDbEntity
  8
0
  6
ByLayer
 62
    7
370
   -1
100
AcDbPolyline
 90
  409
 70
    1
 43
0
 10
12.082429
 20
13.382176
 10
12.03245
 20
13.381117
 10
11.982496
 20
13.379265
 10
11.932543
 20
13.376619
 10
11.882675
 20
13.373286
 10
11.832862
 20
13.369052
 10
11.783107
 20
13.364052
 10
11.733434
 20
13.358284
 10
11.683878
 20
13.351775
 10
11.634403
 20
13.344499
 10
11.585043
 20
13.336456
 10
11.535823
 20
13.327645
 10
11.486745
 20
13.31812
 10
11.437837
 20
13.307828
 10
11.389069
 20
13.296768
 10
11.340497
 20
13.284968
 10
11.292097
 20
13.272427
 10
11.243895
 20
13.259145
 10
11.195916
 20
13.245095
 10
11.148137
 20
13.230332
 10
11.10061
 20
13.214801
 10
11.053308
 20
13.198582
 10
11.006292
 20
13.181595
 10
10.959498
 20
13.163921
 10
10.913016
 20
13.145533
 10
10.866817
 20
13.126403
 10
10.820928
 20
13.106586
 10
10.775322
 20
13.086055
 10
10.730054
 20
13.064809
 10
10.685123
 20
13.042875
 10
10.640533
 20
13.020279
 10
10.596279
 20
12.996996
 10
10.552395
 20
12.973025
 10
10.508903
 20
12.948366
 10
10.465781
 20
12.923045
 10
10.423051
 20
12.89709
 10
10.380747
 20
12.870459
 10
10.338837
 20
12.843176
 10
10.29735
 20
12.815251
 10
10.256287
 20
12.7867
 10
10.215705
 20
12.757522
 10
10.175544
 20
12.727727
 10
10.135865
 20
12.697314
 10
10.096635
 20
12.666297
 10
10.057914
 20
12.634679
 10
10.019673
 20
12.602469
 10
9.981939000000001
 20
12.569671
 10
9.944687999999999
 20
12.536302
 10
9.907969
 20
12.502361
 10
9.871790000000001
 20
12.467857
 10
9.836143
 20
12.432805
 10
9.801035000000001
 20
12.397205
 10
9.766462000000001
 20
12.361074
 10
9.732485
 20
12.324408
 10
9.699040999999999
 20
12.287229
 10
9.666191
 20
12.249539
 10
9.633903999999999
 20
12.211349
 10
9.602238
 20
12.172667
 10
9.571166
 20
12.133483
 10
9.540686000000001
 20
12.093848
 10
9.510827000000001
 20
12.053764
 10
9.481589
 20
12.013203
 10
9.452972000000001
 20
11.972193
 10
9.425003999999999
 20
11.930759
 10
9.397627999999999
 20
11.888876
 10
9.370958
 20
11.846622
 10
9.345050000000001
 20
11.803918
 10
9.319595
 20
11.760844
 10
9.294900999999999
 20
11.717373
 10
9.270716
 20
11.673532
 10
9.24729
 20
11.62932
 10
9.224684
 20
11.584764
 10
9.202586
 20
11.539865
 10
9.181305
 20
11.494621
 10
9.160591
 20
11.44906
 10
9.140694999999999
 20
11.403208
 10
9.121644999999999
 20
11.357038
 10
9.103158000000001
 20
11.310577
 10
9.085547999999999
 20
11.263825
 10
9.068530000000001
 20
11.216836
 10
9.052104
 20
11.169555
 10
9.036581
 20
11.122062
 10
9.02168
 20
11.074305
 10
9.007681
 20
11.026336
 10
8.994417
 20
10.978155
 10
8.981717
 20
10.92979
 10
8.969863999999999
 20
10.881212
 10
8.958574
 20
10.832476
 10
8.948131
 20
10.783581
 10
8.938535
 20
10.734501
 10
8.929505000000001
 20
10.685289
 10
8.921321000000001
 20
10.635971
 10
8.913983999999999
 20
10.58652
 10
8.907211
 20
10.536937
 10
8.901284
 20
10.487302
 10
8.896203999999999
 20
10.43756
 10
8.891971
 20
10.387739
 10
8.888301
 20
10.337865
 10
8.885761
 20
10.287938
 10
8.883777
 20
10.237985
 10
8.883486
 20
10.188006
 10
8.880663
 20
10.137999
 10
8.880493
 20
10.087993
 10
8.880493
 20
10.038014
 10
8.883316000000001
 20
9.988060000000001
 10
8.885009
 20
9.938107
 10
8.888113000000001
 20
9.888233
 10
8.892346
 20
9.838412
 10
8.897143
 20
9.788644
 10
8.902789
 20
9.738982
 10
8.909279
 20
9.689373
 10
8.916335999999999
 20
9.639922
 10
8.924519
 20
9.590551
 10
8.933268999999999
 20
9.541312
 10
8.942582
 20
9.492232
 10
8.952742000000001
 20
9.443284
 10
8.963749
 20
9.394494999999999
 10
8.975602
 20
9.345891999999999
 10
8.988019
 20
9.297473
 10
9.001283000000001
 20
9.249266
 10
9.015112
 20
9.201244000000001
 10
9.029674999999999
 20
9.153460000000001
 10
9.04514
 20
9.105915
 10
9.061227000000001
 20
9.058608
 10
9.078189
 20
9.011538
 10
9.095744
 20
8.964734
 10
9.114201
 20
8.91822
 10
9.133222
 20
8.871997
 10
9.153090000000001
 20
8.826066000000001
 10
9.173550000000001
 20
8.780424999999999
 10
9.194857000000001
 20
8.735129000000001
 10
9.216701
 20
8.690149999999999
 10
9.239362
 20
8.645541
 10
9.262561
 20
8.60125
 10
9.286550999999999
 20
8.557328999999999
 10
9.311019
 20
8.513779
 10
9.336278999999999
 20
8.470625
 10
9.362047
 20
8.427868999999999
 10
9.388547000000001
 20
8.385509000000001
 10
9.415781000000001
 20
8.343546
 10
9.443721
 20
8.302033
 10
9.472113
 20
8.260942999999999
 10
9.50121
 20
8.220276999999999
 10
9.530957000000001
 20
8.180087
 10
9.561297
 20
8.140347
 10
9.592256000000001
 20
8.101082999999999
 10
9.623806999999999
 20
8.062295000000001
 10
9.655951
 20
8.024010000000001
 10
9.688691
 20
7.986227
 10
9.722020000000001
 20
7.948947
 10
9.755887
 20
7.91217
 10
9.790346
 20
7.875923
 10
9.825343
 20
7.84023
 10
9.860873
 20
7.805041
 10
9.89697
 20
7.770433
 10
9.933573000000001
 20
7.736382
 10
9.970715
 20
7.702885
 10
10.008333
 20
7.669971
 10
10.046491
 20
7.637666
 10
10.085128
 20
7.605916
 10
10.124244
 20
7.574775
 10
10.16381
 20
7.544242
 10
10.203886
 20
7.514317
 10
10.244386
 20
7.485002
 10
10.285362
 20
7.456321
 10
10.326738
 20
7.428302
 10
10.368563
 20
7.400891
 10
10.410811
 20
7.374141
 10
10.453454
 20
7.347948
 10
10.496494
 20
7.322548
 10
10.539928
 20
7.297677
 10
10.583729
 20
7.2736
 10
10.627896
 20
7.250317
 10
10.672402
 20
7.227563
 10
10.717275
 20
7.205602
 10
10.762487
 20
7.184171
 10
10.808011
 20
7.163534
 10
10.853842
 20
7.143425
 10
10.899985
 20
7.124111
 10
10.946412
 20
7.10559
 10
10.993147
 20
7.087863
 10
11.040108
 20
7.070665
 10
11.087352
 20
7.054261
 10
11.13485
 20
7.03865
 10
11.182546
 20
7.023834
 10
11.230494
 20
7.009546
 10
11.278672
 20
6.996053
 10
11.327014
 20
6.983353
 10
11.375557
 20
6.971446
 10
11.424296
 20
6.960334
 10
11.473177
 20
6.950015
 10
11.522228
 20
6.940226
 10
11.571419
 20
6.93123
 10
11.620751
 20
6.923028
 10
11.670196
 20
6.915619
 10
11.719726
 20
6.909005
 10
11.769399
 20
6.903184
 10
11.819125
 20
6.898157
 10
11.868938
 20
6.893659
 10
11.918806
 20
6.889955
 10
11.968704
 20
6.887045
 10
12.018654
 20
6.884399
 10
12.068637
 20
6.881753
 10
12.118648
 20
6.881753
 10
12.168657
 20
6.881753
 10
12.218639
 20
6.881753
 10
12.26859
 20
6.884399
 10
12.318546
 20
6.887045
 10
12.368441
 20
6.890484
 10
12.418254
 20
6.894453
 10
12.468038
 20
6.899215
 10
12.517708
 20
6.904772
 10
12.567293
 20
6.911122
 10
12.616797
 20
6.918265
 10
12.666157
 20
6.926203
 10
12.715404
 20
6.934934
 10
12.76451
 20
6.944459
 10
12.813477
 20
6.954513
 10
12.862274
 20
6.965361
 10
12.910899
 20
6.977003
 10
12.959328
 20
6.989438
 10
13.007559
 20
7.002667
 10
13.055594
 20
7.01669
 10
13.103404
 20
7.031242
 10
13.150984
 20
7.046588
 10
13.198342
 20
7.062728
 10
13.245416
 20
7.079661
 10
13.292237
 20
7.097123
 10
13.338803
 20
7.115379
 10
13.38506
 20
7.134429
 10
13.431005
 20
7.154009
 10
13.476669
 20
7.174381
 10
13.521995
 20
7.195548
 10
13.567008
 20
7.217244
 10
13.611683
 20
7.239733
 10
13.655993
 20
7.262752
 10
13.699935
 20
7.286565
 10
13.743538
 20
7.311171
 10
13.786718
 20
7.336306
 10
13.82953
 20
7.362235
 10
13.871948
 20
7.388746
 10
13.913943
 20
7.415866
 10
13.955487
 20
7.443647
 10
13.996635
 20
7.47209
 10
14.037331
 20
7.501141
 10
14.077574
 20
7.530801
 10
14.11737
 20
7.561096
 10
14.156681
 20
7.591972
 10
14.195488
 20
7.623484
 10
14.233842
 20
7.655578
 10
14.271688
 20
7.688254
 10
14.309026
 20
7.721512
 10
14.345855
 20
7.755326
 10
14.382148
 20
7.789722
 10
14.417907
 20
7.824673
 10
14.453128
 20
7.860153
 10
14.487783
 20
7.896163
 10
14.521906
 20
7.932729
 10
14.555461
 20
7.969797
 10
14.588425
 20
8.007394
 10
14.620823
 20
8.045494
 10
14.652629
 20
8.084070000000001
 10
14.683815
 20
8.123122
 10
14.714409
 20
8.162677
 10
14.744407
 20
8.202681999999999
 10
14.77376
 20
8.243162999999999
 10
14.802517
 20
8.284068
 10
14.830627
 20
8.325422
 10
14.857974
 20
8.3672
 10
14.884869
 20
8.409401000000001
 10
14.911062
 20
8.451999000000001
 10
14.936515
 20
8.494992999999999
 10
14.961465
 20
8.538385
 10
14.985648
 20
8.582147000000001
 10
15.009037
 20
8.626279
 10
15.031924
 20
8.670782000000001
 10
15.054016
 20
8.715602000000001
 10
15.07558
 20
8.760767
 10
15.096323
 20
8.806274999999999
 10
15.116511
 20
8.852074
 10
15.135852
 20
8.898191000000001
 10
15.154346
 20
8.944599
 10
15.172232
 20
8.991270999999999
 10
15.189536
 20
9.038235
 10
15.205966
 20
9.085436
 10
15.221788
 20
9.132902
 10
15.236711
 20
9.180607
 10
15.251025
 20
9.228522999999999
 10
15.264571
 20
9.27665
 10
15.277271
 20
9.324989
 10
15.289416
 20
9.373514
 10
15.300713
 20
9.422224
 10
15.311164
 20
9.471092000000001
 10
15.321033
 20
9.520146
 10
15.330056
 20
9.569305
 10
15.338231
 20
9.618622999999999
 10
15.345851
 20
9.668047
 10
15.352334
 20
9.717604
 10
15.35826
 20
9.767239999999999
 10
15.363631
 20
9.816955
 10
15.368156
 20
9.866749
 10
15.371833
 20
9.916623
 10
15.374664
 20
9.966523
 10
15.377046
 20
10.016477
 10
15.377839
 20
10.066483
 10
15.38067
 20
10.116462
 10
15.38067
 20
10.166468
 10
15.380811
 20
10.216448
 10
15.37798
 20
10.266428
 10
15.376657
 20
10.316355
 10
15.373826
 20
10.366255
 10
15.369592
 20
10.416102
 10
15.364803
 20
10.46587
 10
15.359432
 20
10.515559
 10
15.353215
 20
10.565168
 10
15.34615
 20
10.614672
 10
15.338239
 20
10.664043
 10
15.329773
 20
10.713308
 10
15.320459
 20
10.762441
 10
15.310299
 20
10.811415
 10
15.299584
 20
10.860231
 10
15.28773
 20
10.908861
 10
15.275321
 20
10.957306
 10
15.26233
 20
11.005566
 10
15.248493
 20
11.053641
 10
15.233967
 20
11.101477
 10
15.218807
 20
11.149076
 10
15.202746
 20
11.196436
 10
15.186078
 20
11.243558
 10
15.168536
 20
11.29039
 10
15.150385
 20
11.336983
 10
15.131362
 20
11.383258
 10
15.111756
 20
11.429269
 10
15.091595
 20
11.474936
 10
15.070587
 20
11.520312
 10
15.049024
 20
11.565344
 10
15.02664
 20
11.610058
 10
15.003436
 20
11.654403
 10
14.97973
 20
11.698403
 10
14.955229
 20
11.742006
 10
14.930226
 20
11.785265
 10
14.904456
 20
11.828101
 10
14.877955
 20
11.87054
 10
14.851002
 20
11.912582
 10
14.823316
 20
11.954201
 10
14.794897
 20
11.99537
 10
14.765912
 20
12.036116
 10
14.736308
 20
12.076412
 10
14.706082
 20
12.116232
 10
14.675235
 20
12.155602
 10
14.643797
 20
12.194485
 10
14.611764
 20
12.232873
 10
14.579167
 20
12.270769
 10
14.545949
 20
12.30816
 10
14.512196
 20
12.345035
 10
14.47785
 20
12.381381
 10
14.442965
 20
12.4172
 10
14.407548
 20
12.452477
 10
14.371565
 20
12.487203
 10
14.335074
 20
12.521374
 10
14.298045
 20
12.554979
 10
14.260512
 20
12.588007
 10
14.222467
 20
12.62046
 10
14.183944
 20
12.652316
 10
14.144913
 20
12.683582
 10
14.105429
 20
12.714242
 10
14.065467
 20
12.74429
 10
14.025025
 20
12.77372
 10
13.98416
 20
12.802525
 10
13.942869
 20
12.830698
 10
13.901129
 20
12.858241
 10
13.858965
 20
12.88512
 10
13.816407
 20
12.91134
 10
13.773452
 20
12.936899
 10
13.730103
 20
12.961822
 10
13.686359
 20
12.986058
 10
13.642277
 20
13.009632
 10
13.597827
 20
13.032519
 10
13.553036
 20
13.054717
 10
13.507882
 20
13.076228
 10
13.462416
 20
13.097051
 10
13.416641
 20
13.117159
 10
13.37058
 20
13.136553
 10
13.324185
 20
13.155232
 10
13.277534
 20
13.173224
 10
13.230626
 20
13.190475
 10
13.18344
 20
13.207011
 10
13.135998
 20
13.222807
 10
13.088331
 20
13.237888
 10
13.040409
 20
13.252228
 10
12.992319
 20
13.265828
 10
12.944003
 20
13.278687
 10
12.895489
 20
13.290805
 10
12.846777
 20
13.302182
 10
12.797925
 20
13.312791
 10
12.748903
 20
13.32266
 10
12.699741
 20
13.331788
 10
12.650465
 20
13.340149
 10
12.601049
 20
13.347743
 10
12.55149
 20
13.354569
 10
12.501875
 20
13.360628
 10
12.452147
 20
13.36592
 10
12.402363
 20
13.37047
 10
12.352494
 20
13.374227
 10
12.302599
 20
13.377217
 10
12.252646
 20
13.379599
 10
12.202664
 20
13.380921
 10
12.152681
 20
13.381715
 10
12.132335
 20
13.38198
  0
LWPOLYLINE
  5
5F
100
AcDbEntity
  8
0
  6
ByLayer
 62
    7
370
   -1
100
AcDbPolyline
 90
  409
 70
    1
 43
0
 10
24.082183
 20
13.382176
 10
24.032201
 20
13.381117
 10
23.982221
 20
13.379265
 10
23.932295
 20
13.376619
 10
23.882426
 20
13.373286
 10
23.832616
 20
13.369052
 10
23.782858
 20
13.364052
 10
23.733188
 20
13.358284
 10
23.6836
 20
13.351775
 10
23.634158
 20
13.344499
 10
23.584794
 20
13.336456
 10
23.535577
 20
13.327645
 10
23.486497
 20
13.31812
 10
23.437588
 20
13.307828
 10
23.388821
 20
13.296768
 10
23.340222
 20
13.284968
 10
23.291851
 20
13.272427
 10
23.243647
 20
13.259145
 10
23.195641
 20
13.245095
 10
23.147889
 20
13.230332
 10
23.100362
 20
13.214801
 10
23.053062
 20
13.198582
 10
23.006014
 20
13.181595
 10
22.959252
 20
13.163921
 10
22.91277
 20
13.145533
 10
22.866569
 20
13.126403
 10
22.820682
 20
13.106586
 10
22.775073
 20
13.086055
 10
22.729806
 20
13.064809
 10
22.684874
 20
13.042875
 10
22.640284
 20
13.020279
 10
22.596033
 20
12.996996
 10
22.552146
 20
12.973025
 10
22.508657
 20
12.948366
 10
22.465533
 20
12.923045
 10
22.422805
 20
12.89709
 10
22.380472
 20
12.870459
 10
22.338562
 20
12.843176
 10
22.297102
 20
12.815251
 10
22.256041
 20
12.7867
 10
22.215428
 20
12.757522
 10
22.175296
 20
12.727727
 10
22.135616
 20
12.697314
 10
22.096387
 20
12.666297
 10
22.057668
 20
12.634679
 10
22.019425
 20
12.602469
 10
21.981664
 20
12.569671
 10
21.944439
 20
12.536302
 10
21.907721
 20
12.502361
 10
21.871542
 20
12.467857
 10
21.835897
 20
12.432805
 10
21.800787
 20
12.397205
 10
21.766216
 20
12.361074
 10
21.732207
 20
12.324408
 10
21.698793
 20
12.287229
 10
21.665942
 20
12.249539
 10
21.633655
 20
12.211349
 10
21.601993
 20
12.172667
 10
21.570917
 20
12.133483
 10
21.540437
 20
12.093848
 10
21.510579
 20
12.053764
 10
21.481343
 20
12.013203
 10
21.452723
 20
11.972193
 10
21.424727
 20
11.930759
 10
21.397351
 20
11.888876
 10
21.37071
 20
11.846622
 10
21.344781
 20
11.803918
 10
21.319328
 20
11.760844
 10
21.294669
 20
11.717373
 10
21.270751
 20
11.673532
 10
21.247335
 20
11.62932
 10
21.22474
 20
11.584764
 10
21.202647
 20
11.539865
 10
21.181375
 20
11.494621
 10
21.160658
 20
11.44906
 10
21.140761
 20
11.403208
 10
21.121711
 20
11.357038
 10
21.103217
 20
11.310577
 10
21.085331
 20
11.263825
 10
21.068319
 20
11.216836
 10
21.051888
 20
11.169555
 10
21.036357
 20
11.122062
 10
21.021461
 20
11.074305
 10
21.007465
 20
11.026336
 10
20.994209
 20
10.978155
 10
20.981509
 20
10.92979
 10
20.969656
 20
10.881212
 10
20.958358
 20
10.832476
 10
20.948198
 20
10.783581
 10
20.938594
 20
10.734501
 10
20.929836
 20
10.685289
 10
20.92166
 20
10.635971
 10
20.914331
 20
10.58652
 10
20.907849
 20
10.536937
 10
20.901922
 20
10.487302
 10
20.896843
 20
10.43756
 10
20.892609
 20
10.387739
 10
20.888931
 20
10.337865
 10
20.886286
 20
10.287938
 10
20.884434
 20
10.237985
 10
20.884169
 20
10.188006
 10
20.881338
 20
10.137999
 10
20.881169
 20
10.087993
 10
20.881169
 20
10.038014
 10
20.884
 20
9.988060000000001
 10
20.885587
 20
9.938107
 10
20.888683
 20
9.888233
 10
20.892916
 20
9.838412
 10
20.897705
 20
9.788644
 10
20.903632
 20
9.738982
 10
20.910114
 20
9.689373
 10
20.917178
 20
9.639922
 10
20.925089
 20
9.590551
 10
20.933847
 20
9.541312
 10
20.943451
 20
9.492232
 10
20.953611
 20
9.443284
 10
20.964618
 20
9.394494999999999
 10
20.97618
 20
9.345891999999999
 10
20.98888
 20
9.297473
 10
21.002136
 20
9.249266
 10
21.015974
 20
9.201244000000001
 10
21.030526
 20
9.153460000000001
 10
21.046004
 20
9.105915
 10
21.06209
 20
9.058608
 10
21.07905
 20
9.011538
 10
21.096592
 20
8.964734
 10
21.11506
 20
8.91822
 10
21.134083
 20
8.871997
 10
21.153953
 20
8.826066000000001
 10
21.174406
 20
8.780424999999999
 10
21.195705
 20
8.735129000000001
 10
21.217559
 20
8.690149999999999
 10
21.240234
 20
8.645541
 10
21.263411
 20
8.60125
 10
21.287383
 20
8.557328999999999
 10
21.311883
 20
8.513779
 10
21.337177
 20
8.470625
 10
21.362921
 20
8.427868999999999
 10
21.389395
 20
8.385509000000001
 10
21.416629
 20
8.343546
 10
21.444595
 20
8.302033
 10
21.473016
 20
8.260942999999999
 10
21.502113
 20
8.220276999999999
 10
21.53186
 20
8.180087
 10
21.562197
 20
8.140347
 10
21.593158
 20
8.101082999999999
 10
21.62471
 20
8.062295000000001
 10
21.656856
 20
8.024010000000001
 10
21.689593
 20
7.986227
 10
21.722923
 20
7.948947
 10
21.756789
 20
7.91217
 10
21.791249
 20
7.875923
 10
21.826245
 20
7.84023
 10
21.861776
 20
7.805041
 10
21.897873
 20
7.770433
 10
21.934478
 20
7.736382
 10
21.971588
 20
7.702885
 10
22.009236
 20
7.669971
 10
22.047365
 20
7.637666
 10
22.086002
 20
7.605916
 10
22.125118
 20
7.574775
 10
22.164713
 20
7.544242
 10
22.204789
 20
7.514317
 10
22.245286
 20
7.485002
 10
22.286238
 20
7.456321
 10
22.32764
 20
7.428302
 10
22.369465
 20
7.400891
 10
22.411714
 20
7.374141
 10
22.454357
 20
7.347948
 10
22.497396
 20
7.322548
 10
22.540801
 20
7.297677
 10
22.584629
 20
7.2736
 10
22.628799
 20
7.250317
 10
22.673304
 20
7.227563
 10
22.718177
 20
7.205602
 10
22.763389
 20
7.184171
 10
22.808911
 20
7.163534
 10
22.854744
 20
7.143425
 10
22.900888
 20
7.124111
 10
22.947314
 20
7.10559
 10
22.994021
 20
7.087863
 10
23.041011
 20
7.070665
 10
23.088254
 20
7.054261
 10
23.135723
 20
7.03865
 10
23.183449
 20
7.023834
 10
23.231399
 20
7.009546
 10
23.279545
 20
6.996053
 10
23.327919
 20
6.983353
 10
23.376459
 20
6.971446
 10
23.425201
 20
6.960334
 10
23.47408
 20
6.950015
 10
23.523131
 20
6.940226
 10
23.572322
 20
6.93123
 10
23.621653
 20
6.923028
 10
23.671072
 20
6.915619
 10
23.720628
 20
6.909005
 10
23.770272
 20
6.903184
 10
23.820027
 20
6.898157
 10
23.869811
 20
6.893659
 10
23.919679
 20
6.889955
 10
23.969603
 20
6.887045
 10
24.019559
 20
6.884399
 10
24.069539
 20
6.881753
 10
24.119548
 20
6.881753
 10
24.169559
 20
6.881753
 10
24.219539
 20
6.881753
 10
24.269495
 20
6.884399
 10
24.319448
 20
6.887045
 10
24.369317
 20
6.890484
 10
24.419156
 20
6.894453
 10
24.46894
 20
6.899215
 10
24.51861
 20
6.904772
 10
24.568198
 20
6.911122
 10
24.617699
 20
6.918265
 10
24.667059
 20
6.926203
 10
24.716306
 20
6.934934
 10
24.765413
 20
6.944459
 10
24.814379
 20
6.954513
 10
24.863174
 20
6.965361
 10
24.911801
 20
6.977003
 10
24.96023
 20
6.989438
 10
25.008461
 20
7.002667
 10
25.056496
 20
7.01669
 10
25.104304
 20
7.031242
 10
25.151889
 20
7.046588
 10
25.199244
 20
7.062728
 10
25.246318
 20
7.079661
 10
25.293139
 20
7.097123
 10
25.339676
 20
7.115379
 10
25.385963
 20
7.134429
 10
25.431907
 20
7.154009
 10
25.477572
 20
7.174381
 10
25.522895
 20
7.195548
 10
25.567911
 20
7.217244
 10
25.612586
 20
7.239733
 10
25.656895
 20
7.262752
 10
25.700837
 20
7.286565
 10
25.74444
 20
7.311171
 10
25.78762
 20
7.336306
 10
25.830433
 20
7.362235
 10
25.87285
 20
7.388746
 10
25.914816
 20
7.415866
 10
25.956387
 20
7.443647
 10
25.997535
 20
7.47209
 10
26.038233
 20
7.501141
 10
26.078479
 20
7.530801
 10
26.118243
 20
7.561096
 10
26.157555
 20
7.591972
 10
26.19639
 20
7.623484
 10
26.234744
 20
7.655578
 10
26.27259
 20
7.688254
 10
26.309928
 20
7.721512
 10
26.346758
 20
7.755326
 10
26.383051
 20
7.789722
 10
26.418809
 20
7.824673
 10
26.45403
 20
7.860153
 10
26.488688
 20
7.896163
 10
26.522806
 20
7.932729
 10
26.556363
 20
7.969797
 10
26.589327
 20
8.007394
 10
26.621725
 20
8.045494
 10
26.653505
 20
8.084070000000001
 10
26.684717
 20
8.123122
 10
26.715311
 20
8.162677
 10
26.745309
 20
8.202681999999999
 10
26.774662
 20
8.243162999999999
 10
26.80342
 20
8.284068
 10
26.831529
 20
8.325422
 10
26.858876
 20
8.3672
 10
26.885771
 20
8.409401000000001
 10
26.911965
 20
8.451999000000001
 10
26.937418
 20
8.494992999999999
 10
26.962368
 20
8.538385
 10
26.986551
 20
8.582147000000001
 10
27.00994
 20
8.626279
 10
27.032826
 20
8.670782000000001
 10
27.054919
 20
8.715602000000001
 10
27.076482
 20
8.760767
 10
27.097226
 20
8.806274999999999
 10
27.117122
 20
8.852074
 10
27.136463
 20
8.898191000000001
 10
27.154958
 20
8.944599
 10
27.172843
 20
8.991270999999999
 10
27.190147
 20
9.038235
 10
27.206578
 20
9.085436
 10
27.2224
 20
9.132902
 10
27.237322
 20
9.180607
 10
27.25161
 20
9.228522999999999
 10
27.265156
 20
9.27665
 10
27.277856
 20
9.324989
 10
27.290001
 20
9.373514
 10
27.301298
 20
9.422224
 10
27.311749
 20
9.471092000000001
 10
27.321618
 20
9.520146
 10
27.330641
 20
9.569305
 10
27.338816
 20
9.618622999999999
 10
27.346436
 20
9.668047
 10
27.353209
 20
9.717604
 10
27.359136
 20
9.767239999999999
 10
27.364507
 20
9.816955
 10
27.36874
 20
9.866749
 10
27.372418
 20
9.916623
 10
27.375249
 20
9.966523
 10
27.37763
 20
10.016477
 10
27.378424
 20
10.066483
 10
27.381255
 20
10.116462
 10
27.381255
 20
10.166468
 10
27.381425
 20
10.216448
 10
27.378594
 20
10.266428
 10
27.377271
 20
10.316355
 10
27.37444
 20
10.366255
 10
27.370206
 20
10.416102
 10
27.365417
 20
10.46587
 10
27.360046
 20
10.515559
 10
27.353829
 20
10.565168
 10
27.346764
 20
10.614672
 10
27.338853
 20
10.664043
 10
27.330387
 20
10.713308
 10
27.321073
 20
10.762441
 10
27.310913
 20
10.811415
 10
27.300198
 20
10.860231
 10
27.288344
 20
10.908861
 10
27.275935
 20
10.957306
 10
27.262944
 20
11.005566
 10
27.249107
 20
11.053641
 10
27.234581
 20
11.101477
 10
27.219421
 20
11.149076
 10
27.20336
 20
11.196436
 10
27.186692
 20
11.243558
 10
27.16915
 20
11.29039
 10
27.150999
 20
11.336983
 10
27.131976
 20
11.383258
 10
27.11237
 20
11.429269
 10
27.091918
 20
11.474936
 10
27.07091
 20
11.520312
 10
27.049082
 20
11.565344
 10
27.026698
 20
11.610058
 10
27.003495
 20
11.654403
 10
26.979788
 20
11.698403
 10
26.955288
 20
11.742006
 10
26.930285
 20
11.785265
 10
26.904514
 20
11.828101
 10
26.878014
 20
11.87054
 10
26.851061
 20
11.912582
 10
26.823348
 20
11.954201
 10
26.794927
 20
11.99537
 10
26.765944
 20
12.036116
 10
26.736308
 20
12.076412
 10
26.706112
 20
12.116232
 10
26.675266
 20
12.155602
 10
26.643826
 20
12.194485
 10
26.611793
 20
12.232873
 10
26.579167
 20
12.270769
 10
26.545981
 20
12.30816
 10
26.512225
 20
12.345035
 10
26.47788
 20
12.381381
 10
26.442997
 20
12.4172
 10
26.407577
 20
12.452477
 10
26.371594
 20
12.487203
 10
26.335103
 20
12.521374
 10
26.298077
 20
12.554979
 10
26.260541
 20
12.588007
 10
26.222497
 20
12.62046
 10
26.183973
 20
12.652316
 10
26.144942
 20
12.683582
 10
26.105432
 20
12.714242
 10
26.065469
 20
12.74429
 10
26.025054
 20
12.77372
 10
25.98419
 20
12.802525
 10
25.942899
 20
12.830698
 10
25.901158
 20
12.858241
 10
25.858994
 20
12.88512
 10
25.816436
 20
12.91134
 10
25.773481
 20
12.936899
 10
25.730134
 20
12.961822
 10
25.686388
 20
12.986058
 10
25.642306
 20
13.009632
 10
25.597856
 20
13.032519
 10
25.553039
 20
13.054717
 10
25.507911
 20
13.076228
 10
25.462446
 20
13.097051
 10
25.41667
 20
13.117159
 10
25.370582
 20
13.136553
 10
25.324214
 20
13.155232
 10
25.277563
 20
13.173224
 10
25.230629
 20
13.190475
 10
25.18344
 20
13.207011
 10
25.13603
 20
13.222807
 10
25.088333
 20
13.237888
 10
25.040441
 20
13.252228
 10
24.992322
 20
13.265828
 10
24.944006
 20
13.278687
 10
24.895519
 20
13.290805
 10
24.846806
 20
13.302182
 10
24.797957
 20
13.312791
 10
24.748935
 20
13.32266
 10
24.69977
 20
13.331788
 10
24.650465
 20
13.340149
 10
24.601049
 20
13.347743
 10
24.551519
 20
13.354569
 10
24.501904
 20
13.360628
 10
24.452176
 20
13.36592
 10
24.402392
 20
13.37047
 10
24.352524
 20
13.374227
 10
24.302628
 20
13.377217
 10
24.252675
 20
13.379599
 10
24.202693
 20
13.380921
 10
24.152711
 20
13.381715
 10
24.132338
 20
13.38198
  0
LWPOLYLINE
  5
60
100
AcDbEntity
  8
0
  6
ByLayer
 62
    7
370
   -1
100
AcDbPolyline
 90
   66
 70
    0
 43
0
 10
35.131273
 20
0.132723
 10
35.181253
 20
0.132723
 10
35.231121
 20
0.136692
 10
35.280707
 20
0.143042
 10
35.329956
 20
0.151773
 10
35.378695
 20
0.162885
 10
35.426786
 20
0.176379
 10
35.474172
 20
0.192254
 10
35.52071
 20
0.21051
 10
35.566231
 20
0.231148
 10
35.61071
 20
0.253902
 10
35.653975
 20
0.279037
 10
35.695914
 20
0.306236
 10
35.736467
 20
0.335499
 10
35.775498
 20
0.366746
 10
35.81292
 20
0.399899
 10
35.848623
 20
0.434877
 10
35.882545
 20
0.471601
 10
35.914607
 20
0.509965
 10
35.944691
 20
0.549891
 10
35.972744
 20
0.591271
 10
35.998832
 20
0.634001
 10
36.022592
 20
0.677975
 10
36.044208
 20
0.723087
 10
36.063602
 20
0.76923
 10
36.080641
 20
0.816246
 10
36.09522
 20
0.864083
 10
36.107364
 20
0.912581
 10
36.117233
 20
0.961608
 10
36.124562
 20
1.011085
 10
36.129351
 20
1.060853
 10
36.131732
 20
1.11078
 10
36.131732
 20
1.131682
 10
36.131732
 20
4.13168
 10
36.131732
 20
4.181659
 10
36.126652
 20
4.231507
 10
36.120434
 20
4.281116
 10
36.111677
 20
4.330328
 10
36.10067
 20
4.379065
 10
36.086832
 20
4.427192
 10
36.070825
 20
4.474579
 10
36.052622
 20
4.521093
 10
36.032037
 20
4.566627
 10
36.009177
 20
4.611104
 10
35.984121
 20
4.654363
 10
35.956972
 20
4.696299
 10
35.927622
 20
4.73686
 10
35.89638
 20
4.775886
 10
35.863218
 20
4.813298
 10
35.82825
 20
4.849016
 10
35.791505
 20
4.882962
 10
35.753151
 20
4.915003
 10
35.713218
 20
4.945086
 10
35.671845
 20
4.973132
 10
35.629115
 20
4.999061
 10
35.585144
 20
5.022874
 10
35.540019
 20
5.044305
 10
35.493902
 20
5.06362
 10
35.446857
 20
5.080553
 10
35.399049
 20
5.095105
 10
35.350536
 20
5.107276
 10
35.301514
 20
5.117065
 10
35.252039
 20
5.124209
 10
35.202282
 20
5.128972
 10
35.152329
 20
5.131617
 10
35.131532
 20
5.131882
  0
LWPOLYLINE
  5
61
100
AcDbEntity
  8
0
  6
ByLayer
 62
    7
370
   -1
100
AcDbPolyline
 90
   66
 70
    0
 43
0
 10
35.131554
 20
15.132774
 10
35.181536
 20
15.133832
 10
35.231405
 20
15.137695
 10
35.28099
 20
15.14394
 10
35.330237
 20
15.152618
 10
35.378978
 20
15.163783
 10
35.427069
 20
15.177356
 10
35.474453
 20
15.193311
 10
35.52099
 20
15.21162
 10
35.566514
 20
15.232231
 10
35.610991
 20
15.255091
 10
35.654258
 20
15.280147
 10
35.696194
 20
15.307333
 10
35.73675
 20
15.336595
 10
35.775781
 20
15.367837
 10
35.813203
 20
15.40099
 10
35.848904
 20
15.435973
 10
35.882828
 20
15.472694
 10
35.914888
 20
15.511069
 10
35.944974
 20
15.550995
 10
35.973027
 20
15.592376
 10
35.999089
 20
15.635108
 10
36.022848
 20
15.679082
 10
36.044465
 20
15.724191
 10
36.063859
 20
15.770321
 10
36.080898
 20
15.817356
 10
36.095476
 20
15.865179
 10
36.107621
 20
15.913672
 10
36.11749
 20
15.962712
 10
36.124818
 20
16.012176
 10
36.129607
 20
16.061939
 10
36.131989
 20
16.111881
 10
36.131989
 20
16.132677
 10
36.131989
 20
19.132667
 10
36.131989
 20
19.182647
 10
36.126909
 20
19.232502
 10
36.120691
 20
19.282106
 10
36.111933
 20
19.331337
 10
36.100927
 20
19.380074
 10
36.087089
 20
19.428188
 10
36.071082
 20
19.475564
 10
36.052878
 20
19.522083
 10
36.032294
 20
19.567634
 10
36.009434
 20
19.612091
 10
35.984378
 20
19.655353
 10
35.957226
 20
19.697311
 10
35.927876
 20
19.737853
 10
35.896634
 20
19.776884
 10
35.863474
 20
19.814304
 10
35.828507
 20
19.850023
 10
35.791762
 20
19.883945
 10
35.753408
 20
19.915991
 10
35.713474
 20
19.946082
 10
35.672099
 20
19.974139
 10
35.629371
 20
20.000094
 10
35.5854
 20
20.023907
 10
35.540273
 20
20.04547
 10
35.494159
 20
20.064732
 10
35.447111
 20
20.081665
 10
35.399303
 20
20.096243
 10
35.35079
 20
20.108414
 10
35.301768
 20
20.118151
 10
35.252293
 20
20.125401
 10
35.202539
 20
20.130189
 10
35.152585
 20
20.132571
 10
35.131789
 20
20.132835
  0
LWPOLYLINE
  5
62
100
AcDbEntity
  8
0
  6
ByLayer
 62
    7
370
   -1
100
AcDbPolyline
 90
   66
 70
    0
 43
0
 10
35.131837
 20
30.132828
 10
35.181819
 20
30.133886
 10
35.231685
 20
30.137749
 10
35.281273
 20
30.143993
 10
35.33052
 20
30.152672
 10
35.379259
 20
30.163837
 10
35.427349
 20
30.17741
 10
35.474736
 20
30.193391
 10
35.521273
 20
30.2117
 10
35.566798
 20
30.232311
 10
35.611274
 20
30.255197
 10
35.654538
 20
30.280253
 10
35.696478
 20
30.307439
 10
35.737033
 20
30.336702
 10
35.776064
 20
30.367944
 10
35.813487
 20
30.401096
 10
35.849187
 20
30.436077
 10
35.883112
 20
30.472804
 10
35.915171
 20
30.511176
 10
35.945254
 20
30.551102
 10
35.973308
 20
30.592485
 10
35.999396
 20
30.635215
 10
36.023155
 20
30.679189
 10
36.044772
 20
30.7243
 10
36.064166
 20
30.770427
 10
36.081205
 20
30.817462
 10
36.095783
 20
30.865286
 10
36.107928
 20
30.913778
 10
36.117796
 20
30.962819
 10
36.125125
 20
31.01228
 10
36.129914
 20
31.062048
 10
36.132296
 20
31.111991
 10
36.132296
 20
31.132787
 10
36.132296
 20
34.132774
 10
36.132296
 20
34.182754
 10
36.127216
 20
34.232607
 10
36.120998
 20
34.282213
 10
36.11224
 20
34.331444
 10
36.101234
 20
34.380178
 10
36.087396
 20
34.428295
 10
36.071389
 20
34.475673
 10
36.053185
 20
34.522192
 10
36.032601
 20
34.56774
 10
36.009741
 20
34.612201
 10
35.984685
 20
34.65546
 10
35.957536
 20
34.697415
 10
35.928186
 20
34.73796
 10
35.896944
 20
34.776994
 10
35.863781
 20
34.814413
 10
35.828817
 20
34.850129
 10
35.792069
 20
34.884052
 10
35.753715
 20
34.916101
 10
35.713781
 20
34.946189
 10
35.672408
 20
34.974243
 10
35.629681
 20
35.000198
 10
35.58571
 20
35.023958
 10
35.540583
 20
35.045521
 10
35.494466
 20
35.064783
 10
35.44742
 20
35.081716
 10
35.399613
 20
35.096295
 10
35.351099
 20
35.108465
 10
35.302077
 20
35.118202
 10
35.252603
 20
35.125452
 10
35.202848
 20
35.130241
 10
35.152895
 20
35.132622
 10
35.132099
 20
35.132886
  0
LWPOLYLINE
  5
63
100
AcDbEntity
  8
0
  6
ByLayer
 62
    7
370
   -1
100
AcDbPolyline
 90
   66
 70
    0
 43
0
 10
35.132202
 20
45.13281
 10
35.182184
 20
45.133869
 10
35.232053
 20
45.137732
 10
35.281641
 20
45.143976
 10
35.330888
 20
45.15268
 10
35.379626
 20
45.163846
 10
35.427717
 20
45.177419
 10
35.475101
 20
45.193373
 10
35.521641
 20
45.211682
 10
35.567163
 20
45.232293
 10
35.611642
 20
45.25518
 10
35.654906
 20
45.280236
 10
35.696843
 20
45.307424
 10
35.737398
 20
45.336687
 10
35.776432
 20
45.367929
 10
35.813852
 20
45.401081
 10
35.849555
 20
45.436062
 10
35.883477
 20
45.472789
 10
35.915536
 20
45.511158
 10
35.945622
 20
45.551089
 10
35.973676
 20
45.592467
 10
35.999763
 20
45.635197
 10
36.023523
 20
45.679174
 10
36.045139
 20
45.724282
 10
36.064533
 20
45.77041
 10
36.081572
 20
45.817447
 10
36.096151
 20
45.865271
 10
36.108295
 20
45.913763
 10
36.118164
 20
45.962801
 10
36.125493
 20
46.012265
 10
36.130282
 20
46.062033
 10
36.132663
 20
46.111976
 10
36.132663
 20
46.132772
 10
36.132663
 20
49.132759
 10
36.132663
 20
49.182736
 10
36.127583
 20
49.232592
 10
36.121366
 20
49.282198
 10
36.112608
 20
49.331429
 10
36.101601
 20
49.380163
 10
36.087764
 20
49.42828
 10
36.071756
 20
49.475656
 10
36.053553
 20
49.522177
 10
36.032969
 20
49.567725
 10
36.010109
 20
49.612183
 10
35.985053
 20
49.655445
 10
35.957904
 20
49.6974
 10
35.928551
 20
49.737945
 10
35.897309
 20
49.776976
 10
35.864149
 20
49.814396
 10
35.829182
 20
49.850112
 10
35.792436
 20
49.884039
 10
35.754082
 20
49.916086
 10
35.714149
 20
49.946174
 10
35.672774
 20
49.974228
 10
35.630046
 20
50.000183
 10
35.586075
 20
50.023969
 10
35.540948
 20
50.045506
 10
35.494834
 20
50.064768
 10
35.447788
 20
50.081701
 10
35.399978
 20
50.09628
 10
35.351464
 20
50.10845
 10
35.302442
 20
50.118187
 10
35.252971
 20
50.125437
 10
35.203216
 20
50.130226
 10
35.15326
 20
50.132607
 10
35.132464
 20
50.132871
  0
ENDSEC
  0
SECTION
  2
OBJECTS
  0
DICTIONARY
  5
C
330
0
100
AcDbDictionary
281
    1
  3
ACAD_GROUP
350
D
  0
DICTIONARY
  5
D
330
C
100
AcDbDictionary
281
    1
  0
ENDSEC
  0
EOF
