<?xml version="1.0" encoding="UTF-8" standalone="no"?>
<svg
   xmlns:dc="http://purl.org/dc/elements/1.1/"
   xmlns:cc="http://creativecommons.org/ns#"
   xmlns:rdf="http://www.w3.org/1999/02/22-rdf-syntax-ns#"
   xmlns:svg="http://www.w3.org/2000/svg"
   xmlns="http://www.w3.org/2000/svg"
   xmlns:sodipodi="http://sodipodi.sourceforge.net/DTD/sodipodi-0.dtd"
   xmlns:inkscape="http://www.inkscape.org/namespaces/inkscape"
   width="744.094488189"
   height="1052.36220472"
   id="svg2"
   version="1.1"
   inkscape:version="0.91 r13725"
   sodipodi:docname="LUHC-01_Side_Solid.svg">
  <metadata
     id="metadata1104">
    <rdf:RDF>
      <cc:Work
         rdf:about="">
        <dc:format>image/svg+xml</dc:format>
        <dc:type
           rdf:resource="http://purl.org/dc/dcmitype/StillImage" />
        <dc:title></dc:title>
      </cc:Work>
    </rdf:RDF>
  </metadata>
  <sodipodi:namedview
     pagecolor="#ffffff"
     bordercolor="#666666"
     borderopacity="1"
     objecttolerance="10"
     gridtolerance="10"
     guidetolerance="10"
     inkscape:pageopacity="0"
     inkscape:pageshadow="2"
     inkscape:window-width="1059"
     inkscape:window-height="480"
     id="namedview1102"
     showgrid="false"
     inkscape:zoom="0.22425739"
     inkscape:cx="372.04724"
     inkscape:cy="526.18109"
     inkscape:window-x="0"
     inkscape:window-y="0"
     inkscape:window-maximized="0"
     inkscape:current-layer="g20" />
  <desc
     id="desc4">G:\GPIO_CASE_VER1.1\hacker case mini filled side.dxf - scale = 1.000000, origin = (0.000000, 0.000000), auto = False</desc>
  <defs
     id="defs6">
    <marker
       refY="0.0"
       refX="0.0"
       style="overflow:visible"
       id="DistanceX"
       orient="auto">
      <path
         style="stroke:#000000; stroke-width:0.5"
         d="M 3,-3 L -3,3 M 0,-5 L  0,5"
         id="path9" />
    </marker>
    <pattern
       height="8"
       width="8"
       patternUnits="userSpaceOnUse"
       y="0"
       x="0"
       id="Hatch">
      <path
         linecap="square"
         stroke="#000000"
         stroke-width="0.25"
         d="M8 4 l-4,4"
         id="path12" />
      <path
         linecap="square"
         stroke="#000000"
         stroke-width="0.25"
         d="M6 2 l-4,4"
         id="path14" />
      <path
         linecap="square"
         stroke="#000000"
         stroke-width="0.25"
         d="M4 0 l-4,4"
         id="path16" />
    </pattern>
    <symbol
       id="*MODEL_SPACE" />
    <symbol
       id="*PAPER_SPACE" />
  </defs>
  <g
     inkscape:label="0"
     inkscape:groupmode="layer"
     id="g20">
    <path
       id="path1100"
       style="stroke:#000000;fill:none"
       d="m 1087.796,170.00506 -7e-4,0.0737 m 0.01,-0.25064 -0.01,0.17696 m 0.025,-0.3533 -0.017,0.17634 m 0.043,-0.35161 -0.026,0.17527 m 0.06,-0.34903 -0.034,0.17376 m 0.078,-0.34558 -0.043,0.17182 m 0.095,-0.34127 -0.052,0.16945 m 0.1117,-0.33612 -0.06,0.16667 m 0.1284,-0.33012 -0.068,0.16345 m 0.1447,-0.32328 -0.076,0.15983 m 0.1606,-0.31565 -0.084,0.15582 m 0.1762,-0.30723 -0.092,0.15141 m 0.1914,-0.29803 -0.099,0.14662 m 0.206,-0.2881 -0.1066,0.14148 m 0.2202,-0.27744 -0.1136,0.13596 m 0.2338,-0.26609 -0.1202,0.13013 m 0.2467,-0.25408 -0.1265,0.12395 m 0.2591,-0.24142 -0.1326,0.11747 m 0.2709,-0.22817 -0.1383,0.1107 m 0.282,-0.21435 -0.1437,0.10365 m 0.2923,-0.19999 -0.1486,0.0963 m 0.3019,-0.18513 -0.1533,0.0888 m 0.3109,-0.1698 -0.1576,0.081 m 0.319,-0.15405 -0.1614,0.073 m 0.3262,-0.13793 -0.1648,0.0649 m 0.3327,-0.12145 -0.1679,0.0566 m 0.3384,-0.10466 -0.1705,0.0481 m 0.3431,-0.0876 -0.1726,0.0395 m 0.3471,-0.0704 -0.1745,0.0308 m 0.3502,-0.0529 -0.1757,0.0221 m 0.3524,-0.0354 -0.1767,0.0133 m 0.3538,-0.0177 -0.1771,0.004 m 120.6495,-0.004 -120.4724,0 m 120.5461,7.7e-4 -0.074,-7.7e-4 m 0.2507,0.009 -0.177,-0.008 m 0.3533,0.025 -0.1763,-0.0169 m 0.3516,0.0427 -0.1753,-0.0257 m 0.349,0.0602 -0.1737,-0.0345 m 0.3456,0.0776 -0.1719,-0.0431 m 0.3413,0.0947 -0.1694,-0.0516 m 0.3361,0.11168 -0.1667,-0.06 m 0.3301,0.12835 -0.1634,-0.0683 m 0.3233,0.14468 -0.1599,-0.0764 m 0.3157,0.16065 -0.1558,-0.0843 m 0.3072,0.17623 -0.1514,-0.092 m 0.298,0.19137 -0.1466,-0.0994 m 0.2881,0.20602 -0.1415,-0.10661 m 0.2774,0.22016 -0.1359,-0.11355 m 0.2661,0.23376 -0.1302,-0.12021 m 0.2541,0.24676 -0.1239,-0.12655 m 0.2414,0.25915 -0.1175,-0.1326 m 0.2282,0.2709 -0.1107,-0.1383 m 0.2143,0.28196 -0.1036,-0.14366 m 0.2,0.29232 -0.096,-0.14866 m 0.1852,0.30195 -0.089,-0.15329 m 0.1698,0.31082 -0.081,-0.15753 m 0.154,0.31892 -0.073,-0.16139 m 0.1379,0.32623 -0.065,-0.16484 m 0.1215,0.33271 -0.057,-0.16787 m 0.1047,0.33836 -0.048,-0.17049 m 0.088,0.34317 -0.039,-0.17268 m 0.07,0.34712 -0.031,-0.17444 m 0.053,0.35021 -0.022,-0.17577 m 0.035,0.35242 -0.013,-0.17665 m 0.018,0.35374 -0,-0.17709 m 0,10.80701 0,-10.62992 m -7e-4,10.7036 7e-4,-0.0737 m -0.01,0.25064 0.01,-0.17696 m -0.025,0.3533 0.017,-0.17634 m -0.043,0.35161 0.026,-0.17527 m -0.06,0.34903 0.034,-0.17376 m -0.078,0.34558 0.043,-0.17182 m -0.095,0.34127 0.052,-0.16945 m -0.1117,0.33612 0.06,-0.16667 m -0.1284,0.33012 0.068,-0.16345 m -0.1447,0.32328 0.076,-0.15983 m -0.1606,0.31565 0.084,-0.15582 m -0.1762,0.30723 0.092,-0.15141 m -0.1914,0.29803 0.099,-0.14662 m -0.206,0.2881 0.1066,-0.14148 m -0.2202,0.27744 0.1136,-0.13596 m -0.2338,0.26609 0.1202,-0.13013 m -0.2467,0.25408 0.1265,-0.12395 m -0.2591,0.24142 0.1326,-0.11747 m -0.2709,0.22817 0.1383,-0.1107 m -0.282,0.21435 0.1437,-0.10365 m -0.2923,0.19999 0.1486,-0.0963 m -0.3019,0.18513 0.1533,-0.0888 m -0.3109,0.1698 0.1576,-0.081 m -0.3189,0.15405 0.1613,-0.073 m -0.3262,0.13793 0.1649,-0.0649 m -0.3328,0.12145 0.1679,-0.0566 m -0.3383,0.10466 0.1704,-0.0481 m -0.3431,0.0876 0.1727,-0.0395 m -0.3472,0.0704 0.1745,-0.0308 m -0.3502,0.0529 0.1757,-0.0221 m -0.3524,0.0354 0.1767,-0.0133 m -0.3538,0.0177 0.1771,-0.004 m -7.2637,0.004 7.0866,0 m -7.0866,35.43307 0,-35.43307 m 7.0866,35.43307 -7.0866,0 m 7.1603,7.6e-4 -0.074,-7.6e-4 m 0.2507,0.009 -0.177,-0.008 m 0.3533,0.0251 -0.1763,-0.017 m 0.3516,0.0427 -0.1753,-0.0257 m 0.349,0.0602 -0.1737,-0.0345 m 0.3456,0.0776 -0.1719,-0.0431 m 0.3413,0.0947 -0.1694,-0.0516 m 0.3361,0.11169 -0.1667,-0.06 m 0.3301,0.12834 -0.1634,-0.0683 m 0.3233,0.14468 -0.1599,-0.0764 m 0.3157,0.16066 -0.1558,-0.0843 m 0.3072,0.17623 -0.1514,-0.092 m 0.298,0.19136 -0.1466,-0.0994 m 0.2881,0.20602 -0.1415,-0.10662 m 0.2774,0.22017 -0.1359,-0.11355 m 0.2661,0.23375 -0.1302,-0.1202 m 0.2541,0.24676 -0.1239,-0.12656 m 0.2414,0.25915 -0.1175,-0.13259 m 0.2282,0.2709 -0.1107,-0.13831 m 0.2143,0.28197 -0.1036,-0.14366 m 0.2,0.29232 -0.096,-0.14866 m 0.1852,0.30194 -0.089,-0.15328 m 0.1698,0.31082 -0.081,-0.15754 m 0.154,0.31893 -0.073,-0.16139 m 0.1379,0.32622 -0.065,-0.16483 m 0.1215,0.33271 -0.057,-0.16788 m 0.1047,0.33837 -0.048,-0.17049 m 0.088,0.34317 -0.039,-0.17268 m 0.07,0.34712 -0.031,-0.17444 m 0.053,0.35021 -0.022,-0.17577 m 0.035,0.35242 -0.013,-0.17665 m 0.018,0.35374 -0,-0.17709 m 0,10.80701 0,-10.62992 m -7e-4,10.7036 7e-4,-0.0737 m -0.01,0.25064 0.01,-0.17696 m -0.025,0.3533 0.017,-0.17634 m -0.043,0.3516 0.026,-0.17526 m -0.06,0.34903 0.034,-0.17377 m -0.078,0.34559 0.043,-0.17182 m -0.095,0.34127 0.052,-0.16945 m -0.1117,0.33611 0.06,-0.16666 m -0.1284,0.33011 0.068,-0.16345 m -0.1447,0.32329 0.076,-0.15984 m -0.1606,0.31565 0.084,-0.15581 m -0.1762,0.30722 0.092,-0.15141 m -0.1914,0.29804 0.099,-0.14663 m -0.206,0.2881 0.1066,-0.14147 m -0.2202,0.27744 0.1136,-0.13597 m -0.2338,0.2661 0.1202,-0.13013 m -0.2467,0.25408 0.1265,-0.12395 m -0.2591,0.24142 0.1326,-0.11747 m -0.2709,0.22817 0.1383,-0.1107 m -0.282,0.21435 0.1437,-0.10365 m -0.2923,0.19999 0.1486,-0.0963 m -0.3019,0.18512 0.1533,-0.0888 m -0.3109,0.1698 0.1576,-0.081 m -0.3189,0.15406 0.1613,-0.073 m -0.3262,0.13792 0.1649,-0.0649 m -0.3328,0.12145 0.1679,-0.0566 m -0.3383,0.10467 0.1704,-0.0481 m -0.3431,0.0876 0.1727,-0.0395 m -0.3472,0.0704 0.1745,-0.0308 m -0.3502,0.0529 0.1757,-0.0221 m -0.3524,0.0354 0.1767,-0.0133 m -0.3538,0.0177 0.1771,-0.004 m -7.2637,0.004 7.0866,0 m -7.0866,35.43308 0,-35.43308 m 7.0866,35.43308 -7.0866,0 m 7.1603,7.6e-4 -0.074,-7.6e-4 m 0.2507,0.009 -0.177,-0.008 m 0.3533,0.0251 -0.1763,-0.017 m 0.3516,0.0427 -0.1753,-0.0257 m 0.349,0.0602 -0.1737,-0.0345 m 0.3456,0.0776 -0.1719,-0.0431 m 0.3413,0.0947 -0.1694,-0.0516 m 0.3361,0.11168 -0.1667,-0.06 m 0.3301,0.12834 -0.1634,-0.0683 m 0.3233,0.14468 -0.1599,-0.0764 m 0.3157,0.16066 -0.1558,-0.0843 m 0.3072,0.17623 -0.1514,-0.0919 m 0.298,0.19136 -0.1466,-0.0994 m 0.2881,0.20603 -0.1415,-0.10662 m 0.2774,0.22017 -0.1359,-0.11355 m 0.2661,0.23375 -0.1302,-0.1202 m 0.2541,0.24676 -0.1239,-0.12656 m 0.2414,0.25915 -0.1175,-0.13259 m 0.2282,0.27089 -0.1107,-0.1383 m 0.2143,0.28196 -0.1036,-0.14366 m 0.2,0.29232 -0.096,-0.14866 m 0.1852,0.30195 -0.089,-0.15329 m 0.1698,0.31082 -0.081,-0.15753 m 0.154,0.31893 -0.073,-0.1614 m 0.1379,0.32623 -0.065,-0.16483 m 0.1215,0.3327 -0.057,-0.16787 m 0.1047,0.33836 -0.048,-0.17049 m 0.088,0.34318 -0.039,-0.17269 m 0.07,0.34713 -0.031,-0.17444 m 0.053,0.3502 -0.022,-0.17576 m 0.035,0.35241 -0.013,-0.17665 m 0.018,0.35374 -0,-0.17709 m 0,10.80701 0,-10.62992 m -7e-4,10.70361 7e-4,-0.0737 m -0.01,0.25065 0.01,-0.17696 m -0.025,0.35329 0.017,-0.17633 m -0.043,0.3516 0.026,-0.17527 m -0.06,0.34903 0.034,-0.17376 m -0.078,0.34559 0.043,-0.17183 m -0.095,0.34128 0.052,-0.16945 m -0.1117,0.33611 0.06,-0.16666 m -0.1284,0.33011 0.068,-0.16345 m -0.1447,0.32328 0.076,-0.15983 m -0.1606,0.31565 0.084,-0.15582 m -0.1762,0.30723 0.092,-0.15141 m -0.1914,0.29804 0.099,-0.14663 m -0.206,0.2881 0.1066,-0.14147 m -0.2202,0.27744 0.1136,-0.13597 m -0.2338,0.26609 0.1202,-0.13012 m -0.2467,0.25407 0.1265,-0.12395 m -0.2591,0.24142 0.1326,-0.11747 m -0.2709,0.22817 0.1383,-0.1107 m -0.282,0.21435 0.1437,-0.10365 m -0.2923,0.19999 0.1486,-0.0963 m -0.3019,0.18513 0.1533,-0.0888 m -0.3109,0.1698 0.1576,-0.081 m -0.3189,0.15406 0.1613,-0.0731 m -0.3262,0.13793 0.1649,-0.0649 m -0.3328,0.12144 0.1679,-0.0566 m -0.3383,0.10467 0.1704,-0.0481 m -0.3431,0.0876 0.1727,-0.0395 m -0.3472,0.0704 0.1745,-0.0308 m -0.3502,0.0529 0.1757,-0.0221 m -0.3524,0.0354 0.1767,-0.0133 m -0.3538,0.0177 0.1771,-0.004 m -7.2637,0.004 7.0866,0 m -7.0866,35.43307 0,-35.43307 m 7.0866,35.43307 -7.0866,0 m 7.1603,7.7e-4 -0.074,-7.7e-4 m 0.2507,0.009 -0.177,-0.008 m 0.3533,0.025 -0.1763,-0.0169 m 0.3516,0.0427 -0.1753,-0.0257 m 0.349,0.0602 -0.1737,-0.0345 m 0.3456,0.0776 -0.1719,-0.0431 m 0.3413,0.0947 -0.1694,-0.0516 m 0.3361,0.11168 -0.1667,-0.06 m 0.3301,0.12835 -0.1634,-0.0683 m 0.3233,0.14468 -0.1599,-0.0764 m 0.3157,0.16065 -0.1558,-0.0843 m 0.3072,0.17623 -0.1514,-0.092 m 0.298,0.19137 -0.1466,-0.0994 m 0.2881,0.20602 -0.1415,-0.10661 m 0.2774,0.22016 -0.1359,-0.11355 m 0.2661,0.23376 -0.1302,-0.12021 m 0.2541,0.24676 -0.1239,-0.12655 m 0.2414,0.25915 -0.1175,-0.1326 m 0.2282,0.2709 -0.1107,-0.1383 m 0.2143,0.28196 -0.1036,-0.14366 m 0.2,0.29232 -0.096,-0.14866 m 0.1852,0.30195 -0.089,-0.15329 m 0.1698,0.31082 -0.081,-0.15753 m 0.154,0.31892 -0.073,-0.16139 m 0.1379,0.32623 -0.065,-0.16484 m 0.1215,0.33271 -0.057,-0.16787 m 0.1047,0.33836 -0.048,-0.17049 m 0.088,0.34317 -0.039,-0.17268 m 0.07,0.34712 -0.031,-0.17444 m 0.053,0.35021 -0.022,-0.17577 m 0.035,0.35242 -0.013,-0.17665 m 0.018,0.35374 -0,-0.17709 m 0,10.80701 0,-10.62992 m -7e-4,10.7036 7e-4,-0.0737 m -0.01,0.25064 0.01,-0.17696 m -0.025,0.3533 0.017,-0.17634 m -0.043,0.35161 0.026,-0.17527 m -0.06,0.34903 0.034,-0.17376 m -0.078,0.34558 0.043,-0.17182 m -0.095,0.34127 0.052,-0.16945 m -0.1117,0.33612 0.06,-0.16667 m -0.1284,0.33011 0.068,-0.16344 m -0.1447,0.32328 0.076,-0.15984 m -0.1606,0.31566 0.084,-0.15582 m -0.1762,0.30723 0.092,-0.15141 m -0.1914,0.29803 0.099,-0.14662 m -0.206,0.28809 0.1066,-0.14147 m -0.2202,0.27744 0.1136,-0.13597 m -0.2338,0.2661 0.1202,-0.13013 m -0.2467,0.25408 0.1265,-0.12395 m -0.2591,0.24142 0.1326,-0.11747 m -0.2709,0.22817 0.1383,-0.1107 m -0.282,0.21435 0.1437,-0.10365 m -0.2923,0.19999 0.1486,-0.0963 m -0.3019,0.18513 0.1533,-0.0888 m -0.3109,0.1698 0.1576,-0.081 m -0.3189,0.15405 0.1613,-0.073 m -0.3262,0.13793 0.1649,-0.0649 m -0.3328,0.12145 0.1679,-0.0566 m -0.3383,0.10466 0.1704,-0.0481 m -0.3431,0.0876 0.1727,-0.0395 m -0.3472,0.0704 0.1745,-0.0308 m -0.3502,0.0529 0.1757,-0.0221 m -0.3524,0.0354 0.1767,-0.0133 m -0.3538,0.0177 0.1771,-0.004 m -120.6495,0.004 120.4724,0 m -120.5461,-7.7e-4 0.074,7.7e-4 m -0.2507,-0.009 0.177,0.008 m -0.3533,-0.0251 0.1763,0.0169 m -0.3516,-0.0427 0.1753,0.0257 m -0.349,-0.0602 0.1737,0.0345 m -0.3455,-0.0776 0.1718,0.0431 m -0.3413,-0.0947 0.1695,0.0516 m -0.3362,-0.11168 0.1667,0.0601 m -0.3301,-0.12835 0.1634,0.0683 m -0.3232,-0.14468 0.1598,0.0764 m -0.3157,-0.16065 0.1559,0.0843 m -0.3073,-0.17623 0.1514,0.092 m -0.298,-0.19137 0.1466,0.0994 m -0.2881,-0.20602 0.1415,0.10661 m -0.2774,-0.22016 0.1359,0.11355 m -0.2661,-0.23376 0.1302,0.12021 m -0.2541,-0.24676 0.1239,0.12655 m -0.2414,-0.25915 0.1175,0.1326 m -0.2282,-0.2709 0.1107,0.1383 m -0.2143,-0.28196 0.1036,0.14366 m -0.2,-0.29232 0.096,0.14866 m -0.1852,-0.30195 0.089,0.15329 m -0.1698,-0.31082 0.081,0.15753 m -0.154,-0.31892 0.073,0.16139 m -0.1379,-0.32623 0.065,0.16484 m -0.1215,-0.33271 0.057,0.16787 m -0.1047,-0.33836 0.048,0.17049 m -0.088,-0.34317 0.04,0.17268 m -0.07,-0.34713 0.031,0.17445 m -0.053,-0.35021 0.022,0.17576 m -0.035,-0.35241 0.013,0.17665 m -0.018,-0.35374 0,0.17709 m -0,-10.80701 0,10.62992 m 7e-4,-10.7036 -7e-4,0.0737 m 0.01,-0.25064 -0.01,0.17696 m 0.025,-0.3533 -0.017,0.17634 m 0.043,-0.35161 -0.026,0.17527 m 0.06,-0.34903 -0.034,0.17376 m 0.078,-0.34558 -0.043,0.17182 m 0.095,-0.34127 -0.052,0.16945 m 0.1117,-0.33612 -0.06,0.16667 m 0.1284,-0.33012 -0.068,0.16345 m 0.1447,-0.32328 -0.076,0.15983 m 0.1606,-0.31565 -0.084,0.15582 m 0.1762,-0.30723 -0.092,0.15141 m 0.1914,-0.29803 -0.099,0.14662 m 0.206,-0.2881 -0.1066,0.14148 m 0.2202,-0.27744 -0.1136,0.13596 m 0.2338,-0.26609 -0.1202,0.13013 m 0.2467,-0.25408 -0.1265,0.12395 m 0.2591,-0.24142 -0.1326,0.11747 m 0.2709,-0.22817 -0.1383,0.1107 m 0.282,-0.21435 -0.1437,0.10365 m 0.2923,-0.19999 -0.1486,0.0963 m 0.3019,-0.18513 -0.1533,0.0888 m 0.3109,-0.1698 -0.1576,0.081 m 0.319,-0.15405 -0.1614,0.073 m 0.3262,-0.13793 -0.1648,0.0649 m 0.3327,-0.12145 -0.1679,0.0566 m 0.3384,-0.10466 -0.1705,0.0481 m 0.3431,-0.0876 -0.1726,0.0395 m 0.3471,-0.0704 -0.1745,0.0308 m 0.3502,-0.0529 -0.1757,0.0221 m 0.3524,-0.0354 -0.1767,0.0133 m 0.3538,-0.0177 -0.1771,0.004 m 7.2637,-0.004 -7.0866,0 m 7.0866,-35.43307 0,35.43307 m -7.0866,-35.43307 7.0866,0 m -7.1603,-7.6e-4 0.074,7.6e-4 m -0.2507,-0.009 0.177,0.008 m -0.3533,-0.0251 0.1763,0.0169 m -0.3516,-0.0427 0.1753,0.0257 m -0.349,-0.0602 0.1737,0.0345 m -0.3455,-0.0776 0.1718,0.0431 m -0.3413,-0.0947 0.1695,0.0516 m -0.3362,-0.11169 0.1667,0.0601 m -0.3301,-0.12834 0.1634,0.0683 m -0.3232,-0.14468 0.1598,0.0764 m -0.3157,-0.16066 0.1559,0.0843 m -0.3073,-0.17623 0.1514,0.092 m -0.298,-0.19136 0.1466,0.0994 m -0.2881,-0.20602 0.1415,0.10662 m -0.2774,-0.22017 0.1359,0.11355 m -0.2661,-0.23375 0.1302,0.1202 m -0.2541,-0.24676 0.1239,0.12656 m -0.2414,-0.25915 0.1175,0.13259 m -0.2282,-0.2709 0.1107,0.13831 m -0.2143,-0.28197 0.1036,0.14366 m -0.2,-0.29232 0.096,0.14866 m -0.1852,-0.30194 0.089,0.15328 m -0.1698,-0.31082 0.081,0.15754 m -0.154,-0.31893 0.073,0.16139 m -0.1379,-0.32622 0.065,0.16483 m -0.1215,-0.33271 0.057,0.16788 m -0.1047,-0.33837 0.048,0.17049 m -0.088,-0.34317 0.04,0.17268 m -0.07,-0.34712 0.031,0.17444 m -0.053,-0.35021 0.022,0.17577 m -0.035,-0.35242 0.013,0.17665 m -0.018,-0.35374 0,0.17709 m -0,-10.80701 0,10.62992 m 7e-4,-10.7036 -7e-4,0.0737 m 0.01,-0.25064 -0.01,0.17696 m 0.025,-0.3533 -0.017,0.17634 m 0.043,-0.3516 -0.026,0.17526 m 0.06,-0.34903 -0.034,0.17377 m 0.078,-0.34559 -0.043,0.17182 m 0.095,-0.34127 -0.052,0.16945 m 0.1117,-0.33611 -0.06,0.16666 m 0.1284,-0.33011 -0.068,0.16345 m 0.1447,-0.32329 -0.076,0.15984 m 0.1606,-0.31565 -0.084,0.15581 m 0.1762,-0.30722 -0.092,0.15141 m 0.1914,-0.29804 -0.099,0.14663 m 0.206,-0.2881 -0.1066,0.14147 m 0.2202,-0.27744 -0.1136,0.13597 m 0.2338,-0.26609 -0.1202,0.13012 m 0.2467,-0.25408 -0.1265,0.12396 m 0.2591,-0.24143 -0.1326,0.11747 m 0.2709,-0.22817 -0.1383,0.1107 m 0.282,-0.21435 -0.1437,0.10365 m 0.2923,-0.19999 -0.1486,0.0963 m 0.3019,-0.18512 -0.1533,0.0888 m 0.3109,-0.1698 -0.1576,0.081 m 0.319,-0.15406 -0.1614,0.073 m 0.3262,-0.13792 -0.1648,0.0649 m 0.3327,-0.12145 -0.1679,0.0566 m 0.3384,-0.10467 -0.1705,0.0481 m 0.3431,-0.0876 -0.1726,0.0395 m 0.3471,-0.0704 -0.1745,0.0308 m 0.3502,-0.0529 -0.1757,0.0221 m 0.3524,-0.0354 -0.1767,0.0133 m 0.3538,-0.0177 -0.1771,0.004 m 7.2637,-0.004 -7.0866,0 m 7.0866,-35.43308 0,35.43308 m -7.0866,-35.43308 7.0866,0 m -7.1603,-7.6e-4 0.074,7.6e-4 m -0.2507,-0.009 0.177,0.008 m -0.3533,-0.0251 0.1763,0.0169 m -0.3516,-0.0427 0.1753,0.0257 m -0.349,-0.0602 0.1737,0.0345 m -0.3455,-0.0776 0.1718,0.0431 m -0.3413,-0.0947 0.1695,0.0516 m -0.3362,-0.11168 0.1667,0.06 m -0.3301,-0.12834 0.1634,0.0683 m -0.3232,-0.14468 0.1598,0.0764 m -0.3157,-0.16066 0.1559,0.0843 m -0.3073,-0.17623 0.1514,0.092 m -0.298,-0.19136 0.1466,0.0994 m -0.2881,-0.20602 0.1415,0.10661 m -0.2774,-0.22017 0.1359,0.11356 m -0.2661,-0.23376 0.1302,0.1202 m -0.2541,-0.24676 0.1239,0.12656 m -0.2414,-0.25915 0.1175,0.13259 m -0.2282,-0.27089 0.1107,0.1383 m -0.2143,-0.28196 0.1036,0.14366 m -0.2,-0.29232 0.096,0.14866 m -0.1852,-0.30195 0.089,0.15329 m -0.1698,-0.31082 0.081,0.15753 m -0.154,-0.31893 0.073,0.1614 m -0.1379,-0.32623 0.065,0.16483 m -0.1215,-0.3327 0.057,0.16787 m -0.1047,-0.33836 0.048,0.17049 m -0.088,-0.34318 0.04,0.17269 m -0.07,-0.34713 0.031,0.17444 m -0.053,-0.3502 0.022,0.17576 m -0.035,-0.35241 0.013,0.17665 m -0.018,-0.35374 0,0.17709 m -0,-10.80701 0,10.62992 m 7e-4,-10.70361 -7e-4,0.0737 m 0.01,-0.25065 -0.01,0.17696 m 0.025,-0.35329 -0.017,0.17633 m 0.043,-0.3516 -0.026,0.17527 m 0.06,-0.34903 -0.034,0.17376 m 0.078,-0.34559 -0.043,0.17183 m 0.095,-0.34128 -0.052,0.16945 m 0.1117,-0.33611 -0.06,0.16666 m 0.1284,-0.33011 -0.068,0.16345 m 0.1447,-0.32328 -0.076,0.15983 m 0.1606,-0.31565 -0.084,0.15582 m 0.1762,-0.30723 -0.092,0.15141 m 0.1914,-0.29804 -0.099,0.14663 m 0.206,-0.2881 -0.1066,0.14147 m 0.2202,-0.27744 -0.1136,0.13597 m 0.2338,-0.26609 -0.1202,0.13012 m 0.2467,-0.25407 -0.1265,0.12395 m 0.2591,-0.24142 -0.1326,0.11747 m 0.2709,-0.22817 -0.1383,0.1107 m 0.282,-0.21435 -0.1437,0.10365 m 0.2923,-0.19999 -0.1486,0.0963 m 0.3019,-0.18513 -0.1533,0.0888 m 0.3109,-0.1698 -0.1576,0.081 m 0.319,-0.15406 -0.1614,0.073 m 0.3262,-0.13793 -0.1648,0.0649 m 0.3327,-0.12144 -0.1679,0.0566 m 0.3384,-0.10467 -0.1705,0.0481 m 0.3431,-0.0876 -0.1726,0.0395 m 0.3471,-0.0704 -0.1745,0.0308 m 0.3502,-0.0529 -0.1757,0.0221 m 0.3524,-0.0354 -0.1767,0.0133 m 0.3538,-0.0177 -0.1771,0.004 m 7.2637,-0.004 -7.0866,0 m 7.0866,-35.43307 0,35.43307 m -7.0866,-35.43307 7.0866,0 m -7.1603,-7.7e-4 0.074,7.7e-4 m -0.2507,-0.009 0.177,0.008 m -0.3533,-0.0251 0.1763,0.0169 m -0.3516,-0.0427 0.1753,0.0257 m -0.349,-0.0602 0.1737,0.0345 m -0.3455,-0.0776 0.1718,0.0431 m -0.3413,-0.0947 0.1695,0.0516 m -0.3362,-0.11168 0.1667,0.0601 m -0.3301,-0.12835 0.1634,0.0683 m -0.3232,-0.14468 0.1598,0.0764 m -0.3157,-0.16065 0.1559,0.0843 m -0.3073,-0.17623 0.1514,0.092 m -0.298,-0.19137 0.1466,0.0994 m -0.2881,-0.20602 0.1415,0.10661 m -0.2774,-0.22016 0.1359,0.11355 m -0.2661,-0.23376 0.1302,0.12021 m -0.2541,-0.24676 0.1239,0.12655 m -0.2414,-0.25915 0.1175,0.1326 m -0.2282,-0.2709 0.1107,0.1383 m -0.2143,-0.28196 0.1036,0.14366 m -0.2,-0.29232 0.096,0.14866 m -0.1852,-0.30195 0.089,0.15329 m -0.1698,-0.31082 0.081,0.15753 m -0.154,-0.31892 0.073,0.16139 m -0.1379,-0.32623 0.065,0.16484 m -0.1215,-0.33271 0.057,0.16787 m -0.1047,-0.33836 0.048,0.17049 m -0.088,-0.34317 0.04,0.17268 m -0.07,-0.34712 0.031,0.17444 m -0.053,-0.35021 0.022,0.17577 m -0.035,-0.35242 0.013,0.17665 m -0.018,-0.35374 0,0.17709 m -0,-10.80701 0,10.62992" />
  </g>
</svg>
