999
dxfrw 0.6.3
  0
SECTION
  2
HEADER
  9
$ACADVER
  1
AC1021
  9
$DWGCODEPAGE
  3
ANSI_1252
  9
$INSBASE
 10
0
 20
0
 30
0
  9
$EXTMIN
 10
0.132261
 20
0.132999
 30
0
  9
$EXTMAX
 10
80.132594
 20
36.14261
 30
0
  9
$LIMMIN
 10
0
 20
0
  9
$LIMMAX
 10
420
 20
297
  9
$ORTHOMODE
 70
    0
  9
$REGENMODE
 70
    1
  9
$FILLMODE
 70
    1
  9
$QTEXTMODE
 70
    0
  9
$MIRRTEXT
 70
    0
  9
$LTSCALE
 40
1
  9
$ATTMODE
 70
    0
  9
$TEXTSIZE
 40
2.5
  9
$TRACEWID
 40
15.68
  9
$TEXTSTYLE
  7
STANDARD
  9
$CLAYER
  8
0
  9
$CELTYPE
  6
BYLAYER
  9
$CECOLOR
 62
  256
  9
$CELTSCALE
 40
1
  9
$DISPSILH
 70
    0
  9
$DIMSCALE
 40
2.5
  9
$DIMASZ
 40
2.5
  9
$DIMEXO
 40
0.625
  9
$DIMDLI
 40
3.75
  9
$DIMRND
 40
0
  9
$DIMDLE
 40
0
  9
$DIMEXE
 40
1.25
  9
$DIMTP
 40
0
  9
$DIMTM
 40
0
  9
$DIMTXT
 40
2.5
  9
$DIMCEN
 40
2.5
  9
$DIMTSZ
 40
0
  9
$DIMTOL
 70
    0
  9
$DIMLIM
 70
    0
  9
$DIMTIH
 70
    0
  9
$DIMTOH
 70
    0
  9
$DIMSE1
 70
    0
  9
$DIMSE2
 70
    0
  9
$DIMTAD
 70
    1
  9
$DIMZIN
 70
    8
  9
$DIMBLK
  1

  9
$DIMASO
 70
    1
  9
$DIMSHO
 70
    1
  9
$DIMPOST
  1

  9
$DIMAPOST
  1

  9
$DIMALT
 70
    0
  9
$DIMALTD
 70
    3
  9
$DIMALTF
 40
0.03937
  9
$DIMLFAC
 40
1
  9
$DIMTOFL
 70
    1
  9
$DIMTVP
 40
0
  9
$DIMTIX
 70
    0
  9
$DIMSOXD
 70
    0
  9
$DIMSAH
 70
    0
  9
$DIMBLK1
  1

  9
$DIMBLK2
  1

  9
$DIMSTYLE
  2
Standard
  9
$DIMCLRD
 70
    0
  9
$DIMCLRE
 70
    0
  9
$DIMCLRT
 70
    0
  9
$DIMTFAC
 40
1
  9
$DIMGAP
 40
0.625
  9
$DIMJUST
 70
    0
  9
$DIMSD1
 70
    0
  9
$DIMSD2
 70
    0
  9
$DIMTOLJ
 70
    0
  9
$DIMTZIN
 70
    8
  9
$DIMALTZ
 70
    0
  9
$DIMALTTZ
 70
    0
  9
$DIMUPT
 70
    0
  9
$DIMDEC
 70
    2
  9
$DIMTDEC
 70
    2
  9
$DIMALTU
 70
    2
  9
$DIMALTTD
 70
    3
  9
$DIMTXSTY
  7
STANDARD
  9
$DIMAUNIT
 70
    0
  9
$DIMADEC
 70
    0
  9
$DIMALTRND
 40
0
  9
$DIMAZIN
 70
    0
  9
$DIMDSEP
 70
   44
  9
$DIMATFIT
 70
    3
  9
$DIMFRAC
 70
    0
  9
$DIMLDRBLK
  1
STANDARD
  9
$DIMLUNIT
 70
    2
  9
$DIMLWD
 70
   -2
  9
$DIMLWE
 70
   -2
  9
$DIMTMOVE
 70
    0
  9
$DIMFXL
 40
1
  9
$DIMFXLON
 70
    0
  9
$DIMJOGANG
 40
0.7854
  9
$DIMTFILL
 70
    0
  9
$DIMTFILLCLR
 70
    0
  9
$DIMARCSYM
 70
    0
  9
$DIMLTYPE
  6

  9
$DIMLTEX1
  6

  9
$DIMLTEX2
  6

  9
$LUNITS
 70
    2
  9
$LUPREC
 70
    4
  9
$SKETCHINC
 40
1
  9
$FILLETRAD
 40
0
  9
$AUNITS
 70
    0
  9
$AUPREC
 70
    2
  9
$MENU
  1
.
  9
$ELEVATION
 40
0
  9
$PELEVATION
 40
0
  9
$THICKNESS
 40
0
  9
$LIMCHECK
 70
    0
  9
$CHAMFERA
 40
0
  9
$CHAMFERB
 40
0
  9
$CHAMFERC
 40
0
  9
$CHAMFERD
 40
0
  9
$SKPOLY
 70
    0
  9
$USRTIMER
 70
    1
  9
$ANGBASE
 50
0
  9
$ANGDIR
 70
    0
  9
$PDMODE
 70
   34
  9
$PDSIZE
 40
0
  9
$PLINEWID
 40
0
  9
$SPLFRAME
 70
    0
  9
$SPLINETYPE
 70
    2
  9
$SPLINESEGS
 70
    8
  9
$HANDSEED
  5
20000
  9
$SURFTAB1
 70
    6
  9
$SURFTAB2
 70
    6
  9
$SURFTYPE
 70
    6
  9
$SURFU
 70
    6
  9
$SURFV
 70
    6
  9
$UCSBASE
  2

  9
$UCSNAME
  2

  9
$UCSORG
 10
0
 20
0
 30
0
  9
$UCSXDIR
 10
1
 20
0
 30
0
  9
$UCSYDIR
 10
0
 20
1
 30
0
  9
$UCSORTHOREF
  2

  9
$UCSORTHOVIEW
 70
    0
  9
$UCSORGTOP
 10
0
 20
0
 30
0
  9
$UCSORGBOTTOM
 10
0
 20
0
 30
0
  9
$UCSORGLEFT
 10
0
 20
0
 30
0
  9
$UCSORGRIGHT
 10
0
 20
0
 30
0
  9
$UCSORGFRONT
 10
0
 20
0
 30
0
  9
$UCSORGBACK
 10
0
 20
0
 30
0
  9
$PUCSBASE
  2

  9
$PUCSNAME
  2

  9
$PUCSORG
 10
0
 20
0
 30
0
  9
$PUCSXDIR
 10
1
 20
0
 30
0
  9
$PUCSYDIR
 10
0
 20
1
 30
0
  9
$PUCSORTHOREF
  2

  9
$PUCSORTHOVIEW
 70
    0
  9
$PUCSORGTOP
 10
0
 20
0
 30
0
  9
$PUCSORGBOTTOM
 10
0
 20
0
 30
0
  9
$PUCSORGLEFT
 10
0
 20
0
 30
0
  9
$PUCSORGRIGHT
 10
0
 20
0
 30
0
  9
$PUCSORGFRONT
 10
0
 20
0
 30
0
  9
$PUCSORGBACK
 10
0
 20
0
 30
0
  9
$USERI1
 70
    0
  9
$USERI2
 70
    0
  9
$USERI3
 70
    0
  9
$USERI4
 70
    0
  9
$USERI5
 70
    0
  9
$USERR1
 40
0
  9
$USERR2
 40
0
  9
$USERR3
 40
0
  9
$USERR4
 40
0
  9
$USERR5
 40
0
  9
$WORLDVIEW
 70
    1
  9
$SHADEDGE
 70
    3
  9
$SHADEDIF
 70
   70
  9
$TILEMODE
 70
    1
  9
$MAXACTVP
 70
   64
  9
$PINSBASE
 10
0
 20
0
 30
0
  9
$PLIMCHECK
 70
    0
  9
$PEXTMIN
 10
0
 20
0
 30
0
  9
$PEXTMAX
 10
0
 20
0
 30
0
  9
$GRIDMODE
 70
    0
  9
$SNAPSTYLE
 70
    0
  9
$PLIMMIN
 10
0
 20
0
  9
$PLIMMAX
 10
210
 20
297
  9
$UNITMODE
 70
    0
  9
$VISRETAIN
 70
    1
  9
$PLINEGEN
 70
    0
  9
$PSLTSCALE
 70
    1
  9
$TREEDEPTH
 70
 3020
  9
$CMLSTYLE
  2
Standard
  9
$CMLJUST
 70
    0
  9
$CMLSCALE
 40
20
  9
$PROXYGRAPHICS
 70
    1
  9
$MEASUREMENT
 70
    1
  9
$CELWEIGHT
370
   -1
  9
$ENDCAPS
280
    0
  9
$JOINSTYLE
280
    0
  9
$LWDISPLAY
290
    0
  9
$INSUNITS
 70
    4
  9
$HYPERLINKBASE
  1

  9
$STYLESHEET
  1

  9
$XEDIT
290
    1
  9
$CEPSNTYPE
380
    0
  9
$PSTYLEMODE
290
    1
  9
$EXTNAMES
290
    1
  9
$PSVPSCALE
 40
1
  9
$OLESTARTUP
290
    0
  9
$SORTENTS
280
  127
  9
$INDEXCTL
280
    0
  9
$HIDETEXT
280
    1
  9
$XCLIPFRAME
290
    0
  9
$HALOGAP
280
    0
  9
$OBSCOLOR
 70
  257
  9
$OBSLTYPE
280
    0
  9
$INTERSECTIONDISPLAY
280
    0
  9
$INTERSECTIONCOLOR
 70
  257
  9
$DIMASSOC
280
    1
  9
$PROJECTNAME
  1

  9
$CAMERADISPLAY
290
    0
  9
$LENSLENGTH
 40
50
  9
$CAMERAHEIGHT
 40
0
  9
$STEPSPERSEC
 40
2
  9
$STEPSIZE
 40
50
  9
$3DDWFPREC
 40
2
  9
$PSOLWIDTH
 40
5
  9
$PSOLHEIGHT
 40
80
  9
$LOFTANG1
 40
1.570796326794897
  9
$LOFTANG2
 40
1.570796326794897
  9
$LOFTMAG1
 40
0
  9
$LOFTMAG2
 40
0
  9
$LOFTPARAM
 70
    7
  9
$LOFTNORMALS
280
    1
  9
$LATITUDE
 40
1
  9
$LONGITUDE
 40
1
  9
$NORTHDIRECTION
 40
0
  9
$TIMEZONE
 70
-8000
  9
$LIGHTGLYPHDISPLAY
280
    1
  9
$TILEMODELIGHTSYNCH
280
    1
  9
$SOLIDHIST
280
    1
  9
$SHOWHIST
280
    1
  9
$DWFFRAME
280
    2
  9
$DGNFRAME
280
    0
  9
$REALWORLDSCALE
290
    1
  9
$INTERFERECOLOR
 62
    1
  9
$CSHADOW
280
    0
  9
$SHADOWPLANELOCATION
 40
0
  0
ENDSEC
  0
SECTION
  2
CLASSES
  0
ENDSEC
  0
SECTION
  2
TABLES
  0
TABLE
  2
VPORT
  5
8
330
0
100
AcDbSymbolTable
 70
    1
  0
VPORT
  5
31
330
2
100
AcDbSymbolTableRecord
100
AcDbViewportTableRecord
  2
*ACTIVE
 70
    0
 10
0
 20
0
 11
1
 21
1
 12
210.1306818181818
 22
148.6590909090909
 13
0
 23
0
 14
10
 24
10
 15
10
 25
10
 16
0
 26
0
 36
1
 17
0
 27
0
 37
0
 40
341
 41
1.608471074380165
 42
50
 43
0
 44
0
 50
0
 51
0
 71
    0
 72
  100
 73
    1
 74
    3
 75
    0
 76
    0
 77
    0
 78
    0
281
    0
 65
    1
110
0
120
0
130
0
111
1
121
0
131
0
112
0
122
1
132
0
 79
    0
146
0
348
10020
 60
    7
 61
    5
292
1
282
    1
141
0
142
0
 63
  250
421
3358443
  0
ENDTAB
  0
TABLE
  2
LTYPE
  5
5
330
0
100
AcDbSymbolTable
 70
    4
  0
LTYPE
  5
14
330
5
100
AcDbSymbolTableRecord
100
AcDbLinetypeTableRecord
  2
ByBlock
 70
    0
  3

 72
   65
 73
    0
 40
0
  0
LTYPE
  5
15
330
5
100
AcDbSymbolTableRecord
100
AcDbLinetypeTableRecord
  2
ByLayer
 70
    0
  3

 72
   65
 73
    0
 40
0
  0
LTYPE
  5
16
330
5
100
AcDbSymbolTableRecord
100
AcDbLinetypeTableRecord
  2
Continuous
 70
    0
  3
Solid line
 72
   65
 73
    0
 40
0
  0
LTYPE
  5
32
330
5
100
AcDbSymbolTableRecord
100
AcDbLinetypeTableRecord
  2
DOT
 70
    0
  3
Dot . . . . . . . . . . . . . . . . . . . . . .
 72
   65
 73
    2
 40
6.35
 49
0
 74
    0
 49
-6.35
 74
    0
  0
LTYPE
  5
33
330
5
100
AcDbSymbolTableRecord
100
AcDbLinetypeTableRecord
  2
DOTTINY
 70
    0
  3
Dot (.15x) .....................................
 72
   65
 73
    2
 40
0.9525
 49
0
 74
    0
 49
-0.9525
 74
    0
  0
LTYPE
  5
34
330
5
100
AcDbSymbolTableRecord
100
AcDbLinetypeTableRecord
  2
DOT2
 70
    0
  3
Dot (.5x) .....................................
 72
   65
 73
    2
 40
3.175
 49
0
 74
    0
 49
-3.175
 74
    0
  0
LTYPE
  5
35
330
5
100
AcDbSymbolTableRecord
100
AcDbLinetypeTableRecord
  2
DOTX2
 70
    0
  3
Dot (2x) .  .  .  .  .  .  .  .  .  .  .  .  .
 72
   65
 73
    2
 40
12.7
 49
0
 74
    0
 49
-12.7
 74
    0
  0
LTYPE
  5
36
330
5
100
AcDbSymbolTableRecord
100
AcDbLinetypeTableRecord
  2
DASHED
 70
    0
  3
Dashed _ _ _ _ _ _ _ _ _ _ _ _ _ _ _ _ _
 72
   65
 73
    2
 40
19.05
 49
12.7
 74
    0
 49
-6.35
 74
    0
  0
LTYPE
  5
37
330
5
100
AcDbSymbolTableRecord
100
AcDbLinetypeTableRecord
  2
DASHEDTINY
 70
    0
  3
Dashed (.15x) _ _ _ _ _ _ _ _ _ _ _ _ _ _ _ _ _
 72
   65
 73
    2
 40
2.8575
 49
1.905
 74
    0
 49
-0.9525
 74
    0
  0
LTYPE
  5
38
330
5
100
AcDbSymbolTableRecord
100
AcDbLinetypeTableRecord
  2
DASHED2
 70
    0
  3
Dashed (.5x) _ _ _ _ _ _ _ _ _ _ _ _ _ _ _ _ _
 72
   65
 73
    2
 40
9.524999999999999
 49
6.35
 74
    0
 49
-3.175
 74
    0
  0
LTYPE
  5
39
330
5
100
AcDbSymbolTableRecord
100
AcDbLinetypeTableRecord
  2
DASHEDX2
 70
    0
  3
Dashed (2x) ____  ____  ____  ____  ____  ___
 72
   65
 73
    2
 40
38.09999999999999
 49
25.4
 74
    0
 49
-12.7
 74
    0
  0
LTYPE
  5
3A
330
5
100
AcDbSymbolTableRecord
100
AcDbLinetypeTableRecord
  2
DASHDOT
 70
    0
  3
Dash dot __ . __ . __ . __ . __ . __ . __ . __
 72
   65
 73
    4
 40
25.4
 49
12.7
 74
    0
 49
-6.35
 74
    0
 49
0
 74
    0
 49
-6.35
 74
    0
  0
LTYPE
  5
3B
330
5
100
AcDbSymbolTableRecord
100
AcDbLinetypeTableRecord
  2
DASHDOTTINY
 70
    0
  3
Dash dot (.15x) _._._._._._._._._._._._._._._.
 72
   65
 73
    4
 40
3.81
 49
1.905
 74
    0
 49
-0.9525
 74
    0
 49
0
 74
    0
 49
-0.9525
 74
    0
  0
LTYPE
  5
3C
330
5
100
AcDbSymbolTableRecord
100
AcDbLinetypeTableRecord
  2
DASHDOT2
 70
    0
  3
Dash dot (.5x) _._._._._._._._._._._._._._._.
 72
   65
 73
    4
 40
12.7
 49
6.35
 74
    0
 49
-3.175
 74
    0
 49
0
 74
    0
 49
-3.175
 74
    0
  0
LTYPE
  5
3D
330
5
100
AcDbSymbolTableRecord
100
AcDbLinetypeTableRecord
  2
DASHDOTX2
 70
    0
  3
Dash dot (2x) ____  .  ____  .  ____  .  ___
 72
   65
 73
    4
 40
50.8
 49
25.4
 74
    0
 49
-12.7
 74
    0
 49
0
 74
    0
 49
-12.7
 74
    0
  0
LTYPE
  5
3E
330
5
100
AcDbSymbolTableRecord
100
AcDbLinetypeTableRecord
  2
DIVIDE
 70
    0
  3
Divide ____ . . ____ . . ____ . . ____ . . ____
 72
   65
 73
    6
 40
31.75
 49
12.7
 74
    0
 49
-6.35
 74
    0
 49
0
 74
    0
 49
-6.35
 74
    0
 49
0
 74
    0
 49
-6.35
 74
    0
  0
LTYPE
  5
3F
330
5
100
AcDbSymbolTableRecord
100
AcDbLinetypeTableRecord
  2
DIVIDETINY
 70
    0
  3
Divide (.15x) __..__..__..__..__..__..__..__.._
 72
   65
 73
    6
 40
4.7625
 49
1.905
 74
    0
 49
-0.9525
 74
    0
 49
0
 74
    0
 49
-0.9525
 74
    0
 49
0
 74
    0
 49
-0.9525
 74
    0
  0
LTYPE
  5
40
330
5
100
AcDbSymbolTableRecord
100
AcDbLinetypeTableRecord
  2
DIVIDE2
 70
    0
  3
Divide (.5x) __..__..__..__..__..__..__..__.._
 72
   65
 73
    6
 40
15.875
 49
6.35
 74
    0
 49
-3.175
 74
    0
 49
0
 74
    0
 49
-3.175
 74
    0
 49
0
 74
    0
 49
-3.175
 74
    0
  0
LTYPE
  5
41
330
5
100
AcDbSymbolTableRecord
100
AcDbLinetypeTableRecord
  2
DIVIDEX2
 70
    0
  3
Divide (2x) ________  .  .  ________  .  .  _
 72
   65
 73
    6
 40
63.5
 49
25.4
 74
    0
 49
-12.7
 74
    0
 49
0
 74
    0
 49
-12.7
 74
    0
 49
0
 74
    0
 49
-12.7
 74
    0
  0
LTYPE
  5
42
330
5
100
AcDbSymbolTableRecord
100
AcDbLinetypeTableRecord
  2
BORDER
 70
    0
  3
Border __ __ . __ __ . __ __ . __ __ . __ __ .
 72
   65
 73
    6
 40
44.45
 49
12.7
 74
    0
 49
-6.35
 74
    0
 49
12.7
 74
    0
 49
-6.35
 74
    0
 49
0
 74
    0
 49
-6.35
 74
    0
  0
LTYPE
  5
43
330
5
100
AcDbSymbolTableRecord
100
AcDbLinetypeTableRecord
  2
BORDERTINY
 70
    0
  3
Border (.15x) __.__.__.__.__.__.__.__.__.__.__.
 72
   65
 73
    6
 40
6.6675
 49
1.905
 74
    0
 49
-0.9525
 74
    0
 49
1.905
 74
    0
 49
-0.9525
 74
    0
 49
0
 74
    0
 49
-0.9525
 74
    0
  0
LTYPE
  5
44
330
5
100
AcDbSymbolTableRecord
100
AcDbLinetypeTableRecord
  2
BORDER2
 70
    0
  3
Border (.5x) __.__.__.__.__.__.__.__.__.__.__.
 72
   65
 73
    6
 40
22.225
 49
6.35
 74
    0
 49
-3.175
 74
    0
 49
6.35
 74
    0
 49
-3.175
 74
    0
 49
0
 74
    0
 49
-3.175
 74
    0
  0
LTYPE
  5
45
330
5
100
AcDbSymbolTableRecord
100
AcDbLinetypeTableRecord
  2
BORDERX2
 70
    0
  3
Border (2x) ____  ____  .  ____  ____  .  ___
 72
   65
 73
    6
 40
88.89999999999999
 49
25.4
 74
    0
 49
-12.7
 74
    0
 49
25.4
 74
    0
 49
-12.7
 74
    0
 49
0
 74
    0
 49
-12.7
 74
    0
  0
LTYPE
  5
46
330
5
100
AcDbSymbolTableRecord
100
AcDbLinetypeTableRecord
  2
CENTER
 70
    0
  3
Center ____ _ ____ _ ____ _ ____ _ ____ _ ____
 72
   65
 73
    4
 40
50.8
 49
31.75
 74
    0
 49
-6.35
 74
    0
 49
6.35
 74
    0
 49
-6.35
 74
    0
  0
LTYPE
  5
47
330
5
100
AcDbSymbolTableRecord
100
AcDbLinetypeTableRecord
  2
CENTERTINY
 70
    0
  3
Center (.15x) ___ _ ___ _ ___ _ ___ _ ___ _ ___
 72
   65
 73
    4
 40
7.62
 49
4.7625
 74
    0
 49
-0.9525
 74
    0
 49
0.9525
 74
    0
 49
-0.9525
 74
    0
  0
LTYPE
  5
48
330
5
100
AcDbSymbolTableRecord
100
AcDbLinetypeTableRecord
  2
CENTER2
 70
    0
  3
Center (.5x) ___ _ ___ _ ___ _ ___ _ ___ _ ___
 72
   65
 73
    4
 40
28.575
 49
19.05
 74
    0
 49
-3.175
 74
    0
 49
3.175
 74
    0
 49
-3.175
 74
    0
  0
LTYPE
  5
49
330
5
100
AcDbSymbolTableRecord
100
AcDbLinetypeTableRecord
  2
CENTERX2
 70
    0
  3
Center (2x) ________  __  ________  __  _____
 72
   65
 73
    4
 40
101.6
 49
63.5
 74
    0
 49
-12.7
 74
    0
 49
12.7
 74
    0
 49
-12.7
 74
    0
  0
ENDTAB
  0
TABLE
  2
LAYER
  5
2
330
0
100
AcDbSymbolTable
 70
    1
  0
LAYER
  5
10
330
2
100
AcDbSymbolTableRecord
100
AcDbLayerTableRecord
  2
0
 70
    0
 62
    7
  6
CONTINUOUS
370
   -3
390
F
  0
ENDTAB
  0
TABLE
  2
STYLE
  5
3
330
0
100
AcDbSymbolTable
 70
    3
  0
STYLE
  5
4A
330
2
100
AcDbSymbolTableRecord
100
AcDbTextStyleTableRecord
  2
Standard
 70
    0
 40
0
 41
1
 50
0
 71
    0
 42
1
  3
txt
  4

  0
ENDTAB
  0
TABLE
  2
VIEW
  5
6
330
0
100
AcDbSymbolTable
 70
    0
  0
ENDTAB
  0
TABLE
  2
UCS
  5
7
330
0
100
AcDbSymbolTable
 70
    0
  0
ENDTAB
  0
TABLE
  2
APPID
  5
9
330
0
100
AcDbSymbolTable
 70
    1
  0
APPID
  5
12
330
9
100
AcDbSymbolTableRecord
100
AcDbRegAppTableRecord
  2
ACAD
 70
    0
  0
APPID
  5
4B
330
9
100
AcDbSymbolTableRecord
100
AcDbRegAppTableRecord
  2
LibreCad
 70
    0
  0
ENDTAB
  0
TABLE
  2
DIMSTYLE
  5
A
330
0
100
AcDbSymbolTable
 70
    1
100
AcDbDimStyleTable
 71
    1
  0
DIMSTYLE
105
4C
330
A
100
AcDbSymbolTableRecord
100
AcDbDimStyleTableRecord
  2
Standard
 70
    0
 40
1
 41
2.5
 42
0.625
 43
0.38
 44
1.25
 45
0
 46
0
 47
0
 48
0
 49
1
140
2.5
141
0.09
142
2.5
143
25.4
144
1
145
0
146
1
147
0.625
148
0
 71
    0
 72
    0
 73
    0
 74
    1
 75
    0
 76
    0
 77
    0
 78
    1
 79
    0
170
    0
171
    2
172
    0
173
    0
174
    0
175
    0
176
    0
177
    0
178
    0
179
    0
271
    2
272
    4
273
    2
274
    2
275
    0
276
    0
277
    2
278
    0
279
    0
280
    0
281
    0
282
    0
283
    1
284
    0
285
    0
286
    0
288
    0
289
    3
340
standard
341

371
   -2
372
   -2
  0
ENDTAB
  0
TABLE
  2
BLOCK_RECORD
  5
1
330
0
100
AcDbSymbolTable
 70
    2
  0
BLOCK_RECORD
  5
1F
330
1
100
AcDbSymbolTableRecord
100
AcDbBlockTableRecord
  2
*Model_Space
 70
    0
280
    1
281
    0
  0
BLOCK_RECORD
  5
1E
330
1
100
AcDbSymbolTableRecord
100
AcDbBlockTableRecord
  2
*Paper_Space
 70
    0
280
    1
281
    0
  0
ENDTAB
  0
ENDSEC
  0
SECTION
  2
BLOCKS
  0
BLOCK
  5
20
330
1F
100
AcDbEntity
  8
0
100
AcDbBlockBegin
  2
*Model_Space
 70
    0
 10
0
 20
0
 30
0
  3
*Model_Space
  1

  0
ENDBLK
  5
21
330
1F
100
AcDbEntity
  8
0
100
AcDbBlockEnd
  0
BLOCK
  5
1C
330
1B
100
AcDbEntity
  8
0
100
AcDbBlockBegin
  2
*Paper_Space
 70
    0
 10
0
 20
0
 30
0
  3
*Paper_Space
  1

  0
ENDBLK
  5
1D
330
1F
100
AcDbEntity
  8
0
100
AcDbBlockEnd
  0
ENDSEC
  0
SECTION
  2
ENTITIES
  0
LWPOLYLINE
  5
4D
100
AcDbEntity
  8
0
  6
ByLayer
 62
    7
370
   -1
100
AcDbPolyline
 90
    2
 70
    0
 43
0
 10
60.132563
 20
33.130508
 10
60.132563
 20
17.912415
  0
LWPOLYLINE
  5
4E
100
AcDbEntity
  8
0
  6
ByLayer
 62
    7
370
   -1
100
AcDbPolyline
 90
    2
 70
    0
 43
0
 10
35.132477
 20
33.132829
 10
35.132477
 20
28.114953
  0
LWPOLYLINE
  5
4F
100
AcDbEntity
  8
0
  6
ByLayer
 62
    7
370
   -1
100
AcDbPolyline
 90
   66
 70
    0
 43
0
 10
75.131964
 20
1.134022
 10
75.133022
 20
1.084043
 10
75.13688500000001
 20
1.034169
 10
75.143129
 20
0.984586
 10
75.15180700000001
 20
0.935321
 10
75.16297299999999
 20
0.886611
 10
75.176546
 20
0.83851
 10
75.1925
 20
0.791123
 10
75.210809
 20
0.744609
 10
75.23142
 20
0.699048
 10
75.254307
 20
0.654572
 10
75.279363
 20
0.611312
 10
75.306549
 20
0.569376
 10
75.335814
 20
0.528815
 10
75.367053
 20
0.489789
 10
75.40020800000001
 20
0.452377
 10
75.43518899999999
 20
0.416659
 10
75.471913
 20
0.382739
 10
75.510285
 20
0.350672
 10
75.550214
 20
0.320589
 10
75.591594
 20
0.292543
 10
75.634325
 20
0.266349
 10
75.678298
 20
0.242537
 10
75.72340699999999
 20
0.220841
 10
75.76954000000001
 20
0.201526
 10
75.816575
 20
0.184593
 10
75.864395
 20
0.170041
 10
75.912891
 20
0.15787
 10
75.961928
 20
0.148081
 10
76.01139499999999
 20
0.140672
 10
76.06115800000001
 20
0.13591
 10
76.11109999999999
 20
0.132999
 10
76.131896
 20
0.132999
 10
79.131888
 20
0.132999
 10
79.18186799999999
 20
0.132999
 10
79.23172099999999
 20
0.136704
 10
79.281325
 20
0.143054
 10
79.330556
 20
0.151785
 10
79.379289
 20
0.162897
 10
79.427406
 20
0.176391
 10
79.474785
 20
0.192531
 10
79.521304
 20
0.210787
 10
79.566852
 20
0.231424
 10
79.611312
 20
0.254178
 10
79.654574
 20
0.279314
 10
79.696529
 20
0.30646
 10
79.73707400000001
 20
0.335802
 10
79.776105
 20
0.367049
 10
79.813525
 20
0.400228
 10
79.84924100000001
 20
0.43518
 10
79.883166
 20
0.47193
 10
79.915212
 20
0.5102950000000001
 10
79.945301
 20
0.55022
 10
79.97335699999999
 20
0.591601
 10
79.999313
 20
0.634331
 10
80.02312499999999
 20
0.678305
 10
80.04468900000001
 20
0.7234159999999999
 10
80.06395000000001
 20
0.769533
 10
80.080884
 20
0.816576
 10
80.095462
 20
0.864412
 10
80.10763300000001
 20
0.91291
 10
80.11736999999999
 20
0.961911
 10
80.124619
 20
1.011388
 10
80.129408
 20
1.061156
 10
80.131789
 20
1.11111
 10
80.132054
 20
1.132012
  0
LWPOLYLINE
  5
50
100
AcDbEntity
  8
0
  6
ByLayer
 62
    7
370
   -1
100
AcDbPolyline
 90
   66
 70
    0
 43
0
 10
60.131905
 20
1.134657
 10
60.132963
 20
1.084678
 10
60.136826
 20
1.034804
 10
60.14307
 20
0.985221
 10
60.151775
 20
0.935982
 10
60.16294
 20
0.8872719999999999
 10
60.176513
 20
0.839145
 10
60.192468
 20
0.791758
 10
60.210777
 20
0.745244
 10
60.231388
 20
0.6997100000000001
 10
60.254274
 20
0.655233
 10
60.27933
 20
0.611947
 10
60.306516
 20
0.570011
 10
60.335779
 20
0.529477
 10
60.367021
 20
0.490424
 10
60.400173
 20
0.453012
 10
60.435154
 20
0.41732
 10
60.47188
 20
0.383374
 10
60.510253
 20
0.351333
 10
60.550181
 20
0.32125
 10
60.591559
 20
0.293178
 10
60.634289
 20
0.266984
 10
60.678266
 20
0.243172
 10
60.723374
 20
0.221476
 10
60.769504
 20
0.202161
 10
60.816542
 20
0.185228
 10
60.864365
 20
0.170676
 10
60.912855
 20
0.158505
 10
60.961893
 20
0.148716
 10
61.01136
 20
0.141307
 10
61.061125
 20
0.136545
 10
61.111068
 20
0.133634
 10
61.131864
 20
0.133634
 10
64.13185300000001
 20
0.133634
 10
64.181833
 20
0.133634
 10
64.231685
 20
0.139984
 10
64.281289
 20
0.146334
 10
64.330523
 20
0.155066
 10
64.379259
 20
0.166178
 10
64.427373
 20
0.179672
 10
64.47475
 20
0.195547
 10
64.521271
 20
0.213803
 10
64.566819
 20
0.234441
 10
64.611277
 20
0.257195
 10
64.654539
 20
0.28233
 10
64.696494
 20
0.309476
 10
64.737039
 20
0.338818
 10
64.77607
 20
0.370066
 10
64.81349299999999
 20
0.403244
 10
64.849209
 20
0.438196
 10
64.883133
 20
0.474946
 10
64.91518000000001
 20
0.513311
 10
64.945268
 20
0.553236
 10
64.973322
 20
0.594617
 10
64.99927700000001
 20
0.637347
 10
65.023037
 20
0.681348
 10
65.044574
 20
0.726432
 10
65.06383599999999
 20
0.772549
 10
65.08079499999999
 20
0.819592
 10
65.095347
 20
0.867429
 10
65.107518
 20
0.915927
 10
65.117255
 20
0.964927
 10
65.124504
 20
1.014404
 10
65.129293
 20
1.064173
 10
65.131675
 20
1.114126
 10
65.131939
 20
1.135028
  0
LWPOLYLINE
  5
51
100
AcDbEntity
  8
0
  6
ByLayer
 62
    7
370
   -1
100
AcDbPolyline
 90
   66
 70
    0
 43
0
 10
45.131845
 20
1.135028
 10
45.132904
 20
1.085048
 10
45.136767
 20
1.035174
 10
45.143011
 20
0.985591
 10
45.151716
 20
0.936326
 10
45.162881
 20
0.887616
 10
45.176454
 20
0.839515
 10
45.192408
 20
0.7921280000000001
 10
45.210718
 20
0.745615
 10
45.231329
 20
0.700054
 10
45.254215
 20
0.655577
 10
45.279271
 20
0.612318
 10
45.306454
 20
0.570381
 10
45.335717
 20
0.529821
 10
45.366959
 20
0.490795
 10
45.400114
 20
0.453383
 10
45.435097
 20
0.417664
 10
45.471819
 20
0.383745
 10
45.510194
 20
0.351677
 10
45.550119
 20
0.321594
 10
45.591503
 20
0.293548
 10
45.634233
 20
0.267355
 10
45.678206
 20
0.243542
 10
45.723315
 20
0.221846
 10
45.769445
 20
0.202532
 10
45.81648
 20
0.185599
 10
45.864304
 20
0.171046
 10
45.912794
 20
0.158876
 10
45.961837
 20
0.149086
 10
46.011298
 20
0.141678
 10
46.061066
 20
0.136915
 10
46.111006
 20
0.134005
 10
46.131802
 20
0.134005
 10
49.131791
 20
0.134005
 10
49.181771
 20
0.134005
 10
49.231626
 20
0.140619
 10
49.281233
 20
0.146705
 10
49.330464
 20
0.155436
 10
49.379197
 20
0.166813
 10
49.427314
 20
0.180307
 10
49.474691
 20
0.196446
 10
49.52121
 20
0.214703
 10
49.56676
 20
0.23534
 10
49.611221
 20
0.258094
 10
49.654477
 20
0.28323
 10
49.696432
 20
0.310376
 10
49.736977
 20
0.339745
 10
49.776013
 20
0.370992
 10
49.813431
 20
0.404144
 10
49.849149
 20
0.439122
 10
49.883074
 20
0.475846
 10
49.915118
 20
0.5142099999999999
 10
49.945209
 20
0.554136
 10
49.973263
 20
0.595517
 10
49.999218
 20
0.638247
 10
50.022978
 20
0.682247
 10
50.044515
 20
0.727332
 10
50.063776
 20
0.7734490000000001
 10
50.08071
 20
0.820492
 10
50.095262
 20
0.868328
 10
50.107433
 20
0.916826
 10
50.117169
 20
0.965854
 10
50.124419
 20
1.015331
 10
50.129208
 20
1.065072
 10
50.131589
 20
1.115025
 10
50.131854
 20
1.135927
  0
LWPOLYLINE
  5
52
100
AcDbEntity
  8
0
  6
ByLayer
 62
    7
370
   -1
100
AcDbPolyline
 90
   66
 70
    0
 43
0
 10
30.131755
 20
1.135927
 10
30.132813
 20
1.085948
 10
30.136676
 20
1.036074
 10
30.14292
 20
0.986491
 10
30.151598
 20
0.937252
 10
30.162764
 20
0.8885420000000001
 10
30.176337
 20
0.840415
 10
30.192291
 20
0.793028
 10
30.2106
 20
0.746514
 10
30.231211
 20
0.70098
 10
30.254098
 20
0.6565029999999999
 10
30.279154
 20
0.613217
 10
30.306342
 20
0.571281
 10
30.335605
 20
0.530747
 10
30.366847
 20
0.491694
 10
30.399999
 20
0.454282
 10
30.43498
 20
0.41859
 10
30.471704
 20
0.384644
 10
30.510076
 20
0.352603
 10
30.550005
 20
0.32252
 10
30.591385
 20
0.294448
 10
30.634116
 20
0.268519
 10
30.678092
 20
0.244706
 10
30.723201
 20
0.223011
 10
30.769328
 20
0.203696
 10
30.816363
 20
0.186763
 10
30.864186
 20
0.172211
 10
30.912682
 20
0.16004
 10
30.961719
 20
0.15025
 10
31.011186
 20
0.142842
 10
31.060949
 20
0.138079
 10
31.110891
 20
0.135169
 10
31.131687
 20
0.135169
 10
34.131679
 20
0.135169
 10
34.181659
 20
0.135169
 10
34.231512
 20
0.141519
 10
34.281116
 20
0.147869
 10
34.330347
 20
0.1566
 10
34.379085
 20
0.167713
 10
34.4272
 20
0.181206
 10
34.474576
 20
0.197346
 10
34.521095
 20
0.215602
 10
34.566646
 20
0.23624
 10
34.611103
 20
0.258994
 10
34.654365
 20
0.284129
 10
34.69632
 20
0.311275
 10
34.736865
 20
0.340618
 10
34.775896
 20
0.371865
 10
34.813316
 20
0.405044
 10
34.849032
 20
0.439995
 10
34.882957
 20
0.476746
 10
34.915006
 20
0.51511
 10
34.945094
 20
0.555036
 10
34.973148
 20
0.5964159999999999
 10
34.999104
 20
0.639147
 10
35.02289
 20
0.6831469999999999
 10
35.044427
 20
0.728232
 10
35.063688
 20
0.774348
 10
35.080622
 20
0.821391
 10
35.0952
 20
0.869228
 10
35.107371
 20
0.917726
 10
35.117108
 20
0.966727
 10
35.124357
 20
1.016204
 10
35.129146
 20
1.065972
 10
35.131527
 20
1.115925
 10
35.131792
 20
1.136827
  0
LWPOLYLINE
  5
53
100
AcDbEntity
  8
0
  6
ByLayer
 62
    7
370
   -1
100
AcDbPolyline
 90
   66
 70
    0
 43
0
 10
15.131696
 20
1.139473
 10
15.132754
 20
1.089493
 10
15.136617
 20
1.039646
 10
15.142861
 20
0.990036
 10
15.151566
 20
0.940798
 10
15.162731
 20
0.892088
 10
15.176304
 20
0.84396
 10
15.192259
 20
0.796573
 10
15.210568
 20
0.750086
 10
15.231179
 20
0.704525
 10
15.254039
 20
0.660049
 10
15.279095
 20
0.616789
 10
15.306281
 20
0.5748529999999999
 10
15.335546
 20
0.534292
 10
15.366785
 20
0.495266
 10
15.399938
 20
0.457828
 10
15.434921
 20
0.422136
 10
15.471645
 20
0.388216
 10
15.510017
 20
0.356149
 10
15.549946
 20
0.326066
 10
15.591326
 20
0.29802
 10
15.634056
 20
0.271826
 10
15.678033
 20
0.248014
 10
15.723139
 20
0.226318
 10
15.769269
 20
0.207003
 10
15.816306
 20
0.19007
 10
15.86413
 20
0.175518
 10
15.91262
 20
0.163347
 10
15.961658
 20
0.153822
 10
16.011124
 20
0.146414
 10
16.06089
 20
0.141651
 10
16.110832
 20
0.138741
 10
16.131628
 20
0.138741
 10
19.131617
 20
0.138741
 10
19.181595
 20
0.138741
 10
19.23145
 20
0.142445
 10
19.281057
 20
0.148795
 10
19.330287
 20
0.157526
 10
19.379021
 20
0.168639
 10
19.427135
 20
0.182132
 10
19.474512
 20
0.198272
 10
19.521033
 20
0.216528
 10
19.566581
 20
0.237166
 10
19.611042
 20
0.25992
 10
19.654304
 20
0.285055
 10
19.696259
 20
0.312201
 10
19.736801
 20
0.34157
 10
19.775832
 20
0.372817
 10
19.813254
 20
0.40597
 10
19.84897
 20
0.440947
 10
19.882895
 20
0.477672
 10
19.914942
 20
0.5160360000000001
 10
19.94503
 20
0.555962
 10
19.973086
 20
0.597342
 10
19.999042
 20
0.640073
 10
20.022801
 20
0.684073
 10
20.044365
 20
0.729158
 10
20.063627
 20
0.775274
 10
20.08056
 20
0.822317
 10
20.095112
 20
0.870154
 10
20.107283
 20
0.918652
 10
20.117019
 20
0.967679
 10
20.124269
 20
1.017156
 10
20.129058
 20
1.066898
 10
20.131439
 20
1.116851
 10
20.131704
 20
1.137753
  0
LWPOLYLINE
  5
54
100
AcDbEntity
  8
0
  6
ByLayer
 62
    7
370
   -1
100
AcDbPolyline
 90
   66
 70
    0
 43
0
 10
0.132269
 20
1.137594
 10
0.133407
 20
1.087615
 10
0.137272
 20
1.037741
 10
0.143509
 20
0.988158
 10
0.1522
 20
0.9389189999999999
 10
0.163347
 20
0.890209
 10
0.176923
 20
0.842082
 10
0.192888
 20
0.794695
 10
0.211189
 20
0.748181
 10
0.231797
 20
0.70262
 10
0.254673
 20
0.658144
 10
0.279737
 20
0.614884
 10
0.306924
 20
0.572948
 10
0.336185
 20
0.5323870000000001
 10
0.367427
 20
0.493361
 10
0.400579
 20
0.455949
 10
0.435563
 20
0.420231
 10
0.472286
 20
0.386311
 10
0.51066
 20
0.35427
 10
0.550585
 20
0.324161
 10
0.591968
 20
0.296115
 10
0.634698
 20
0.269921
 10
0.6786720000000001
 20
0.246109
 10
0.723782
 20
0.224413
 10
0.769911
 20
0.205098
 10
0.8169459999999999
 20
0.188165
 10
0.864769
 20
0.173613
 10
0.913263
 20
0.161442
 10
0.962302
 20
0.151653
 10
1.011767
 20
0.144244
 10
1.061531
 20
0.139482
 10
1.111473
 20
0.136571
 10
1.132266
 20
0.136571
 10
4.131651
 20
0.141069
 10
4.181629
 20
0.141069
 10
4.231481
 20
0.144773
 10
4.281087
 20
0.150859
 10
4.330318
 20
0.15959
 10
4.379052
 20
0.170703
 10
4.427168
 20
0.184196
 10
4.474548
 20
0.200336
 10
4.521066
 20
0.218592
 10
4.566614
 20
0.239229
 10
4.611075
 20
0.261984
 10
4.654336
 20
0.287119
 10
4.696289
 20
0.314265
 10
4.736833
 20
0.343607
 10
4.775867
 20
0.374855
 10
4.813287
 20
0.408007
 10
4.849005
 20
0.442985
 10
4.882928
 20
0.479735
 10
4.914974
 20
0.518073
 10
4.945065
 20
0.558025
 10
4.973118
 20
0.59938
 10
4.999071
 20
0.64211
 10
5.022841
 20
0.68611
 10
5.044391
 20
0.731221
 10
5.063664
 20
0.777338
 10
5.080607
 20
0.824381
 10
5.095194
 20
0.872218
 10
5.107357
 20
0.920689
 10
5.117093
 20
0.969716
 10
5.124346
 20
1.019193
 10
5.129143
 20
1.068961
 10
5.131418
 20
1.118915
 10
5.131709
 20
1.139817
  0
LWPOLYLINE
  5
55
100
AcDbEntity
  8
0
  6
ByLayer
 62
    7
370
   -1
100
AcDbPolyline
 90
   68
 70
    0
 43
0
 10
80.132064
 20
33.135755
 10
80.132594
 20
35.132925
 10
80.131535
 20
35.182907
 10
80.127672
 20
35.232776
 10
80.121455
 20
35.282361
 10
80.112776
 20
35.331611
 10
80.10161100000001
 20
35.380349
 10
80.088038
 20
35.42844
 10
80.072084
 20
35.475824
 10
80.053774
 20
35.522364
 10
80.033163
 20
35.567886
 10
80.010277
 20
35.612365
 10
79.985221
 20
35.655629
 10
79.958038
 20
35.697566
 10
79.928777
 20
35.738121
 10
79.897536
 20
35.777152
 10
79.86438099999999
 20
35.814578
 10
79.829397
 20
35.850278
 10
79.792676
 20
35.8842
 10
79.754301
 20
35.916259
 10
79.714375
 20
35.946345
 10
79.672995
 20
35.974399
 10
79.630262
 20
36.000487
 10
79.586291
 20
36.024246
 10
79.541179
 20
36.045863
 10
79.49504899999999
 20
36.065257
 10
79.448014
 20
36.082296
 10
79.400194
 20
36.096901
 10
79.35170100000001
 20
36.109045
 10
79.302661
 20
36.118914
 10
79.253197
 20
36.126243
 10
79.20343099999999
 20
36.131032
 10
79.15348899999999
 20
36.133863
 10
79.132693
 20
36.133863
 10
76.132701
 20
36.133863
 10
76.08272100000001
 20
36.133863
 10
76.03286799999999
 20
36.127381
 10
75.98326400000001
 20
36.121163
 10
75.934033
 20
36.112405
 10
75.8853
 20
36.101399
 10
75.837183
 20
36.087852
 10
75.789804
 20
36.071845
 10
75.743285
 20
36.053642
 10
75.697737
 20
36.033057
 10
75.653277
 20
36.010197
 10
75.610017
 20
35.985141
 10
75.56806
 20
35.957989
 10
75.527518
 20
35.928639
 10
75.488484
 20
35.897397
 10
75.451064
 20
35.864237
 10
75.415345
 20
35.82927
 10
75.381423
 20
35.792525
 10
75.349377
 20
35.754171
 10
75.31928600000001
 20
35.714235
 10
75.291235
 20
35.672862
 10
75.26527900000001
 20
35.630134
 10
75.24149300000001
 20
35.586163
 10
75.21992899999999
 20
35.541036
 10
75.20066799999999
 20
35.494922
 10
75.183735
 20
35.447874
 10
75.169156
 20
35.400066
 10
75.15698500000001
 20
35.351552
 10
75.147249
 20
35.30253
 10
75.139999
 20
35.253056
 10
75.13521
 20
35.203301
 10
75.132829
 20
35.153348
 10
75.132564
 20
35.132552
 10
75.132564
 20
33.132644
  0
LWPOLYLINE
  5
56
100
AcDbEntity
  8
0
  6
ByLayer
 62
    7
370
   -1
100
AcDbPolyline
 90
   68
 70
    0
 43
0
 10
65.132603
 20
33.132652
 10
65.132603
 20
35.132644
 10
65.131545
 20
35.182624
 10
65.12768199999999
 20
35.232493
 10
65.121438
 20
35.282081
 10
65.11275999999999
 20
35.331328
 10
65.10159400000001
 20
35.380066
 10
65.088021
 20
35.428157
 10
65.072067
 20
35.475544
 10
65.053758
 20
35.522081
 10
65.033147
 20
35.567603
 10
65.01026
 20
35.612082
 10
64.985204
 20
35.655346
 10
64.958016
 20
35.697285
 10
64.928753
 20
35.737841
 10
64.89751099999999
 20
35.776872
 10
64.86435899999999
 20
35.814295
 10
64.82937800000001
 20
35.849995
 10
64.79265100000001
 20
35.88392
 10
64.754279
 20
35.915979
 10
64.714353
 20
35.946062
 10
64.672973
 20
35.974116
 10
64.630242
 20
36.000204
 10
64.58626599999999
 20
36.023963
 10
64.541157
 20
36.04558
 10
64.49503
 20
36.064974
 10
64.447992
 20
36.082013
 10
64.40016900000001
 20
36.096591
 10
64.351676
 20
36.108736
 10
64.302639
 20
36.118605
 10
64.253175
 20
36.125933
 10
64.203407
 20
36.130722
 10
64.153464
 20
36.133553
 10
64.132668
 20
36.133553
 10
61.132679
 20
36.133553
 10
61.082699
 20
36.133553
 10
61.032846
 20
36.129876
 10
60.98324
 20
36.123658
 10
60.934009
 20
36.1149
 10
60.885275
 20
36.103894
 10
60.837158
 20
36.090056
 10
60.789782
 20
36.074049
 10
60.74326
 20
36.055845
 10
60.697712
 20
36.035261
 10
60.653255
 20
36.012401
 10
60.609993
 20
35.987345
 10
60.568038
 20
35.960196
 10
60.527493
 20
35.930846
 10
60.488464
 20
35.899604
 10
60.451039
 20
35.866441
 10
60.415326
 20
35.831474
 10
60.381401
 20
35.794729
 10
60.349352
 20
35.756375
 10
60.319266
 20
35.716441
 10
60.29121
 20
35.675068
 10
60.265254
 20
35.632338
 10
60.241468
 20
35.588367
 10
60.219931
 20
35.543243
 10
60.20067
 20
35.497126
 10
60.183736
 20
35.45008
 10
60.169158
 20
35.402273
 10
60.156987
 20
35.353759
 10
60.14725
 20
35.304737
 10
60.140001
 20
35.255263
 10
60.135212
 20
35.205505
 10
60.132831
 20
35.155552
 10
60.132566
 20
35.134756
 10
60.132566
 20
33.134848
  0
LWPOLYLINE
  5
57
100
AcDbEntity
  8
0
  6
ByLayer
 62
    7
370
   -1
100
AcDbPolyline
 90
   66
 70
    0
 43
0
 10
35.13248
 20
35.137161
 10
35.131422
 20
35.18714
 10
35.127559
 20
35.237009
 10
35.121314
 20
35.286595
 10
35.11261
 20
35.335844
 10
35.101444
 20
35.384583
 10
35.087871
 20
35.432673
 10
35.071917
 20
35.480058
 10
35.053608
 20
35.526598
 10
35.032997
 20
35.572119
 10
35.01011
 20
35.616598
 10
34.985054
 20
35.659863
 10
34.957871
 20
35.701802
 10
34.928608
 20
35.742354
 10
34.897366
 20
35.781386
 10
34.864214
 20
35.818808
 10
34.829231
 20
35.854511
 10
34.792507
 20
35.888433
 10
34.754132
 20
35.920495
 10
34.714206
 20
35.950579
 10
34.672825
 20
35.978632
 10
34.630093
 20
36.00472
 10
34.586119
 20
36.02848
 10
34.54101
 20
36.050096
 10
34.49488
 20
36.06949
 10
34.447845
 20
36.086529
 10
34.400022
 20
36.101108
 10
34.351532
 20
36.113252
 10
34.302491
 20
36.123121
 10
34.253027
 20
36.13045
 10
34.203262
 20
36.135239
 10
34.153319
 20
36.13807
 10
34.132523
 20
36.13807
 10
31.132534
 20
36.13807
 10
31.082557
 20
36.13807
 10
31.032702
 20
36.134392
 10
30.983098
 20
36.128175
 10
30.933867
 20
36.119417
 10
30.885131
 20
36.10841
 10
30.837016
 20
36.094864
 10
30.789635
 20
36.078856
 10
30.743118
 20
36.060653
 10
30.69757
 20
36.040068
 10
30.65311
 20
36.017208
 10
30.609851
 20
35.992152
 10
30.567893
 20
35.965004
 10
30.527351
 20
35.935653
 10
30.488317
 20
35.904411
 10
30.450897
 20
35.871249
 10
30.415178
 20
35.836281
 10
30.381256
 20
35.799539
 10
30.34921
 20
35.761182
 10
30.319119
 20
35.721249
 10
30.291068
 20
35.679876
 10
30.265112
 20
35.637146
 10
30.241353
 20
35.593177
 10
30.219816
 20
35.54805
 10
30.200554
 20
35.501933
 10
30.183621
 20
35.454888
 10
30.169042
 20
35.40708
 10
30.156871
 20
35.358566
 10
30.147135
 20
35.309544
 10
30.139885
 20
35.26007
 10
30.135096
 20
35.210315
 10
30.132715
 20
35.160362
 10
30.13245
 20
35.139566
  0
LWPOLYLINE
  5
58
100
AcDbEntity
  8
0
  6
ByLayer
 62
    7
370
   -1
100
AcDbPolyline
 90
   66
 70
    0
 43
0
 10
20.132421
 20
35.139698
 10
20.131362
 20
35.18968
 10
20.1275
 20
35.239549
 10
20.121255
 20
35.289135
 10
20.112577
 20
35.338384
 10
20.101412
 20
35.387123
 10
20.087839
 20
35.435213
 10
20.071884
 20
35.4826
 10
20.053575
 20
35.529138
 10
20.032964
 20
35.574659
 10
20.010104
 20
35.619138
 10
19.985048
 20
35.662403
 10
19.95786
 20
35.704342
 10
19.928597
 20
35.744894
 10
19.897355
 20
35.783926
 10
19.864203
 20
35.821348
 10
19.829222
 20
35.857051
 10
19.792495
 20
35.890973
 10
19.754125
 20
35.923035
 10
19.714197
 20
35.953119
 10
19.672816
 20
35.981172
 10
19.630086
 20
36.00726
 10
19.58611
 20
36.03102
 10
19.541001
 20
36.052636
 10
19.494874
 20
36.07203
 10
19.447836
 20
36.089069
 10
19.400013
 20
36.103674
 10
19.351523
 20
36.115818
 10
19.302482
 20
36.125423
 10
19.253019
 20
36.132752
 10
19.203251
 20
36.137541
 10
19.153308
 20
36.140372
 10
19.132512
 20
36.140372
 10
16.132523
 20
36.140372
 10
16.082546
 20
36.140372
 10
16.03269
 20
36.136694
 10
15.983084
 20
36.130476
 10
15.933853
 20
36.121719
 10
15.885119
 20
36.110712
 10
15.837002
 20
36.096874
 10
15.789626
 20
36.080867
 10
15.743104
 20
36.062664
 10
15.697556
 20
36.042079
 10
15.653098
 20
36.019219
 10
15.609837
 20
35.994163
 10
15.567882
 20
35.967014
 10
15.527337
 20
35.937662
 10
15.488306
 20
35.90642
 10
15.450883
 20
35.873259
 10
15.415167
 20
35.838292
 10
15.381242
 20
35.801547
 10
15.349196
 20
35.763193
 10
15.319108
 20
35.723259
 10
15.291054
 20
35.681884
 10
15.265098
 20
35.639157
 10
15.241339
 20
35.595185
 10
15.219802
 20
35.550058
 10
15.20054
 20
35.503944
 10
15.18358
 20
35.456899
 10
15.169002
 20
35.409088
 10
15.156831
 20
35.360575
 10
15.147094
 20
35.311553
 10
15.139845
 20
35.262081
 10
15.135056
 20
35.212326
 10
15.132674
 20
35.16237
 10
15.13241
 20
35.141574
  0
LWPOLYLINE
  5
59
100
AcDbEntity
  8
0
  6
ByLayer
 62
    7
370
   -1
100
AcDbPolyline
 90
  409
 70
    1
 43
0
 10
6.883257
 20
12.091009
 10
6.884394
 20
12.041029
 10
6.886352
 20
11.991076
 10
6.888972
 20
11.941123
 10
6.892303
 20
11.891249
 10
6.896536
 20
11.841454
 10
6.901531
 20
11.791686
 10
6.907289
 20
11.742024
 10
6.913808
 20
11.692468
 10
6.921089
 20
11.642991
 10
6.929133
 20
11.593619
 10
6.937938
 20
11.544407
 10
6.947505
 20
11.495327
 10
6.957808
 20
11.446432
 10
6.96887
 20
11.397643
 10
6.980668
 20
11.349092
 10
6.993199
 20
11.300673
 10
7.006492
 20
11.252466
 10
7.020546
 20
11.204497
 10
7.035336
 20
11.156714
 10
7.050833
 20
11.109195
 10
7.067057
 20
11.061887
 10
7.08403
 20
11.014871
 10
7.101718
 20
10.968092
 10
7.120114
 20
10.921605
 10
7.13923
 20
10.875409
 10
7.159063
 20
10.829504
 10
7.179603
 20
10.783916
 10
7.200844
 20
10.738646
 10
7.22277
 20
10.69372
 10
7.24537
 20
10.649111
 10
7.268669
 20
10.604873
 10
7.292651
 20
10.560979
 10
7.317302
 20
10.517481
 10
7.342615
 20
10.474354
 10
7.368579
 20
10.431624
 10
7.395209
 20
10.389344
 10
7.422491
 20
10.347434
 10
7.450414
 20
10.305947
 10
7.478967
 20
10.264884
 10
7.508143
 20
10.224297
 10
7.53794
 20
10.184133
 10
7.568352
 20
10.144446
 10
7.599371
 20
10.105208
 10
7.630988
 20
10.0665
 10
7.663201
 20
10.028268
 10
7.695995
 20
9.990512000000001
 10
7.729365
 20
9.953258
 10
7.763305
 20
9.916561
 10
7.79781
 20
9.880366
 10
7.832862
 20
9.844726
 10
7.868461
 20
9.809616
 10
7.904594
 20
9.775035000000001
 10
7.941258
 20
9.741063
 10
7.978437
 20
9.70762
 10
8.016128
 20
9.674785
 10
8.054318
 20
9.642479
 10
8.093002
 20
9.610835
 10
8.132166
 20
9.579746999999999
 10
8.171806999999999
 20
9.549267
 10
8.211911000000001
 20
9.519422
 10
8.252469
 20
9.490185
 10
8.293473000000001
 20
9.461557000000001
 10
8.334909
 20
9.433591
 10
8.376773999999999
 20
9.406207
 10
8.419053
 20
9.379536999999999
 10
8.461740000000001
 20
9.353607999999999
 10
8.504821
 20
9.328208
 10
8.548285
 20
9.303601
 10
8.592128000000001
 20
9.279524
 10
8.636331999999999
 20
9.256240999999999
 10
8.680892999999999
 20
9.233752000000001
 10
8.725797
 20
9.211527
 10
8.771032
 20
9.19036
 10
8.816591000000001
 20
9.169722
 10
8.862463
 20
9.149879
 10
8.908632000000001
 20
9.130829
 10
8.955094000000001
 20
9.112308000000001
 10
9.001833
 20
9.094581
 10
9.04884
 20
9.077648
 10
9.096102999999999
 20
9.061244
 10
9.143613
 20
9.045633
 10
9.191355
 20
9.030816
 10
9.239322
 20
9.016794000000001
 10
9.287497
 20
9.003564000000001
 10
9.335876000000001
 20
8.990864
 10
9.384441000000001
 20
8.978958
 10
9.433185999999999
 20
8.967580999999999
 10
9.482094999999999
 20
8.956998
 10
9.531157
 20
8.947473
 10
9.580361999999999
 20
8.938477000000001
 10
9.629697
 20
8.930275
 10
9.679154
 20
8.922867
 10
9.728714999999999
 20
8.915988
 10
9.778371999999999
 20
8.910167
 10
9.828113
 20
8.905139999999999
 10
9.877928000000001
 20
8.900906000000001
 10
9.927802
 20
8.897202
 10
9.977724
 20
8.894556
 10
10.027683
 20
8.891646
 10
10.077668
 20
8.891381000000001
 10
10.127666
 20
8.888470999999999
 10
10.177665
 20
8.888312000000001
 10
10.227652
 20
8.888312000000001
 10
10.277619
 20
8.891223
 10
10.32755
 20
8.894133
 10
10.377432
 20
8.897308000000001
 10
10.427261
 20
8.901541
 10
10.477017
 20
8.906304
 10
10.526693
 20
8.911860000000001
 10
10.576277
 20
8.91821
 10
10.625753
 20
8.925354
 10
10.675114
 20
8.933555999999999
 10
10.724348
 20
8.942287
 10
10.77344
 20
8.951547
 10
10.82238
 20
8.961601999999999
 10
10.87116
 20
8.972714
 10
10.919764
 20
8.98462
 10
10.968179
 20
8.997056000000001
 10
11.016399
 20
9.010285
 10
11.064408
 20
9.024043000000001
 10
11.112196
 20
9.038595000000001
 10
11.159754
 20
9.053941
 10
11.207068
 20
9.070081
 10
11.254129
 20
9.087014
 10
11.300924
 20
9.104476
 10
11.347443
 20
9.122997
 10
11.393673
 20
9.142047
 10
11.439605
 20
9.161891000000001
 10
11.485229
 20
9.182264
 10
11.530531
 20
9.203695
 10
11.575503
 20
9.225391
 10
11.620134
 20
9.248144999999999
 10
11.664414
 20
9.271428
 10
11.708328
 20
9.295505
 10
11.751872
 20
9.319846999999999
 10
11.795032
 20
9.344982
 10
11.8378
 20
9.370647
 10
11.880161
 20
9.397131
 10
11.922111
 20
9.424384
 10
11.963637
 20
9.452323
 10
12.004729
 20
9.480713
 10
12.04538
 20
9.509817
 10
12.085577
 20
9.539555999999999
 10
12.125311
 20
9.569903999999999
 10
12.164573
 20
9.600860000000001
 10
12.203357
 20
9.632398999999999
 10
12.241648
 20
9.664545
 10
12.27944
 20
9.697274
 10
12.316724
 20
9.730612000000001
 10
12.353492
 20
9.764478
 10
12.389735
 20
9.798954
 10
12.425445
 20
9.833931
 10
12.46061
 20
9.869465
 10
12.495224
 20
9.905554
 10
12.52928
 20
9.942171999999999
 10
12.562769
 20
9.97932
 10
12.595681
 20
10.016943
 10
12.62801
 20
10.055096
 10
12.659751
 20
10.093725
 10
12.690892
 20
10.132831
 10
12.721428
 20
10.172412
 10
12.751349
 20
10.21247
 10
12.780654
 20
10.252978
 10
12.809332
 20
10.293962
 10
12.837373
 20
10.335342
 10
12.864765
 20
10.377147
 10
12.891523
 20
10.4194
 10
12.917627
 20
10.462051
 10
12.94307
 20
10.505099
 10
12.967837
 20
10.548517
 10
12.991949
 20
10.592332
 10
13.015385
 20
10.636491
 10
13.038142
 20
10.680994
 10
13.060206
 20
10.725867
 10
13.081563
 20
10.771084
 10
13.102237
 20
10.816592
 10
13.122189
 20
10.862445
 10
13.141425
 20
10.908588
 10
13.159945
 20
10.954996
 10
13.177778
 20
11.001747
 10
13.194897
 20
11.048711
 10
13.211301
 20
11.095939
 10
13.226964
 20
11.143458
 10
13.241887
 20
11.191136
 10
13.256068
 20
11.239105
 10
13.269509
 20
11.287259
 10
13.282209
 20
11.335625
 10
13.294168
 20
11.384149
 10
13.30536
 20
11.432885
 10
13.315838
 20
11.48178
 10
13.325548
 20
11.530834
 10
13.334491
 20
11.58002
 10
13.342693
 20
11.629338
 10
13.350154
 20
11.678789
 10
13.356822
 20
11.728318
 10
13.362722
 20
11.777981
 10
13.367881
 20
11.827722
 10
13.372273
 20
11.877543
 10
13.375872
 20
11.927391
 10
13.378729
 20
11.977291
 10
13.380846
 20
12.027244
 10
13.382169
 20
12.077224
 10
13.382698
 20
12.12723
 10
13.382433
 20
12.177263
 10
13.381639
 20
12.227242
 10
13.380052
 20
12.277196
 10
13.377406
 20
12.327149
 10
13.374099
 20
12.377049
 10
13.370024
 20
12.426844
 10
13.365182
 20
12.476638
 10
13.359573
 20
12.526301
 10
13.353197
 20
12.575883
 10
13.346053
 20
12.625387
 10
13.338168
 20
12.674758
 10
13.329517
 20
12.723997
 10
13.320097
 20
12.773103
 10
13.309938
 20
12.822078
 10
13.299037
 20
12.870867
 10
13.287369
 20
12.919497
 10
13.27496
 20
12.967916
 10
13.26181
 20
13.016149
 10
13.247919
 20
13.064198
 10
13.233288
 20
13.112008
 10
13.217916
 20
13.15958
 10
13.201829
 20
13.20694
 10
13.185001
 20
13.254009
 10
13.16746
 20
13.30084
 10
13.149177
 20
13.347407
 10
13.130206
 20
13.393656
 10
13.110521
 20
13.439614
 10
13.090127
 20
13.485255
 10
13.069032
 20
13.530578
 10
13.047249
 20
13.57561
 10
13.024789
 20
13.620271
 10
13.00163
 20
13.664589
 10
12.977785
 20
13.708536
 10
12.95329
 20
13.75214
 10
12.928105
 20
13.795319
 10
12.902271
 20
13.838129
 10
12.875768
 20
13.880542
 10
12.848635
 20
13.922531
 10
12.820861
 20
13.964097
 10
12.79243
 20
14.00524
 10
12.763378
 20
14.045932
 10
12.733708
 20
14.086175
 10
12.70342
 20
14.125969
 10
12.672525
 20
14.165286
 10
12.641027
 20
14.204074
 10
12.608938
 20
14.242438
 10
12.576259
 20
14.280273
 10
12.543005
 20
14.317633
 10
12.509181
 20
14.354463
 10
12.474792
 20
14.390737
 10
12.439851
 20
14.426508
 10
12.404362
 20
14.461724
 10
12.368336
 20
14.496385
 10
12.331783
 20
14.530516
 10
12.294707
 20
14.564065
 10
12.257118
 20
14.597032
 10
12.219029
 20
14.629417
 10
12.180444
 20
14.66122
 10
12.141376
 20
14.692414
 10
12.101834
 20
14.723
 10
12.061823
 20
14.753004
 10
12.021355
 20
14.782346
 10
11.980444
 20
14.811106
 10
11.939093
 20
14.839231
 10
11.897313
 20
14.866563
 10
11.855118
 20
14.893471
 10
11.812514
 20
14.919664
 10
11.769515
 20
14.945064
 10
11.726126
 20
14.969935
 10
11.682359
 20
14.994012
 10
11.638228
 20
15.017296
 10
11.593739
 20
15.040314
 10
11.548905
 20
15.062539
 10
11.503735
 20
15.08397
 10
11.458241
 20
15.104608
 10
11.412433
 20
15.124716
 10
11.366321
 20
15.144031
 10
11.319918
 20
15.162552
 10
11.273236
 20
15.180543
 10
11.226283
 20
15.197741
 10
11.17907
 20
15.214145
 10
11.131612
 20
15.23002
 10
11.083914
 20
15.244837
 10
11.035992
 20
15.259124
 10
10.987857
 20
15.272618
 10
10.93952
 20
15.285318
 10
10.890992
 20
15.297489
 10
10.842283
 20
15.308866
 10
10.793408
 20
15.319449
 10
10.744375
 20
15.329239
 10
10.695198
 20
15.338235
 10
10.645889
 20
15.346437
 10
10.596458
 20
15.35411
 10
10.546914
 20
15.36046
 10
10.497276
 20
15.36628
 10
10.447549
 20
15.371572
 10
10.397751
 20
15.37607
 10
10.347888
 20
15.379774
 10
10.297974
 20
15.382685
 10
10.24802
 20
15.385595
 10
10.198039
 20
15.385595
 10
10.148043
 20
15.388505
 10
10.098045
 20
15.388505
 10
10.048056
 20
15.388664
 10
9.998082
 20
15.385754
 10
9.948145999999999
 20
15.385754
 10
9.898249
 20
15.382843
 10
9.848409
 20
15.37861
 10
9.798636
 20
15.373847
 10
9.748942
 20
15.368556
 10
9.699339
 20
15.36247
 10
9.649839999999999
 20
15.355327
 10
9.600453999999999
 20
15.347389
 10
9.551195
 20
15.338923
 10
9.502074
 20
15.329662
 10
9.453099999999999
 20
15.319608
 10
9.404287999999999
 20
15.309025
 10
9.355650000000001
 20
15.297118
 10
9.307195
 20
15.284683
 10
9.258932
 20
15.271718
 10
9.210881000000001
 20
15.25796
 10
9.163043999999999
 20
15.243408
 10
9.115439
 20
15.228327
 10
9.068073999999999
 20
15.212187
 10
9.020960000000001
 20
15.195519
 10
8.974111000000001
 20
15.178056
 10
8.927536
 20
15.1598
 10
8.881246000000001
 20
15.14075
 10
8.835253
 20
15.121171
 10
8.789566000000001
 20
15.101063
 10
8.744197
 20
15.08016
 10
8.699157
 20
15.058465
 10
8.654456
 20
15.035975
 10
8.610104
 20
15.012692
 10
8.566112
 20
14.988879
 10
8.522494
 20
14.964273
 10
8.479255
 20
14.939402
 10
8.436408
 20
14.913738
 10
8.393962
 20
14.887227
 10
8.351925
 20
14.860266
 10
8.310314
 20
14.83259
 10
8.269132000000001
 20
14.804174
 10
8.228389999999999
 20
14.775176
 10
8.1881
 20
14.745569
 10
8.148274000000001
 20
14.715354
 10
8.108912999999999
 20
14.684503
 10
8.070031
 20
14.653071
 10
8.031639999999999
 20
14.62103
 10
7.993743
 20
14.588433
 10
7.956355
 20
14.555228
 10
7.919479
 20
14.521467
 10
7.883132
 20
14.487124
 10
7.847315
 20
14.452226
 10
7.812037
 20
14.416825
 10
7.77731
 20
14.380841
 10
7.743139
 20
14.344329
 10
7.709534
 20
14.307314
 10
7.676506
 20
14.26977
 10
7.644056
 20
14.231749
 10
7.612196
 20
14.193199
 10
7.580931
 20
14.154173
 10
7.550272
 20
14.114697
 10
7.520223
 20
14.074745
 10
7.490793
 20
14.034291
 10
7.46199
 20
13.993439
 10
7.433815
 20
13.952138
 10
7.406273
 20
13.910387
 10
7.379395
 20
13.868239
 10
7.353164
 20
13.825667
 10
7.327595
 20
13.782725
 10
7.302669
 20
13.73936
 10
7.278427
 20
13.695625
 10
7.254856
 20
13.651545
 10
7.231964
 20
13.607095
 10
7.209763
 20
13.562301
 10
7.18826
 20
13.517163
 10
7.16744
 20
13.471682
 10
7.147342
 20
13.425909
 10
7.127949
 20
13.379845
 10
7.109264
 20
13.333464
 10
7.091275
 20
13.286791
 10
7.074016
 20
13.239907
 10
7.057469
 20
13.192705
 10
7.041668
 20
13.145266
 10
7.026592
 20
13.097588
 10
7.012249
 20
13.049672
 10
6.998644
 20
13.001597
 10
6.985775
 20
12.953284
 10
6.973668
 20
12.90476
 10
6.962293
 20
12.85605
 10
6.951683
 20
12.807182
 10
6.941807
 20
12.758181
 10
6.932692
 20
12.709021
 10
6.924339
 20
12.65973
 10
6.916748
 20
12.610306
 10
6.909919
 20
12.560749
 10
6.903852
 20
12.51114
 10
6.898547
 20
12.461425
 10
6.894004
 20
12.41163
 10
6.890253
 20
12.361756
 10
6.88726
 20
12.311856
 10
6.885011
 20
12.261903
 10
6.883582
 20
12.211923
 10
6.882736
 20
12.161943
 10
6.882445
 20
12.141571
  0
LWPOLYLINE
  5
5A
100
AcDbEntity
  8
0
  6
ByLayer
 62
    7
370
   -1
100
AcDbPolyline
 90
  409
 70
    1
 43
0
 10
6.883257
 20
24.089616
 10
6.884394
 20
24.039636
 10
6.886352
 20
23.989654
 10
6.888972
 20
23.939729
 10
6.892303
 20
23.889861
 10
6.896536
 20
23.840048
 10
6.901531
 20
23.790293
 10
6.907289
 20
23.74062
 10
6.913808
 20
23.691035
 10
6.921089
 20
23.641589
 10
6.929133
 20
23.592229
 10
6.937938
 20
23.543009
 10
6.947505
 20
23.493931
 10
6.957808
 20
23.445023
 10
6.96887
 20
23.396255
 10
6.980668
 20
23.347656
 10
6.993199
 20
23.299283
 10
7.006492
 20
23.251078
 10
7.020546
 20
23.203072
 10
7.035336
 20
23.15532
 10
7.050833
 20
23.107796
 10
7.067057
 20
23.060494
 10
7.08403
 20
23.013448
 10
7.101718
 20
22.966683
 10
7.120114
 20
22.920202
 10
7.13923
 20
22.874003
 10
7.159063
 20
22.828113
 10
7.179603
 20
22.782507
 10
7.200844
 20
22.737237
 10
7.22277
 20
22.692308
 10
7.24537
 20
22.647718
 10
7.268669
 20
22.603464
 10
7.292651
 20
22.55958
 10
7.317302
 20
22.516088
 10
7.342615
 20
22.472966
 10
7.368579
 20
22.430236
 10
7.395209
 20
22.387906
 10
7.422491
 20
22.345993
 10
7.450414
 20
22.304536
 10
7.478967
 20
22.263472
 10
7.508143
 20
22.222862
 10
7.53794
 20
22.18273
 10
7.568352
 20
22.14305
 10
7.599371
 20
22.10382
 10
7.630988
 20
22.065096
 10
7.663201
 20
22.026864
 10
7.695995
 20
21.989108
 10
7.729365
 20
21.951881
 10
7.763305
 20
21.915157
 10
7.79781
 20
21.878962
 10
7.832862
 20
21.843323
 10
7.868461
 20
21.808213
 10
7.904594
 20
21.773658
 10
7.941258
 20
21.739633
 10
7.978437
 20
21.706216
 10
8.016128
 20
21.673381
 10
8.054318
 20
21.641076
 10
8.093002
 20
21.609431
 10
8.132166
 20
21.578343
 10
8.171806999999999
 20
21.547863
 10
8.211911000000001
 20
21.518018
 10
8.252469
 20
21.488782
 10
8.293473000000001
 20
21.460154
 10
8.334909
 20
21.432161
 10
8.376773999999999
 20
21.404777
 10
8.419053
 20
21.378133
 10
8.461740000000001
 20
21.352204
 10
8.504821
 20
21.326804
 10
8.548285
 20
21.302198
 10
8.592128000000001
 20
21.278385
 10
8.636331999999999
 20
21.254837
 10
8.680892999999999
 20
21.232348
 10
8.725797
 20
21.210123
 10
8.771032
 20
21.188956
 10
8.816591000000001
 20
21.168319
 10
8.862463
 20
21.148475
 10
8.908632000000001
 20
21.129425
 10
8.955094000000001
 20
21.110904
 10
9.001833
 20
21.092913
 10
9.04884
 20
21.075979
 10
9.096102999999999
 20
21.059575
 10
9.143613
 20
21.043965
 10
9.191355
 20
21.029148
 10
9.239322
 20
21.015125
 10
9.287497
 20
21.001896
 10
9.335876000000001
 20
20.989196
 10
9.384441000000001
 20
20.97729
 10
9.433185999999999
 20
20.965913
 10
9.482094999999999
 20
20.955859
 10
9.531157
 20
20.946334
 10
9.580361999999999
 20
20.937603
 10
9.629697
 20
20.9294
 10
9.679154
 20
20.921992
 10
9.728714999999999
 20
20.915642
 10
9.778371999999999
 20
20.909821
 10
9.828113
 20
20.904794
 10
9.877928000000001
 20
20.900561
 10
9.927802
 20
20.896857
 10
9.977724
 20
20.894211
 10
10.027683
 20
20.8913
 10
10.077668
 20
20.8913
 10
10.127666
 20
20.88839
 10
10.177665
 20
20.888231
 10
10.227652
 20
20.888231
 10
10.277619
 20
20.891142
 10
10.32755
 20
20.894052
 10
10.377432
 20
20.897227
 10
10.427261
 20
20.90146
 10
10.477017
 20
20.906223
 10
10.526693
 20
20.912044
 10
10.576277
 20
20.918394
 10
10.625753
 20
20.925538
 10
10.675114
 20
20.933475
 10
10.724348
 20
20.942206
 10
10.77344
 20
20.951731
 10
10.82238
 20
20.961785
 10
10.87116
 20
20.972898
 10
10.919764
 20
20.98454
 10
10.968179
 20
20.997239
 10
11.016399
 20
21.010469
 10
11.064408
 20
21.024227
 10
11.112196
 20
21.038779
 10
11.159754
 20
21.054125
 10
11.207068
 20
21.070264
 10
11.254129
 20
21.087198
 10
11.300924
 20
21.10466
 10
11.347443
 20
21.123181
 10
11.393673
 20
21.142231
 10
11.439605
 20
21.162075
 10
11.485229
 20
21.182448
 10
11.530531
 20
21.203879
 10
11.575503
 20
21.225839
 10
11.620134
 20
21.248593
 10
11.664414
 20
21.271877
 10
11.708328
 20
21.295954
 10
11.751872
 20
21.32056
 10
11.795032
 20
21.34596
 10
11.8378
 20
21.371624
 10
11.880161
 20
21.398083
 10
11.922111
 20
21.425335
 10
11.963637
 20
21.453301
 10
12.004729
 20
21.481717
 10
12.04538
 20
21.510795
 10
12.085577
 20
21.54056
 10
12.125311
 20
21.570882
 10
12.164573
 20
21.601864
 10
12.203357
 20
21.633403
 10
12.241648
 20
21.665549
 10
12.27944
 20
21.698278
 10
12.316724
 20
21.731616
 10
12.353492
 20
21.765482
 10
12.389735
 20
21.799931
 10
12.425445
 20
21.834935
 10
12.46061
 20
21.870469
 10
12.495224
 20
21.906558
 10
12.52928
 20
21.943176
 10
12.562769
 20
21.980271
 10
12.595681
 20
22.017921
 10
12.62801
 20
22.056047
 10
12.659751
 20
22.094703
 10
12.690892
 20
22.133811
 10
12.721428
 20
22.173406
 10
12.751349
 20
22.213482
 10
12.780654
 20
22.253982
 10
12.809332
 20
22.294931
 10
12.837373
 20
22.336333
 10
12.864765
 20
22.378158
 10
12.891523
 20
22.420407
 10
12.917627
 20
22.46305
 10
12.94307
 20
22.50609
 10
12.967837
 20
22.549494
 10
12.991949
 20
22.593325
 10
13.015385
 20
22.637492
 10
13.038142
 20
22.682
 10
13.060206
 20
22.726871
 10
13.081563
 20
22.772083
 10
13.102237
 20
22.817607
 10
13.122189
 20
22.863438
 10
13.141425
 20
22.909581
 10
13.159945
 20
22.956008
 10
13.177778
 20
23.002714
 10
13.194897
 20
23.049704
 10
13.211301
 20
23.096948
 10
13.226964
 20
23.14442
 10
13.241887
 20
23.192142
 10
13.256068
 20
23.240093
 10
13.269509
 20
23.288239
 10
13.282209
 20
23.336613
 10
13.294168
 20
23.385153
 10
13.30536
 20
23.433895
 10
13.315838
 20
23.482774
 10
13.325548
 20
23.531825
 10
13.334491
 20
23.581016
 10
13.342693
 20
23.630347
 10
13.350154
 20
23.679766
 10
13.356822
 20
23.729322
 10
13.362722
 20
23.778966
 10
13.367881
 20
23.828721
 10
13.372273
 20
23.878505
 10
13.375872
 20
23.928374
 10
13.378729
 20
23.9783
 10
13.380846
 20
24.028254
 10
13.382169
 20
24.078236
 10
13.382698
 20
24.128245
 10
13.382433
 20
24.178254
 10
13.381639
 20
24.228236
 10
13.380052
 20
24.278189
 10
13.377406
 20
24.328142
 10
13.374099
 20
24.378011
 10
13.370024
 20
24.42785
 10
13.365182
 20
24.477634
 10
13.359573
 20
24.527305
 10
13.353197
 20
24.576893
 10
13.346053
 20
24.626393
 10
13.338168
 20
24.675754
 10
13.329517
 20
24.725001
 10
13.320097
 20
24.774107
 10
13.309938
 20
24.823074
 10
13.299037
 20
24.871871
 10
13.287369
 20
24.920496
 10
13.27496
 20
24.968925
 10
13.26181
 20
25.017159
 10
13.247919
 20
25.065191
 10
13.233288
 20
25.113001
 10
13.217916
 20
25.160584
 10
13.201829
 20
25.207939
 10
13.185001
 20
25.255013
 10
13.16746
 20
25.301834
 10
13.149177
 20
25.348374
 10
13.130206
 20
25.394658
 10
13.110521
 20
25.440602
 10
13.090127
 20
25.486267
 10
13.069032
 20
25.531592
 10
13.047249
 20
25.576606
 10
13.024789
 20
25.621281
 10
13.00163
 20
25.66559
 10
12.977785
 20
25.709532
 10
12.95329
 20
25.753136
 10
12.928105
 20
25.796316
 10
12.902271
 20
25.839128
 10
12.875768
 20
25.881546
 10
12.848635
 20
25.923514
 10
12.820861
 20
25.965085
 10
12.79243
 20
26.006233
 10
12.763378
 20
26.046928
 10
12.733708
 20
26.087174
 10
12.70342
 20
26.126938
 10
12.672525
 20
26.166253
 10
12.641027
 20
26.205086
 10
12.608938
 20
26.243439
 10
12.576259
 20
26.281285
 10
12.543005
 20
26.318623
 10
12.509181
 20
26.355453
 10
12.474792
 20
26.391746
 10
12.439851
 20
26.427504
 10
12.404362
 20
26.462726
 10
12.368336
 20
26.497383
 10
12.331783
 20
26.531504
 10
12.294707
 20
26.565058
 10
12.257118
 20
26.598023
 10
12.219029
 20
26.630421
 10
12.180444
 20
26.6622
 10
12.141376
 20
26.693416
 10
12.101834
 20
26.724007
 10
12.061823
 20
26.754008
 10
12.021355
 20
26.783358
 10
11.980444
 20
26.812115
 10
11.939093
 20
26.840225
 10
11.897313
 20
26.867572
 10
11.855118
 20
26.894469
 10
11.812514
 20
26.920663
 10
11.769515
 20
26.946116
 10
11.726126
 20
26.971066
 10
11.682359
 20
26.995249
 10
11.638228
 20
27.018638
 10
11.593739
 20
27.041525
 10
11.548905
 20
27.063617
 10
11.503735
 20
27.085181
 10
11.458241
 20
27.105924
 10
11.412433
 20
27.125821
 10
11.366321
 20
27.145162
 10
11.319918
 20
27.163656
 10
11.273236
 20
27.181542
 10
11.226283
 20
27.198846
 10
11.17907
 20
27.215276
 10
11.131612
 20
27.231098
 10
11.083914
 20
27.246021
 10
11.035992
 20
27.260308
 10
10.987857
 20
27.273855
 10
10.93952
 20
27.286555
 10
10.890992
 20
27.298699
 10
10.842283
 20
27.309997
 10
10.793408
 20
27.320448
 10
10.744375
 20
27.330317
 10
10.695198
 20
27.339339
 10
10.645889
 20
27.347515
 10
10.596458
 20
27.355135
 10
10.546914
 20
27.361908
 10
10.497276
 20
27.367835
 10
10.447549
 20
27.373206
 10
10.397751
 20
27.377439
 10
10.347888
 20
27.381117
 10
10.297974
 20
27.383948
 10
10.24802
 20
27.386779
 10
10.198039
 20
27.386779
 10
10.148043
 20
27.38961
 10
10.098045
 20
27.38961
 10
10.048056
 20
27.389779
 10
9.998082
 20
27.386948
 10
9.948145999999999
 20
27.384117
 10
9.898249
 20
27.381286
 10
9.848409
 20
27.377053
 10
9.798636
 20
27.372264
 10
9.748942
 20
27.366893
 10
9.699339
 20
27.360675
 10
9.649839999999999
 20
27.353611
 10
9.600453999999999
 20
27.3457
 10
9.551195
 20
27.337233
 10
9.502074
 20
27.32792
 10
9.453099999999999
 20
27.31776
 10
9.404287999999999
 20
27.307044
 10
9.355650000000001
 20
27.295191
 10
9.307195
 20
27.282782
 10
9.258932
 20
27.269791
 10
9.210881000000001
 20
27.255953
 10
9.163043999999999
 20
27.241428
 10
9.115439
 20
27.226267
 10
9.068073999999999
 20
27.210207
 10
9.020960000000001
 20
27.193538
 10
8.974111000000001
 20
27.175996
 10
8.927536
 20
27.157846
 10
8.881246000000001
 20
27.138822
 10
8.835253
 20
27.119217
 10
8.789566000000001
 20
27.098765
 10
8.744197
 20
27.077757
 10
8.699157
 20
27.055929
 10
8.654456
 20
27.033545
 10
8.610104
 20
27.010341
 10
8.566112
 20
26.986634
 10
8.522494
 20
26.962134
 10
8.479255
 20
26.937131
 10
8.436408
 20
26.91136
 10
8.393962
 20
26.88486
 10
8.351925
 20
26.857907
 10
8.310314
 20
26.830194
 10
8.269132000000001
 20
26.801773
 10
8.228389999999999
 20
26.77279
 10
8.1881
 20
26.743157
 10
8.148274000000001
 20
26.712958
 10
8.108912999999999
 20
26.682113
 10
8.070031
 20
26.650672
 10
8.031639999999999
 20
26.618639
 10
7.993743
 20
26.586016
 10
7.956355
 20
26.552827
 10
7.919479
 20
26.519071
 10
7.883132
 20
26.484726
 10
7.847315
 20
26.449843
 10
7.812037
 20
26.414424
 10
7.77731
 20
26.37844
 10
7.743139
 20
26.341949
 10
7.709534
 20
26.304923
 10
7.676506
 20
26.267387
 10
7.644056
 20
26.229342
 10
7.612196
 20
26.190819
 10
7.580931
 20
26.151788
 10
7.550272
 20
26.112278
 10
7.520223
 20
26.072315
 10
7.490793
 20
26.0319
 10
7.46199
 20
25.991035
 10
7.433815
 20
25.949747
 10
7.406273
 20
25.908007
 10
7.379395
 20
25.865843
 10
7.353164
 20
25.823282
 10
7.327595
 20
25.780329
 10
7.302669
 20
25.73698
 10
7.278427
 20
25.693234
 10
7.254856
 20
25.649152
 10
7.231964
 20
25.604702
 10
7.209763
 20
25.559884
 10
7.18826
 20
25.514757
 10
7.16744
 20
25.469291
 10
7.147342
 20
25.423516
 10
7.127949
 20
25.377428
 10
7.109264
 20
25.33106
 10
7.091275
 20
25.284408
 10
7.074016
 20
25.237474
 10
7.057469
 20
25.190288
 10
7.041668
 20
25.142875
 10
7.026592
 20
25.095179
 10
7.012249
 20
25.047287
 10
6.998644
 20
24.999167
 10
6.985775
 20
24.950851
 10
6.973668
 20
24.902364
 10
6.962293
 20
24.853654
 10
6.951683
 20
24.804802
 10
6.941807
 20
24.75578
 10
6.932692
 20
24.706618
 10
6.924339
 20
24.657313
 10
6.916748
 20
24.607894
 10
6.909919
 20
24.558364
 10
6.903852
 20
24.508752
 10
6.898547
 20
24.459024
 10
6.894004
 20
24.40924
 10
6.890253
 20
24.359371
 10
6.88726
 20
24.309473
 10
6.885011
 20
24.25952
 10
6.883582
 20
24.209538
 10
6.882736
 20
24.159558
 10
6.882445
 20
24.139185
  0
LWPOLYLINE
  5
5B
100
AcDbEntity
  8
0
  6
ByLayer
 62
    7
370
   -1
100
AcDbPolyline
 90
   67
 70
    0
 43
0
 10
5.132364
 20
33.141682
 10
5.132364
 20
35.141675
 10
5.131226
 20
35.191657
 10
5.127361
 20
35.241525
 10
5.121124
 20
35.291111
 10
5.112433
 20
35.34036
 10
5.101257
 20
35.389099
 10
5.087681
 20
35.43719
 10
5.071716
 20
35.484574
 10
5.053418
 20
35.531114
 10
5.032807
 20
35.576636
 10
5.009957
 20
35.621112
 10
4.984896
 20
35.664377
 10
4.95771
 20
35.706316
 10
4.928446
 20
35.746871
 10
4.897204
 20
35.785902
 10
4.864051
 20
35.823325
 10
4.82907
 20
35.859025
 10
4.792347
 20
35.89295
 10
4.753973
 20
35.925009
 10
4.714047
 20
35.955095
 10
4.672665
 20
35.983146
 10
4.629934
 20
36.009234
 10
4.585959
 20
36.032993
 10
4.540851
 20
36.05461
 10
4.494722
 20
36.074004
 10
4.447687
 20
36.091043
 10
4.399865
 20
36.105648
 10
4.35137
 20
36.117792
 10
4.302331
 20
36.127661
 10
4.252866
 20
36.13499
 10
4.203102
 20
36.139779
 10
4.15316
 20
36.14261
 10
4.132373
 20
36.14261
 10
1.132381
 20
36.14261
 10
1.082402
 20
36.135546
 10
1.032552
 20
36.131868
 10
0.982945
 20
36.12565
 10
0.933715
 20
36.116893
 10
0.88498
 20
36.105886
 10
0.8368640000000001
 20
36.092339
 10
0.789485
 20
36.076332
 10
0.742966
 20
36.058129
 10
0.697418
 20
36.037544
 10
0.652957
 20
36.014684
 10
0.609695
 20
35.989628
 10
0.56774
 20
35.962479
 10
0.527196
 20
35.933129
 10
0.488165
 20
35.901887
 10
0.450745
 20
35.868725
 10
0.415027
 20
35.833757
 10
0.381105
 20
35.797012
 10
0.349058
 20
35.758658
 10
0.318968
 20
35.718725
 10
0.290912
 20
35.677352
 10
0.264959
 20
35.634622
 10
0.241159
 20
35.590653
 10
0.219609
 20
35.545526
 10
0.20034
 20
35.499409
 10
0.183396
 20
35.452364
 10
0.168812
 20
35.404556
 10
0.156649
 20
35.356042
 10
0.146912
 20
35.30702
 10
0.13966
 20
35.257546
 10
0.134863
 20
35.207791
 10
0.132561
 20
35.157838
 10
0.13227
 20
35.137042
  0
LWPOLYLINE
  5
5C
100
AcDbEntity
  8
0
  6
ByLayer
 62
    7
370
   -1
100
AcDbPolyline
 90
    3
 70
    0
 43
0
 10
60.132563
 20
17.916754
 10
35.132477
 20
17.916754
 10
35.132477
 20
28.114953
  0
LWPOLYLINE
  5
5D
100
AcDbEntity
  8
0
  6
ByLayer
 62
    7
370
   -1
100
AcDbPolyline
 90
    2
 70
    0
 43
0
 10
0.132261
 20
33.132829
 10
0.132261
 20
3.132311
  0
LWPOLYLINE
  5
5E
100
AcDbEntity
  8
0
  6
ByLayer
 62
    7
370
   -1
100
AcDbPolyline
 90
    2
 70
    0
 43
0
 10
0.132261
 20
35.132734
 10
0.132261
 20
33.132829
  0
LWPOLYLINE
  5
5F
100
AcDbEntity
  8
0
  6
ByLayer
 62
    7
370
   -1
100
AcDbPolyline
 90
    2
 70
    0
 43
0
 10
15.132346
 20
33.137353
 10
5.132364
 20
33.137353
  0
LWPOLYLINE
  5
60
100
AcDbEntity
  8
0
  6
ByLayer
 62
    7
370
   -1
100
AcDbPolyline
 90
    2
 70
    0
 43
0
 10
15.132346
 20
35.137261
 10
15.132346
 20
33.137353
  0
LWPOLYLINE
  5
61
100
AcDbEntity
  8
0
  6
ByLayer
 62
    7
370
   -1
100
AcDbPolyline
 90
    2
 70
    0
 43
0
 10
20.132421
 20
33.135501
 10
20.132421
 20
35.135491
  0
LWPOLYLINE
  5
62
100
AcDbEntity
  8
0
  6
ByLayer
 62
    7
370
   -1
100
AcDbPolyline
 90
    2
 70
    0
 43
0
 10
30.132405
 20
33.135501
 10
20.132421
 20
33.135501
  0
LWPOLYLINE
  5
63
100
AcDbEntity
  8
0
  6
ByLayer
 62
    7
370
   -1
100
AcDbPolyline
 90
    2
 70
    0
 43
0
 10
30.132405
 20
35.135407
 10
30.132405
 20
33.135501
  0
LWPOLYLINE
  5
64
100
AcDbEntity
  8
0
  6
ByLayer
 62
    7
370
   -1
100
AcDbPolyline
 90
    2
 70
    0
 43
0
 10
35.13248
 20
33.132855
 10
35.13248
 20
35.132848
  0
LWPOLYLINE
  5
65
100
AcDbEntity
  8
0
  6
ByLayer
 62
    7
370
   -1
100
AcDbPolyline
 90
    2
 70
    0
 43
0
 10
75.13258500000001
 20
33.128339
 10
65.132603
 20
33.128339
  0
LWPOLYLINE
  5
66
100
AcDbEntity
  8
0
  6
ByLayer
 62
    7
370
   -1
100
AcDbPolyline
 90
    2
 70
    0
 43
0
 10
80.132064
 20
3.131491
 10
80.132064
 20
33.131416
  0
LWPOLYLINE
  5
67
100
AcDbEntity
  8
0
  6
ByLayer
 62
    7
370
   -1
100
AcDbPolyline
 90
    2
 70
    0
 43
0
 10
80.132064
 20
1.131562
 10
80.132064
 20
3.131465
  0
LWPOLYLINE
  5
68
100
AcDbEntity
  8
0
  6
ByLayer
 62
    7
370
   -1
100
AcDbPolyline
 90
    2
 70
    0
 43
0
 10
75.131964
 20
3.13411
 10
75.131964
 20
1.134128
  0
LWPOLYLINE
  5
69
100
AcDbEntity
  8
0
  6
ByLayer
 62
    7
370
   -1
100
AcDbPolyline
 90
    2
 70
    0
 43
0
 10
65.131979
 20
3.13411
 10
75.131964
 20
3.13411
  0
LWPOLYLINE
  5
6A
100
AcDbEntity
  8
0
  6
ByLayer
 62
    7
370
   -1
100
AcDbPolyline
 90
    2
 70
    0
 43
0
 10
65.131979
 20
1.134208
 10
65.131979
 20
3.13411
  0
LWPOLYLINE
  5
6B
100
AcDbEntity
  8
0
  6
ByLayer
 62
    7
370
   -1
100
AcDbPolyline
 90
    2
 70
    0
 43
0
 10
60.131905
 20
3.133846
 10
60.131905
 20
1.133837
  0
LWPOLYLINE
  5
6C
100
AcDbEntity
  8
0
  6
ByLayer
 62
    7
370
   -1
100
AcDbPolyline
 90
    2
 70
    0
 43
0
 10
50.13192
 20
3.133846
 10
60.131905
 20
3.133846
  0
LWPOLYLINE
  5
6D
100
AcDbEntity
  8
0
  6
ByLayer
 62
    7
370
   -1
100
AcDbPolyline
 90
    2
 70
    0
 43
0
 10
50.13192
 20
1.133917
 10
50.13192
 20
3.133846
  0
LWPOLYLINE
  5
6E
100
AcDbEntity
  8
0
  6
ByLayer
 62
    7
370
   -1
100
AcDbPolyline
 90
    2
 70
    0
 43
0
 10
45.131845
 20
3.133846
 10
45.131845
 20
1.133864
  0
LWPOLYLINE
  5
6F
100
AcDbEntity
  8
0
  6
ByLayer
 62
    7
370
   -1
100
AcDbPolyline
 90
    2
 70
    0
 43
0
 10
35.131858
 20
3.133846
 10
45.131845
 20
3.133846
  0
LWPOLYLINE
  5
70
100
AcDbEntity
  8
0
  6
ByLayer
 62
    7
370
   -1
100
AcDbPolyline
 90
    2
 70
    0
 43
0
 10
35.131858
 20
1.133943
 10
35.131858
 20
3.133846
  0
LWPOLYLINE
  5
71
100
AcDbEntity
  8
0
  6
ByLayer
 62
    7
370
   -1
100
AcDbPolyline
 90
    2
 70
    0
 43
0
 10
30.131755
 20
3.133846
 10
30.131755
 20
1.133864
  0
LWPOLYLINE
  5
72
100
AcDbEntity
  8
0
  6
ByLayer
 62
    7
370
   -1
100
AcDbPolyline
 90
    2
 70
    0
 43
0
 10
20.13177
 20
3.133846
 10
30.131755
 20
3.133846
  0
LWPOLYLINE
  5
73
100
AcDbEntity
  8
0
  6
ByLayer
 62
    7
370
   -1
100
AcDbPolyline
 90
    2
 70
    0
 43
0
 10
20.13177
 20
1.133943
 10
20.13177
 20
3.133846
  0
LWPOLYLINE
  5
74
100
AcDbEntity
  8
0
  6
ByLayer
 62
    7
370
   -1
100
AcDbPolyline
 90
    2
 70
    0
 43
0
 10
15.131696
 20
3.136492
 10
15.131696
 20
1.136483
  0
LWPOLYLINE
  5
75
100
AcDbEntity
  8
0
  6
ByLayer
 62
    7
370
   -1
100
AcDbPolyline
 90
    2
 70
    0
 43
0
 10
5.131712
 20
3.136492
 10
15.131696
 20
3.136492
  0
LWPOLYLINE
  5
76
100
AcDbEntity
  8
0
  6
ByLayer
 62
    7
370
   -1
100
AcDbPolyline
 90
    2
 70
    0
 43
0
 10
5.131712
 20
1.136589
 10
5.131712
 20
3.136492
  0
LWPOLYLINE
  5
77
100
AcDbEntity
  8
0
  6
ByLayer
 62
    7
370
   -1
100
AcDbPolyline
 90
    2
 70
    0
 43
0
 10
0.132261
 20
3.133581
 10
0.132269
 20
1.134525
  0
LWPOLYLINE
  5
78
100
AcDbEntity
  8
0
  6
ByLayer
 62
    1
370
   -1
100
AcDbPolyline
 90
    2
 70
    0
 43
0
 10
17.130808
 20
17.126332
 10
17.13266
 20
16.898341
  0
LWPOLYLINE
  5
79
100
AcDbEntity
  8
0
  6
ByLayer
 62
    1
370
   -1
100
AcDbPolyline
 90
   24
 70
    0
 43
0
 10
11.084498
 20
17.873859
 10
11.084842
 20
17.853486
 10
11.086827
 20
17.803612
 10
11.090683
 20
17.753765
 10
11.096357
 20
17.704076
 10
11.103921
 20
17.654652
 10
11.113432
 20
17.605572
 10
11.124917
 20
17.556915
 10
11.138409
 20
17.508787
 10
11.153947
 20
17.461241
 10
11.171539
 20
17.414463
 10
11.191221
 20
17.368505
 10
11.212996
 20
17.323499
 10
11.236883
 20
17.279579
 10
11.262871
 20
17.236875
 10
11.290935
 20
17.195494
 10
11.321031
 20
17.155568
 10
11.353128
 20
17.117257
 10
11.38717
 20
17.080612
 10
11.423091
 20
17.045846
 10
11.460804
 20
17.013037
 10
11.500219
 20
16.982293
 10
11.541226
 20
16.953665
 10
11.583706
 20
16.927207
  0
LWPOLYLINE
  5
7A
100
AcDbEntity
  8
0
  6
ByLayer
 62
    1
370
   -1
100
AcDbPolyline
 90
    6
 70
    0
 43
0
 10
11.583706
 20
16.927312
 10
11.627535
 20
16.903235
 10
11.672578
 20
16.88146
 10
11.718702
 20
16.862093
 10
11.765762
 20
16.845212
 10
11.813619
 20
16.830898
  0
LWPOLYLINE
  5
7B
100
AcDbEntity
  8
0
  6
ByLayer
 62
    1
370
   -1
100
AcDbPolyline
 90
    6
 70
    0
 43
0
 10
11.813619
 20
16.830792
 10
11.862141
 20
16.818622
 10
11.911191
 20
16.809123
 10
11.960648
 20
16.801662
 10
12.010387
 20
16.796688
 10
12.060306
 20
16.793724
  0
LWPOLYLINE
  5
7C
100
AcDbEntity
  8
0
  6
ByLayer
 62
    1
370
   -1
100
AcDbPolyline
 90
    4
 70
    0
 43
0
 10
12.060306
 20
16.79383
 10
12.110296
 20
16.79383
 10
12.130182
 20
16.79383
 10
12.180112
 20
16.796741
  0
LWPOLYLINE
  5
7D
100
AcDbEntity
  8
0
  6
ByLayer
 62
    1
370
   -1
100
AcDbPolyline
 90
    3
 70
    0
 43
0
 10
12.180112
 20
16.796635
 10
12.229902
 20
16.801133
 10
12.279435
 20
16.808038
  0
LWPOLYLINE
  5
7E
100
AcDbEntity
  8
0
  6
ByLayer
 62
    1
370
   -1
100
AcDbPolyline
 90
    5
 70
    0
 43
0
 10
12.279435
 20
16.807932
 10
12.328592
 20
16.816928
 10
12.377253
 20
16.828596
 10
12.425287
 20
16.842302
 10
12.472562
 20
16.858759
  0
LWPOLYLINE
  5
7F
100
AcDbEntity
  8
0
  6
ByLayer
 62
    1
370
   -1
100
AcDbPolyline
 90
   29
 70
    0
 43
0
 10
12.472562
 20
16.858653
 10
12.51894
 20
16.877174
 10
12.564282
 20
16.898394
 10
12.60845
 20
16.921624
 10
12.651313
 20
16.947315
 10
12.692744
 20
16.975414
 10
12.732616
 20
17.005603
 10
12.770826
 20
17.037829
 10
12.807272
 20
17.072066
 10
12.841867
 20
17.108155
 10
12.874534
 20
17.14599
 10
12.905217
 20
17.185466
 10
12.93386
 20
17.22645
 10
12.960434
 20
17.268784
 10
12.9849
 20
17.312387
 10
13.007278
 20
17.357075
 10
13.027521
 20
17.402795
 10
13.045663
 20
17.449388
 10
13.061723
 20
17.496722
 10
13.075707
 20
17.544717
 10
13.087646
 20
17.593268
 10
13.097581
 20
17.642296
 10
13.105538
 20
17.691667
 10
13.11155
 20
17.741276
 10
13.115705
 20
17.791097
 10
13.118081
 20
17.841024
 10
13.118515
 20
17.891057
 10
13.118285
 20
17.909313
 10
13.116081
 20
17.959293
  0
LWPOLYLINE
  5
80
100
AcDbEntity
  8
0
  6
ByLayer
 62
    1
370
   -1
100
AcDbPolyline
 90
   23
 70
    0
 43
0
 10
13.11621
 20
17.959293
 10
13.11248
 20
18.00914
 10
13.106868
 20
18.058829
 10
13.099332
 20
18.108253
 10
13.089821
 20
18.157333
 10
13.078307
 20
18.20599
 10
13.064789
 20
18.254118
 10
13.049239
 20
18.301611
 10
13.031593
 20
18.348415
 10
13.011869
 20
18.394374
 10
12.990041
 20
18.439353
 10
12.966105
 20
18.483221
 10
12.940093
 20
18.525924
 10
12.912008
 20
18.567279
 10
12.881875
 20
18.607178
 10
12.849752
 20
18.645489
 10
12.815691
 20
18.682081
 10
12.779761
 20
18.716848
 10
12.742045
 20
18.749682
 10
12.702633
 20
18.7804
 10
12.661637
 20
18.809028
 10
12.619171
 20
18.835487
 10
12.575359
 20
18.859749
  0
LWPOLYLINE
  5
81
100
AcDbEntity
  8
0
  6
ByLayer
 62
    1
370
   -1
100
AcDbPolyline
 90
    2
 70
    0
 43
0
 10
12.575359
 20
18.859643
 10
12.530333
 20
18.881339
  0
LWPOLYLINE
  5
82
100
AcDbEntity
  8
0
  6
ByLayer
 62
    1
370
   -1
100
AcDbPolyline
 90
    3
 70
    0
 43
0
 10
12.530333
 20
18.881445
 10
12.484232
 20
18.900759
 10
12.437189
 20
18.917481
  0
LWPOLYLINE
  5
83
100
AcDbEntity
  8
0
  6
ByLayer
 62
    1
370
   -1
100
AcDbPolyline
 90
   12
 70
    0
 43
0
 10
12.437189
 20
18.917613
 10
12.389346
 20
18.932165
 10
12.340838
 20
18.944257
 10
12.291799
 20
18.953729
 10
12.242348
 20
18.961481
 10
12.192612
 20
18.966455
 10
12.142695
 20
18.969419
 10
12.092705
 20
18.969339
 10
12.073695
 20
18.969339
 10
12.023764
 20
18.966429
 10
11.973966
 20
18.96201
 10
11.924419
 20
18.955105
  0
LWPOLYLINE
  5
84
100
AcDbEntity
  8
0
  6
ByLayer
 62
    1
370
   -1
100
AcDbPolyline
 90
    5
 70
    0
 43
0
 10
11.924419
 20
18.955211
 10
11.875239
 20
18.946215
 10
11.826547
 20
18.934811
 10
11.778471
 20
18.921132
 10
11.731145
 20
18.905204
  0
LWPOLYLINE
  5
85
100
AcDbEntity
  8
0
  6
ByLayer
 62
    1
370
   -1
100
AcDbPolyline
 90
    3
 70
    0
 43
0
 10
11.731145
 20
18.905099
 10
11.684705
 20
18.886578
 10
11.639293
 20
18.865623
  0
LWPOLYLINE
  5
86
100
AcDbEntity
  8
0
  6
ByLayer
 62
    1
370
   -1
100
AcDbPolyline
 90
   25
 70
    0
 43
0
 10
11.639293
 20
18.865729
 10
11.595049
 20
18.842445
 10
11.552103
 20
18.816781
 10
11.510591
 20
18.788946
 10
11.470634
 20
18.758969
 10
11.432345
 20
18.726822
 10
11.395822
 20
18.692665
 10
11.36116
 20
18.656655
 10
11.328433
 20
18.618872
 10
11.297702
 20
18.579423
 10
11.269017
 20
18.538492
 10
11.242418
 20
18.496159
 10
11.217939
 20
18.452555
 10
11.195565
 20
18.407841
 10
11.175318
 20
18.362121
 10
11.157188
 20
18.315554
 10
11.141151
 20
18.26822
 10
11.127171
 20
18.220198
 10
11.115262
 20
18.171621
 10
11.105354
 20
18.122647
 10
11.097422
 20
18.073275
 10
11.091412
 20
18.02364
 10
11.087319
 20
17.973818
 10
11.085072
 20
17.923865
 10
11.084507
 20
17.873859
  0
LWPOLYLINE
  5
87
100
AcDbEntity
  8
0
  6
ByLayer
 62
    1
370
   -1
100
AcDbPolyline
 90
    4
 70
    0
 43
0
 10
13.798525
 20
16.874131
 10
13.788551
 20
18.135717
 10
13.788561
 20
18.150798
 10
13.789884
 20
18.200937
  0
LWPOLYLINE
  5
88
100
AcDbEntity
  8
0
  6
ByLayer
 62
    1
370
   -1
100
AcDbPolyline
 90
   13
 70
    0
 43
0
 10
13.789987
 20
18.200937
 10
13.794062
 20
18.250731
 10
13.801142
 20
18.300235
 10
13.8114
 20
18.349156
 10
13.825087
 20
18.397231
 10
13.842504
 20
18.444089
 10
13.863856
 20
18.48928
 10
13.889293
 20
18.532274
 10
13.918887
 20
18.572597
 10
13.952473
 20
18.609586
 10
13.989795
 20
18.642817
 10
14.030425
 20
18.671921
 10
14.073843
 20
18.696792
  0
LWPOLYLINE
  5
89
100
AcDbEntity
  8
0
  6
ByLayer
 62
    1
370
   -1
100
AcDbPolyline
 90
   15
 70
    0
 43
0
 10
14.073843
 20
18.696686
 10
14.119475
 20
18.717059
 10
14.166783
 20
18.733146
 10
14.215281
 20
18.745396
 10
14.264562
 20
18.753598
 10
14.314307
 20
18.758334
 10
14.364265
 20
18.761271
 10
14.378738
 20
18.761192
 10
14.428718
 20
18.758281
 10
14.478446
 20
18.753334
 10
14.52768
 20
18.744549
 10
14.576083
 20
18.732114
 10
14.623218
 20
18.715445
 10
14.668592
 20
18.694543
 10
14.711639
 20
18.669117
  0
LWPOLYLINE
  5
8A
100
AcDbEntity
  8
0
  6
ByLayer
 62
    1
370
   -1
100
AcDbPolyline
 90
   41
 70
    0
 43
0
 10
14.711639
 20
18.669011
 10
14.7518
 20
18.639272
 10
14.788556
 20
18.605432
 10
14.821529
 20
18.567861
 10
14.850474
 20
18.527115
 10
14.875318
 20
18.483776
 10
14.89617
 20
18.438321
 10
14.913148
 20
18.391304
 10
14.926499
 20
18.34315
 10
14.936522
 20
18.294176
 10
14.943472
 20
18.244646
 10
14.94764
 20
18.194825
 10
14.949219
 20
18.144872
 10
14.959376
 20
16.879899
 10
15.214353
 20
16.88281
 10
15.204113
 20
18.150692
 10
15.204095
 20
18.153603
 10
15.202772
 20
18.203503
 10
15.199496
 20
18.253377
 10
15.194268
 20
18.303119
 10
15.186876
 20
18.352569
 10
15.177128
 20
18.401623
 10
15.164931
 20
18.450095
 10
15.150146
 20
18.497852
 10
15.132581
 20
18.544657
 10
15.112094
 20
18.590244
 10
15.088665
 20
18.63443
 10
15.062196
 20
18.676816
 10
15.032671
 20
18.717165
 10
15.00018
 20
18.755159
 10
14.964864
 20
18.790508
 10
14.926909
 20
18.823051
 10
14.886574
 20
18.852579
 10
14.844145
 20
18.879037
 10
14.799917
 20
18.902294
 10
14.754197
 20
18.922587
 10
14.707268
 20
18.939785
 10
14.659373
 20
18.95402
 10
14.610754
 20
18.965715
 10
14.561586
 20
18.974631
 10
14.51204
 20
18.981537
  0
LWPOLYLINE
  5
8B
100
AcDbEntity
  8
0
  6
ByLayer
 62
    1
370
   -1
100
AcDbPolyline
 90
    9
 70
    0
 43
0
 10
14.51204
 20
18.981431
 10
14.462246
 20
18.985664
 10
14.412306
 20
18.988575
 10
14.36231
 20
18.988495
 10
14.313145
 20
18.988495
 10
14.26325
 20
18.98532
 10
14.213535
 20
18.980108
 10
14.164103
 20
18.97262
 10
14.115091
 20
18.96291
  0
LWPOLYLINE
  5
8C
100
AcDbEntity
  8
0
  6
ByLayer
 62
    1
370
   -1
100
AcDbPolyline
 90
    3
 70
    0
 43
0
 10
14.115091
 20
18.962804
 10
14.066665
 20
18.950369
 10
14.019016
 20
18.935049
  0
LWPOLYLINE
  5
8D
100
AcDbEntity
  8
0
  6
ByLayer
 62
    1
370
   -1
100
AcDbPolyline
 90
    2
 70
    0
 43
0
 10
14.019016
 20
18.935155
 10
13.972367
 20
18.917428
  0
LWPOLYLINE
  5
8E
100
AcDbEntity
  8
0
  6
ByLayer
 62
    1
370
   -1
100
AcDbPolyline
 90
   20
 70
    0
 43
0
 10
13.972367
 20
18.917296
 10
13.92697
 20
18.896394
 10
13.883107
 20
18.87237
 10
13.841073
 20
18.845356
 10
13.801163
 20
18.815299
 10
13.763659
 20
18.782253
 10
13.7288
 20
18.746428
 10
13.696793
 20
18.70801
 10
13.667768
 20
18.667318
 10
13.641786
 20
18.624614
 10
13.618852
 20
18.580217
 10
13.598966
 20
18.534338
 10
13.581972
 20
18.487322
 10
13.56778
 20
18.439379
 10
13.556236
 20
18.390749
 10
13.547206
 20
18.341563
 10
13.540504
 20
18.292033
 10
13.536062
 20
18.242212
 10
13.533667
 20
18.192285
 10
13.533358
 20
18.142279
  0
LWPOLYLINE
  5
8F
100
AcDbEntity
  8
0
  6
ByLayer
 62
    1
370
   -1
100
AcDbPolyline
 90
    3
 70
    0
 43
0
 10
13.533228
 20
18.142279
 10
13.54352
 20
16.871327
 10
13.798525
 20
16.874237
  0
LWPOLYLINE
  5
90
100
AcDbEntity
  8
0
  6
ByLayer
 62
    1
370
   -1
100
AcDbPolyline
 90
   11
 70
    0
 43
0
 10
5.753169
 20
17.159855
 10
5.536991
 20
17.278758
 10
5.522693
 20
17.257592
 10
5.492425
 20
17.217719
 10
5.45927
 20
17.180307
 10
5.423476
 20
17.145408
 10
5.38526
 20
17.113182
 10
5.34484
 20
17.083787
 10
5.302422
 20
17.057302
 10
5.258217
 20
17.034019
 10
5.212449
 20
17.013911
  0
LWPOLYLINE
  5
91
100
AcDbEntity
  8
0
  6
ByLayer
 62
    1
370
   -1
100
AcDbPolyline
 90
    2
 70
    0
 43
0
 10
5.212449
 20
17.014016
 10
5.165338
 20
16.997348
  0
LWPOLYLINE
  5
92
100
AcDbEntity
  8
0
  6
ByLayer
 62
    1
370
   -1
100
AcDbPolyline
 90
    4
 70
    0
 43
0
 10
5.165338
 20
16.997242
 10
5.117129
 20
16.984013
 10
5.068076
 20
16.974435
 10
5.018444
 20
16.968535
  0
LWPOLYLINE
  5
93
100
AcDbEntity
  8
0
  6
ByLayer
 62
    1
370
   -1
100
AcDbPolyline
 90
    6
 70
    0
 43
0
 10
5.018444
 20
16.968429
 10
4.968505
 20
16.965518
 10
4.919825
 20
16.968508
 10
4.87001
 20
16.972662
 10
4.82057
 20
16.98007
 10
4.771723
 20
16.990601
  0
LWPOLYLINE
  5
94
100
AcDbEntity
  8
0
  6
ByLayer
 62
    1
370
   -1
100
AcDbPolyline
 90
    3
 70
    0
 43
0
 10
4.771723
 20
16.990733
 10
4.723691
 20
17.004491
 10
4.676701
 20
17.021769
  0
LWPOLYLINE
  5
95
100
AcDbEntity
  8
0
  6
ByLayer
 62
    1
370
   -1
100
AcDbPolyline
 90
    3
 70
    0
 43
0
 10
4.676701
 20
17.021663
 10
4.630976
 20
17.041771
 10
4.586732
 20
17.065002
  0
LWPOLYLINE
  5
96
100
AcDbEntity
  8
0
  6
ByLayer
 62
    1
370
   -1
100
AcDbPolyline
 90
    2
 70
    0
 43
0
 10
4.586732
 20
17.064869
 10
4.544167
 20
17.091063
  0
LWPOLYLINE
  5
97
100
AcDbEntity
  8
0
  6
ByLayer
 62
    1
370
   -1
100
AcDbPolyline
 90
   38
 70
    0
 43
0
 10
4.544167
 20
17.091195
 10
4.503468
 20
17.12022
 10
4.464803
 20
17.151917
 10
4.428323
 20
17.186075
 10
4.394149
 20
17.222534
 10
4.362388
 20
17.261164
 10
4.333121
 20
17.301671
 10
4.306409
 20
17.343952
 10
4.282308
 20
17.38774
 10
4.260791
 20
17.432878
 10
4.241913
 20
17.47918
 10
4.225641
 20
17.526435
 10
4.211964
 20
17.574536
 10
4.200816
 20
17.623246
 10
4.192179
 20
17.672485
 10
4.185972
 20
17.72212
 10
4.182132
 20
17.771941
 10
4.180598
 20
17.821921
 10
4.181164
 20
17.869096
 10
4.184192
 20
17.918997
 10
4.189554
 20
17.968712
 10
4.197371
 20
18.01811
 10
4.207701
 20
18.067005
 10
4.220598
 20
18.115291
 10
4.23609
 20
18.162837
 10
4.254212
 20
18.20943
 10
4.274966
 20
18.254912
 10
4.298359
 20
18.299124
 10
4.324366
 20
18.341801
 10
4.352928
 20
18.382838
 10
4.384003
 20
18.421996
 10
4.417511
 20
18.459091
 10
4.453356
 20
18.493936
 10
4.491417
 20
18.526348
 10
4.531552
 20
18.556166
 10
4.5736
 20
18.583207
 10
4.617378
 20
18.607284
 10
4.662698
 20
18.628424
  0
LWPOLYLINE
  5
98
100
AcDbEntity
  8
0
  6
ByLayer
 62
    1
370
   -1
100
AcDbPolyline
 90
    3
 70
    0
 43
0
 10
4.662698
 20
18.62853
 10
4.70934
 20
18.646521
 10
4.757092
 20
18.661259
  0
LWPOLYLINE
  5
99
100
AcDbEntity
  8
0
  6
ByLayer
 62
    1
370
   -1
100
AcDbPolyline
 90
    9
 70
    0
 43
0
 10
4.757092
 20
18.661153
 10
4.805725
 20
18.672794
 10
4.855018
 20
18.681182
 10
4.904745
 20
18.686209
 10
4.954699
 20
18.689172
 10
4.980863
 20
18.689093
 10
5.030746
 20
18.685653
 10
5.080248
 20
18.678562
 10
5.129109
 20
18.668323
  0
LWPOLYLINE
  5
9A
100
AcDbEntity
  8
0
  6
ByLayer
 62
    1
370
   -1
100
AcDbPolyline
 90
    3
 70
    0
 43
0
 10
5.129109
 20
18.668191
 10
5.177067
 20
18.654168
 10
5.223865
 20
18.636626
  0
LWPOLYLINE
  5
9B
100
AcDbEntity
  8
0
  6
ByLayer
 62
    1
370
   -1
100
AcDbPolyline
 90
    2
 70
    0
 43
0
 10
5.223865
 20
18.63652
 10
5.269258
 20
18.615618
  0
LWPOLYLINE
  5
9C
100
AcDbEntity
  8
0
  6
ByLayer
 62
    1
370
   -1
100
AcDbPolyline
 90
    2
 70
    0
 43
0
 10
5.269258
 20
18.615512
 10
5.313008
 20
18.591435
  0
LWPOLYLINE
  5
9D
100
AcDbEntity
  8
0
  6
ByLayer
 62
    1
370
   -1
100
AcDbPolyline
 90
   22
 70
    0
 43
0
 10
5.313008
 20
18.591303
 10
5.354881
 20
18.564051
 10
5.394655
 20
18.533835
 10
5.4321
 20
18.500736
 10
5.466989
 20
18.464911
 10
5.499091
 20
18.426626
 10
5.528166
 20
18.38596
 10
5.74516
 20
18.511716
 10
5.728688
 20
18.533677
 10
5.697521
 20
18.572808
 10
5.664722
 20
18.610538
 10
5.630256
 20
18.646759
 10
5.594096
 20
18.681261
 10
5.556236
 20
18.713911
 10
5.516696
 20
18.744523
 10
5.475534
 20
18.772913
 10
5.432828
 20
18.798842
 10
5.388694
 20
18.822443
 10
5.343268
 20
18.843318
 10
5.296707
 20
18.861575
 10
5.249178
 20
18.877106
 10
5.200859
 20
18.889859
  0
LWPOLYLINE
  5
9E
100
AcDbEntity
  8
0
  6
ByLayer
 62
    1
370
   -1
100
AcDbPolyline
 90
    2
 70
    0
 43
0
 10
5.200859
 20
18.889964
 10
5.151916
 20
18.900548
  0
LWPOLYLINE
  5
9F
100
AcDbEntity
  8
0
  6
ByLayer
 62
    1
370
   -1
100
AcDbPolyline
 90
   12
 70
    0
 43
0
 10
5.151916
 20
18.900415
 10
5.102507
 20
18.908088
 10
5.052782
 20
18.913062
 10
5.002871
 20
18.916026
 10
4.952878
 20
18.915946
 10
4.916195
 20
18.915735
 10
4.866295
 20
18.91256
 10
4.816582
 20
18.907347
 10
4.767159
 20
18.899595
 10
4.71814
 20
18.889859
 10
4.669632
 20
18.877608
 10
4.62175
 20
18.863347
  0
LWPOLYLINE
  5
A0
100
AcDbEntity
  8
0
  6
ByLayer
 62
    1
370
   -1
100
AcDbPolyline
 90
    5
 70
    0
 43
0
 10
4.62175
 20
18.863241
 10
4.574619
 20
18.846573
 10
4.528351
 20
18.827549
 10
4.483072
 20
18.806462
 10
4.438895
 20
18.782835
  0
LWPOLYLINE
  5
A1
100
AcDbEntity
  8
0
  6
ByLayer
 62
    1
370
   -1
100
AcDbPolyline
 90
    2
 70
    0
 43
0
 10
4.438895
 20
18.78294
 10
4.395941
 20
18.757276
  0
LWPOLYLINE
  5
A2
100
AcDbEntity
  8
0
  6
ByLayer
 62
    1
370
   -1
100
AcDbPolyline
 90
   47
 70
    0
 43
0
 10
4.395941
 20
18.757382
 10
4.354327
 20
18.729786
 10
4.314164
 20
18.699967
 10
4.275556
 20
18.668191
 10
4.238605
 20
18.634536
 10
4.203406
 20
18.599029
 10
4.170039
 20
18.561802
 10
4.138588
 20
18.522935
 10
4.109113
 20
18.482559
 10
4.081673
 20
18.440755
 10
4.056305
 20
18.397681
 10
4.033049
 20
18.353416
 10
4.011956
 20
18.308093
 10
3.993008
 20
18.261817
 10
3.976217
 20
18.214748
 10
3.961554
 20
18.166938
 10
3.949023
 20
18.118546
 10
3.938608
 20
18.069624
 10
3.930255
 20
18.020359
 10
3.923934
 20
17.970749
 10
3.919586
 20
17.920928
 10
3.91718
 20
17.871001
 10
3.916818
 20
17.820995
 10
3.917668
 20
17.782789
 10
3.920407
 20
17.732863
 10
3.925004
 20
17.683068
 10
3.931638
 20
17.633512
 10
3.940274
 20
17.584273
 10
3.950971
 20
17.535457
 10
3.963726
 20
17.487091
 10
3.978628
 20
17.439387
 10
3.995636
 20
17.39237
 10
4.01478
 20
17.346148
 10
4.036048
 20
17.30093
 10
4.059424
 20
17.256719
 10
4.084905
 20
17.213724
 10
4.11246
 20
17.171999
 10
4.142043
 20
17.131703
 10
4.173584
 20
17.092889
 10
4.20703
 20
17.055741
 10
4.242299
 20
17.020313
 10
4.279316
 20
16.986685
 10
4.317986
 20
16.954988
 10
4.358205
 20
16.925302
 10
4.399872
 20
16.897679
 10
4.442875
 20
16.872279
 10
4.487099
 20
16.848943
  0
LWPOLYLINE
  5
A3
100
AcDbEntity
  8
0
  6
ByLayer
 62
    1
370
   -1
100
AcDbPolyline
 90
    2
 70
    0
 43
0
 10
4.487099
 20
16.848837
 10
4.532427
 20
16.827935
  0
LWPOLYLINE
  5
A4
100
AcDbEntity
  8
0
  6
ByLayer
 62
    1
370
   -1
100
AcDbPolyline
 90
    4
 70
    0
 43
0
 10
4.532427
 20
16.827829
 10
4.578739
 20
16.809044
 10
4.625916
 20
16.792666
 10
4.673837
 20
16.778326
  0
LWPOLYLINE
  5
A5
100
AcDbEntity
  8
0
  6
ByLayer
 62
    1
370
   -1
100
AcDbPolyline
 90
    6
 70
    0
 43
0
 10
4.673837
 20
16.778431
 10
4.722382
 20
16.766525
 10
4.771435
 20
16.757053
 10
4.820883
 20
16.749592
 10
4.870616
 20
16.744618
 10
4.92053
 20
16.741654
  0
LWPOLYLINE
  5
A6
100
AcDbEntity
  8
0
  6
ByLayer
 62
    1
370
   -1
100
AcDbPolyline
 90
    7
 70
    0
 43
0
 10
4.92053
 20
16.74176
 10
4.97052
 20
16.74176
 10
4.996512
 20
16.741549
 10
5.046441
 20
16.744724
 10
5.096191
 20
16.749433
 10
5.145645
 20
16.756868
 10
5.194658
 20
16.766578
  0
LWPOLYLINE
  5
A7
100
AcDbEntity
  8
0
  6
ByLayer
 62
    1
370
   -1
100
AcDbPolyline
 90
    3
 70
    0
 43
0
 10
5.194658
 20
16.766684
 10
5.243085
 20
16.779119
 10
5.290761
 20
16.794174
  0
LWPOLYLINE
  5
A8
100
AcDbEntity
  8
0
  6
ByLayer
 62
    1
370
   -1
100
AcDbPolyline
 90
   13
 70
    0
 43
0
 10
5.290761
 20
16.794042
 10
5.337511
 20
16.811769
 10
5.383174
 20
16.832195
 10
5.427585
 20
16.855134
 10
5.47059
 20
16.880772
 10
5.512059
 20
16.908712
 10
5.551887
 20
16.938901
 10
5.589981
 20
16.971313
 10
5.626283
 20
17.005656
 10
5.660759
 20
17.041877
 10
5.693393
 20
17.079739
 10
5.724191
 20
17.119135
 10
5.753169
 20
17.159855
  0
LWPOLYLINE
  5
A9
100
AcDbEntity
  8
0
  6
ByLayer
 62
    1
370
   -1
100
AcDbPolyline
 90
   19
 70
    0
 43
0
 10
11.348595
 20
17.882326
 10
11.349918
 20
17.832055
 10
11.353372
 20
17.782181
 10
11.358961
 20
17.732492
 10
11.36678
 20
17.683121
 10
11.376884
 20
17.634173
 10
11.389385
 20
17.585754
 10
11.404342
 20
17.53805
 10
11.421801
 20
17.491192
 10
11.441865
 20
17.445419
 10
11.464563
 20
17.40089
 10
11.489955
 20
17.357816
 10
11.518028
 20
17.316435
 10
11.548784
 20
17.277012
 10
11.582154
 20
17.239785
 10
11.618064
 20
17.205019
 10
11.656393
 20
17.172925
 10
11.696973
 20
17.143715
 10
11.739609
 20
17.117521
  0
LWPOLYLINE
  5
AA
100
AcDbEntity
  8
0
  6
ByLayer
 62
    1
370
   -1
100
AcDbPolyline
 90
    5
 70
    0
 43
0
 10
11.739609
 20
17.117654
 10
11.784061
 20
17.094635
 10
11.830078
 20
17.075082
 10
11.877384
 20
17.058969
 10
11.925714
 20
17.04619
  0
LWPOLYLINE
  5
AB
100
AcDbEntity
  8
0
  6
ByLayer
 62
    1
370
   -1
100
AcDbPolyline
 90
    3
 70
    0
 43
0
 10
11.925714
 20
17.046057
 10
11.974804
 20
17.036532
 10
12.024408
 20
17.030103
  0
LWPOLYLINE
  5
AC
100
AcDbEntity
  8
0
  6
ByLayer
 62
    1
370
   -1
100
AcDbPolyline
 90
    3
 70
    0
 43
0
 10
12.024408
 20
17.030235
 10
12.074304
 20
17.02706
 10
12.108459
 20
17.02714
  0
LWPOLYLINE
  5
AD
100
AcDbEntity
  8
0
  6
ByLayer
 62
    1
370
   -1
100
AcDbPolyline
 90
    5
 70
    0
 43
0
 10
12.108459
 20
17.026849
 10
12.158418
 20
17.029759
 10
12.208165
 20
17.034442
 10
12.257495
 20
17.042671
 10
12.306173
 20
17.054048
  0
LWPOLYLINE
  5
AE
100
AcDbEntity
  8
0
  6
ByLayer
 62
    1
370
   -1
100
AcDbPolyline
 90
    2
 70
    0
 43
0
 10
12.306173
 20
17.053942
 10
12.353944
 20
17.069023
  0
LWPOLYLINE
  5
AF
100
AcDbEntity
  8
0
  6
ByLayer
 62
    1
370
   -1
100
AcDbPolyline
 90
    2
 70
    0
 43
0
 10
12.353944
 20
17.068917
 10
12.400545
 20
17.087174
  0
LWPOLYLINE
  5
B0
100
AcDbEntity
  8
0
  6
ByLayer
 62
    1
370
   -1
100
AcDbPolyline
 90
   45
 70
    0
 43
0
 10
12.400545
 20
17.087041
 10
12.445706
 20
17.108473
 10
12.489163
 20
17.133105
 10
12.530675
 20
17.160913
 10
12.570028
 20
17.191631
 10
12.607033
 20
17.225233
 10
12.641551
 20
17.261402
 10
12.673471
 20
17.299872
 10
12.702732
 20
17.340406
 10
12.729291
 20
17.382766
 10
12.753156
 20
17.426687
 10
12.774322
 20
17.471983
 10
12.792851
 20
17.518391
 10
12.808808
 20
17.565778
 10
12.822254
 20
17.613932
 10
12.83323
 20
17.662695
 10
12.841867
 20
17.71196
 10
12.848217
 20
17.761543
 10
12.852339
 20
17.811364
 10
12.854322
 20
17.861318
 10
12.854604
 20
17.894735
 10
12.853298
 20
17.944714
 10
12.84973
 20
17.994588
 10
12.844002
 20
18.044277
 10
12.836042
 20
18.093622
 10
12.825742
 20
18.14257
 10
12.813041
 20
18.190909
 10
12.797885
 20
18.238534
 10
12.780182
 20
18.285312
 10
12.759901
 20
18.331006
 10
12.737001
 20
18.375429
 10
12.711443
 20
18.418398
 10
12.683221
 20
18.459673
 10
12.652352
 20
18.49899
 10
12.618889
 20
18.536111
 10
12.582917
 20
18.570824
 10
12.544554
 20
18.602865
 10
12.503962
 20
18.632049
 10
12.461336
 20
18.658242
 10
12.416897
 20
18.681182
 10
12.3709
 20
18.700761
 10
12.323608
 20
18.717192
 10
12.275286
 20
18.730077
 10
12.226199
 20
18.739549
 10
12.17659
 20
18.745449
  0
LWPOLYLINE
  5
B1
100
AcDbEntity
  8
0
  6
ByLayer
 62
    1
370
   -1
100
AcDbPolyline
 90
    3
 70
    0
 43
0
 10
12.17659
 20
18.745555
 10
12.126691
 20
18.74873
 10
12.094788
 20
18.74865
  0
LWPOLYLINE
  5
B2
100
AcDbEntity
  8
0
  6
ByLayer
 62
    1
370
   -1
100
AcDbPolyline
 90
    6
 70
    0
 43
0
 10
12.094788
 20
18.748942
 10
12.044829
 20
18.746031
 10
11.995079
 20
18.741348
 10
11.945747
 20
18.733119
 10
11.89706
 20
18.721769
 10
11.84928
 20
18.707032
  0
LWPOLYLINE
  5
B3
100
AcDbEntity
  8
0
  6
ByLayer
 62
    1
370
   -1
100
AcDbPolyline
 90
   22
 70
    0
 43
0
 10
11.84928
 20
18.707164
 10
11.802668
 20
18.689172
 10
11.757493
 20
18.667662
 10
11.714025
 20
18.643082
 10
11.672502
 20
18.61538
 10
11.633143
 20
18.584662
 10
11.596133
 20
18.55106
 10
11.561611
 20
18.514891
 10
11.529692
 20
18.476421
 10
11.500437
 20
18.435913
 10
11.473877
 20
18.393553
 10
11.450015
 20
18.349606
 10
11.428827
 20
18.304336
 10
11.410276
 20
18.257902
 10
11.394324
 20
18.210515
 10
11.380884
 20
18.162387
 10
11.369905
 20
18.113571
 10
11.361267
 20
18.064332
 10
11.354946
 20
18.01475
 10
11.350852
 20
17.964928
 10
11.348869
 20
17.914949
 10
11.348587
 20
17.882326
  0
LWPOLYLINE
  5
B4
100
AcDbEntity
  8
0
  6
ByLayer
 62
    1
370
   -1
100
AcDbPolyline
 90
   12
 70
    1
 43
0
 10
7.830446
 20
18.876973
 10
7.835989
 20
18.190009
 10
8.043882
 20
17.957679
 10
8.813425000000001
 20
18.884884
 10
9.130414
 20
18.88753
 10
8.21111
 20
17.805755
 10
9.072939999999999
 20
16.838677
 10
8.752950999999999
 20
16.836031
 10
7.838427
 20
17.88902
 10
7.846978
 20
16.82902
 10
7.591988
 20
16.826109
 10
7.575467
 20
18.874142
  0
LWPOLYLINE
  5
B5
100
AcDbEntity
  8
0
  6
ByLayer
 62
    1
370
   -1
100
AcDbPolyline
 90
    5
 70
    0
 43
0
 10
7.247587
 20
18.871417
 10
7.249307
 20
18.645278
 10
6.296478
 20
18.637605
 10
6.311168
 20
16.816558
 10
6.056164
 20
16.813647
  0
LWPOLYLINE
  5
B6
100
AcDbEntity
  8
0
  6
ByLayer
 62
    1
370
   -1
100
AcDbPolyline
 90
    3
 70
    0
 43
0
 10
6.056164
 20
16.813753
 10
6.03964
 20
18.861654
 10
7.247587
 20
18.871444
  0
LWPOLYLINE
  5
B7
100
AcDbEntity
  8
0
  6
ByLayer
 62
    1
370
   -1
100
AcDbPolyline
 90
    3
 70
    0
 43
0
 10
10.931113
 20
19.198019
 10
10.932489
 20
19.029056
 10
9.181490999999999
 20
19.015033
  0
LWPOLYLINE
  5
B8
100
AcDbEntity
  8
0
  6
ByLayer
 62
    1
370
   -1
100
AcDbPolyline
 90
    3
 70
    0
 43
0
 10
9.181490999999999
 20
19.014901
 10
9.180115000000001
 20
19.18389
 10
10.931113
 20
19.197913
  0
LWPOLYLINE
  5
B9
100
AcDbEntity
  8
0
  6
ByLayer
 62
    1
370
   -1
100
AcDbPolyline
 90
    8
 70
    0
 43
0
 10
17.132647
 20
16.902865
 10
15.5787
 20
16.89043
 10
15.576848
 20
17.118342
 10
16.224976
 20
17.123633
 10
16.210292
 20
18.943648
 10
16.465278
 20
18.946559
 10
16.479963
 20
17.126544
 10
17.130949
 20
17.131835
  0
LWPOLYLINE
  5
BA
100
AcDbEntity
  8
0
  6
ByLayer
 62
    1
370
   -1
100
AcDbPolyline
 90
   10
 70
    1
 43
0
 10
14.210892
 20
30.494069
 10
13.043997
 20
28.865535
 10
12.782998
 20
28.862731
 10
12.766477
 20
30.910658
 10
13.021456
 20
30.913489
 10
13.034777
 20
29.262537
 10
14.216419
 20
30.923075
 10
14.46241
 20
30.925906
 10
14.47892
 20
28.877952
 10
14.223954
 20
28.875121
  0
LWPOLYLINE
  5
BB
100
AcDbEntity
  8
0
  6
ByLayer
 62
    1
370
   -1
100
AcDbPolyline
 90
    4
 70
    1
 43
0
 10
12.334008
 20
28.860455
 10
12.079032
 20
28.857624
 10
12.062509
 20
30.905578
 10
12.317487
 20
30.908409
  0
LWPOLYLINE
  5
BC
100
AcDbEntity
  8
0
  6
ByLayer
 62
    1
370
   -1
100
AcDbPolyline
 90
    2
 70
    0
 43
0
 10
9.976093000000001
 20
28.841262
 10
9.656107
 20
28.838617
  0
LWPOLYLINE
  5
BD
100
AcDbEntity
  8
0
  6
ByLayer
 62
    1
370
   -1
100
AcDbPolyline
 90
   12
 70
    0
 43
0
 10
9.656107
 20
28.838722
 10
8.741586
 20
29.891637
 10
8.750138
 20
28.831639
 10
8.495146
 20
28.828808
 10
8.478623000000001
 20
30.876733
 10
8.733599
 20
30.879564
 10
8.739141999999999
 20
30.1926
 10
8.947035
 20
29.960246
 10
9.716578999999999
 20
30.887486
 10
10.033568
 20
30.890131
 10
9.114262999999999
 20
29.808354
 10
9.976093000000001
 20
28.841262
  0
LWPOLYLINE
  5
BE
100
AcDbEntity
  8
0
  6
ByLayer
 62
    1
370
   -1
100
AcDbPolyline
 90
    6
 70
    1
 43
0
 10
6.959308
 20
28.816034
 10
6.942671
 20
30.864909
 10
8.150619000000001
 20
30.874672
 10
8.152443999999999
 20
30.647569
 10
7.19962
 20
30.63987
 10
7.214312
 20
28.818855
  0
LWPOLYLINE
  5
BF
100
AcDbEntity
  8
0
  6
ByLayer
 62
    1
370
   -1
100
AcDbPolyline
 90
    4
 70
    1
 43
0
 10
11.834229
 20
31.201175
 10
11.835605
 20
31.03221
 10
10.084602
 20
31.018081
 10
10.083226
 20
31.187036
  0
LWPOLYLINE
  5
C0
100
AcDbEntity
  8
0
  6
ByLayer
 62
    1
370
   -1
100
AcDbPolyline
 90
  188
 70
    1
 43
0
 10
6.431389
 20
30.391932
 10
6.402314
 20
30.432572
 10
6.370212
 20
30.470899
 10
6.335323
 20
30.506713
 10
6.297878
 20
30.539818
 10
6.258104
 20
30.570099
 10
6.216228
 20
30.597391
 10
6.172481
 20
30.621495
 10
6.127088
 20
30.642344
 10
6.08029
 20
30.659992
 10
6.032333
 20
30.6742
 10
5.983471
 20
30.684651
 10
5.933967
 20
30.691715
 10
5.884089
 20
30.694811
 10
5.857922
 20
30.695075
 10
5.807963
 20
30.69198
 10
5.758235
 20
30.6869
 10
5.708945
 20
30.678433
 10
5.66031
 20
30.666871
 10
5.612561
 20
30.652186
 10
5.565915
 20
30.634089
 10
5.520598
 20
30.613055
 10
5.476817
 20
30.588977
 10
5.434769
 20
30.561799
 10
5.394635
 20
30.532055
 10
5.356575
 20
30.499625
 10
5.320732
 20
30.464801
 10
5.28722
 20
30.427688
 10
5.256148
 20
30.388516
 10
5.227588
 20
30.347508
 10
5.201595
 20
30.304807
 10
5.178208
 20
30.260611
 10
5.157465
 20
30.215119
 10
5.139336
 20
30.168523
 10
5.123842
 20
30.120996
 10
5.110946
 20
30.072709
 10
5.100617
 20
30.023772
 10
5.092798
 20
29.974411
 10
5.087464
 20
29.924683
 10
5.084501
 20
29.874785
 10
5.083839
 20
29.827626
 10
5.085242
 20
29.777646
 10
5.089192
 20
29.727804
 10
5.095402
 20
29.678189
 10
5.104038
 20
29.628943
 10
5.115185
 20
29.580204
 10
5.128872
 20
29.532139
 10
5.145143
 20
29.484869
 10
5.16404
 20
29.438556
 10
5.185543
 20
29.393429
 10
5.209657
 20
29.349656
 10
5.236358
 20
29.307379
 10
5.26561
 20
29.266852
 10
5.297371
 20
29.228244
 10
5.331543
 20
29.191753
 10
5.368026
 20
29.157574
 10
5.40669
 20
29.125912
 10
5.447387
 20
29.096868
 10
5.489951
 20
29.070648
 10
5.534198
 20
29.047418
 10
5.579923
 20
29.027098
 10
5.626911
 20
29.010138
 10
5.674942
 20
28.996432
 10
5.723789
 20
28.985717
 10
5.773231
 20
28.978388
 10
5.823043
 20
28.974155
 10
5.871727
 20
28.974155
 10
5.921663
 20
28.974155
 10
5.971297
 20
28.980081
 10
6.02035
 20
28.989686
 10
6.06856
 20
29.002941
 10
6.115668
 20
29.01961
 10
6.161439
 20
29.039771
 10
6.205643
 20
29.06316
 10
6.248059
 20
29.089539
 10
6.288481
 20
29.11889
 10
6.326694
 20
29.151121
 10
6.362491
 20
29.186004
 10
6.395647
 20
29.223426
 10
6.425926
 20
29.263191
 10
6.440224
 20
29.284384
 10
6.656205
 20
29.162152
 10
6.627224
 20
29.121427
 10
6.596428
 20
29.08203
 10
6.563795
 20
29.044155
 10
6.529318
 20
29.007947
 10
6.493013
 20
28.973573
 10
6.454922
 20
28.941201
 10
6.415095
 20
28.910975
 10
6.373625
 20
28.883064
 10
6.330617
 20
28.857611
 10
6.286206
 20
28.834566
 10
6.240546
 20
28.814113
 10
6.193793
 20
28.796386
 10
6.14612
 20
28.781411
 10
6.097693
 20
28.769002
 10
6.04868
 20
28.759133
 10
5.999227
 20
28.751804
 10
5.949474
 20
28.747015
 10
5.899548
 20
28.744184
 10
5.873556
 20
28.744184
 10
5.823563
 20
28.74438
 10
5.773652
 20
28.747211
 10
5.723916
 20
28.752291
 10
5.674468
 20
28.75962
 10
5.625415
 20
28.769224
 10
5.57687
 20
28.781369
 10
5.528952
 20
28.795762
 10
5.481775
 20
28.812193
 10
5.435463
 20
28.830925
 10
5.390135
 20
28.851959
 10
5.345911
 20
28.875216
 10
5.302906
 20
28.90059
 10
5.261238
 20
28.928302
 10
5.221019
 20
28.957965
 10
5.182352
 20
28.989659
 10
5.145335
 20
29.023272
 10
5.110063
 20
29.058692
 10
5.07662
 20
29.095858
 10
5.045079
 20
29.134664
 10
5.015502
 20
29.174965
 10
4.987949
 20
29.21668
 10
4.962454
 20
29.259688
 10
4.939062
 20
29.303883
 10
4.917803
 20
29.349125
 10
4.898679
 20
29.395323
 10
4.881677
 20
29.442313
 10
4.866791
 20
29.490065
 10
4.854007
 20
29.538384
 10
4.843312
 20
29.587236
 10
4.834676
 20
29.636483
 10
4.828043
 20
29.686042
 10
4.823386
 20
29.735826
 10
4.820621
 20
29.785721
 10
4.819854
 20
29.823964
 10
4.82041
 20
29.873973
 10
4.822765
 20
29.923897
 10
4.827252
 20
29.97371
 10
4.833573
 20
30.023296
 10
4.841926
 20
30.072601
 10
4.85234
 20
30.121509
 10
4.86487
 20
30.169912
 10
4.879518
 20
30.217693
 10
4.896324
 20
30.264794
 10
4.915287
 20
30.311051
 10
4.936379
 20
30.356374
 10
4.959618
 20
30.400629
 10
4.984967
 20
30.443724
 10
5.012396
 20
30.48552
 10
5.041877
 20
30.525906
 10
5.073331
 20
30.564768
 10
5.106695
 20
30.601992
 10
5.141897
 20
30.637497
 10
5.178846
 20
30.671165
 10
5.217454
 20
30.702944
 10
5.257619
 20
30.732718
 10
5.299233
 20
30.760404
 10
5.342184
 20
30.786042
 10
5.386361
 20
30.809351
 10
5.43164
 20
30.830518
 10
5.477908
 20
30.849489
 10
5.525042
 20
30.866184
 10
5.572921
 20
30.880604
 10
5.621429
 20
30.892748
 10
5.670451
 20
30.902617
 10
5.719874
 20
30.910237
 10
5.769585
 20
30.915608
 10
5.819487
 20
30.918704
 10
5.856168
 20
30.918704
 10
5.90616
 20
30.918929
 10
5.956074
 20
30.916098
 10
6.005799
 20
30.910727
 10
6.055205
 20
30.903107
 10
6.104151
 20
30.892947
 10
6.15247
 20
30.879956
 10
6.199999
 20
30.864319
 10
6.24656
 20
30.846115
 10
6.291986
 20
30.825081
 10
6.33612
 20
30.801612
 10
6.378826
 20
30.775551
 10
6.419988
 20
30.747159
 10
6.459525
 20
30.716567
 10
6.497388
 20
30.683913
 10
6.533549
 20
30.649398
 10
6.568014
 20
30.613189
 10
6.600811
 20
30.575428
 10
6.631985
 20
30.536368
 10
6.648458
 20
30.514354
  0
ENDSEC
  0
SECTION
  2
OBJECTS
  0
DICTIONARY
  5
C
330
0
100
AcDbDictionary
281
    1
  3
ACAD_GROUP
350
D
  0
DICTIONARY
  5
D
330
C
100
AcDbDictionary
281
    1
  0
ENDSEC
  0
EOF
