  0
SECTION
  2
HEADER
  9
$ACADVER
  1
AC1014
  9
$HANDSEED
  5
FFFF
  9
$MEASUREMENT
 70
     1
  0
ENDSEC
  0
SECTION
  2
TABLES
  0
TABLE
  2
VPORT
  5
8
330
0
100
AcDbSymbolTable
 70
     4
  0
VPORT
  5
2E
330
8
100
AcDbSymbolTableRecord
100
AcDbViewportTableRecord
  2
*ACTIVE
 70
     0
 10
0.0
 20
0.0
 11
1.0
 21
1.0
 12
210.0
 22
148.5
 13
0.0
 23
0.0
 14
10.0
 24
10.0
 15
10.0
 25
10.0
 16
0.0
 26
0.0
 36
1.0
 17
0.0
 27
0.0
 37
0.0
 40
341.0
 41
1.24
 42
50.0
 43
0.0
 44
0.0
 50
0.0
 51
0.0
 71
     0
 72
   100
 73
     1
 74
     3
 75
     0
 76
     0
 77
     0
 78
     0
  0
ENDTAB
  0
TABLE
  2
LTYPE
  5
5
330
0
100
AcDbSymbolTable
 70
     1
  0
LTYPE
  5
14
330
5
100
AcDbSymbolTableRecord
100
AcDbLinetypeTableRecord
  2
BYBLOCK
 70
     0
  3

 72
    65
 73
     0
 40
0.0
  0
LTYPE
  5
15
330
5
100
AcDbSymbolTableRecord
100
AcDbLinetypeTableRecord
  2
BYLAYER
 70
     0
  3

 72
    65
 73
     0
 40
0.0
  0
LTYPE
  5
16
330
5
100
AcDbSymbolTableRecord
100
AcDbLinetypeTableRecord
  2
CONTINUOUS
 70
     0
  3
Solid line
 72
    65
 73
     0
 40
0.0
  0
ENDTAB
  0
TABLE
  2
LAYER
  5
2
100
AcDbSymbolTable
 70
1
  0
LAYER
  5
50
100
AcDbSymbolTableRecord
100
AcDbLayerTableRecord
  2
0
 70
0
  6
CONTINUOUS
  0
ENDTAB
  0
TABLE
  2
STYLE
  5
3
330
0
100
AcDbSymbolTable
 70
     1
  0
STYLE
  5
11
330
3
100
AcDbSymbolTableRecord
100
AcDbTextStyleTableRecord
  2
STANDARD
 70
     0
 40
0.0
 41
1.0
 50
0.0
 71
     0
 42
2.5
  3
txt
  4

  0
ENDTAB
  0
TABLE
  2
VIEW
  5
6
330
0
100
AcDbSymbolTable
 70
     0
  0
ENDTAB
  0
TABLE
  2
UCS
  5
7
330
0
100
AcDbSymbolTable
 70
     0
  0
ENDTAB
  0
TABLE
  2
APPID
  5
9
330
0
100
AcDbSymbolTable
 70
     2
  0
APPID
  5
12
330
9
100
AcDbSymbolTableRecord
100
AcDbRegAppTableRecord
  2
ACAD
 70
     0
  0
ENDTAB
  0
TABLE
  2
DIMSTYLE
  5
A
330
0
100
AcDbSymbolTable
 70
     1
  0
DIMSTYLE
105
27
330
A
100
AcDbSymbolTableRecord
100
AcDbDimStyleTableRecord
  2
ISO-25
 70
     0
  3

  4

  5

  6

  7

 40
1.0
 41
2.5
 42
0.625
 43
3.75
 44
1.25
 45
0.0
 46
0.0
 47
0.0
 48
0.0
140
2.5
141
2.5
142
0.0
143
0.03937007874016
144
1.0
145
0.0
146
1.0
147
0.625
 71
     0
 72
     0
 73
     0
 74
     0
 75
     0
 76
     0
 77
     1
 78
     8
170
     0
171
     3
172
     1
173
     0
174
     0
175
     0
176
     0
177
     0
178
     0
270
     2
271
     2
272
     2
273
     2
274
     3
340
11
275
     0
280
     0
281
     0
282
     0
283
     0
284
     8
285
     0
286
     0
287
     3
288
     0
  0
ENDTAB
  0
TABLE
  2
BLOCK_RECORD
  5
1
330
0
100
AcDbSymbolTable
 70
     1
  0
BLOCK_RECORD
  5
1F
330
1
100
AcDbSymbolTableRecord
100
AcDbBlockTableRecord
  2
*MODEL_SPACE
  0
BLOCK_RECORD
  5
1B
330
1
100
AcDbSymbolTableRecord
100
AcDbBlockTableRecord
  2
*PAPER_SPACE
  0
ENDTAB
  0
ENDSEC
  0
SECTION
  2
BLOCKS
  0
BLOCK
  5
20
330
1F
100
AcDbEntity
  8
0
100
AcDbBlockBegin
  2
*MODEL_SPACE
 70
     0
 10
0.0
 20
0.0
 30
0.0
  3
*MODEL_SPACE
  1

  0
ENDBLK
  5
21
330
1F
100
AcDbEntity
  8
0
100
AcDbBlockEnd
  0
BLOCK
  5
1C
330
1B
100
AcDbEntity
 67
     1
  8
0
100
AcDbBlockBegin
  2
*PAPER_SPACE
  1

  0
ENDBLK
  5
1D
330
1B
100
AcDbEntity
 67
     1
  8
0
100
AcDbBlockEnd
  0
ENDSEC
  0
SECTION
  2
ENTITIES
  0
LINE
  5
100
100
AcDbEntity
  8
0
 62
7
100
AcDbLine
 10
307.000204
 20
249.020794
 30
0.0
 11
307.000007
 21
248.999994
 31
0.0
  0
LINE
  5
101
100
AcDbEntity
  8
0
 62
7
100
AcDbLine
 10
307.002829
 20
249.070731
 30
0.0
 11
307.000007
 21
249.020789
 31
0.0
  0
LINE
  5
102
100
AcDbEntity
  8
0
 62
7
100
AcDbLine
 10
307.007062
 20
249.120498
 30
0.0
 11
307.002265
 21
249.070731
 31
0.0
  0
LINE
  5
103
100
AcDbEntity
  8
0
 62
7
100
AcDbLine
 10
307.014400
 20
249.169963
 30
0.0
 11
307.007062
 21
249.120498
 31
0.0
  0
LINE
  5
104
100
AcDbEntity
  8
0
 62
7
100
AcDbLine
 10
307.023996
 20
249.219002
 30
0.0
 11
307.014400
 21
249.169963
 31
0.0
  0
LINE
  5
105
100
AcDbEntity
  8
0
 62
7
100
AcDbLine
 10
307.036414
 20
249.267493
 30
0.0
 11
307.024278
 21
249.219002
 31
0.0
  0
LINE
  5
106
100
AcDbEntity
  8
0
 62
7
100
AcDbLine
 10
307.051089
 20
249.315316
 30
0.0
 11
307.036414
 21
249.267493
 31
0.0
  0
LINE
  5
107
100
AcDbEntity
  8
0
 62
7
100
AcDbLine
 10
307.067938
 20
249.362354
 30
0.0
 11
307.051004
 21
249.315316
 31
0.0
  0
LINE
  5
108
100
AcDbEntity
  8
0
 62
7
100
AcDbLine
 10
307.087242
 20
249.408483
 30
0.0
 11
307.068051
 21
249.362354
 31
0.0
  0
LINE
  5
109
100
AcDbEntity
  8
0
 62
7
100
AcDbLine
 10
307.108888
 20
249.453590
 30
0.0
 11
307.087439
 21
249.408483
 31
0.0
  0
LINE
  5
10a
100
AcDbEntity
  8
0
 62
7
100
AcDbLine
 10
307.132764
 20
249.497566
 30
0.0
 11
307.109058
 21
249.453590
 31
0.0
  0
LINE
  5
10b
100
AcDbEntity
  8
0
 62
7
100
AcDbLine
 10
307.158785
 20
249.540298
 30
0.0
 11
307.132821
 21
249.497566
 31
0.0
  0
LINE
  5
10c
100
AcDbEntity
  8
0
 62
7
100
AcDbLine
 10
307.186838
 20
249.581677
 30
0.0
 11
307.158898
 21
249.540298
 31
0.0
  0
LINE
  5
10d
100
AcDbEntity
  8
0
 62
7
100
AcDbLine
 10
307.217036
 20
249.621606
 30
0.0
 11
307.186951
 21
249.581677
 31
0.0
  0
LINE
  5
10e
100
AcDbEntity
  8
0
 62
7
100
AcDbLine
 10
307.249096
 20
249.659977
 30
0.0
 11
307.217036
 21
249.621606
 31
0.0
  0
LINE
  5
10f
100
AcDbEntity
  8
0
 62
7
100
AcDbLine
 10
307.283019
 20
249.696702
 30
0.0
 11
307.249096
 21
249.659977
 31
0.0
  0
LINE
  5
110
100
AcDbEntity
  8
0
 62
7
100
AcDbLine
 10
307.318720
 20
249.731684
 30
0.0
 11
307.283019
 21
249.696702
 31
0.0
  0
LINE
  5
111
100
AcDbEntity
  8
0
 62
7
100
AcDbLine
 10
307.356143
 20
249.764836
 30
0.0
 11
307.318720
 21
249.731684
 31
0.0
  0
LINE
  5
112
100
AcDbEntity
  8
0
 62
7
100
AcDbLine
 10
307.395174
 20
249.796078
 30
0.0
 11
307.356143
 21
249.764836
 31
0.0
  0
LINE
  5
113
100
AcDbEntity
  8
0
 62
7
100
AcDbLine
 10
307.435730
 20
249.825331
 30
0.0
 11
307.395174
 21
249.796078
 31
0.0
  0
LINE
  5
114
100
AcDbEntity
  8
0
 62
7
100
AcDbLine
 10
307.477668
 20
249.852520
 30
0.0
 11
307.435730
 21
249.825342
 31
0.0
  0
LINE
  5
115
100
AcDbEntity
  8
0
 62
7
100
AcDbLine
 10
307.520933
 20
249.877590
 30
0.0
 11
307.477668
 21
249.852528
 31
0.0
  0
LINE
  5
116
100
AcDbEntity
  8
0
 62
7
100
AcDbLine
 10
307.565411
 20
249.900450
 30
0.0
 11
307.520933
 21
249.877590
 31
0.0
  0
LINE
  5
117
100
AcDbEntity
  8
0
 62
7
100
AcDbLine
 10
307.610962
 20
249.921066
 30
0.0
 11
307.565411
 21
249.900464
 31
0.0
  0
LINE
  5
118
100
AcDbEntity
  8
0
 62
7
100
AcDbLine
 10
307.657472
 20
249.939391
 30
0.0
 11
307.610962
 21
249.921075
 31
0.0
  0
LINE
  5
119
100
AcDbEntity
  8
0
 62
7
100
AcDbLine
 10
307.704857
 20
249.955350
 30
0.0
 11
307.657472
 21
249.939377
 31
0.0
  0
LINE
  5
11a
100
AcDbEntity
  8
0
 62
7
100
AcDbLine
 10
307.752976
 20
249.968914
 30
0.0
 11
307.704857
 21
249.955339
 31
0.0
  0
LINE
  5
11b
100
AcDbEntity
  8
0
 62
7
100
AcDbLine
 10
307.801687
 20
249.980062
 30
0.0
 11
307.752976
 21
249.968914
 31
0.0
  0
LINE
  5
11c
100
AcDbEntity
  8
0
 62
7
100
AcDbLine
 10
307.850935
 20
249.988783
 30
0.0
 11
307.801687
 21
249.980090
 31
0.0
  0
LINE
  5
11d
100
AcDbEntity
  8
0
 62
7
100
AcDbLine
 10
307.900522
 20
249.995020
 30
0.0
 11
307.850935
 21
249.988783
 31
0.0
  0
LINE
  5
11e
100
AcDbEntity
  8
0
 62
7
100
AcDbLine
 10
307.950390
 20
249.998773
 30
0.0
 11
307.900522
 21
249.995020
 31
0.0
  0
LINE
  5
11f
100
AcDbEntity
  8
0
 62
7
100
AcDbLine
 10
308.000372
 20
250.000015
 30
0.0
 11
307.950390
 21
249.998886
 31
0.0
  0
LINE
  5
120
100
AcDbEntity
  8
0
 62
7
100
AcDbLine
 10
342.000360
 20
250.000015
 30
0.0
 11
308.000372
 21
250.000015
 31
0.0
  0
LINE
  5
121
100
AcDbEntity
  8
0
 62
7
100
AcDbLine
 10
342.021160
 20
249.999798
 30
0.0
 11
342.000276
 21
250.000015
 31
0.0
  0
LINE
  5
122
100
AcDbEntity
  8
0
 62
7
100
AcDbLine
 10
342.071029
 20
249.997475
 30
0.0
 11
342.021075
 21
249.999733
 31
0.0
  0
LINE
  5
123
100
AcDbEntity
  8
0
 62
7
100
AcDbLine
 10
342.120784
 20
249.992677
 30
0.0
 11
342.071029
 21
249.997447
 31
0.0
  0
LINE
  5
124
100
AcDbEntity
  8
0
 62
7
100
AcDbLine
 10
342.170258
 20
249.985396
 30
0.0
 11
342.120784
 21
249.992649
 31
0.0
  0
LINE
  5
125
100
AcDbEntity
  8
0
 62
7
100
AcDbLine
 10
342.219280
 20
249.975659
 30
0.0
 11
342.170258
 21
249.985396
 31
0.0
  0
LINE
  5
126
100
AcDbEntity
  8
0
 62
7
100
AcDbLine
 10
342.267794
 20
249.963495
 30
0.0
 11
342.219280
 21
249.975659
 31
0.0
  0
LINE
  5
127
100
AcDbEntity
  8
0
 62
7
100
AcDbLine
 10
342.315602
 20
249.948933
 30
0.0
 11
342.267794
 21
249.963495
 31
0.0
  0
LINE
  5
128
100
AcDbEntity
  8
0
 62
7
100
AcDbLine
 10
342.362649
 20
249.931977
 30
0.0
 11
342.315602
 21
249.948910
 31
0.0
  0
LINE
  5
129
100
AcDbEntity
  8
0
 62
7
100
AcDbLine
 10
342.408764
 20
249.912687
 30
0.0
 11
342.362649
 21
249.931963
 31
0.0
  0
LINE
  5
12a
100
AcDbEntity
  8
0
 62
7
100
AcDbLine
 10
342.453891
 20
249.891131
 30
0.0
 11
342.408764
 21
249.912693
 31
0.0
  0
LINE
  5
12b
100
AcDbEntity
  8
0
 62
7
100
AcDbLine
 10
342.497862
 20
249.867354
 30
0.0
 11
342.453891
 21
249.891145
 31
0.0
  0
LINE
  5
12c
100
AcDbEntity
  8
0
 62
7
100
AcDbLine
 10
342.540590
 20
249.841409
 30
0.0
 11
342.497862
 21
249.867373
 31
0.0
  0
LINE
  5
12d
100
AcDbEntity
  8
0
 62
7
100
AcDbLine
 10
342.581964
 20
249.813364
 30
0.0
 11
342.540590
 21
249.841417
 31
0.0
  0
LINE
  5
12e
100
AcDbEntity
  8
0
 62
7
100
AcDbLine
 10
342.621898
 20
249.783274
 30
0.0
 11
342.581964
 21
249.813362
 31
0.0
  0
LINE
  5
12f
100
AcDbEntity
  8
0
 62
7
100
AcDbLine
 10
342.660252
 20
249.751228
 30
0.0
 11
342.621898
 21
249.783274
 31
0.0
  0
LINE
  5
130
100
AcDbEntity
  8
0
 62
7
100
AcDbLine
 10
342.696998
 20
249.717302
 30
0.0
 11
342.660252
 21
249.751228
 31
0.0
  0
LINE
  5
131
100
AcDbEntity
  8
0
 62
7
100
AcDbLine
 10
342.731965
 20
249.681586
 30
0.0
 11
342.696998
 21
249.717302
 31
0.0
  0
LINE
  5
132
100
AcDbEntity
  8
0
 62
7
100
AcDbLine
 10
342.765126
 20
249.644164
 30
0.0
 11
342.731965
 21
249.681586
 31
0.0
  0
LINE
  5
133
100
AcDbEntity
  8
0
 62
7
100
AcDbLine
 10
342.796368
 20
249.605132
 30
0.0
 11
342.765126
 21
249.644164
 31
0.0
  0
LINE
  5
134
100
AcDbEntity
  8
0
 62
7
100
AcDbLine
 10
342.825606
 20
249.564588
 30
0.0
 11
342.796368
 21
249.605132
 31
0.0
  0
LINE
  5
135
100
AcDbEntity
  8
0
 62
7
100
AcDbLine
 10
342.852812
 20
249.522633
 30
0.0
 11
342.825719
 21
249.564588
 31
0.0
  0
LINE
  5
136
100
AcDbEntity
  8
0
 62
7
100
AcDbLine
 10
342.877987
 20
249.479371
 30
0.0
 11
342.852869
 21
249.522633
 31
0.0
  0
LINE
  5
137
100
AcDbEntity
  8
0
 62
7
100
AcDbLine
 10
342.900790
 20
249.434913
 30
0.0
 11
342.877930
 21
249.479371
 31
0.0
  0
LINE
  5
138
100
AcDbEntity
  8
0
 62
7
100
AcDbLine
 10
342.921392
 20
249.389365
 30
0.0
 11
342.900790
 21
249.434913
 31
0.0
  0
LINE
  5
139
100
AcDbEntity
  8
0
 62
7
100
AcDbLine
 10
342.939709
 20
249.342844
 30
0.0
 11
342.921364
 21
249.389365
 31
0.0
  0
LINE
  5
13a
100
AcDbEntity
  8
0
 62
7
100
AcDbLine
 10
342.955654
 20
249.295467
 30
0.0
 11
342.939568
 21
249.342844
 31
0.0
  0
LINE
  5
13b
100
AcDbEntity
  8
0
 62
7
100
AcDbLine
 10
342.969116
 20
249.247351
 30
0.0
 11
342.955570
 21
249.295467
 31
0.0
  0
LINE
  5
13c
100
AcDbEntity
  8
0
 62
7
100
AcDbLine
 10
342.980405
 20
249.198617
 30
0.0
 11
342.969398
 21
249.247351
 31
0.0
  0
LINE
  5
13d
100
AcDbEntity
  8
0
 62
7
100
AcDbLine
 10
342.989154
 20
249.149386
 30
0.0
 11
342.980405
 21
249.198617
 31
0.0
  0
LINE
  5
13e
100
AcDbEntity
  8
0
 62
7
100
AcDbLine
 10
342.995363
 20
249.099780
 30
0.0
 11
342.989154
 21
249.149386
 31
0.0
  0
LINE
  5
13f
100
AcDbEntity
  8
0
 62
7
100
AcDbLine
 10
342.999032
 20
249.049925
 30
0.0
 11
342.995363
 21
249.099780
 31
0.0
  0
LINE
  5
140
100
AcDbEntity
  8
0
 62
7
100
AcDbLine
 10
343.000443
 20
248.999946
 30
0.0
 11
343.000443
 21
249.049925
 31
0.0
  0
LINE
  5
141
100
AcDbEntity
  8
0
 62
7
100
AcDbLine
 10
343.000443
 20
245.999947
 30
0.0
 11
343.000443
 21
248.999946
 31
0.0
  0
LINE
  5
142
100
AcDbEntity
  8
0
 62
7
100
AcDbLine
 10
343.000245
 20
245.979153
 30
0.0
 11
343.000443
 21
245.999952
 31
0.0
  0
LINE
  5
143
100
AcDbEntity
  8
0
 62
7
100
AcDbLine
 10
342.997621
 20
245.929216
 30
0.0
 11
343.000443
 21
245.979158
 31
0.0
  0
LINE
  5
144
100
AcDbEntity
  8
0
 62
7
100
AcDbLine
 10
342.993387
 20
245.879449
 30
0.0
 11
342.998185
 21
245.929216
 31
0.0
  0
LINE
  5
145
100
AcDbEntity
  8
0
 62
7
100
AcDbLine
 10
342.986050
 20
245.829984
 30
0.0
 11
342.993387
 21
245.879449
 31
0.0
  0
LINE
  5
146
100
AcDbEntity
  8
0
 62
7
100
AcDbLine
 10
342.976454
 20
245.780945
 30
0.0
 11
342.986050
 21
245.829984
 31
0.0
  0
LINE
  5
147
100
AcDbEntity
  8
0
 62
7
100
AcDbLine
 10
342.964036
 20
245.732454
 30
0.0
 11
342.976172
 21
245.780945
 31
0.0
  0
LINE
  5
148
100
AcDbEntity
  8
0
 62
7
100
AcDbLine
 10
342.949361
 20
245.684631
 30
0.0
 11
342.964036
 21
245.732454
 31
0.0
  0
LINE
  5
149
100
AcDbEntity
  8
0
 62
7
100
AcDbLine
 10
342.932512
 20
245.637593
 30
0.0
 11
342.949445
 21
245.684631
 31
0.0
  0
LINE
  5
14a
100
AcDbEntity
  8
0
 62
7
100
AcDbLine
 10
342.913208
 20
245.591464
 30
0.0
 11
342.932399
 21
245.637593
 31
0.0
  0
LINE
  5
14b
100
AcDbEntity
  8
0
 62
7
100
AcDbLine
 10
342.891562
 20
245.546356
 30
0.0
 11
342.913010
 21
245.591464
 31
0.0
  0
LINE
  5
14c
100
AcDbEntity
  8
0
 62
7
100
AcDbLine
 10
342.867686
 20
245.502381
 30
0.0
 11
342.891392
 21
245.546356
 31
0.0
  0
LINE
  5
14d
100
AcDbEntity
  8
0
 62
7
100
AcDbLine
 10
342.841665
 20
245.459649
 30
0.0
 11
342.867629
 21
245.502381
 31
0.0
  0
LINE
  5
14e
100
AcDbEntity
  8
0
 62
7
100
AcDbLine
 10
342.813612
 20
245.418270
 30
0.0
 11
342.841552
 21
245.459649
 31
0.0
  0
LINE
  5
14f
100
AcDbEntity
  8
0
 62
7
100
AcDbLine
 10
342.783414
 20
245.378341
 30
0.0
 11
342.813499
 21
245.418270
 31
0.0
  0
LINE
  5
150
100
AcDbEntity
  8
0
 62
7
100
AcDbLine
 10
342.751354
 20
245.339970
 30
0.0
 11
342.783414
 21
245.378341
 31
0.0
  0
LINE
  5
151
100
AcDbEntity
  8
0
 62
7
100
AcDbLine
 10
342.717430
 20
245.303245
 30
0.0
 11
342.751354
 21
245.339970
 31
0.0
  0
LINE
  5
152
100
AcDbEntity
  8
0
 62
7
100
AcDbLine
 10
342.681729
 20
245.268263
 30
0.0
 11
342.717430
 21
245.303245
 31
0.0
  0
LINE
  5
153
100
AcDbEntity
  8
0
 62
7
100
AcDbLine
 10
342.644307
 20
245.235110
 30
0.0
 11
342.681729
 21
245.268263
 31
0.0
  0
LINE
  5
154
100
AcDbEntity
  8
0
 62
7
100
AcDbLine
 10
342.605275
 20
245.203868
 30
0.0
 11
342.644307
 21
245.235110
 31
0.0
  0
LINE
  5
155
100
AcDbEntity
  8
0
 62
7
100
AcDbLine
 10
342.564720
 20
245.174616
 30
0.0
 11
342.605275
 21
245.203868
 31
0.0
  0
LINE
  5
156
100
AcDbEntity
  8
0
 62
7
100
AcDbLine
 10
342.522782
 20
245.147427
 30
0.0
 11
342.564720
 21
245.174605
 31
0.0
  0
LINE
  5
157
100
AcDbEntity
  8
0
 62
7
100
AcDbLine
 10
342.479517
 20
245.122357
 30
0.0
 11
342.522782
 21
245.147418
 31
0.0
  0
LINE
  5
158
100
AcDbEntity
  8
0
 62
7
100
AcDbLine
 10
342.435039
 20
245.099497
 30
0.0
 11
342.479517
 21
245.122357
 31
0.0
  0
LINE
  5
159
100
AcDbEntity
  8
0
 62
7
100
AcDbLine
 10
342.389516
 20
245.078881
 30
0.0
 11
342.435039
 21
245.099483
 31
0.0
  0
LINE
  5
15a
100
AcDbEntity
  8
0
 62
7
100
AcDbLine
 10
342.342978
 20
245.060556
 30
0.0
 11
342.389516
 21
245.078872
 31
0.0
  0
LINE
  5
15b
100
AcDbEntity
  8
0
 62
7
100
AcDbLine
 10
342.295593
 20
245.044596
 30
0.0
 11
342.342978
 21
245.060570
 31
0.0
  0
LINE
  5
15c
100
AcDbEntity
  8
0
 62
7
100
AcDbLine
 10
342.247502
 20
245.031033
 30
0.0
 11
342.295593
 21
245.044608
 31
0.0
  0
LINE
  5
15d
100
AcDbEntity
  8
0
 62
7
100
AcDbLine
 10
342.198762
 20
245.019885
 30
0.0
 11
342.247502
 21
245.031033
 31
0.0
  0
LINE
  5
15e
100
AcDbEntity
  8
0
 62
7
100
AcDbLine
 10
342.149515
 20
245.011164
 30
0.0
 11
342.198762
 21
245.019857
 31
0.0
  0
LINE
  5
15f
100
AcDbEntity
  8
0
 62
7
100
AcDbLine
 10
342.099928
 20
245.004927
 30
0.0
 11
342.149515
 21
245.011164
 31
0.0
  0
LINE
  5
160
100
AcDbEntity
  8
0
 62
7
100
AcDbLine
 10
342.050060
 20
245.001174
 30
0.0
 11
342.099928
 21
245.004927
 31
0.0
  0
LINE
  5
161
100
AcDbEntity
  8
0
 62
7
100
AcDbLine
 10
342.000078
 20
244.999932
 30
0.0
 11
342.050060
 21
245.001061
 31
0.0
  0
LINE
  5
162
100
AcDbEntity
  8
0
 62
7
100
AcDbLine
 10
340.000082
 20
244.999932
 30
0.0
 11
342.000078
 21
244.999932
 31
0.0
  0
LINE
  5
163
100
AcDbEntity
  8
0
 62
7
100
AcDbLine
 10
340.000082
 20
234.999932
 30
0.0
 11
340.000082
 21
244.999932
 31
0.0
  0
LINE
  5
164
100
AcDbEntity
  8
0
 62
7
100
AcDbLine
 10
342.000078
 20
234.999932
 30
0.0
 11
340.000082
 21
234.999932
 31
0.0
  0
LINE
  5
165
100
AcDbEntity
  8
0
 62
7
100
AcDbLine
 10
342.020878
 20
234.999718
 30
0.0
 11
341.999993
 21
234.999932
 31
0.0
  0
LINE
  5
166
100
AcDbEntity
  8
0
 62
7
100
AcDbLine
 10
342.070746
 20
234.997392
 30
0.0
 11
342.020793
 21
234.999650
 31
0.0
  0
LINE
  5
167
100
AcDbEntity
  8
0
 62
7
100
AcDbLine
 10
342.120502
 20
234.992566
 30
0.0
 11
342.070746
 21
234.997364
 31
0.0
  0
LINE
  5
168
100
AcDbEntity
  8
0
 62
7
100
AcDbLine
 10
342.169976
 20
234.985313
 30
0.0
 11
342.120502
 21
234.992566
 31
0.0
  0
LINE
  5
169
100
AcDbEntity
  8
0
 62
7
100
AcDbLine
 10
342.218998
 20
234.975576
 30
0.0
 11
342.169976
 21
234.985313
 31
0.0
  0
LINE
  5
16a
100
AcDbEntity
  8
0
 62
7
100
AcDbLine
 10
342.267512
 20
234.963413
 30
0.0
 11
342.218998
 21
234.975576
 31
0.0
  0
LINE
  5
16b
100
AcDbEntity
  8
0
 62
7
100
AcDbLine
 10
342.315320
 20
234.948850
 30
0.0
 11
342.267512
 21
234.963413
 31
0.0
  0
LINE
  5
16c
100
AcDbEntity
  8
0
 62
7
100
AcDbLine
 10
342.362367
 20
234.931891
 30
0.0
 11
342.315320
 21
234.948824
 31
0.0
  0
LINE
  5
16d
100
AcDbEntity
  8
0
 62
7
100
AcDbLine
 10
342.408482
 20
234.912604
 30
0.0
 11
342.362367
 21
234.931880
 31
0.0
  0
LINE
  5
16e
100
AcDbEntity
  8
0
 62
7
100
AcDbLine
 10
342.453609
 20
234.891048
 30
0.0
 11
342.408482
 21
234.912610
 31
0.0
  0
LINE
  5
16f
100
AcDbEntity
  8
0
 62
7
100
AcDbLine
 10
342.497579
 20
234.867268
 30
0.0
 11
342.453609
 21
234.891059
 31
0.0
  0
LINE
  5
170
100
AcDbEntity
  8
0
 62
7
100
AcDbLine
 10
342.540308
 20
234.841323
 30
0.0
 11
342.497579
 21
234.867288
 31
0.0
  0
LINE
  5
171
100
AcDbEntity
  8
0
 62
7
100
AcDbLine
 10
342.581682
 20
234.813282
 30
0.0
 11
342.540308
 21
234.841334
 31
0.0
  0
LINE
  5
172
100
AcDbEntity
  8
0
 62
7
100
AcDbLine
 10
342.621616
 20
234.783191
 30
0.0
 11
342.581682
 21
234.813282
 31
0.0
  0
LINE
  5
173
100
AcDbEntity
  8
0
 62
7
100
AcDbLine
 10
342.659970
 20
234.751145
 30
0.0
 11
342.621616
 21
234.783191
 31
0.0
  0
LINE
  5
174
100
AcDbEntity
  8
0
 62
7
100
AcDbLine
 10
342.696715
 20
234.717222
 30
0.0
 11
342.659970
 21
234.751145
 31
0.0
  0
LINE
  5
175
100
AcDbEntity
  8
0
 62
7
100
AcDbLine
 10
342.731683
 20
234.681504
 30
0.0
 11
342.696715
 21
234.717222
 31
0.0
  0
LINE
  5
176
100
AcDbEntity
  8
0
 62
7
100
AcDbLine
 10
342.764844
 20
234.644084
 30
0.0
 11
342.731683
 21
234.681504
 31
0.0
  0
LINE
  5
177
100
AcDbEntity
  8
0
 62
7
100
AcDbLine
 10
342.796086
 20
234.605050
 30
0.0
 11
342.764844
 21
234.644084
 31
0.0
  0
LINE
  5
178
100
AcDbEntity
  8
0
 62
7
100
AcDbLine
 10
342.825324
 20
234.564506
 30
0.0
 11
342.796086
 21
234.605050
 31
0.0
  0
LINE
  5
179
100
AcDbEntity
  8
0
 62
7
100
AcDbLine
 10
342.852530
 20
234.522550
 30
0.0
 11
342.825437
 21
234.564506
 31
0.0
  0
LINE
  5
17a
100
AcDbEntity
  8
0
 62
7
100
AcDbLine
 10
342.877704
 20
234.479291
 30
0.0
 11
342.852587
 21
234.522550
 31
0.0
  0
LINE
  5
17b
100
AcDbEntity
  8
0
 62
7
100
AcDbLine
 10
342.900508
 20
234.434830
 30
0.0
 11
342.877648
 21
234.479291
 31
0.0
  0
LINE
  5
17c
100
AcDbEntity
  8
0
 62
7
100
AcDbLine
 10
342.921110
 20
234.389282
 30
0.0
 11
342.900508
 21
234.434830
 31
0.0
  0
LINE
  5
17d
100
AcDbEntity
  8
0
 62
7
100
AcDbLine
 10
342.939426
 20
234.342764
 30
0.0
 11
342.921082
 21
234.389282
 31
0.0
  0
LINE
  5
17e
100
AcDbEntity
  8
0
 62
7
100
AcDbLine
 10
342.955372
 20
234.295384
 30
0.0
 11
342.939285
 21
234.342764
 31
0.0
  0
LINE
  5
17f
100
AcDbEntity
  8
0
 62
7
100
AcDbLine
 10
342.968834
 20
234.247268
 30
0.0
 11
342.955287
 21
234.295384
 31
0.0
  0
LINE
  5
180
100
AcDbEntity
  8
0
 62
7
100
AcDbLine
 10
342.980123
 20
234.198534
 30
0.0
 11
342.969116
 21
234.247268
 31
0.0
  0
LINE
  5
181
100
AcDbEntity
  8
0
 62
7
100
AcDbLine
 10
342.988872
 20
234.149303
 30
0.0
 11
342.980123
 21
234.198534
 31
0.0
  0
LINE
  5
182
100
AcDbEntity
  8
0
 62
7
100
AcDbLine
 10
342.995081
 20
234.099697
 30
0.0
 11
342.988872
 21
234.149303
 31
0.0
  0
LINE
  5
183
100
AcDbEntity
  8
0
 62
7
100
AcDbLine
 10
342.998750
 20
234.049842
 30
0.0
 11
342.995081
 21
234.099697
 31
0.0
  0
LINE
  5
184
100
AcDbEntity
  8
0
 62
7
100
AcDbLine
 10
343.000161
 20
233.999864
 30
0.0
 11
343.000161
 21
234.049842
 31
0.0
  0
LINE
  5
185
100
AcDbEntity
  8
0
 62
7
100
AcDbLine
 10
343.000161
 20
230.999864
 30
0.0
 11
343.000161
 21
233.999864
 31
0.0
  0
LINE
  5
186
100
AcDbEntity
  8
0
 62
7
100
AcDbLine
 10
342.999963
 20
230.979070
 30
0.0
 11
343.000161
 21
230.999870
 31
0.0
  0
LINE
  5
187
100
AcDbEntity
  8
0
 62
7
100
AcDbLine
 10
342.997338
 20
230.929133
 30
0.0
 11
343.000161
 21
230.979075
 31
0.0
  0
LINE
  5
188
100
AcDbEntity
  8
0
 62
7
100
AcDbLine
 10
342.993105
 20
230.879366
 30
0.0
 11
342.997903
 21
230.929133
 31
0.0
  0
LINE
  5
189
100
AcDbEntity
  8
0
 62
7
100
AcDbLine
 10
342.985767
 20
230.829904
 30
0.0
 11
342.993105
 21
230.879366
 31
0.0
  0
LINE
  5
18a
100
AcDbEntity
  8
0
 62
7
100
AcDbLine
 10
342.976172
 20
230.780862
 30
0.0
 11
342.985767
 21
230.829904
 31
0.0
  0
LINE
  5
18b
100
AcDbEntity
  8
0
 62
7
100
AcDbLine
 10
342.963754
 20
230.732371
 30
0.0
 11
342.975890
 21
230.780862
 31
0.0
  0
LINE
  5
18c
100
AcDbEntity
  8
0
 62
7
100
AcDbLine
 10
342.949078
 20
230.684548
 30
0.0
 11
342.963754
 21
230.732371
 31
0.0
  0
LINE
  5
18d
100
AcDbEntity
  8
0
 62
7
100
AcDbLine
 10
342.932230
 20
230.637513
 30
0.0
 11
342.949163
 21
230.684548
 31
0.0
  0
LINE
  5
18e
100
AcDbEntity
  8
0
 62
7
100
AcDbLine
 10
342.912926
 20
230.591384
 30
0.0
 11
342.932117
 21
230.637513
 31
0.0
  0
LINE
  5
18f
100
AcDbEntity
  8
0
 62
7
100
AcDbLine
 10
342.891279
 20
230.546274
 30
0.0
 11
342.912728
 21
230.591384
 31
0.0
  0
LINE
  5
190
100
AcDbEntity
  8
0
 62
7
100
AcDbLine
 10
342.867403
 20
230.502300
 30
0.0
 11
342.891110
 21
230.546274
 31
0.0
  0
LINE
  5
191
100
AcDbEntity
  8
0
 62
7
100
AcDbLine
 10
342.841382
 20
230.459569
 30
0.0
 11
342.867347
 21
230.502300
 31
0.0
  0
LINE
  5
192
100
AcDbEntity
  8
0
 62
7
100
AcDbLine
 10
342.813330
 20
230.418187
 30
0.0
 11
342.841270
 21
230.459569
 31
0.0
  0
LINE
  5
193
100
AcDbEntity
  8
0
 62
7
100
AcDbLine
 10
342.783132
 20
230.378261
 30
0.0
 11
342.813217
 21
230.418187
 31
0.0
  0
LINE
  5
194
100
AcDbEntity
  8
0
 62
7
100
AcDbLine
 10
342.751071
 20
230.339887
 30
0.0
 11
342.783132
 21
230.378261
 31
0.0
  0
LINE
  5
195
100
AcDbEntity
  8
0
 62
7
100
AcDbLine
 10
342.717148
 20
230.303162
 30
0.0
 11
342.751071
 21
230.339887
 31
0.0
  0
LINE
  5
196
100
AcDbEntity
  8
0
 62
7
100
AcDbLine
 10
342.681447
 20
230.268180
 30
0.0
 11
342.717148
 21
230.303162
 31
0.0
  0
LINE
  5
197
100
AcDbEntity
  8
0
 62
7
100
AcDbLine
 10
342.644024
 20
230.235028
 30
0.0
 11
342.681447
 21
230.268180
 31
0.0
  0
LINE
  5
198
100
AcDbEntity
  8
0
 62
7
100
AcDbLine
 10
342.604993
 20
230.203786
 30
0.0
 11
342.644024
 21
230.235028
 31
0.0
  0
LINE
  5
199
100
AcDbEntity
  8
0
 62
7
100
AcDbLine
 10
342.564438
 20
230.174533
 30
0.0
 11
342.604993
 21
230.203786
 31
0.0
  0
LINE
  5
19a
100
AcDbEntity
  8
0
 62
7
100
AcDbLine
 10
342.522500
 20
230.147344
 30
0.0
 11
342.564438
 21
230.174522
 31
0.0
  0
LINE
  5
19b
100
AcDbEntity
  8
0
 62
7
100
AcDbLine
 10
342.479235
 20
230.122277
 30
0.0
 11
342.522500
 21
230.147338
 31
0.0
  0
LINE
  5
19c
100
AcDbEntity
  8
0
 62
7
100
AcDbLine
 10
342.434757
 20
230.099417
 30
0.0
 11
342.479235
 21
230.122277
 31
0.0
  0
LINE
  5
19d
100
AcDbEntity
  8
0
 62
7
100
AcDbLine
 10
342.389234
 20
230.078798
 30
0.0
 11
342.434757
 21
230.099400
 31
0.0
  0
LINE
  5
19e
100
AcDbEntity
  8
0
 62
7
100
AcDbLine
 10
342.342696
 20
230.060476
 30
0.0
 11
342.389234
 21
230.078792
 31
0.0
  0
LINE
  5
19f
100
AcDbEntity
  8
0
 62
7
100
AcDbLine
 10
342.295311
 20
230.044516
 30
0.0
 11
342.342696
 21
230.060490
 31
0.0
  0
LINE
  5
1a0
100
AcDbEntity
  8
0
 62
7
100
AcDbLine
 10
342.247220
 20
230.030950
 30
0.0
 11
342.295311
 21
230.044525
 31
0.0
  0
LINE
  5
1a1
100
AcDbEntity
  8
0
 62
7
100
AcDbLine
 10
342.198480
 20
230.019802
 30
0.0
 11
342.247220
 21
230.030950
 31
0.0
  0
LINE
  5
1a2
100
AcDbEntity
  8
0
 62
7
100
AcDbLine
 10
342.149232
 20
230.011081
 30
0.0
 11
342.198480
 21
230.019774
 31
0.0
  0
LINE
  5
1a3
100
AcDbEntity
  8
0
 62
7
100
AcDbLine
 10
342.099646
 20
230.004844
 30
0.0
 11
342.149232
 21
230.011081
 31
0.0
  0
LINE
  5
1a4
100
AcDbEntity
  8
0
 62
7
100
AcDbLine
 10
342.049777
 20
230.001091
 30
0.0
 11
342.099646
 21
230.004844
 31
0.0
  0
LINE
  5
1a5
100
AcDbEntity
  8
0
 62
7
100
AcDbLine
 10
341.999796
 20
229.999849
 30
0.0
 11
342.049777
 21
230.000978
 31
0.0
  0
LINE
  5
1a6
100
AcDbEntity
  8
0
 62
7
100
AcDbLine
 10
339.999800
 20
229.999849
 30
0.0
 11
341.999796
 21
229.999849
 31
0.0
  0
LINE
  5
1a7
100
AcDbEntity
  8
0
 62
7
100
AcDbLine
 10
339.999800
 20
219.999846
 30
0.0
 11
339.999800
 21
229.999849
 31
0.0
  0
LINE
  5
1a8
100
AcDbEntity
  8
0
 62
7
100
AcDbLine
 10
341.999796
 20
219.999846
 30
0.0
 11
339.999800
 21
219.999846
 31
0.0
  0
LINE
  5
1a9
100
AcDbEntity
  8
0
 62
7
100
AcDbLine
 10
342.020596
 20
219.999632
 30
0.0
 11
341.999711
 21
219.999846
 31
0.0
  0
LINE
  5
1aa
100
AcDbEntity
  8
0
 62
7
100
AcDbLine
 10
342.070464
 20
219.997306
 30
0.0
 11
342.020511
 21
219.999564
 31
0.0
  0
LINE
  5
1ab
100
AcDbEntity
  8
0
 62
7
100
AcDbLine
 10
342.120220
 20
219.992480
 30
0.0
 11
342.070464
 21
219.997278
 31
0.0
  0
LINE
  5
1ac
100
AcDbEntity
  8
0
 62
7
100
AcDbLine
 10
342.169694
 20
219.985227
 30
0.0
 11
342.120220
 21
219.992480
 31
0.0
  0
LINE
  5
1ad
100
AcDbEntity
  8
0
 62
7
100
AcDbLine
 10
342.218716
 20
219.975491
 30
0.0
 11
342.169694
 21
219.985227
 31
0.0
  0
LINE
  5
1ae
100
AcDbEntity
  8
0
 62
7
100
AcDbLine
 10
342.267230
 20
219.963327
 30
0.0
 11
342.218716
 21
219.975491
 31
0.0
  0
LINE
  5
1af
100
AcDbEntity
  8
0
 62
7
100
AcDbLine
 10
342.315038
 20
219.948764
 30
0.0
 11
342.267230
 21
219.963327
 31
0.0
  0
LINE
  5
1b0
100
AcDbEntity
  8
0
 62
7
100
AcDbLine
 10
342.362084
 20
219.931808
 30
0.0
 11
342.315038
 21
219.948742
 31
0.0
  0
LINE
  5
1b1
100
AcDbEntity
  8
0
 62
7
100
AcDbLine
 10
342.408200
 20
219.912521
 30
0.0
 11
342.362084
 21
219.931797
 31
0.0
  0
LINE
  5
1b2
100
AcDbEntity
  8
0
 62
7
100
AcDbLine
 10
342.453327
 20
219.890965
 30
0.0
 11
342.408200
 21
219.912527
 31
0.0
  0
LINE
  5
1b3
100
AcDbEntity
  8
0
 62
7
100
AcDbLine
 10
342.497297
 20
219.867185
 30
0.0
 11
342.453327
 21
219.890976
 31
0.0
  0
LINE
  5
1b4
100
AcDbEntity
  8
0
 62
7
100
AcDbLine
 10
342.540026
 20
219.841240
 30
0.0
 11
342.497297
 21
219.867177
 31
0.0
  0
LINE
  5
1b5
100
AcDbEntity
  8
0
 62
7
100
AcDbLine
 10
342.581399
 20
219.813170
 30
0.0
 11
342.540026
 21
219.841223
 31
0.0
  0
LINE
  5
1b6
100
AcDbEntity
  8
0
 62
7
100
AcDbLine
 10
342.621334
 20
219.783077
 30
0.0
 11
342.581399
 21
219.813168
 31
0.0
  0
LINE
  5
1b7
100
AcDbEntity
  8
0
 62
7
100
AcDbLine
 10
342.659688
 20
219.751031
 30
0.0
 11
342.621334
 21
219.783077
 31
0.0
  0
LINE
  5
1b8
100
AcDbEntity
  8
0
 62
7
100
AcDbLine
 10
342.696433
 20
219.717108
 30
0.0
 11
342.659688
 21
219.751031
 31
0.0
  0
LINE
  5
1b9
100
AcDbEntity
  8
0
 62
7
100
AcDbLine
 10
342.731400
 20
219.681390
 30
0.0
 11
342.696433
 21
219.717108
 31
0.0
  0
LINE
  5
1ba
100
AcDbEntity
  8
0
 62
7
100
AcDbLine
 10
342.764562
 20
219.643970
 30
0.0
 11
342.731400
 21
219.681390
 31
0.0
  0
LINE
  5
1bb
100
AcDbEntity
  8
0
 62
7
100
AcDbLine
 10
342.795804
 20
219.604938
 30
0.0
 11
342.764562
 21
219.643970
 31
0.0
  0
LINE
  5
1bc
100
AcDbEntity
  8
0
 62
7
100
AcDbLine
 10
342.825042
 20
219.564394
 30
0.0
 11
342.795804
 21
219.604938
 31
0.0
  0
LINE
  5
1bd
100
AcDbEntity
  8
0
 62
7
100
AcDbLine
 10
342.852248
 20
219.522439
 30
0.0
 11
342.825155
 21
219.564394
 31
0.0
  0
LINE
  5
1be
100
AcDbEntity
  8
0
 62
7
100
AcDbLine
 10
342.877422
 20
219.479177
 30
0.0
 11
342.852304
 21
219.522439
 31
0.0
  0
LINE
  5
1bf
100
AcDbEntity
  8
0
 62
7
100
AcDbLine
 10
342.900226
 20
219.434719
 30
0.0
 11
342.877366
 21
219.479177
 31
0.0
  0
LINE
  5
1c0
100
AcDbEntity
  8
0
 62
7
100
AcDbLine
 10
342.920828
 20
219.389168
 30
0.0
 11
342.900226
 21
219.434719
 31
0.0
  0
LINE
  5
1c1
100
AcDbEntity
  8
0
 62
7
100
AcDbLine
 10
342.939144
 20
219.342650
 30
0.0
 11
342.920800
 21
219.389168
 31
0.0
  0
LINE
  5
1c2
100
AcDbEntity
  8
0
 62
7
100
AcDbLine
 10
342.955090
 20
219.295273
 30
0.0
 11
342.939003
 21
219.342650
 31
0.0
  0
LINE
  5
1c3
100
AcDbEntity
  8
0
 62
7
100
AcDbLine
 10
342.968552
 20
219.247157
 30
0.0
 11
342.955005
 21
219.295273
 31
0.0
  0
LINE
  5
1c4
100
AcDbEntity
  8
0
 62
7
100
AcDbLine
 10
342.979841
 20
219.198420
 30
0.0
 11
342.968834
 21
219.247157
 31
0.0
  0
LINE
  5
1c5
100
AcDbEntity
  8
0
 62
7
100
AcDbLine
 10
342.988590
 20
219.149189
 30
0.0
 11
342.979841
 21
219.198420
 31
0.0
  0
LINE
  5
1c6
100
AcDbEntity
  8
0
 62
7
100
AcDbLine
 10
342.994798
 20
219.099586
 30
0.0
 11
342.988590
 21
219.149189
 31
0.0
  0
LINE
  5
1c7
100
AcDbEntity
  8
0
 62
7
100
AcDbLine
 10
342.998467
 20
219.049731
 30
0.0
 11
342.994798
 21
219.099586
 31
0.0
  0
LINE
  5
1c8
100
AcDbEntity
  8
0
 62
7
100
AcDbLine
 10
342.999878
 20
218.999752
 30
0.0
 11
342.999878
 21
219.049731
 31
0.0
  0
LINE
  5
1c9
100
AcDbEntity
  8
0
 62
7
100
AcDbLine
 10
342.999878
 20
215.999753
 30
0.0
 11
342.999878
 21
218.999752
 31
0.0
  0
LINE
  5
1ca
100
AcDbEntity
  8
0
 62
7
100
AcDbLine
 10
342.999681
 20
215.978956
 30
0.0
 11
342.999878
 21
215.999756
 31
0.0
  0
LINE
  5
1cb
100
AcDbEntity
  8
0
 62
7
100
AcDbLine
 10
342.997056
 20
215.929017
 30
0.0
 11
342.999878
 21
215.978959
 31
0.0
  0
LINE
  5
1cc
100
AcDbEntity
  8
0
 62
7
100
AcDbLine
 10
342.992823
 20
215.879252
 30
0.0
 11
342.997621
 21
215.929017
 31
0.0
  0
LINE
  5
1cd
100
AcDbEntity
  8
0
 62
7
100
AcDbLine
 10
342.985485
 20
215.829787
 30
0.0
 11
342.992823
 21
215.879252
 31
0.0
  0
LINE
  5
1ce
100
AcDbEntity
  8
0
 62
7
100
AcDbLine
 10
342.975890
 20
215.780748
 30
0.0
 11
342.985485
 21
215.829787
 31
0.0
  0
LINE
  5
1cf
100
AcDbEntity
  8
0
 62
7
100
AcDbLine
 10
342.963472
 20
215.732254
 30
0.0
 11
342.975607
 21
215.780748
 31
0.0
  0
LINE
  5
1d0
100
AcDbEntity
  8
0
 62
7
100
AcDbLine
 10
342.948796
 20
215.684432
 30
0.0
 11
342.963472
 21
215.732254
 31
0.0
  0
LINE
  5
1d1
100
AcDbEntity
  8
0
 62
7
100
AcDbLine
 10
342.931948
 20
215.637396
 30
0.0
 11
342.948881
 21
215.684432
 31
0.0
  0
LINE
  5
1d2
100
AcDbEntity
  8
0
 62
7
100
AcDbLine
 10
342.912644
 20
215.591267
 30
0.0
 11
342.931835
 21
215.637396
 31
0.0
  0
LINE
  5
1d3
100
AcDbEntity
  8
0
 62
7
100
AcDbLine
 10
342.890997
 20
215.546160
 30
0.0
 11
342.912446
 21
215.591267
 31
0.0
  0
LINE
  5
1d4
100
AcDbEntity
  8
0
 62
7
100
AcDbLine
 10
342.867121
 20
215.502184
 30
0.0
 11
342.890828
 21
215.546160
 31
0.0
  0
LINE
  5
1d5
100
AcDbEntity
  8
0
 62
7
100
AcDbLine
 10
342.841100
 20
215.459452
 30
0.0
 11
342.867065
 21
215.502184
 31
0.0
  0
LINE
  5
1d6
100
AcDbEntity
  8
0
 62
7
100
AcDbLine
 10
342.813047
 20
215.418070
 30
0.0
 11
342.840987
 21
215.459452
 31
0.0
  0
LINE
  5
1d7
100
AcDbEntity
  8
0
 62
7
100
AcDbLine
 10
342.782850
 20
215.378144
 30
0.0
 11
342.812934
 21
215.418070
 31
0.0
  0
LINE
  5
1d8
100
AcDbEntity
  8
0
 62
7
100
AcDbLine
 10
342.750789
 20
215.339770
 30
0.0
 11
342.782850
 21
215.378144
 31
0.0
  0
LINE
  5
1d9
100
AcDbEntity
  8
0
 62
7
100
AcDbLine
 10
342.716866
 20
215.303048
 30
0.0
 11
342.750789
 21
215.339770
 31
0.0
  0
LINE
  5
1da
100
AcDbEntity
  8
0
 62
7
100
AcDbLine
 10
342.681165
 20
215.268066
 30
0.0
 11
342.716866
 21
215.303048
 31
0.0
  0
LINE
  5
1db
100
AcDbEntity
  8
0
 62
7
100
AcDbLine
 10
342.643742
 20
215.234914
 30
0.0
 11
342.681165
 21
215.268066
 31
0.0
  0
LINE
  5
1dc
100
AcDbEntity
  8
0
 62
7
100
AcDbLine
 10
342.604711
 20
215.203672
 30
0.0
 11
342.643742
 21
215.234914
 31
0.0
  0
LINE
  5
1dd
100
AcDbEntity
  8
0
 62
7
100
AcDbLine
 10
342.564156
 20
215.174419
 30
0.0
 11
342.604711
 21
215.203672
 31
0.0
  0
LINE
  5
1de
100
AcDbEntity
  8
0
 62
7
100
AcDbLine
 10
342.522217
 20
215.147230
 30
0.0
 11
342.564156
 21
215.174408
 31
0.0
  0
LINE
  5
1df
100
AcDbEntity
  8
0
 62
7
100
AcDbLine
 10
342.478953
 20
215.122160
 30
0.0
 11
342.522217
 21
215.147222
 31
0.0
  0
LINE
  5
1e0
100
AcDbEntity
  8
0
 62
7
100
AcDbLine
 10
342.434474
 20
215.099300
 30
0.0
 11
342.478953
 21
215.122160
 31
0.0
  0
LINE
  5
1e1
100
AcDbEntity
  8
0
 62
7
100
AcDbLine
 10
342.388952
 20
215.078681
 30
0.0
 11
342.434474
 21
215.099311
 31
0.0
  0
LINE
  5
1e2
100
AcDbEntity
  8
0
 62
7
100
AcDbLine
 10
342.342414
 20
215.060385
 30
0.0
 11
342.388952
 21
215.078701
 31
0.0
  0
LINE
  5
1e3
100
AcDbEntity
  8
0
 62
7
100
AcDbLine
 10
342.295028
 20
215.044428
 30
0.0
 11
342.342414
 21
215.060402
 31
0.0
  0
LINE
  5
1e4
100
AcDbEntity
  8
0
 62
7
100
AcDbLine
 10
342.246938
 20
215.030861
 30
0.0
 11
342.295028
 21
215.044436
 31
0.0
  0
LINE
  5
1e5
100
AcDbEntity
  8
0
 62
7
100
AcDbLine
 10
342.198198
 20
215.019714
 30
0.0
 11
342.246938
 21
215.030861
 31
0.0
  0
LINE
  5
1e6
100
AcDbEntity
  8
0
 62
7
100
AcDbLine
 10
342.148950
 20
215.010993
 30
0.0
 11
342.198198
 21
215.019685
 31
0.0
  0
LINE
  5
1e7
100
AcDbEntity
  8
0
 62
7
100
AcDbLine
 10
342.099364
 20
215.004756
 30
0.0
 11
342.148950
 21
215.010993
 31
0.0
  0
LINE
  5
1e8
100
AcDbEntity
  8
0
 62
7
100
AcDbLine
 10
342.049495
 20
215.001002
 30
0.0
 11
342.099364
 21
215.004756
 31
0.0
  0
LINE
  5
1e9
100
AcDbEntity
  8
0
 62
7
100
AcDbLine
 10
341.999514
 20
214.999760
 30
0.0
 11
342.049495
 21
215.000889
 31
0.0
  0
LINE
  5
1ea
100
AcDbEntity
  8
0
 62
7
100
AcDbLine
 10
339.999518
 20
214.999760
 30
0.0
 11
341.999514
 21
214.999760
 31
0.0
  0
LINE
  5
1eb
100
AcDbEntity
  8
0
 62
7
100
AcDbLine
 10
339.999518
 20
204.999761
 30
0.0
 11
339.999518
 21
214.999760
 31
0.0
  0
LINE
  5
1ec
100
AcDbEntity
  8
0
 62
7
100
AcDbLine
 10
341.999514
 20
204.999761
 30
0.0
 11
339.999518
 21
204.999761
 31
0.0
  0
LINE
  5
1ed
100
AcDbEntity
  8
0
 62
7
100
AcDbLine
 10
342.020313
 20
204.999543
 30
0.0
 11
341.999429
 21
204.999761
 31
0.0
  0
LINE
  5
1ee
100
AcDbEntity
  8
0
 62
7
100
AcDbLine
 10
342.070182
 20
204.997221
 30
0.0
 11
342.020229
 21
204.999478
 31
0.0
  0
LINE
  5
1ef
100
AcDbEntity
  8
0
 62
7
100
AcDbLine
 10
342.119938
 20
204.992423
 30
0.0
 11
342.070182
 21
204.997192
 31
0.0
  0
LINE
  5
1f0
100
AcDbEntity
  8
0
 62
7
100
AcDbLine
 10
342.169411
 20
204.985142
 30
0.0
 11
342.119938
 21
204.992395
 31
0.0
  0
LINE
  5
1f1
100
AcDbEntity
  8
0
 62
7
100
AcDbLine
 10
342.218433
 20
204.975405
 30
0.0
 11
342.169411
 21
204.985142
 31
0.0
  0
LINE
  5
1f2
100
AcDbEntity
  8
0
 62
7
100
AcDbLine
 10
342.266947
 20
204.963241
 30
0.0
 11
342.218433
 21
204.975405
 31
0.0
  0
LINE
  5
1f3
100
AcDbEntity
  8
0
 62
7
100
AcDbLine
 10
342.314756
 20
204.948678
 30
0.0
 11
342.266947
 21
204.963241
 31
0.0
  0
LINE
  5
1f4
100
AcDbEntity
  8
0
 62
7
100
AcDbLine
 10
342.361802
 20
204.931723
 30
0.0
 11
342.314756
 21
204.948656
 31
0.0
  0
LINE
  5
1f5
100
AcDbEntity
  8
0
 62
7
100
AcDbLine
 10
342.407917
 20
204.912433
 30
0.0
 11
342.361802
 21
204.931708
 31
0.0
  0
LINE
  5
1f6
100
AcDbEntity
  8
0
 62
7
100
AcDbLine
 10
342.453045
 20
204.890877
 30
0.0
 11
342.407917
 21
204.912438
 31
0.0
  0
LINE
  5
1f7
100
AcDbEntity
  8
0
 62
7
100
AcDbLine
 10
342.497015
 20
204.867099
 30
0.0
 11
342.453045
 21
204.890891
 31
0.0
  0
LINE
  5
1f8
100
AcDbEntity
  8
0
 62
7
100
AcDbLine
 10
342.539743
 20
204.841155
 30
0.0
 11
342.497015
 21
204.867119
 31
0.0
  0
LINE
  5
1f9
100
AcDbEntity
  8
0
 62
7
100
AcDbLine
 10
342.581117
 20
204.813110
 30
0.0
 11
342.539743
 21
204.841163
 31
0.0
  0
LINE
  5
1fa
100
AcDbEntity
  8
0
 62
7
100
AcDbLine
 10
342.621052
 20
204.783020
 30
0.0
 11
342.581117
 21
204.813107
 31
0.0
  0
LINE
  5
1fb
100
AcDbEntity
  8
0
 62
7
100
AcDbLine
 10
342.659406
 20
204.750973
 30
0.0
 11
342.621052
 21
204.783020
 31
0.0
  0
LINE
  5
1fc
100
AcDbEntity
  8
0
 62
7
100
AcDbLine
 10
342.696151
 20
204.717047
 30
0.0
 11
342.659406
 21
204.750973
 31
0.0
  0
LINE
  5
1fd
100
AcDbEntity
  8
0
 62
7
100
AcDbLine
 10
342.731118
 20
204.681332
 30
0.0
 11
342.696151
 21
204.717047
 31
0.0
  0
LINE
  5
1fe
100
AcDbEntity
  8
0
 62
7
100
AcDbLine
 10
342.764279
 20
204.643909
 30
0.0
 11
342.731118
 21
204.681332
 31
0.0
  0
LINE
  5
1ff
100
AcDbEntity
  8
0
 62
7
100
AcDbLine
 10
342.795521
 20
204.604878
 30
0.0
 11
342.764279
 21
204.643909
 31
0.0
  0
LINE
  5
200
100
AcDbEntity
  8
0
 62
7
100
AcDbLine
 10
342.824760
 20
204.564334
 30
0.0
 11
342.795521
 21
204.604878
 31
0.0
  0
LINE
  5
201
100
AcDbEntity
  8
0
 62
7
100
AcDbLine
 10
342.851966
 20
204.522379
 30
0.0
 11
342.824872
 21
204.564334
 31
0.0
  0
LINE
  5
202
100
AcDbEntity
  8
0
 62
7
100
AcDbLine
 10
342.877140
 20
204.479117
 30
0.0
 11
342.852022
 21
204.522379
 31
0.0
  0
LINE
  5
203
100
AcDbEntity
  8
0
 62
7
100
AcDbLine
 10
342.899944
 20
204.434659
 30
0.0
 11
342.877084
 21
204.479117
 31
0.0
  0
LINE
  5
204
100
AcDbEntity
  8
0
 62
7
100
AcDbLine
 10
342.920546
 20
204.389111
 30
0.0
 11
342.899944
 21
204.434659
 31
0.0
  0
LINE
  5
205
100
AcDbEntity
  8
0
 62
7
100
AcDbLine
 10
342.938862
 20
204.342589
 30
0.0
 11
342.920518
 21
204.389111
 31
0.0
  0
LINE
  5
206
100
AcDbEntity
  8
0
 62
7
100
AcDbLine
 10
342.954808
 20
204.295213
 30
0.0
 11
342.938721
 21
204.342589
 31
0.0
  0
LINE
  5
207
100
AcDbEntity
  8
0
 62
7
100
AcDbLine
 10
342.968270
 20
204.247097
 30
0.0
 11
342.954723
 21
204.295213
 31
0.0
  0
LINE
  5
208
100
AcDbEntity
  8
0
 62
7
100
AcDbLine
 10
342.979558
 20
204.198362
 30
0.0
 11
342.968552
 21
204.247097
 31
0.0
  0
LINE
  5
209
100
AcDbEntity
  8
0
 62
7
100
AcDbLine
 10
342.988307
 20
204.149132
 30
0.0
 11
342.979558
 21
204.198362
 31
0.0
  0
LINE
  5
20a
100
AcDbEntity
  8
0
 62
7
100
AcDbLine
 10
342.994516
 20
204.099525
 30
0.0
 11
342.988307
 21
204.149132
 31
0.0
  0
LINE
  5
20b
100
AcDbEntity
  8
0
 62
7
100
AcDbLine
 10
342.998185
 20
204.049671
 30
0.0
 11
342.994516
 21
204.099525
 31
0.0
  0
LINE
  5
20c
100
AcDbEntity
  8
0
 62
7
100
AcDbLine
 10
342.999596
 20
203.999692
 30
0.0
 11
342.999596
 21
204.049671
 31
0.0
  0
LINE
  5
20d
100
AcDbEntity
  8
0
 62
7
100
AcDbLine
 10
342.999596
 20
200.999692
 30
0.0
 11
342.999596
 21
203.999692
 31
0.0
  0
LINE
  5
20e
100
AcDbEntity
  8
0
 62
7
100
AcDbLine
 10
342.999399
 20
200.978898
 30
0.0
 11
342.999596
 21
200.999698
 31
0.0
  0
LINE
  5
20f
100
AcDbEntity
  8
0
 62
7
100
AcDbLine
 10
342.996774
 20
200.928962
 30
0.0
 11
342.999596
 21
200.978904
 31
0.0
  0
LINE
  5
210
100
AcDbEntity
  8
0
 62
7
100
AcDbLine
 10
342.992541
 20
200.879195
 30
0.0
 11
342.997338
 21
200.928962
 31
0.0
  0
LINE
  5
211
100
AcDbEntity
  8
0
 62
7
100
AcDbLine
 10
342.985203
 20
200.829730
 30
0.0
 11
342.992541
 21
200.879195
 31
0.0
  0
LINE
  5
212
100
AcDbEntity
  8
0
 62
7
100
AcDbLine
 10
342.975607
 20
200.780691
 30
0.0
 11
342.985203
 21
200.829730
 31
0.0
  0
LINE
  5
213
100
AcDbEntity
  8
0
 62
7
100
AcDbLine
 10
342.963190
 20
200.732199
 30
0.0
 11
342.975325
 21
200.780691
 31
0.0
  0
LINE
  5
214
100
AcDbEntity
  8
0
 62
7
100
AcDbLine
 10
342.948514
 20
200.684377
 30
0.0
 11
342.963190
 21
200.732199
 31
0.0
  0
LINE
  5
215
100
AcDbEntity
  8
0
 62
7
100
AcDbLine
 10
342.931665
 20
200.637339
 30
0.0
 11
342.948599
 21
200.684377
 31
0.0
  0
LINE
  5
216
100
AcDbEntity
  8
0
 62
7
100
AcDbLine
 10
342.912361
 20
200.591212
 30
0.0
 11
342.931552
 21
200.637339
 31
0.0
  0
LINE
  5
217
100
AcDbEntity
  8
0
 62
7
100
AcDbLine
 10
342.890715
 20
200.546102
 30
0.0
 11
342.912164
 21
200.591212
 31
0.0
  0
LINE
  5
218
100
AcDbEntity
  8
0
 62
7
100
AcDbLine
 10
342.866839
 20
200.502126
 30
0.0
 11
342.890546
 21
200.546102
 31
0.0
  0
LINE
  5
219
100
AcDbEntity
  8
0
 62
7
100
AcDbLine
 10
342.840818
 20
200.459395
 30
0.0
 11
342.866782
 21
200.502126
 31
0.0
  0
LINE
  5
21a
100
AcDbEntity
  8
0
 62
7
100
AcDbLine
 10
342.812765
 20
200.418016
 30
0.0
 11
342.840705
 21
200.459395
 31
0.0
  0
LINE
  5
21b
100
AcDbEntity
  8
0
 62
7
100
AcDbLine
 10
342.782567
 20
200.378090
 30
0.0
 11
342.812652
 21
200.418016
 31
0.0
  0
LINE
  5
21c
100
AcDbEntity
  8
0
 62
7
100
AcDbLine
 10
342.750507
 20
200.339716
 30
0.0
 11
342.782567
 21
200.378090
 31
0.0
  0
LINE
  5
21d
100
AcDbEntity
  8
0
 62
7
100
AcDbLine
 10
342.716584
 20
200.302990
 30
0.0
 11
342.750507
 21
200.339716
 31
0.0
  0
LINE
  5
21e
100
AcDbEntity
  8
0
 62
7
100
AcDbLine
 10
342.680883
 20
200.268009
 30
0.0
 11
342.716584
 21
200.302990
 31
0.0
  0
LINE
  5
21f
100
AcDbEntity
  8
0
 62
7
100
AcDbLine
 10
342.643460
 20
200.234856
 30
0.0
 11
342.680883
 21
200.268009
 31
0.0
  0
LINE
  5
220
100
AcDbEntity
  8
0
 62
7
100
AcDbLine
 10
342.604429
 20
200.203614
 30
0.0
 11
342.643460
 21
200.234856
 31
0.0
  0
LINE
  5
221
100
AcDbEntity
  8
0
 62
7
100
AcDbLine
 10
342.563873
 20
200.174362
 30
0.0
 11
342.604429
 21
200.203614
 31
0.0
  0
LINE
  5
222
100
AcDbEntity
  8
0
 62
7
100
AcDbLine
 10
342.521935
 20
200.147173
 30
0.0
 11
342.563873
 21
200.174351
 31
0.0
  0
LINE
  5
223
100
AcDbEntity
  8
0
 62
7
100
AcDbLine
 10
342.478670
 20
200.122103
 30
0.0
 11
342.521935
 21
200.147164
 31
0.0
  0
LINE
  5
224
100
AcDbEntity
  8
0
 62
7
100
AcDbLine
 10
342.434192
 20
200.099243
 30
0.0
 11
342.478670
 21
200.122103
 31
0.0
  0
LINE
  5
225
100
AcDbEntity
  8
0
 62
7
100
AcDbLine
 10
342.388670
 20
200.078626
 30
0.0
 11
342.434192
 21
200.099229
 31
0.0
  0
LINE
  5
226
100
AcDbEntity
  8
0
 62
7
100
AcDbLine
 10
342.342131
 20
200.060302
 30
0.0
 11
342.388670
 21
200.078618
 31
0.0
  0
LINE
  5
227
100
AcDbEntity
  8
0
 62
7
100
AcDbLine
 10
342.294746
 20
200.044342
 30
0.0
 11
342.342131
 21
200.060316
 31
0.0
  0
LINE
  5
228
100
AcDbEntity
  8
0
 62
7
100
AcDbLine
 10
342.246656
 20
200.030778
 30
0.0
 11
342.294746
 21
200.044353
 31
0.0
  0
LINE
  5
229
100
AcDbEntity
  8
0
 62
7
100
AcDbLine
 10
342.197916
 20
200.019631
 30
0.0
 11
342.246656
 21
200.030778
 31
0.0
  0
LINE
  5
22a
100
AcDbEntity
  8
0
 62
7
100
AcDbLine
 10
342.148668
 20
200.010910
 30
0.0
 11
342.197916
 21
200.019602
 31
0.0
  0
LINE
  5
22b
100
AcDbEntity
  8
0
 62
7
100
AcDbLine
 10
342.099082
 20
200.004673
 30
0.0
 11
342.148668
 21
200.010910
 31
0.0
  0
LINE
  5
22c
100
AcDbEntity
  8
0
 62
7
100
AcDbLine
 10
342.049213
 20
200.000919
 30
0.0
 11
342.099082
 21
200.004673
 31
0.0
  0
LINE
  5
22d
100
AcDbEntity
  8
0
 62
7
100
AcDbLine
 10
341.999231
 20
199.999678
 30
0.0
 11
342.049213
 21
200.000806
 31
0.0
  0
LINE
  5
22e
100
AcDbEntity
  8
0
 62
7
100
AcDbLine
 10
307.999243
 20
199.999678
 30
0.0
 11
341.999231
 21
199.999678
 31
0.0
  0
LINE
  5
22f
100
AcDbEntity
  8
0
 62
7
100
AcDbLine
 10
307.978443
 20
199.999895
 30
0.0
 11
307.999328
 21
199.999678
 31
0.0
  0
LINE
  5
230
100
AcDbEntity
  8
0
 62
7
100
AcDbLine
 10
307.928574
 20
200.002218
 30
0.0
 11
307.978528
 21
199.999960
 31
0.0
  0
LINE
  5
231
100
AcDbEntity
  8
0
 62
7
100
AcDbLine
 10
307.878819
 20
200.007044
 30
0.0
 11
307.928574
 21
200.002274
 31
0.0
  0
LINE
  5
232
100
AcDbEntity
  8
0
 62
7
100
AcDbLine
 10
307.829345
 20
200.014325
 30
0.0
 11
307.878819
 21
200.007072
 31
0.0
  0
LINE
  5
233
100
AcDbEntity
  8
0
 62
7
100
AcDbLine
 10
307.780323
 20
200.024062
 30
0.0
 11
307.829345
 21
200.014325
 31
0.0
  0
LINE
  5
234
100
AcDbEntity
  8
0
 62
7
100
AcDbLine
 10
307.731837
 20
200.036225
 30
0.0
 11
307.780323
 21
200.024062
 31
0.0
  0
LINE
  5
235
100
AcDbEntity
  8
0
 62
7
100
AcDbLine
 10
307.684001
 20
200.050788
 30
0.0
 11
307.731837
 21
200.036225
 31
0.0
  0
LINE
  5
236
100
AcDbEntity
  8
0
 62
7
100
AcDbLine
 10
307.636954
 20
200.067744
 30
0.0
 11
307.684001
 21
200.050782
 31
0.0
  0
LINE
  5
237
100
AcDbEntity
  8
0
 62
7
100
AcDbLine
 10
307.590839
 20
200.087006
 30
0.0
 11
307.636954
 21
200.067730
 31
0.0
  0
LINE
  5
238
100
AcDbEntity
  8
0
 62
7
100
AcDbLine
 10
307.545740
 20
200.108562
 30
0.0
 11
307.590839
 21
200.087000
 31
0.0
  0
LINE
  5
239
100
AcDbEntity
  8
0
 62
7
100
AcDbLine
 10
307.501742
 20
200.132339
 30
0.0
 11
307.545740
 21
200.108548
 31
0.0
  0
LINE
  5
23a
100
AcDbEntity
  8
0
 62
7
100
AcDbLine
 10
307.459013
 20
200.158284
 30
0.0
 11
307.501742
 21
200.132319
 31
0.0
  0
LINE
  5
23b
100
AcDbEntity
  8
0
 62
7
100
AcDbLine
 10
307.417639
 20
200.186328
 30
0.0
 11
307.459013
 21
200.158275
 31
0.0
  0
LINE
  5
23c
100
AcDbEntity
  8
0
 62
7
100
AcDbLine
 10
307.377705
 20
200.216419
 30
0.0
 11
307.417639
 21
200.186331
 31
0.0
  0
LINE
  5
23d
100
AcDbEntity
  8
0
 62
7
100
AcDbLine
 10
307.339351
 20
200.248465
 30
0.0
 11
307.377705
 21
200.216419
 31
0.0
  0
LINE
  5
23e
100
AcDbEntity
  8
0
 62
7
100
AcDbLine
 10
307.302606
 20
200.282391
 30
0.0
 11
307.339351
 21
200.248465
 31
0.0
  0
LINE
  5
23f
100
AcDbEntity
  8
0
 62
7
100
AcDbLine
 10
307.267638
 20
200.318106
 30
0.0
 11
307.302606
 21
200.282391
 31
0.0
  0
LINE
  5
240
100
AcDbEntity
  8
0
 62
7
100
AcDbLine
 10
307.234477
 20
200.355529
 30
0.0
 11
307.267638
 21
200.318106
 31
0.0
  0
LINE
  5
241
100
AcDbEntity
  8
0
 62
7
100
AcDbLine
 10
307.203235
 20
200.394560
 30
0.0
 11
307.234477
 21
200.355529
 31
0.0
  0
LINE
  5
242
100
AcDbEntity
  8
0
 62
7
100
AcDbLine
 10
307.173997
 20
200.435104
 30
0.0
 11
307.203235
 21
200.394560
 31
0.0
  0
LINE
  5
243
100
AcDbEntity
  8
0
 62
7
100
AcDbLine
 10
307.146791
 20
200.477059
 30
0.0
 11
307.173884
 21
200.435104
 31
0.0
  0
LINE
  5
244
100
AcDbEntity
  8
0
 62
7
100
AcDbLine
 10
307.121616
 20
200.520321
 30
0.0
 11
307.146734
 21
200.477059
 31
0.0
  0
LINE
  5
245
100
AcDbEntity
  8
0
 62
7
100
AcDbLine
 10
307.098813
 20
200.564780
 30
0.0
 11
307.121673
 21
200.520321
 31
0.0
  0
LINE
  5
246
100
AcDbEntity
  8
0
 62
7
100
AcDbLine
 10
307.078211
 20
200.610327
 30
0.0
 11
307.098813
 21
200.564780
 31
0.0
  0
LINE
  5
247
100
AcDbEntity
  8
0
 62
7
100
AcDbLine
 10
307.059894
 20
200.656849
 30
0.0
 11
307.078239
 21
200.610327
 31
0.0
  0
LINE
  5
248
100
AcDbEntity
  8
0
 62
7
100
AcDbLine
 10
307.043949
 20
200.704226
 30
0.0
 11
307.060036
 21
200.656849
 31
0.0
  0
LINE
  5
249
100
AcDbEntity
  8
0
 62
7
100
AcDbLine
 10
307.030487
 20
200.752342
 30
0.0
 11
307.044034
 21
200.704226
 31
0.0
  0
LINE
  5
24a
100
AcDbEntity
  8
0
 62
7
100
AcDbLine
 10
307.019198
 20
200.801076
 30
0.0
 11
307.030487
 21
200.752342
 31
0.0
  0
LINE
  5
24b
100
AcDbEntity
  8
0
 62
7
100
AcDbLine
 10
307.010731
 20
200.850309
 30
0.0
 11
307.019480
 21
200.801076
 31
0.0
  0
LINE
  5
24c
100
AcDbEntity
  8
0
 62
7
100
AcDbLine
 10
307.004522
 20
200.899913
 30
0.0
 11
307.010731
 21
200.850309
 31
0.0
  0
LINE
  5
24d
100
AcDbEntity
  8
0
 62
7
100
AcDbLine
 10
307.000854
 20
200.949767
 30
0.0
 11
307.004522
 21
200.899913
 31
0.0
  0
LINE
  5
24e
100
AcDbEntity
  8
0
 62
7
100
AcDbLine
 10
306.999442
 20
200.999746
 30
0.0
 11
306.999442
 21
200.949767
 31
0.0
  0
LINE
  5
24f
100
AcDbEntity
  8
0
 62
7
100
AcDbLine
 10
306.999442
 20
203.999746
 30
0.0
 11
306.999442
 21
200.999746
 31
0.0
  0
LINE
  5
250
100
AcDbEntity
  8
0
 62
7
100
AcDbLine
 10
306.999640
 20
204.020540
 30
0.0
 11
306.999442
 21
203.999740
 31
0.0
  0
LINE
  5
251
100
AcDbEntity
  8
0
 62
7
100
AcDbLine
 10
307.002265
 20
204.070476
 30
0.0
 11
306.999442
 21
204.020534
 31
0.0
  0
LINE
  5
252
100
AcDbEntity
  8
0
 62
7
100
AcDbLine
 10
307.006498
 20
204.120243
 30
0.0
 11
307.001700
 21
204.070476
 31
0.0
  0
LINE
  5
253
100
AcDbEntity
  8
0
 62
7
100
AcDbLine
 10
307.013836
 20
204.169708
 30
0.0
 11
307.006498
 21
204.120243
 31
0.0
  0
LINE
  5
254
100
AcDbEntity
  8
0
 62
7
100
AcDbLine
 10
307.023431
 20
204.218747
 30
0.0
 11
307.013836
 21
204.169708
 31
0.0
  0
LINE
  5
255
100
AcDbEntity
  8
0
 62
7
100
AcDbLine
 10
307.035849
 20
204.267239
 30
0.0
 11
307.023714
 21
204.218747
 31
0.0
  0
LINE
  5
256
100
AcDbEntity
  8
0
 62
7
100
AcDbLine
 10
307.050525
 20
204.315061
 30
0.0
 11
307.035849
 21
204.267239
 31
0.0
  0
LINE
  5
257
100
AcDbEntity
  8
0
 62
7
100
AcDbLine
 10
307.067373
 20
204.362099
 30
0.0
 11
307.050440
 21
204.315061
 31
0.0
  0
LINE
  5
258
100
AcDbEntity
  8
0
 62
7
100
AcDbLine
 10
307.086677
 20
204.408229
 30
0.0
 11
307.067486
 21
204.362099
 31
0.0
  0
LINE
  5
259
100
AcDbEntity
  8
0
 62
7
100
AcDbLine
 10
307.108324
 20
204.453336
 30
0.0
 11
307.086875
 21
204.408229
 31
0.0
  0
LINE
  5
25a
100
AcDbEntity
  8
0
 62
7
100
AcDbLine
 10
307.132200
 20
204.497312
 30
0.0
 11
307.108493
 21
204.453336
 31
0.0
  0
LINE
  5
25b
100
AcDbEntity
  8
0
 62
7
100
AcDbLine
 10
307.158221
 20
204.540043
 30
0.0
 11
307.132256
 21
204.497312
 31
0.0
  0
LINE
  5
25c
100
AcDbEntity
  8
0
 62
7
100
AcDbLine
 10
307.186274
 20
204.581423
 30
0.0
 11
307.158334
 21
204.540043
 31
0.0
  0
LINE
  5
25d
100
AcDbEntity
  8
0
 62
7
100
AcDbLine
 10
307.216471
 20
204.621351
 30
0.0
 11
307.186386
 21
204.581423
 31
0.0
  0
LINE
  5
25e
100
AcDbEntity
  8
0
 62
7
100
AcDbLine
 10
307.248532
 20
204.659722
 30
0.0
 11
307.216471
 21
204.621351
 31
0.0
  0
LINE
  5
25f
100
AcDbEntity
  8
0
 62
7
100
AcDbLine
 10
307.282455
 20
204.696448
 30
0.0
 11
307.248532
 21
204.659722
 31
0.0
  0
LINE
  5
260
100
AcDbEntity
  8
0
 62
7
100
AcDbLine
 10
307.318156
 20
204.731429
 30
0.0
 11
307.282455
 21
204.696448
 31
0.0
  0
LINE
  5
261
100
AcDbEntity
  8
0
 62
7
100
AcDbLine
 10
307.355579
 20
204.764582
 30
0.0
 11
307.318156
 21
204.731429
 31
0.0
  0
LINE
  5
262
100
AcDbEntity
  8
0
 62
7
100
AcDbLine
 10
307.394610
 20
204.795824
 30
0.0
 11
307.355579
 21
204.764582
 31
0.0
  0
LINE
  5
263
100
AcDbEntity
  8
0
 62
7
100
AcDbLine
 10
307.435165
 20
204.825076
 30
0.0
 11
307.394610
 21
204.795824
 31
0.0
  0
LINE
  5
264
100
AcDbEntity
  8
0
 62
7
100
AcDbLine
 10
307.477104
 20
204.852266
 30
0.0
 11
307.435165
 21
204.825088
 31
0.0
  0
LINE
  5
265
100
AcDbEntity
  8
0
 62
7
100
AcDbLine
 10
307.520368
 20
204.877335
 30
0.0
 11
307.477104
 21
204.852274
 31
0.0
  0
LINE
  5
266
100
AcDbEntity
  8
0
 62
7
100
AcDbLine
 10
307.564846
 20
204.900195
 30
0.0
 11
307.520368
 21
204.877335
 31
0.0
  0
LINE
  5
267
100
AcDbEntity
  8
0
 62
7
100
AcDbLine
 10
307.610397
 20
204.920812
 30
0.0
 11
307.564846
 21
204.900210
 31
0.0
  0
LINE
  5
268
100
AcDbEntity
  8
0
 62
7
100
AcDbLine
 10
307.656907
 20
204.939137
 30
0.0
 11
307.610397
 21
204.920820
 31
0.0
  0
LINE
  5
269
100
AcDbEntity
  8
0
 62
7
100
AcDbLine
 10
307.704292
 20
204.955096
 30
0.0
 11
307.656907
 21
204.939122
 31
0.0
  0
LINE
  5
26a
100
AcDbEntity
  8
0
 62
7
100
AcDbLine
 10
307.752411
 20
204.968660
 30
0.0
 11
307.704292
 21
204.955085
 31
0.0
  0
LINE
  5
26b
100
AcDbEntity
  8
0
 62
7
100
AcDbLine
 10
307.801123
 20
204.979808
 30
0.0
 11
307.752411
 21
204.968660
 31
0.0
  0
LINE
  5
26c
100
AcDbEntity
  8
0
 62
7
100
AcDbLine
 10
307.850371
 20
204.988528
 30
0.0
 11
307.801123
 21
204.979836
 31
0.0
  0
LINE
  5
26d
100
AcDbEntity
  8
0
 62
7
100
AcDbLine
 10
307.899957
 20
204.994765
 30
0.0
 11
307.850371
 21
204.988528
 31
0.0
  0
LINE
  5
26e
100
AcDbEntity
  8
0
 62
7
100
AcDbLine
 10
307.949826
 20
204.998519
 30
0.0
 11
307.899957
 21
204.994765
 31
0.0
  0
LINE
  5
26f
100
AcDbEntity
  8
0
 62
7
100
AcDbLine
 10
307.999807
 20
204.999761
 30
0.0
 11
307.949826
 21
204.998632
 31
0.0
  0
LINE
  5
270
100
AcDbEntity
  8
0
 62
7
100
AcDbLine
 10
309.999803
 20
204.999761
 30
0.0
 11
307.999807
 21
204.999761
 31
0.0
  0
LINE
  5
271
100
AcDbEntity
  8
0
 62
7
100
AcDbLine
 10
309.999803
 20
214.999760
 30
0.0
 11
309.999803
 21
204.999761
 31
0.0
  0
LINE
  5
272
100
AcDbEntity
  8
0
 62
7
100
AcDbLine
 10
307.999807
 20
214.999760
 30
0.0
 11
309.999803
 21
214.999760
 31
0.0
  0
LINE
  5
273
100
AcDbEntity
  8
0
 62
7
100
AcDbLine
 10
307.979008
 20
214.999975
 30
0.0
 11
307.999892
 21
214.999760
 31
0.0
  0
LINE
  5
274
100
AcDbEntity
  8
0
 62
7
100
AcDbLine
 10
307.929139
 20
215.002300
 30
0.0
 11
307.979092
 21
215.000043
 31
0.0
  0
LINE
  5
275
100
AcDbEntity
  8
0
 62
7
100
AcDbLine
 10
307.879383
 20
215.007126
 30
0.0
 11
307.929139
 21
215.002357
 31
0.0
  0
LINE
  5
276
100
AcDbEntity
  8
0
 62
7
100
AcDbLine
 10
307.829910
 20
215.014408
 30
0.0
 11
307.879383
 21
215.007155
 31
0.0
  0
LINE
  5
277
100
AcDbEntity
  8
0
 62
7
100
AcDbLine
 10
307.780888
 20
215.024144
 30
0.0
 11
307.829910
 21
215.014408
 31
0.0
  0
LINE
  5
278
100
AcDbEntity
  8
0
 62
7
100
AcDbLine
 10
307.732402
 20
215.036308
 30
0.0
 11
307.780888
 21
215.024144
 31
0.0
  0
LINE
  5
279
100
AcDbEntity
  8
0
 62
7
100
AcDbLine
 10
307.684565
 20
215.050871
 30
0.0
 11
307.732402
 21
215.036308
 31
0.0
  0
LINE
  5
27a
100
AcDbEntity
  8
0
 62
7
100
AcDbLine
 10
307.637519
 20
215.067830
 30
0.0
 11
307.684565
 21
215.050868
 31
0.0
  0
LINE
  5
27b
100
AcDbEntity
  8
0
 62
7
100
AcDbLine
 10
307.591404
 20
215.087088
 30
0.0
 11
307.637519
 21
215.067813
 31
0.0
  0
LINE
  5
27c
100
AcDbEntity
  8
0
 62
7
100
AcDbLine
 10
307.546304
 20
215.108645
 30
0.0
 11
307.591404
 21
215.087083
 31
0.0
  0
LINE
  5
27d
100
AcDbEntity
  8
0
 62
7
100
AcDbLine
 10
307.502306
 20
215.132425
 30
0.0
 11
307.546304
 21
215.108633
 31
0.0
  0
LINE
  5
27e
100
AcDbEntity
  8
0
 62
7
100
AcDbLine
 10
307.459578
 20
215.158369
 30
0.0
 11
307.502306
 21
215.132405
 31
0.0
  0
LINE
  5
27f
100
AcDbEntity
  8
0
 62
7
100
AcDbLine
 10
307.418204
 20
215.186411
 30
0.0
 11
307.459578
 21
215.158358
 31
0.0
  0
LINE
  5
280
100
AcDbEntity
  8
0
 62
7
100
AcDbLine
 10
307.378269
 20
215.216501
 30
0.0
 11
307.418204
 21
215.186411
 31
0.0
  0
LINE
  5
281
100
AcDbEntity
  8
0
 62
7
100
AcDbLine
 10
307.339915
 20
215.248548
 30
0.0
 11
307.378269
 21
215.216501
 31
0.0
  0
LINE
  5
282
100
AcDbEntity
  8
0
 62
7
100
AcDbLine
 10
307.303170
 20
215.282471
 30
0.0
 11
307.339915
 21
215.248548
 31
0.0
  0
LINE
  5
283
100
AcDbEntity
  8
0
 62
7
100
AcDbLine
 10
307.268203
 20
215.318189
 30
0.0
 11
307.303170
 21
215.282471
 31
0.0
  0
LINE
  5
284
100
AcDbEntity
  8
0
 62
7
100
AcDbLine
 10
307.235042
 20
215.355609
 30
0.0
 11
307.268203
 21
215.318189
 31
0.0
  0
LINE
  5
285
100
AcDbEntity
  8
0
 62
7
100
AcDbLine
 10
307.203800
 20
215.394643
 30
0.0
 11
307.235042
 21
215.355609
 31
0.0
  0
LINE
  5
286
100
AcDbEntity
  8
0
 62
7
100
AcDbLine
 10
307.174561
 20
215.435187
 30
0.0
 11
307.203800
 21
215.394643
 31
0.0
  0
LINE
  5
287
100
AcDbEntity
  8
0
 62
7
100
AcDbLine
 10
307.147355
 20
215.477142
 30
0.0
 11
307.174448
 21
215.435187
 31
0.0
  0
LINE
  5
288
100
AcDbEntity
  8
0
 62
7
100
AcDbLine
 10
307.122181
 20
215.520401
 30
0.0
 11
307.147299
 21
215.477142
 31
0.0
  0
LINE
  5
289
100
AcDbEntity
  8
0
 62
7
100
AcDbLine
 10
307.099377
 20
215.564862
 30
0.0
 11
307.122237
 21
215.520401
 31
0.0
  0
LINE
  5
28a
100
AcDbEntity
  8
0
 62
7
100
AcDbLine
 10
307.078775
 20
215.610410
 30
0.0
 11
307.099377
 21
215.564862
 31
0.0
  0
LINE
  5
28b
100
AcDbEntity
  8
0
 62
7
100
AcDbLine
 10
307.060459
 20
215.656929
 30
0.0
 11
307.078803
 21
215.610410
 31
0.0
  0
LINE
  5
28c
100
AcDbEntity
  8
0
 62
7
100
AcDbLine
 10
307.044513
 20
215.704308
 30
0.0
 11
307.060600
 21
215.656929
 31
0.0
  0
LINE
  5
28d
100
AcDbEntity
  8
0
 62
7
100
AcDbLine
 10
307.031051
 20
215.752425
 30
0.0
 11
307.044598
 21
215.704308
 31
0.0
  0
LINE
  5
28e
100
AcDbEntity
  8
0
 62
7
100
AcDbLine
 10
307.019762
 20
215.801159
 30
0.0
 11
307.031051
 21
215.752425
 31
0.0
  0
LINE
  5
28f
100
AcDbEntity
  8
0
 62
7
100
AcDbLine
 10
307.011296
 20
215.850389
 30
0.0
 11
307.020045
 21
215.801159
 31
0.0
  0
LINE
  5
290
100
AcDbEntity
  8
0
 62
7
100
AcDbLine
 10
307.005087
 20
215.899996
 30
0.0
 11
307.011296
 21
215.850389
 31
0.0
  0
LINE
  5
291
100
AcDbEntity
  8
0
 62
7
100
AcDbLine
 10
307.001418
 20
215.949850
 30
0.0
 11
307.005087
 21
215.899996
 31
0.0
  0
LINE
  5
292
100
AcDbEntity
  8
0
 62
7
100
AcDbLine
 10
307.000007
 20
215.999829
 30
0.0
 11
307.000007
 21
215.949850
 31
0.0
  0
LINE
  5
293
100
AcDbEntity
  8
0
 62
7
100
AcDbLine
 10
307.000007
 20
218.999829
 30
0.0
 11
307.000007
 21
215.999829
 31
0.0
  0
LINE
  5
294
100
AcDbEntity
  8
0
 62
7
100
AcDbLine
 10
307.000204
 20
219.020623
 30
0.0
 11
307.000007
 21
218.999823
 31
0.0
  0
LINE
  5
295
100
AcDbEntity
  8
0
 62
7
100
AcDbLine
 10
307.002829
 20
219.070559
 30
0.0
 11
307.000007
 21
219.020617
 31
0.0
  0
LINE
  5
296
100
AcDbEntity
  8
0
 62
7
100
AcDbLine
 10
307.007062
 20
219.120326
 30
0.0
 11
307.002265
 21
219.070559
 31
0.0
  0
LINE
  5
297
100
AcDbEntity
  8
0
 62
7
100
AcDbLine
 10
307.014400
 20
219.169788
 30
0.0
 11
307.007062
 21
219.120326
 31
0.0
  0
LINE
  5
298
100
AcDbEntity
  8
0
 62
7
100
AcDbLine
 10
307.023996
 20
219.218830
 30
0.0
 11
307.014400
 21
219.169788
 31
0.0
  0
LINE
  5
299
100
AcDbEntity
  8
0
 62
7
100
AcDbLine
 10
307.036414
 20
219.267322
 30
0.0
 11
307.024278
 21
219.218830
 31
0.0
  0
LINE
  5
29a
100
AcDbEntity
  8
0
 62
7
100
AcDbLine
 10
307.051089
 20
219.315144
 30
0.0
 11
307.036414
 21
219.267322
 31
0.0
  0
LINE
  5
29b
100
AcDbEntity
  8
0
 62
7
100
AcDbLine
 10
307.067938
 20
219.362179
 30
0.0
 11
307.051004
 21
219.315144
 31
0.0
  0
LINE
  5
29c
100
AcDbEntity
  8
0
 62
7
100
AcDbLine
 10
307.087242
 20
219.408309
 30
0.0
 11
307.068051
 21
219.362179
 31
0.0
  0
LINE
  5
29d
100
AcDbEntity
  8
0
 62
7
100
AcDbLine
 10
307.108888
 20
219.453419
 30
0.0
 11
307.087439
 21
219.408309
 31
0.0
  0
LINE
  5
29e
100
AcDbEntity
  8
0
 62
7
100
AcDbLine
 10
307.132764
 20
219.497392
 30
0.0
 11
307.109058
 21
219.453419
 31
0.0
  0
LINE
  5
29f
100
AcDbEntity
  8
0
 62
7
100
AcDbLine
 10
307.158785
 20
219.540123
 30
0.0
 11
307.132821
 21
219.497392
 31
0.0
  0
LINE
  5
2a0
100
AcDbEntity
  8
0
 62
7
100
AcDbLine
 10
307.186838
 20
219.581506
 30
0.0
 11
307.158898
 21
219.540123
 31
0.0
  0
LINE
  5
2a1
100
AcDbEntity
  8
0
 62
7
100
AcDbLine
 10
307.217036
 20
219.621432
 30
0.0
 11
307.186951
 21
219.581506
 31
0.0
  0
LINE
  5
2a2
100
AcDbEntity
  8
0
 62
7
100
AcDbLine
 10
307.249096
 20
219.659805
 30
0.0
 11
307.217036
 21
219.621432
 31
0.0
  0
LINE
  5
2a3
100
AcDbEntity
  8
0
 62
7
100
AcDbLine
 10
307.283019
 20
219.696528
 30
0.0
 11
307.249096
 21
219.659805
 31
0.0
  0
LINE
  5
2a4
100
AcDbEntity
  8
0
 62
7
100
AcDbLine
 10
307.318720
 20
219.731512
 30
0.0
 11
307.283019
 21
219.696528
 31
0.0
  0
LINE
  5
2a5
100
AcDbEntity
  8
0
 62
7
100
AcDbLine
 10
307.356143
 20
219.764665
 30
0.0
 11
307.318720
 21
219.731512
 31
0.0
  0
LINE
  5
2a6
100
AcDbEntity
  8
0
 62
7
100
AcDbLine
 10
307.395174
 20
219.795907
 30
0.0
 11
307.356143
 21
219.764665
 31
0.0
  0
LINE
  5
2a7
100
AcDbEntity
  8
0
 62
7
100
AcDbLine
 10
307.435730
 20
219.825159
 30
0.0
 11
307.395174
 21
219.795907
 31
0.0
  0
LINE
  5
2a8
100
AcDbEntity
  8
0
 62
7
100
AcDbLine
 10
307.477668
 20
219.852349
 30
0.0
 11
307.435730
 21
219.825171
 31
0.0
  0
LINE
  5
2a9
100
AcDbEntity
  8
0
 62
7
100
AcDbLine
 10
307.520933
 20
219.877416
 30
0.0
 11
307.477668
 21
219.852354
 31
0.0
  0
LINE
  5
2aa
100
AcDbEntity
  8
0
 62
7
100
AcDbLine
 10
307.565411
 20
219.900276
 30
0.0
 11
307.520933
 21
219.877416
 31
0.0
  0
LINE
  5
2ab
100
AcDbEntity
  8
0
 62
7
100
AcDbLine
 10
307.610962
 20
219.920895
 30
0.0
 11
307.565411
 21
219.900292
 31
0.0
  0
LINE
  5
2ac
100
AcDbEntity
  8
0
 62
7
100
AcDbLine
 10
307.657472
 20
219.939217
 30
0.0
 11
307.610962
 21
219.920900
 31
0.0
  0
LINE
  5
2ad
100
AcDbEntity
  8
0
 62
7
100
AcDbLine
 10
307.704857
 20
219.955176
 30
0.0
 11
307.657472
 21
219.939202
 31
0.0
  0
LINE
  5
2ae
100
AcDbEntity
  8
0
 62
7
100
AcDbLine
 10
307.752976
 20
219.968743
 30
0.0
 11
307.704857
 21
219.955168
 31
0.0
  0
LINE
  5
2af
100
AcDbEntity
  8
0
 62
7
100
AcDbLine
 10
307.801687
 20
219.979890
 30
0.0
 11
307.752976
 21
219.968743
 31
0.0
  0
LINE
  5
2b0
100
AcDbEntity
  8
0
 62
7
100
AcDbLine
 10
307.850935
 20
219.988611
 30
0.0
 11
307.801687
 21
219.979919
 31
0.0
  0
LINE
  5
2b1
100
AcDbEntity
  8
0
 62
7
100
AcDbLine
 10
307.900522
 20
219.994848
 30
0.0
 11
307.850935
 21
219.988611
 31
0.0
  0
LINE
  5
2b2
100
AcDbEntity
  8
0
 62
7
100
AcDbLine
 10
307.950390
 20
219.998602
 30
0.0
 11
307.900522
 21
219.994848
 31
0.0
  0
LINE
  5
2b3
100
AcDbEntity
  8
0
 62
7
100
AcDbLine
 10
308.000372
 20
219.999844
 30
0.0
 11
307.950390
 21
219.998715
 31
0.0
  0
LINE
  5
2b4
100
AcDbEntity
  8
0
 62
7
100
AcDbLine
 10
310.000368
 20
219.999844
 30
0.0
 11
308.000372
 21
219.999844
 31
0.0
  0
LINE
  5
2b5
100
AcDbEntity
  8
0
 62
7
100
AcDbLine
 10
310.000368
 20
229.999846
 30
0.0
 11
310.000368
 21
219.999844
 31
0.0
  0
LINE
  5
2b6
100
AcDbEntity
  8
0
 62
7
100
AcDbLine
 10
308.000372
 20
229.999846
 30
0.0
 11
310.000368
 21
229.999846
 31
0.0
  0
LINE
  5
2b7
100
AcDbEntity
  8
0
 62
7
100
AcDbLine
 10
307.979572
 20
230.000061
 30
0.0
 11
308.000456
 21
229.999846
 31
0.0
  0
LINE
  5
2b8
100
AcDbEntity
  8
0
 62
7
100
AcDbLine
 10
307.929703
 20
230.002386
 30
0.0
 11
307.979657
 21
230.000128
 31
0.0
  0
LINE
  5
2b9
100
AcDbEntity
  8
0
 62
7
100
AcDbLine
 10
307.879948
 20
230.007212
 30
0.0
 11
307.929703
 21
230.002443
 31
0.0
  0
LINE
  5
2ba
100
AcDbEntity
  8
0
 62
7
100
AcDbLine
 10
307.830474
 20
230.014493
 30
0.0
 11
307.879948
 21
230.007240
 31
0.0
  0
LINE
  5
2bb
100
AcDbEntity
  8
0
 62
7
100
AcDbLine
 10
307.781452
 20
230.024230
 30
0.0
 11
307.830474
 21
230.014493
 31
0.0
  0
LINE
  5
2bc
100
AcDbEntity
  8
0
 62
7
100
AcDbLine
 10
307.732966
 20
230.036394
 30
0.0
 11
307.781452
 21
230.024230
 31
0.0
  0
LINE
  5
2bd
100
AcDbEntity
  8
0
 62
7
100
AcDbLine
 10
307.685130
 20
230.050957
 30
0.0
 11
307.732966
 21
230.036394
 31
0.0
  0
LINE
  5
2be
100
AcDbEntity
  8
0
 62
7
100
AcDbLine
 10
307.638083
 20
230.067912
 30
0.0
 11
307.685130
 21
230.050979
 31
0.0
  0
LINE
  5
2bf
100
AcDbEntity
  8
0
 62
7
100
AcDbLine
 10
307.591968
 20
230.087200
 30
0.0
 11
307.638083
 21
230.067924
 31
0.0
  0
LINE
  5
2c0
100
AcDbEntity
  8
0
 62
7
100
AcDbLine
 10
307.546869
 20
230.108756
 30
0.0
 11
307.591968
 21
230.087194
 31
0.0
  0
LINE
  5
2c1
100
AcDbEntity
  8
0
 62
7
100
AcDbLine
 10
307.502870
 20
230.132536
 30
0.0
 11
307.546869
 21
230.108744
 31
0.0
  0
LINE
  5
2c2
100
AcDbEntity
  8
0
 62
7
100
AcDbLine
 10
307.460142
 20
230.158480
 30
0.0
 11
307.502870
 21
230.132516
 31
0.0
  0
LINE
  5
2c3
100
AcDbEntity
  8
0
 62
7
100
AcDbLine
 10
307.418768
 20
230.186522
 30
0.0
 11
307.460142
 21
230.158469
 31
0.0
  0
LINE
  5
2c4
100
AcDbEntity
  8
0
 62
7
100
AcDbLine
 10
307.378834
 20
230.216613
 30
0.0
 11
307.418768
 21
230.186525
 31
0.0
  0
LINE
  5
2c5
100
AcDbEntity
  8
0
 62
7
100
AcDbLine
 10
307.340480
 20
230.248662
 30
0.0
 11
307.378834
 21
230.216613
 31
0.0
  0
LINE
  5
2c6
100
AcDbEntity
  8
0
 62
7
100
AcDbLine
 10
307.303734
 20
230.282585
 30
0.0
 11
307.340480
 21
230.248662
 31
0.0
  0
LINE
  5
2c7
100
AcDbEntity
  8
0
 62
7
100
AcDbLine
 10
307.268767
 20
230.318303
 30
0.0
 11
307.303734
 21
230.282585
 31
0.0
  0
LINE
  5
2c8
100
AcDbEntity
  8
0
 62
7
100
AcDbLine
 10
307.235606
 20
230.355723
 30
0.0
 11
307.268767
 21
230.318303
 31
0.0
  0
LINE
  5
2c9
100
AcDbEntity
  8
0
 62
7
100
AcDbLine
 10
307.204364
 20
230.394754
 30
0.0
 11
307.235606
 21
230.355723
 31
0.0
  0
LINE
  5
2ca
100
AcDbEntity
  8
0
 62
7
100
AcDbLine
 10
307.175126
 20
230.435298
 30
0.0
 11
307.204364
 21
230.394754
 31
0.0
  0
LINE
  5
2cb
100
AcDbEntity
  8
0
 62
7
100
AcDbLine
 10
307.147920
 20
230.477253
 30
0.0
 11
307.175013
 21
230.435298
 31
0.0
  0
LINE
  5
2cc
100
AcDbEntity
  8
0
 62
7
100
AcDbLine
 10
307.122745
 20
230.520515
 30
0.0
 11
307.147863
 21
230.477253
 31
0.0
  0
LINE
  5
2cd
100
AcDbEntity
  8
0
 62
7
100
AcDbLine
 10
307.099942
 20
230.564974
 30
0.0
 11
307.122802
 21
230.520515
 31
0.0
  0
LINE
  5
2ce
100
AcDbEntity
  8
0
 62
7
100
AcDbLine
 10
307.079340
 20
230.610524
 30
0.0
 11
307.099942
 21
230.564974
 31
0.0
  0
LINE
  5
2cf
100
AcDbEntity
  8
0
 62
7
100
AcDbLine
 10
307.061023
 20
230.657043
 30
0.0
 11
307.079368
 21
230.610524
 31
0.0
  0
LINE
  5
2d0
100
AcDbEntity
  8
0
 62
7
100
AcDbLine
 10
307.045078
 20
230.704420
 30
0.0
 11
307.061164
 21
230.657043
 31
0.0
  0
LINE
  5
2d1
100
AcDbEntity
  8
0
 62
7
100
AcDbLine
 10
307.031616
 20
230.752536
 30
0.0
 11
307.045162
 21
230.704420
 31
0.0
  0
LINE
  5
2d2
100
AcDbEntity
  8
0
 62
7
100
AcDbLine
 10
307.020327
 20
230.801273
 30
0.0
 11
307.031616
 21
230.752536
 31
0.0
  0
LINE
  5
2d3
100
AcDbEntity
  8
0
 62
7
100
AcDbLine
 10
307.011860
 20
230.850503
 30
0.0
 11
307.020609
 21
230.801273
 31
0.0
  0
LINE
  5
2d4
100
AcDbEntity
  8
0
 62
7
100
AcDbLine
 10
307.005651
 20
230.900107
 30
0.0
 11
307.011860
 21
230.850503
 31
0.0
  0
LINE
  5
2d5
100
AcDbEntity
  8
0
 62
7
100
AcDbLine
 10
307.001982
 20
230.949961
 30
0.0
 11
307.005651
 21
230.900107
 31
0.0
  0
LINE
  5
2d6
100
AcDbEntity
  8
0
 62
7
100
AcDbLine
 10
307.000571
 20
230.999940
 30
0.0
 11
307.000571
 21
230.949961
 31
0.0
  0
LINE
  5
2d7
100
AcDbEntity
  8
0
 62
7
100
AcDbLine
 10
307.000571
 20
233.999940
 30
0.0
 11
307.000571
 21
230.999940
 31
0.0
  0
LINE
  5
2d8
100
AcDbEntity
  8
0
 62
7
100
AcDbLine
 10
307.000769
 20
234.020737
 30
0.0
 11
307.000571
 21
233.999937
 31
0.0
  0
LINE
  5
2d9
100
AcDbEntity
  8
0
 62
7
100
AcDbLine
 10
307.003394
 20
234.070676
 30
0.0
 11
307.000571
 21
234.020734
 31
0.0
  0
LINE
  5
2da
100
AcDbEntity
  8
0
 62
7
100
AcDbLine
 10
307.007627
 20
234.120440
 30
0.0
 11
307.002829
 21
234.070676
 31
0.0
  0
LINE
  5
2db
100
AcDbEntity
  8
0
 62
7
100
AcDbLine
 10
307.014965
 20
234.169905
 30
0.0
 11
307.007627
 21
234.120440
 31
0.0
  0
LINE
  5
2dc
100
AcDbEntity
  8
0
 62
7
100
AcDbLine
 10
307.024560
 20
234.218944
 30
0.0
 11
307.014965
 21
234.169905
 31
0.0
  0
LINE
  5
2dd
100
AcDbEntity
  8
0
 62
7
100
AcDbLine
 10
307.036978
 20
234.267438
 30
0.0
 11
307.024842
 21
234.218944
 31
0.0
  0
LINE
  5
2de
100
AcDbEntity
  8
0
 62
7
100
AcDbLine
 10
307.051654
 20
234.315261
 30
0.0
 11
307.036978
 21
234.267438
 31
0.0
  0
LINE
  5
2df
100
AcDbEntity
  8
0
 62
7
100
AcDbLine
 10
307.068502
 20
234.362296
 30
0.0
 11
307.051569
 21
234.315261
 31
0.0
  0
LINE
  5
2e0
100
AcDbEntity
  8
0
 62
7
100
AcDbLine
 10
307.087806
 20
234.408425
 30
0.0
 11
307.068615
 21
234.362296
 31
0.0
  0
LINE
  5
2e1
100
AcDbEntity
  8
0
 62
7
100
AcDbLine
 10
307.109453
 20
234.453533
 30
0.0
 11
307.088004
 21
234.408425
 31
0.0
  0
LINE
  5
2e2
100
AcDbEntity
  8
0
 62
7
100
AcDbLine
 10
307.133329
 20
234.497509
 30
0.0
 11
307.109622
 21
234.453533
 31
0.0
  0
LINE
  5
2e3
100
AcDbEntity
  8
0
 62
7
100
AcDbLine
 10
307.159350
 20
234.540240
 30
0.0
 11
307.133385
 21
234.497509
 31
0.0
  0
LINE
  5
2e4
100
AcDbEntity
  8
0
 62
7
100
AcDbLine
 10
307.187402
 20
234.581622
 30
0.0
 11
307.159462
 21
234.540240
 31
0.0
  0
LINE
  5
2e5
100
AcDbEntity
  8
0
 62
7
100
AcDbLine
 10
307.217600
 20
234.621548
 30
0.0
 11
307.187515
 21
234.581622
 31
0.0
  0
LINE
  5
2e6
100
AcDbEntity
  8
0
 62
7
100
AcDbLine
 10
307.249661
 20
234.659922
 30
0.0
 11
307.217600
 21
234.621548
 31
0.0
  0
LINE
  5
2e7
100
AcDbEntity
  8
0
 62
7
100
AcDbLine
 10
307.283584
 20
234.696645
 30
0.0
 11
307.249661
 21
234.659922
 31
0.0
  0
LINE
  5
2e8
100
AcDbEntity
  8
0
 62
7
100
AcDbLine
 10
307.319285
 20
234.731626
 30
0.0
 11
307.283584
 21
234.696645
 31
0.0
  0
LINE
  5
2e9
100
AcDbEntity
  8
0
 62
7
100
AcDbLine
 10
307.356708
 20
234.764779
 30
0.0
 11
307.319285
 21
234.731626
 31
0.0
  0
LINE
  5
2ea
100
AcDbEntity
  8
0
 62
7
100
AcDbLine
 10
307.395739
 20
234.796021
 30
0.0
 11
307.356708
 21
234.764779
 31
0.0
  0
LINE
  5
2eb
100
AcDbEntity
  8
0
 62
7
100
AcDbLine
 10
307.436294
 20
234.825273
 30
0.0
 11
307.395739
 21
234.796021
 31
0.0
  0
LINE
  5
2ec
100
AcDbEntity
  8
0
 62
7
100
AcDbLine
 10
307.478232
 20
234.852463
 30
0.0
 11
307.436294
 21
234.825285
 31
0.0
  0
LINE
  5
2ed
100
AcDbEntity
  8
0
 62
7
100
AcDbLine
 10
307.521497
 20
234.877532
 30
0.0
 11
307.478232
 21
234.852471
 31
0.0
  0
LINE
  5
2ee
100
AcDbEntity
  8
0
 62
7
100
AcDbLine
 10
307.565975
 20
234.900392
 30
0.0
 11
307.521497
 21
234.877532
 31
0.0
  0
LINE
  5
2ef
100
AcDbEntity
  8
0
 62
7
100
AcDbLine
 10
307.611526
 20
234.921011
 30
0.0
 11
307.565975
 21
234.900409
 31
0.0
  0
LINE
  5
2f0
100
AcDbEntity
  8
0
 62
7
100
AcDbLine
 10
307.658036
 20
234.939336
 30
0.0
 11
307.611526
 21
234.921020
 31
0.0
  0
LINE
  5
2f1
100
AcDbEntity
  8
0
 62
7
100
AcDbLine
 10
307.705421
 20
234.955293
 30
0.0
 11
307.658036
 21
234.939319
 31
0.0
  0
LINE
  5
2f2
100
AcDbEntity
  8
0
 62
7
100
AcDbLine
 10
307.753540
 20
234.968859
 30
0.0
 11
307.705421
 21
234.955285
 31
0.0
  0
LINE
  5
2f3
100
AcDbEntity
  8
0
 62
7
100
AcDbLine
 10
307.802252
 20
234.980007
 30
0.0
 11
307.753540
 21
234.968859
 31
0.0
  0
LINE
  5
2f4
100
AcDbEntity
  8
0
 62
7
100
AcDbLine
 10
307.851500
 20
234.988728
 30
0.0
 11
307.802252
 21
234.980035
 31
0.0
  0
LINE
  5
2f5
100
AcDbEntity
  8
0
 62
7
100
AcDbLine
 10
307.901086
 20
234.994965
 30
0.0
 11
307.851500
 21
234.988728
 31
0.0
  0
LINE
  5
2f6
100
AcDbEntity
  8
0
 62
7
100
AcDbLine
 10
307.950955
 20
234.998719
 30
0.0
 11
307.901086
 21
234.994965
 31
0.0
  0
LINE
  5
2f7
100
AcDbEntity
  8
0
 62
7
100
AcDbLine
 10
308.000936
 20
234.999960
 30
0.0
 11
307.950955
 21
234.998831
 31
0.0
  0
LINE
  5
2f8
100
AcDbEntity
  8
0
 62
7
100
AcDbLine
 10
310.000932
 20
234.999960
 30
0.0
 11
308.000936
 21
234.999960
 31
0.0
  0
LINE
  5
2f9
100
AcDbEntity
  8
0
 62
7
100
AcDbLine
 10
310.000932
 20
244.999960
 30
0.0
 11
310.000932
 21
234.999960
 31
0.0
  0
LINE
  5
2fa
100
AcDbEntity
  8
0
 62
7
100
AcDbLine
 10
308.000936
 20
244.999960
 30
0.0
 11
310.000932
 21
244.999960
 31
0.0
  0
LINE
  5
2fb
100
AcDbEntity
  8
0
 62
7
100
AcDbLine
 10
307.980136
 20
245.000177
 30
0.0
 11
308.001021
 21
244.999960
 31
0.0
  0
LINE
  5
2fc
100
AcDbEntity
  8
0
 62
7
100
AcDbLine
 10
307.930268
 20
245.002500
 30
0.0
 11
307.980221
 21
245.000242
 31
0.0
  0
LINE
  5
2fd
100
AcDbEntity
  8
0
 62
7
100
AcDbLine
 10
307.880512
 20
245.007326
 30
0.0
 11
307.930268
 21
245.002557
 31
0.0
  0
LINE
  5
2fe
100
AcDbEntity
  8
0
 62
7
100
AcDbLine
 10
307.831038
 20
245.014607
 30
0.0
 11
307.880512
 21
245.007354
 31
0.0
  0
LINE
  5
2ff
100
AcDbEntity
  8
0
 62
7
100
AcDbLine
 10
307.782016
 20
245.024344
 30
0.0
 11
307.831038
 21
245.014607
 31
0.0
  0
LINE
  5
300
100
AcDbEntity
  8
0
 62
7
100
AcDbLine
 10
307.733531
 20
245.036508
 30
0.0
 11
307.782016
 21
245.024344
 31
0.0
  0
LINE
  5
301
100
AcDbEntity
  8
0
 62
7
100
AcDbLine
 10
307.685694
 20
245.051071
 30
0.0
 11
307.733531
 21
245.036508
 31
0.0
  0
LINE
  5
302
100
AcDbEntity
  8
0
 62
7
100
AcDbLine
 10
307.638648
 20
245.068026
 30
0.0
 11
307.685694
 21
245.051065
 31
0.0
  0
LINE
  5
303
100
AcDbEntity
  8
0
 62
7
100
AcDbLine
 10
307.592532
 20
245.087288
 30
0.0
 11
307.638648
 21
245.068012
 31
0.0
  0
LINE
  5
304
100
AcDbEntity
  8
0
 62
7
100
AcDbLine
 10
307.547433
 20
245.108844
 30
0.0
 11
307.592532
 21
245.087282
 31
0.0
  0
LINE
  5
305
100
AcDbEntity
  8
0
 62
7
100
AcDbLine
 10
307.503435
 20
245.132621
 30
0.0
 11
307.547433
 21
245.108830
 31
0.0
  0
LINE
  5
306
100
AcDbEntity
  8
0
 62
7
100
AcDbLine
 10
307.460706
 20
245.158566
 30
0.0
 11
307.503435
 21
245.132602
 31
0.0
  0
LINE
  5
307
100
AcDbEntity
  8
0
 62
7
100
AcDbLine
 10
307.419333
 20
245.186611
 30
0.0
 11
307.460706
 21
245.158558
 31
0.0
  0
LINE
  5
308
100
AcDbEntity
  8
0
 62
7
100
AcDbLine
 10
307.379398
 20
245.216701
 30
0.0
 11
307.419333
 21
245.186613
 31
0.0
  0
LINE
  5
309
100
AcDbEntity
  8
0
 62
7
100
AcDbLine
 10
307.341044
 20
245.248747
 30
0.0
 11
307.379398
 21
245.216701
 31
0.0
  0
LINE
  5
30a
100
AcDbEntity
  8
0
 62
7
100
AcDbLine
 10
307.304299
 20
245.282673
 30
0.0
 11
307.341044
 21
245.248747
 31
0.0
  0
LINE
  5
30b
100
AcDbEntity
  8
0
 62
7
100
AcDbLine
 10
307.269332
 20
245.318389
 30
0.0
 11
307.304299
 21
245.282673
 31
0.0
  0
LINE
  5
30c
100
AcDbEntity
  8
0
 62
7
100
AcDbLine
 10
307.236170
 20
245.355811
 30
0.0
 11
307.269332
 21
245.318389
 31
0.0
  0
LINE
  5
30d
100
AcDbEntity
  8
0
 62
7
100
AcDbLine
 10
307.204928
 20
245.394843
 30
0.0
 11
307.236170
 21
245.355811
 31
0.0
  0
LINE
  5
30e
100
AcDbEntity
  8
0
 62
7
100
AcDbLine
 10
307.175690
 20
245.435387
 30
0.0
 11
307.204928
 21
245.394843
 31
0.0
  0
LINE
  5
30f
100
AcDbEntity
  8
0
 62
7
100
AcDbLine
 10
307.148484
 20
245.477342
 30
0.0
 11
307.175577
 21
245.435387
 31
0.0
  0
LINE
  5
310
100
AcDbEntity
  8
0
 62
7
100
AcDbLine
 10
307.123310
 20
245.520604
 30
0.0
 11
307.148428
 21
245.477342
 31
0.0
  0
LINE
  5
311
100
AcDbEntity
  8
0
 62
7
100
AcDbLine
 10
307.100506
 20
245.565062
 30
0.0
 11
307.123366
 21
245.520604
 31
0.0
  0
LINE
  5
312
100
AcDbEntity
  8
0
 62
7
100
AcDbLine
 10
307.079904
 20
245.610610
 30
0.0
 11
307.100506
 21
245.565062
 31
0.0
  0
LINE
  5
313
100
AcDbEntity
  8
0
 62
7
100
AcDbLine
 10
307.061588
 20
245.657131
 30
0.0
 11
307.079932
 21
245.610610
 31
0.0
  0
LINE
  5
314
100
AcDbEntity
  8
0
 62
7
100
AcDbLine
 10
307.045642
 20
245.704508
 30
0.0
 11
307.061729
 21
245.657131
 31
0.0
  0
LINE
  5
315
100
AcDbEntity
  8
0
 62
7
100
AcDbLine
 10
307.032180
 20
245.752624
 30
0.0
 11
307.045727
 21
245.704508
 31
0.0
  0
LINE
  5
316
100
AcDbEntity
  8
0
 62
7
100
AcDbLine
 10
307.020891
 20
245.801358
 30
0.0
 11
307.032180
 21
245.752624
 31
0.0
  0
LINE
  5
317
100
AcDbEntity
  8
0
 62
7
100
AcDbLine
 10
307.012425
 20
245.850589
 30
0.0
 11
307.021174
 21
245.801358
 31
0.0
  0
LINE
  5
318
100
AcDbEntity
  8
0
 62
7
100
AcDbLine
 10
307.006216
 20
245.900195
 30
0.0
 11
307.012425
 21
245.850589
 31
0.0
  0
LINE
  5
319
100
AcDbEntity
  8
0
 62
7
100
AcDbLine
 10
307.002547
 20
245.950050
 30
0.0
 11
307.006216
 21
245.900195
 31
0.0
  0
LINE
  5
31a
100
AcDbEntity
  8
0
 62
7
100
AcDbLine
 10
307.001136
 20
246.000029
 30
0.0
 11
307.001136
 21
245.950050
 31
0.0
  0
LINE
  5
31b
100
AcDbEntity
  8
0
 62
7
100
AcDbLine
 10
307.001136
 20
249.000028
 30
0.0
 11
307.001136
 21
246.000029
 31
0.0
  0
ENDSEC
  0
SECTION
  2
OBJECTS
  0
DICTIONARY
  5
C
330
0
100
AcDbDictionary
  3
ACAD_GROUP
350
D
  3
ACAD_MLINESTYLE
350
17
  0
DICTIONARY
  5
D
330
C
100
AcDbDictionary
  0
DICTIONARY
  5
1A
330
C
100
AcDbDictionary
  0
DICTIONARY
  5
17
330
C
100
AcDbDictionary
  3
STANDARD
350
18
  0
DICTIONARY
  5
19
330
C
100
AcDbDictionary
  0
ENDSEC
  0
EOF
