  0
SECTION
  2
HEADER
  9
$ACADVER
  1
AC1014
  9
$ACADMAINTVER
 70
     9
  9
$DWGCODEPAGE
  3
ANSI_1252
  9
$INSBASE
 10
0.0
 20
0.0
 30
0.0
  9
$EXTMIN
 10
-36.0
 20
0.0
 30
0.0
  9
$EXTMAX
 10
0.0
 20
50.0
 30
0.0
  9
$LIMMIN
 10
0.0
 20
0.0
  9
$LIMMAX
 10
12.0
 20
9.0
  9
$ORTHOMODE
 70
     0
  9
$REGENMODE
 70
     1
  9
$FILLMODE
 70
     1
  9
$QTEXTMODE
 70
     0
  9
$MIRRTEXT
 70
     1
  9
$DRAGMODE
 70
     2
  9
$LTSCALE
 40
1.0
  9
$OSMODE
 70
   511
  9
$ATTMODE
 70
     1
  9
$TEXTSIZE
 40
1.0
  9
$TRACEWID
 40
0.05
  9
$TEXTSTYLE
  7
STANDARD
  9
$CLAYER
  8
0
  9
$CELTYPE
  6
BYBLOCK
  9
$CECOLOR
 62
   256
  9
$CELTSCALE
 40
1.0
  9
$DELOBJ
 70
     1
  9
$DISPSILH
 70
     0
  9
$DIMSCALE
 40
1.0
  9
$DIMASZ
 40
0.18
  9
$DIMEXO
 40
0.0625
  9
$DIMDLI
 40
0.38
  9
$DIMRND
 40
0.0
  9
$DIMDLE
 40
0.0
  9
$DIMEXE
 40
0.18
  9
$DIMTP
 40
0.0
  9
$DIMTM
 40
0.0
  9
$DIMTXT
 40
0.18
  9
$DIMCEN
 40
0.09
  9
$DIMTSZ
 40
0.0
  9
$DIMTOL
 70
     0
  9
$DIMLIM
 70
     0
  9
$DIMTIH
 70
     1
  9
$DIMTOH
 70
     1
  9
$DIMSE1
 70
     0
  9
$DIMSE2
 70
     0
  9
$DIMTAD
 70
     0
  9
$DIMZIN
 70
     0
  9
$DIMBLK
  1

  9
$DIMASO
 70
     1
  9
$DIMSHO
 70
     1
  9
$DIMPOST
  1

  9
$DIMAPOST
  1

  9
$DIMALT
 70
     0
  9
$DIMALTD
 70
     2
  9
$DIMALTF
 40
25.4
  9
$DIMLFAC
 40
1.0
  9
$DIMTOFL
 70
     0
  9
$DIMTVP
 40
0.0
  9
$DIMTIX
 70
     0
  9
$DIMSOXD
 70
     0
  9
$DIMSAH
 70
     0
  9
$DIMBLK1
  1

  9
$DIMBLK2
  1

  9
$DIMSTYLE
  2
STANDARD
  9
$DIMCLRD
 70
     0
  9
$DIMCLRE
 70
     0
  9
$DIMCLRT
 70
     0
  9
$DIMTFAC
 40
1.0
  9
$DIMGAP
 40
0.09
  9
$DIMJUST
 70
     0
  9
$DIMSD1
 70
     0
  9
$DIMSD2
 70
     0
  9
$DIMTOLJ
 70
     1
  9
$DIMTZIN
 70
     0
  9
$DIMALTZ
 70
     0
  9
$DIMALTTZ
 70
     0
  9
$DIMFIT
 70
     5
  9
$DIMUPT
 70
     0
  9
$DIMUNIT
 70
     2
  9
$DIMDEC
 70
     4
  9
$DIMTDEC
 70
     4
  9
$DIMALTU
 70
     2
  9
$DIMALTTD
 70
     2
  9
$DIMTXSTY
  7
STANDARD
  9
$DIMAUNIT
 70
     0
  9
$LUNITS
 70
     2
  9
$LUPREC
 70
     4
  9
$SKETCHINC
 40
0.1
  9
$FILLETRAD
 40
0.5
  9
$AUNITS
 70
     0
  9
$AUPREC
 70
     0
  9
$MENU
  1
.
  9
$ELEVATION
 40
0.0
  9
$PELEVATION
 40
0.0
  9
$THICKNESS
 40
0.0
  9
$LIMCHECK
 70
     0
  9
$CHAMFERA
 40
0.0
  9
$CHAMFERB
 40
0.0
  9
$CHAMFERC
 40
0.0
  9
$CHAMFERD
 40
0.0
  9
$SKPOLY
 70
     0
  9
$TDCREATE
 40
2458100.582443206
  9
$TDUPDATE
 40
2458100.583336354
  9
$TDINDWG
 40
0.0000001505
  9
$TDUSRTIMER
 40
2458100.583192095
  9
$USRTIMER
 70
     1
  9
$ANGBASE
 50
0.0
  9
$ANGDIR
 70
     0
  9
$PDMODE
 70
     0
  9
$PDSIZE
 40
0.0
  9
$PLINEWID
 40
0.0
  9
$COORDS
 70
     1
  9
$SPLFRAME
 70
     0
  9
$SPLINETYPE
 70
     6
  9
$SPLINESEGS
 70
     8
  9
$ATTDIA
 70
     0
  9
$ATTREQ
 70
     1
  9
$HANDLING
 70
     1
  9
$HANDSEED
  5
10DE
  9
$SURFTAB1
 70
     6
  9
$SURFTAB2
 70
     6
  9
$SURFTYPE
 70
     6
  9
$SURFU
 70
     6
  9
$SURFV
 70
     6
  9
$UCSNAME
  2

  9
$UCSORG
 10
0.0
 20
0.0
 30
0.0
  9
$UCSXDIR
 10
1.0
 20
0.0
 30
0.0
  9
$UCSYDIR
 10
0.0
 20
1.0
 30
0.0
  9
$PUCSNAME
  2

  9
$PUCSORG
 10
0.0
 20
0.0
 30
0.0
  9
$PUCSXDIR
 10
1.0
 20
0.0
 30
0.0
  9
$PUCSYDIR
 10
0.0
 20
1.0
 30
0.0
  9
$USERI1
 70
     0
  9
$USERI2
 70
     0
  9
$USERI3
 70
     0
  9
$USERI4
 70
     0
  9
$USERI5
 70
     0
  9
$USERR1
 40
0.0
  9
$USERR2
 40
0.0
  9
$USERR3
 40
0.0
  9
$USERR4
 40
0.0
  9
$USERR5
 40
0.0
  9
$WORLDVIEW
 70
     1
  9
$SHADEDGE
 70
     3
  9
$SHADEDIF
 70
    70
  9
$TILEMODE
 70
     1
  9
$MAXACTVP
 70
    64
  9
$PINSBASE
 10
0.0
 20
0.0
 30
0.0
  9
$PLIMCHECK
 70
     0
  9
$PEXTMIN
 10
1.000000000000000E+20
 20
1.000000000000000E+20
 30
1.000000000000000E+20
  9
$PEXTMAX
 10
-1.000000000000000E+20
 20
-1.000000000000000E+20
 30
-1.000000000000000E+20
  9
$PLIMMIN
 10
0.0
 20
0.0
  9
$PLIMMAX
 10
0.0
 20
0.0
  9
$UNITMODE
 70
     0
  9
$VISRETAIN
 70
     1
  9
$PLINEGEN
 70
     0
  9
$PSLTSCALE
 70
     1
  9
$TREEDEPTH
 70
  3020
  9
$PICKSTYLE
 70
     1
  9
$CMLSTYLE
  2
STANDARD
  9
$CMLJUST
 70
     0
  9
$CMLSCALE
 40
1.0
  9
$PROXYGRAPHICS
 70
     1
  9
$MEASUREMENT
 70
     0
  0
ENDSEC
  0
SECTION
  2
CLASSES
  0
CLASS
  1
ACDBDICTIONARYWDFLT
  2
AcDbDictionaryWithDefault
  3
ObjectDBX Classes
 90
        0
280
     0
281
     0
  0
CLASS
  1
MATERIAL
  2
AcDbMaterial
  3
ObjectDBX Classes
 90
     1153
280
     0
281
     0
  0
CLASS
  1
SCALE
  2
AcDbScale
  3
ObjectDBX Classes
 90
     1153
280
     0
281
     0
  0
CLASS
  1
VISUALSTYLE
  2
AcDbVisualStyle
  3
ObjectDBX Classes
 90
     4095
280
     0
281
     0
  0
CLASS
  1
TABLESTYLE
  2
AcDbTableStyle
  3
ObjectDBX Classes
 90
     4095
280
     0
281
     0
  0
CLASS
  1
MLEADERSTYLE
  2
AcDbMLeaderStyle
  3
ACDB_MLEADERSTYLE_CLASS
 90
     4095
280
     0
281
     0
  0
CLASS
  1
SUN
  2
AcDbSun
  3
SCENEOE
 90
     1153
280
     0
281
     0
  0
CLASS
  1
RASTERVARIABLES
  2
AcDbRasterVariables
  3
ISM
 90
        0
280
     0
281
     0
  0
CLASS
  1
XRECORD
  2
AcDbXrecord
  3
ObjectDBX Classes
 90
        0
280
     0
281
     0
  0
CLASS
  1
LWPOLYLINE
  2
AcDbPolyline
  3
ObjectDBX Classes
 90
        0
280
     0
281
     1
  0
CLASS
  1
HATCH
  2
AcDbHatch
  3
ObjectDBX Classes
 90
        0
280
     0
281
     1
  0
ENDSEC
  0
SECTION
  2
TABLES
  0
TABLE
  2
VPORT
  5
8
330
0
100
AcDbSymbolTable
 70
     1
  0
VPORT
  5
28
330
8
100
AcDbSymbolTableRecord
100
AcDbViewportTableRecord
  2
*ACTIVE
 70
     0
 10
0.0
 20
0.0
 11
1.0
 21
1.0
 12
-42.22453100695061
 22
40.95008639481532
 13
0.0
 23
0.0
 14
0.5
 24
0.5
 15
0.5
 25
0.5
 16
0.0
 26
0.0
 36
1.0
 17
0.0
 27
0.0
 37
0.0
 40
87.99365149190164
 41
1.503496503496503
 42
50.0
 43
0.0
 44
0.0
 50
0.0
 51
0.0
 71
    16
 72
   100
 73
     1
 74
     3
 75
     0
 76
     0
 77
     0
 78
     0
  0
ENDTAB
  0
TABLE
  2
LTYPE
  5
5
330
0
100
AcDbSymbolTable
 70
     1
  0
LTYPE
  5
14
330
5
100
AcDbSymbolTableRecord
100
AcDbLinetypeTableRecord
  2
BYBLOCK
 70
     0
  3

 72
    65
 73
     0
 40
0.0
  0
LTYPE
  5
15
330
5
100
AcDbSymbolTableRecord
100
AcDbLinetypeTableRecord
  2
BYLAYER
 70
     0
  3

 72
    65
 73
     0
 40
0.0
  0
LTYPE
  5
16
330
5
100
AcDbSymbolTableRecord
100
AcDbLinetypeTableRecord
  2
CONTINUOUS
 70
     0
  3
Solid line
 72
    65
 73
     0
 40
0.0
  0
ENDTAB
  0
TABLE
  2
LAYER
  5
2
330
0
100
AcDbSymbolTable
 70
     1
  0
LAYER
  5
10
330
2
100
AcDbSymbolTableRecord
100
AcDbLayerTableRecord
  2
0
 70
     0
 62
     7
  6
CONTINUOUS
  0
ENDTAB
  0
TABLE
  2
STYLE
  5
3
330
0
100
AcDbSymbolTable
 70
     1
  0
STYLE
  5
11
330
3
100
AcDbSymbolTableRecord
100
AcDbTextStyleTableRecord
  2
STANDARD
 70
     0
 40
0.0
 41
1.0
 50
0.0
 71
     0
 42
1.0
  3
ARIAL.TTF
  4

  0
ENDTAB
  0
TABLE
  2
VIEW
  5
6
330
0
100
AcDbSymbolTable
 70
     0
  0
ENDTAB
  0
TABLE
  2
UCS
  5
7
330
0
100
AcDbSymbolTable
 70
     0
  0
ENDTAB
  0
TABLE
  2
APPID
  5
9
330
0
100
AcDbSymbolTable
 70
     1
  0
APPID
  5
12
330
9
100
AcDbSymbolTableRecord
100
AcDbRegAppTableRecord
  2
ACAD
 70
     0
  0
ENDTAB
  0
TABLE
  2
DIMSTYLE
  5
A
330
0
100
AcDbSymbolTable
 70
     1
  0
DIMSTYLE
105
27
330
A
100
AcDbSymbolTableRecord
100
AcDbDimStyleTableRecord
  2
STANDARD
 70
     0
  3

  4

  5

  6

  7

 40
1.0
 41
0.18
 42
0.0625
 43
0.38
 44
0.18
 45
0.0
 46
0.0
 47
0.0
 48
0.0
140
0.18
141
0.09
142
0.0
143
25.4
144
1.0
145
0.0
146
1.0
147
0.09
 71
     0
 72
     0
 73
     1
 74
     1
 75
     0
 76
     0
 77
     0
 78
     0
170
     0
171
     2
172
     0
173
     0
174
     0
175
     0
176
     0
177
     0
178
     0
270
     2
271
     4
272
     4
273
     2
274
     2
340
11
275
     0
280
     0
281
     0
282
     0
283
     1
284
     0
285
     0
286
     0
287
     3
288
     0
  0
ENDTAB
  0
TABLE
  2
BLOCK_RECORD
  5
1
330
0
100
AcDbSymbolTable
 70
     1
  0
BLOCK_RECORD
  5
1D
330
1
100
AcDbSymbolTableRecord
100
AcDbBlockTableRecord
  2
*MODEL_SPACE
  0
BLOCK_RECORD
  5
1B
330
1
100
AcDbSymbolTableRecord
100
AcDbBlockTableRecord
  2
*PAPER_SPACE
  0
BLOCK_RECORD
  5
2A
330
1
100
AcDbSymbolTableRecord
100
AcDbBlockTableRecord
  2
FUSION031
  0
ENDTAB
  0
ENDSEC
  0
SECTION
  2
BLOCKS
  0
BLOCK
  5
10B9
330
1D
100
AcDbEntity
  8
0
100
AcDbBlockBegin
  2
*MODEL_SPACE
 70
     0
 10
0.0
 20
0.0
 30
0.0
  3
*MODEL_SPACE
  1

  0
ENDBLK
  5
10BA
330
1D
100
AcDbEntity
  8
0
100
AcDbBlockEnd
  0
BLOCK
  5
10BB
330
1B
100
AcDbEntity
 67
     1
  8
0
100
AcDbBlockBegin
  2
*PAPER_SPACE
 70
     0
 10
0.0
 20
0.0
 30
0.0
  3
*PAPER_SPACE
  1

  0
ENDBLK
  5
10BC
330
1B
100
AcDbEntity
 67
     1
  8
0
100
AcDbBlockEnd
  0
BLOCK
  5
29
330
2A
100
AcDbEntity
  8
0
100
AcDbBlockBegin
  2
FUSION031
 70
     0
 10
0.0
 20
0.0
 30
0.0
  3
FUSION031
  1

  0
LWPOLYLINE
  5
2B
330
2A
100
AcDbEntity
  8
0
 62
     0
100
AcDbPolyline
 90
      189
 70
     1
 43
0.0
 10
-23.9999998212
 20
11.5
 10
-24.0499905624
 20
11.4991667438
 10
-24.0999257636
 20
11.4966679011
 10
-24.1497499462
 20
11.4925062479
 10
-24.1994077551
 20
11.4866864081
 10
-24.2488440202
 20
11.4792148473
 10
-24.2980038174
 20
11.4700998668
 10
-24.3468325296
 20
11.4593515931
 10
-24.3952759079
 20
11.4469819678
 10
-24.4432801312
 20
11.4330047337
 10
-24.4907918664
 20
11.4174354195
 10
-24.5377583276
 20
11.4002913228
 10
-24.5841273346
 20
11.381591491
 10
-24.6298473712
 20
11.3613566997
 10
-24.674867642
 20
11.3396094298
 10
-24.7191381291
 20
11.3163738428
 10
-24.7626096476
 20
11.2916757537
 10
-24.8052339003
 20
11.2655426022
 10
-24.8469635313
 20
11.2380034224
 10
-24.8877521786
 20
11.2090888106
 10
-24.9275545258
 20
11.1788308912
 10
-24.966326352
 20
11.1472632809
 10
-25.0040245816
 20
11.1144210517
 10
-25.0406073313
 20
11.0803406916
 10
-25.0760339575
 20
11.045060064
 10
-25.110265101
 20
11.0086183661
 10
-25.1432627306
 20
10.9710560849
 10
-25.1749901856
 20
10.9324149524
 10
-25.2054122167
 20
10.8927378992
 10
-25.2344950247
 20
10.8520690068
 10
-25.2622062984
 20
10.8104534588
 10
-25.2885152503
 20
10.7679374903
 10
-25.3133926509
 20
10.7245683369
 10
-25.3368108613
 20
10.6803941821
 10
-25.3587438636
 20
10.6354641038
 10
-25.3791672901
 20
10.5898280197
 10
-25.3980584501
 20
10.5435366317
 10
-25.4153963556
 20
10.4966413701
 10
-25.4311617438
 20
10.4491943358
 10
-25.4453370993
 20
10.4012482429
 10
-25.4579066732
 20
10.35285636
 10
-25.4688565006
 20
10.3040724507
 10
-25.4781744162
 20
10.2549507144
 10
-25.4858500676
 20
10.2055457257
 10
-25.4918749271
 20
10.1559123741
 10
-25.4962423011
 20
10.1061058025
 10
-25.4989473374
 20
10.0561813465
 10
-25.4999870306
 20
10.0061944726
 10
-25.4993602257
 20
9.95620071655
 10
-25.4970676191
 20
9.90625562188
 10
-25.4931117578
 20
9.85641467798
 10
-25.4874970369
 20
9.80673325856
 10
-25.4802296943
 20
9.75726656008
 10
-25.4713178041
 20
9.70806954045
 10
-25.4607712675
 20
9.65919685796
 10
-25.4486018018
 20
9.61070281057
 10
-25.4348229274
 20
9.56264127557
 10
-25.4194499527
 20
9.5150656497
 10
-25.4024999572
 20
9.4680287899
 10
-25.3839917726
 20
9.42158295449
 10
-25.3639459614
 20
9.37577974518
 10
-25.3423847949
 20
9.33067004971
 10
-25.3193322276
 20
9.28630398533
 10
-25.2948138712
 20
9.2427308431
 10
-25.2688569656
 20
9.19999903314
 10
-25.2414903494
 20
9.15815603084
 10
-25.2127444269
 20
9.11724832412
 10
-25.1826511352
 20
9.07732136178
 10
-25.1512439082
 20
9.038419503
 10
-25.1185576395
 20
9.00058596808
 10
-25.0846286438
 20
8.96386279038
 10
-25.0494946166
 20
8.92829076964
 10
-25.013194592
 20
8.89390942669
 10
-24.9757688997
 20
8.86075695947
 10
-24.9372591199
 20
8.82887020065
 10
-24.8977080373
 20
8.79828457668
 10
-24.8571595935
 20
8.76903406844
 10
-24.8156588382
 20
8.74115117349
 10
-24.7732518789
 20
8.71466686995
 10
-24.7299858303
 20
8.6896105821
 10
-24.6859087611
 20
8.66601014768
 10
-24.6410696415
 20
8.64389178697
 10
-24.5955182881
 20
8.62328007366
 10
-24.5493053087
 20
8.60419790752
 10
-24.5024820464
 20
8.586666489
 10
-24.4551005222
 20
8.57070529564
 10
-24.4072133774
 20
8.55633206048
 10
-24.358873815
 20
8.54356275228
 10
-24.3101355406
 20
8.53241155785
 10
-24.2610527029
 20
8.52289086627
 10
-24.2116798333
 20
8.5150112551
 10
-24.1620717854
 20
8.50878147865
 10
-24.1122836743
 20
8.50420845826
 10
-24.0623708148
 20
8.50129727459
 10
-24.0123886607
 20
8.50005116199
 10
-23.9623927425
 20
8.50047150489
 10
-23.912438606
 20
8.50255783631
 10
-23.8625817508
 20
8.5063078383
 10
-23.8128775682
 20
8.51171734457
 10
-23.76338128
 20
8.51878034514
 10
-23.7141478769
 20
8.52748899293
 10
-23.6652320576
 20
8.53783361258
 10
-23.6166881681
 20
8.54980271113
 10
-23.5685701411
 20
8.56338299081
 10
-23.5209314359
 20
8.57855936381
 10
-23.4738249797
 20
8.59531496906
 10
-23.427303108
 20
8.61363119095
 10
-23.3814175071
 20
8.63348768001
 10
-23.3362191562
 20
8.6548623755
 10
-23.2917582712
 20
8.67773152997
 10
-23.2480842483
 20
8.7020697356
 10
-23.2052456098
 20
8.72784995243
 10
-23.1632899498
 20
8.75504353845
 10
-23.1222638814
 20
8.78362028135
 10
-23.0822129848
 20
8.81354843213
 10
-23.0431817569
 20
8.84479474037
 10
-23.0052135618
 20
8.87732449117
 10
-22.9683505824
 20
8.9111015437
 10
-22.9326337738
 20
8.94608837138
 10
-22.8981028177
 20
8.98224610356
 10
-22.8647960782
 20
9.0195345687
 10
-22.8327505595
 20
9.05791233901
 10
-22.8020018642
 20
9.09733677647
 10
-22.7725841546
 20
9.1377640802
 10
-22.7445301139
 20
9.17914933514
 10
-22.7178709103
 20
9.22144656192
 10
-22.6926361626
 20
9.26460876799
 10
-22.6688539066
 20
9.30858799977
 10
-22.6465505647
 20
9.35333539597
 10
-22.6257509161
 20
9.39880124188
 10
-22.6064780693
 20
9.44493502456
 10
-22.5887534366
 20
9.49168548899
 10
-22.5725967104
 20
9.53900069503
 10
-22.5580258407
 20
9.5868280751
 10
-22.545057016
 20
9.63511449257
 10
-22.5337046447
 20
9.68380630085
 10
-22.5239813394
 20
9.73284940294
 10
-22.5158979029
 20
9.78218931153
 10
-22.5094633157
 20
9.8317712096
 10
-22.5046847269
 20
9.88154001123
 10
-22.5015674455
 20
9.93144042289
 10
-22.5001149348
 20
9.98141700481
 10
-22.5003288086
 20
10.0314142326
 10
-22.5022088292
 20
10.0813765589
 10
-22.5057529079
 20
10.1312484752
 10
-22.5109571073
 20
10.1809745733
 10
-22.5178156454
 20
10.2304996072
 10
-22.5263209022
 20
10.2797685541
 10
-22.5364634286
 20
10.3287266759
 10
-22.5482319558
 20
10.3773195796
 10
-22.5616134092
 20
10.4254932782
 10
-22.5765929217
 20
10.4731942502
 10
-22.593153851
 20
10.5203694995
 10
-22.6112777977
 20
10.5669666141
 10
-22.630944626
 20
10.612933824
 10
-22.652132486
 20
10.6582200594
 10
-22.6748178376
 20
10.702775007
 10
-22.6989754773
 20
10.7465491656
 10
-22.7245785658
 20
10.7894939021
 10
-22.7515986579
 20
10.8315615043
 10
-22.7800057338
 20
10.8727052348
 10
-22.8097682333
 20
10.9128793826
 10
-22.8408530899
 20
10.9520393139
 10
-22.873225768
 20
10.9901415217
 10
-22.9068503013
 20
11.0271436741
 10
-22.9416893328
 20
11.0630046614
 10
-22.977704156
 20
11.0976846418
 10
-23.014854758
 20
11.1311450856
 10
-23.0530998644
 20
11.1633488178
 10
-23.0923969844
 20
11.1942600599
 10
-23.1327024586
 20
11.2238444692
 10
-23.1739715073
 20
11.2520691773
 10
-23.2161582803
 20
11.2789028261
 10
-23.2592159077
 20
11.3043156035
 10
-23.3030965521
 20
11.3282792754
 10
-23.3477514617
 20
11.3507672181
 10
-23.3931310247
 20
11.3717544474
 10
-23.4391848239
 20
11.3912176461
 10
-23.4858616932
 20
11.4091351906
 10
-23.5331097742
 20
11.4254871743
 10
-23.5808765739
 20
11.44025543
 10
-23.6291090229
 20
11.45342355
 10
-23.6777535347
 20
11.4649769045
 10
-23.7267560648
 20
11.4749026577
 10
-23.7760621709
 20
11.4831897818
 10
-23.8256170736
 20
11.4898290698
 10
-23.875365717
 20
11.4948131455
 10
-23.9252528298
 20
11.4981364715
 10
-23.9752229872
 20
11.4997953555
  0
LWPOLYLINE
  5
EA
330
2A
100
AcDbEntity
  8
0
 62
     0
100
AcDbPolyline
 90
      189
 70
     1
 43
0.0
 10
-11.9999998212
 20
11.5
 10
-12.0499905624
 20
11.4991667438
 10
-12.0999257636
 20
11.4966679011
 10
-12.1497499462
 20
11.4925062479
 10
-12.1994077551
 20
11.4866864081
 10
-12.2488440202
 20
11.4792148473
 10
-12.2980038174
 20
11.4700998668
 10
-12.3468325296
 20
11.4593515931
 10
-12.3952759079
 20
11.4469819678
 10
-12.4432801312
 20
11.4330047337
 10
-12.4907918664
 20
11.4174354195
 10
-12.5377583276
 20
11.4002913228
 10
-12.5841273346
 20
11.381591491
 10
-12.6298473712
 20
11.3613566997
 10
-12.674867642
 20
11.3396094298
 10
-12.7191381291
 20
11.3163738428
 10
-12.7626096476
 20
11.2916757537
 10
-12.8052339003
 20
11.2655426022
 10
-12.8469635313
 20
11.2380034224
 10
-12.8877521786
 20
11.2090888106
 10
-12.9275545258
 20
11.1788308912
 10
-12.966326352
 20
11.1472632809
 10
-13.0040245816
 20
11.1144210517
 10
-13.0406073313
 20
11.0803406916
 10
-13.0760339575
 20
11.045060064
 10
-13.110265101
 20
11.0086183661
 10
-13.1432627306
 20
10.9710560849
 10
-13.1749901856
 20
10.9324149524
 10
-13.2054122167
 20
10.8927378992
 10
-13.2344950247
 20
10.8520690068
 10
-13.2622062984
 20
10.8104534588
 10
-13.2885152503
 20
10.7679374903
 10
-13.3133926509
 20
10.7245683369
 10
-13.3368108613
 20
10.6803941821
 10
-13.3587438636
 20
10.6354641038
 10
-13.3791672901
 20
10.5898280197
 10
-13.3980584501
 20
10.5435366317
 10
-13.4153963556
 20
10.4966413701
 10
-13.4311617438
 20
10.4491943358
 10
-13.4453370993
 20
10.4012482429
 10
-13.4579066732
 20
10.35285636
 10
-13.4688565006
 20
10.3040724507
 10
-13.4781744162
 20
10.2549507144
 10
-13.4858500676
 20
10.2055457257
 10
-13.4918749271
 20
10.1559123741
 10
-13.4962423011
 20
10.1061058025
 10
-13.4989473374
 20
10.0561813465
 10
-13.4999870306
 20
10.0061944726
 10
-13.4993602257
 20
9.95620071655
 10
-13.4970676191
 20
9.90625562188
 10
-13.4931117578
 20
9.85641467798
 10
-13.4874970369
 20
9.80673325856
 10
-13.4802296943
 20
9.75726656008
 10
-13.4713178041
 20
9.70806954045
 10
-13.4607712675
 20
9.65919685796
 10
-13.4486018018
 20
9.61070281057
 10
-13.4348229274
 20
9.56264127557
 10
-13.4194499527
 20
9.5150656497
 10
-13.4024999572
 20
9.4680287899
 10
-13.3839917726
 20
9.42158295449
 10
-13.3639459614
 20
9.37577974518
 10
-13.3423847949
 20
9.33067004971
 10
-13.3193322276
 20
9.28630398533
 10
-13.2948138712
 20
9.2427308431
 10
-13.2688569656
 20
9.19999903314
 10
-13.2414903494
 20
9.15815603084
 10
-13.2127444269
 20
9.11724832412
 10
-13.1826511352
 20
9.07732136178
 10
-13.1512439082
 20
9.038419503
 10
-13.1185576395
 20
9.00058596808
 10
-13.0846286438
 20
8.96386279038
 10
-13.0494946166
 20
8.92829076964
 10
-13.013194592
 20
8.89390942669
 10
-12.9757688997
 20
8.86075695947
 10
-12.9372591199
 20
8.82887020065
 10
-12.8977080373
 20
8.79828457668
 10
-12.8571595935
 20
8.76903406844
 10
-12.8156588382
 20
8.74115117349
 10
-12.7732518789
 20
8.71466686995
 10
-12.7299858303
 20
8.6896105821
 10
-12.6859087611
 20
8.66601014768
 10
-12.6410696415
 20
8.64389178697
 10
-12.5955182881
 20
8.62328007366
 10
-12.5493053087
 20
8.60419790752
 10
-12.5024820464
 20
8.586666489
 10
-12.4551005222
 20
8.57070529564
 10
-12.4072133774
 20
8.55633206048
 10
-12.358873815
 20
8.54356275228
 10
-12.3101355406
 20
8.53241155785
 10
-12.2610527029
 20
8.52289086627
 10
-12.2116798333
 20
8.5150112551
 10
-12.1620717854
 20
8.50878147865
 10
-12.1122836743
 20
8.50420845826
 10
-12.0623708148
 20
8.50129727459
 10
-12.0123886607
 20
8.50005116199
 10
-11.9623927425
 20
8.50047150489
 10
-11.912438606
 20
8.50255783631
 10
-11.8625817508
 20
8.5063078383
 10
-11.8128775682
 20
8.51171734457
 10
-11.76338128
 20
8.51878034514
 10
-11.7141478769
 20
8.52748899293
 10
-11.6652320576
 20
8.53783361258
 10
-11.6166881681
 20
8.54980271113
 10
-11.5685701411
 20
8.56338299081
 10
-11.5209314359
 20
8.57855936381
 10
-11.4738249797
 20
8.59531496906
 10
-11.427303108
 20
8.61363119095
 10
-11.3814175071
 20
8.63348768001
 10
-11.3362191562
 20
8.6548623755
 10
-11.2917582712
 20
8.67773152997
 10
-11.2480842483
 20
8.7020697356
 10
-11.2052456098
 20
8.72784995243
 10
-11.1632899498
 20
8.75504353845
 10
-11.1222638814
 20
8.78362028135
 10
-11.0822129848
 20
8.81354843213
 10
-11.0431817569
 20
8.84479474037
 10
-11.0052135618
 20
8.87732449117
 10
-10.9683505824
 20
8.9111015437
 10
-10.9326337738
 20
8.94608837138
 10
-10.8981028177
 20
8.98224610356
 10
-10.8647960782
 20
9.0195345687
 10
-10.8327505595
 20
9.05791233901
 10
-10.8020018642
 20
9.09733677647
 10
-10.7725841546
 20
9.1377640802
 10
-10.7445301139
 20
9.17914933514
 10
-10.7178709103
 20
9.22144656192
 10
-10.6926361626
 20
9.26460876799
 10
-10.6688539066
 20
9.30858799977
 10
-10.6465505647
 20
9.35333539597
 10
-10.6257509161
 20
9.39880124188
 10
-10.6064780693
 20
9.44493502456
 10
-10.5887534366
 20
9.49168548899
 10
-10.5725967104
 20
9.53900069503
 10
-10.5580258407
 20
9.5868280751
 10
-10.545057016
 20
9.63511449257
 10
-10.5337046447
 20
9.68380630085
 10
-10.5239813394
 20
9.73284940294
 10
-10.5158979029
 20
9.78218931153
 10
-10.5094633157
 20
9.8317712096
 10
-10.5046847269
 20
9.88154001123
 10
-10.5015674455
 20
9.93144042289
 10
-10.5001149348
 20
9.98141700481
 10
-10.5003288086
 20
10.0314142326
 10
-10.5022088292
 20
10.0813765589
 10
-10.5057529079
 20
10.1312484752
 10
-10.5109571073
 20
10.1809745733
 10
-10.5178156454
 20
10.2304996072
 10
-10.5263209022
 20
10.2797685541
 10
-10.5364634286
 20
10.3287266759
 10
-10.5482319558
 20
10.3773195796
 10
-10.5616134092
 20
10.4254932782
 10
-10.5765929217
 20
10.4731942502
 10
-10.593153851
 20
10.5203694995
 10
-10.6112777977
 20
10.5669666141
 10
-10.630944626
 20
10.612933824
 10
-10.652132486
 20
10.6582200594
 10
-10.6748178376
 20
10.702775007
 10
-10.6989754773
 20
10.7465491656
 10
-10.7245785658
 20
10.7894939021
 10
-10.7515986579
 20
10.8315615043
 10
-10.7800057338
 20
10.8727052348
 10
-10.8097682333
 20
10.9128793826
 10
-10.8408530899
 20
10.9520393139
 10
-10.873225768
 20
10.9901415217
 10
-10.9068503013
 20
11.0271436741
 10
-10.9416893328
 20
11.0630046614
 10
-10.977704156
 20
11.0976846418
 10
-11.014854758
 20
11.1311450856
 10
-11.0530998644
 20
11.1633488178
 10
-11.0923969844
 20
11.1942600599
 10
-11.1327024586
 20
11.2238444692
 10
-11.1739715073
 20
11.2520691773
 10
-11.2161582803
 20
11.2789028261
 10
-11.2592159077
 20
11.3043156035
 10
-11.3030965521
 20
11.3282792754
 10
-11.3477514617
 20
11.3507672181
 10
-11.3931310247
 20
11.3717544474
 10
-11.4391848239
 20
11.3912176461
 10
-11.4858616932
 20
11.4091351906
 10
-11.5331097742
 20
11.4254871743
 10
-11.5808765739
 20
11.44025543
 10
-11.6291090229
 20
11.45342355
 10
-11.6777535347
 20
11.4649769045
 10
-11.7267560648
 20
11.4749026577
 10
-11.7760621709
 20
11.4831897818
 10
-11.8256170736
 20
11.4898290698
 10
-11.875365717
 20
11.4948131455
 10
-11.9252528298
 20
11.4981364715
 10
-11.9752229872
 20
11.4997953555
  0
LWPOLYLINE
  5
1A9
330
2A
100
AcDbEntity
  8
0
 62
     0
100
AcDbPolyline
 90
      189
 70
     1
 43
0.0
 10
-23.9999998212
 20
26.5
 10
-24.0499905624
 20
26.4991667438
 10
-24.0999257636
 20
26.4966679011
 10
-24.1497499462
 20
26.4925062479
 10
-24.1994077551
 20
26.4866864081
 10
-24.2488440202
 20
26.4792148473
 10
-24.2980038174
 20
26.4700998668
 10
-24.3468325296
 20
26.4593515931
 10
-24.3952759079
 20
26.4469819678
 10
-24.4432801312
 20
26.4330047337
 10
-24.4907918664
 20
26.4174354195
 10
-24.5377583276
 20
26.4002913228
 10
-24.5841273346
 20
26.381591491
 10
-24.6298473712
 20
26.3613566997
 10
-24.674867642
 20
26.3396094298
 10
-24.7191381291
 20
26.3163738428
 10
-24.7626096476
 20
26.2916757537
 10
-24.8052339003
 20
26.2655426022
 10
-24.8469635313
 20
26.2380034224
 10
-24.8877521786
 20
26.2090888106
 10
-24.9275545258
 20
26.1788308912
 10
-24.966326352
 20
26.1472632809
 10
-25.0040245816
 20
26.1144210517
 10
-25.0406073313
 20
26.0803406916
 10
-25.0760339575
 20
26.045060064
 10
-25.110265101
 20
26.0086183661
 10
-25.1432627306
 20
25.9710560849
 10
-25.1749901856
 20
25.9324149524
 10
-25.2054122167
 20
25.8927378992
 10
-25.2344950247
 20
25.8520690068
 10
-25.2622062984
 20
25.8104534588
 10
-25.2885152503
 20
25.7679374903
 10
-25.3133926509
 20
25.7245683369
 10
-25.3368108613
 20
25.6803941821
 10
-25.3587438636
 20
25.6354641038
 10
-25.3791672901
 20
25.5898280197
 10
-25.3980584501
 20
25.5435366317
 10
-25.4153963556
 20
25.4966413701
 10
-25.4311617438
 20
25.4491943358
 10
-25.4453370993
 20
25.4012482429
 10
-25.4579066732
 20
25.35285636
 10
-25.4688565006
 20
25.3040724507
 10
-25.4781744162
 20
25.2549507144
 10
-25.4858500676
 20
25.2055457257
 10
-25.4918749271
 20
25.1559123741
 10
-25.4962423011
 20
25.1061058025
 10
-25.4989473374
 20
25.0561813465
 10
-25.4999870306
 20
25.0061944726
 10
-25.4993602257
 20
24.9562007165
 10
-25.4970676191
 20
24.9062556219
 10
-25.4931117578
 20
24.856414678
 10
-25.4874970369
 20
24.8067332586
 10
-25.4802296943
 20
24.7572665601
 10
-25.4713178041
 20
24.7080695404
 10
-25.4607712675
 20
24.659196858
 10
-25.4486018018
 20
24.6107028106
 10
-25.4348229274
 20
24.5626412756
 10
-25.4194499527
 20
24.5150656497
 10
-25.4024999572
 20
24.4680287899
 10
-25.3839917726
 20
24.4215829545
 10
-25.3639459614
 20
24.3757797452
 10
-25.3423847949
 20
24.3306700497
 10
-25.3193322276
 20
24.2863039853
 10
-25.2948138712
 20
24.2427308431
 10
-25.2688569656
 20
24.1999990331
 10
-25.2414903494
 20
24.1581560308
 10
-25.2127444269
 20
24.1172483241
 10
-25.1826511352
 20
24.0773213618
 10
-25.1512439082
 20
24.038419503
 10
-25.1185576395
 20
24.0005859681
 10
-25.0846286438
 20
23.9638627904
 10
-25.0494946166
 20
23.9282907696
 10
-25.013194592
 20
23.8939094267
 10
-24.9757688997
 20
23.8607569595
 10
-24.9372591199
 20
23.8288702006
 10
-24.8977080373
 20
23.7982845767
 10
-24.8571595935
 20
23.7690340684
 10
-24.8156588382
 20
23.7411511735
 10
-24.7732518789
 20
23.7146668699
 10
-24.7299858303
 20
23.6896105821
 10
-24.6859087611
 20
23.6660101477
 10
-24.6410696415
 20
23.643891787
 10
-24.5955182881
 20
23.6232800737
 10
-24.5493053087
 20
23.6041979075
 10
-24.5024820464
 20
23.586666489
 10
-24.4551005222
 20
23.5707052956
 10
-24.4072133774
 20
23.5563320605
 10
-24.358873815
 20
23.5435627523
 10
-24.3101355406
 20
23.5324115579
 10
-24.2610527029
 20
23.5228908663
 10
-24.2116798333
 20
23.5150112551
 10
-24.1620717854
 20
23.5087814787
 10
-24.1122836743
 20
23.5042084583
 10
-24.0623708148
 20
23.5012972746
 10
-24.0123886607
 20
23.500051162
 10
-23.9623927425
 20
23.5004715049
 10
-23.912438606
 20
23.5025578363
 10
-23.8625817508
 20
23.5063078383
 10
-23.8128775682
 20
23.5117173446
 10
-23.76338128
 20
23.5187803451
 10
-23.7141478769
 20
23.5274889929
 10
-23.6652320576
 20
23.5378336126
 10
-23.6166881681
 20
23.5498027111
 10
-23.5685701411
 20
23.5633829908
 10
-23.5209314359
 20
23.5785593638
 10
-23.4738249797
 20
23.5953149691
 10
-23.427303108
 20
23.613631191
 10
-23.3814175071
 20
23.63348768
 10
-23.3362191562
 20
23.6548623755
 10
-23.2917582712
 20
23.67773153
 10
-23.2480842483
 20
23.7020697356
 10
-23.2052456098
 20
23.7278499524
 10
-23.1632899498
 20
23.7550435385
 10
-23.1222638814
 20
23.7836202813
 10
-23.0822129848
 20
23.8135484321
 10
-23.0431817569
 20
23.8447947404
 10
-23.0052135618
 20
23.8773244912
 10
-22.9683505824
 20
23.9111015437
 10
-22.9326337738
 20
23.9460883714
 10
-22.8981028177
 20
23.9822461036
 10
-22.8647960782
 20
24.0195345687
 10
-22.8327505595
 20
24.057912339
 10
-22.8020018642
 20
24.0973367765
 10
-22.7725841546
 20
24.1377640802
 10
-22.7445301139
 20
24.1791493351
 10
-22.7178709103
 20
24.2214465619
 10
-22.6926361626
 20
24.264608768
 10
-22.6688539066
 20
24.3085879998
 10
-22.6465505647
 20
24.353335396
 10
-22.6257509161
 20
24.3988012419
 10
-22.6064780693
 20
24.4449350246
 10
-22.5887534366
 20
24.491685489
 10
-22.5725967104
 20
24.539000695
 10
-22.5580258407
 20
24.5868280751
 10
-22.545057016
 20
24.6351144926
 10
-22.5337046447
 20
24.6838063009
 10
-22.5239813394
 20
24.7328494029
 10
-22.5158979029
 20
24.7821893115
 10
-22.5094633157
 20
24.8317712096
 10
-22.5046847269
 20
24.8815400112
 10
-22.5015674455
 20
24.9314404229
 10
-22.5001149348
 20
24.9814170048
 10
-22.5003288086
 20
25.0314142326
 10
-22.5022088292
 20
25.0813765589
 10
-22.5057529079
 20
25.1312484752
 10
-22.5109571073
 20
25.1809745733
 10
-22.5178156454
 20
25.2304996072
 10
-22.5263209022
 20
25.2797685541
 10
-22.5364634286
 20
25.3287266759
 10
-22.5482319558
 20
25.3773195796
 10
-22.5616134092
 20
25.4254932782
 10
-22.5765929217
 20
25.4731942502
 10
-22.593153851
 20
25.5203694995
 10
-22.6112777977
 20
25.5669666141
 10
-22.630944626
 20
25.612933824
 10
-22.652132486
 20
25.6582200594
 10
-22.6748178376
 20
25.702775007
 10
-22.6989754773
 20
25.7465491656
 10
-22.7245785658
 20
25.7894939021
 10
-22.7515986579
 20
25.8315615043
 10
-22.7800057338
 20
25.8727052348
 10
-22.8097682333
 20
25.9128793826
 10
-22.8408530899
 20
25.9520393139
 10
-22.873225768
 20
25.9901415217
 10
-22.9068503013
 20
26.0271436741
 10
-22.9416893328
 20
26.0630046614
 10
-22.977704156
 20
26.0976846418
 10
-23.014854758
 20
26.1311450856
 10
-23.0530998644
 20
26.1633488178
 10
-23.0923969844
 20
26.1942600599
 10
-23.1327024586
 20
26.2238444692
 10
-23.1739715073
 20
26.2520691773
 10
-23.2161582803
 20
26.2789028261
 10
-23.2592159077
 20
26.3043156035
 10
-23.3030965521
 20
26.3282792754
 10
-23.3477514617
 20
26.3507672181
 10
-23.3931310247
 20
26.3717544474
 10
-23.4391848239
 20
26.3912176461
 10
-23.4858616932
 20
26.4091351906
 10
-23.5331097742
 20
26.4254871743
 10
-23.5808765739
 20
26.44025543
 10
-23.6291090229
 20
26.45342355
 10
-23.6777535347
 20
26.4649769045
 10
-23.7267560648
 20
26.4749026577
 10
-23.7760621709
 20
26.4831897818
 10
-23.8256170736
 20
26.4898290698
 10
-23.875365717
 20
26.4948131455
 10
-23.9252528298
 20
26.4981364715
 10
-23.9752229872
 20
26.4997953555
  0
LWPOLYLINE
  5
268
330
2A
100
AcDbEntity
  8
0
 62
     0
100
AcDbPolyline
 90
      189
 70
     1
 43
0.0
 10
-11.9999998212
 20
26.5
 10
-12.0499905624
 20
26.4991667438
 10
-12.0999257636
 20
26.4966679011
 10
-12.1497499462
 20
26.4925062479
 10
-12.1994077551
 20
26.4866864081
 10
-12.2488440202
 20
26.4792148473
 10
-12.2980038174
 20
26.4700998668
 10
-12.3468325296
 20
26.4593515931
 10
-12.3952759079
 20
26.4469819678
 10
-12.4432801312
 20
26.4330047337
 10
-12.4907918664
 20
26.4174354195
 10
-12.5377583276
 20
26.4002913228
 10
-12.5841273346
 20
26.381591491
 10
-12.6298473712
 20
26.3613566997
 10
-12.674867642
 20
26.3396094298
 10
-12.7191381291
 20
26.3163738428
 10
-12.7626096476
 20
26.2916757537
 10
-12.8052339003
 20
26.2655426022
 10
-12.8469635313
 20
26.2380034224
 10
-12.8877521786
 20
26.2090888106
 10
-12.9275545258
 20
26.1788308912
 10
-12.966326352
 20
26.1472632809
 10
-13.0040245816
 20
26.1144210517
 10
-13.0406073313
 20
26.0803406916
 10
-13.0760339575
 20
26.045060064
 10
-13.110265101
 20
26.0086183661
 10
-13.1432627306
 20
25.9710560849
 10
-13.1749901856
 20
25.9324149524
 10
-13.2054122167
 20
25.8927378992
 10
-13.2344950247
 20
25.8520690068
 10
-13.2622062984
 20
25.8104534588
 10
-13.2885152503
 20
25.7679374903
 10
-13.3133926509
 20
25.7245683369
 10
-13.3368108613
 20
25.6803941821
 10
-13.3587438636
 20
25.6354641038
 10
-13.3791672901
 20
25.5898280197
 10
-13.3980584501
 20
25.5435366317
 10
-13.4153963556
 20
25.4966413701
 10
-13.4311617438
 20
25.4491943358
 10
-13.4453370993
 20
25.4012482429
 10
-13.4579066732
 20
25.35285636
 10
-13.4688565006
 20
25.3040724507
 10
-13.4781744162
 20
25.2549507144
 10
-13.4858500676
 20
25.2055457257
 10
-13.4918749271
 20
25.1559123741
 10
-13.4962423011
 20
25.1061058025
 10
-13.4989473374
 20
25.0561813465
 10
-13.4999870306
 20
25.0061944726
 10
-13.4993602257
 20
24.9562007165
 10
-13.4970676191
 20
24.9062556219
 10
-13.4931117578
 20
24.856414678
 10
-13.4874970369
 20
24.8067332586
 10
-13.4802296943
 20
24.7572665601
 10
-13.4713178041
 20
24.7080695404
 10
-13.4607712675
 20
24.659196858
 10
-13.4486018018
 20
24.6107028106
 10
-13.4348229274
 20
24.5626412756
 10
-13.4194499527
 20
24.5150656497
 10
-13.4024999572
 20
24.4680287899
 10
-13.3839917726
 20
24.4215829545
 10
-13.3639459614
 20
24.3757797452
 10
-13.3423847949
 20
24.3306700497
 10
-13.3193322276
 20
24.2863039853
 10
-13.2948138712
 20
24.2427308431
 10
-13.2688569656
 20
24.1999990331
 10
-13.2414903494
 20
24.1581560308
 10
-13.2127444269
 20
24.1172483241
 10
-13.1826511352
 20
24.0773213618
 10
-13.1512439082
 20
24.038419503
 10
-13.1185576395
 20
24.0005859681
 10
-13.0846286438
 20
23.9638627904
 10
-13.0494946166
 20
23.9282907696
 10
-13.013194592
 20
23.8939094267
 10
-12.9757688997
 20
23.8607569595
 10
-12.9372591199
 20
23.8288702006
 10
-12.8977080373
 20
23.7982845767
 10
-12.8571595935
 20
23.7690340684
 10
-12.8156588382
 20
23.7411511735
 10
-12.7732518789
 20
23.7146668699
 10
-12.7299858303
 20
23.6896105821
 10
-12.6859087611
 20
23.6660101477
 10
-12.6410696415
 20
23.643891787
 10
-12.5955182881
 20
23.6232800737
 10
-12.5493053087
 20
23.6041979075
 10
-12.5024820464
 20
23.586666489
 10
-12.4551005222
 20
23.5707052956
 10
-12.4072133774
 20
23.5563320605
 10
-12.358873815
 20
23.5435627523
 10
-12.3101355406
 20
23.5324115579
 10
-12.2610527029
 20
23.5228908663
 10
-12.2116798333
 20
23.5150112551
 10
-12.1620717854
 20
23.5087814787
 10
-12.1122836743
 20
23.5042084583
 10
-12.0623708148
 20
23.5012972746
 10
-12.0123886607
 20
23.500051162
 10
-11.9623927425
 20
23.5004715049
 10
-11.912438606
 20
23.5025578363
 10
-11.8625817508
 20
23.5063078383
 10
-11.8128775682
 20
23.5117173446
 10
-11.76338128
 20
23.5187803451
 10
-11.7141478769
 20
23.5274889929
 10
-11.6652320576
 20
23.5378336126
 10
-11.6166881681
 20
23.5498027111
 10
-11.5685701411
 20
23.5633829908
 10
-11.5209314359
 20
23.5785593638
 10
-11.4738249797
 20
23.5953149691
 10
-11.427303108
 20
23.613631191
 10
-11.3814175071
 20
23.63348768
 10
-11.3362191562
 20
23.6548623755
 10
-11.2917582712
 20
23.67773153
 10
-11.2480842483
 20
23.7020697356
 10
-11.2052456098
 20
23.7278499524
 10
-11.1632899498
 20
23.7550435385
 10
-11.1222638814
 20
23.7836202813
 10
-11.0822129848
 20
23.8135484321
 10
-11.0431817569
 20
23.8447947404
 10
-11.0052135618
 20
23.8773244912
 10
-10.9683505824
 20
23.9111015437
 10
-10.9326337738
 20
23.9460883714
 10
-10.8981028177
 20
23.9822461036
 10
-10.8647960782
 20
24.0195345687
 10
-10.8327505595
 20
24.057912339
 10
-10.8020018642
 20
24.0973367765
 10
-10.7725841546
 20
24.1377640802
 10
-10.7445301139
 20
24.1791493351
 10
-10.7178709103
 20
24.2214465619
 10
-10.6926361626
 20
24.264608768
 10
-10.6688539066
 20
24.3085879998
 10
-10.6465505647
 20
24.353335396
 10
-10.6257509161
 20
24.3988012419
 10
-10.6064780693
 20
24.4449350246
 10
-10.5887534366
 20
24.491685489
 10
-10.5725967104
 20
24.539000695
 10
-10.5580258407
 20
24.5868280751
 10
-10.545057016
 20
24.6351144926
 10
-10.5337046447
 20
24.6838063009
 10
-10.5239813394
 20
24.7328494029
 10
-10.5158979029
 20
24.7821893115
 10
-10.5094633157
 20
24.8317712096
 10
-10.5046847269
 20
24.8815400112
 10
-10.5015674455
 20
24.9314404229
 10
-10.5001149348
 20
24.9814170048
 10
-10.5003288086
 20
25.0314142326
 10
-10.5022088292
 20
25.0813765589
 10
-10.5057529079
 20
25.1312484752
 10
-10.5109571073
 20
25.1809745733
 10
-10.5178156454
 20
25.2304996072
 10
-10.5263209022
 20
25.2797685541
 10
-10.5364634286
 20
25.3287266759
 10
-10.5482319558
 20
25.3773195796
 10
-10.5616134092
 20
25.4254932782
 10
-10.5765929217
 20
25.4731942502
 10
-10.593153851
 20
25.5203694995
 10
-10.6112777977
 20
25.5669666141
 10
-10.630944626
 20
25.612933824
 10
-10.652132486
 20
25.6582200594
 10
-10.6748178376
 20
25.702775007
 10
-10.6989754773
 20
25.7465491656
 10
-10.7245785658
 20
25.7894939021
 10
-10.7515986579
 20
25.8315615043
 10
-10.7800057338
 20
25.8727052348
 10
-10.8097682333
 20
25.9128793826
 10
-10.8408530899
 20
25.9520393139
 10
-10.873225768
 20
25.9901415217
 10
-10.9068503013
 20
26.0271436741
 10
-10.9416893328
 20
26.0630046614
 10
-10.977704156
 20
26.0976846418
 10
-11.014854758
 20
26.1311450856
 10
-11.0530998644
 20
26.1633488178
 10
-11.0923969844
 20
26.1942600599
 10
-11.1327024586
 20
26.2238444692
 10
-11.1739715073
 20
26.2520691773
 10
-11.2161582803
 20
26.2789028261
 10
-11.2592159077
 20
26.3043156035
 10
-11.3030965521
 20
26.3282792754
 10
-11.3477514617
 20
26.3507672181
 10
-11.3931310247
 20
26.3717544474
 10
-11.4391848239
 20
26.3912176461
 10
-11.4858616932
 20
26.4091351906
 10
-11.5331097742
 20
26.4254871743
 10
-11.5808765739
 20
26.44025543
 10
-11.6291090229
 20
26.45342355
 10
-11.6777535347
 20
26.4649769045
 10
-11.7267560648
 20
26.4749026577
 10
-11.7760621709
 20
26.4831897818
 10
-11.8256170736
 20
26.4898290698
 10
-11.875365717
 20
26.4948131455
 10
-11.9252528298
 20
26.4981364715
 10
-11.9752229872
 20
26.4997953555
  0
LWPOLYLINE
  5
327
330
2A
100
AcDbEntity
  8
0
 62
     0
100
AcDbPolyline
 90
      189
 70
     1
 43
0.0
 10
-23.9999998212
 20
41.5
 10
-24.0499905624
 20
41.4991667438
 10
-24.0999257636
 20
41.4966679011
 10
-24.1497499462
 20
41.4925062479
 10
-24.1994077551
 20
41.4866864081
 10
-24.2488440202
 20
41.4792148473
 10
-24.2980038174
 20
41.4700998668
 10
-24.3468325296
 20
41.4593515931
 10
-24.3952759079
 20
41.4469819678
 10
-24.4432801312
 20
41.4330047337
 10
-24.4907918664
 20
41.4174354195
 10
-24.5377583276
 20
41.4002913228
 10
-24.5841273346
 20
41.381591491
 10
-24.6298473712
 20
41.3613566997
 10
-24.674867642
 20
41.3396094298
 10
-24.7191381291
 20
41.3163738428
 10
-24.7626096476
 20
41.2916757537
 10
-24.8052339003
 20
41.2655426022
 10
-24.8469635313
 20
41.2380034224
 10
-24.8877521786
 20
41.2090888106
 10
-24.9275545258
 20
41.1788308912
 10
-24.966326352
 20
41.1472632809
 10
-25.0040245816
 20
41.1144210517
 10
-25.0406073313
 20
41.0803406916
 10
-25.0760339575
 20
41.045060064
 10
-25.110265101
 20
41.0086183661
 10
-25.1432627306
 20
40.9710560849
 10
-25.1749901856
 20
40.9324149524
 10
-25.2054122167
 20
40.8927378992
 10
-25.2344950247
 20
40.8520690068
 10
-25.2622062984
 20
40.8104534588
 10
-25.2885152503
 20
40.7679374903
 10
-25.3133926509
 20
40.7245683369
 10
-25.3368108613
 20
40.6803941821
 10
-25.3587438636
 20
40.6354641038
 10
-25.3791672901
 20
40.5898280197
 10
-25.3980584501
 20
40.5435366317
 10
-25.4153963556
 20
40.4966413701
 10
-25.4311617438
 20
40.4491943358
 10
-25.4453370993
 20
40.4012482429
 10
-25.4579066732
 20
40.35285636
 10
-25.4688565006
 20
40.3040724507
 10
-25.4781744162
 20
40.2549507144
 10
-25.4858500676
 20
40.2055457257
 10
-25.4918749271
 20
40.1559123741
 10
-25.4962423011
 20
40.1061058025
 10
-25.4989473374
 20
40.0561813465
 10
-25.4999870306
 20
40.0061944726
 10
-25.4993602257
 20
39.9562007165
 10
-25.4970676191
 20
39.9062556219
 10
-25.4931117578
 20
39.856414678
 10
-25.4874970369
 20
39.8067332586
 10
-25.4802296943
 20
39.7572665601
 10
-25.4713178041
 20
39.7080695404
 10
-25.4607712675
 20
39.659196858
 10
-25.4486018018
 20
39.6107028106
 10
-25.4348229274
 20
39.5626412756
 10
-25.4194499527
 20
39.5150656497
 10
-25.4024999572
 20
39.4680287899
 10
-25.3839917726
 20
39.4215829545
 10
-25.3639459614
 20
39.3757797452
 10
-25.3423847949
 20
39.3306700497
 10
-25.3193322276
 20
39.2863039853
 10
-25.2948138712
 20
39.2427308431
 10
-25.2688569656
 20
39.1999990331
 10
-25.2414903494
 20
39.1581560308
 10
-25.2127444269
 20
39.1172483241
 10
-25.1826511352
 20
39.0773213618
 10
-25.1512439082
 20
39.038419503
 10
-25.1185576395
 20
39.0005859681
 10
-25.0846286438
 20
38.9638627904
 10
-25.0494946166
 20
38.9282907696
 10
-25.013194592
 20
38.8939094267
 10
-24.9757688997
 20
38.8607569595
 10
-24.9372591199
 20
38.8288702006
 10
-24.8977080373
 20
38.7982845767
 10
-24.8571595935
 20
38.7690340684
 10
-24.8156588382
 20
38.7411511735
 10
-24.7732518789
 20
38.7146668699
 10
-24.7299858303
 20
38.6896105821
 10
-24.6859087611
 20
38.6660101477
 10
-24.6410696415
 20
38.643891787
 10
-24.5955182881
 20
38.6232800737
 10
-24.5493053087
 20
38.6041979075
 10
-24.5024820464
 20
38.586666489
 10
-24.4551005222
 20
38.5707052956
 10
-24.4072133774
 20
38.5563320605
 10
-24.358873815
 20
38.5435627523
 10
-24.3101355406
 20
38.5324115579
 10
-24.2610527029
 20
38.5228908663
 10
-24.2116798333
 20
38.5150112551
 10
-24.1620717854
 20
38.5087814787
 10
-24.1122836743
 20
38.5042084583
 10
-24.0623708148
 20
38.5012972746
 10
-24.0123886607
 20
38.500051162
 10
-23.9623927425
 20
38.5004715049
 10
-23.912438606
 20
38.5025578363
 10
-23.8625817508
 20
38.5063078383
 10
-23.8128775682
 20
38.5117173446
 10
-23.76338128
 20
38.5187803451
 10
-23.7141478769
 20
38.5274889929
 10
-23.6652320576
 20
38.5378336126
 10
-23.6166881681
 20
38.5498027111
 10
-23.5685701411
 20
38.5633829908
 10
-23.5209314359
 20
38.5785593638
 10
-23.4738249797
 20
38.5953149691
 10
-23.427303108
 20
38.613631191
 10
-23.3814175071
 20
38.63348768
 10
-23.3362191562
 20
38.6548623755
 10
-23.2917582712
 20
38.67773153
 10
-23.2480842483
 20
38.7020697356
 10
-23.2052456098
 20
38.7278499524
 10
-23.1632899498
 20
38.7550435385
 10
-23.1222638814
 20
38.7836202813
 10
-23.0822129848
 20
38.8135484321
 10
-23.0431817569
 20
38.8447947404
 10
-23.0052135618
 20
38.8773244912
 10
-22.9683505824
 20
38.9111015437
 10
-22.9326337738
 20
38.9460883714
 10
-22.8981028177
 20
38.9822461036
 10
-22.8647960782
 20
39.0195345687
 10
-22.8327505595
 20
39.057912339
 10
-22.8020018642
 20
39.0973367765
 10
-22.7725841546
 20
39.1377640802
 10
-22.7445301139
 20
39.1791493351
 10
-22.7178709103
 20
39.2214465619
 10
-22.6926361626
 20
39.264608768
 10
-22.6688539066
 20
39.3085879998
 10
-22.6465505647
 20
39.353335396
 10
-22.6257509161
 20
39.3988012419
 10
-22.6064780693
 20
39.4449350246
 10
-22.5887534366
 20
39.491685489
 10
-22.5725967104
 20
39.539000695
 10
-22.5580258407
 20
39.5868280751
 10
-22.545057016
 20
39.6351144926
 10
-22.5337046447
 20
39.6838063009
 10
-22.5239813394
 20
39.7328494029
 10
-22.5158979029
 20
39.7821893115
 10
-22.5094633157
 20
39.8317712096
 10
-22.5046847269
 20
39.8815400112
 10
-22.5015674455
 20
39.9314404229
 10
-22.5001149348
 20
39.9814170048
 10
-22.5003288086
 20
40.0314142326
 10
-22.5022088292
 20
40.0813765589
 10
-22.5057529079
 20
40.1312484752
 10
-22.5109571073
 20
40.1809745733
 10
-22.5178156454
 20
40.2304996072
 10
-22.5263209022
 20
40.2797685541
 10
-22.5364634286
 20
40.3287266759
 10
-22.5482319558
 20
40.3773195796
 10
-22.5616134092
 20
40.4254932782
 10
-22.5765929217
 20
40.4731942502
 10
-22.593153851
 20
40.5203694995
 10
-22.6112777977
 20
40.5669666141
 10
-22.630944626
 20
40.612933824
 10
-22.652132486
 20
40.6582200594
 10
-22.6748178376
 20
40.702775007
 10
-22.6989754773
 20
40.7465491656
 10
-22.7245785658
 20
40.7894939021
 10
-22.7515986579
 20
40.8315615043
 10
-22.7800057338
 20
40.8727052348
 10
-22.8097682333
 20
40.9128793826
 10
-22.8408530899
 20
40.9520393139
 10
-22.873225768
 20
40.9901415217
 10
-22.9068503013
 20
41.0271436741
 10
-22.9416893328
 20
41.0630046614
 10
-22.977704156
 20
41.0976846418
 10
-23.014854758
 20
41.1311450856
 10
-23.0530998644
 20
41.1633488178
 10
-23.0923969844
 20
41.1942600599
 10
-23.1327024586
 20
41.2238444692
 10
-23.1739715073
 20
41.2520691773
 10
-23.2161582803
 20
41.2789028261
 10
-23.2592159077
 20
41.3043156035
 10
-23.3030965521
 20
41.3282792754
 10
-23.3477514617
 20
41.3507672181
 10
-23.3931310247
 20
41.3717544474
 10
-23.4391848239
 20
41.3912176461
 10
-23.4858616932
 20
41.4091351906
 10
-23.5331097742
 20
41.4254871743
 10
-23.5808765739
 20
41.44025543
 10
-23.6291090229
 20
41.45342355
 10
-23.6777535347
 20
41.4649769045
 10
-23.7267560648
 20
41.4749026577
 10
-23.7760621709
 20
41.4831897818
 10
-23.8256170736
 20
41.4898290698
 10
-23.875365717
 20
41.4948131455
 10
-23.9252528298
 20
41.4981364715
 10
-23.9752229872
 20
41.4997953555
  0
LWPOLYLINE
  5
3E6
330
2A
100
AcDbEntity
  8
0
 62
     0
100
AcDbPolyline
 90
      189
 70
     1
 43
0.0
 10
-11.9999998212
 20
41.5
 10
-12.0499905624
 20
41.4991667438
 10
-12.0999257636
 20
41.4966679011
 10
-12.1497499462
 20
41.4925062479
 10
-12.1994077551
 20
41.4866864081
 10
-12.2488440202
 20
41.4792148473
 10
-12.2980038174
 20
41.4700998668
 10
-12.3468325296
 20
41.4593515931
 10
-12.3952759079
 20
41.4469819678
 10
-12.4432801312
 20
41.4330047337
 10
-12.4907918664
 20
41.4174354195
 10
-12.5377583276
 20
41.4002913228
 10
-12.5841273346
 20
41.381591491
 10
-12.6298473712
 20
41.3613566997
 10
-12.674867642
 20
41.3396094298
 10
-12.7191381291
 20
41.3163738428
 10
-12.7626096476
 20
41.2916757537
 10
-12.8052339003
 20
41.2655426022
 10
-12.8469635313
 20
41.2380034224
 10
-12.8877521786
 20
41.2090888106
 10
-12.9275545258
 20
41.1788308912
 10
-12.966326352
 20
41.1472632809
 10
-13.0040245816
 20
41.1144210517
 10
-13.0406073313
 20
41.0803406916
 10
-13.0760339575
 20
41.045060064
 10
-13.110265101
 20
41.0086183661
 10
-13.1432627306
 20
40.9710560849
 10
-13.1749901856
 20
40.9324149524
 10
-13.2054122167
 20
40.8927378992
 10
-13.2344950247
 20
40.8520690068
 10
-13.2622062984
 20
40.8104534588
 10
-13.2885152503
 20
40.7679374903
 10
-13.3133926509
 20
40.7245683369
 10
-13.3368108613
 20
40.6803941821
 10
-13.3587438636
 20
40.6354641038
 10
-13.3791672901
 20
40.5898280197
 10
-13.3980584501
 20
40.5435366317
 10
-13.4153963556
 20
40.4966413701
 10
-13.4311617438
 20
40.4491943358
 10
-13.4453370993
 20
40.4012482429
 10
-13.4579066732
 20
40.35285636
 10
-13.4688565006
 20
40.3040724507
 10
-13.4781744162
 20
40.2549507144
 10
-13.4858500676
 20
40.2055457257
 10
-13.4918749271
 20
40.1559123741
 10
-13.4962423011
 20
40.1061058025
 10
-13.4989473374
 20
40.0561813465
 10
-13.4999870306
 20
40.0061944726
 10
-13.4993602257
 20
39.9562007165
 10
-13.4970676191
 20
39.9062556219
 10
-13.4931117578
 20
39.856414678
 10
-13.4874970369
 20
39.8067332586
 10
-13.4802296943
 20
39.7572665601
 10
-13.4713178041
 20
39.7080695404
 10
-13.4607712675
 20
39.659196858
 10
-13.4486018018
 20
39.6107028106
 10
-13.4348229274
 20
39.5626412756
 10
-13.4194499527
 20
39.5150656497
 10
-13.4024999572
 20
39.4680287899
 10
-13.3839917726
 20
39.4215829545
 10
-13.3639459614
 20
39.3757797452
 10
-13.3423847949
 20
39.3306700497
 10
-13.3193322276
 20
39.2863039853
 10
-13.2948138712
 20
39.2427308431
 10
-13.2688569656
 20
39.1999990331
 10
-13.2414903494
 20
39.1581560308
 10
-13.2127444269
 20
39.1172483241
 10
-13.1826511352
 20
39.0773213618
 10
-13.1512439082
 20
39.038419503
 10
-13.1185576395
 20
39.0005859681
 10
-13.0846286438
 20
38.9638627904
 10
-13.0494946166
 20
38.9282907696
 10
-13.013194592
 20
38.8939094267
 10
-12.9757688997
 20
38.8607569595
 10
-12.9372591199
 20
38.8288702006
 10
-12.8977080373
 20
38.7982845767
 10
-12.8571595935
 20
38.7690340684
 10
-12.8156588382
 20
38.7411511735
 10
-12.7732518789
 20
38.7146668699
 10
-12.7299858303
 20
38.6896105821
 10
-12.6859087611
 20
38.6660101477
 10
-12.6410696415
 20
38.643891787
 10
-12.5955182881
 20
38.6232800737
 10
-12.5493053087
 20
38.6041979075
 10
-12.5024820464
 20
38.586666489
 10
-12.4551005222
 20
38.5707052956
 10
-12.4072133774
 20
38.5563320605
 10
-12.358873815
 20
38.5435627523
 10
-12.3101355406
 20
38.5324115579
 10
-12.2610527029
 20
38.5228908663
 10
-12.2116798333
 20
38.5150112551
 10
-12.1620717854
 20
38.5087814787
 10
-12.1122836743
 20
38.5042084583
 10
-12.0623708148
 20
38.5012972746
 10
-12.0123886607
 20
38.500051162
 10
-11.9623927425
 20
38.5004715049
 10
-11.912438606
 20
38.5025578363
 10
-11.8625817508
 20
38.5063078383
 10
-11.8128775682
 20
38.5117173446
 10
-11.76338128
 20
38.5187803451
 10
-11.7141478769
 20
38.5274889929
 10
-11.6652320576
 20
38.5378336126
 10
-11.6166881681
 20
38.5498027111
 10
-11.5685701411
 20
38.5633829908
 10
-11.5209314359
 20
38.5785593638
 10
-11.4738249797
 20
38.5953149691
 10
-11.427303108
 20
38.613631191
 10
-11.3814175071
 20
38.63348768
 10
-11.3362191562
 20
38.6548623755
 10
-11.2917582712
 20
38.67773153
 10
-11.2480842483
 20
38.7020697356
 10
-11.2052456098
 20
38.7278499524
 10
-11.1632899498
 20
38.7550435385
 10
-11.1222638814
 20
38.7836202813
 10
-11.0822129848
 20
38.8135484321
 10
-11.0431817569
 20
38.8447947404
 10
-11.0052135618
 20
38.8773244912
 10
-10.9683505824
 20
38.9111015437
 10
-10.9326337738
 20
38.9460883714
 10
-10.8981028177
 20
38.9822461036
 10
-10.8647960782
 20
39.0195345687
 10
-10.8327505595
 20
39.057912339
 10
-10.8020018642
 20
39.0973367765
 10
-10.7725841546
 20
39.1377640802
 10
-10.7445301139
 20
39.1791493351
 10
-10.7178709103
 20
39.2214465619
 10
-10.6926361626
 20
39.264608768
 10
-10.6688539066
 20
39.3085879998
 10
-10.6465505647
 20
39.353335396
 10
-10.6257509161
 20
39.3988012419
 10
-10.6064780693
 20
39.4449350246
 10
-10.5887534366
 20
39.491685489
 10
-10.5725967104
 20
39.539000695
 10
-10.5580258407
 20
39.5868280751
 10
-10.545057016
 20
39.6351144926
 10
-10.5337046447
 20
39.6838063009
 10
-10.5239813394
 20
39.7328494029
 10
-10.5158979029
 20
39.7821893115
 10
-10.5094633157
 20
39.8317712096
 10
-10.5046847269
 20
39.8815400112
 10
-10.5015674455
 20
39.9314404229
 10
-10.5001149348
 20
39.9814170048
 10
-10.5003288086
 20
40.0314142326
 10
-10.5022088292
 20
40.0813765589
 10
-10.5057529079
 20
40.1312484752
 10
-10.5109571073
 20
40.1809745733
 10
-10.5178156454
 20
40.2304996072
 10
-10.5263209022
 20
40.2797685541
 10
-10.5364634286
 20
40.3287266759
 10
-10.5482319558
 20
40.3773195796
 10
-10.5616134092
 20
40.4254932782
 10
-10.5765929217
 20
40.4731942502
 10
-10.593153851
 20
40.5203694995
 10
-10.6112777977
 20
40.5669666141
 10
-10.630944626
 20
40.612933824
 10
-10.652132486
 20
40.6582200594
 10
-10.6748178376
 20
40.702775007
 10
-10.6989754773
 20
40.7465491656
 10
-10.7245785658
 20
40.7894939021
 10
-10.7515986579
 20
40.8315615043
 10
-10.7800057338
 20
40.8727052348
 10
-10.8097682333
 20
40.9128793826
 10
-10.8408530899
 20
40.9520393139
 10
-10.873225768
 20
40.9901415217
 10
-10.9068503013
 20
41.0271436741
 10
-10.9416893328
 20
41.0630046614
 10
-10.977704156
 20
41.0976846418
 10
-11.014854758
 20
41.1311450856
 10
-11.0530998644
 20
41.1633488178
 10
-11.0923969844
 20
41.1942600599
 10
-11.1327024586
 20
41.2238444692
 10
-11.1739715073
 20
41.2520691773
 10
-11.2161582803
 20
41.2789028261
 10
-11.2592159077
 20
41.3043156035
 10
-11.3030965521
 20
41.3282792754
 10
-11.3477514617
 20
41.3507672181
 10
-11.3931310247
 20
41.3717544474
 10
-11.4391848239
 20
41.3912176461
 10
-11.4858616932
 20
41.4091351906
 10
-11.5331097742
 20
41.4254871743
 10
-11.5808765739
 20
41.44025543
 10
-11.6291090229
 20
41.45342355
 10
-11.6777535347
 20
41.4649769045
 10
-11.7267560648
 20
41.4749026577
 10
-11.7760621709
 20
41.4831897818
 10
-11.8256170736
 20
41.4898290698
 10
-11.875365717
 20
41.4948131455
 10
-11.9252528298
 20
41.4981364715
 10
-11.9752229872
 20
41.4997953555
  0
LWPOLYLINE
  5
4A5
330
2A
100
AcDbEntity
  8
0
 62
     0
100
AcDbPolyline
 90
       33
 70
     0
 43
0.0
 10
-1.0
 20
-0.0000000000000002
 10
-0.950020830729
 20
0.00124973960503
 10
-0.900166583353
 20
0.00499583472197
 10
-0.850561867526
 20
0.011228922064
 10
-0.801330669205
 20
0.0199334221588
 10
-0.752596040745
 20
0.0310875782894
 10
-0.704479793339
 20
0.0446635108744
 10
-0.657102192545
 20
0.0606272871526
 10
-0.610581657691
 20
0.0789390059971
 10
-0.565034465889
 20
0.0995528976473
 10
-0.520574461396
 20
0.12241743811
 10
-0.477312771069
 20
0.14747547794
 10
-0.435357526605
 20
0.17466438509
 10
-0.394813594264
 20
0.203916201451
 10
-0.355782312762
 20
0.235157812716
 10
-0.318361239977
 20
0.268311131126
 10
-0.2826439091
 20
0.303293290653
 10
-0.24871959486
 20
0.340016854115
 10
-0.216673090373
 20
0.378390031729
 10
-0.186584495211
 20
0.418316910536
 10
-0.158529015192
 20
0.459697694132
 10
-0.132576774406
 20
0.502428952108
 10
-0.108792639939
 20
0.546403878574
 10
-0.0872360597395
 20
0.591512559116
 10
-0.0679609140328
 20
0.637642245523
 10
-0.0510153806444
 20
0.684677637605
 10
-0.0364418145828
 20
0.732501171375
 10
-0.0242766421733
 20
0.780993312907
 10
-0.0145502700115
 20
0.8300328571
 10
-0.00728700896241
 20
0.879497230633
 10
-0.00250501339595
 20
0.929262798332
 10
-0.000216235810643
 20
0.979205172197
 10
0.0000000000000002
 20
1.0
  0
LWPOLYLINE
  5
4C8
330
2A
100
AcDbEntity
  8
0
 62
     0
100
AcDbPolyline
 90
       33
 70
     0
 43
0.0
 10
0.0000000000000002
 20
4.0
 10
-0.00124973960503
 20
4.04997916927
 10
-0.00499583472197
 20
4.09983341665
 10
-0.011228922064
 20
4.14943813247
 10
-0.0199334221588
 20
4.1986693308
 10
-0.0310875782894
 20
4.24740395925
 10
-0.0446635108744
 20
4.29552020666
 10
-0.0606272871526
 20
4.34289780746
 10
-0.0789390059971
 20
4.38941834231
 10
-0.0995528976473
 20
4.43496553411
 10
-0.12241743811
 20
4.4794255386
 10
-0.14747547794
 20
4.52268722893
 10
-0.17466438509
 20
4.5646424734
 10
-0.203916201451
 20
4.60518640574
 10
-0.235157812716
 20
4.64421768724
 10
-0.268311131126
 20
4.68163876002
 10
-0.303293290653
 20
4.7173560909
 10
-0.340016854115
 20
4.75128040514
 10
-0.378390031729
 20
4.78332690963
 10
-0.418316910536
 20
4.81341550479
 10
-0.459697694132
 20
4.84147098481
 10
-0.502428952108
 20
4.86742322559
 10
-0.546403878574
 20
4.89120736006
 10
-0.591512559116
 20
4.91276394026
 10
-0.637642245523
 20
4.93203908597
 10
-0.684677637605
 20
4.94898461936
 10
-0.732501171375
 20
4.96355818542
 10
-0.780993312907
 20
4.97572335783
 10
-0.8300328571
 20
4.98544972999
 10
-0.879497230633
 20
4.99271299104
 10
-0.929262798332
 20
4.9974949866
 10
-0.979205172197
 20
4.99978376419
 10
-1.0
 20
5.0
  0
LWPOLYLINE
  5
4EB
330
2A
100
AcDbEntity
  8
0
 62
     0
100
AcDbPolyline
 90
       33
 70
     0
 43
0.0
 10
-36.0
 20
1.0
 10
-35.9987502604
 20
0.950020830729
 10
-35.9950041653
 20
0.900166583353
 10
-35.9887710779
 20
0.850561867526
 10
-35.9800665778
 20
0.801330669205
 10
-35.9689124217
 20
0.752596040745
 10
-35.9553364891
 20
0.704479793339
 10
-35.9393727128
 20
0.657102192545
 10
-35.921060994
 20
0.610581657691
 10
-35.9004471024
 20
0.565034465889
 10
-35.8775825619
 20
0.520574461396
 10
-35.8525245221
 20
0.477312771069
 10
-35.8253356149
 20
0.435357526605
 10
-35.7960837985
 20
0.394813594264
 10
-35.7648421873
 20
0.355782312762
 10
-35.7316888689
 20
0.318361239977
 10
-35.6967067093
 20
0.2826439091
 10
-35.6599831459
 20
0.24871959486
 10
-35.6216099683
 20
0.216673090373
 10
-35.5816830895
 20
0.186584495211
 10
-35.5403023059
 20
0.158529015192
 10
-35.4975710479
 20
0.132576774406
 10
-35.4535961214
 20
0.108792639939
 10
-35.4084874409
 20
0.0872360597395
 10
-35.3623577545
 20
0.0679609140328
 10
-35.3153223624
 20
0.0510153806444
 10
-35.2674988286
 20
0.0364418145828
 10
-35.2190066871
 20
0.0242766421733
 10
-35.1699671429
 20
0.0145502700115
 10
-35.1205027694
 20
0.00728700896241
 10
-35.0707372017
 20
0.00250501339595
 10
-35.0207948278
 20
0.000216235810643
 10
-35.0
 20
-0.0000000000000002
  0
LWPOLYLINE
  5
50E
330
2A
100
AcDbEntity
  8
0
 62
     0
100
AcDbPolyline
 90
       33
 70
     0
 43
0.0
 10
-35.0
 20
5.0
 10
-35.0499791693
 20
4.99875026039
 10
-35.0998334166
 20
4.99500416528
 10
-35.1494381325
 20
4.98877107794
 10
-35.1986693308
 20
4.98006657784
 10
-35.2474039593
 20
4.96891242171
 10
-35.2955202067
 20
4.95533648913
 10
-35.3428978075
 20
4.93937271285
 10
-35.3894183423
 20
4.921060994
 10
-35.4349655341
 20
4.90044710235
 10
-35.4794255386
 20
4.87758256189
 10
-35.5226872289
 20
4.85252452206
 10
-35.5646424734
 20
4.82533561491
 10
-35.6051864057
 20
4.79608379855
 10
-35.6442176872
 20
4.76484218728
 10
-35.68163876
 20
4.73168886887
 10
-35.7173560909
 20
4.69670670935
 10
-35.7512804051
 20
4.65998314588
 10
-35.7833269096
 20
4.62160996827
 10
-35.8134155048
 20
4.58168308946
 10
-35.8414709848
 20
4.54030230587
 10
-35.8674232256
 20
4.49757104789
 10
-35.8912073601
 20
4.45359612143
 10
-35.9127639403
 20
4.40848744088
 10
-35.932039086
 20
4.36235775448
 10
-35.9489846194
 20
4.3153223624
 10
-35.9635581854
 20
4.26749882862
 10
-35.9757233578
 20
4.21900668709
 10
-35.98544973
 20
4.1699671429
 10
-35.992712991
 20
4.12050276937
 10
-35.9974949866
 20
4.07073720167
 10
-35.9997837642
 20
4.0207948278
 10
-36.0
 20
4.0
  0
LWPOLYLINE
  5
531
330
2A
100
AcDbEntity
  8
0
 62
     0
100
AcDbPolyline
 90
       33
 70
     0
 43
0.0
 10
-1.0
 20
15.0
 10
-0.950020830729
 20
15.0012497396
 10
-0.900166583353
 20
15.0049958347
 10
-0.850561867526
 20
15.0112289221
 10
-0.801330669205
 20
15.0199334222
 10
-0.752596040745
 20
15.0310875783
 10
-0.704479793339
 20
15.0446635109
 10
-0.657102192545
 20
15.0606272872
 10
-0.610581657691
 20
15.078939006
 10
-0.565034465889
 20
15.0995528976
 10
-0.520574461396
 20
15.1224174381
 10
-0.477312771069
 20
15.1474754779
 10
-0.435357526605
 20
15.1746643851
 10
-0.394813594264
 20
15.2039162015
 10
-0.355782312762
 20
15.2351578127
 10
-0.318361239977
 20
15.2683111311
 10
-0.2826439091
 20
15.3032932907
 10
-0.24871959486
 20
15.3400168541
 10
-0.216673090373
 20
15.3783900317
 10
-0.186584495211
 20
15.4183169105
 10
-0.158529015192
 20
15.4596976941
 10
-0.132576774406
 20
15.5024289521
 10
-0.108792639939
 20
15.5464038786
 10
-0.0872360597395
 20
15.5915125591
 10
-0.0679609140328
 20
15.6376422455
 10
-0.0510153806444
 20
15.6846776376
 10
-0.0364418145828
 20
15.7325011714
 10
-0.0242766421733
 20
15.7809933129
 10
-0.0145502700115
 20
15.8300328571
 10
-0.00728700896241
 20
15.8794972306
 10
-0.00250501339595
 20
15.9292627983
 10
-0.000216235810643
 20
15.9792051722
 10
0.0000000000000002
 20
16.0
  0
LWPOLYLINE
  5
554
330
2A
100
AcDbEntity
  8
0
 62
     0
100
AcDbPolyline
 90
       33
 70
     0
 43
0.0
 10
0.0000000000000002
 20
19.0
 10
-0.00124973960503
 20
19.0499791693
 10
-0.00499583472197
 20
19.0998334166
 10
-0.011228922064
 20
19.1494381325
 10
-0.0199334221588
 20
19.1986693308
 10
-0.0310875782894
 20
19.2474039593
 10
-0.0446635108744
 20
19.2955202067
 10
-0.0606272871526
 20
19.3428978075
 10
-0.0789390059971
 20
19.3894183423
 10
-0.0995528976473
 20
19.4349655341
 10
-0.12241743811
 20
19.4794255386
 10
-0.14747547794
 20
19.5226872289
 10
-0.17466438509
 20
19.5646424734
 10
-0.203916201451
 20
19.6051864057
 10
-0.235157812716
 20
19.6442176872
 10
-0.268311131126
 20
19.68163876
 10
-0.303293290653
 20
19.7173560909
 10
-0.340016854115
 20
19.7512804051
 10
-0.378390031729
 20
19.7833269096
 10
-0.418316910536
 20
19.8134155048
 10
-0.459697694132
 20
19.8414709848
 10
-0.502428952108
 20
19.8674232256
 10
-0.546403878574
 20
19.8912073601
 10
-0.591512559116
 20
19.9127639403
 10
-0.637642245523
 20
19.932039086
 10
-0.684677637605
 20
19.9489846194
 10
-0.732501171375
 20
19.9635581854
 10
-0.780993312907
 20
19.9757233578
 10
-0.8300328571
 20
19.98544973
 10
-0.879497230633
 20
19.992712991
 10
-0.929262798332
 20
19.9974949866
 10
-0.979205172197
 20
19.9997837642
 10
-1.0
 20
20.0
  0
LWPOLYLINE
  5
577
330
2A
100
AcDbEntity
  8
0
 62
     0
100
AcDbPolyline
 90
       33
 70
     0
 43
0.0
 10
-36.0
 20
16.0
 10
-35.9987502604
 20
15.9500208307
 10
-35.9950041653
 20
15.9001665834
 10
-35.9887710779
 20
15.8505618675
 10
-35.9800665778
 20
15.8013306692
 10
-35.9689124217
 20
15.7525960407
 10
-35.9553364891
 20
15.7044797933
 10
-35.9393727128
 20
15.6571021925
 10
-35.921060994
 20
15.6105816577
 10
-35.9004471024
 20
15.5650344659
 10
-35.8775825619
 20
15.5205744614
 10
-35.8525245221
 20
15.4773127711
 10
-35.8253356149
 20
15.4353575266
 10
-35.7960837985
 20
15.3948135943
 10
-35.7648421873
 20
15.3557823128
 10
-35.7316888689
 20
15.31836124
 10
-35.6967067093
 20
15.2826439091
 10
-35.6599831459
 20
15.2487195949
 10
-35.6216099683
 20
15.2166730904
 10
-35.5816830895
 20
15.1865844952
 10
-35.5403023059
 20
15.1585290152
 10
-35.4975710479
 20
15.1325767744
 10
-35.4535961214
 20
15.1087926399
 10
-35.4084874409
 20
15.0872360597
 10
-35.3623577545
 20
15.067960914
 10
-35.3153223624
 20
15.0510153806
 10
-35.2674988286
 20
15.0364418146
 10
-35.2190066871
 20
15.0242766422
 10
-35.1699671429
 20
15.01455027
 10
-35.1205027694
 20
15.007287009
 10
-35.0707372017
 20
15.0025050134
 10
-35.0207948278
 20
15.0002162358
 10
-35.0
 20
15.0
  0
LWPOLYLINE
  5
59A
330
2A
100
AcDbEntity
  8
0
 62
     0
100
AcDbPolyline
 90
       33
 70
     0
 43
0.0
 10
-35.0
 20
20.0
 10
-35.0499791693
 20
19.9987502604
 10
-35.0998334166
 20
19.9950041653
 10
-35.1494381325
 20
19.9887710779
 10
-35.1986693308
 20
19.9800665778
 10
-35.2474039593
 20
19.9689124217
 10
-35.2955202067
 20
19.9553364891
 10
-35.3428978075
 20
19.9393727128
 10
-35.3894183423
 20
19.921060994
 10
-35.4349655341
 20
19.9004471024
 10
-35.4794255386
 20
19.8775825619
 10
-35.5226872289
 20
19.8525245221
 10
-35.5646424734
 20
19.8253356149
 10
-35.6051864057
 20
19.7960837985
 10
-35.6442176872
 20
19.7648421873
 10
-35.68163876
 20
19.7316888689
 10
-35.7173560909
 20
19.6967067093
 10
-35.7512804051
 20
19.6599831459
 10
-35.7833269096
 20
19.6216099683
 10
-35.8134155048
 20
19.5816830895
 10
-35.8414709848
 20
19.5403023059
 10
-35.8674232256
 20
19.4975710479
 10
-35.8912073601
 20
19.4535961214
 10
-35.9127639403
 20
19.4084874409
 10
-35.932039086
 20
19.3623577545
 10
-35.9489846194
 20
19.3153223624
 10
-35.9635581854
 20
19.2674988286
 10
-35.9757233578
 20
19.2190066871
 10
-35.98544973
 20
19.1699671429
 10
-35.992712991
 20
19.1205027694
 10
-35.9974949866
 20
19.0707372017
 10
-35.9997837642
 20
19.0207948278
 10
-36.0
 20
19.0
  0
LWPOLYLINE
  5
5BD
330
2A
100
AcDbEntity
  8
0
 62
     0
100
AcDbPolyline
 90
       33
 70
     0
 43
0.0
 10
-1.0
 20
30.0
 10
-0.950020830729
 20
30.0012497396
 10
-0.900166583353
 20
30.0049958347
 10
-0.850561867526
 20
30.0112289221
 10
-0.801330669205
 20
30.0199334222
 10
-0.752596040745
 20
30.0310875783
 10
-0.704479793339
 20
30.0446635109
 10
-0.657102192545
 20
30.0606272872
 10
-0.610581657691
 20
30.078939006
 10
-0.565034465889
 20
30.0995528976
 10
-0.520574461396
 20
30.1224174381
 10
-0.477312771069
 20
30.1474754779
 10
-0.435357526605
 20
30.1746643851
 10
-0.394813594264
 20
30.2039162015
 10
-0.355782312762
 20
30.2351578127
 10
-0.318361239977
 20
30.2683111311
 10
-0.2826439091
 20
30.3032932907
 10
-0.24871959486
 20
30.3400168541
 10
-0.216673090373
 20
30.3783900317
 10
-0.186584495211
 20
30.4183169105
 10
-0.158529015192
 20
30.4596976941
 10
-0.132576774406
 20
30.5024289521
 10
-0.108792639939
 20
30.5464038786
 10
-0.0872360597395
 20
30.5915125591
 10
-0.0679609140328
 20
30.6376422455
 10
-0.0510153806444
 20
30.6846776376
 10
-0.0364418145828
 20
30.7325011714
 10
-0.0242766421733
 20
30.7809933129
 10
-0.0145502700115
 20
30.8300328571
 10
-0.00728700896241
 20
30.8794972306
 10
-0.00250501339595
 20
30.9292627983
 10
-0.000216235810643
 20
30.9792051722
 10
0.0000000000000002
 20
31.0
  0
LWPOLYLINE
  5
5E0
330
2A
100
AcDbEntity
  8
0
 62
     0
100
AcDbPolyline
 90
       33
 70
     0
 43
0.0
 10
0.0000000000000002
 20
34.0
 10
-0.00124973960503
 20
34.0499791693
 10
-0.00499583472197
 20
34.0998334166
 10
-0.011228922064
 20
34.1494381325
 10
-0.0199334221588
 20
34.1986693308
 10
-0.0310875782894
 20
34.2474039593
 10
-0.0446635108744
 20
34.2955202067
 10
-0.0606272871526
 20
34.3428978075
 10
-0.0789390059971
 20
34.3894183423
 10
-0.0995528976473
 20
34.4349655341
 10
-0.12241743811
 20
34.4794255386
 10
-0.14747547794
 20
34.5226872289
 10
-0.17466438509
 20
34.5646424734
 10
-0.203916201451
 20
34.6051864057
 10
-0.235157812716
 20
34.6442176872
 10
-0.268311131126
 20
34.68163876
 10
-0.303293290653
 20
34.7173560909
 10
-0.340016854115
 20
34.7512804051
 10
-0.378390031729
 20
34.7833269096
 10
-0.418316910536
 20
34.8134155048
 10
-0.459697694132
 20
34.8414709848
 10
-0.502428952108
 20
34.8674232256
 10
-0.546403878574
 20
34.8912073601
 10
-0.591512559116
 20
34.9127639403
 10
-0.637642245523
 20
34.932039086
 10
-0.684677637605
 20
34.9489846194
 10
-0.732501171375
 20
34.9635581854
 10
-0.780993312907
 20
34.9757233578
 10
-0.8300328571
 20
34.98544973
 10
-0.879497230633
 20
34.992712991
 10
-0.929262798332
 20
34.9974949866
 10
-0.979205172197
 20
34.9997837642
 10
-1.0
 20
35.0
  0
LWPOLYLINE
  5
603
330
2A
100
AcDbEntity
  8
0
 62
     0
100
AcDbPolyline
 90
       33
 70
     0
 43
0.0
 10
-36.0
 20
31.0
 10
-35.9987502604
 20
30.9500208307
 10
-35.9950041653
 20
30.9001665834
 10
-35.9887710779
 20
30.8505618675
 10
-35.9800665778
 20
30.8013306692
 10
-35.9689124217
 20
30.7525960407
 10
-35.9553364891
 20
30.7044797933
 10
-35.9393727128
 20
30.6571021925
 10
-35.921060994
 20
30.6105816577
 10
-35.9004471024
 20
30.5650344659
 10
-35.8775825619
 20
30.5205744614
 10
-35.8525245221
 20
30.4773127711
 10
-35.8253356149
 20
30.4353575266
 10
-35.7960837985
 20
30.3948135943
 10
-35.7648421873
 20
30.3557823128
 10
-35.7316888689
 20
30.31836124
 10
-35.6967067093
 20
30.2826439091
 10
-35.6599831459
 20
30.2487195949
 10
-35.6216099683
 20
30.2166730904
 10
-35.5816830895
 20
30.1865844952
 10
-35.5403023059
 20
30.1585290152
 10
-35.4975710479
 20
30.1325767744
 10
-35.4535961214
 20
30.1087926399
 10
-35.4084874409
 20
30.0872360597
 10
-35.3623577545
 20
30.067960914
 10
-35.3153223624
 20
30.0510153806
 10
-35.2674988286
 20
30.0364418146
 10
-35.2190066871
 20
30.0242766422
 10
-35.1699671429
 20
30.01455027
 10
-35.1205027694
 20
30.007287009
 10
-35.0707372017
 20
30.0025050134
 10
-35.0207948278
 20
30.0002162358
 10
-35.0
 20
30.0
  0
LWPOLYLINE
  5
626
330
2A
100
AcDbEntity
  8
0
 62
     0
100
AcDbPolyline
 90
       33
 70
     0
 43
0.0
 10
-35.0
 20
35.0
 10
-35.0499791693
 20
34.9987502604
 10
-35.0998334166
 20
34.9950041653
 10
-35.1494381325
 20
34.9887710779
 10
-35.1986693308
 20
34.9800665778
 10
-35.2474039593
 20
34.9689124217
 10
-35.2955202067
 20
34.9553364891
 10
-35.3428978075
 20
34.9393727128
 10
-35.3894183423
 20
34.921060994
 10
-35.4349655341
 20
34.9004471024
 10
-35.4794255386
 20
34.8775825619
 10
-35.5226872289
 20
34.8525245221
 10
-35.5646424734
 20
34.8253356149
 10
-35.6051864057
 20
34.7960837985
 10
-35.6442176872
 20
34.7648421873
 10
-35.68163876
 20
34.7316888689
 10
-35.7173560909
 20
34.6967067093
 10
-35.7512804051
 20
34.6599831459
 10
-35.7833269096
 20
34.6216099683
 10
-35.8134155048
 20
34.5816830895
 10
-35.8414709848
 20
34.5403023059
 10
-35.8674232256
 20
34.4975710479
 10
-35.8912073601
 20
34.4535961214
 10
-35.9127639403
 20
34.4084874409
 10
-35.932039086
 20
34.3623577545
 10
-35.9489846194
 20
34.3153223624
 10
-35.9635581854
 20
34.2674988286
 10
-35.9757233578
 20
34.2190066871
 10
-35.98544973
 20
34.1699671429
 10
-35.992712991
 20
34.1205027694
 10
-35.9974949866
 20
34.0707372017
 10
-35.9997837642
 20
34.0207948278
 10
-36.0
 20
34.0
  0
LWPOLYLINE
  5
649
330
2A
100
AcDbEntity
  8
0
 62
     0
100
AcDbPolyline
 90
       33
 70
     0
 43
0.0
 10
-1.0
 20
45.0
 10
-0.950020830729
 20
45.0012497396
 10
-0.900166583353
 20
45.0049958347
 10
-0.850561867526
 20
45.0112289221
 10
-0.801330669205
 20
45.0199334222
 10
-0.752596040745
 20
45.0310875783
 10
-0.704479793339
 20
45.0446635109
 10
-0.657102192545
 20
45.0606272872
 10
-0.610581657691
 20
45.078939006
 10
-0.565034465889
 20
45.0995528976
 10
-0.520574461396
 20
45.1224174381
 10
-0.477312771069
 20
45.1474754779
 10
-0.435357526605
 20
45.1746643851
 10
-0.394813594264
 20
45.2039162015
 10
-0.355782312762
 20
45.2351578127
 10
-0.318361239977
 20
45.2683111311
 10
-0.2826439091
 20
45.3032932907
 10
-0.24871959486
 20
45.3400168541
 10
-0.216673090373
 20
45.3783900317
 10
-0.186584495211
 20
45.4183169105
 10
-0.158529015192
 20
45.4596976941
 10
-0.132576774406
 20
45.5024289521
 10
-0.108792639939
 20
45.5464038786
 10
-0.0872360597395
 20
45.5915125591
 10
-0.0679609140328
 20
45.6376422455
 10
-0.0510153806444
 20
45.6846776376
 10
-0.0364418145828
 20
45.7325011714
 10
-0.0242766421733
 20
45.7809933129
 10
-0.0145502700115
 20
45.8300328571
 10
-0.00728700896241
 20
45.8794972306
 10
-0.00250501339595
 20
45.9292627983
 10
-0.000216235810643
 20
45.9792051722
 10
0.0000000000000002
 20
46.0
  0
LWPOLYLINE
  5
66C
330
2A
100
AcDbEntity
  8
0
 62
     0
100
AcDbPolyline
 90
       33
 70
     0
 43
0.0
 10
0.0000000000000002
 20
49.0
 10
-0.00124973960503
 20
49.0499791693
 10
-0.00499583472197
 20
49.0998334166
 10
-0.011228922064
 20
49.1494381325
 10
-0.0199334221588
 20
49.1986693308
 10
-0.0310875782894
 20
49.2474039593
 10
-0.0446635108744
 20
49.2955202067
 10
-0.0606272871526
 20
49.3428978075
 10
-0.0789390059971
 20
49.3894183423
 10
-0.0995528976473
 20
49.4349655341
 10
-0.12241743811
 20
49.4794255386
 10
-0.14747547794
 20
49.5226872289
 10
-0.17466438509
 20
49.5646424734
 10
-0.203916201451
 20
49.6051864057
 10
-0.235157812716
 20
49.6442176872
 10
-0.268311131126
 20
49.68163876
 10
-0.303293290653
 20
49.7173560909
 10
-0.340016854115
 20
49.7512804051
 10
-0.378390031729
 20
49.7833269096
 10
-0.418316910536
 20
49.8134155048
 10
-0.459697694132
 20
49.8414709848
 10
-0.502428952108
 20
49.8674232256
 10
-0.546403878574
 20
49.8912073601
 10
-0.591512559116
 20
49.9127639403
 10
-0.637642245523
 20
49.932039086
 10
-0.684677637605
 20
49.9489846194
 10
-0.732501171375
 20
49.9635581854
 10
-0.780993312907
 20
49.9757233578
 10
-0.8300328571
 20
49.98544973
 10
-0.879497230633
 20
49.992712991
 10
-0.929262798332
 20
49.9974949866
 10
-0.979205172197
 20
49.9997837642
 10
-1.0
 20
50.0
  0
LWPOLYLINE
  5
68F
330
2A
100
AcDbEntity
  8
0
 62
     0
100
AcDbPolyline
 90
       33
 70
     0
 43
0.0
 10
-36.0
 20
46.0
 10
-35.9987502604
 20
45.9500208307
 10
-35.9950041653
 20
45.9001665834
 10
-35.9887710779
 20
45.8505618675
 10
-35.9800665778
 20
45.8013306692
 10
-35.9689124217
 20
45.7525960407
 10
-35.9553364891
 20
45.7044797933
 10
-35.9393727128
 20
45.6571021925
 10
-35.921060994
 20
45.6105816577
 10
-35.9004471024
 20
45.5650344659
 10
-35.8775825619
 20
45.5205744614
 10
-35.8525245221
 20
45.4773127711
 10
-35.8253356149
 20
45.4353575266
 10
-35.7960837985
 20
45.3948135943
 10
-35.7648421873
 20
45.3557823128
 10
-35.7316888689
 20
45.31836124
 10
-35.6967067093
 20
45.2826439091
 10
-35.6599831459
 20
45.2487195949
 10
-35.6216099683
 20
45.2166730904
 10
-35.5816830895
 20
45.1865844952
 10
-35.5403023059
 20
45.1585290152
 10
-35.4975710479
 20
45.1325767744
 10
-35.4535961214
 20
45.1087926399
 10
-35.4084874409
 20
45.0872360597
 10
-35.3623577545
 20
45.067960914
 10
-35.3153223624
 20
45.0510153806
 10
-35.2674988286
 20
45.0364418146
 10
-35.2190066871
 20
45.0242766422
 10
-35.1699671429
 20
45.01455027
 10
-35.1205027694
 20
45.007287009
 10
-35.0707372017
 20
45.0025050134
 10
-35.0207948278
 20
45.0002162358
 10
-35.0
 20
45.0
  0
LWPOLYLINE
  5
6B2
330
2A
100
AcDbEntity
  8
0
 62
     0
100
AcDbPolyline
 90
       33
 70
     0
 43
0.0
 10
-35.0
 20
50.0
 10
-35.0499791693
 20
49.9987502604
 10
-35.0998334166
 20
49.9950041653
 10
-35.1494381325
 20
49.9887710779
 10
-35.1986693308
 20
49.9800665778
 10
-35.2474039593
 20
49.9689124217
 10
-35.2955202067
 20
49.9553364891
 10
-35.3428978075
 20
49.9393727128
 10
-35.3894183423
 20
49.921060994
 10
-35.4349655341
 20
49.9004471024
 10
-35.4794255386
 20
49.8775825619
 10
-35.5226872289
 20
49.8525245221
 10
-35.5646424734
 20
49.8253356149
 10
-35.6051864057
 20
49.7960837985
 10
-35.6442176872
 20
49.7648421873
 10
-35.68163876
 20
49.7316888689
 10
-35.7173560909
 20
49.6967067093
 10
-35.7512804051
 20
49.6599831459
 10
-35.7833269096
 20
49.6216099683
 10
-35.8134155048
 20
49.5816830895
 10
-35.8414709848
 20
49.5403023059
 10
-35.8674232256
 20
49.4975710479
 10
-35.8912073601
 20
49.4535961214
 10
-35.9127639403
 20
49.4084874409
 10
-35.932039086
 20
49.3623577545
 10
-35.9489846194
 20
49.3153223624
 10
-35.9635581854
 20
49.2674988286
 10
-35.9757233578
 20
49.2190066871
 10
-35.98544973
 20
49.1699671429
 10
-35.992712991
 20
49.1205027694
 10
-35.9974949866
 20
49.0707372017
 10
-35.9997837642
 20
49.0207948278
 10
-36.0
 20
49.0
  0
LWPOLYLINE
  5
6D5
330
2A
100
AcDbEntity
  8
0
 62
     0
100
AcDbPolyline
 90
      409
 70
     1
 43
0.0
 10
-12.0
 20
13.25
 10
-12.0499980276
 20
13.2496153922
 10
-12.0999842217
 20
13.2484616598
 10
-12.1499467512
 20
13.246539076
 10
-12.1998737912
 20
13.2438480956
 10
-12.2497535246
 20
13.2403893558
 10
-12.299574146
 20
13.236163675
 10
-12.3493238636
 20
13.2311720533
 10
-12.3989909027
 20
13.2254156724
 10
-12.4485635079
 20
13.2188958945
 10
-12.4980299463
 20
13.2116142627
 10
-12.5473785101
 20
13.2035725006
 10
-12.5965975195
 20
13.1947725114
 10
-12.6456753251
 20
13.185216378
 10
-12.6946003112
 20
13.174906362
 10
-12.743360898
 20
13.1638449038
 10
-12.791945545
 20
13.1520346213
 10
-12.8403427529
 20
13.1394783098
 10
-12.888541067
 20
13.1261789412
 10
-12.9365290797
 20
13.1121396631
 10
-12.9842954331
 20
13.0973637985
 10
-13.0318288217
 20
13.0818548445
 10
-13.0791179953
 20
13.0656164718
 10
-13.1261517615
 20
13.0486525237
 10
-13.172918988
 20
13.0309670152
 10
-13.2194086061
 20
13.0125641323
 10
-13.2656096125
 20
12.9934482305
 10
-13.3115110722
 20
12.9736238342
 10
-13.3571021212
 20
12.9530956355
 10
-13.4023719689
 20
12.9318684931
 10
-13.4473099009
 20
12.9099474309
 10
-13.491905281
 20
12.8873376374
 10
-13.5361475544
 20
12.8640444639
 10
-13.5800262498
 20
12.8400734234
 10
-13.6235309818
 20
12.8154301894
 10
-13.6666514537
 20
12.7901205945
 10
-13.7093774597
 20
12.7641506291
 10
-13.7516988873
 20
12.7375264397
 10
-13.7936057198
 20
12.7102543279
 10
-13.8350880385
 20
12.6823407485
 10
-13.8761360255
 20
12.653792308
 10
-13.9167399654
 20
12.6246157633
 10
-13.956890248
 20
12.5948180201
 10
-13.9965773704
 20
12.5644061309
 10
-14.0357919394
 20
12.5333872936
 10
-14.0745246737
 20
12.5017688499
 10
-14.1127664059
 20
12.4695582832
 10
-14.150508085
 20
12.4367632172
 10
-14.187740778
 20
12.4033914138
 10
-14.2244556729
 20
12.3694507717
 10
-14.2606440797
 20
12.3349493239
 10
-14.2962974334
 20
12.2998952362
 10
-14.3314072954
 20
12.2642968054
 10
-14.365965356
 20
12.2281624569
 10
-14.3999634358
 20
12.1915007431
 10
-14.4333934881
 20
12.1543203411
 10
-14.4662476007
 20
12.1166300508
 10
-14.4985179975
 20
12.078438793
 10
-14.5301970408
 20
12.0397556066
 10
-14.5612772327
 20
12.0005896474
 10
-14.5917512171
 20
11.9609501851
 10
-14.6216117814
 20
11.9208466018
 10
-14.650851858
 20
11.8802883893
 10
-14.6794645265
 20
11.8392851468
 10
-14.7074430147
 20
11.7978465791
 10
-14.7347807006
 20
11.7559824941
 10
-14.7614711139
 20
11.7137028
 10
-14.7875079375
 20
11.6710175039
 10
-14.8128850089
 20
11.6279367084
 10
-14.8375963219
 20
11.5844706101
 10
-14.8616360276
 20
11.5406294965
 10
-14.8849984364
 20
11.4964237441
 10
-14.9076780188
 20
11.4518638156
 10
-14.929669407
 20
11.4069602574
 10
-14.9509673959
 20
11.3617236974
 10
-14.9715669449
 20
11.3161648424
 10
-14.9914631782
 20
11.2702944751
 10
-15.0106513869
 20
11.2241234524
 10
-15.0291270294
 20
11.177662702
 10
-15.0468857329
 20
11.1309232205
 10
-15.0639232943
 20
11.08391607
 10
-15.080235681
 20
11.0366523764
 10
-15.0958190322
 20
10.9891433262
 10
-15.1106696597
 20
10.9414001638
 10
-15.1247840485
 20
10.8934341892
 10
-15.138158858
 20
10.845256755
 10
-15.1507909227
 20
10.7968792641
 10
-15.1626772528
 20
10.7483131663
 10
-15.1738150349
 20
10.6995699566
 10
-15.1842016331
 20
10.6506611714
 10
-15.1938345889
 20
10.6015983866
 10
-15.2027116225
 20
10.5523932144
 10
-15.2108306327
 20
10.5030573009
 10
-15.2181896981
 20
10.4536023229
 10
-15.2247870767
 20
10.4040399855
 10
-15.2306212072
 20
10.3543820193
 10
-15.2356907087
 20
10.3046401773
 10
-15.2399943814
 20
10.2548262325
 10
-15.2435312066
 20
10.2049519751
 10
-15.2463003472
 20
10.1550292092
 10
-15.2483011479
 20
10.1050697508
 10
-15.2495331351
 20
10.0550854242
 10
-15.2499960172
 20
10.00508806
 10
-15.2496896846
 20
9.95508949151
 10
-15.2486142099
 20
9.90510155252
 10
-15.2467698476
 20
9.85513607425
 10
-15.2441570342
 20
9.80520488263
 10
-15.2407763881
 20
9.75531979545
 10
-15.2366287095
 20
9.70549261961
 10
-15.23171498
 20
9.65573514828
 10
-15.2260363626
 20
9.60605915814
 10
-15.2195942015
 20
9.5564764066
 10
-15.2123900212
 20
9.50699862899
 10
-15.2044255269
 20
9.4576375358
 10
-15.1957026037
 20
9.40840480988
 10
-15.186223316
 20
9.35931210374
 10
-15.1759899076
 20
9.31037103671
 10
-15.1650048004
 20
9.26159319225
 10
-15.1532705944
 20
9.21299011518
 10
-15.1407900668
 20
9.16457330897
 10
-15.1275661717
 20
9.11635423299
 10
-15.1136020388
 20
9.06834429981
 10
-15.0989009733
 20
9.0205548725
 10
-15.0834664545
 20
8.97299726196
 10
-15.0673021356
 20
8.92568272419
 10
-15.0504118423
 20
8.87862245769
 10
-15.0327995723
 20
8.83182760075
 10
-15.014469494
 20
8.78530922887
 10
-14.995425946
 20
8.73907835209
 10
-14.9756734353
 20
8.69314591242
 10
-14.9552166372
 20
8.64752278122
 10
-14.9340603933
 20
8.60221975666
 10
-14.9122097109
 20
8.55724756114
 10
-14.8896697617
 20
8.51261683875
 10
-14.8664458805
 20
8.46833815277
 10
-14.8425435639
 20
8.42442198315
 10
-14.8179684693
 20
8.38087872405
 10
-14.792726413
 20
8.33771868136
 10
-14.7668233694
 20
8.29495207028
 10
-14.7402654693
 20
8.25258901288
 10
-14.7130589984
 20
8.21063953572
 10
-14.6852103961
 20
8.16911356747
 10
-14.6567262535
 20
8.12802093658
 10
-14.6276133124
 20
8.08737136892
 10
-14.5978784633
 20
8.0471744855
 10
-14.5675287438
 20
8.00743980018
 10
-14.5365713372
 20
7.96817671744
 10
-14.5050135705
 20
7.92939453014
 10
-14.4728629128
 20
7.8911024173
 10
-14.4401269738
 20
7.85330944198
 10
-14.4068135012
 20
7.81602454907
 10
-14.3729303799
 20
7.77925656324
 10
-14.3384856294
 20
7.74301418679
 10
-14.3034874021
 20
7.70730599762
 10
-14.2679439814
 20
7.67214044722
 10
-14.2318637798
 20
7.63752585863
 10
-14.1952553368
 20
7.60347042449
 10
-14.158127317
 20
7.5699822051
 10
-14.1204885079
 20
7.5370691265
 10
-14.082347818
 20
7.50473897862
 10
-14.0437142744
 20
7.47299941342
 10
-14.004597021
 20
7.44185794307
 10
-13.9650053161
 20
7.41132193818
 10
-13.9249485304
 20
7.38139862608
 10
-13.8844361445
 20
7.35209508906
 10
-13.843477747
 20
7.32341826274
 10
-13.8020830321
 20
7.29537493439
 10
-13.760261797
 20
7.26797174136
 10
-13.7180239401
 20
7.24121516948
 10
-13.6753794584
 20
7.21511155155
 10
-13.632338445
 20
7.18966706581
 10
-13.5889110869
 20
7.16488773451
 10
-13.5451076626
 20
7.14077942247
 10
-13.5009385395
 20
7.11734783567
 10
-13.4564141718
 20
7.09459851996
 10
-13.4115450974
 20
7.07253685967
 10
-13.3663419361
 20
7.05116807639
 10
-13.3208153866
 20
7.03049722774
 10
-13.2749762243
 20
7.01052920611
 10
-13.2288352984
 20
6.99126873759
 10
-13.1824035296
 20
6.97272038075
 10
-13.1356919076
 20
6.95488852568
 10
-13.088711488
 20
6.93777739283
 10
-13.0414733903
 20
6.9213910321
 10
-12.9939887949
 20
6.90573332184
 10
-12.9462689405
 20
6.89080796795
 10
-12.8983251216
 20
6.87661850298
 10
-12.8501686855
 20
6.86316828533
 10
-12.8018110301
 20
6.85046049841
 10
-12.7532636006
 20
6.83849814992
 10
-12.7045378874
 20
6.82728407114
 10
-12.6556454229
 20
6.81682091622
 10
-12.6065977792
 20
6.80711116161
 10
-12.5574065648
 20
6.79815710543
 10
-12.5080834225
 20
6.78996086695
 10
-12.4586400262
 20
6.78252438605
 10
-12.4090880781
 20
6.77584942282
 10
-12.3594393064
 20
6.7699375571
 10
-12.309705462
 20
6.76479018813
 10
-12.2598983159
 20
6.76040853418
 10
-12.2100296566
 20
6.75679363232
 10
-12.1601112872
 20
6.75394633813
 10
-12.1101550224
 20
6.75186732552
 10
-12.0601726858
 20
6.75055708653
 10
-12.0101761075
 20
6.7500159313
 10
-11.9601771207
 20
6.75024398788
 10
-11.9101875593
 20
6.75124120232
 10
-11.8602192548
 20
6.75300733859
 10
-11.8102840339
 20
6.75554197867
 10
-11.7603937152
 20
6.75884452266
 10
-11.710560107
 20
6.76291418891
 10
-11.6607950039
 20
6.76775001421
 10
-11.6111101845
 20
6.773350854
 10
-11.5615174081
 20
6.77971538267
 10
-11.5120284126
 20
6.78684209384
 10
-11.462654911
 20
6.79472930077
 10
-11.4134085892
 20
6.80337513668
 10
-11.3643011029
 20
6.81277755527
 10
-11.3153440748
 20
6.82293433116
 10
-11.2665490923
 20
6.83384306042
 10
-11.2179277043
 20
6.84550116116
 10
-11.1694914184
 20
6.85790587412
 10
-11.1212516988
 20
6.87105426332
 10
-11.0732199628
 20
6.88494321679
 10
-11.0254075787
 20
6.89956944727
 10
-10.9778258628
 20
6.91492949299
 10
-10.9304860768
 20
6.93101971851
 10
-10.8833994253
 20
6.94783631557
 10
-10.8365770527
 20
6.96537530398
 10
-10.790030041
 20
6.98363253259
 10
-10.7437694072
 20
7.00260368026
 10
-10.6978061001
 20
7.02228425684
 10
-10.6521509985
 20
7.04266960431
 10
-10.6068149082
 20
7.06375489784
 10
-10.5618085593
 20
7.08553514691
 10
-10.517142604
 20
7.10800519655
 10
-10.472827614
 20
7.13115972849
 10
-10.4288740778
 20
7.15499326249
 10
-10.3852923983
 20
7.17950015759
 10
-10.3420928906
 20
7.20467461344
 10
-10.2992857793
 20
7.23051067173
 10
-10.2568811959
 20
7.25700221751
 10
-10.2148891769
 20
7.28414298074
 10
-10.1733196609
 20
7.31192653768
 10
-10.1321824868
 20
7.34034631248
 10
-10.091487391
 20
7.36939557869
 10
-10.0512440053
 20
7.39906746089
 10
-10.0114618544
 20
7.42935493628
 10
-9.97215035423
 20
7.46025083637
 10
-9.93331880898
 20
7.49174784867
 10
-9.89497640938
 20
7.5238385184
 10
-9.8571322304
 20
7.5565152503
 10
-9.81979522905
 20
7.58977031038
 10
-9.78297424232
 20
7.62359582778
 10
-9.74667798506
 20
7.6579837966
 10
-9.71091504794
 20
7.69292607785
 10
-9.67569389539
 20
7.72841440134
 10
-9.64102286361
 20
7.76444036761
 10
-9.6069101586
 20
7.80099544999
 10
-9.57336385421
 20
7.83807099655
 10
-9.54039189025
 20
7.87565823219
 10
-9.50800207057
 20
7.9137482607
 10
-9.47620206125
 20
7.95233206687
 10
-9.44499938878
 20
7.99140051861
 10
-9.41440143825
 20
8.03094436913
 10
-9.38441545164
 20
8.07095425913
 10
-9.35504852609
 20
8.111420719
 10
-9.3263076122
 20
8.15233417106
 10
-9.29819951244
 20
8.19368493186
 10
-9.27073087947
 20
8.23546321441
 10
-9.24390821461
 20
8.27765913057
 10
-9.2177378663
 20
8.32026269334
 10
-9.19222602859
 20
8.36326381922
 10
-9.16737873966
 20
8.40665233064
 10
-9.1432018804
 20
8.45041795833
 10
-9.11970117304
 20
8.49455034377
 10
-9.09688217977
 20
8.53903904163
 10
-9.07475030143
 20
8.58387352224
 10
-9.05331077622
 20
8.6290431741
 10
-9.03256867849
 20
8.67453730639
 10
-9.01252891752
 20
8.72034515147
 10
-8.99319623635
 20
8.76645586747
 10
-8.97457521067
 20
8.81285854081
 10
-8.95667024775
 20
8.85954218884
 10
-8.93948558534
 20
8.90649576239
 10
-8.92302529076
 20
8.9537081484
 10
-8.90729325986
 20
9.00116817257
 10
-8.89229321611
 20
9.04886460198
 10
-8.87802870976
 20
9.09678614775
 10
-8.86450311694
 20
9.14492146773
 10
-8.85171963893
 20
9.19325916917
 10
-8.83968130134
 20
9.24178781143
 10
-8.82839095342
 20
9.29049590864
 10
-8.81785126739
 20
9.33937193251
 10
-8.8080647378
 20
9.38840431497
 10
-8.79903368095
 20
9.43758145094
 10
-8.79076023432
 20
9.48689170111
 10
-8.78324635609
 20
9.53632339463
 10
-8.77649382464
 20
9.58586483194
 10
-8.77050423819
 20
9.63550428746
 10
-8.76527901436
 20
9.68523001246
 10
-8.76081938986
 20
9.73503023776
 10
-8.75712642021
 20
9.78489317656
 10
-8.75420097946
 20
9.83480702722
 10
-8.75204376001
 20
9.88475997603
 10
-8.75065527244
 20
9.93474020005
 10
-8.75003584538
 20
9.98473586987
 10
-8.75018562543
 20
10.0347351524
 10
-8.75110457714
 20
10.0847262138
 10
-8.75279248301
 20
10.1346972221
 10
-8.75524894356
 20
10.1846363499
 10
-8.75847337737
 20
10.2345317777
 10
-8.76246502128
 20
10.2843716962
 10
-8.76722293055
 20
10.334144309
 10
-8.77274597907
 20
10.383837836
 10
-8.77903285962
 20
10.4334405156
 10
-8.78608208422
 20
10.4829406078
 10
-8.79389198445
 20
10.5323263967
 10
-8.80246071185
 20
10.5815861937
 10
-8.81178623835
 20
10.6307083399
 10
-8.82186635678
 20
10.679681209
 10
-8.83269868135
 20
10.7284932099
 10
-8.84428064825
 20
10.7771327898
 10
-8.85660951625
 20
10.8255884366
 10
-8.86968236731
 20
10.8738486817
 10
-8.88349610734
 20
10.9219021028
 10
-8.89804746689
 20
10.9697373265
 10
-8.9133330019
 20
11.017343031
 10
-8.92934909457
 20
11.0647079491
 10
-8.94609195418
 20
11.1118208703
 10
-8.96355761802
 20
11.1586706438
 10
-8.98174195226
 20
11.2052461812
 10
-9.00064065302
 20
11.2515364588
 10
-9.02024924731
 20
11.2975305206
 10
-9.04056309414
 20
11.3432174806
 10
-9.0615773856
 20
11.3885865256
 10
-9.08328714798
 20
11.4336269176
 10
-9.10568724298
 20
11.4783279963
 10
-9.12877236891
 20
11.5226791817
 10
-9.15253706194
 20
11.5666699769
 10
-9.1769756974
 20
11.6102899698
 10
-9.20208249112
 20
11.6535288366
 10
-9.22785150077
 20
11.6963763433
 10
-9.2542766273
 20
11.7388223488
 10
-9.28135161637
 20
11.7808568068
 10
-9.30907005982
 20
11.8224697685
 10
-9.3374253972
 20
11.8636513849
 10
-9.36641091732
 20
11.9043919091
 10
-9.39601975985
 20
11.9446816986
 10
-9.4262449169
 20
11.9845112175
 10
-9.45707923474
 20
12.0238710388
 10
-9.48851541544
 20
12.0627518468
 10
-9.52054601864
 20
12.1011444392
 10
-9.55316346328
 20
12.1390397291
 10
-9.58636002941
 20
12.1764287474
 10
-9.62012786
 20
12.2133026447
 10
-9.65445896282
 20
12.2496526938
 10
-9.68934521234
 20
12.2854702913
 10
-9.72477835161
 20
12.3207469596
 10
-9.76074999427
 20
12.3554743496
 10
-9.79725162646
 20
12.3896442419
 10
-9.83427460894
 20
12.4232485491
 10
-9.87181017903
 20
12.4562793176
 10
-9.90984945276
 20
12.4887287297
 10
-9.94838342691
 20
12.5205891052
 10
-9.98740298121
 20
12.5518529033
 10
-10.0268988804
 20
12.5825127245
 10
-10.0668617766
 20
12.6125613121
 10
-10.1072822113
 20
12.6419915542
 10
-10.1481506177
 20
12.6707964852
 10
-10.189457323
 20
12.6989692875
 10
-10.2311925507
 20
12.7265032931
 10
-10.2733464227
 20
12.7533919852
 10
-10.3159089621
 20
12.7796289997
 10
-10.358870095
 20
12.8052081269
 10
-10.4022196534
 20
12.8301233125
 10
-10.4459473772
 20
12.8543686597
 10
-10.4900429169
 20
12.8779384301
 10
-10.5344958358
 20
12.900827045
 10
-10.5792956128
 20
12.9230290871
 10
-10.6244316445
 20
12.9445393017
 10
-10.6698932481
 20
12.9653525977
 10
-10.7156696636
 20
12.9854640489
 10
-10.7617500567
 20
13.0048688953
 10
-10.8081235209
 20
13.0235625442
 10
-10.8547790805
 20
13.0415405711
 10
-10.9017056929
 20
13.0587987209
 10
-10.9488922516
 20
13.075332909
 10
-10.9963275882
 20
13.091139222
 10
-11.0440004757
 20
13.1062139188
 10
-11.0918996309
 20
13.1205534316
 10
-11.1400137168
 20
13.1341543664
 10
-11.1883313457
 20
13.1470135042
 10
-11.2368410818
 20
13.1591278014
 10
-11.2855314436
 20
13.1704943908
 10
-11.3343909071
 20
13.1811105821
 10
-11.3834079081
 20
13.1909738627
 10
-11.4325708452
 20
13.2000818981
 10
-11.4818680824
 20
13.2084325326
 10
-11.5312879519
 20
13.2160237897
 10
-11.580818757
 20
13.2228538728
 10
-11.6304487747
 20
13.2289211653
 10
-11.6801662584
 20
13.2342242312
 10
-11.7299594408
 20
13.2387618153
 10
-11.779816537
 20
13.2425328437
 10
-11.8297257465
 20
13.2455364239
 10
-11.8796752569
 20
13.2477718448
 10
-11.9296532459
 20
13.2492385776
 10
-11.9796478847
 20
13.249936275
  0
LWPOLYLINE
  5
870
330
2A
100
AcDbEntity
  8
0
 62
     0
100
AcDbPolyline
 90
      409
 70
     1
 43
0.0
 10
-24.0
 20
13.25
 10
-24.0499980276
 20
13.2496153922
 10
-24.0999842217
 20
13.2484616598
 10
-24.1499467512
 20
13.246539076
 10
-24.1998737912
 20
13.2438480956
 10
-24.2497535246
 20
13.2403893558
 10
-24.299574146
 20
13.236163675
 10
-24.3493238636
 20
13.2311720533
 10
-24.3989909027
 20
13.2254156724
 10
-24.4485635079
 20
13.2188958945
 10
-24.4980299463
 20
13.2116142627
 10
-24.5473785101
 20
13.2035725006
 10
-24.5965975195
 20
13.1947725114
 10
-24.6456753251
 20
13.185216378
 10
-24.6946003112
 20
13.174906362
 10
-24.743360898
 20
13.1638449038
 10
-24.791945545
 20
13.1520346213
 10
-24.8403427529
 20
13.1394783098
 10
-24.888541067
 20
13.1261789412
 10
-24.9365290797
 20
13.1121396631
 10
-24.9842954331
 20
13.0973637985
 10
-25.0318288217
 20
13.0818548445
 10
-25.0791179953
 20
13.0656164718
 10
-25.1261517615
 20
13.0486525237
 10
-25.172918988
 20
13.0309670152
 10
-25.2194086061
 20
13.0125641323
 10
-25.2656096125
 20
12.9934482305
 10
-25.3115110722
 20
12.9736238342
 10
-25.3571021212
 20
12.9530956355
 10
-25.4023719689
 20
12.9318684931
 10
-25.4473099009
 20
12.9099474309
 10
-25.491905281
 20
12.8873376374
 10
-25.5361475544
 20
12.8640444639
 10
-25.5800262498
 20
12.8400734234
 10
-25.6235309818
 20
12.8154301894
 10
-25.6666514537
 20
12.7901205945
 10
-25.7093774597
 20
12.7641506291
 10
-25.7516988873
 20
12.7375264397
 10
-25.7936057198
 20
12.7102543279
 10
-25.8350880385
 20
12.6823407485
 10
-25.8761360255
 20
12.653792308
 10
-25.9167399654
 20
12.6246157633
 10
-25.956890248
 20
12.5948180201
 10
-25.9965773704
 20
12.5644061309
 10
-26.0357919394
 20
12.5333872936
 10
-26.0745246737
 20
12.5017688499
 10
-26.1127664059
 20
12.4695582832
 10
-26.150508085
 20
12.4367632172
 10
-26.187740778
 20
12.4033914138
 10
-26.2244556729
 20
12.3694507717
 10
-26.2606440797
 20
12.3349493239
 10
-26.2962974334
 20
12.2998952362
 10
-26.3314072954
 20
12.2642968054
 10
-26.365965356
 20
12.2281624569
 10
-26.3999634358
 20
12.1915007431
 10
-26.4333934881
 20
12.1543203411
 10
-26.4662476007
 20
12.1166300508
 10
-26.4985179975
 20
12.078438793
 10
-26.5301970408
 20
12.0397556066
 10
-26.5612772327
 20
12.0005896474
 10
-26.5917512171
 20
11.9609501851
 10
-26.6216117814
 20
11.9208466018
 10
-26.650851858
 20
11.8802883893
 10
-26.6794645265
 20
11.8392851468
 10
-26.7074430147
 20
11.7978465791
 10
-26.7347807006
 20
11.7559824941
 10
-26.7614711139
 20
11.7137028
 10
-26.7875079375
 20
11.6710175039
 10
-26.8128850089
 20
11.6279367084
 10
-26.8375963219
 20
11.5844706101
 10
-26.8616360276
 20
11.5406294965
 10
-26.8849984364
 20
11.4964237441
 10
-26.9076780188
 20
11.4518638156
 10
-26.929669407
 20
11.4069602574
 10
-26.9509673959
 20
11.3617236974
 10
-26.9715669449
 20
11.3161648424
 10
-26.9914631782
 20
11.2702944751
 10
-27.0106513869
 20
11.2241234524
 10
-27.0291270294
 20
11.177662702
 10
-27.0468857329
 20
11.1309232205
 10
-27.0639232943
 20
11.08391607
 10
-27.080235681
 20
11.0366523764
 10
-27.0958190322
 20
10.9891433262
 10
-27.1106696597
 20
10.9414001638
 10
-27.1247840485
 20
10.8934341892
 10
-27.138158858
 20
10.845256755
 10
-27.1507909227
 20
10.7968792641
 10
-27.1626772528
 20
10.7483131663
 10
-27.1738150349
 20
10.6995699566
 10
-27.1842016331
 20
10.6506611714
 10
-27.1938345889
 20
10.6015983866
 10
-27.2027116225
 20
10.5523932144
 10
-27.2108306327
 20
10.5030573009
 10
-27.2181896981
 20
10.4536023229
 10
-27.2247870767
 20
10.4040399855
 10
-27.2306212072
 20
10.3543820193
 10
-27.2356907087
 20
10.3046401773
 10
-27.2399943814
 20
10.2548262325
 10
-27.2435312066
 20
10.2049519751
 10
-27.2463003472
 20
10.1550292092
 10
-27.2483011479
 20
10.1050697508
 10
-27.2495331351
 20
10.0550854242
 10
-27.2499960172
 20
10.00508806
 10
-27.2496896846
 20
9.95508949151
 10
-27.2486142099
 20
9.90510155252
 10
-27.2467698476
 20
9.85513607425
 10
-27.2441570342
 20
9.80520488263
 10
-27.2407763881
 20
9.75531979545
 10
-27.2366287095
 20
9.70549261961
 10
-27.23171498
 20
9.65573514828
 10
-27.2260363626
 20
9.60605915814
 10
-27.2195942015
 20
9.5564764066
 10
-27.2123900212
 20
9.50699862899
 10
-27.2044255269
 20
9.4576375358
 10
-27.1957026037
 20
9.40840480988
 10
-27.186223316
 20
9.35931210374
 10
-27.1759899076
 20
9.31037103671
 10
-27.1650048004
 20
9.26159319225
 10
-27.1532705944
 20
9.21299011518
 10
-27.1407900668
 20
9.16457330897
 10
-27.1275661717
 20
9.11635423299
 10
-27.1136020388
 20
9.06834429981
 10
-27.0989009733
 20
9.0205548725
 10
-27.0834664545
 20
8.97299726196
 10
-27.0673021356
 20
8.92568272419
 10
-27.0504118423
 20
8.87862245769
 10
-27.0327995723
 20
8.83182760075
 10
-27.014469494
 20
8.78530922887
 10
-26.995425946
 20
8.73907835209
 10
-26.9756734353
 20
8.69314591242
 10
-26.9552166372
 20
8.64752278122
 10
-26.9340603933
 20
8.60221975666
 10
-26.9122097109
 20
8.55724756114
 10
-26.8896697617
 20
8.51261683875
 10
-26.8664458805
 20
8.46833815277
 10
-26.8425435639
 20
8.42442198315
 10
-26.8179684693
 20
8.38087872405
 10
-26.792726413
 20
8.33771868136
 10
-26.7668233694
 20
8.29495207028
 10
-26.7402654693
 20
8.25258901288
 10
-26.7130589984
 20
8.21063953572
 10
-26.6852103961
 20
8.16911356747
 10
-26.6567262535
 20
8.12802093658
 10
-26.6276133124
 20
8.08737136892
 10
-26.5978784633
 20
8.0471744855
 10
-26.5675287438
 20
8.00743980018
 10
-26.5365713372
 20
7.96817671744
 10
-26.5050135705
 20
7.92939453014
 10
-26.4728629128
 20
7.8911024173
 10
-26.4401269738
 20
7.85330944198
 10
-26.4068135012
 20
7.81602454907
 10
-26.3729303799
 20
7.77925656324
 10
-26.3384856294
 20
7.74301418679
 10
-26.3034874021
 20
7.70730599762
 10
-26.2679439814
 20
7.67214044722
 10
-26.2318637798
 20
7.63752585863
 10
-26.1952553368
 20
7.60347042449
 10
-26.158127317
 20
7.5699822051
 10
-26.1204885079
 20
7.5370691265
 10
-26.082347818
 20
7.50473897862
 10
-26.0437142744
 20
7.47299941342
 10
-26.004597021
 20
7.44185794307
 10
-25.9650053161
 20
7.41132193818
 10
-25.9249485304
 20
7.38139862608
 10
-25.8844361445
 20
7.35209508906
 10
-25.843477747
 20
7.32341826274
 10
-25.8020830321
 20
7.29537493439
 10
-25.760261797
 20
7.26797174136
 10
-25.7180239401
 20
7.24121516948
 10
-25.6753794584
 20
7.21511155155
 10
-25.632338445
 20
7.18966706581
 10
-25.5889110869
 20
7.16488773451
 10
-25.5451076626
 20
7.14077942247
 10
-25.5009385395
 20
7.11734783567
 10
-25.4564141718
 20
7.09459851996
 10
-25.4115450974
 20
7.07253685967
 10
-25.3663419361
 20
7.05116807639
 10
-25.3208153866
 20
7.03049722774
 10
-25.2749762243
 20
7.01052920611
 10
-25.2288352984
 20
6.99126873759
 10
-25.1824035296
 20
6.97272038075
 10
-25.1356919076
 20
6.95488852568
 10
-25.088711488
 20
6.93777739283
 10
-25.0414733903
 20
6.9213910321
 10
-24.9939887949
 20
6.90573332184
 10
-24.9462689405
 20
6.89080796795
 10
-24.8983251216
 20
6.87661850298
 10
-24.8501686855
 20
6.86316828533
 10
-24.8018110301
 20
6.85046049841
 10
-24.7532636006
 20
6.83849814992
 10
-24.7045378874
 20
6.82728407114
 10
-24.6556454229
 20
6.81682091622
 10
-24.6065977792
 20
6.80711116161
 10
-24.5574065648
 20
6.79815710543
 10
-24.5080834225
 20
6.78996086695
 10
-24.4586400262
 20
6.78252438605
 10
-24.4090880781
 20
6.77584942282
 10
-24.3594393064
 20
6.7699375571
 10
-24.309705462
 20
6.76479018813
 10
-24.2598983159
 20
6.76040853418
 10
-24.2100296566
 20
6.75679363232
 10
-24.1601112872
 20
6.75394633813
 10
-24.1101550224
 20
6.75186732552
 10
-24.0601726858
 20
6.75055708653
 10
-24.0101761075
 20
6.7500159313
 10
-23.9601771207
 20
6.75024398788
 10
-23.9101875593
 20
6.75124120232
 10
-23.8602192548
 20
6.75300733859
 10
-23.8102840339
 20
6.75554197867
 10
-23.7603937152
 20
6.75884452266
 10
-23.710560107
 20
6.76291418891
 10
-23.6607950039
 20
6.76775001421
 10
-23.6111101845
 20
6.773350854
 10
-23.5615174081
 20
6.77971538267
 10
-23.5120284126
 20
6.78684209384
 10
-23.462654911
 20
6.79472930077
 10
-23.4134085892
 20
6.80337513668
 10
-23.3643011029
 20
6.81277755527
 10
-23.3153440748
 20
6.82293433116
 10
-23.2665490923
 20
6.83384306042
 10
-23.2179277043
 20
6.84550116116
 10
-23.1694914184
 20
6.85790587412
 10
-23.1212516988
 20
6.87105426332
 10
-23.0732199628
 20
6.88494321679
 10
-23.0254075787
 20
6.89956944727
 10
-22.9778258628
 20
6.91492949299
 10
-22.9304860768
 20
6.93101971851
 10
-22.8833994253
 20
6.94783631557
 10
-22.8365770527
 20
6.96537530398
 10
-22.790030041
 20
6.98363253259
 10
-22.7437694072
 20
7.00260368026
 10
-22.6978061001
 20
7.02228425684
 10
-22.6521509985
 20
7.04266960431
 10
-22.6068149082
 20
7.06375489784
 10
-22.5618085593
 20
7.08553514691
 10
-22.517142604
 20
7.10800519655
 10
-22.472827614
 20
7.13115972849
 10
-22.4288740778
 20
7.15499326249
 10
-22.3852923983
 20
7.17950015759
 10
-22.3420928906
 20
7.20467461344
 10
-22.2992857793
 20
7.23051067173
 10
-22.2568811959
 20
7.25700221751
 10
-22.2148891769
 20
7.28414298074
 10
-22.1733196609
 20
7.31192653768
 10
-22.1321824868
 20
7.34034631248
 10
-22.091487391
 20
7.36939557869
 10
-22.0512440053
 20
7.39906746089
 10
-22.0114618544
 20
7.42935493628
 10
-21.9721503542
 20
7.46025083637
 10
-21.933318809
 20
7.49174784867
 10
-21.8949764094
 20
7.5238385184
 10
-21.8571322304
 20
7.5565152503
 10
-21.819795229
 20
7.58977031038
 10
-21.7829742423
 20
7.62359582778
 10
-21.7466779851
 20
7.6579837966
 10
-21.7109150479
 20
7.69292607785
 10
-21.6756938954
 20
7.72841440134
 10
-21.6410228636
 20
7.76444036761
 10
-21.6069101586
 20
7.80099544999
 10
-21.5733638542
 20
7.83807099655
 10
-21.5403918902
 20
7.87565823219
 10
-21.5080020706
 20
7.9137482607
 10
-21.4762020613
 20
7.95233206687
 10
-21.4449993888
 20
7.99140051861
 10
-21.4144014382
 20
8.03094436913
 10
-21.3844154516
 20
8.07095425913
 10
-21.3550485261
 20
8.111420719
 10
-21.3263076122
 20
8.15233417106
 10
-21.2981995124
 20
8.19368493186
 10
-21.2707308795
 20
8.23546321441
 10
-21.2439082146
 20
8.27765913057
 10
-21.2177378663
 20
8.32026269334
 10
-21.1922260286
 20
8.36326381922
 10
-21.1673787397
 20
8.40665233064
 10
-21.1432018804
 20
8.45041795833
 10
-21.119701173
 20
8.49455034377
 10
-21.0968821798
 20
8.53903904163
 10
-21.0747503014
 20
8.58387352224
 10
-21.0533107762
 20
8.6290431741
 10
-21.0325686785
 20
8.67453730639
 10
-21.0125289175
 20
8.72034515147
 10
-20.9931962364
 20
8.76645586747
 10
-20.9745752107
 20
8.81285854081
 10
-20.9566702477
 20
8.85954218884
 10
-20.9394855853
 20
8.90649576239
 10
-20.9230252908
 20
8.9537081484
 10
-20.9072932599
 20
9.00116817257
 10
-20.8922932161
 20
9.04886460198
 10
-20.8780287098
 20
9.09678614775
 10
-20.8645031169
 20
9.14492146773
 10
-20.8517196389
 20
9.19325916917
 10
-20.8396813013
 20
9.24178781143
 10
-20.8283909534
 20
9.29049590864
 10
-20.8178512674
 20
9.33937193251
 10
-20.8080647378
 20
9.38840431497
 10
-20.799033681
 20
9.43758145094
 10
-20.7907602343
 20
9.48689170111
 10
-20.7832463561
 20
9.53632339463
 10
-20.7764938246
 20
9.58586483194
 10
-20.7705042382
 20
9.63550428746
 10
-20.7652790144
 20
9.68523001246
 10
-20.7608193899
 20
9.73503023776
 10
-20.7571264202
 20
9.78489317656
 10
-20.7542009795
 20
9.83480702722
 10
-20.75204376
 20
9.88475997603
 10
-20.7506552724
 20
9.93474020005
 10
-20.7500358454
 20
9.98473586987
 10
-20.7501856254
 20
10.0347351524
 10
-20.7511045771
 20
10.0847262138
 10
-20.752792483
 20
10.1346972221
 10
-20.7552489436
 20
10.1846363499
 10
-20.7584733774
 20
10.2345317777
 10
-20.7624650213
 20
10.2843716962
 10
-20.7672229306
 20
10.334144309
 10
-20.7727459791
 20
10.383837836
 10
-20.7790328596
 20
10.4334405156
 10
-20.7860820842
 20
10.4829406078
 10
-20.7938919845
 20
10.5323263967
 10
-20.8024607119
 20
10.5815861937
 10
-20.8117862384
 20
10.6307083399
 10
-20.8218663568
 20
10.679681209
 10
-20.8326986814
 20
10.7284932099
 10
-20.8442806483
 20
10.7771327898
 10
-20.8566095162
 20
10.8255884366
 10
-20.8696823673
 20
10.8738486817
 10
-20.8834961073
 20
10.9219021028
 10
-20.8980474669
 20
10.9697373265
 10
-20.9133330019
 20
11.017343031
 10
-20.9293490946
 20
11.0647079491
 10
-20.9460919542
 20
11.1118208703
 10
-20.963557618
 20
11.1586706438
 10
-20.9817419523
 20
11.2052461812
 10
-21.000640653
 20
11.2515364588
 10
-21.0202492473
 20
11.2975305206
 10
-21.0405630941
 20
11.3432174806
 10
-21.0615773856
 20
11.3885865256
 10
-21.083287148
 20
11.4336269176
 10
-21.105687243
 20
11.4783279963
 10
-21.1287723689
 20
11.5226791817
 10
-21.1525370619
 20
11.5666699769
 10
-21.1769756974
 20
11.6102899698
 10
-21.2020824911
 20
11.6535288366
 10
-21.2278515008
 20
11.6963763433
 10
-21.2542766273
 20
11.7388223488
 10
-21.2813516164
 20
11.7808568068
 10
-21.3090700598
 20
11.8224697685
 10
-21.3374253972
 20
11.8636513849
 10
-21.3664109173
 20
11.9043919091
 10
-21.3960197598
 20
11.9446816986
 10
-21.4262449169
 20
11.9845112175
 10
-21.4570792347
 20
12.0238710388
 10
-21.4885154154
 20
12.0627518468
 10
-21.5205460186
 20
12.1011444392
 10
-21.5531634633
 20
12.1390397291
 10
-21.5863600294
 20
12.1764287474
 10
-21.62012786
 20
12.2133026447
 10
-21.6544589628
 20
12.2496526938
 10
-21.6893452123
 20
12.2854702913
 10
-21.7247783516
 20
12.3207469596
 10
-21.7607499943
 20
12.3554743496
 10
-21.7972516265
 20
12.3896442419
 10
-21.8342746089
 20
12.4232485491
 10
-21.871810179
 20
12.4562793176
 10
-21.9098494528
 20
12.4887287297
 10
-21.9483834269
 20
12.5205891052
 10
-21.9874029812
 20
12.5518529033
 10
-22.0268988804
 20
12.5825127245
 10
-22.0668617766
 20
12.6125613121
 10
-22.1072822113
 20
12.6419915542
 10
-22.1481506177
 20
12.6707964852
 10
-22.189457323
 20
12.6989692875
 10
-22.2311925507
 20
12.7265032931
 10
-22.2733464227
 20
12.7533919852
 10
-22.3159089621
 20
12.7796289997
 10
-22.358870095
 20
12.8052081269
 10
-22.4022196534
 20
12.8301233125
 10
-22.4459473772
 20
12.8543686597
 10
-22.4900429169
 20
12.8779384301
 10
-22.5344958358
 20
12.900827045
 10
-22.5792956128
 20
12.9230290871
 10
-22.6244316445
 20
12.9445393017
 10
-22.6698932481
 20
12.9653525977
 10
-22.7156696636
 20
12.9854640489
 10
-22.7617500567
 20
13.0048688953
 10
-22.8081235209
 20
13.0235625442
 10
-22.8547790805
 20
13.0415405711
 10
-22.9017056929
 20
13.0587987209
 10
-22.9488922516
 20
13.075332909
 10
-22.9963275882
 20
13.091139222
 10
-23.0440004757
 20
13.1062139188
 10
-23.0918996309
 20
13.1205534316
 10
-23.1400137168
 20
13.1341543664
 10
-23.1883313457
 20
13.1470135042
 10
-23.2368410818
 20
13.1591278014
 10
-23.2855314436
 20
13.1704943908
 10
-23.3343909071
 20
13.1811105821
 10
-23.3834079081
 20
13.1909738627
 10
-23.4325708452
 20
13.2000818981
 10
-23.4818680824
 20
13.2084325326
 10
-23.5312879519
 20
13.2160237897
 10
-23.580818757
 20
13.2228538728
 10
-23.6304487747
 20
13.2289211653
 10
-23.6801662584
 20
13.2342242312
 10
-23.7299594408
 20
13.2387618153
 10
-23.779816537
 20
13.2425328437
 10
-23.8297257465
 20
13.2455364239
 10
-23.8796752569
 20
13.2477718448
 10
-23.9296532459
 20
13.2492385776
 10
-23.9796478847
 20
13.249936275
  0
LWPOLYLINE
  5
A0B
330
2A
100
AcDbEntity
  8
0
 62
     0
100
AcDbPolyline
 90
      409
 70
     1
 43
0.0
 10
-12.0
 20
43.25
 10
-12.0499980276
 20
43.2496153922
 10
-12.0999842217
 20
43.2484616598
 10
-12.1499467512
 20
43.246539076
 10
-12.1998737912
 20
43.2438480956
 10
-12.2497535246
 20
43.2403893558
 10
-12.299574146
 20
43.236163675
 10
-12.3493238636
 20
43.2311720533
 10
-12.3989909027
 20
43.2254156724
 10
-12.4485635079
 20
43.2188958945
 10
-12.4980299463
 20
43.2116142627
 10
-12.5473785101
 20
43.2035725006
 10
-12.5965975195
 20
43.1947725114
 10
-12.6456753251
 20
43.185216378
 10
-12.6946003112
 20
43.174906362
 10
-12.743360898
 20
43.1638449038
 10
-12.791945545
 20
43.1520346213
 10
-12.8403427529
 20
43.1394783098
 10
-12.888541067
 20
43.1261789412
 10
-12.9365290797
 20
43.1121396631
 10
-12.9842954331
 20
43.0973637985
 10
-13.0318288217
 20
43.0818548445
 10
-13.0791179953
 20
43.0656164718
 10
-13.1261517615
 20
43.0486525237
 10
-13.172918988
 20
43.0309670152
 10
-13.2194086061
 20
43.0125641323
 10
-13.2656096125
 20
42.9934482305
 10
-13.3115110722
 20
42.9736238342
 10
-13.3571021212
 20
42.9530956355
 10
-13.4023719689
 20
42.9318684931
 10
-13.4473099009
 20
42.9099474309
 10
-13.491905281
 20
42.8873376374
 10
-13.5361475544
 20
42.8640444639
 10
-13.5800262498
 20
42.8400734234
 10
-13.6235309818
 20
42.8154301894
 10
-13.6666514537
 20
42.7901205945
 10
-13.7093774597
 20
42.7641506291
 10
-13.7516988873
 20
42.7375264397
 10
-13.7936057198
 20
42.7102543279
 10
-13.8350880385
 20
42.6823407485
 10
-13.8761360255
 20
42.653792308
 10
-13.9167399654
 20
42.6246157633
 10
-13.956890248
 20
42.5948180201
 10
-13.9965773704
 20
42.5644061309
 10
-14.0357919394
 20
42.5333872936
 10
-14.0745246737
 20
42.5017688499
 10
-14.1127664059
 20
42.4695582832
 10
-14.150508085
 20
42.4367632172
 10
-14.187740778
 20
42.4033914138
 10
-14.2244556729
 20
42.3694507717
 10
-14.2606440797
 20
42.3349493239
 10
-14.2962974334
 20
42.2998952362
 10
-14.3314072954
 20
42.2642968054
 10
-14.365965356
 20
42.2281624569
 10
-14.3999634358
 20
42.1915007431
 10
-14.4333934881
 20
42.1543203411
 10
-14.4662476007
 20
42.1166300508
 10
-14.4985179975
 20
42.078438793
 10
-14.5301970408
 20
42.0397556066
 10
-14.5612772327
 20
42.0005896474
 10
-14.5917512171
 20
41.9609501851
 10
-14.6216117814
 20
41.9208466018
 10
-14.650851858
 20
41.8802883893
 10
-14.6794645265
 20
41.8392851468
 10
-14.7074430147
 20
41.7978465791
 10
-14.7347807006
 20
41.7559824941
 10
-14.7614711139
 20
41.7137028
 10
-14.7875079375
 20
41.6710175039
 10
-14.8128850089
 20
41.6279367084
 10
-14.8375963219
 20
41.5844706101
 10
-14.8616360276
 20
41.5406294965
 10
-14.8849984364
 20
41.4964237441
 10
-14.9076780188
 20
41.4518638156
 10
-14.929669407
 20
41.4069602574
 10
-14.9509673959
 20
41.3617236974
 10
-14.9715669449
 20
41.3161648424
 10
-14.9914631782
 20
41.2702944751
 10
-15.0106513869
 20
41.2241234524
 10
-15.0291270294
 20
41.177662702
 10
-15.0468857329
 20
41.1309232205
 10
-15.0639232943
 20
41.08391607
 10
-15.080235681
 20
41.0366523764
 10
-15.0958190322
 20
40.9891433262
 10
-15.1106696597
 20
40.9414001638
 10
-15.1247840485
 20
40.8934341892
 10
-15.138158858
 20
40.845256755
 10
-15.1507909227
 20
40.7968792641
 10
-15.1626772528
 20
40.7483131663
 10
-15.1738150349
 20
40.6995699566
 10
-15.1842016331
 20
40.6506611714
 10
-15.1938345889
 20
40.6015983866
 10
-15.2027116225
 20
40.5523932144
 10
-15.2108306327
 20
40.5030573009
 10
-15.2181896981
 20
40.4536023229
 10
-15.2247870767
 20
40.4040399855
 10
-15.2306212072
 20
40.3543820193
 10
-15.2356907087
 20
40.3046401773
 10
-15.2399943814
 20
40.2548262325
 10
-15.2435312066
 20
40.2049519751
 10
-15.2463003472
 20
40.1550292092
 10
-15.2483011479
 20
40.1050697508
 10
-15.2495331351
 20
40.0550854242
 10
-15.2499960172
 20
40.00508806
 10
-15.2496896846
 20
39.9550894915
 10
-15.2486142099
 20
39.9051015525
 10
-15.2467698476
 20
39.8551360743
 10
-15.2441570342
 20
39.8052048826
 10
-15.2407763881
 20
39.7553197955
 10
-15.2366287095
 20
39.7054926196
 10
-15.23171498
 20
39.6557351483
 10
-15.2260363626
 20
39.6060591581
 10
-15.2195942015
 20
39.5564764066
 10
-15.2123900212
 20
39.506998629
 10
-15.2044255269
 20
39.4576375358
 10
-15.1957026037
 20
39.4084048099
 10
-15.186223316
 20
39.3593121037
 10
-15.1759899076
 20
39.3103710367
 10
-15.1650048004
 20
39.2615931922
 10
-15.1532705944
 20
39.2129901152
 10
-15.1407900668
 20
39.164573309
 10
-15.1275661717
 20
39.116354233
 10
-15.1136020388
 20
39.0683442998
 10
-15.0989009733
 20
39.0205548725
 10
-15.0834664545
 20
38.972997262
 10
-15.0673021356
 20
38.9256827242
 10
-15.0504118423
 20
38.8786224577
 10
-15.0327995723
 20
38.8318276007
 10
-15.014469494
 20
38.7853092289
 10
-14.995425946
 20
38.7390783521
 10
-14.9756734353
 20
38.6931459124
 10
-14.9552166372
 20
38.6475227812
 10
-14.9340603933
 20
38.6022197567
 10
-14.9122097109
 20
38.5572475611
 10
-14.8896697617
 20
38.5126168388
 10
-14.8664458805
 20
38.4683381528
 10
-14.8425435639
 20
38.4244219831
 10
-14.8179684693
 20
38.380878724
 10
-14.792726413
 20
38.3377186814
 10
-14.7668233694
 20
38.2949520703
 10
-14.7402654693
 20
38.2525890129
 10
-14.7130589984
 20
38.2106395357
 10
-14.6852103961
 20
38.1691135675
 10
-14.6567262535
 20
38.1280209366
 10
-14.6276133124
 20
38.0873713689
 10
-14.5978784633
 20
38.0471744855
 10
-14.5675287438
 20
38.0074398002
 10
-14.5365713372
 20
37.9681767174
 10
-14.5050135705
 20
37.9293945301
 10
-14.4728629128
 20
37.8911024173
 10
-14.4401269738
 20
37.853309442
 10
-14.4068135012
 20
37.8160245491
 10
-14.3729303799
 20
37.7792565632
 10
-14.3384856294
 20
37.7430141868
 10
-14.3034874021
 20
37.7073059976
 10
-14.2679439814
 20
37.6721404472
 10
-14.2318637798
 20
37.6375258586
 10
-14.1952553368
 20
37.6034704245
 10
-14.158127317
 20
37.5699822051
 10
-14.1204885079
 20
37.5370691265
 10
-14.082347818
 20
37.5047389786
 10
-14.0437142744
 20
37.4729994134
 10
-14.004597021
 20
37.4418579431
 10
-13.9650053161
 20
37.4113219382
 10
-13.9249485304
 20
37.3813986261
 10
-13.8844361445
 20
37.3520950891
 10
-13.843477747
 20
37.3234182627
 10
-13.8020830321
 20
37.2953749344
 10
-13.760261797
 20
37.2679717414
 10
-13.7180239401
 20
37.2412151695
 10
-13.6753794584
 20
37.2151115516
 10
-13.632338445
 20
37.1896670658
 10
-13.5889110869
 20
37.1648877345
 10
-13.5451076626
 20
37.1407794225
 10
-13.5009385395
 20
37.1173478357
 10
-13.4564141718
 20
37.09459852
 10
-13.4115450974
 20
37.0725368597
 10
-13.3663419361
 20
37.0511680764
 10
-13.3208153866
 20
37.0304972277
 10
-13.2749762243
 20
37.0105292061
 10
-13.2288352984
 20
36.9912687376
 10
-13.1824035296
 20
36.9727203808
 10
-13.1356919076
 20
36.9548885257
 10
-13.088711488
 20
36.9377773928
 10
-13.0414733903
 20
36.9213910321
 10
-12.9939887949
 20
36.9057333218
 10
-12.9462689405
 20
36.890807968
 10
-12.8983251216
 20
36.876618503
 10
-12.8501686855
 20
36.8631682853
 10
-12.8018110301
 20
36.8504604984
 10
-12.7532636006
 20
36.8384981499
 10
-12.7045378874
 20
36.8272840711
 10
-12.6556454229
 20
36.8168209162
 10
-12.6065977792
 20
36.8071111616
 10
-12.5574065648
 20
36.7981571054
 10
-12.5080834225
 20
36.7899608669
 10
-12.4586400262
 20
36.782524386
 10
-12.4090880781
 20
36.7758494228
 10
-12.3594393064
 20
36.7699375571
 10
-12.309705462
 20
36.7647901881
 10
-12.2598983159
 20
36.7604085342
 10
-12.2100296566
 20
36.7567936323
 10
-12.1601112872
 20
36.7539463381
 10
-12.1101550224
 20
36.7518673255
 10
-12.0601726858
 20
36.7505570865
 10
-12.0101761075
 20
36.7500159313
 10
-11.9601771207
 20
36.7502439879
 10
-11.9101875593
 20
36.7512412023
 10
-11.8602192548
 20
36.7530073386
 10
-11.8102840339
 20
36.7555419787
 10
-11.7603937152
 20
36.7588445227
 10
-11.710560107
 20
36.7629141889
 10
-11.6607950039
 20
36.7677500142
 10
-11.6111101845
 20
36.773350854
 10
-11.5615174081
 20
36.7797153827
 10
-11.5120284126
 20
36.7868420938
 10
-11.462654911
 20
36.7947293008
 10
-11.4134085892
 20
36.8033751367
 10
-11.3643011029
 20
36.8127775553
 10
-11.3153440748
 20
36.8229343312
 10
-11.2665490923
 20
36.8338430604
 10
-11.2179277043
 20
36.8455011612
 10
-11.1694914184
 20
36.8579058741
 10
-11.1212516988
 20
36.8710542633
 10
-11.0732199628
 20
36.8849432168
 10
-11.0254075787
 20
36.8995694473
 10
-10.9778258628
 20
36.914929493
 10
-10.9304860768
 20
36.9310197185
 10
-10.8833994253
 20
36.9478363156
 10
-10.8365770527
 20
36.965375304
 10
-10.790030041
 20
36.9836325326
 10
-10.7437694072
 20
37.0026036803
 10
-10.6978061001
 20
37.0222842568
 10
-10.6521509985
 20
37.0426696043
 10
-10.6068149082
 20
37.0637548978
 10
-10.5618085593
 20
37.0855351469
 10
-10.517142604
 20
37.1080051965
 10
-10.472827614
 20
37.1311597285
 10
-10.4288740778
 20
37.1549932625
 10
-10.3852923983
 20
37.1795001576
 10
-10.3420928906
 20
37.2046746134
 10
-10.2992857793
 20
37.2305106717
 10
-10.2568811959
 20
37.2570022175
 10
-10.2148891769
 20
37.2841429807
 10
-10.1733196609
 20
37.3119265377
 10
-10.1321824868
 20
37.3403463125
 10
-10.091487391
 20
37.3693955787
 10
-10.0512440053
 20
37.3990674609
 10
-10.0114618544
 20
37.4293549363
 10
-9.97215035423
 20
37.4602508364
 10
-9.93331880898
 20
37.4917478487
 10
-9.89497640938
 20
37.5238385184
 10
-9.8571322304
 20
37.5565152503
 10
-9.81979522905
 20
37.5897703104
 10
-9.78297424232
 20
37.6235958278
 10
-9.74667798506
 20
37.6579837966
 10
-9.71091504794
 20
37.6929260779
 10
-9.67569389539
 20
37.7284144013
 10
-9.64102286361
 20
37.7644403676
 10
-9.6069101586
 20
37.80099545
 10
-9.57336385421
 20
37.8380709966
 10
-9.54039189025
 20
37.8756582322
 10
-9.50800207057
 20
37.9137482607
 10
-9.47620206125
 20
37.9523320669
 10
-9.44499938878
 20
37.9914005186
 10
-9.41440143825
 20
38.0309443691
 10
-9.38441545164
 20
38.0709542591
 10
-9.35504852609
 20
38.111420719
 10
-9.3263076122
 20
38.1523341711
 10
-9.29819951244
 20
38.1936849319
 10
-9.27073087947
 20
38.2354632144
 10
-9.24390821461
 20
38.2776591306
 10
-9.2177378663
 20
38.3202626933
 10
-9.19222602859
 20
38.3632638192
 10
-9.16737873966
 20
38.4066523306
 10
-9.1432018804
 20
38.4504179583
 10
-9.11970117304
 20
38.4945503438
 10
-9.09688217977
 20
38.5390390416
 10
-9.07475030143
 20
38.5838735222
 10
-9.05331077622
 20
38.6290431741
 10
-9.03256867849
 20
38.6745373064
 10
-9.01252891752
 20
38.7203451515
 10
-8.99319623635
 20
38.7664558675
 10
-8.97457521067
 20
38.8128585408
 10
-8.95667024775
 20
38.8595421888
 10
-8.93948558534
 20
38.9064957624
 10
-8.92302529076
 20
38.9537081484
 10
-8.90729325986
 20
39.0011681726
 10
-8.89229321611
 20
39.048864602
 10
-8.87802870976
 20
39.0967861478
 10
-8.86450311694
 20
39.1449214677
 10
-8.85171963893
 20
39.1932591692
 10
-8.83968130134
 20
39.2417878114
 10
-8.82839095342
 20
39.2904959086
 10
-8.81785126739
 20
39.3393719325
 10
-8.8080647378
 20
39.388404315
 10
-8.79903368095
 20
39.4375814509
 10
-8.79076023432
 20
39.4868917011
 10
-8.78324635609
 20
39.5363233946
 10
-8.77649382464
 20
39.5858648319
 10
-8.77050423819
 20
39.6355042875
 10
-8.76527901436
 20
39.6852300125
 10
-8.76081938986
 20
39.7350302378
 10
-8.75712642021
 20
39.7848931766
 10
-8.75420097946
 20
39.8348070272
 10
-8.75204376001
 20
39.884759976
 10
-8.75065527244
 20
39.9347402
 10
-8.75003584538
 20
39.9847358699
 10
-8.75018562543
 20
40.0347351524
 10
-8.75110457714
 20
40.0847262138
 10
-8.75279248301
 20
40.1346972221
 10
-8.75524894356
 20
40.1846363499
 10
-8.75847337737
 20
40.2345317777
 10
-8.76246502128
 20
40.2843716962
 10
-8.76722293055
 20
40.334144309
 10
-8.77274597907
 20
40.383837836
 10
-8.77903285962
 20
40.4334405156
 10
-8.78608208422
 20
40.4829406078
 10
-8.79389198445
 20
40.5323263967
 10
-8.80246071185
 20
40.5815861937
 10
-8.81178623835
 20
40.6307083399
 10
-8.82186635678
 20
40.679681209
 10
-8.83269868135
 20
40.7284932099
 10
-8.84428064825
 20
40.7771327898
 10
-8.85660951625
 20
40.8255884366
 10
-8.86968236731
 20
40.8738486817
 10
-8.88349610734
 20
40.9219021028
 10
-8.89804746689
 20
40.9697373265
 10
-8.9133330019
 20
41.017343031
 10
-8.92934909457
 20
41.0647079491
 10
-8.94609195418
 20
41.1118208703
 10
-8.96355761802
 20
41.1586706438
 10
-8.98174195226
 20
41.2052461812
 10
-9.00064065302
 20
41.2515364588
 10
-9.02024924731
 20
41.2975305206
 10
-9.04056309414
 20
41.3432174806
 10
-9.0615773856
 20
41.3885865256
 10
-9.08328714798
 20
41.4336269176
 10
-9.10568724298
 20
41.4783279963
 10
-9.12877236891
 20
41.5226791817
 10
-9.15253706194
 20
41.5666699769
 10
-9.1769756974
 20
41.6102899698
 10
-9.20208249112
 20
41.6535288366
 10
-9.22785150077
 20
41.6963763433
 10
-9.2542766273
 20
41.7388223488
 10
-9.28135161637
 20
41.7808568068
 10
-9.30907005982
 20
41.8224697685
 10
-9.3374253972
 20
41.8636513849
 10
-9.36641091732
 20
41.9043919091
 10
-9.39601975985
 20
41.9446816986
 10
-9.4262449169
 20
41.9845112175
 10
-9.45707923474
 20
42.0238710388
 10
-9.48851541544
 20
42.0627518468
 10
-9.52054601864
 20
42.1011444392
 10
-9.55316346328
 20
42.1390397291
 10
-9.58636002941
 20
42.1764287474
 10
-9.62012786
 20
42.2133026447
 10
-9.65445896282
 20
42.2496526938
 10
-9.68934521234
 20
42.2854702913
 10
-9.72477835161
 20
42.3207469596
 10
-9.76074999427
 20
42.3554743496
 10
-9.79725162646
 20
42.3896442419
 10
-9.83427460894
 20
42.4232485491
 10
-9.87181017903
 20
42.4562793176
 10
-9.90984945276
 20
42.4887287297
 10
-9.94838342691
 20
42.5205891052
 10
-9.98740298121
 20
42.5518529033
 10
-10.0268988804
 20
42.5825127245
 10
-10.0668617766
 20
42.6125613121
 10
-10.1072822113
 20
42.6419915542
 10
-10.1481506177
 20
42.6707964852
 10
-10.189457323
 20
42.6989692875
 10
-10.2311925507
 20
42.7265032931
 10
-10.2733464227
 20
42.7533919852
 10
-10.3159089621
 20
42.7796289997
 10
-10.358870095
 20
42.8052081269
 10
-10.4022196534
 20
42.8301233125
 10
-10.4459473772
 20
42.8543686597
 10
-10.4900429169
 20
42.8779384301
 10
-10.5344958358
 20
42.900827045
 10
-10.5792956128
 20
42.9230290871
 10
-10.6244316445
 20
42.9445393017
 10
-10.6698932481
 20
42.9653525977
 10
-10.7156696636
 20
42.9854640489
 10
-10.7617500567
 20
43.0048688953
 10
-10.8081235209
 20
43.0235625442
 10
-10.8547790805
 20
43.0415405711
 10
-10.9017056929
 20
43.0587987209
 10
-10.9488922516
 20
43.075332909
 10
-10.9963275882
 20
43.091139222
 10
-11.0440004757
 20
43.1062139188
 10
-11.0918996309
 20
43.1205534316
 10
-11.1400137168
 20
43.1341543664
 10
-11.1883313457
 20
43.1470135042
 10
-11.2368410818
 20
43.1591278014
 10
-11.2855314436
 20
43.1704943908
 10
-11.3343909071
 20
43.1811105821
 10
-11.3834079081
 20
43.1909738627
 10
-11.4325708452
 20
43.2000818981
 10
-11.4818680824
 20
43.2084325326
 10
-11.5312879519
 20
43.2160237897
 10
-11.580818757
 20
43.2228538728
 10
-11.6304487747
 20
43.2289211653
 10
-11.6801662584
 20
43.2342242312
 10
-11.7299594408
 20
43.2387618153
 10
-11.779816537
 20
43.2425328437
 10
-11.8297257465
 20
43.2455364239
 10
-11.8796752569
 20
43.2477718448
 10
-11.9296532459
 20
43.2492385776
 10
-11.9796478847
 20
43.249936275
  0
LWPOLYLINE
  5
BA6
330
2A
100
AcDbEntity
  8
0
 62
     0
100
AcDbPolyline
 90
      409
 70
     1
 43
0.0
 10
-24.0
 20
43.25
 10
-24.0499980276
 20
43.2496153922
 10
-24.0999842217
 20
43.2484616598
 10
-24.1499467512
 20
43.246539076
 10
-24.1998737912
 20
43.2438480956
 10
-24.2497535246
 20
43.2403893558
 10
-24.299574146
 20
43.236163675
 10
-24.3493238636
 20
43.2311720533
 10
-24.3989909027
 20
43.2254156724
 10
-24.4485635079
 20
43.2188958945
 10
-24.4980299463
 20
43.2116142627
 10
-24.5473785101
 20
43.2035725006
 10
-24.5965975195
 20
43.1947725114
 10
-24.6456753251
 20
43.185216378
 10
-24.6946003112
 20
43.174906362
 10
-24.743360898
 20
43.1638449038
 10
-24.791945545
 20
43.1520346213
 10
-24.8403427529
 20
43.1394783098
 10
-24.888541067
 20
43.1261789412
 10
-24.9365290797
 20
43.1121396631
 10
-24.9842954331
 20
43.0973637985
 10
-25.0318288217
 20
43.0818548445
 10
-25.0791179953
 20
43.0656164718
 10
-25.1261517615
 20
43.0486525237
 10
-25.172918988
 20
43.0309670152
 10
-25.2194086061
 20
43.0125641323
 10
-25.2656096125
 20
42.9934482305
 10
-25.3115110722
 20
42.9736238342
 10
-25.3571021212
 20
42.9530956355
 10
-25.4023719689
 20
42.9318684931
 10
-25.4473099009
 20
42.9099474309
 10
-25.491905281
 20
42.8873376374
 10
-25.5361475544
 20
42.8640444639
 10
-25.5800262498
 20
42.8400734234
 10
-25.6235309818
 20
42.8154301894
 10
-25.6666514537
 20
42.7901205945
 10
-25.7093774597
 20
42.7641506291
 10
-25.7516988873
 20
42.7375264397
 10
-25.7936057198
 20
42.7102543279
 10
-25.8350880385
 20
42.6823407485
 10
-25.8761360255
 20
42.653792308
 10
-25.9167399654
 20
42.6246157633
 10
-25.956890248
 20
42.5948180201
 10
-25.9965773704
 20
42.5644061309
 10
-26.0357919394
 20
42.5333872936
 10
-26.0745246737
 20
42.5017688499
 10
-26.1127664059
 20
42.4695582832
 10
-26.150508085
 20
42.4367632172
 10
-26.187740778
 20
42.4033914138
 10
-26.2244556729
 20
42.3694507717
 10
-26.2606440797
 20
42.3349493239
 10
-26.2962974334
 20
42.2998952362
 10
-26.3314072954
 20
42.2642968054
 10
-26.365965356
 20
42.2281624569
 10
-26.3999634358
 20
42.1915007431
 10
-26.4333934881
 20
42.1543203411
 10
-26.4662476007
 20
42.1166300508
 10
-26.4985179975
 20
42.078438793
 10
-26.5301970408
 20
42.0397556066
 10
-26.5612772327
 20
42.0005896474
 10
-26.5917512171
 20
41.9609501851
 10
-26.6216117814
 20
41.9208466018
 10
-26.650851858
 20
41.8802883893
 10
-26.6794645265
 20
41.8392851468
 10
-26.7074430147
 20
41.7978465791
 10
-26.7347807006
 20
41.7559824941
 10
-26.7614711139
 20
41.7137028
 10
-26.7875079375
 20
41.6710175039
 10
-26.8128850089
 20
41.6279367084
 10
-26.8375963219
 20
41.5844706101
 10
-26.8616360276
 20
41.5406294965
 10
-26.8849984364
 20
41.4964237441
 10
-26.9076780188
 20
41.4518638156
 10
-26.929669407
 20
41.4069602574
 10
-26.9509673959
 20
41.3617236974
 10
-26.9715669449
 20
41.3161648424
 10
-26.9914631782
 20
41.2702944751
 10
-27.0106513869
 20
41.2241234524
 10
-27.0291270294
 20
41.177662702
 10
-27.0468857329
 20
41.1309232205
 10
-27.0639232943
 20
41.08391607
 10
-27.080235681
 20
41.0366523764
 10
-27.0958190322
 20
40.9891433262
 10
-27.1106696597
 20
40.9414001638
 10
-27.1247840485
 20
40.8934341892
 10
-27.138158858
 20
40.845256755
 10
-27.1507909227
 20
40.7968792641
 10
-27.1626772528
 20
40.7483131663
 10
-27.1738150349
 20
40.6995699566
 10
-27.1842016331
 20
40.6506611714
 10
-27.1938345889
 20
40.6015983866
 10
-27.2027116225
 20
40.5523932144
 10
-27.2108306327
 20
40.5030573009
 10
-27.2181896981
 20
40.4536023229
 10
-27.2247870767
 20
40.4040399855
 10
-27.2306212072
 20
40.3543820193
 10
-27.2356907087
 20
40.3046401773
 10
-27.2399943814
 20
40.2548262325
 10
-27.2435312066
 20
40.2049519751
 10
-27.2463003472
 20
40.1550292092
 10
-27.2483011479
 20
40.1050697508
 10
-27.2495331351
 20
40.0550854242
 10
-27.2499960172
 20
40.00508806
 10
-27.2496896846
 20
39.9550894915
 10
-27.2486142099
 20
39.9051015525
 10
-27.2467698476
 20
39.8551360743
 10
-27.2441570342
 20
39.8052048826
 10
-27.2407763881
 20
39.7553197955
 10
-27.2366287095
 20
39.7054926196
 10
-27.23171498
 20
39.6557351483
 10
-27.2260363626
 20
39.6060591581
 10
-27.2195942015
 20
39.5564764066
 10
-27.2123900212
 20
39.506998629
 10
-27.2044255269
 20
39.4576375358
 10
-27.1957026037
 20
39.4084048099
 10
-27.186223316
 20
39.3593121037
 10
-27.1759899076
 20
39.3103710367
 10
-27.1650048004
 20
39.2615931922
 10
-27.1532705944
 20
39.2129901152
 10
-27.1407900668
 20
39.164573309
 10
-27.1275661717
 20
39.116354233
 10
-27.1136020388
 20
39.0683442998
 10
-27.0989009733
 20
39.0205548725
 10
-27.0834664545
 20
38.972997262
 10
-27.0673021356
 20
38.9256827242
 10
-27.0504118423
 20
38.8786224577
 10
-27.0327995723
 20
38.8318276007
 10
-27.014469494
 20
38.7853092289
 10
-26.995425946
 20
38.7390783521
 10
-26.9756734353
 20
38.6931459124
 10
-26.9552166372
 20
38.6475227812
 10
-26.9340603933
 20
38.6022197567
 10
-26.9122097109
 20
38.5572475611
 10
-26.8896697617
 20
38.5126168388
 10
-26.8664458805
 20
38.4683381528
 10
-26.8425435639
 20
38.4244219831
 10
-26.8179684693
 20
38.380878724
 10
-26.792726413
 20
38.3377186814
 10
-26.7668233694
 20
38.2949520703
 10
-26.7402654693
 20
38.2525890129
 10
-26.7130589984
 20
38.2106395357
 10
-26.6852103961
 20
38.1691135675
 10
-26.6567262535
 20
38.1280209366
 10
-26.6276133124
 20
38.0873713689
 10
-26.5978784633
 20
38.0471744855
 10
-26.5675287438
 20
38.0074398002
 10
-26.5365713372
 20
37.9681767174
 10
-26.5050135705
 20
37.9293945301
 10
-26.4728629128
 20
37.8911024173
 10
-26.4401269738
 20
37.853309442
 10
-26.4068135012
 20
37.8160245491
 10
-26.3729303799
 20
37.7792565632
 10
-26.3384856294
 20
37.7430141868
 10
-26.3034874021
 20
37.7073059976
 10
-26.2679439814
 20
37.6721404472
 10
-26.2318637798
 20
37.6375258586
 10
-26.1952553368
 20
37.6034704245
 10
-26.158127317
 20
37.5699822051
 10
-26.1204885079
 20
37.5370691265
 10
-26.082347818
 20
37.5047389786
 10
-26.0437142744
 20
37.4729994134
 10
-26.004597021
 20
37.4418579431
 10
-25.9650053161
 20
37.4113219382
 10
-25.9249485304
 20
37.3813986261
 10
-25.8844361445
 20
37.3520950891
 10
-25.843477747
 20
37.3234182627
 10
-25.8020830321
 20
37.2953749344
 10
-25.760261797
 20
37.2679717414
 10
-25.7180239401
 20
37.2412151695
 10
-25.6753794584
 20
37.2151115516
 10
-25.632338445
 20
37.1896670658
 10
-25.5889110869
 20
37.1648877345
 10
-25.5451076626
 20
37.1407794225
 10
-25.5009385395
 20
37.1173478357
 10
-25.4564141718
 20
37.09459852
 10
-25.4115450974
 20
37.0725368597
 10
-25.3663419361
 20
37.0511680764
 10
-25.3208153866
 20
37.0304972277
 10
-25.2749762243
 20
37.0105292061
 10
-25.2288352984
 20
36.9912687376
 10
-25.1824035296
 20
36.9727203808
 10
-25.1356919076
 20
36.9548885257
 10
-25.088711488
 20
36.9377773928
 10
-25.0414733903
 20
36.9213910321
 10
-24.9939887949
 20
36.9057333218
 10
-24.9462689405
 20
36.890807968
 10
-24.8983251216
 20
36.876618503
 10
-24.8501686855
 20
36.8631682853
 10
-24.8018110301
 20
36.8504604984
 10
-24.7532636006
 20
36.8384981499
 10
-24.7045378874
 20
36.8272840711
 10
-24.6556454229
 20
36.8168209162
 10
-24.6065977792
 20
36.8071111616
 10
-24.5574065648
 20
36.7981571054
 10
-24.5080834225
 20
36.7899608669
 10
-24.4586400262
 20
36.782524386
 10
-24.4090880781
 20
36.7758494228
 10
-24.3594393064
 20
36.7699375571
 10
-24.309705462
 20
36.7647901881
 10
-24.2598983159
 20
36.7604085342
 10
-24.2100296566
 20
36.7567936323
 10
-24.1601112872
 20
36.7539463381
 10
-24.1101550224
 20
36.7518673255
 10
-24.0601726858
 20
36.7505570865
 10
-24.0101761075
 20
36.7500159313
 10
-23.9601771207
 20
36.7502439879
 10
-23.9101875593
 20
36.7512412023
 10
-23.8602192548
 20
36.7530073386
 10
-23.8102840339
 20
36.7555419787
 10
-23.7603937152
 20
36.7588445227
 10
-23.710560107
 20
36.7629141889
 10
-23.6607950039
 20
36.7677500142
 10
-23.6111101845
 20
36.773350854
 10
-23.5615174081
 20
36.7797153827
 10
-23.5120284126
 20
36.7868420938
 10
-23.462654911
 20
36.7947293008
 10
-23.4134085892
 20
36.8033751367
 10
-23.3643011029
 20
36.8127775553
 10
-23.3153440748
 20
36.8229343312
 10
-23.2665490923
 20
36.8338430604
 10
-23.2179277043
 20
36.8455011612
 10
-23.1694914184
 20
36.8579058741
 10
-23.1212516988
 20
36.8710542633
 10
-23.0732199628
 20
36.8849432168
 10
-23.0254075787
 20
36.8995694473
 10
-22.9778258628
 20
36.914929493
 10
-22.9304860768
 20
36.9310197185
 10
-22.8833994253
 20
36.9478363156
 10
-22.8365770527
 20
36.965375304
 10
-22.790030041
 20
36.9836325326
 10
-22.7437694072
 20
37.0026036803
 10
-22.6978061001
 20
37.0222842568
 10
-22.6521509985
 20
37.0426696043
 10
-22.6068149082
 20
37.0637548978
 10
-22.5618085593
 20
37.0855351469
 10
-22.517142604
 20
37.1080051965
 10
-22.472827614
 20
37.1311597285
 10
-22.4288740778
 20
37.1549932625
 10
-22.3852923983
 20
37.1795001576
 10
-22.3420928906
 20
37.2046746134
 10
-22.2992857793
 20
37.2305106717
 10
-22.2568811959
 20
37.2570022175
 10
-22.2148891769
 20
37.2841429807
 10
-22.1733196609
 20
37.3119265377
 10
-22.1321824868
 20
37.3403463125
 10
-22.091487391
 20
37.3693955787
 10
-22.0512440053
 20
37.3990674609
 10
-22.0114618544
 20
37.4293549363
 10
-21.9721503542
 20
37.4602508364
 10
-21.933318809
 20
37.4917478487
 10
-21.8949764094
 20
37.5238385184
 10
-21.8571322304
 20
37.5565152503
 10
-21.819795229
 20
37.5897703104
 10
-21.7829742423
 20
37.6235958278
 10
-21.7466779851
 20
37.6579837966
 10
-21.7109150479
 20
37.6929260779
 10
-21.6756938954
 20
37.7284144013
 10
-21.6410228636
 20
37.7644403676
 10
-21.6069101586
 20
37.80099545
 10
-21.5733638542
 20
37.8380709966
 10
-21.5403918902
 20
37.8756582322
 10
-21.5080020706
 20
37.9137482607
 10
-21.4762020613
 20
37.9523320669
 10
-21.4449993888
 20
37.9914005186
 10
-21.4144014382
 20
38.0309443691
 10
-21.3844154516
 20
38.0709542591
 10
-21.3550485261
 20
38.111420719
 10
-21.3263076122
 20
38.1523341711
 10
-21.2981995124
 20
38.1936849319
 10
-21.2707308795
 20
38.2354632144
 10
-21.2439082146
 20
38.2776591306
 10
-21.2177378663
 20
38.3202626933
 10
-21.1922260286
 20
38.3632638192
 10
-21.1673787397
 20
38.4066523306
 10
-21.1432018804
 20
38.4504179583
 10
-21.119701173
 20
38.4945503438
 10
-21.0968821798
 20
38.5390390416
 10
-21.0747503014
 20
38.5838735222
 10
-21.0533107762
 20
38.6290431741
 10
-21.0325686785
 20
38.6745373064
 10
-21.0125289175
 20
38.7203451515
 10
-20.9931962364
 20
38.7664558675
 10
-20.9745752107
 20
38.8128585408
 10
-20.9566702477
 20
38.8595421888
 10
-20.9394855853
 20
38.9064957624
 10
-20.9230252908
 20
38.9537081484
 10
-20.9072932599
 20
39.0011681726
 10
-20.8922932161
 20
39.048864602
 10
-20.8780287098
 20
39.0967861478
 10
-20.8645031169
 20
39.1449214677
 10
-20.8517196389
 20
39.1932591692
 10
-20.8396813013
 20
39.2417878114
 10
-20.8283909534
 20
39.2904959086
 10
-20.8178512674
 20
39.3393719325
 10
-20.8080647378
 20
39.388404315
 10
-20.799033681
 20
39.4375814509
 10
-20.7907602343
 20
39.4868917011
 10
-20.7832463561
 20
39.5363233946
 10
-20.7764938246
 20
39.5858648319
 10
-20.7705042382
 20
39.6355042875
 10
-20.7652790144
 20
39.6852300125
 10
-20.7608193899
 20
39.7350302378
 10
-20.7571264202
 20
39.7848931766
 10
-20.7542009795
 20
39.8348070272
 10
-20.75204376
 20
39.884759976
 10
-20.7506552724
 20
39.9347402
 10
-20.7500358454
 20
39.9847358699
 10
-20.7501856254
 20
40.0347351524
 10
-20.7511045771
 20
40.0847262138
 10
-20.752792483
 20
40.1346972221
 10
-20.7552489436
 20
40.1846363499
 10
-20.7584733774
 20
40.2345317777
 10
-20.7624650213
 20
40.2843716962
 10
-20.7672229306
 20
40.334144309
 10
-20.7727459791
 20
40.383837836
 10
-20.7790328596
 20
40.4334405156
 10
-20.7860820842
 20
40.4829406078
 10
-20.7938919845
 20
40.5323263967
 10
-20.8024607119
 20
40.5815861937
 10
-20.8117862384
 20
40.6307083399
 10
-20.8218663568
 20
40.679681209
 10
-20.8326986814
 20
40.7284932099
 10
-20.8442806483
 20
40.7771327898
 10
-20.8566095162
 20
40.8255884366
 10
-20.8696823673
 20
40.8738486817
 10
-20.8834961073
 20
40.9219021028
 10
-20.8980474669
 20
40.9697373265
 10
-20.9133330019
 20
41.017343031
 10
-20.9293490946
 20
41.0647079491
 10
-20.9460919542
 20
41.1118208703
 10
-20.963557618
 20
41.1586706438
 10
-20.9817419523
 20
41.2052461812
 10
-21.000640653
 20
41.2515364588
 10
-21.0202492473
 20
41.2975305206
 10
-21.0405630941
 20
41.3432174806
 10
-21.0615773856
 20
41.3885865256
 10
-21.083287148
 20
41.4336269176
 10
-21.105687243
 20
41.4783279963
 10
-21.1287723689
 20
41.5226791817
 10
-21.1525370619
 20
41.5666699769
 10
-21.1769756974
 20
41.6102899698
 10
-21.2020824911
 20
41.6535288366
 10
-21.2278515008
 20
41.6963763433
 10
-21.2542766273
 20
41.7388223488
 10
-21.2813516164
 20
41.7808568068
 10
-21.3090700598
 20
41.8224697685
 10
-21.3374253972
 20
41.8636513849
 10
-21.3664109173
 20
41.9043919091
 10
-21.3960197598
 20
41.9446816986
 10
-21.4262449169
 20
41.9845112175
 10
-21.4570792347
 20
42.0238710388
 10
-21.4885154154
 20
42.0627518468
 10
-21.5205460186
 20
42.1011444392
 10
-21.5531634633
 20
42.1390397291
 10
-21.5863600294
 20
42.1764287474
 10
-21.62012786
 20
42.2133026447
 10
-21.6544589628
 20
42.2496526938
 10
-21.6893452123
 20
42.2854702913
 10
-21.7247783516
 20
42.3207469596
 10
-21.7607499943
 20
42.3554743496
 10
-21.7972516265
 20
42.3896442419
 10
-21.8342746089
 20
42.4232485491
 10
-21.871810179
 20
42.4562793176
 10
-21.9098494528
 20
42.4887287297
 10
-21.9483834269
 20
42.5205891052
 10
-21.9874029812
 20
42.5518529033
 10
-22.0268988804
 20
42.5825127245
 10
-22.0668617766
 20
42.6125613121
 10
-22.1072822113
 20
42.6419915542
 10
-22.1481506177
 20
42.6707964852
 10
-22.189457323
 20
42.6989692875
 10
-22.2311925507
 20
42.7265032931
 10
-22.2733464227
 20
42.7533919852
 10
-22.3159089621
 20
42.7796289997
 10
-22.358870095
 20
42.8052081269
 10
-22.4022196534
 20
42.8301233125
 10
-22.4459473772
 20
42.8543686597
 10
-22.4900429169
 20
42.8779384301
 10
-22.5344958358
 20
42.900827045
 10
-22.5792956128
 20
42.9230290871
 10
-22.6244316445
 20
42.9445393017
 10
-22.6698932481
 20
42.9653525977
 10
-22.7156696636
 20
42.9854640489
 10
-22.7617500567
 20
43.0048688953
 10
-22.8081235209
 20
43.0235625442
 10
-22.8547790805
 20
43.0415405711
 10
-22.9017056929
 20
43.0587987209
 10
-22.9488922516
 20
43.075332909
 10
-22.9963275882
 20
43.091139222
 10
-23.0440004757
 20
43.1062139188
 10
-23.0918996309
 20
43.1205534316
 10
-23.1400137168
 20
43.1341543664
 10
-23.1883313457
 20
43.1470135042
 10
-23.2368410818
 20
43.1591278014
 10
-23.2855314436
 20
43.1704943908
 10
-23.3343909071
 20
43.1811105821
 10
-23.3834079081
 20
43.1909738627
 10
-23.4325708452
 20
43.2000818981
 10
-23.4818680824
 20
43.2084325326
 10
-23.5312879519
 20
43.2160237897
 10
-23.580818757
 20
43.2228538728
 10
-23.6304487747
 20
43.2289211653
 10
-23.6801662584
 20
43.2342242312
 10
-23.7299594408
 20
43.2387618153
 10
-23.779816537
 20
43.2425328437
 10
-23.8297257465
 20
43.2455364239
 10
-23.8796752569
 20
43.2477718448
 10
-23.9296532459
 20
43.2492385776
 10
-23.9796478847
 20
43.249936275
  0
LWPOLYLINE
  5
D41
330
2A
100
AcDbEntity
  8
0
 62
     0
100
AcDbPolyline
 90
      409
 70
     1
 43
0.0
 10
-12.0
 20
28.25
 10
-12.0499980276
 20
28.2496153922
 10
-12.0999842217
 20
28.2484616598
 10
-12.1499467512
 20
28.246539076
 10
-12.1998737912
 20
28.2438480956
 10
-12.2497535246
 20
28.2403893558
 10
-12.299574146
 20
28.236163675
 10
-12.3493238636
 20
28.2311720533
 10
-12.3989909027
 20
28.2254156724
 10
-12.4485635079
 20
28.2188958945
 10
-12.4980299463
 20
28.2116142627
 10
-12.5473785101
 20
28.2035725006
 10
-12.5965975195
 20
28.1947725114
 10
-12.6456753251
 20
28.185216378
 10
-12.6946003112
 20
28.174906362
 10
-12.743360898
 20
28.1638449038
 10
-12.791945545
 20
28.1520346213
 10
-12.8403427529
 20
28.1394783098
 10
-12.888541067
 20
28.1261789412
 10
-12.9365290797
 20
28.1121396631
 10
-12.9842954331
 20
28.0973637985
 10
-13.0318288217
 20
28.0818548445
 10
-13.0791179953
 20
28.0656164718
 10
-13.1261517615
 20
28.0486525237
 10
-13.172918988
 20
28.0309670152
 10
-13.2194086061
 20
28.0125641323
 10
-13.2656096125
 20
27.9934482305
 10
-13.3115110722
 20
27.9736238342
 10
-13.3571021212
 20
27.9530956355
 10
-13.4023719689
 20
27.9318684931
 10
-13.4473099009
 20
27.9099474309
 10
-13.491905281
 20
27.8873376374
 10
-13.5361475544
 20
27.8640444639
 10
-13.5800262498
 20
27.8400734234
 10
-13.6235309818
 20
27.8154301894
 10
-13.6666514537
 20
27.7901205945
 10
-13.7093774597
 20
27.7641506291
 10
-13.7516988873
 20
27.7375264397
 10
-13.7936057198
 20
27.7102543279
 10
-13.8350880385
 20
27.6823407485
 10
-13.8761360255
 20
27.653792308
 10
-13.9167399654
 20
27.6246157633
 10
-13.956890248
 20
27.5948180201
 10
-13.9965773704
 20
27.5644061309
 10
-14.0357919394
 20
27.5333872936
 10
-14.0745246737
 20
27.5017688499
 10
-14.1127664059
 20
27.4695582832
 10
-14.150508085
 20
27.4367632172
 10
-14.187740778
 20
27.4033914138
 10
-14.2244556729
 20
27.3694507717
 10
-14.2606440797
 20
27.3349493239
 10
-14.2962974334
 20
27.2998952362
 10
-14.3314072954
 20
27.2642968054
 10
-14.365965356
 20
27.2281624569
 10
-14.3999634358
 20
27.1915007431
 10
-14.4333934881
 20
27.1543203411
 10
-14.4662476007
 20
27.1166300508
 10
-14.4985179975
 20
27.078438793
 10
-14.5301970408
 20
27.0397556066
 10
-14.5612772327
 20
27.0005896474
 10
-14.5917512171
 20
26.9609501851
 10
-14.6216117814
 20
26.9208466018
 10
-14.650851858
 20
26.8802883893
 10
-14.6794645265
 20
26.8392851468
 10
-14.7074430147
 20
26.7978465791
 10
-14.7347807006
 20
26.7559824941
 10
-14.7614711139
 20
26.7137028
 10
-14.7875079375
 20
26.6710175039
 10
-14.8128850089
 20
26.6279367084
 10
-14.8375963219
 20
26.5844706101
 10
-14.8616360276
 20
26.5406294965
 10
-14.8849984364
 20
26.4964237441
 10
-14.9076780188
 20
26.4518638156
 10
-14.929669407
 20
26.4069602574
 10
-14.9509673959
 20
26.3617236974
 10
-14.9715669449
 20
26.3161648424
 10
-14.9914631782
 20
26.2702944751
 10
-15.0106513869
 20
26.2241234524
 10
-15.0291270294
 20
26.177662702
 10
-15.0468857329
 20
26.1309232205
 10
-15.0639232943
 20
26.08391607
 10
-15.080235681
 20
26.0366523764
 10
-15.0958190322
 20
25.9891433262
 10
-15.1106696597
 20
25.9414001638
 10
-15.1247840485
 20
25.8934341892
 10
-15.138158858
 20
25.845256755
 10
-15.1507909227
 20
25.7968792641
 10
-15.1626772528
 20
25.7483131663
 10
-15.1738150349
 20
25.6995699566
 10
-15.1842016331
 20
25.6506611714
 10
-15.1938345889
 20
25.6015983866
 10
-15.2027116225
 20
25.5523932144
 10
-15.2108306327
 20
25.5030573009
 10
-15.2181896981
 20
25.4536023229
 10
-15.2247870767
 20
25.4040399855
 10
-15.2306212072
 20
25.3543820193
 10
-15.2356907087
 20
25.3046401773
 10
-15.2399943814
 20
25.2548262325
 10
-15.2435312066
 20
25.2049519751
 10
-15.2463003472
 20
25.1550292092
 10
-15.2483011479
 20
25.1050697508
 10
-15.2495331351
 20
25.0550854242
 10
-15.2499960172
 20
25.00508806
 10
-15.2496896846
 20
24.9550894915
 10
-15.2486142099
 20
24.9051015525
 10
-15.2467698476
 20
24.8551360743
 10
-15.2441570342
 20
24.8052048826
 10
-15.2407763881
 20
24.7553197955
 10
-15.2366287095
 20
24.7054926196
 10
-15.23171498
 20
24.6557351483
 10
-15.2260363626
 20
24.6060591581
 10
-15.2195942015
 20
24.5564764066
 10
-15.2123900212
 20
24.506998629
 10
-15.2044255269
 20
24.4576375358
 10
-15.1957026037
 20
24.4084048099
 10
-15.186223316
 20
24.3593121037
 10
-15.1759899076
 20
24.3103710367
 10
-15.1650048004
 20
24.2615931922
 10
-15.1532705944
 20
24.2129901152
 10
-15.1407900668
 20
24.164573309
 10
-15.1275661717
 20
24.116354233
 10
-15.1136020388
 20
24.0683442998
 10
-15.0989009733
 20
24.0205548725
 10
-15.0834664545
 20
23.972997262
 10
-15.0673021356
 20
23.9256827242
 10
-15.0504118423
 20
23.8786224577
 10
-15.0327995723
 20
23.8318276007
 10
-15.014469494
 20
23.7853092289
 10
-14.995425946
 20
23.7390783521
 10
-14.9756734353
 20
23.6931459124
 10
-14.9552166372
 20
23.6475227812
 10
-14.9340603933
 20
23.6022197567
 10
-14.9122097109
 20
23.5572475611
 10
-14.8896697617
 20
23.5126168388
 10
-14.8664458805
 20
23.4683381528
 10
-14.8425435639
 20
23.4244219831
 10
-14.8179684693
 20
23.380878724
 10
-14.792726413
 20
23.3377186814
 10
-14.7668233694
 20
23.2949520703
 10
-14.7402654693
 20
23.2525890129
 10
-14.7130589984
 20
23.2106395357
 10
-14.6852103961
 20
23.1691135675
 10
-14.6567262535
 20
23.1280209366
 10
-14.6276133124
 20
23.0873713689
 10
-14.5978784633
 20
23.0471744855
 10
-14.5675287438
 20
23.0074398002
 10
-14.5365713372
 20
22.9681767174
 10
-14.5050135705
 20
22.9293945301
 10
-14.4728629128
 20
22.8911024173
 10
-14.4401269738
 20
22.853309442
 10
-14.4068135012
 20
22.8160245491
 10
-14.3729303799
 20
22.7792565632
 10
-14.3384856294
 20
22.7430141868
 10
-14.3034874021
 20
22.7073059976
 10
-14.2679439814
 20
22.6721404472
 10
-14.2318637798
 20
22.6375258586
 10
-14.1952553368
 20
22.6034704245
 10
-14.158127317
 20
22.5699822051
 10
-14.1204885079
 20
22.5370691265
 10
-14.082347818
 20
22.5047389786
 10
-14.0437142744
 20
22.4729994134
 10
-14.004597021
 20
22.4418579431
 10
-13.9650053161
 20
22.4113219382
 10
-13.9249485304
 20
22.3813986261
 10
-13.8844361445
 20
22.3520950891
 10
-13.843477747
 20
22.3234182627
 10
-13.8020830321
 20
22.2953749344
 10
-13.760261797
 20
22.2679717414
 10
-13.7180239401
 20
22.2412151695
 10
-13.6753794584
 20
22.2151115516
 10
-13.632338445
 20
22.1896670658
 10
-13.5889110869
 20
22.1648877345
 10
-13.5451076626
 20
22.1407794225
 10
-13.5009385395
 20
22.1173478357
 10
-13.4564141718
 20
22.09459852
 10
-13.4115450974
 20
22.0725368597
 10
-13.3663419361
 20
22.0511680764
 10
-13.3208153866
 20
22.0304972277
 10
-13.2749762243
 20
22.0105292061
 10
-13.2288352984
 20
21.9912687376
 10
-13.1824035296
 20
21.9727203808
 10
-13.1356919076
 20
21.9548885257
 10
-13.088711488
 20
21.9377773928
 10
-13.0414733903
 20
21.9213910321
 10
-12.9939887949
 20
21.9057333218
 10
-12.9462689405
 20
21.890807968
 10
-12.8983251216
 20
21.876618503
 10
-12.8501686855
 20
21.8631682853
 10
-12.8018110301
 20
21.8504604984
 10
-12.7532636006
 20
21.8384981499
 10
-12.7045378874
 20
21.8272840711
 10
-12.6556454229
 20
21.8168209162
 10
-12.6065977792
 20
21.8071111616
 10
-12.5574065648
 20
21.7981571054
 10
-12.5080834225
 20
21.7899608669
 10
-12.4586400262
 20
21.782524386
 10
-12.4090880781
 20
21.7758494228
 10
-12.3594393064
 20
21.7699375571
 10
-12.309705462
 20
21.7647901881
 10
-12.2598983159
 20
21.7604085342
 10
-12.2100296566
 20
21.7567936323
 10
-12.1601112872
 20
21.7539463381
 10
-12.1101550224
 20
21.7518673255
 10
-12.0601726858
 20
21.7505570865
 10
-12.0101761075
 20
21.7500159313
 10
-11.9601771207
 20
21.7502439879
 10
-11.9101875593
 20
21.7512412023
 10
-11.8602192548
 20
21.7530073386
 10
-11.8102840339
 20
21.7555419787
 10
-11.7603937152
 20
21.7588445227
 10
-11.710560107
 20
21.7629141889
 10
-11.6607950039
 20
21.7677500142
 10
-11.6111101845
 20
21.773350854
 10
-11.5615174081
 20
21.7797153827
 10
-11.5120284126
 20
21.7868420938
 10
-11.462654911
 20
21.7947293008
 10
-11.4134085892
 20
21.8033751367
 10
-11.3643011029
 20
21.8127775553
 10
-11.3153440748
 20
21.8229343312
 10
-11.2665490923
 20
21.8338430604
 10
-11.2179277043
 20
21.8455011612
 10
-11.1694914184
 20
21.8579058741
 10
-11.1212516988
 20
21.8710542633
 10
-11.0732199628
 20
21.8849432168
 10
-11.0254075787
 20
21.8995694473
 10
-10.9778258628
 20
21.914929493
 10
-10.9304860768
 20
21.9310197185
 10
-10.8833994253
 20
21.9478363156
 10
-10.8365770527
 20
21.965375304
 10
-10.790030041
 20
21.9836325326
 10
-10.7437694072
 20
22.0026036803
 10
-10.6978061001
 20
22.0222842568
 10
-10.6521509985
 20
22.0426696043
 10
-10.6068149082
 20
22.0637548978
 10
-10.5618085593
 20
22.0855351469
 10
-10.517142604
 20
22.1080051965
 10
-10.472827614
 20
22.1311597285
 10
-10.4288740778
 20
22.1549932625
 10
-10.3852923983
 20
22.1795001576
 10
-10.3420928906
 20
22.2046746134
 10
-10.2992857793
 20
22.2305106717
 10
-10.2568811959
 20
22.2570022175
 10
-10.2148891769
 20
22.2841429807
 10
-10.1733196609
 20
22.3119265377
 10
-10.1321824868
 20
22.3403463125
 10
-10.091487391
 20
22.3693955787
 10
-10.0512440053
 20
22.3990674609
 10
-10.0114618544
 20
22.4293549363
 10
-9.97215035423
 20
22.4602508364
 10
-9.93331880898
 20
22.4917478487
 10
-9.89497640938
 20
22.5238385184
 10
-9.8571322304
 20
22.5565152503
 10
-9.81979522905
 20
22.5897703104
 10
-9.78297424232
 20
22.6235958278
 10
-9.74667798506
 20
22.6579837966
 10
-9.71091504794
 20
22.6929260779
 10
-9.67569389539
 20
22.7284144013
 10
-9.64102286361
 20
22.7644403676
 10
-9.6069101586
 20
22.80099545
 10
-9.57336385421
 20
22.8380709966
 10
-9.54039189025
 20
22.8756582322
 10
-9.50800207057
 20
22.9137482607
 10
-9.47620206125
 20
22.9523320669
 10
-9.44499938878
 20
22.9914005186
 10
-9.41440143825
 20
23.0309443691
 10
-9.38441545164
 20
23.0709542591
 10
-9.35504852609
 20
23.111420719
 10
-9.3263076122
 20
23.1523341711
 10
-9.29819951244
 20
23.1936849319
 10
-9.27073087947
 20
23.2354632144
 10
-9.24390821461
 20
23.2776591306
 10
-9.2177378663
 20
23.3202626933
 10
-9.19222602859
 20
23.3632638192
 10
-9.16737873966
 20
23.4066523306
 10
-9.1432018804
 20
23.4504179583
 10
-9.11970117304
 20
23.4945503438
 10
-9.09688217977
 20
23.5390390416
 10
-9.07475030143
 20
23.5838735222
 10
-9.05331077622
 20
23.6290431741
 10
-9.03256867849
 20
23.6745373064
 10
-9.01252891752
 20
23.7203451515
 10
-8.99319623635
 20
23.7664558675
 10
-8.97457521067
 20
23.8128585408
 10
-8.95667024775
 20
23.8595421888
 10
-8.93948558534
 20
23.9064957624
 10
-8.92302529076
 20
23.9537081484
 10
-8.90729325986
 20
24.0011681726
 10
-8.89229321611
 20
24.048864602
 10
-8.87802870976
 20
24.0967861478
 10
-8.86450311694
 20
24.1449214677
 10
-8.85171963893
 20
24.1932591692
 10
-8.83968130134
 20
24.2417878114
 10
-8.82839095342
 20
24.2904959086
 10
-8.81785126739
 20
24.3393719325
 10
-8.8080647378
 20
24.388404315
 10
-8.79903368095
 20
24.4375814509
 10
-8.79076023432
 20
24.4868917011
 10
-8.78324635609
 20
24.5363233946
 10
-8.77649382464
 20
24.5858648319
 10
-8.77050423819
 20
24.6355042875
 10
-8.76527901436
 20
24.6852300125
 10
-8.76081938986
 20
24.7350302378
 10
-8.75712642021
 20
24.7848931766
 10
-8.75420097946
 20
24.8348070272
 10
-8.75204376001
 20
24.884759976
 10
-8.75065527244
 20
24.9347402
 10
-8.75003584538
 20
24.9847358699
 10
-8.75018562543
 20
25.0347351524
 10
-8.75110457714
 20
25.0847262138
 10
-8.75279248301
 20
25.1346972221
 10
-8.75524894356
 20
25.1846363499
 10
-8.75847337737
 20
25.2345317777
 10
-8.76246502128
 20
25.2843716962
 10
-8.76722293055
 20
25.334144309
 10
-8.77274597907
 20
25.383837836
 10
-8.77903285962
 20
25.4334405156
 10
-8.78608208422
 20
25.4829406078
 10
-8.79389198445
 20
25.5323263967
 10
-8.80246071185
 20
25.5815861937
 10
-8.81178623835
 20
25.6307083399
 10
-8.82186635678
 20
25.679681209
 10
-8.83269868135
 20
25.7284932099
 10
-8.84428064825
 20
25.7771327898
 10
-8.85660951625
 20
25.8255884366
 10
-8.86968236731
 20
25.8738486817
 10
-8.88349610734
 20
25.9219021028
 10
-8.89804746689
 20
25.9697373265
 10
-8.9133330019
 20
26.017343031
 10
-8.92934909457
 20
26.0647079491
 10
-8.94609195418
 20
26.1118208703
 10
-8.96355761802
 20
26.1586706438
 10
-8.98174195226
 20
26.2052461812
 10
-9.00064065302
 20
26.2515364588
 10
-9.02024924731
 20
26.2975305206
 10
-9.04056309414
 20
26.3432174806
 10
-9.0615773856
 20
26.3885865256
 10
-9.08328714798
 20
26.4336269176
 10
-9.10568724298
 20
26.4783279963
 10
-9.12877236891
 20
26.5226791817
 10
-9.15253706194
 20
26.5666699769
 10
-9.1769756974
 20
26.6102899698
 10
-9.20208249112
 20
26.6535288366
 10
-9.22785150077
 20
26.6963763433
 10
-9.2542766273
 20
26.7388223488
 10
-9.28135161637
 20
26.7808568068
 10
-9.30907005982
 20
26.8224697685
 10
-9.3374253972
 20
26.8636513849
 10
-9.36641091732
 20
26.9043919091
 10
-9.39601975985
 20
26.9446816986
 10
-9.4262449169
 20
26.9845112175
 10
-9.45707923474
 20
27.0238710388
 10
-9.48851541544
 20
27.0627518468
 10
-9.52054601864
 20
27.1011444392
 10
-9.55316346328
 20
27.1390397291
 10
-9.58636002941
 20
27.1764287474
 10
-9.62012786
 20
27.2133026447
 10
-9.65445896282
 20
27.2496526938
 10
-9.68934521234
 20
27.2854702913
 10
-9.72477835161
 20
27.3207469596
 10
-9.76074999427
 20
27.3554743496
 10
-9.79725162646
 20
27.3896442419
 10
-9.83427460894
 20
27.4232485491
 10
-9.87181017903
 20
27.4562793176
 10
-9.90984945276
 20
27.4887287297
 10
-9.94838342691
 20
27.5205891052
 10
-9.98740298121
 20
27.5518529033
 10
-10.0268988804
 20
27.5825127245
 10
-10.0668617766
 20
27.6125613121
 10
-10.1072822113
 20
27.6419915542
 10
-10.1481506177
 20
27.6707964852
 10
-10.189457323
 20
27.6989692875
 10
-10.2311925507
 20
27.7265032931
 10
-10.2733464227
 20
27.7533919852
 10
-10.3159089621
 20
27.7796289997
 10
-10.358870095
 20
27.8052081269
 10
-10.4022196534
 20
27.8301233125
 10
-10.4459473772
 20
27.8543686597
 10
-10.4900429169
 20
27.8779384301
 10
-10.5344958358
 20
27.900827045
 10
-10.5792956128
 20
27.9230290871
 10
-10.6244316445
 20
27.9445393017
 10
-10.6698932481
 20
27.9653525977
 10
-10.7156696636
 20
27.9854640489
 10
-10.7617500567
 20
28.0048688953
 10
-10.8081235209
 20
28.0235625442
 10
-10.8547790805
 20
28.0415405711
 10
-10.9017056929
 20
28.0587987209
 10
-10.9488922516
 20
28.075332909
 10
-10.9963275882
 20
28.091139222
 10
-11.0440004757
 20
28.1062139188
 10
-11.0918996309
 20
28.1205534316
 10
-11.1400137168
 20
28.1341543664
 10
-11.1883313457
 20
28.1470135042
 10
-11.2368410818
 20
28.1591278014
 10
-11.2855314436
 20
28.1704943908
 10
-11.3343909071
 20
28.1811105821
 10
-11.3834079081
 20
28.1909738627
 10
-11.4325708452
 20
28.2000818981
 10
-11.4818680824
 20
28.2084325326
 10
-11.5312879519
 20
28.2160237897
 10
-11.580818757
 20
28.2228538728
 10
-11.6304487747
 20
28.2289211653
 10
-11.6801662584
 20
28.2342242312
 10
-11.7299594408
 20
28.2387618153
 10
-11.779816537
 20
28.2425328437
 10
-11.8297257465
 20
28.2455364239
 10
-11.8796752569
 20
28.2477718448
 10
-11.9296532459
 20
28.2492385776
 10
-11.9796478847
 20
28.249936275
  0
LWPOLYLINE
  5
EDC
330
2A
100
AcDbEntity
  8
0
 62
     0
100
AcDbPolyline
 90
      409
 70
     1
 43
0.0
 10
-24.0
 20
28.25
 10
-24.0499980276
 20
28.2496153922
 10
-24.0999842217
 20
28.2484616598
 10
-24.1499467512
 20
28.246539076
 10
-24.1998737912
 20
28.2438480956
 10
-24.2497535246
 20
28.2403893558
 10
-24.299574146
 20
28.236163675
 10
-24.3493238636
 20
28.2311720533
 10
-24.3989909027
 20
28.2254156724
 10
-24.4485635079
 20
28.2188958945
 10
-24.4980299463
 20
28.2116142627
 10
-24.5473785101
 20
28.2035725006
 10
-24.5965975195
 20
28.1947725114
 10
-24.6456753251
 20
28.185216378
 10
-24.6946003112
 20
28.174906362
 10
-24.743360898
 20
28.1638449038
 10
-24.791945545
 20
28.1520346213
 10
-24.8403427529
 20
28.1394783098
 10
-24.888541067
 20
28.1261789412
 10
-24.9365290797
 20
28.1121396631
 10
-24.9842954331
 20
28.0973637985
 10
-25.0318288217
 20
28.0818548445
 10
-25.0791179953
 20
28.0656164718
 10
-25.1261517615
 20
28.0486525237
 10
-25.172918988
 20
28.0309670152
 10
-25.2194086061
 20
28.0125641323
 10
-25.2656096125
 20
27.9934482305
 10
-25.3115110722
 20
27.9736238342
 10
-25.3571021212
 20
27.9530956355
 10
-25.4023719689
 20
27.9318684931
 10
-25.4473099009
 20
27.9099474309
 10
-25.491905281
 20
27.8873376374
 10
-25.5361475544
 20
27.8640444639
 10
-25.5800262498
 20
27.8400734234
 10
-25.6235309818
 20
27.8154301894
 10
-25.6666514537
 20
27.7901205945
 10
-25.7093774597
 20
27.7641506291
 10
-25.7516988873
 20
27.7375264397
 10
-25.7936057198
 20
27.7102543279
 10
-25.8350880385
 20
27.6823407485
 10
-25.8761360255
 20
27.653792308
 10
-25.9167399654
 20
27.6246157633
 10
-25.956890248
 20
27.5948180201
 10
-25.9965773704
 20
27.5644061309
 10
-26.0357919394
 20
27.5333872936
 10
-26.0745246737
 20
27.5017688499
 10
-26.1127664059
 20
27.4695582832
 10
-26.150508085
 20
27.4367632172
 10
-26.187740778
 20
27.4033914138
 10
-26.2244556729
 20
27.3694507717
 10
-26.2606440797
 20
27.3349493239
 10
-26.2962974334
 20
27.2998952362
 10
-26.3314072954
 20
27.2642968054
 10
-26.365965356
 20
27.2281624569
 10
-26.3999634358
 20
27.1915007431
 10
-26.4333934881
 20
27.1543203411
 10
-26.4662476007
 20
27.1166300508
 10
-26.4985179975
 20
27.078438793
 10
-26.5301970408
 20
27.0397556066
 10
-26.5612772327
 20
27.0005896474
 10
-26.5917512171
 20
26.9609501851
 10
-26.6216117814
 20
26.9208466018
 10
-26.650851858
 20
26.8802883893
 10
-26.6794645265
 20
26.8392851468
 10
-26.7074430147
 20
26.7978465791
 10
-26.7347807006
 20
26.7559824941
 10
-26.7614711139
 20
26.7137028
 10
-26.7875079375
 20
26.6710175039
 10
-26.8128850089
 20
26.6279367084
 10
-26.8375963219
 20
26.5844706101
 10
-26.8616360276
 20
26.5406294965
 10
-26.8849984364
 20
26.4964237441
 10
-26.9076780188
 20
26.4518638156
 10
-26.929669407
 20
26.4069602574
 10
-26.9509673959
 20
26.3617236974
 10
-26.9715669449
 20
26.3161648424
 10
-26.9914631782
 20
26.2702944751
 10
-27.0106513869
 20
26.2241234524
 10
-27.0291270294
 20
26.177662702
 10
-27.0468857329
 20
26.1309232205
 10
-27.0639232943
 20
26.08391607
 10
-27.080235681
 20
26.0366523764
 10
-27.0958190322
 20
25.9891433262
 10
-27.1106696597
 20
25.9414001638
 10
-27.1247840485
 20
25.8934341892
 10
-27.138158858
 20
25.845256755
 10
-27.1507909227
 20
25.7968792641
 10
-27.1626772528
 20
25.7483131663
 10
-27.1738150349
 20
25.6995699566
 10
-27.1842016331
 20
25.6506611714
 10
-27.1938345889
 20
25.6015983866
 10
-27.2027116225
 20
25.5523932144
 10
-27.2108306327
 20
25.5030573009
 10
-27.2181896981
 20
25.4536023229
 10
-27.2247870767
 20
25.4040399855
 10
-27.2306212072
 20
25.3543820193
 10
-27.2356907087
 20
25.3046401773
 10
-27.2399943814
 20
25.2548262325
 10
-27.2435312066
 20
25.2049519751
 10
-27.2463003472
 20
25.1550292092
 10
-27.2483011479
 20
25.1050697508
 10
-27.2495331351
 20
25.0550854242
 10
-27.2499960172
 20
25.00508806
 10
-27.2496896846
 20
24.9550894915
 10
-27.2486142099
 20
24.9051015525
 10
-27.2467698476
 20
24.8551360743
 10
-27.2441570342
 20
24.8052048826
 10
-27.2407763881
 20
24.7553197955
 10
-27.2366287095
 20
24.7054926196
 10
-27.23171498
 20
24.6557351483
 10
-27.2260363626
 20
24.6060591581
 10
-27.2195942015
 20
24.5564764066
 10
-27.2123900212
 20
24.506998629
 10
-27.2044255269
 20
24.4576375358
 10
-27.1957026037
 20
24.4084048099
 10
-27.186223316
 20
24.3593121037
 10
-27.1759899076
 20
24.3103710367
 10
-27.1650048004
 20
24.2615931922
 10
-27.1532705944
 20
24.2129901152
 10
-27.1407900668
 20
24.164573309
 10
-27.1275661717
 20
24.116354233
 10
-27.1136020388
 20
24.0683442998
 10
-27.0989009733
 20
24.0205548725
 10
-27.0834664545
 20
23.972997262
 10
-27.0673021356
 20
23.9256827242
 10
-27.0504118423
 20
23.8786224577
 10
-27.0327995723
 20
23.8318276007
 10
-27.014469494
 20
23.7853092289
 10
-26.995425946
 20
23.7390783521
 10
-26.9756734353
 20
23.6931459124
 10
-26.9552166372
 20
23.6475227812
 10
-26.9340603933
 20
23.6022197567
 10
-26.9122097109
 20
23.5572475611
 10
-26.8896697617
 20
23.5126168388
 10
-26.8664458805
 20
23.4683381528
 10
-26.8425435639
 20
23.4244219831
 10
-26.8179684693
 20
23.380878724
 10
-26.792726413
 20
23.3377186814
 10
-26.7668233694
 20
23.2949520703
 10
-26.7402654693
 20
23.2525890129
 10
-26.7130589984
 20
23.2106395357
 10
-26.6852103961
 20
23.1691135675
 10
-26.6567262535
 20
23.1280209366
 10
-26.6276133124
 20
23.0873713689
 10
-26.5978784633
 20
23.0471744855
 10
-26.5675287438
 20
23.0074398002
 10
-26.5365713372
 20
22.9681767174
 10
-26.5050135705
 20
22.9293945301
 10
-26.4728629128
 20
22.8911024173
 10
-26.4401269738
 20
22.853309442
 10
-26.4068135012
 20
22.8160245491
 10
-26.3729303799
 20
22.7792565632
 10
-26.3384856294
 20
22.7430141868
 10
-26.3034874021
 20
22.7073059976
 10
-26.2679439814
 20
22.6721404472
 10
-26.2318637798
 20
22.6375258586
 10
-26.1952553368
 20
22.6034704245
 10
-26.158127317
 20
22.5699822051
 10
-26.1204885079
 20
22.5370691265
 10
-26.082347818
 20
22.5047389786
 10
-26.0437142744
 20
22.4729994134
 10
-26.004597021
 20
22.4418579431
 10
-25.9650053161
 20
22.4113219382
 10
-25.9249485304
 20
22.3813986261
 10
-25.8844361445
 20
22.3520950891
 10
-25.843477747
 20
22.3234182627
 10
-25.8020830321
 20
22.2953749344
 10
-25.760261797
 20
22.2679717414
 10
-25.7180239401
 20
22.2412151695
 10
-25.6753794584
 20
22.2151115516
 10
-25.632338445
 20
22.1896670658
 10
-25.5889110869
 20
22.1648877345
 10
-25.5451076626
 20
22.1407794225
 10
-25.5009385395
 20
22.1173478357
 10
-25.4564141718
 20
22.09459852
 10
-25.4115450974
 20
22.0725368597
 10
-25.3663419361
 20
22.0511680764
 10
-25.3208153866
 20
22.0304972277
 10
-25.2749762243
 20
22.0105292061
 10
-25.2288352984
 20
21.9912687376
 10
-25.1824035296
 20
21.9727203808
 10
-25.1356919076
 20
21.9548885257
 10
-25.088711488
 20
21.9377773928
 10
-25.0414733903
 20
21.9213910321
 10
-24.9939887949
 20
21.9057333218
 10
-24.9462689405
 20
21.890807968
 10
-24.8983251216
 20
21.876618503
 10
-24.8501686855
 20
21.8631682853
 10
-24.8018110301
 20
21.8504604984
 10
-24.7532636006
 20
21.8384981499
 10
-24.7045378874
 20
21.8272840711
 10
-24.6556454229
 20
21.8168209162
 10
-24.6065977792
 20
21.8071111616
 10
-24.5574065648
 20
21.7981571054
 10
-24.5080834225
 20
21.7899608669
 10
-24.4586400262
 20
21.782524386
 10
-24.4090880781
 20
21.7758494228
 10
-24.3594393064
 20
21.7699375571
 10
-24.309705462
 20
21.7647901881
 10
-24.2598983159
 20
21.7604085342
 10
-24.2100296566
 20
21.7567936323
 10
-24.1601112872
 20
21.7539463381
 10
-24.1101550224
 20
21.7518673255
 10
-24.0601726858
 20
21.7505570865
 10
-24.0101761075
 20
21.7500159313
 10
-23.9601771207
 20
21.7502439879
 10
-23.9101875593
 20
21.7512412023
 10
-23.8602192548
 20
21.7530073386
 10
-23.8102840339
 20
21.7555419787
 10
-23.7603937152
 20
21.7588445227
 10
-23.710560107
 20
21.7629141889
 10
-23.6607950039
 20
21.7677500142
 10
-23.6111101845
 20
21.773350854
 10
-23.5615174081
 20
21.7797153827
 10
-23.5120284126
 20
21.7868420938
 10
-23.462654911
 20
21.7947293008
 10
-23.4134085892
 20
21.8033751367
 10
-23.3643011029
 20
21.8127775553
 10
-23.3153440748
 20
21.8229343312
 10
-23.2665490923
 20
21.8338430604
 10
-23.2179277043
 20
21.8455011612
 10
-23.1694914184
 20
21.8579058741
 10
-23.1212516988
 20
21.8710542633
 10
-23.0732199628
 20
21.8849432168
 10
-23.0254075787
 20
21.8995694473
 10
-22.9778258628
 20
21.914929493
 10
-22.9304860768
 20
21.9310197185
 10
-22.8833994253
 20
21.9478363156
 10
-22.8365770527
 20
21.965375304
 10
-22.790030041
 20
21.9836325326
 10
-22.7437694072
 20
22.0026036803
 10
-22.6978061001
 20
22.0222842568
 10
-22.6521509985
 20
22.0426696043
 10
-22.6068149082
 20
22.0637548978
 10
-22.5618085593
 20
22.0855351469
 10
-22.517142604
 20
22.1080051965
 10
-22.472827614
 20
22.1311597285
 10
-22.4288740778
 20
22.1549932625
 10
-22.3852923983
 20
22.1795001576
 10
-22.3420928906
 20
22.2046746134
 10
-22.2992857793
 20
22.2305106717
 10
-22.2568811959
 20
22.2570022175
 10
-22.2148891769
 20
22.2841429807
 10
-22.1733196609
 20
22.3119265377
 10
-22.1321824868
 20
22.3403463125
 10
-22.091487391
 20
22.3693955787
 10
-22.0512440053
 20
22.3990674609
 10
-22.0114618544
 20
22.4293549363
 10
-21.9721503542
 20
22.4602508364
 10
-21.933318809
 20
22.4917478487
 10
-21.8949764094
 20
22.5238385184
 10
-21.8571322304
 20
22.5565152503
 10
-21.819795229
 20
22.5897703104
 10
-21.7829742423
 20
22.6235958278
 10
-21.7466779851
 20
22.6579837966
 10
-21.7109150479
 20
22.6929260779
 10
-21.6756938954
 20
22.7284144013
 10
-21.6410228636
 20
22.7644403676
 10
-21.6069101586
 20
22.80099545
 10
-21.5733638542
 20
22.8380709966
 10
-21.5403918902
 20
22.8756582322
 10
-21.5080020706
 20
22.9137482607
 10
-21.4762020613
 20
22.9523320669
 10
-21.4449993888
 20
22.9914005186
 10
-21.4144014382
 20
23.0309443691
 10
-21.3844154516
 20
23.0709542591
 10
-21.3550485261
 20
23.111420719
 10
-21.3263076122
 20
23.1523341711
 10
-21.2981995124
 20
23.1936849319
 10
-21.2707308795
 20
23.2354632144
 10
-21.2439082146
 20
23.2776591306
 10
-21.2177378663
 20
23.3202626933
 10
-21.1922260286
 20
23.3632638192
 10
-21.1673787397
 20
23.4066523306
 10
-21.1432018804
 20
23.4504179583
 10
-21.119701173
 20
23.4945503438
 10
-21.0968821798
 20
23.5390390416
 10
-21.0747503014
 20
23.5838735222
 10
-21.0533107762
 20
23.6290431741
 10
-21.0325686785
 20
23.6745373064
 10
-21.0125289175
 20
23.7203451515
 10
-20.9931962364
 20
23.7664558675
 10
-20.9745752107
 20
23.8128585408
 10
-20.9566702477
 20
23.8595421888
 10
-20.9394855853
 20
23.9064957624
 10
-20.9230252908
 20
23.9537081484
 10
-20.9072932599
 20
24.0011681726
 10
-20.8922932161
 20
24.048864602
 10
-20.8780287098
 20
24.0967861478
 10
-20.8645031169
 20
24.1449214677
 10
-20.8517196389
 20
24.1932591692
 10
-20.8396813013
 20
24.2417878114
 10
-20.8283909534
 20
24.2904959086
 10
-20.8178512674
 20
24.3393719325
 10
-20.8080647378
 20
24.388404315
 10
-20.799033681
 20
24.4375814509
 10
-20.7907602343
 20
24.4868917011
 10
-20.7832463561
 20
24.5363233946
 10
-20.7764938246
 20
24.5858648319
 10
-20.7705042382
 20
24.6355042875
 10
-20.7652790144
 20
24.6852300125
 10
-20.7608193899
 20
24.7350302378
 10
-20.7571264202
 20
24.7848931766
 10
-20.7542009795
 20
24.8348070272
 10
-20.75204376
 20
24.884759976
 10
-20.7506552724
 20
24.9347402
 10
-20.7500358454
 20
24.9847358699
 10
-20.7501856254
 20
25.0347351524
 10
-20.7511045771
 20
25.0847262138
 10
-20.752792483
 20
25.1346972221
 10
-20.7552489436
 20
25.1846363499
 10
-20.7584733774
 20
25.2345317777
 10
-20.7624650213
 20
25.2843716962
 10
-20.7672229306
 20
25.334144309
 10
-20.7727459791
 20
25.383837836
 10
-20.7790328596
 20
25.4334405156
 10
-20.7860820842
 20
25.4829406078
 10
-20.7938919845
 20
25.5323263967
 10
-20.8024607119
 20
25.5815861937
 10
-20.8117862384
 20
25.6307083399
 10
-20.8218663568
 20
25.679681209
 10
-20.8326986814
 20
25.7284932099
 10
-20.8442806483
 20
25.7771327898
 10
-20.8566095162
 20
25.8255884366
 10
-20.8696823673
 20
25.8738486817
 10
-20.8834961073
 20
25.9219021028
 10
-20.8980474669
 20
25.9697373265
 10
-20.9133330019
 20
26.017343031
 10
-20.9293490946
 20
26.0647079491
 10
-20.9460919542
 20
26.1118208703
 10
-20.963557618
 20
26.1586706438
 10
-20.9817419523
 20
26.2052461812
 10
-21.000640653
 20
26.2515364588
 10
-21.0202492473
 20
26.2975305206
 10
-21.0405630941
 20
26.3432174806
 10
-21.0615773856
 20
26.3885865256
 10
-21.083287148
 20
26.4336269176
 10
-21.105687243
 20
26.4783279963
 10
-21.1287723689
 20
26.5226791817
 10
-21.1525370619
 20
26.5666699769
 10
-21.1769756974
 20
26.6102899698
 10
-21.2020824911
 20
26.6535288366
 10
-21.2278515008
 20
26.6963763433
 10
-21.2542766273
 20
26.7388223488
 10
-21.2813516164
 20
26.7808568068
 10
-21.3090700598
 20
26.8224697685
 10
-21.3374253972
 20
26.8636513849
 10
-21.3664109173
 20
26.9043919091
 10
-21.3960197598
 20
26.9446816986
 10
-21.4262449169
 20
26.9845112175
 10
-21.4570792347
 20
27.0238710388
 10
-21.4885154154
 20
27.0627518468
 10
-21.5205460186
 20
27.1011444392
 10
-21.5531634633
 20
27.1390397291
 10
-21.5863600294
 20
27.1764287474
 10
-21.62012786
 20
27.2133026447
 10
-21.6544589628
 20
27.2496526938
 10
-21.6893452123
 20
27.2854702913
 10
-21.7247783516
 20
27.3207469596
 10
-21.7607499943
 20
27.3554743496
 10
-21.7972516265
 20
27.3896442419
 10
-21.8342746089
 20
27.4232485491
 10
-21.871810179
 20
27.4562793176
 10
-21.9098494528
 20
27.4887287297
 10
-21.9483834269
 20
27.5205891052
 10
-21.9874029812
 20
27.5518529033
 10
-22.0268988804
 20
27.5825127245
 10
-22.0668617766
 20
27.6125613121
 10
-22.1072822113
 20
27.6419915542
 10
-22.1481506177
 20
27.6707964852
 10
-22.189457323
 20
27.6989692875
 10
-22.2311925507
 20
27.7265032931
 10
-22.2733464227
 20
27.7533919852
 10
-22.3159089621
 20
27.7796289997
 10
-22.358870095
 20
27.8052081269
 10
-22.4022196534
 20
27.8301233125
 10
-22.4459473772
 20
27.8543686597
 10
-22.4900429169
 20
27.8779384301
 10
-22.5344958358
 20
27.900827045
 10
-22.5792956128
 20
27.9230290871
 10
-22.6244316445
 20
27.9445393017
 10
-22.6698932481
 20
27.9653525977
 10
-22.7156696636
 20
27.9854640489
 10
-22.7617500567
 20
28.0048688953
 10
-22.8081235209
 20
28.0235625442
 10
-22.8547790805
 20
28.0415405711
 10
-22.9017056929
 20
28.0587987209
 10
-22.9488922516
 20
28.075332909
 10
-22.9963275882
 20
28.091139222
 10
-23.0440004757
 20
28.1062139188
 10
-23.0918996309
 20
28.1205534316
 10
-23.1400137168
 20
28.1341543664
 10
-23.1883313457
 20
28.1470135042
 10
-23.2368410818
 20
28.1591278014
 10
-23.2855314436
 20
28.1704943908
 10
-23.3343909071
 20
28.1811105821
 10
-23.3834079081
 20
28.1909738627
 10
-23.4325708452
 20
28.2000818981
 10
-23.4818680824
 20
28.2084325326
 10
-23.5312879519
 20
28.2160237897
 10
-23.580818757
 20
28.2228538728
 10
-23.6304487747
 20
28.2289211653
 10
-23.6801662584
 20
28.2342242312
 10
-23.7299594408
 20
28.2387618153
 10
-23.779816537
 20
28.2425328437
 10
-23.8297257465
 20
28.2455364239
 10
-23.8796752569
 20
28.2477718448
 10
-23.9296532459
 20
28.2492385776
 10
-23.9796478847
 20
28.249936275
  0
LINE
  5
1077
330
2A
100
AcDbEntity
  8
0
 62
     0
100
AcDbLine
 10
-3.0
 20
0.0
 30
0.0
 11
-1.0
 21
0.0
 31
0.0
  0
LINE
  5
1078
330
2A
100
AcDbEntity
  8
0
 62
     0
100
AcDbLine
 10
-33.0
 20
0.0
 30
0.0
 11
-3.0
 21
0.0
 31
0.0
  0
LINE
  5
1079
330
2A
100
AcDbEntity
  8
0
 62
     0
100
AcDbLine
 10
0.0
 20
1.0
 30
0.0
 11
0.0
 21
4.0
 31
0.0
  0
LINE
  5
107A
330
2A
100
AcDbEntity
  8
0
 62
     0
100
AcDbLine
 10
-33.0
 20
0.0
 30
0.0
 11
-35.0
 21
0.0
 31
0.0
  0
LINE
  5
107B
330
2A
100
AcDbEntity
  8
0
 62
     0
100
AcDbLine
 10
-1.0
 20
5.0
 30
0.0
 11
-3.0
 21
5.0
 31
0.0
  0
LINE
  5
107C
330
2A
100
AcDbEntity
  8
0
 62
     0
100
AcDbLine
 10
-36.0
 20
1.0
 30
0.0
 11
-36.0
 21
4.0
 31
0.0
  0
LINE
  5
107D
330
2A
100
AcDbEntity
  8
0
 62
     0
100
AcDbLine
 10
-3.0
 20
5.0
 30
0.0
 11
-3.0
 21
15.0
 31
0.0
  0
LINE
  5
107E
330
2A
100
AcDbEntity
  8
0
 62
     0
100
AcDbLine
 10
-3.0
 20
15.0
 30
0.0
 11
-1.0
 21
15.0
 31
0.0
  0
LINE
  5
107F
330
2A
100
AcDbEntity
  8
0
 62
     0
100
AcDbLine
 10
-35.0
 20
5.0
 30
0.0
 11
-33.0
 21
5.0
 31
0.0
  0
LINE
  5
1080
330
2A
100
AcDbEntity
  8
0
 62
     0
100
AcDbLine
 10
-33.0
 20
5.0
 30
0.0
 11
-33.0
 21
15.0
 31
0.0
  0
LINE
  5
1081
330
2A
100
AcDbEntity
  8
0
 62
     0
100
AcDbLine
 10
0.0
 20
16.0
 30
0.0
 11
0.0
 21
19.0
 31
0.0
  0
LINE
  5
1082
330
2A
100
AcDbEntity
  8
0
 62
     0
100
AcDbLine
 10
-33.0
 20
15.0
 30
0.0
 11
-35.0
 21
15.0
 31
0.0
  0
LINE
  5
1083
330
2A
100
AcDbEntity
  8
0
 62
     0
100
AcDbLine
 10
-1.0
 20
20.0
 30
0.0
 11
-3.0
 21
20.0
 31
0.0
  0
LINE
  5
1084
330
2A
100
AcDbEntity
  8
0
 62
     0
100
AcDbLine
 10
-36.0
 20
16.0
 30
0.0
 11
-36.0
 21
19.0
 31
0.0
  0
LINE
  5
1085
330
2A
100
AcDbEntity
  8
0
 62
     0
100
AcDbLine
 10
-3.0
 20
20.0
 30
0.0
 11
-3.0
 21
30.0
 31
0.0
  0
LINE
  5
1086
330
2A
100
AcDbEntity
  8
0
 62
     0
100
AcDbLine
 10
-3.0
 20
30.0
 30
0.0
 11
-1.0
 21
30.0
 31
0.0
  0
LINE
  5
1087
330
2A
100
AcDbEntity
  8
0
 62
     0
100
AcDbLine
 10
-35.0
 20
20.0
 30
0.0
 11
-33.0
 21
20.0
 31
0.0
  0
LINE
  5
1088
330
2A
100
AcDbEntity
  8
0
 62
     0
100
AcDbLine
 10
-33.0
 20
20.0
 30
0.0
 11
-33.0
 21
30.0
 31
0.0
  0
LINE
  5
1089
330
2A
100
AcDbEntity
  8
0
 62
     0
100
AcDbLine
 10
0.0
 20
31.0
 30
0.0
 11
0.0
 21
34.0
 31
0.0
  0
LINE
  5
108A
330
2A
100
AcDbEntity
  8
0
 62
     0
100
AcDbLine
 10
-33.0
 20
30.0
 30
0.0
 11
-35.0
 21
30.0
 31
0.0
  0
LINE
  5
108B
330
2A
100
AcDbEntity
  8
0
 62
     0
100
AcDbLine
 10
-1.0
 20
35.0
 30
0.0
 11
-3.0
 21
35.0
 31
0.0
  0
LINE
  5
108C
330
2A
100
AcDbEntity
  8
0
 62
     0
100
AcDbLine
 10
-36.0
 20
31.0
 30
0.0
 11
-36.0
 21
34.0
 31
0.0
  0
LINE
  5
108D
330
2A
100
AcDbEntity
  8
0
 62
     0
100
AcDbLine
 10
-3.0
 20
35.0
 30
0.0
 11
-3.0
 21
45.0
 31
0.0
  0
LINE
  5
108E
330
2A
100
AcDbEntity
  8
0
 62
     0
100
AcDbLine
 10
-3.0
 20
45.0
 30
0.0
 11
-1.0
 21
45.0
 31
0.0
  0
LINE
  5
108F
330
2A
100
AcDbEntity
  8
0
 62
     0
100
AcDbLine
 10
-35.0
 20
35.0
 30
0.0
 11
-33.0
 21
35.0
 31
0.0
  0
LINE
  5
1090
330
2A
100
AcDbEntity
  8
0
 62
     0
100
AcDbLine
 10
-33.0
 20
35.0
 30
0.0
 11
-33.0
 21
45.0
 31
0.0
  0
LINE
  5
1091
330
2A
100
AcDbEntity
  8
0
 62
     0
100
AcDbLine
 10
0.0
 20
46.0
 30
0.0
 11
0.0
 21
49.0
 31
0.0
  0
LINE
  5
1092
330
2A
100
AcDbEntity
  8
0
 62
     0
100
AcDbLine
 10
-33.0
 20
45.0
 30
0.0
 11
-35.0
 21
45.0
 31
0.0
  0
LINE
  5
1093
330
2A
100
AcDbEntity
  8
0
 62
     0
100
AcDbLine
 10
-1.0
 20
50.0
 30
0.0
 11
-35.0
 21
50.0
 31
0.0
  0
LINE
  5
1094
330
2A
100
AcDbEntity
  8
0
 62
     0
100
AcDbLine
 10
-36.0
 20
46.0
 30
0.0
 11
-36.0
 21
49.0
 31
0.0
  0
ENDBLK
  5
1095
330
2A
100
AcDbEntity
  8
0
100
AcDbBlockEnd
  0
ENDSEC
  0
SECTION
  2
ENTITIES
  0
INSERT
  5
1096
330
1D
100
AcDbEntity
  8
0
 62
     0
100
AcDbBlockReference
  2
FUSION031
 10
0.0
 20
0.0
 30
0.0
  0
ENDSEC
  0
SECTION
  2
OBJECTS
  0
DICTIONARY
  5
C
330
0
100
AcDbDictionary
  3
ACAD_GROUP
350
D
  3
ACAD_IMAGE_VARS
350
10DC
  3
ACAD_MLINESTYLE
350
17
  3
ACAD_SCALELIST
350
1097
  3
APPDATA
350
10DA
  3
DWGPROPS
350
10DD
  0
DICTIONARY
  5
D
102
{ACAD_REACTORS
330
C
102
}
330
C
100
AcDbDictionary
  0
RASTERVARIABLES
  5
10DC
102
{ACAD_REACTORS
330
C
102
}
330
C
100
AcDbRasterVariables
 90
        0
 70
     1
 71
     1
 72
     0
  0
DICTIONARY
  5
17
102
{ACAD_REACTORS
330
C
102
}
330
C
100
AcDbDictionary
  3
STANDARD
350
18
  0
DICTIONARY
  5
1097
102
{ACAD_REACTORS
330
C
102
}
330
C
100
AcDbDictionary
  0
DICTIONARY
  5
10DA
102
{ACAD_REACTORS
330
C
102
}
330
C
100
AcDbDictionary
  0
XRECORD
  5
10DD
102
{ACAD_REACTORS
330
C
102
}
330
C
100
AcDbXrecord
  1
DWGPROPS COOKIE
  2

  3

  4

  6

  7

  8

  9

300
=
301
=
302
=
303
=
304
=
305
=
306
=
307
=
308
=
309
=
 40
0.0
 41
2458100.582443206
 42
2458100.583336354
  1

 90
        0
  0
MLINESTYLE
  5
18
102
{ACAD_REACTORS
330
17
102
}
330
17
100
AcDbMlineStyle
  2
Standard
 70
     0
  3

 62
   256
 51
90.0
 52
90.0
 71
     2
 49
0.5
 62
   256
  6
BYLAYER
 49
-0.5
 62
   256
  6
BYLAYER
  0
ENDSEC
  0
EOF
