999
dxfrw 0.6.3
  0
SECTION
  2
HEADER
  9
$ACADVER
  1
AC1021
  9
$DWGCODEPAGE
  3
ANSI_1252
  9
$INSBASE
 10
0
 20
0
 30
0
  9
$EXTMIN
 10
0.132261
 20
0.132083
 30
0
  9
$EXTMAX
 10
36.132857
 20
50.132446
 30
0
  9
$LIMMIN
 10
0
 20
0
  9
$LIMMAX
 10
420
 20
297
  9
$ORTHOMODE
 70
    0
  9
$REGENMODE
 70
    1
  9
$FILLMODE
 70
    1
  9
$QTEXTMODE
 70
    0
  9
$MIRRTEXT
 70
    0
  9
$LTSCALE
 40
1
  9
$ATTMODE
 70
    0
  9
$TEXTSIZE
 40
2.5
  9
$TRACEWID
 40
15.68
  9
$TEXTSTYLE
  7
STANDARD
  9
$CLAYER
  8
0
  9
$CELTYPE
  6
BYLAYER
  9
$CECOLOR
 62
  256
  9
$CELTSCALE
 40
1
  9
$DISPSILH
 70
    0
  9
$DIMSCALE
 40
2.5
  9
$DIMASZ
 40
2.5
  9
$DIMEXO
 40
0.625
  9
$DIMDLI
 40
3.75
  9
$DIMRND
 40
0
  9
$DIMDLE
 40
0
  9
$DIMEXE
 40
1.25
  9
$DIMTP
 40
0
  9
$DIMTM
 40
0
  9
$DIMTXT
 40
2.5
  9
$DIMCEN
 40
2.5
  9
$DIMTSZ
 40
0
  9
$DIMTOL
 70
    0
  9
$DIMLIM
 70
    0
  9
$DIMTIH
 70
    0
  9
$DIMTOH
 70
    0
  9
$DIMSE1
 70
    0
  9
$DIMSE2
 70
    0
  9
$DIMTAD
 70
    1
  9
$DIMZIN
 70
    8
  9
$DIMBLK
  1

  9
$DIMASO
 70
    1
  9
$DIMSHO
 70
    1
  9
$DIMPOST
  1

  9
$DIMAPOST
  1

  9
$DIMALT
 70
    0
  9
$DIMALTD
 70
    3
  9
$DIMALTF
 40
0.03937
  9
$DIMLFAC
 40
1
  9
$DIMTOFL
 70
    1
  9
$DIMTVP
 40
0
  9
$DIMTIX
 70
    0
  9
$DIMSOXD
 70
    0
  9
$DIMSAH
 70
    0
  9
$DIMBLK1
  1

  9
$DIMBLK2
  1

  9
$DIMSTYLE
  2
Standard
  9
$DIMCLRD
 70
    0
  9
$DIMCLRE
 70
    0
  9
$DIMCLRT
 70
    0
  9
$DIMTFAC
 40
1
  9
$DIMGAP
 40
0.625
  9
$DIMJUST
 70
    0
  9
$DIMSD1
 70
    0
  9
$DIMSD2
 70
    0
  9
$DIMTOLJ
 70
    0
  9
$DIMTZIN
 70
    8
  9
$DIMALTZ
 70
    0
  9
$DIMALTTZ
 70
    0
  9
$DIMUPT
 70
    0
  9
$DIMDEC
 70
    2
  9
$DIMTDEC
 70
    2
  9
$DIMALTU
 70
    2
  9
$DIMALTTD
 70
    3
  9
$DIMTXSTY
  7
STANDARD
  9
$DIMAUNIT
 70
    0
  9
$DIMADEC
 70
    0
  9
$DIMALTRND
 40
0
  9
$DIMAZIN
 70
    0
  9
$DIMDSEP
 70
   44
  9
$DIMATFIT
 70
    3
  9
$DIMFRAC
 70
    0
  9
$DIMLDRBLK
  1
STANDARD
  9
$DIMLUNIT
 70
    2
  9
$DIMLWD
 70
   -2
  9
$DIMLWE
 70
   -2
  9
$DIMTMOVE
 70
    0
  9
$DIMFXL
 40
1
  9
$DIMFXLON
 70
    0
  9
$DIMJOGANG
 40
0.7854
  9
$DIMTFILL
 70
    0
  9
$DIMTFILLCLR
 70
    0
  9
$DIMARCSYM
 70
    0
  9
$DIMLTYPE
  6

  9
$DIMLTEX1
  6

  9
$DIMLTEX2
  6

  9
$LUNITS
 70
    2
  9
$LUPREC
 70
    4
  9
$SKETCHINC
 40
1
  9
$FILLETRAD
 40
0
  9
$AUNITS
 70
    0
  9
$AUPREC
 70
    2
  9
$MENU
  1
.
  9
$ELEVATION
 40
0
  9
$PELEVATION
 40
0
  9
$THICKNESS
 40
0
  9
$LIMCHECK
 70
    0
  9
$CHAMFERA
 40
0
  9
$CHAMFERB
 40
0
  9
$CHAMFERC
 40
0
  9
$CHAMFERD
 40
0
  9
$SKPOLY
 70
    0
  9
$USRTIMER
 70
    1
  9
$ANGBASE
 50
0
  9
$ANGDIR
 70
    0
  9
$PDMODE
 70
   34
  9
$PDSIZE
 40
0
  9
$PLINEWID
 40
0
  9
$SPLFRAME
 70
    0
  9
$SPLINETYPE
 70
    2
  9
$SPLINESEGS
 70
    8
  9
$HANDSEED
  5
20000
  9
$SURFTAB1
 70
    6
  9
$SURFTAB2
 70
    6
  9
$SURFTYPE
 70
    6
  9
$SURFU
 70
    6
  9
$SURFV
 70
    6
  9
$UCSBASE
  2

  9
$UCSNAME
  2

  9
$UCSORG
 10
0
 20
0
 30
0
  9
$UCSXDIR
 10
1
 20
0
 30
0
  9
$UCSYDIR
 10
0
 20
1
 30
0
  9
$UCSORTHOREF
  2

  9
$UCSORTHOVIEW
 70
    0
  9
$UCSORGTOP
 10
0
 20
0
 30
0
  9
$UCSORGBOTTOM
 10
0
 20
0
 30
0
  9
$UCSORGLEFT
 10
0
 20
0
 30
0
  9
$UCSORGRIGHT
 10
0
 20
0
 30
0
  9
$UCSORGFRONT
 10
0
 20
0
 30
0
  9
$UCSORGBACK
 10
0
 20
0
 30
0
  9
$PUCSBASE
  2

  9
$PUCSNAME
  2

  9
$PUCSORG
 10
0
 20
0
 30
0
  9
$PUCSXDIR
 10
1
 20
0
 30
0
  9
$PUCSYDIR
 10
0
 20
1
 30
0
  9
$PUCSORTHOREF
  2

  9
$PUCSORTHOVIEW
 70
    0
  9
$PUCSORGTOP
 10
0
 20
0
 30
0
  9
$PUCSORGBOTTOM
 10
0
 20
0
 30
0
  9
$PUCSORGLEFT
 10
0
 20
0
 30
0
  9
$PUCSORGRIGHT
 10
0
 20
0
 30
0
  9
$PUCSORGFRONT
 10
0
 20
0
 30
0
  9
$PUCSORGBACK
 10
0
 20
0
 30
0
  9
$USERI1
 70
    0
  9
$USERI2
 70
    0
  9
$USERI3
 70
    0
  9
$USERI4
 70
    0
  9
$USERI5
 70
    0
  9
$USERR1
 40
0
  9
$USERR2
 40
0
  9
$USERR3
 40
0
  9
$USERR4
 40
0
  9
$USERR5
 40
0
  9
$WORLDVIEW
 70
    1
  9
$SHADEDGE
 70
    3
  9
$SHADEDIF
 70
   70
  9
$TILEMODE
 70
    1
  9
$MAXACTVP
 70
   64
  9
$PINSBASE
 10
0
 20
0
 30
0
  9
$PLIMCHECK
 70
    0
  9
$PEXTMIN
 10
0
 20
0
 30
0
  9
$PEXTMAX
 10
0
 20
0
 30
0
  9
$GRIDMODE
 70
    0
  9
$SNAPSTYLE
 70
    0
  9
$PLIMMIN
 10
0
 20
0
  9
$PLIMMAX
 10
210
 20
297
  9
$UNITMODE
 70
    0
  9
$VISRETAIN
 70
    1
  9
$PLINEGEN
 70
    0
  9
$PSLTSCALE
 70
    1
  9
$TREEDEPTH
 70
 3020
  9
$CMLSTYLE
  2
Standard
  9
$CMLJUST
 70
    0
  9
$CMLSCALE
 40
20
  9
$PROXYGRAPHICS
 70
    1
  9
$MEASUREMENT
 70
    1
  9
$CELWEIGHT
370
   -1
  9
$ENDCAPS
280
    0
  9
$JOINSTYLE
280
    0
  9
$LWDISPLAY
290
    0
  9
$INSUNITS
 70
    4
  9
$HYPERLINKBASE
  1

  9
$STYLESHEET
  1

  9
$XEDIT
290
    1
  9
$CEPSNTYPE
380
    0
  9
$PSTYLEMODE
290
    1
  9
$EXTNAMES
290
    1
  9
$PSVPSCALE
 40
1
  9
$OLESTARTUP
290
    0
  9
$SORTENTS
280
  127
  9
$INDEXCTL
280
    0
  9
$HIDETEXT
280
    1
  9
$XCLIPFRAME
290
    0
  9
$HALOGAP
280
    0
  9
$OBSCOLOR
 70
  257
  9
$OBSLTYPE
280
    0
  9
$INTERSECTIONDISPLAY
280
    0
  9
$INTERSECTIONCOLOR
 70
  257
  9
$DIMASSOC
280
    1
  9
$PROJECTNAME
  1

  9
$CAMERADISPLAY
290
    0
  9
$LENSLENGTH
 40
50
  9
$CAMERAHEIGHT
 40
0
  9
$STEPSPERSEC
 40
2
  9
$STEPSIZE
 40
50
  9
$3DDWFPREC
 40
2
  9
$PSOLWIDTH
 40
5
  9
$PSOLHEIGHT
 40
80
  9
$LOFTANG1
 40
1.570796326794897
  9
$LOFTANG2
 40
1.570796326794897
  9
$LOFTMAG1
 40
0
  9
$LOFTMAG2
 40
0
  9
$LOFTPARAM
 70
    7
  9
$LOFTNORMALS
280
    1
  9
$LATITUDE
 40
1
  9
$LONGITUDE
 40
1
  9
$NORTHDIRECTION
 40
0
  9
$TIMEZONE
 70
-8000
  9
$LIGHTGLYPHDISPLAY
280
    1
  9
$TILEMODELIGHTSYNCH
280
    1
  9
$SOLIDHIST
280
    1
  9
$SHOWHIST
280
    1
  9
$DWFFRAME
280
    2
  9
$DGNFRAME
280
    0
  9
$REALWORLDSCALE
290
    1
  9
$INTERFERECOLOR
 62
    1
  9
$CSHADOW
280
    0
  9
$SHADOWPLANELOCATION
 40
0
  0
ENDSEC
  0
SECTION
  2
CLASSES
  0
ENDSEC
  0
SECTION
  2
TABLES
  0
TABLE
  2
VPORT
  5
8
330
0
100
AcDbSymbolTable
 70
    1
  0
VPORT
  5
31
330
2
100
AcDbSymbolTableRecord
100
AcDbViewportTableRecord
  2
*ACTIVE
 70
    0
 10
0
 20
0
 11
1
 21
1
 12
66.27779089912228
 22
39.6027142575155
 13
0
 23
0
 14
10
 24
10
 15
10
 25
10
 16
0
 26
0
 36
1
 17
0
 27
0
 37
0
 40
122.0873484117038
 41
1.608471074380165
 42
50
 43
0
 44
0
 50
0
 51
0
 71
    0
 72
  100
 73
    1
 74
    3
 75
    0
 76
    0
 77
    0
 78
    0
281
    0
 65
    1
110
0
120
0
130
0
111
1
121
0
131
0
112
0
122
1
132
0
 79
    0
146
0
348
10020
 60
    7
 61
    5
292
1
282
    1
141
0
142
0
 63
  250
421
3358443
  0
ENDTAB
  0
TABLE
  2
LTYPE
  5
5
330
0
100
AcDbSymbolTable
 70
    4
  0
LTYPE
  5
14
330
5
100
AcDbSymbolTableRecord
100
AcDbLinetypeTableRecord
  2
ByBlock
 70
    0
  3

 72
   65
 73
    0
 40
0
  0
LTYPE
  5
15
330
5
100
AcDbSymbolTableRecord
100
AcDbLinetypeTableRecord
  2
ByLayer
 70
    0
  3

 72
   65
 73
    0
 40
0
  0
LTYPE
  5
16
330
5
100
AcDbSymbolTableRecord
100
AcDbLinetypeTableRecord
  2
Continuous
 70
    0
  3
Solid line
 72
   65
 73
    0
 40
0
  0
LTYPE
  5
32
330
5
100
AcDbSymbolTableRecord
100
AcDbLinetypeTableRecord
  2
DOT
 70
    0
  3
Dot . . . . . . . . . . . . . . . . . . . . . .
 72
   65
 73
    2
 40
6.35
 49
0
 74
    0
 49
-6.35
 74
    0
  0
LTYPE
  5
33
330
5
100
AcDbSymbolTableRecord
100
AcDbLinetypeTableRecord
  2
DOTTINY
 70
    0
  3
Dot (.15x) .....................................
 72
   65
 73
    2
 40
0.9525
 49
0
 74
    0
 49
-0.9525
 74
    0
  0
LTYPE
  5
34
330
5
100
AcDbSymbolTableRecord
100
AcDbLinetypeTableRecord
  2
DOT2
 70
    0
  3
Dot (.5x) .....................................
 72
   65
 73
    2
 40
3.175
 49
0
 74
    0
 49
-3.175
 74
    0
  0
LTYPE
  5
35
330
5
100
AcDbSymbolTableRecord
100
AcDbLinetypeTableRecord
  2
DOTX2
 70
    0
  3
Dot (2x) .  .  .  .  .  .  .  .  .  .  .  .  .
 72
   65
 73
    2
 40
12.7
 49
0
 74
    0
 49
-12.7
 74
    0
  0
LTYPE
  5
36
330
5
100
AcDbSymbolTableRecord
100
AcDbLinetypeTableRecord
  2
DASHED
 70
    0
  3
Dashed _ _ _ _ _ _ _ _ _ _ _ _ _ _ _ _ _
 72
   65
 73
    2
 40
19.05
 49
12.7
 74
    0
 49
-6.35
 74
    0
  0
LTYPE
  5
37
330
5
100
AcDbSymbolTableRecord
100
AcDbLinetypeTableRecord
  2
DASHEDTINY
 70
    0
  3
Dashed (.15x) _ _ _ _ _ _ _ _ _ _ _ _ _ _ _ _ _
 72
   65
 73
    2
 40
2.8575
 49
1.905
 74
    0
 49
-0.9525
 74
    0
  0
LTYPE
  5
38
330
5
100
AcDbSymbolTableRecord
100
AcDbLinetypeTableRecord
  2
DASHED2
 70
    0
  3
Dashed (.5x) _ _ _ _ _ _ _ _ _ _ _ _ _ _ _ _ _
 72
   65
 73
    2
 40
9.524999999999999
 49
6.35
 74
    0
 49
-3.175
 74
    0
  0
LTYPE
  5
39
330
5
100
AcDbSymbolTableRecord
100
AcDbLinetypeTableRecord
  2
DASHEDX2
 70
    0
  3
Dashed (2x) ____  ____  ____  ____  ____  ___
 72
   65
 73
    2
 40
38.09999999999999
 49
25.4
 74
    0
 49
-12.7
 74
    0
  0
LTYPE
  5
3A
330
5
100
AcDbSymbolTableRecord
100
AcDbLinetypeTableRecord
  2
DASHDOT
 70
    0
  3
Dash dot __ . __ . __ . __ . __ . __ . __ . __
 72
   65
 73
    4
 40
25.4
 49
12.7
 74
    0
 49
-6.35
 74
    0
 49
0
 74
    0
 49
-6.35
 74
    0
  0
LTYPE
  5
3B
330
5
100
AcDbSymbolTableRecord
100
AcDbLinetypeTableRecord
  2
DASHDOTTINY
 70
    0
  3
Dash dot (.15x) _._._._._._._._._._._._._._._.
 72
   65
 73
    4
 40
3.81
 49
1.905
 74
    0
 49
-0.9525
 74
    0
 49
0
 74
    0
 49
-0.9525
 74
    0
  0
LTYPE
  5
3C
330
5
100
AcDbSymbolTableRecord
100
AcDbLinetypeTableRecord
  2
DASHDOT2
 70
    0
  3
Dash dot (.5x) _._._._._._._._._._._._._._._.
 72
   65
 73
    4
 40
12.7
 49
6.35
 74
    0
 49
-3.175
 74
    0
 49
0
 74
    0
 49
-3.175
 74
    0
  0
LTYPE
  5
3D
330
5
100
AcDbSymbolTableRecord
100
AcDbLinetypeTableRecord
  2
DASHDOTX2
 70
    0
  3
Dash dot (2x) ____  .  ____  .  ____  .  ___
 72
   65
 73
    4
 40
50.8
 49
25.4
 74
    0
 49
-12.7
 74
    0
 49
0
 74
    0
 49
-12.7
 74
    0
  0
LTYPE
  5
3E
330
5
100
AcDbSymbolTableRecord
100
AcDbLinetypeTableRecord
  2
DIVIDE
 70
    0
  3
Divide ____ . . ____ . . ____ . . ____ . . ____
 72
   65
 73
    6
 40
31.75
 49
12.7
 74
    0
 49
-6.35
 74
    0
 49
0
 74
    0
 49
-6.35
 74
    0
 49
0
 74
    0
 49
-6.35
 74
    0
  0
LTYPE
  5
3F
330
5
100
AcDbSymbolTableRecord
100
AcDbLinetypeTableRecord
  2
DIVIDETINY
 70
    0
  3
Divide (.15x) __..__..__..__..__..__..__..__.._
 72
   65
 73
    6
 40
4.7625
 49
1.905
 74
    0
 49
-0.9525
 74
    0
 49
0
 74
    0
 49
-0.9525
 74
    0
 49
0
 74
    0
 49
-0.9525
 74
    0
  0
LTYPE
  5
40
330
5
100
AcDbSymbolTableRecord
100
AcDbLinetypeTableRecord
  2
DIVIDE2
 70
    0
  3
Divide (.5x) __..__..__..__..__..__..__..__.._
 72
   65
 73
    6
 40
15.875
 49
6.35
 74
    0
 49
-3.175
 74
    0
 49
0
 74
    0
 49
-3.175
 74
    0
 49
0
 74
    0
 49
-3.175
 74
    0
  0
LTYPE
  5
41
330
5
100
AcDbSymbolTableRecord
100
AcDbLinetypeTableRecord
  2
DIVIDEX2
 70
    0
  3
Divide (2x) ________  .  .  ________  .  .  _
 72
   65
 73
    6
 40
63.5
 49
25.4
 74
    0
 49
-12.7
 74
    0
 49
0
 74
    0
 49
-12.7
 74
    0
 49
0
 74
    0
 49
-12.7
 74
    0
  0
LTYPE
  5
42
330
5
100
AcDbSymbolTableRecord
100
AcDbLinetypeTableRecord
  2
BORDER
 70
    0
  3
Border __ __ . __ __ . __ __ . __ __ . __ __ .
 72
   65
 73
    6
 40
44.45
 49
12.7
 74
    0
 49
-6.35
 74
    0
 49
12.7
 74
    0
 49
-6.35
 74
    0
 49
0
 74
    0
 49
-6.35
 74
    0
  0
LTYPE
  5
43
330
5
100
AcDbSymbolTableRecord
100
AcDbLinetypeTableRecord
  2
BORDERTINY
 70
    0
  3
Border (.15x) __.__.__.__.__.__.__.__.__.__.__.
 72
   65
 73
    6
 40
6.6675
 49
1.905
 74
    0
 49
-0.9525
 74
    0
 49
1.905
 74
    0
 49
-0.9525
 74
    0
 49
0
 74
    0
 49
-0.9525
 74
    0
  0
LTYPE
  5
44
330
5
100
AcDbSymbolTableRecord
100
AcDbLinetypeTableRecord
  2
BORDER2
 70
    0
  3
Border (.5x) __.__.__.__.__.__.__.__.__.__.__.
 72
   65
 73
    6
 40
22.225
 49
6.35
 74
    0
 49
-3.175
 74
    0
 49
6.35
 74
    0
 49
-3.175
 74
    0
 49
0
 74
    0
 49
-3.175
 74
    0
  0
LTYPE
  5
45
330
5
100
AcDbSymbolTableRecord
100
AcDbLinetypeTableRecord
  2
BORDERX2
 70
    0
  3
Border (2x) ____  ____  .  ____  ____  .  ___
 72
   65
 73
    6
 40
88.89999999999999
 49
25.4
 74
    0
 49
-12.7
 74
    0
 49
25.4
 74
    0
 49
-12.7
 74
    0
 49
0
 74
    0
 49
-12.7
 74
    0
  0
LTYPE
  5
46
330
5
100
AcDbSymbolTableRecord
100
AcDbLinetypeTableRecord
  2
CENTER
 70
    0
  3
Center ____ _ ____ _ ____ _ ____ _ ____ _ ____
 72
   65
 73
    4
 40
50.8
 49
31.75
 74
    0
 49
-6.35
 74
    0
 49
6.35
 74
    0
 49
-6.35
 74
    0
  0
LTYPE
  5
47
330
5
100
AcDbSymbolTableRecord
100
AcDbLinetypeTableRecord
  2
CENTERTINY
 70
    0
  3
Center (.15x) ___ _ ___ _ ___ _ ___ _ ___ _ ___
 72
   65
 73
    4
 40
7.62
 49
4.7625
 74
    0
 49
-0.9525
 74
    0
 49
0.9525
 74
    0
 49
-0.9525
 74
    0
  0
LTYPE
  5
48
330
5
100
AcDbSymbolTableRecord
100
AcDbLinetypeTableRecord
  2
CENTER2
 70
    0
  3
Center (.5x) ___ _ ___ _ ___ _ ___ _ ___ _ ___
 72
   65
 73
    4
 40
28.575
 49
19.05
 74
    0
 49
-3.175
 74
    0
 49
3.175
 74
    0
 49
-3.175
 74
    0
  0
LTYPE
  5
49
330
5
100
AcDbSymbolTableRecord
100
AcDbLinetypeTableRecord
  2
CENTERX2
 70
    0
  3
Center (2x) ________  __  ________  __  _____
 72
   65
 73
    4
 40
101.6
 49
63.5
 74
    0
 49
-12.7
 74
    0
 49
12.7
 74
    0
 49
-12.7
 74
    0
  0
ENDTAB
  0
TABLE
  2
LAYER
  5
2
330
0
100
AcDbSymbolTable
 70
    1
  0
LAYER
  5
10
330
2
100
AcDbSymbolTableRecord
100
AcDbLayerTableRecord
  2
0
 70
    0
 62
    7
  6
CONTINUOUS
370
   -3
390
F
  0
ENDTAB
  0
TABLE
  2
STYLE
  5
3
330
0
100
AcDbSymbolTable
 70
    3
  0
STYLE
  5
4A
330
2
100
AcDbSymbolTableRecord
100
AcDbTextStyleTableRecord
  2
Standard
 70
    0
 40
0
 41
1
 50
0
 71
    0
 42
1
  3
txt
  4

  0
ENDTAB
  0
TABLE
  2
VIEW
  5
6
330
0
100
AcDbSymbolTable
 70
    0
  0
ENDTAB
  0
TABLE
  2
UCS
  5
7
330
0
100
AcDbSymbolTable
 70
    0
  0
ENDTAB
  0
TABLE
  2
APPID
  5
9
330
0
100
AcDbSymbolTable
 70
    1
  0
APPID
  5
12
330
9
100
AcDbSymbolTableRecord
100
AcDbRegAppTableRecord
  2
ACAD
 70
    0
  0
APPID
  5
4B
330
9
100
AcDbSymbolTableRecord
100
AcDbRegAppTableRecord
  2
LibreCad
 70
    0
  0
ENDTAB
  0
TABLE
  2
DIMSTYLE
  5
A
330
0
100
AcDbSymbolTable
 70
    1
100
AcDbDimStyleTable
 71
    1
  0
DIMSTYLE
105
4C
330
A
100
AcDbSymbolTableRecord
100
AcDbDimStyleTableRecord
  2
Standard
 70
    0
 40
1
 41
2.5
 42
0.625
 43
0.38
 44
1.25
 45
0
 46
0
 47
0
 48
0
 49
1
140
2.5
141
0.09
142
2.5
143
25.4
144
1
145
0
146
1
147
0.625
148
0
 71
    0
 72
    0
 73
    0
 74
    1
 75
    0
 76
    0
 77
    0
 78
    1
 79
    0
170
    0
171
    2
172
    0
173
    0
174
    0
175
    0
176
    0
177
    0
178
    0
179
    0
271
    2
272
    4
273
    2
274
    2
275
    0
276
    0
277
    2
278
    0
279
    0
280
    0
281
    0
282
    0
283
    1
284
    0
285
    0
286
    0
288
    0
289
    3
340
standard
341

371
   -2
372
   -2
  0
ENDTAB
  0
TABLE
  2
BLOCK_RECORD
  5
1
330
0
100
AcDbSymbolTable
 70
    2
  0
BLOCK_RECORD
  5
1F
330
1
100
AcDbSymbolTableRecord
100
AcDbBlockTableRecord
  2
*Model_Space
 70
    0
280
    1
281
    0
  0
BLOCK_RECORD
  5
1E
330
1
100
AcDbSymbolTableRecord
100
AcDbBlockTableRecord
  2
*Paper_Space
 70
    0
280
    1
281
    0
  0
ENDTAB
  0
ENDSEC
  0
SECTION
  2
BLOCKS
  0
BLOCK
  5
20
330
1F
100
AcDbEntity
  8
0
100
AcDbBlockBegin
  2
*Model_Space
 70
    0
 10
0
 20
0
 30
0
  3
*Model_Space
  1

  0
ENDBLK
  5
21
330
1F
100
AcDbEntity
  8
0
100
AcDbBlockEnd
  0
BLOCK
  5
1C
330
1B
100
AcDbEntity
  8
0
100
AcDbBlockBegin
  2
*Paper_Space
 70
    0
 10
0
 20
0
 30
0
  3
*Paper_Space
  1

  0
ENDBLK
  5
1D
330
1F
100
AcDbEntity
  8
0
100
AcDbBlockEnd
  0
ENDSEC
  0
SECTION
  2
ENTITIES
  0
LWPOLYLINE
  5
4D
100
AcDbEntity
  8
0
  6
ByLayer
 62
    7
370
   -1
100
AcDbPolyline
 90
  540
 70
    1
 43
0
 10
0.133783
 20
46.132034
 10
0.133783
 20
46.082034
 10
0.138883
 20
46.032234
 10
0.145083
 20
45.982634
 10
0.153783
 20
45.933434
 10
0.164793
 20
45.884734
 10
0.178343
 20
45.836634
 10
0.194343
 20
45.789234
 10
0.212543
 20
45.742734
 10
0.233113
 20
45.697234
 10
0.255973
 20
45.652734
 10
0.281033
 20
45.609434
 10
0.308183
 20
45.567434
 10
0.337533
 20
45.526934
 10
0.368773
 20
45.487934
 10
0.401933
 20
45.450534
 10
0.436903
 20
45.414834
 10
0.473643
 20
45.380934
 10
0.511993
 20
45.348934
 10
0.5519230000000001
 20
45.318834
 10
0.593293
 20
45.290734
 10
0.636023
 20
45.264734
 10
0.680023
 20
45.240934
 10
0.725123
 20
45.219334
 10
0.771243
 20
45.200034
 10
0.818293
 20
45.183134
 10
0.866133
 20
45.168534
 10
0.914623
 20
45.156334
 10
0.963643
 20
45.146334
 10
1.013113
 20
45.139334
 10
1.062873
 20
45.134334
 10
1.112824
 20
45.132334
 10
1.133624
 20
45.132064
 10
3.133536
 20
45.132064
 10
3.133536
 20
35.132059
 10
1.13354
 20
35.132059
 10
1.083559
 20
35.131059
 10
1.033689
 20
35.127059
 10
0.9840989999999999
 20
35.121059
 10
0.934849
 20
35.112059
 10
0.886139
 20
35.100859
 10
0.838019
 20
35.087259
 10
0.790639
 20
35.071359
 10
0.744129
 20
35.053059
 10
0.6985789999999999
 20
35.032459
 10
0.654099
 20
35.009559
 10
0.610839
 20
34.984559
 10
0.568899
 20
34.957359
 10
0.528339
 20
34.928059
 10
0.489309
 20
34.896859
 10
0.451889
 20
34.863659
 10
0.416189
 20
34.828659
 10
0.382269
 20
34.791959
 10
0.350209
 20
34.753559
 10
0.320129
 20
34.713659
 10
0.292079
 20
34.672259
 10
0.265999
 20
34.629559
 10
0.242239
 20
34.585559
 10
0.220619
 20
34.540459
 10
0.201229
 20
34.494359
 10
0.184179
 20
34.447359
 10
0.169589
 20
34.399559
 10
0.157449
 20
34.351059
 10
0.147549
 20
34.302059
 10
0.140249
 20
34.252559
 10
0.135449
 20
34.202759
 10
0.133249
 20
34.152859
 10
0.133249
 20
34.132059
 10
0.133249
 20
31.132067
 10
0.133249
 20
31.082067
 10
0.138349
 20
31.032167
 10
0.144549
 20
30.982567
 10
0.153349
 20
30.933367
 10
0.164359
 20
30.884667
 10
0.177909
 20
30.836567
 10
0.193909
 20
30.789167
 10
0.212109
 20
30.742667
 10
0.232679
 20
30.697067
 10
0.255539
 20
30.652567
 10
0.280599
 20
30.609267
 10
0.307749
 20
30.567267
 10
0.337099
 20
30.526767
 10
0.368339
 20
30.487767
 10
0.401499
 20
30.450367
 10
0.436469
 20
30.414667
 10
0.473219
 20
30.380767
 10
0.5115690000000001
 20
30.348767
 10
0.551499
 20
30.318667
 10
0.592869
 20
30.290567
 10
0.635599
 20
30.264667
 10
0.679599
 20
30.240867
 10
0.724699
 20
30.219267
 10
0.770819
 20
30.199967
 10
0.817869
 20
30.183067
 10
0.865709
 20
30.168467
 10
0.914199
 20
30.156267
 10
0.963219
 20
30.146267
 10
1.012689
 20
30.139267
 10
1.062449
 20
30.134267
 10
1.1124
 20
30.132267
 10
1.1332
 20
30.132007
 10
3.133112
 20
30.132007
 10
3.133112
 20
20.132002
 10
1.133116
 20
20.132002
 10
1.083135
 20
20.131002
 10
1.033265
 20
20.127002
 10
0.983675
 20
20.121002
 10
0.934425
 20
20.112002
 10
0.885715
 20
20.100802
 10
0.837595
 20
20.087202
 10
0.790215
 20
20.071202
 10
0.7437049999999999
 20
20.052902
 10
0.698155
 20
20.032302
 10
0.653675
 20
20.009402
 10
0.610415
 20
19.984402
 10
0.568475
 20
19.957202
 10
0.527915
 20
19.927902
 10
0.488885
 20
19.896702
 10
0.451465
 20
19.863502
 10
0.415765
 20
19.828502
 10
0.381845
 20
19.791802
 10
0.349785
 20
19.753402
 10
0.319695
 20
19.713502
 10
0.291645
 20
19.672102
 10
0.265565
 20
19.629402
 10
0.241805
 20
19.585402
 10
0.220185
 20
19.540302
 10
0.200795
 20
19.494202
 10
0.183745
 20
19.447202
 10
0.169155
 20
19.399402
 10
0.157015
 20
19.350902
 10
0.147115
 20
19.301902
 10
0.139815
 20
19.252402
 10
0.135015
 20
19.202602
 10
0.132815
 20
19.152702
 10
0.132815
 20
19.131902
 10
0.132815
 20
16.13191
 10
0.132815
 20
16.08191
 10
0.137915
 20
16.03201
 10
0.144115
 20
15.98241
 10
0.152815
 20
15.93321
 10
0.163825
 20
15.88451
 10
0.177375
 20
15.83641
 10
0.193375
 20
15.78901
 10
0.211575
 20
15.74251
 10
0.232145
 20
15.69701
 10
0.255005
 20
15.65251
 10
0.280065
 20
15.60921
 10
0.307215
 20
15.56721
 10
0.336565
 20
15.52671
 10
0.367805
 20
15.48771
 10
0.400965
 20
15.45031
 10
0.435935
 20
15.41461
 10
0.472685
 20
15.38071
 10
0.511035
 20
15.34871
 10
0.550965
 20
15.31861
 10
0.5923349999999999
 20
15.29051
 10
0.635065
 20
15.26451
 10
0.679065
 20
15.24071
 10
0.7241649999999999
 20
15.21911
 10
0.770285
 20
15.19981
 10
0.817335
 20
15.18291
 10
0.865175
 20
15.16841
 10
0.9136649999999999
 20
15.15621
 10
0.962685
 20
15.14621
 10
1.012155
 20
15.13921
 10
1.061905
 20
15.13421
 10
1.111856
 20
15.13221
 10
1.132656
 20
15.13195
 10
3.132568
 20
15.13195
 10
3.132568
 20
5.131925
 10
1.132572
 20
5.131925
 10
1.082591
 20
5.131925
 10
1.032721
 20
5.127925
 10
0.983131
 20
5.121925
 10
0.933881
 20
5.112925
 10
0.885171
 20
5.101825
 10
0.837051
 20
5.088325
 10
0.789671
 20
5.072425
 10
0.743161
 20
5.054125
 10
0.697611
 20
5.033525
 10
0.653131
 20
5.010525
 10
0.609861
 20
4.985425
 10
0.567921
 20
4.958225
 10
0.527361
 20
4.928925
 10
0.488331
 20
4.897725
 10
0.450911
 20
4.864625
 10
0.415211
 20
4.829625
 10
0.381291
 20
4.792925
 10
0.349231
 20
4.754525
 10
0.319141
 20
4.714625
 10
0.291091
 20
4.673225
 10
0.265011
 20
4.630525
 10
0.241251
 20
4.586525
 10
0.219631
 20
4.541425
 10
0.200241
 20
4.495325
 10
0.183191
 20
4.448325
 10
0.168601
 20
4.400525
 10
0.156461
 20
4.352025
 10
0.146561
 20
4.302925
 10
0.139261
 20
4.253425
 10
0.134461
 20
4.203625
 10
0.132261
 20
4.153625
 10
0.132261
 20
4.132725
 10
0.132261
 20
1.132744
 10
0.132261
 20
1.082743
 10
0.137361
 20
1.032843
 10
0.143561
 20
0.983243
 10
0.152361
 20
0.934043
 10
0.163371
 20
0.885343
 10
0.176921
 20
0.837243
 10
0.192921
 20
0.789843
 10
0.211121
 20
0.743343
 10
0.231691
 20
0.697843
 10
0.254551
 20
0.653443
 10
0.279611
 20
0.610143
 10
0.306761
 20
0.5682430000000001
 10
0.336111
 20
0.527643
 10
0.367351
 20
0.488643
 10
0.400511
 20
0.451243
 10
0.435481
 20
0.415543
 10
0.472231
 20
0.381643
 10
0.510581
 20
0.349543
 10
0.550511
 20
0.319443
 10
0.591881
 20
0.291343
 10
0.634611
 20
0.265443
 10
0.678611
 20
0.241643
 10
0.723711
 20
0.220243
 10
0.769831
 20
0.200943
 10
0.816881
 20
0.184043
 10
0.864721
 20
0.169543
 10
0.913211
 20
0.157343
 10
0.9622309999999999
 20
0.147343
 10
1.011701
 20
0.140343
 10
1.061461
 20
0.135343
 10
1.111412
 20
0.132343
 10
1.132212
 20
0.132083
 10
35.132096
 20
0.132083
 10
35.182096
 20
0.132083
 10
35.231996
 20
0.136083
 10
35.281596
 20
0.142083
 10
35.330896
 20
0.151083
 10
35.379596
 20
0.162183
 10
35.427696
 20
0.175683
 10
35.475096
 20
0.191583
 10
35.521596
 20
0.209883
 10
35.567096
 20
0.230483
 10
35.611596
 20
0.253483
 10
35.654896
 20
0.278583
 10
35.696796
 20
0.305783
 10
35.737396
 20
0.335083
 10
35.776396
 20
0.366283
 10
35.813796
 20
0.399483
 10
35.849496
 20
0.434483
 10
35.883396
 20
0.471283
 10
35.915496
 20
0.509683
 10
35.945596
 20
0.549583
 10
35.973696
 20
0.590983
 10
35.999796
 20
0.633683
 10
36.023596
 20
0.677683
 10
36.045196
 20
0.722783
 10
36.064597
 20
0.768883
 10
36.081597
 20
0.815883
 10
36.096197
 20
0.863683
 10
36.108397
 20
0.912183
 10
36.118397
 20
0.961283
 10
36.125397
 20
1.010683
 10
36.130397
 20
1.060483
 10
36.132397
 20
1.110384
 10
36.132397
 20
1.131284
 10
36.132397
 20
4.131255
 10
36.132397
 20
4.181255
 10
36.127397
 20
4.231155
 10
36.121397
 20
4.280755
 10
36.112397
 20
4.329955
 10
36.101397
 20
4.378655
 10
36.087597
 20
4.426755
 10
36.071597
 20
4.474155
 10
36.053396
 20
4.520655
 10
36.032796
 20
4.566155
 10
36.009896
 20
4.610555
 10
35.984796
 20
4.653855
 10
35.957596
 20
4.695855
 10
35.928296
 20
4.736455
 10
35.897096
 20
4.775455
 10
35.863896
 20
4.812855
 10
35.828896
 20
4.848555
 10
35.792196
 20
4.882455
 10
35.753896
 20
4.914455
 10
35.713996
 20
4.944555
 10
35.672596
 20
4.972555
 10
35.629896
 20
4.998455
 10
35.585896
 20
5.022255
 10
35.540796
 20
5.043955
 10
35.494696
 20
5.063255
 10
35.447696
 20
5.080155
 10
35.399896
 20
5.094655
 10
35.351396
 20
5.106855
 10
35.302396
 20
5.116855
 10
35.252896
 20
5.123855
 10
35.203096
 20
5.128855
 10
35.153196
 20
5.131855
 10
35.132396
 20
5.132125
 10
33.132485
 20
5.132125
 10
33.132485
 20
15.13214
 10
35.132486
 20
15.13214
 10
35.182486
 20
15.13314
 10
35.232386
 20
15.13714
 10
35.281986
 20
15.14314
 10
35.331286
 20
15.15214
 10
35.379986
 20
15.16334
 10
35.428086
 20
15.17694
 10
35.475486
 20
15.19284
 10
35.521986
 20
15.21114
 10
35.567486
 20
15.23174
 10
35.611986
 20
15.25464
 10
35.655286
 20
15.27974
 10
35.697186
 20
15.30694
 10
35.737686
 20
15.33624
 10
35.776686
 20
15.36744
 10
35.814086
 20
15.40064
 10
35.849786
 20
15.43564
 10
35.883686
 20
15.47234
 10
35.915786
 20
15.51074
 10
35.945886
 20
15.55064
 10
35.973986
 20
15.59204
 10
36.000086
 20
15.63474
 10
36.023886
 20
15.67874
 10
36.045486
 20
15.72384
 10
36.064887
 20
15.76994
 10
36.081887
 20
15.81694
 10
36.096487
 20
15.86474
 10
36.108687
 20
15.91324
 10
36.118687
 20
15.96224
 10
36.125687
 20
16.01174
 10
36.130687
 20
16.06154
 10
36.132687
 20
16.11144
 10
36.132687
 20
16.13224
 10
36.132687
 20
19.132242
 10
36.132687
 20
19.182242
 10
36.127687
 20
19.232142
 10
36.121687
 20
19.281742
 10
36.112687
 20
19.330942
 10
36.101687
 20
19.379642
 10
36.087887
 20
19.427742
 10
36.071887
 20
19.475142
 10
36.053686
 20
19.521642
 10
36.033086
 20
19.567142
 10
36.010186
 20
19.611642
 10
35.985086
 20
19.654942
 10
35.957886
 20
19.696942
 10
35.928586
 20
19.737442
 10
35.897386
 20
19.776442
 10
35.864186
 20
19.813842
 10
35.829186
 20
19.849542
 10
35.792486
 20
19.883442
 10
35.754186
 20
19.915442
 10
35.714286
 20
19.945542
 10
35.672886
 20
19.973642
 10
35.630186
 20
19.999642
 10
35.586186
 20
20.023442
 10
35.541086
 20
20.044942
 10
35.494986
 20
20.064242
 10
35.447986
 20
20.081142
 10
35.400186
 20
20.095742
 10
35.351686
 20
20.107942
 10
35.302686
 20
20.117942
 10
35.253186
 20
20.124942
 10
35.203486
 20
20.129942
 10
35.153486
 20
20.131942
 10
35.132686
 20
20.132212
 10
33.132775
 20
20.132212
 10
33.132775
 20
30.132217
 10
35.132766
 20
30.132217
 10
35.182766
 20
30.133217
 10
35.232666
 20
30.137217
 10
35.282266
 20
30.143217
 10
35.331566
 20
30.152217
 10
35.380266
 20
30.163417
 10
35.428366
 20
30.177017
 10
35.475766
 20
30.193017
 10
35.522266
 20
30.211317
 10
35.567766
 20
30.231917
 10
35.612266
 20
30.254817
 10
35.655566
 20
30.279817
 10
35.697466
 20
30.307017
 10
35.737966
 20
30.336317
 10
35.776966
 20
30.367517
 10
35.814366
 20
30.400717
 10
35.850066
 20
30.435717
 10
35.883966
 20
30.472417
 10
35.916066
 20
30.510817
 10
35.946166
 20
30.550717
 10
35.974166
 20
30.592117
 10
36.000266
 20
30.634817
 10
36.024066
 20
30.678817
 10
36.045666
 20
30.723917
 10
36.065067
 20
30.770017
 10
36.082067
 20
30.817017
 10
36.096667
 20
30.864817
 10
36.108767
 20
30.913317
 10
36.118767
 20
30.962317
 10
36.125767
 20
31.011817
 10
36.130767
 20
31.061617
 10
36.132767
 20
31.111517
 10
36.132767
 20
31.132317
 10
36.132767
 20
34.132309
 10
36.132767
 20
34.182309
 10
36.127767
 20
34.232109
 10
36.121767
 20
34.281709
 10
36.112767
 20
34.330909
 10
36.101767
 20
34.379609
 10
36.087967
 20
34.427709
 10
36.071967
 20
34.475109
 10
36.053766
 20
34.521609
 10
36.033166
 20
34.567109
 10
36.010266
 20
34.611609
 10
35.985166
 20
34.654909
 10
35.957966
 20
34.696809
 10
35.928566
 20
34.737309
 10
35.897366
 20
34.776309
 10
35.864166
 20
34.813709
 10
35.829166
 20
34.849409
 10
35.792466
 20
34.883309
 10
35.754066
 20
34.915309
 10
35.714166
 20
34.945409
 10
35.672766
 20
34.973409
 10
35.630066
 20
34.999409
 10
35.586066
 20
35.023209
 10
35.540966
 20
35.044809
 10
35.494866
 20
35.064109
 10
35.447866
 20
35.081009
 10
35.400066
 20
35.095609
 10
35.351566
 20
35.107809
 10
35.302566
 20
35.117809
 10
35.253066
 20
35.124809
 10
35.203366
 20
35.129809
 10
35.153366
 20
35.131809
 10
35.132566
 20
35.132079
 10
33.132655
 20
35.132079
 10
33.132655
 20
45.132084
 10
35.132656
 20
45.132084
 10
35.182656
 20
45.133084
 10
35.232556
 20
45.137084
 10
35.282156
 20
45.143084
 10
35.331456
 20
45.152084
 10
35.380156
 20
45.163284
 10
35.428256
 20
45.176884
 10
35.475656
 20
45.192884
 10
35.522156
 20
45.211184
 10
35.567656
 20
45.231784
 10
35.612156
 20
45.254684
 10
35.655456
 20
45.279784
 10
35.697356
 20
45.306984
 10
35.737956
 20
45.336284
 10
35.776956
 20
45.367484
 10
35.814356
 20
45.400684
 10
35.850056
 20
45.435684
 10
35.883956
 20
45.472384
 10
35.916056
 20
45.510784
 10
35.946156
 20
45.550684
 10
35.974256
 20
45.592084
 10
36.000356
 20
45.634784
 10
36.024156
 20
45.678784
 10
36.045756
 20
45.723884
 10
36.065157
 20
45.769984
 10
36.082157
 20
45.816984
 10
36.096757
 20
45.864784
 10
36.108857
 20
45.913284
 10
36.118857
 20
45.962284
 10
36.125857
 20
46.011784
 10
36.130857
 20
46.061584
 10
36.132857
 20
46.111484
 10
36.132857
 20
46.132284
 10
36.132857
 20
49.132275
 10
36.132857
 20
49.182276
 10
36.127857
 20
49.232176
 10
36.121857
 20
49.281776
 10
36.112857
 20
49.330976
 10
36.101857
 20
49.379676
 10
36.088057
 20
49.427776
 10
36.072057
 20
49.475176
 10
36.053856
 20
49.521676
 10
36.033256
 20
49.567276
 10
36.010356
 20
49.611776
 10
35.985256
 20
49.655076
 10
35.958056
 20
49.697076
 10
35.928756
 20
49.737576
 10
35.897556
 20
49.776576
 10
35.864356
 20
49.813976
 10
35.829356
 20
49.849676
 10
35.792656
 20
49.883576
 10
35.754256
 20
49.915576
 10
35.714356
 20
49.945676
 10
35.672956
 20
49.973776
 10
35.630256
 20
49.999776
 10
35.586256
 20
50.023576
 10
35.541156
 20
50.045076
 10
35.495056
 20
50.064376
 10
35.448056
 20
50.081376
 10
35.400256
 20
50.095976
 10
35.351756
 20
50.108176
 10
35.302756
 20
50.118176
 10
35.253256
 20
50.125176
 10
35.203456
 20
50.130176
 10
35.153456
 20
50.132176
 10
35.132656
 20
50.132446
 10
1.13302
 20
50.132446
 10
1.083039
 20
50.131446
 10
1.033169
 20
50.127446
 10
0.983579
 20
50.121446
 10
0.934329
 20
50.112446
 10
0.885619
 20
50.101246
 10
0.837499
 20
50.087646
 10
0.790109
 20
50.071646
 10
0.743599
 20
50.053346
 10
0.698049
 20
50.032746
 10
0.653569
 20
50.009846
 10
0.610299
 20
49.984746
 10
0.5683589999999999
 20
49.957546
 10
0.527799
 20
49.928246
 10
0.488769
 20
49.897046
 10
0.451349
 20
49.863846
 10
0.415649
 20
49.828846
 10
0.381729
 20
49.792146
 10
0.349669
 20
49.753746
 10
0.319589
 20
49.713846
 10
0.291539
 20
49.672446
 10
0.265459
 20
49.629746
 10
0.241699
 20
49.585746
 10
0.220079
 20
49.540646
 10
0.200689
 20
49.494546
 10
0.183639
 20
49.447546
 10
0.169049
 20
49.399746
 10
0.156909
 20
49.351246
 10
0.147009
 20
49.302246
 10
0.139709
 20
49.252746
 10
0.134909
 20
49.202946
 10
0.132709
 20
49.153045
 10
0.132709
 20
49.132245
  0
ENDSEC
  0
SECTION
  2
OBJECTS
  0
DICTIONARY
  5
C
330
0
100
AcDbDictionary
281
    1
  3
ACAD_GROUP
350
D
  0
DICTIONARY
  5
D
330
C
100
AcDbDictionary
281
    1
  0
ENDSEC
  0
EOF
