  0
SECTION
  2
HEADER
  9
$ACADVER
  1
AC1014
  9
$ACADMAINTVER
 70
     9
  9
$DWGCODEPAGE
  3
ANSI_1252
  9
$INSBASE
 10
0.0
 20
0.0
 30
0.0
  9
$EXTMIN
 10
-36.0000001192
 20
10.0
 30
0.0
  9
$EXTMAX
 10
-0.0000001192092896
 20
60.0
 30
0.0
  9
$LIMMIN
 10
0.0
 20
0.0
  9
$LIMMAX
 10
12.0
 20
9.0
  9
$ORTHOMODE
 70
     0
  9
$REGENMODE
 70
     1
  9
$FILLMODE
 70
     1
  9
$QTEXTMODE
 70
     0
  9
$MIRRTEXT
 70
     1
  9
$DRAGMODE
 70
     2
  9
$LTSCALE
 40
1.0
  9
$OSMODE
 70
   511
  9
$ATTMODE
 70
     1
  9
$TEXTSIZE
 40
1.0
  9
$TRACEWID
 40
0.05
  9
$TEXTSTYLE
  7
STANDARD
  9
$CLAYER
  8
0
  9
$CELTYPE
  6
BYBLOCK
  9
$CECOLOR
 62
   256
  9
$CELTSCALE
 40
1.0
  9
$DELOBJ
 70
     1
  9
$DISPSILH
 70
     0
  9
$DIMSCALE
 40
1.0
  9
$DIMASZ
 40
0.18
  9
$DIMEXO
 40
0.0625
  9
$DIMDLI
 40
0.38
  9
$DIMRND
 40
0.0
  9
$DIMDLE
 40
0.0
  9
$DIMEXE
 40
0.18
  9
$DIMTP
 40
0.0
  9
$DIMTM
 40
0.0
  9
$DIMTXT
 40
0.18
  9
$DIMCEN
 40
0.09
  9
$DIMTSZ
 40
0.0
  9
$DIMTOL
 70
     0
  9
$DIMLIM
 70
     0
  9
$DIMTIH
 70
     1
  9
$DIMTOH
 70
     1
  9
$DIMSE1
 70
     0
  9
$DIMSE2
 70
     0
  9
$DIMTAD
 70
     0
  9
$DIMZIN
 70
     0
  9
$DIMBLK
  1

  9
$DIMASO
 70
     1
  9
$DIMSHO
 70
     1
  9
$DIMPOST
  1

  9
$DIMAPOST
  1

  9
$DIMALT
 70
     0
  9
$DIMALTD
 70
     2
  9
$DIMALTF
 40
25.4
  9
$DIMLFAC
 40
1.0
  9
$DIMTOFL
 70
     0
  9
$DIMTVP
 40
0.0
  9
$DIMTIX
 70
     0
  9
$DIMSOXD
 70
     0
  9
$DIMSAH
 70
     0
  9
$DIMBLK1
  1

  9
$DIMBLK2
  1

  9
$DIMSTYLE
  2
STANDARD
  9
$DIMCLRD
 70
     0
  9
$DIMCLRE
 70
     0
  9
$DIMCLRT
 70
     0
  9
$DIMTFAC
 40
1.0
  9
$DIMGAP
 40
0.09
  9
$DIMJUST
 70
     0
  9
$DIMSD1
 70
     0
  9
$DIMSD2
 70
     0
  9
$DIMTOLJ
 70
     1
  9
$DIMTZIN
 70
     0
  9
$DIMALTZ
 70
     0
  9
$DIMALTTZ
 70
     0
  9
$DIMFIT
 70
     5
  9
$DIMUPT
 70
     0
  9
$DIMUNIT
 70
     2
  9
$DIMDEC
 70
     4
  9
$DIMTDEC
 70
     4
  9
$DIMALTU
 70
     2
  9
$DIMALTTD
 70
     2
  9
$DIMTXSTY
  7
STANDARD
  9
$DIMAUNIT
 70
     0
  9
$LUNITS
 70
     2
  9
$LUPREC
 70
     4
  9
$SKETCHINC
 40
0.1
  9
$FILLETRAD
 40
0.5
  9
$AUNITS
 70
     0
  9
$AUPREC
 70
     0
  9
$MENU
  1
.
  9
$ELEVATION
 40
0.0
  9
$PELEVATION
 40
0.0
  9
$THICKNESS
 40
0.0
  9
$LIMCHECK
 70
     0
  9
$CHAMFERA
 40
0.0
  9
$CHAMFERB
 40
0.0
  9
$CHAMFERC
 40
0.0
  9
$CHAMFERD
 40
0.0
  9
$SKPOLY
 70
     0
  9
$TDCREATE
 40
2458100.58244412
  9
$TDUPDATE
 40
2458100.583174711
  9
$TDINDWG
 40
0.0000000463
  9
$TDUSRTIMER
 40
2458100.583052326
  9
$USRTIMER
 70
     1
  9
$ANGBASE
 50
0.0
  9
$ANGDIR
 70
     0
  9
$PDMODE
 70
     0
  9
$PDSIZE
 40
0.0
  9
$PLINEWID
 40
0.0
  9
$COORDS
 70
     1
  9
$SPLFRAME
 70
     0
  9
$SPLINETYPE
 70
     6
  9
$SPLINESEGS
 70
     8
  9
$ATTDIA
 70
     0
  9
$ATTREQ
 70
     1
  9
$HANDLING
 70
     1
  9
$HANDSEED
  5
2C0
  9
$SURFTAB1
 70
     6
  9
$SURFTAB2
 70
     6
  9
$SURFTYPE
 70
     6
  9
$SURFU
 70
     6
  9
$SURFV
 70
     6
  9
$UCSNAME
  2

  9
$UCSORG
 10
0.0
 20
0.0
 30
0.0
  9
$UCSXDIR
 10
1.0
 20
0.0
 30
0.0
  9
$UCSYDIR
 10
0.0
 20
1.0
 30
0.0
  9
$PUCSNAME
  2

  9
$PUCSORG
 10
0.0
 20
0.0
 30
0.0
  9
$PUCSXDIR
 10
1.0
 20
0.0
 30
0.0
  9
$PUCSYDIR
 10
0.0
 20
1.0
 30
0.0
  9
$USERI1
 70
     0
  9
$USERI2
 70
     0
  9
$USERI3
 70
     0
  9
$USERI4
 70
     0
  9
$USERI5
 70
     0
  9
$USERR1
 40
0.0
  9
$USERR2
 40
0.0
  9
$USERR3
 40
0.0
  9
$USERR4
 40
0.0
  9
$USERR5
 40
0.0
  9
$WORLDVIEW
 70
     1
  9
$SHADEDGE
 70
     3
  9
$SHADEDIF
 70
    70
  9
$TILEMODE
 70
     1
  9
$MAXACTVP
 70
    64
  9
$PINSBASE
 10
0.0
 20
0.0
 30
0.0
  9
$PLIMCHECK
 70
     0
  9
$PEXTMIN
 10
1.000000000000000E+20
 20
1.000000000000000E+20
 30
1.000000000000000E+20
  9
$PEXTMAX
 10
-1.000000000000000E+20
 20
-1.000000000000000E+20
 30
-1.000000000000000E+20
  9
$PLIMMIN
 10
0.0
 20
0.0
  9
$PLIMMAX
 10
0.0
 20
0.0
  9
$UNITMODE
 70
     0
  9
$VISRETAIN
 70
     1
  9
$PLINEGEN
 70
     0
  9
$PSLTSCALE
 70
     1
  9
$TREEDEPTH
 70
  3020
  9
$PICKSTYLE
 70
     1
  9
$CMLSTYLE
  2
STANDARD
  9
$CMLJUST
 70
     0
  9
$CMLSCALE
 40
1.0
  9
$PROXYGRAPHICS
 70
     1
  9
$MEASUREMENT
 70
     0
  0
ENDSEC
  0
SECTION
  2
CLASSES
  0
CLASS
  1
ACDBDICTIONARYWDFLT
  2
AcDbDictionaryWithDefault
  3
ObjectDBX Classes
 90
        0
280
     0
281
     0
  0
CLASS
  1
MATERIAL
  2
AcDbMaterial
  3
ObjectDBX Classes
 90
     1153
280
     0
281
     0
  0
CLASS
  1
SCALE
  2
AcDbScale
  3
ObjectDBX Classes
 90
     1153
280
     0
281
     0
  0
CLASS
  1
VISUALSTYLE
  2
AcDbVisualStyle
  3
ObjectDBX Classes
 90
     4095
280
     0
281
     0
  0
CLASS
  1
TABLESTYLE
  2
AcDbTableStyle
  3
ObjectDBX Classes
 90
     4095
280
     0
281
     0
  0
CLASS
  1
MLEADERSTYLE
  2
AcDbMLeaderStyle
  3
ACDB_MLEADERSTYLE_CLASS
 90
     4095
280
     0
281
     0
  0
CLASS
  1
SUN
  2
AcDbSun
  3
SCENEOE
 90
     1153
280
     0
281
     0
  0
CLASS
  1
RASTERVARIABLES
  2
AcDbRasterVariables
  3
ISM
 90
        0
280
     0
281
     0
  0
CLASS
  1
XRECORD
  2
AcDbXrecord
  3
ObjectDBX Classes
 90
        0
280
     0
281
     0
  0
CLASS
  1
LWPOLYLINE
  2
AcDbPolyline
  3
ObjectDBX Classes
 90
        0
280
     0
281
     1
  0
CLASS
  1
HATCH
  2
AcDbHatch
  3
ObjectDBX Classes
 90
        0
280
     0
281
     1
  0
ENDSEC
  0
SECTION
  2
TABLES
  0
TABLE
  2
VPORT
  5
8
330
0
100
AcDbSymbolTable
 70
     1
  0
VPORT
  5
28
330
8
100
AcDbSymbolTableRecord
100
AcDbViewportTableRecord
  2
*ACTIVE
 70
     0
 10
0.0
 20
0.0
 11
1.0
 21
1.0
 12
51.51004755598182
 22
8.605063476118486
 13
0.0
 23
0.0
 14
0.5
 24
0.5
 15
0.5
 25
0.5
 16
0.0
 26
0.0
 36
1.0
 17
0.0
 27
0.0
 37
0.0
 40
137.4900804560963
 41
1.503496503496504
 42
50.0
 43
0.0
 44
0.0
 50
0.0
 51
0.0
 71
    16
 72
   100
 73
     1
 74
     3
 75
     0
 76
     0
 77
     0
 78
     0
  0
ENDTAB
  0
TABLE
  2
LTYPE
  5
5
330
0
100
AcDbSymbolTable
 70
     1
  0
LTYPE
  5
14
330
5
100
AcDbSymbolTableRecord
100
AcDbLinetypeTableRecord
  2
BYBLOCK
 70
     0
  3

 72
    65
 73
     0
 40
0.0
  0
LTYPE
  5
15
330
5
100
AcDbSymbolTableRecord
100
AcDbLinetypeTableRecord
  2
BYLAYER
 70
     0
  3

 72
    65
 73
     0
 40
0.0
  0
LTYPE
  5
16
330
5
100
AcDbSymbolTableRecord
100
AcDbLinetypeTableRecord
  2
CONTINUOUS
 70
     0
  3
Solid line
 72
    65
 73
     0
 40
0.0
  0
ENDTAB
  0
TABLE
  2
LAYER
  5
2
330
0
100
AcDbSymbolTable
 70
     1
  0
LAYER
  5
10
330
2
100
AcDbSymbolTableRecord
100
AcDbLayerTableRecord
  2
0
 70
     0
 62
     7
  6
CONTINUOUS
  0
ENDTAB
  0
TABLE
  2
STYLE
  5
3
330
0
100
AcDbSymbolTable
 70
     1
  0
STYLE
  5
11
330
3
100
AcDbSymbolTableRecord
100
AcDbTextStyleTableRecord
  2
STANDARD
 70
     0
 40
0.0
 41
1.0
 50
0.0
 71
     0
 42
1.0
  3
ARIAL.TTF
  4

  0
ENDTAB
  0
TABLE
  2
VIEW
  5
6
330
0
100
AcDbSymbolTable
 70
     0
  0
ENDTAB
  0
TABLE
  2
UCS
  5
7
330
0
100
AcDbSymbolTable
 70
     0
  0
ENDTAB
  0
TABLE
  2
APPID
  5
9
330
0
100
AcDbSymbolTable
 70
     1
  0
APPID
  5
12
330
9
100
AcDbSymbolTableRecord
100
AcDbRegAppTableRecord
  2
ACAD
 70
     0
  0
ENDTAB
  0
TABLE
  2
DIMSTYLE
  5
A
330
0
100
AcDbSymbolTable
 70
     1
  0
DIMSTYLE
105
27
330
A
100
AcDbSymbolTableRecord
100
AcDbDimStyleTableRecord
  2
STANDARD
 70
     0
  3

  4

  5

  6

  7

 40
1.0
 41
0.18
 42
0.0625
 43
0.38
 44
0.18
 45
0.0
 46
0.0
 47
0.0
 48
0.0
140
0.18
141
0.09
142
0.0
143
25.4
144
1.0
145
0.0
146
1.0
147
0.09
 71
     0
 72
     0
 73
     1
 74
     1
 75
     0
 76
     0
 77
     0
 78
     0
170
     0
171
     2
172
     0
173
     0
174
     0
175
     0
176
     0
177
     0
178
     0
270
     2
271
     4
272
     4
273
     2
274
     2
340
11
275
     0
280
     0
281
     0
282
     0
283
     1
284
     0
285
     0
286
     0
287
     3
288
     0
  0
ENDTAB
  0
TABLE
  2
BLOCK_RECORD
  5
1
330
0
100
AcDbSymbolTable
 70
     1
  0
BLOCK_RECORD
  5
1D
330
1
100
AcDbSymbolTableRecord
100
AcDbBlockTableRecord
  2
*MODEL_SPACE
  0
BLOCK_RECORD
  5
1B
330
1
100
AcDbSymbolTableRecord
100
AcDbBlockTableRecord
  2
*PAPER_SPACE
  0
BLOCK_RECORD
  5
2A
330
1
100
AcDbSymbolTableRecord
100
AcDbBlockTableRecord
  2
REFINE003
  0
ENDTAB
  0
ENDSEC
  0
SECTION
  2
BLOCKS
  0
BLOCK
  5
29B
330
1D
100
AcDbEntity
  8
0
100
AcDbBlockBegin
  2
*MODEL_SPACE
 70
     0
 10
0.0
 20
0.0
 30
0.0
  3
*MODEL_SPACE
  1

  0
ENDBLK
  5
29C
330
1D
100
AcDbEntity
  8
0
100
AcDbBlockEnd
  0
BLOCK
  5
29D
330
1B
100
AcDbEntity
 67
     1
  8
0
100
AcDbBlockBegin
  2
*PAPER_SPACE
 70
     0
 10
0.0
 20
0.0
 30
0.0
  3
*PAPER_SPACE
  1

  0
ENDBLK
  5
29E
330
1B
100
AcDbEntity
 67
     1
  8
0
100
AcDbBlockEnd
  0
BLOCK
  5
29
330
2A
100
AcDbEntity
  8
0
100
AcDbBlockBegin
  2
REFINE003
 70
     0
 10
0.0
 20
0.0
 30
0.0
  3
REFINE003
  1

  0
LWPOLYLINE
  5
2B
330
2A
100
AcDbEntity
  8
0
 62
     0
100
AcDbPolyline
 90
       33
 70
     0
 43
0.0
 10
-1.00000011921
 20
10.0
 10
-0.950020949939
 20
10.0012497396
 10
-0.900166702562
 20
10.0049958347
 10
-0.850561986736
 20
10.0112289221
 10
-0.801330788414
 20
10.0199334222
 10
-0.752596159955
 20
10.0310875783
 10
-0.704479912548
 20
10.0446635109
 10
-0.657102311754
 20
10.0606272872
 10
-0.610581776901
 20
10.078939006
 10
-0.565034585098
 20
10.0995528976
 10
-0.520574580605
 20
10.1224174381
 10
-0.477312890279
 20
10.1474754779
 10
-0.435357645814
 20
10.1746643851
 10
-0.394813713473
 20
10.2039162015
 10
-0.355782431972
 20
10.2351578127
 10
-0.318361359186
 20
10.2683111311
 10
-0.28264402831
 20
10.3032932907
 10
-0.248719714069
 20
10.3400168541
 10
-0.216673209582
 20
10.3783900317
 10
-0.18658461442
 20
10.4183169105
 10
-0.158529134401
 20
10.4596976941
 10
-0.132576893615
 20
10.5024289521
 10
-0.108792759148
 20
10.5464038786
 10
-0.0872361789488
 20
10.5915125591
 10
-0.0679610332421
 20
10.6376422455
 10
-0.0510154998537
 20
10.6846776376
 10
-0.0364419337921
 20
10.7325011714
 10
-0.0242767613826
 20
10.7809933129
 10
-0.0145503892208
 20
10.8300328571
 10
-0.00728712817171
 20
10.8794972306
 10
-0.00250513260524
 20
10.9292627983
 10
-0.000216355019939
 20
10.9792051722
 10
-0.0000001192092964
 20
11.0
  0
LWPOLYLINE
  5
4E
330
2A
100
AcDbEntity
  8
0
 62
     0
100
AcDbPolyline
 90
       33
 70
     0
 43
0.0
 10
-0.0000001192092964
 20
14.0
 10
-0.00124985881433
 20
14.0499791693
 10
-0.00499595393127
 20
14.0998334166
 10
-0.0112290412733
 20
14.1494381325
 10
-0.0199335413681
 20
14.1986693308
 10
-0.0310876974987
 20
14.2474039593
 10
-0.0446636300837
 20
14.2955202067
 10
-0.0606274063619
 20
14.3428978075
 10
-0.0789391252064
 20
14.3894183423
 10
-0.0995530168566
 20
14.4349655341
 10
-0.122417557319
 20
14.4794255386
 10
-0.14747559715
 20
14.5226872289
 10
-0.1746645043
 20
14.5646424734
 10
-0.20391632066
 20
14.6051864057
 10
-0.235157931925
 20
14.6442176872
 10
-0.268311250335
 20
14.68163876
 10
-0.303293409862
 20
14.7173560909
 10
-0.340016973324
 20
14.7512804051
 10
-0.378390150939
 20
14.7833269096
 10
-0.418317029745
 20
14.8134155048
 10
-0.459697813341
 20
14.8414709848
 10
-0.502429071318
 20
14.8674232256
 10
-0.546403997784
 20
14.8912073601
 10
-0.591512678325
 20
14.9127639403
 10
-0.637642364733
 20
14.932039086
 10
-0.684677756814
 20
14.9489846194
 10
-0.732501290585
 20
14.9635581854
 10
-0.780993432116
 20
14.9757233578
 10
-0.830032976309
 20
14.98544973
 10
-0.879497349842
 20
14.992712991
 10
-0.929262917542
 20
14.9974949866
 10
-0.979205291406
 20
14.9997837642
 10
-1.00000011921
 20
15.0
  0
LWPOLYLINE
  5
71
330
2A
100
AcDbEntity
  8
0
 62
     0
100
AcDbPolyline
 90
       33
 70
     0
 43
0.0
 10
-36.0000001192
 20
11.0
 10
-35.9987503796
 20
10.9500208307
 10
-35.9950042845
 20
10.9001665834
 10
-35.9887711971
 20
10.8505618675
 10
-35.9800666971
 20
10.8013306692
 10
-35.9689125409
 20
10.7525960407
 10
-35.9553366083
 20
10.7044797933
 10
-35.9393728321
 20
10.6571021925
 10
-35.9210611132
 20
10.6105816577
 10
-35.9004472216
 20
10.5650344659
 10
-35.8775826811
 20
10.5205744614
 10
-35.8525246413
 20
10.4773127711
 10
-35.8253357341
 20
10.4353575266
 10
-35.7960839178
 20
10.3948135943
 10
-35.7648423065
 20
10.3557823128
 10
-35.7316889881
 20
10.31836124
 10
-35.6967068286
 20
10.2826439091
 10
-35.6599832651
 20
10.2487195949
 10
-35.6216100875
 20
10.2166730904
 10
-35.5816832087
 20
10.1865844952
 10
-35.5403024251
 20
10.1585290152
 10
-35.4975711671
 20
10.1325767744
 10
-35.4535962406
 20
10.1087926399
 10
-35.4084875601
 20
10.0872360597
 10
-35.3623578737
 20
10.067960914
 10
-35.3153224816
 20
10.0510153806
 10
-35.2674989478
 20
10.0364418146
 10
-35.2190068063
 20
10.0242766422
 10
-35.1699672621
 20
10.01455027
 10
-35.1205028886
 20
10.007287009
 10
-35.0707373209
 20
10.0025050134
 10
-35.020794947
 20
10.0002162358
 10
-35.0000001192
 20
10.0
  0
LWPOLYLINE
  5
94
330
2A
100
AcDbEntity
  8
0
 62
     0
100
AcDbPolyline
 90
       33
 70
     0
 43
0.0
 10
-35.0000001192
 20
15.0
 10
-35.0499792885
 20
14.9987502604
 10
-35.0998335359
 20
14.9950041653
 10
-35.1494382517
 20
14.9887710779
 10
-35.19866945
 20
14.9800665778
 10
-35.2474040785
 20
14.9689124217
 10
-35.2955203259
 20
14.9553364891
 10
-35.3428979267
 20
14.9393727128
 10
-35.3894184615
 20
14.921060994
 10
-35.4349656533
 20
14.9004471024
 10
-35.4794256578
 20
14.8775825619
 10
-35.5226873481
 20
14.8525245221
 10
-35.5646425926
 20
14.8253356149
 10
-35.6051865249
 20
14.7960837985
 10
-35.6442178064
 20
14.7648421873
 10
-35.6816388792
 20
14.7316888689
 10
-35.7173562101
 20
14.6967067093
 10
-35.7512805243
 20
14.6599831459
 10
-35.7833270288
 20
14.6216099683
 10
-35.813415624
 20
14.5816830895
 10
-35.841471104
 20
14.5403023059
 10
-35.8674233448
 20
14.4975710479
 10
-35.8912074793
 20
14.4535961214
 10
-35.9127640595
 20
14.4084874409
 10
-35.9320392052
 20
14.3623577545
 10
-35.9489847386
 20
14.3153223624
 10
-35.9635583046
 20
14.2674988286
 10
-35.975723477
 20
14.2190066871
 10
-35.9854498492
 20
14.1699671429
 10
-35.9927131102
 20
14.1205027694
 10
-35.9974951058
 20
14.0707372017
 10
-35.9997838834
 20
14.0207948278
 10
-36.0000001192
 20
14.0
  0
LWPOLYLINE
  5
B7
330
2A
100
AcDbEntity
  8
0
 62
     0
100
AcDbPolyline
 90
       33
 70
     0
 43
0.0
 10
-1.00000011921
 20
25.0
 10
-0.950020949939
 20
25.0012497396
 10
-0.900166702562
 20
25.0049958347
 10
-0.850561986736
 20
25.0112289221
 10
-0.801330788414
 20
25.0199334222
 10
-0.752596159955
 20
25.0310875783
 10
-0.704479912548
 20
25.0446635109
 10
-0.657102311754
 20
25.0606272872
 10
-0.610581776901
 20
25.078939006
 10
-0.565034585098
 20
25.0995528976
 10
-0.520574580605
 20
25.1224174381
 10
-0.477312890279
 20
25.1474754779
 10
-0.435357645814
 20
25.1746643851
 10
-0.394813713473
 20
25.2039162015
 10
-0.355782431972
 20
25.2351578127
 10
-0.318361359186
 20
25.2683111311
 10
-0.28264402831
 20
25.3032932907
 10
-0.248719714069
 20
25.3400168541
 10
-0.216673209582
 20
25.3783900317
 10
-0.18658461442
 20
25.4183169105
 10
-0.158529134401
 20
25.4596976941
 10
-0.132576893615
 20
25.5024289521
 10
-0.108792759148
 20
25.5464038786
 10
-0.0872361789488
 20
25.5915125591
 10
-0.0679610332421
 20
25.6376422455
 10
-0.0510154998537
 20
25.6846776376
 10
-0.0364419337921
 20
25.7325011714
 10
-0.0242767613826
 20
25.7809933129
 10
-0.0145503892208
 20
25.8300328571
 10
-0.00728712817171
 20
25.8794972306
 10
-0.00250513260524
 20
25.9292627983
 10
-0.000216355019939
 20
25.9792051722
 10
-0.0000001192092964
 20
26.0
  0
LWPOLYLINE
  5
DA
330
2A
100
AcDbEntity
  8
0
 62
     0
100
AcDbPolyline
 90
       33
 70
     0
 43
0.0
 10
-0.0000001192092964
 20
29.0
 10
-0.00124985881433
 20
29.0499791693
 10
-0.00499595393127
 20
29.0998334166
 10
-0.0112290412733
 20
29.1494381325
 10
-0.0199335413681
 20
29.1986693308
 10
-0.0310876974987
 20
29.2474039593
 10
-0.0446636300837
 20
29.2955202067
 10
-0.0606274063619
 20
29.3428978075
 10
-0.0789391252064
 20
29.3894183423
 10
-0.0995530168566
 20
29.4349655341
 10
-0.122417557319
 20
29.4794255386
 10
-0.14747559715
 20
29.5226872289
 10
-0.1746645043
 20
29.5646424734
 10
-0.20391632066
 20
29.6051864057
 10
-0.235157931925
 20
29.6442176872
 10
-0.268311250335
 20
29.68163876
 10
-0.303293409862
 20
29.7173560909
 10
-0.340016973324
 20
29.7512804051
 10
-0.378390150939
 20
29.7833269096
 10
-0.418317029745
 20
29.8134155048
 10
-0.459697813341
 20
29.8414709848
 10
-0.502429071318
 20
29.8674232256
 10
-0.546403997784
 20
29.8912073601
 10
-0.591512678325
 20
29.9127639403
 10
-0.637642364733
 20
29.932039086
 10
-0.684677756814
 20
29.9489846194
 10
-0.732501290585
 20
29.9635581854
 10
-0.780993432116
 20
29.9757233578
 10
-0.830032976309
 20
29.98544973
 10
-0.879497349842
 20
29.992712991
 10
-0.929262917542
 20
29.9974949866
 10
-0.979205291406
 20
29.9997837642
 10
-1.00000011921
 20
30.0
  0
LWPOLYLINE
  5
FD
330
2A
100
AcDbEntity
  8
0
 62
     0
100
AcDbPolyline
 90
       33
 70
     0
 43
0.0
 10
-36.0000001192
 20
26.0
 10
-35.9987503796
 20
25.9500208307
 10
-35.9950042845
 20
25.9001665834
 10
-35.9887711971
 20
25.8505618675
 10
-35.9800666971
 20
25.8013306692
 10
-35.9689125409
 20
25.7525960407
 10
-35.9553366083
 20
25.7044797933
 10
-35.9393728321
 20
25.6571021925
 10
-35.9210611132
 20
25.6105816577
 10
-35.9004472216
 20
25.5650344659
 10
-35.8775826811
 20
25.5205744614
 10
-35.8525246413
 20
25.4773127711
 10
-35.8253357341
 20
25.4353575266
 10
-35.7960839178
 20
25.3948135943
 10
-35.7648423065
 20
25.3557823128
 10
-35.7316889881
 20
25.31836124
 10
-35.6967068286
 20
25.2826439091
 10
-35.6599832651
 20
25.2487195949
 10
-35.6216100875
 20
25.2166730904
 10
-35.5816832087
 20
25.1865844952
 10
-35.5403024251
 20
25.1585290152
 10
-35.4975711671
 20
25.1325767744
 10
-35.4535962406
 20
25.1087926399
 10
-35.4084875601
 20
25.0872360597
 10
-35.3623578737
 20
25.067960914
 10
-35.3153224816
 20
25.0510153806
 10
-35.2674989478
 20
25.0364418146
 10
-35.2190068063
 20
25.0242766422
 10
-35.1699672621
 20
25.01455027
 10
-35.1205028886
 20
25.007287009
 10
-35.0707373209
 20
25.0025050134
 10
-35.020794947
 20
25.0002162358
 10
-35.0000001192
 20
25.0
  0
LWPOLYLINE
  5
120
330
2A
100
AcDbEntity
  8
0
 62
     0
100
AcDbPolyline
 90
       33
 70
     0
 43
0.0
 10
-35.0000001192
 20
30.0
 10
-35.0499792885
 20
29.9987502604
 10
-35.0998335359
 20
29.9950041653
 10
-35.1494382517
 20
29.9887710779
 10
-35.19866945
 20
29.9800665778
 10
-35.2474040785
 20
29.9689124217
 10
-35.2955203259
 20
29.9553364891
 10
-35.3428979267
 20
29.9393727128
 10
-35.3894184615
 20
29.921060994
 10
-35.4349656533
 20
29.9004471024
 10
-35.4794256578
 20
29.8775825619
 10
-35.5226873481
 20
29.8525245221
 10
-35.5646425926
 20
29.8253356149
 10
-35.6051865249
 20
29.7960837985
 10
-35.6442178064
 20
29.7648421873
 10
-35.6816388792
 20
29.7316888689
 10
-35.7173562101
 20
29.6967067093
 10
-35.7512805243
 20
29.6599831459
 10
-35.7833270288
 20
29.6216099683
 10
-35.813415624
 20
29.5816830895
 10
-35.841471104
 20
29.5403023059
 10
-35.8674233448
 20
29.4975710479
 10
-35.8912074793
 20
29.4535961214
 10
-35.9127640595
 20
29.4084874409
 10
-35.9320392052
 20
29.3623577545
 10
-35.9489847386
 20
29.3153223624
 10
-35.9635583046
 20
29.2674988286
 10
-35.975723477
 20
29.2190066871
 10
-35.9854498492
 20
29.1699671429
 10
-35.9927131102
 20
29.1205027694
 10
-35.9974951058
 20
29.0707372017
 10
-35.9997838834
 20
29.0207948278
 10
-36.0000001192
 20
29.0
  0
LWPOLYLINE
  5
143
330
2A
100
AcDbEntity
  8
0
 62
     0
100
AcDbPolyline
 90
       33
 70
     0
 43
0.0
 10
-1.00000011921
 20
40.0
 10
-0.950020949939
 20
40.0012497396
 10
-0.900166702562
 20
40.0049958347
 10
-0.850561986736
 20
40.0112289221
 10
-0.801330788414
 20
40.0199334222
 10
-0.752596159955
 20
40.0310875783
 10
-0.704479912548
 20
40.0446635109
 10
-0.657102311754
 20
40.0606272872
 10
-0.610581776901
 20
40.078939006
 10
-0.565034585098
 20
40.0995528976
 10
-0.520574580605
 20
40.1224174381
 10
-0.477312890279
 20
40.1474754779
 10
-0.435357645814
 20
40.1746643851
 10
-0.394813713473
 20
40.2039162015
 10
-0.355782431972
 20
40.2351578127
 10
-0.318361359186
 20
40.2683111311
 10
-0.28264402831
 20
40.3032932907
 10
-0.248719714069
 20
40.3400168541
 10
-0.216673209582
 20
40.3783900317
 10
-0.18658461442
 20
40.4183169105
 10
-0.158529134401
 20
40.4596976941
 10
-0.132576893615
 20
40.5024289521
 10
-0.108792759148
 20
40.5464038786
 10
-0.0872361789488
 20
40.5915125591
 10
-0.0679610332421
 20
40.6376422455
 10
-0.0510154998537
 20
40.6846776376
 10
-0.0364419337921
 20
40.7325011714
 10
-0.0242767613826
 20
40.7809933129
 10
-0.0145503892208
 20
40.8300328571
 10
-0.00728712817171
 20
40.8794972306
 10
-0.00250513260524
 20
40.9292627983
 10
-0.000216355019939
 20
40.9792051722
 10
-0.0000001192092964
 20
41.0
  0
LWPOLYLINE
  5
166
330
2A
100
AcDbEntity
  8
0
 62
     0
100
AcDbPolyline
 90
       33
 70
     0
 43
0.0
 10
-0.0000001192092964
 20
44.0
 10
-0.00124985881433
 20
44.0499791693
 10
-0.00499595393127
 20
44.0998334166
 10
-0.0112290412733
 20
44.1494381325
 10
-0.0199335413681
 20
44.1986693308
 10
-0.0310876974987
 20
44.2474039593
 10
-0.0446636300837
 20
44.2955202067
 10
-0.0606274063619
 20
44.3428978075
 10
-0.0789391252064
 20
44.3894183423
 10
-0.0995530168566
 20
44.4349655341
 10
-0.122417557319
 20
44.4794255386
 10
-0.14747559715
 20
44.5226872289
 10
-0.1746645043
 20
44.5646424734
 10
-0.20391632066
 20
44.6051864057
 10
-0.235157931925
 20
44.6442176872
 10
-0.268311250335
 20
44.68163876
 10
-0.303293409862
 20
44.7173560909
 10
-0.340016973324
 20
44.7512804051
 10
-0.378390150939
 20
44.7833269096
 10
-0.418317029745
 20
44.8134155048
 10
-0.459697813341
 20
44.8414709848
 10
-0.502429071318
 20
44.8674232256
 10
-0.546403997784
 20
44.8912073601
 10
-0.591512678325
 20
44.9127639403
 10
-0.637642364733
 20
44.932039086
 10
-0.684677756814
 20
44.9489846194
 10
-0.732501290585
 20
44.9635581854
 10
-0.780993432116
 20
44.9757233578
 10
-0.830032976309
 20
44.98544973
 10
-0.879497349842
 20
44.992712991
 10
-0.929262917542
 20
44.9974949866
 10
-0.979205291406
 20
44.9997837642
 10
-1.00000011921
 20
45.0
  0
LWPOLYLINE
  5
189
330
2A
100
AcDbEntity
  8
0
 62
     0
100
AcDbPolyline
 90
       33
 70
     0
 43
0.0
 10
-36.0000001192
 20
41.0
 10
-35.9987503796
 20
40.9500208307
 10
-35.9950042845
 20
40.9001665834
 10
-35.9887711971
 20
40.8505618675
 10
-35.9800666971
 20
40.8013306692
 10
-35.9689125409
 20
40.7525960407
 10
-35.9553366083
 20
40.7044797933
 10
-35.9393728321
 20
40.6571021925
 10
-35.9210611132
 20
40.6105816577
 10
-35.9004472216
 20
40.5650344659
 10
-35.8775826811
 20
40.5205744614
 10
-35.8525246413
 20
40.4773127711
 10
-35.8253357341
 20
40.4353575266
 10
-35.7960839178
 20
40.3948135943
 10
-35.7648423065
 20
40.3557823128
 10
-35.7316889881
 20
40.31836124
 10
-35.6967068286
 20
40.2826439091
 10
-35.6599832651
 20
40.2487195949
 10
-35.6216100875
 20
40.2166730904
 10
-35.5816832087
 20
40.1865844952
 10
-35.5403024251
 20
40.1585290152
 10
-35.4975711671
 20
40.1325767744
 10
-35.4535962406
 20
40.1087926399
 10
-35.4084875601
 20
40.0872360597
 10
-35.3623578737
 20
40.067960914
 10
-35.3153224816
 20
40.0510153806
 10
-35.2674989478
 20
40.0364418146
 10
-35.2190068063
 20
40.0242766422
 10
-35.1699672621
 20
40.01455027
 10
-35.1205028886
 20
40.007287009
 10
-35.0707373209
 20
40.0025050134
 10
-35.020794947
 20
40.0002162358
 10
-35.0000001192
 20
40.0
  0
LWPOLYLINE
  5
1AC
330
2A
100
AcDbEntity
  8
0
 62
     0
100
AcDbPolyline
 90
       33
 70
     0
 43
0.0
 10
-35.0000001192
 20
45.0
 10
-35.0499792885
 20
44.9987502604
 10
-35.0998335359
 20
44.9950041653
 10
-35.1494382517
 20
44.9887710779
 10
-35.19866945
 20
44.9800665778
 10
-35.2474040785
 20
44.9689124217
 10
-35.2955203259
 20
44.9553364891
 10
-35.3428979267
 20
44.9393727128
 10
-35.3894184615
 20
44.921060994
 10
-35.4349656533
 20
44.9004471024
 10
-35.4794256578
 20
44.8775825619
 10
-35.5226873481
 20
44.8525245221
 10
-35.5646425926
 20
44.8253356149
 10
-35.6051865249
 20
44.7960837985
 10
-35.6442178064
 20
44.7648421873
 10
-35.6816388792
 20
44.7316888689
 10
-35.7173562101
 20
44.6967067093
 10
-35.7512805243
 20
44.6599831459
 10
-35.7833270288
 20
44.6216099683
 10
-35.813415624
 20
44.5816830895
 10
-35.841471104
 20
44.5403023059
 10
-35.8674233448
 20
44.4975710479
 10
-35.8912074793
 20
44.4535961214
 10
-35.9127640595
 20
44.4084874409
 10
-35.9320392052
 20
44.3623577545
 10
-35.9489847386
 20
44.3153223624
 10
-35.9635583046
 20
44.2674988286
 10
-35.975723477
 20
44.2190066871
 10
-35.9854498492
 20
44.1699671429
 10
-35.9927131102
 20
44.1205027694
 10
-35.9974951058
 20
44.0707372017
 10
-35.9997838834
 20
44.0207948278
 10
-36.0000001192
 20
44.0
  0
LWPOLYLINE
  5
1CF
330
2A
100
AcDbEntity
  8
0
 62
     0
100
AcDbPolyline
 90
       33
 70
     0
 43
0.0
 10
-1.00000011921
 20
55.0
 10
-0.950020949939
 20
55.0012497396
 10
-0.900166702562
 20
55.0049958347
 10
-0.850561986736
 20
55.0112289221
 10
-0.801330788414
 20
55.0199334222
 10
-0.752596159955
 20
55.0310875783
 10
-0.704479912548
 20
55.0446635109
 10
-0.657102311754
 20
55.0606272872
 10
-0.610581776901
 20
55.078939006
 10
-0.565034585098
 20
55.0995528976
 10
-0.520574580605
 20
55.1224174381
 10
-0.477312890279
 20
55.1474754779
 10
-0.435357645814
 20
55.1746643851
 10
-0.394813713473
 20
55.2039162015
 10
-0.355782431972
 20
55.2351578127
 10
-0.318361359186
 20
55.2683111311
 10
-0.28264402831
 20
55.3032932907
 10
-0.248719714069
 20
55.3400168541
 10
-0.216673209582
 20
55.3783900317
 10
-0.18658461442
 20
55.4183169105
 10
-0.158529134401
 20
55.4596976941
 10
-0.132576893615
 20
55.5024289521
 10
-0.108792759148
 20
55.5464038786
 10
-0.0872361789488
 20
55.5915125591
 10
-0.0679610332421
 20
55.6376422455
 10
-0.0510154998537
 20
55.6846776376
 10
-0.0364419337921
 20
55.7325011714
 10
-0.0242767613826
 20
55.7809933129
 10
-0.0145503892208
 20
55.8300328571
 10
-0.00728712817171
 20
55.8794972306
 10
-0.00250513260524
 20
55.9292627983
 10
-0.000216355019939
 20
55.9792051722
 10
-0.0000001192092964
 20
56.0
  0
LWPOLYLINE
  5
1F2
330
2A
100
AcDbEntity
  8
0
 62
     0
100
AcDbPolyline
 90
       33
 70
     0
 43
0.0
 10
-0.0000001192092964
 20
59.0
 10
-0.00124985881433
 20
59.0499791693
 10
-0.00499595393127
 20
59.0998334166
 10
-0.0112290412733
 20
59.1494381325
 10
-0.0199335413681
 20
59.1986693308
 10
-0.0310876974987
 20
59.2474039593
 10
-0.0446636300837
 20
59.2955202067
 10
-0.0606274063619
 20
59.3428978075
 10
-0.0789391252064
 20
59.3894183423
 10
-0.0995530168566
 20
59.4349655341
 10
-0.122417557319
 20
59.4794255386
 10
-0.14747559715
 20
59.5226872289
 10
-0.1746645043
 20
59.5646424734
 10
-0.20391632066
 20
59.6051864057
 10
-0.235157931925
 20
59.6442176872
 10
-0.268311250335
 20
59.68163876
 10
-0.303293409862
 20
59.7173560909
 10
-0.340016973324
 20
59.7512804051
 10
-0.378390150939
 20
59.7833269096
 10
-0.418317029745
 20
59.8134155048
 10
-0.459697813341
 20
59.8414709848
 10
-0.502429071318
 20
59.8674232256
 10
-0.546403997784
 20
59.8912073601
 10
-0.591512678325
 20
59.9127639403
 10
-0.637642364733
 20
59.932039086
 10
-0.684677756814
 20
59.9489846194
 10
-0.732501290585
 20
59.9635581854
 10
-0.780993432116
 20
59.9757233578
 10
-0.830032976309
 20
59.98544973
 10
-0.879497349842
 20
59.992712991
 10
-0.929262917542
 20
59.9974949866
 10
-0.979205291406
 20
59.9997837642
 10
-1.00000011921
 20
60.0
  0
LWPOLYLINE
  5
215
330
2A
100
AcDbEntity
  8
0
 62
     0
100
AcDbPolyline
 90
       33
 70
     0
 43
0.0
 10
-36.0000001192
 20
56.0
 10
-35.9987503796
 20
55.9500208307
 10
-35.9950042845
 20
55.9001665834
 10
-35.9887711971
 20
55.8505618675
 10
-35.9800666971
 20
55.8013306692
 10
-35.9689125409
 20
55.7525960407
 10
-35.9553366083
 20
55.7044797933
 10
-35.9393728321
 20
55.6571021925
 10
-35.9210611132
 20
55.6105816577
 10
-35.9004472216
 20
55.5650344659
 10
-35.8775826811
 20
55.5205744614
 10
-35.8525246413
 20
55.4773127711
 10
-35.8253357341
 20
55.4353575266
 10
-35.7960839178
 20
55.3948135943
 10
-35.7648423065
 20
55.3557823128
 10
-35.7316889881
 20
55.31836124
 10
-35.6967068286
 20
55.2826439091
 10
-35.6599832651
 20
55.2487195949
 10
-35.6216100875
 20
55.2166730904
 10
-35.5816832087
 20
55.1865844952
 10
-35.5403024251
 20
55.1585290152
 10
-35.4975711671
 20
55.1325767744
 10
-35.4535962406
 20
55.1087926399
 10
-35.4084875601
 20
55.0872360597
 10
-35.3623578737
 20
55.067960914
 10
-35.3153224816
 20
55.0510153806
 10
-35.2674989478
 20
55.0364418146
 10
-35.2190068063
 20
55.0242766422
 10
-35.1699672621
 20
55.01455027
 10
-35.1205028886
 20
55.007287009
 10
-35.0707373209
 20
55.0025050134
 10
-35.020794947
 20
55.0002162358
 10
-35.0000001192
 20
55.0
  0
LWPOLYLINE
  5
238
330
2A
100
AcDbEntity
  8
0
 62
     0
100
AcDbPolyline
 90
       33
 70
     0
 43
0.0
 10
-35.0000001192
 20
60.0
 10
-35.0499792885
 20
59.9987502604
 10
-35.0998335359
 20
59.9950041653
 10
-35.1494382517
 20
59.9887710779
 10
-35.19866945
 20
59.9800665778
 10
-35.2474040785
 20
59.9689124217
 10
-35.2955203259
 20
59.9553364891
 10
-35.3428979267
 20
59.9393727128
 10
-35.3894184615
 20
59.921060994
 10
-35.4349656533
 20
59.9004471024
 10
-35.4794256578
 20
59.8775825619
 10
-35.5226873481
 20
59.8525245221
 10
-35.5646425926
 20
59.8253356149
 10
-35.6051865249
 20
59.7960837985
 10
-35.6442178064
 20
59.7648421873
 10
-35.6816388792
 20
59.7316888689
 10
-35.7173562101
 20
59.6967067093
 10
-35.7512805243
 20
59.6599831459
 10
-35.7833270288
 20
59.6216099683
 10
-35.813415624
 20
59.5816830895
 10
-35.841471104
 20
59.5403023059
 10
-35.8674233448
 20
59.4975710479
 10
-35.8912074793
 20
59.4535961214
 10
-35.9127640595
 20
59.4084874409
 10
-35.9320392052
 20
59.3623577545
 10
-35.9489847386
 20
59.3153223624
 10
-35.9635583046
 20
59.2674988286
 10
-35.975723477
 20
59.2190066871
 10
-35.9854498492
 20
59.1699671429
 10
-35.9927131102
 20
59.1205027694
 10
-35.9974951058
 20
59.0707372017
 10
-35.9997838834
 20
59.0207948278
 10
-36.0000001192
 20
59.0
  0
LINE
  5
25B
330
2A
100
AcDbEntity
  8
0
 62
     0
100
AcDbLine
 10
-0.0000001192092967
 20
11.0
 30
0.0
 11
-0.0000001192092967
 21
14.0
 31
0.0
  0
LINE
  5
25C
330
2A
100
AcDbEntity
  8
0
 62
     0
100
AcDbLine
 10
-1.00000011921
 20
10.0
 30
0.0
 11
-35.0000001192
 21
10.0
 31
0.0
  0
LINE
  5
25D
330
2A
100
AcDbEntity
  8
0
 62
     0
100
AcDbLine
 10
-1.00000011921
 20
15.0
 30
0.0
 11
-3.00000011921
 21
15.0
 31
0.0
  0
LINE
  5
25E
330
2A
100
AcDbEntity
  8
0
 62
     0
100
AcDbLine
 10
-36.0000001192
 20
11.0
 30
0.0
 11
-36.0000001192
 21
14.0
 31
0.0
  0
LINE
  5
25F
330
2A
100
AcDbEntity
  8
0
 62
     0
100
AcDbLine
 10
-3.00000011921
 20
15.0
 30
0.0
 11
-3.00000011921
 21
25.0
 31
0.0
  0
LINE
  5
260
330
2A
100
AcDbEntity
  8
0
 62
     0
100
AcDbLine
 10
-3.00000011921
 20
25.0
 30
0.0
 11
-1.00000011921
 21
25.0
 31
0.0
  0
LINE
  5
261
330
2A
100
AcDbEntity
  8
0
 62
     0
100
AcDbLine
 10
-35.0000001192
 20
15.0
 30
0.0
 11
-33.0000001192
 21
15.0
 31
0.0
  0
LINE
  5
262
330
2A
100
AcDbEntity
  8
0
 62
     0
100
AcDbLine
 10
-33.0000001192
 20
15.0
 30
0.0
 11
-33.0000001192
 21
25.0
 31
0.0
  0
LINE
  5
263
330
2A
100
AcDbEntity
  8
0
 62
     0
100
AcDbLine
 10
-0.0000001192092967
 20
26.0
 30
0.0
 11
-0.0000001192092967
 21
29.0
 31
0.0
  0
LINE
  5
264
330
2A
100
AcDbEntity
  8
0
 62
     0
100
AcDbLine
 10
-33.0000001192
 20
25.0
 30
0.0
 11
-35.0000001192
 21
25.0
 31
0.0
  0
LINE
  5
265
330
2A
100
AcDbEntity
  8
0
 62
     0
100
AcDbLine
 10
-1.00000011921
 20
30.0
 30
0.0
 11
-3.00000011921
 21
30.0
 31
0.0
  0
LINE
  5
266
330
2A
100
AcDbEntity
  8
0
 62
     0
100
AcDbLine
 10
-36.0000001192
 20
26.0
 30
0.0
 11
-36.0000001192
 21
29.0
 31
0.0
  0
LINE
  5
267
330
2A
100
AcDbEntity
  8
0
 62
     0
100
AcDbLine
 10
-3.00000011921
 20
30.0
 30
0.0
 11
-3.00000011921
 21
40.0
 31
0.0
  0
LINE
  5
268
330
2A
100
AcDbEntity
  8
0
 62
     0
100
AcDbLine
 10
-3.00000011921
 20
40.0
 30
0.0
 11
-1.00000011921
 21
40.0
 31
0.0
  0
LINE
  5
269
330
2A
100
AcDbEntity
  8
0
 62
     0
100
AcDbLine
 10
-35.0000001192
 20
30.0
 30
0.0
 11
-33.0000001192
 21
30.0
 31
0.0
  0
LINE
  5
26A
330
2A
100
AcDbEntity
  8
0
 62
     0
100
AcDbLine
 10
-33.0000001192
 20
30.0
 30
0.0
 11
-33.0000001192
 21
40.0
 31
0.0
  0
LINE
  5
26B
330
2A
100
AcDbEntity
  8
0
 62
     0
100
AcDbLine
 10
-0.0000001192092967
 20
41.0
 30
0.0
 11
-0.0000001192092967
 21
44.0
 31
0.0
  0
LINE
  5
26C
330
2A
100
AcDbEntity
  8
0
 62
     0
100
AcDbLine
 10
-33.0000001192
 20
40.0
 30
0.0
 11
-35.0000001192
 21
40.0
 31
0.0
  0
LINE
  5
26D
330
2A
100
AcDbEntity
  8
0
 62
     0
100
AcDbLine
 10
-1.00000011921
 20
45.0
 30
0.0
 11
-3.00000011921
 21
45.0
 31
0.0
  0
LINE
  5
26E
330
2A
100
AcDbEntity
  8
0
 62
     0
100
AcDbLine
 10
-36.0000001192
 20
41.0
 30
0.0
 11
-36.0000001192
 21
44.0
 31
0.0
  0
LINE
  5
26F
330
2A
100
AcDbEntity
  8
0
 62
     0
100
AcDbLine
 10
-3.00000011921
 20
45.0
 30
0.0
 11
-3.00000011921
 21
55.0
 31
0.0
  0
LINE
  5
270
330
2A
100
AcDbEntity
  8
0
 62
     0
100
AcDbLine
 10
-3.00000011921
 20
55.0
 30
0.0
 11
-1.00000011921
 21
55.0
 31
0.0
  0
LINE
  5
271
330
2A
100
AcDbEntity
  8
0
 62
     0
100
AcDbLine
 10
-35.0000001192
 20
45.0
 30
0.0
 11
-33.0000001192
 21
45.0
 31
0.0
  0
LINE
  5
272
330
2A
100
AcDbEntity
  8
0
 62
     0
100
AcDbLine
 10
-33.0000001192
 20
45.0
 30
0.0
 11
-33.0000001192
 21
55.0
 31
0.0
  0
LINE
  5
273
330
2A
100
AcDbEntity
  8
0
 62
     0
100
AcDbLine
 10
-0.0000001192092967
 20
56.0
 30
0.0
 11
-0.0000001192092967
 21
59.0
 31
0.0
  0
LINE
  5
274
330
2A
100
AcDbEntity
  8
0
 62
     0
100
AcDbLine
 10
-33.0000001192
 20
55.0
 30
0.0
 11
-35.0000001192
 21
55.0
 31
0.0
  0
LINE
  5
275
330
2A
100
AcDbEntity
  8
0
 62
     0
100
AcDbLine
 10
-1.00000011921
 20
60.0
 30
0.0
 11
-35.0000001192
 21
60.0
 31
0.0
  0
LINE
  5
276
330
2A
100
AcDbEntity
  8
0
 62
     0
100
AcDbLine
 10
-36.0000001192
 20
56.0
 30
0.0
 11
-36.0000001192
 21
59.0
 31
0.0
  0
ENDBLK
  5
277
330
2A
100
AcDbEntity
  8
0
100
AcDbBlockEnd
  0
ENDSEC
  0
SECTION
  2
ENTITIES
  0
INSERT
  5
278
330
1D
100
AcDbEntity
  8
0
 62
     0
100
AcDbBlockReference
  2
REFINE003
 10
0.0
 20
0.0
 30
0.0
  0
ENDSEC
  0
SECTION
  2
OBJECTS
  0
DICTIONARY
  5
C
330
0
100
AcDbDictionary
  3
ACAD_GROUP
350
D
  3
ACAD_IMAGE_VARS
350
2BE
  3
ACAD_MLINESTYLE
350
17
  3
ACAD_SCALELIST
350
279
  3
APPDATA
350
2BC
  3
DWGPROPS
350
2BF
  0
DICTIONARY
  5
D
102
{ACAD_REACTORS
330
C
102
}
330
C
100
AcDbDictionary
  0
RASTERVARIABLES
  5
2BE
102
{ACAD_REACTORS
330
C
102
}
330
C
100
AcDbRasterVariables
 90
        0
 70
     1
 71
     1
 72
     0
  0
DICTIONARY
  5
17
102
{ACAD_REACTORS
330
C
102
}
330
C
100
AcDbDictionary
  3
STANDARD
350
18
  0
DICTIONARY
  5
279
102
{ACAD_REACTORS
330
C
102
}
330
C
100
AcDbDictionary
  0
DICTIONARY
  5
2BC
102
{ACAD_REACTORS
330
C
102
}
330
C
100
AcDbDictionary
  0
XRECORD
  5
2BF
102
{ACAD_REACTORS
330
C
102
}
330
C
100
AcDbXrecord
  1
DWGPROPS COOKIE
  2

  3

  4

  6

  7

  8

  9

300
=
301
=
302
=
303
=
304
=
305
=
306
=
307
=
308
=
309
=
 40
0.0
 41
2458100.58244412
 42
2458100.583174711
  1

 90
        0
  0
MLINESTYLE
  5
18
102
{ACAD_REACTORS
330
17
102
}
330
17
100
AcDbMlineStyle
  2
Standard
 70
     0
  3

 62
   256
 51
90.0
 52
90.0
 71
     2
 49
0.5
 62
   256
  6
BYLAYER
 49
-0.5
 62
   256
  6
BYLAYER
  0
ENDSEC
  0
EOF
