  0
SECTION
  2
HEADER
  9
$ACADVER
  1
AC1014
  9
$ACADMAINTVER
 70
     9
  9
$DWGCODEPAGE
  3
ANSI_1252
  9
$INSBASE
 10
0.0
 20
0.0
 30
0.0
  9
$EXTMIN
 10
-36.0000001192
 20
-80.0
 30
0.0
  9
$EXTMAX
 10
-0.0000001192092896
 20
0.0
 30
0.0
  9
$LIMMIN
 10
0.0
 20
0.0
  9
$LIMMAX
 10
12.0
 20
9.0
  9
$ORTHOMODE
 70
     0
  9
$REGENMODE
 70
     1
  9
$FILLMODE
 70
     1
  9
$QTEXTMODE
 70
     0
  9
$MIRRTEXT
 70
     1
  9
$DRAGMODE
 70
     2
  9
$LTSCALE
 40
1.0
  9
$OSMODE
 70
   511
  9
$ATTMODE
 70
     1
  9
$TEXTSIZE
 40
1.0
  9
$TRACEWID
 40
0.05
  9
$TEXTSTYLE
  7
STANDARD
  9
$CLAYER
  8
0
  9
$CELTYPE
  6
BYBLOCK
  9
$CECOLOR
 62
   256
  9
$CELTSCALE
 40
1.0
  9
$DELOBJ
 70
     1
  9
$DISPSILH
 70
     0
  9
$DIMSCALE
 40
1.0
  9
$DIMASZ
 40
0.18
  9
$DIMEXO
 40
0.0625
  9
$DIMDLI
 40
0.38
  9
$DIMRND
 40
0.0
  9
$DIMDLE
 40
0.0
  9
$DIMEXE
 40
0.18
  9
$DIMTP
 40
0.0
  9
$DIMTM
 40
0.0
  9
$DIMTXT
 40
0.18
  9
$DIMCEN
 40
0.09
  9
$DIMTSZ
 40
0.0
  9
$DIMTOL
 70
     0
  9
$DIMLIM
 70
     0
  9
$DIMTIH
 70
     1
  9
$DIMTOH
 70
     1
  9
$DIMSE1
 70
     0
  9
$DIMSE2
 70
     0
  9
$DIMTAD
 70
     0
  9
$DIMZIN
 70
     0
  9
$DIMBLK
  1

  9
$DIMASO
 70
     1
  9
$DIMSHO
 70
     1
  9
$DIMPOST
  1

  9
$DIMAPOST
  1

  9
$DIMALT
 70
     0
  9
$DIMALTD
 70
     2
  9
$DIMALTF
 40
25.4
  9
$DIMLFAC
 40
1.0
  9
$DIMTOFL
 70
     0
  9
$DIMTVP
 40
0.0
  9
$DIMTIX
 70
     0
  9
$DIMSOXD
 70
     0
  9
$DIMSAH
 70
     0
  9
$DIMBLK1
  1

  9
$DIMBLK2
  1

  9
$DIMSTYLE
  2
STANDARD
  9
$DIMCLRD
 70
     0
  9
$DIMCLRE
 70
     0
  9
$DIMCLRT
 70
     0
  9
$DIMTFAC
 40
1.0
  9
$DIMGAP
 40
0.09
  9
$DIMJUST
 70
     0
  9
$DIMSD1
 70
     0
  9
$DIMSD2
 70
     0
  9
$DIMTOLJ
 70
     1
  9
$DIMTZIN
 70
     0
  9
$DIMALTZ
 70
     0
  9
$DIMALTTZ
 70
     0
  9
$DIMFIT
 70
     5
  9
$DIMUPT
 70
     0
  9
$DIMUNIT
 70
     2
  9
$DIMDEC
 70
     4
  9
$DIMTDEC
 70
     4
  9
$DIMALTU
 70
     2
  9
$DIMALTTD
 70
     2
  9
$DIMTXSTY
  7
STANDARD
  9
$DIMAUNIT
 70
     0
  9
$LUNITS
 70
     2
  9
$LUPREC
 70
     4
  9
$SKETCHINC
 40
0.1
  9
$FILLETRAD
 40
0.5
  9
$AUNITS
 70
     0
  9
$AUPREC
 70
     0
  9
$MENU
  1
.
  9
$ELEVATION
 40
0.0
  9
$PELEVATION
 40
0.0
  9
$THICKNESS
 40
0.0
  9
$LIMCHECK
 70
     0
  9
$CHAMFERA
 40
0.0
  9
$CHAMFERB
 40
0.0
  9
$CHAMFERC
 40
0.0
  9
$CHAMFERD
 40
0.0
  9
$SKPOLY
 70
     0
  9
$TDCREATE
 40
2458100.582446204
  9
$TDUPDATE
 40
2458100.582648414
  9
$TDINDWG
 40
0.0000000463
  9
$TDUSRTIMER
 40
2458100.582446875
  9
$USRTIMER
 70
     1
  9
$ANGBASE
 50
0.0
  9
$ANGDIR
 70
     0
  9
$PDMODE
 70
     0
  9
$PDSIZE
 40
0.0
  9
$PLINEWID
 40
0.0
  9
$COORDS
 70
     1
  9
$SPLFRAME
 70
     0
  9
$SPLINETYPE
 70
     6
  9
$SPLINESEGS
 70
     8
  9
$ATTDIA
 70
     0
  9
$ATTREQ
 70
     1
  9
$HANDLING
 70
     1
  9
$HANDSEED
  5
C07
  9
$SURFTAB1
 70
     6
  9
$SURFTAB2
 70
     6
  9
$SURFTYPE
 70
     6
  9
$SURFU
 70
     6
  9
$SURFV
 70
     6
  9
$UCSNAME
  2

  9
$UCSORG
 10
0.0
 20
0.0
 30
0.0
  9
$UCSXDIR
 10
1.0
 20
0.0
 30
0.0
  9
$UCSYDIR
 10
0.0
 20
1.0
 30
0.0
  9
$PUCSNAME
  2

  9
$PUCSORG
 10
0.0
 20
0.0
 30
0.0
  9
$PUCSXDIR
 10
1.0
 20
0.0
 30
0.0
  9
$PUCSYDIR
 10
0.0
 20
1.0
 30
0.0
  9
$USERI1
 70
     0
  9
$USERI2
 70
     0
  9
$USERI3
 70
     0
  9
$USERI4
 70
     0
  9
$USERI5
 70
     0
  9
$USERR1
 40
0.0
  9
$USERR2
 40
0.0
  9
$USERR3
 40
0.0
  9
$USERR4
 40
0.0
  9
$USERR5
 40
0.0
  9
$WORLDVIEW
 70
     1
  9
$SHADEDGE
 70
     3
  9
$SHADEDIF
 70
    70
  9
$TILEMODE
 70
     1
  9
$MAXACTVP
 70
    64
  9
$PINSBASE
 10
0.0
 20
0.0
 30
0.0
  9
$PLIMCHECK
 70
     0
  9
$PEXTMIN
 10
1.000000000000000E+20
 20
1.000000000000000E+20
 30
1.000000000000000E+20
  9
$PEXTMAX
 10
-1.000000000000000E+20
 20
-1.000000000000000E+20
 30
-1.000000000000000E+20
  9
$PLIMMIN
 10
0.0
 20
0.0
  9
$PLIMMAX
 10
0.0
 20
0.0
  9
$UNITMODE
 70
     0
  9
$VISRETAIN
 70
     1
  9
$PLINEGEN
 70
     0
  9
$PSLTSCALE
 70
     1
  9
$TREEDEPTH
 70
  3020
  9
$PICKSTYLE
 70
     1
  9
$CMLSTYLE
  2
STANDARD
  9
$CMLJUST
 70
     0
  9
$CMLSCALE
 40
1.0
  9
$PROXYGRAPHICS
 70
     1
  9
$MEASUREMENT
 70
     0
  0
ENDSEC
  0
SECTION
  2
CLASSES
  0
CLASS
  1
ACDBDICTIONARYWDFLT
  2
AcDbDictionaryWithDefault
  3
ObjectDBX Classes
 90
        0
280
     0
281
     0
  0
CLASS
  1
MATERIAL
  2
AcDbMaterial
  3
ObjectDBX Classes
 90
     1153
280
     0
281
     0
  0
CLASS
  1
SCALE
  2
AcDbScale
  3
ObjectDBX Classes
 90
     1153
280
     0
281
     0
  0
CLASS
  1
VISUALSTYLE
  2
AcDbVisualStyle
  3
ObjectDBX Classes
 90
     4095
280
     0
281
     0
  0
CLASS
  1
TABLESTYLE
  2
AcDbTableStyle
  3
ObjectDBX Classes
 90
     4095
280
     0
281
     0
  0
CLASS
  1
MLEADERSTYLE
  2
AcDbMLeaderStyle
  3
ACDB_MLEADERSTYLE_CLASS
 90
     4095
280
     0
281
     0
  0
CLASS
  1
SUN
  2
AcDbSun
  3
SCENEOE
 90
     1153
280
     0
281
     0
  0
CLASS
  1
RASTERVARIABLES
  2
AcDbRasterVariables
  3
ISM
 90
        0
280
     0
281
     0
  0
CLASS
  1
XRECORD
  2
AcDbXrecord
  3
ObjectDBX Classes
 90
        0
280
     0
281
     0
  0
CLASS
  1
LWPOLYLINE
  2
AcDbPolyline
  3
ObjectDBX Classes
 90
        0
280
     0
281
     1
  0
CLASS
  1
HATCH
  2
AcDbHatch
  3
ObjectDBX Classes
 90
        0
280
     0
281
     1
  0
ENDSEC
  0
SECTION
  2
TABLES
  0
TABLE
  2
VPORT
  5
8
330
0
100
AcDbSymbolTable
 70
     1
  0
VPORT
  5
28
330
8
100
AcDbSymbolTableRecord
100
AcDbViewportTableRecord
  2
*ACTIVE
 70
     0
 10
0.0
 20
0.0
 11
1.0
 21
1.0
 12
5.424059222148088
 22
-13.27472887778675
 13
0.0
 23
0.0
 14
0.5
 24
0.5
 15
0.5
 25
0.5
 16
0.0
 26
0.0
 36
1.0
 17
0.0
 27
0.0
 37
0.0
 40
171.8626005701203
 41
1.503496503496504
 42
50.0
 43
0.0
 44
0.0
 50
0.0
 51
0.0
 71
    16
 72
   100
 73
     1
 74
     3
 75
     0
 76
     0
 77
     0
 78
     0
  0
ENDTAB
  0
TABLE
  2
LTYPE
  5
5
330
0
100
AcDbSymbolTable
 70
     1
  0
LTYPE
  5
14
330
5
100
AcDbSymbolTableRecord
100
AcDbLinetypeTableRecord
  2
BYBLOCK
 70
     0
  3

 72
    65
 73
     0
 40
0.0
  0
LTYPE
  5
15
330
5
100
AcDbSymbolTableRecord
100
AcDbLinetypeTableRecord
  2
BYLAYER
 70
     0
  3

 72
    65
 73
     0
 40
0.0
  0
LTYPE
  5
16
330
5
100
AcDbSymbolTableRecord
100
AcDbLinetypeTableRecord
  2
CONTINUOUS
 70
     0
  3
Solid line
 72
    65
 73
     0
 40
0.0
  0
ENDTAB
  0
TABLE
  2
LAYER
  5
2
330
0
100
AcDbSymbolTable
 70
     1
  0
LAYER
  5
10
330
2
100
AcDbSymbolTableRecord
100
AcDbLayerTableRecord
  2
0
 70
     0
 62
     7
  6
CONTINUOUS
  0
ENDTAB
  0
TABLE
  2
STYLE
  5
3
330
0
100
AcDbSymbolTable
 70
     1
  0
STYLE
  5
11
330
3
100
AcDbSymbolTableRecord
100
AcDbTextStyleTableRecord
  2
STANDARD
 70
     0
 40
0.0
 41
1.0
 50
0.0
 71
     0
 42
1.0
  3
ARIAL.TTF
  4

  0
ENDTAB
  0
TABLE
  2
VIEW
  5
6
330
0
100
AcDbSymbolTable
 70
     0
  0
ENDTAB
  0
TABLE
  2
UCS
  5
7
330
0
100
AcDbSymbolTable
 70
     0
  0
ENDTAB
  0
TABLE
  2
APPID
  5
9
330
0
100
AcDbSymbolTable
 70
     1
  0
APPID
  5
12
330
9
100
AcDbSymbolTableRecord
100
AcDbRegAppTableRecord
  2
ACAD
 70
     0
  0
ENDTAB
  0
TABLE
  2
DIMSTYLE
  5
A
330
0
100
AcDbSymbolTable
 70
     1
  0
DIMSTYLE
105
27
330
A
100
AcDbSymbolTableRecord
100
AcDbDimStyleTableRecord
  2
STANDARD
 70
     0
  3

  4

  5

  6

  7

 40
1.0
 41
0.18
 42
0.0625
 43
0.38
 44
0.18
 45
0.0
 46
0.0
 47
0.0
 48
0.0
140
0.18
141
0.09
142
0.0
143
25.4
144
1.0
145
0.0
146
1.0
147
0.09
 71
     0
 72
     0
 73
     1
 74
     1
 75
     0
 76
     0
 77
     0
 78
     0
170
     0
171
     2
172
     0
173
     0
174
     0
175
     0
176
     0
177
     0
178
     0
270
     2
271
     4
272
     4
273
     2
274
     2
340
11
275
     0
280
     0
281
     0
282
     0
283
     1
284
     0
285
     0
286
     0
287
     3
288
     0
  0
ENDTAB
  0
TABLE
  2
BLOCK_RECORD
  5
1
330
0
100
AcDbSymbolTable
 70
     1
  0
BLOCK_RECORD
  5
1D
330
1
100
AcDbSymbolTableRecord
100
AcDbBlockTableRecord
  2
*MODEL_SPACE
  0
BLOCK_RECORD
  5
1B
330
1
100
AcDbSymbolTableRecord
100
AcDbBlockTableRecord
  2
*PAPER_SPACE
  0
BLOCK_RECORD
  5
2A
330
1
100
AcDbSymbolTableRecord
100
AcDbBlockTableRecord
  2
FUSION040
  0
ENDTAB
  0
ENDSEC
  0
SECTION
  2
BLOCKS
  0
BLOCK
  5
BE2
330
1D
100
AcDbEntity
  8
0
100
AcDbBlockBegin
  2
*MODEL_SPACE
 70
     0
 10
0.0
 20
0.0
 30
0.0
  3
*MODEL_SPACE
  1

  0
ENDBLK
  5
BE3
330
1D
100
AcDbEntity
  8
0
100
AcDbBlockEnd
  0
BLOCK
  5
BE4
330
1B
100
AcDbEntity
 67
     1
  8
0
100
AcDbBlockBegin
  2
*PAPER_SPACE
 70
     0
 10
0.0
 20
0.0
 30
0.0
  3
*PAPER_SPACE
  1

  0
ENDBLK
  5
BE5
330
1B
100
AcDbEntity
 67
     1
  8
0
100
AcDbBlockEnd
  0
BLOCK
  5
29
330
2A
100
AcDbEntity
  8
0
100
AcDbBlockBegin
  2
FUSION040
 70
     0
 10
0.0
 20
0.0
 30
0.0
  3
FUSION040
  1

  0
LWPOLYLINE
  5
2B
330
2A
100
AcDbEntity
  8
0
 62
     0
100
AcDbPolyline
 90
       33
 70
     0
 43
0.0
 10
-1.00000011921
 20
-80.0
 10
-0.950020949939
 20
-79.9987502604
 10
-0.900166702562
 20
-79.9950041653
 10
-0.850561986736
 20
-79.9887710779
 10
-0.801330788414
 20
-79.9800665778
 10
-0.752596159955
 20
-79.9689124217
 10
-0.704479912548
 20
-79.9553364891
 10
-0.657102311754
 20
-79.9393727128
 10
-0.610581776901
 20
-79.921060994
 10
-0.565034585098
 20
-79.9004471024
 10
-0.520574580605
 20
-79.8775825619
 10
-0.477312890279
 20
-79.8525245221
 10
-0.435357645814
 20
-79.8253356149
 10
-0.394813713473
 20
-79.7960837985
 10
-0.355782431972
 20
-79.7648421873
 10
-0.318361359186
 20
-79.7316888689
 10
-0.28264402831
 20
-79.6967067093
 10
-0.248719714069
 20
-79.6599831459
 10
-0.216673209582
 20
-79.6216099683
 10
-0.18658461442
 20
-79.5816830895
 10
-0.158529134401
 20
-79.5403023059
 10
-0.132576893615
 20
-79.4975710479
 10
-0.108792759148
 20
-79.4535961214
 10
-0.0872361789488
 20
-79.4084874409
 10
-0.0679610332421
 20
-79.3623577545
 10
-0.0510154998537
 20
-79.3153223624
 10
-0.0364419337921
 20
-79.2674988286
 10
-0.0242767613826
 20
-79.2190066871
 10
-0.0145503892208
 20
-79.1699671429
 10
-0.00728712817171
 20
-79.1205027694
 10
-0.00250513260524
 20
-79.0707372017
 10
-0.000216355019939
 20
-79.0207948278
 10
-0.0000001192092964
 20
-79.0
  0
LWPOLYLINE
  5
4E
330
2A
100
AcDbEntity
  8
0
 62
     0
100
AcDbPolyline
 90
       33
 70
     0
 43
0.0
 10
-0.0000001192092964
 20
-76.0
 10
-0.00124985881433
 20
-75.9500208307
 10
-0.00499595393127
 20
-75.9001665834
 10
-0.0112290412733
 20
-75.8505618675
 10
-0.0199335413681
 20
-75.8013306692
 10
-0.0310876974987
 20
-75.7525960407
 10
-0.0446636300837
 20
-75.7044797933
 10
-0.0606274063619
 20
-75.6571021925
 10
-0.0789391252064
 20
-75.6105816577
 10
-0.0995530168566
 20
-75.5650344659
 10
-0.122417557319
 20
-75.5205744614
 10
-0.14747559715
 20
-75.4773127711
 10
-0.1746645043
 20
-75.4353575266
 10
-0.20391632066
 20
-75.3948135943
 10
-0.235157931925
 20
-75.3557823128
 10
-0.268311250335
 20
-75.31836124
 10
-0.303293409862
 20
-75.2826439091
 10
-0.340016973324
 20
-75.2487195949
 10
-0.378390150939
 20
-75.2166730904
 10
-0.418317029745
 20
-75.1865844952
 10
-0.459697813341
 20
-75.1585290152
 10
-0.502429071318
 20
-75.1325767744
 10
-0.546403997784
 20
-75.1087926399
 10
-0.591512678325
 20
-75.0872360597
 10
-0.637642364733
 20
-75.067960914
 10
-0.684677756814
 20
-75.0510153806
 10
-0.732501290585
 20
-75.0364418146
 10
-0.780993432116
 20
-75.0242766422
 10
-0.830032976309
 20
-75.01455027
 10
-0.879497349842
 20
-75.007287009
 10
-0.929262917542
 20
-75.0025050134
 10
-0.979205291406
 20
-75.0002162358
 10
-1.00000011921
 20
-75.0
  0
LWPOLYLINE
  5
71
330
2A
100
AcDbEntity
  8
0
 62
     0
100
AcDbPolyline
 90
       33
 70
     0
 43
0.0
 10
-36.0000001192
 20
-79.0
 10
-35.9987503796
 20
-79.0499791693
 10
-35.9950042845
 20
-79.0998334166
 10
-35.9887711971
 20
-79.1494381325
 10
-35.9800666971
 20
-79.1986693308
 10
-35.9689125409
 20
-79.2474039593
 10
-35.9553366083
 20
-79.2955202067
 10
-35.9393728321
 20
-79.3428978075
 10
-35.9210611132
 20
-79.3894183423
 10
-35.9004472216
 20
-79.4349655341
 10
-35.8775826811
 20
-79.4794255386
 10
-35.8525246413
 20
-79.5226872289
 10
-35.8253357341
 20
-79.5646424734
 10
-35.7960839178
 20
-79.6051864057
 10
-35.7648423065
 20
-79.6442176872
 10
-35.7316889881
 20
-79.68163876
 10
-35.6967068286
 20
-79.7173560909
 10
-35.6599832651
 20
-79.7512804051
 10
-35.6216100875
 20
-79.7833269096
 10
-35.5816832087
 20
-79.8134155048
 10
-35.5403024251
 20
-79.8414709848
 10
-35.4975711671
 20
-79.8674232256
 10
-35.4535962406
 20
-79.8912073601
 10
-35.4084875601
 20
-79.9127639403
 10
-35.3623578737
 20
-79.932039086
 10
-35.3153224816
 20
-79.9489846194
 10
-35.2674989478
 20
-79.9635581854
 10
-35.2190068063
 20
-79.9757233578
 10
-35.1699672621
 20
-79.98544973
 10
-35.1205028886
 20
-79.992712991
 10
-35.0707373209
 20
-79.9974949866
 10
-35.020794947
 20
-79.9997837642
 10
-35.0000001192
 20
-80.0
  0
LWPOLYLINE
  5
94
330
2A
100
AcDbEntity
  8
0
 62
     0
100
AcDbPolyline
 90
       33
 70
     0
 43
0.0
 10
-35.0000001192
 20
-75.0
 10
-35.0499792885
 20
-75.0012497396
 10
-35.0998335359
 20
-75.0049958347
 10
-35.1494382517
 20
-75.0112289221
 10
-35.19866945
 20
-75.0199334222
 10
-35.2474040785
 20
-75.0310875783
 10
-35.2955203259
 20
-75.0446635109
 10
-35.3428979267
 20
-75.0606272872
 10
-35.3894184615
 20
-75.078939006
 10
-35.4349656533
 20
-75.0995528976
 10
-35.4794256578
 20
-75.1224174381
 10
-35.5226873481
 20
-75.1474754779
 10
-35.5646425926
 20
-75.1746643851
 10
-35.6051865249
 20
-75.2039162015
 10
-35.6442178064
 20
-75.2351578127
 10
-35.6816388792
 20
-75.2683111311
 10
-35.7173562101
 20
-75.3032932907
 10
-35.7512805243
 20
-75.3400168541
 10
-35.7833270288
 20
-75.3783900317
 10
-35.813415624
 20
-75.4183169105
 10
-35.841471104
 20
-75.4596976941
 10
-35.8674233448
 20
-75.5024289521
 10
-35.8912074793
 20
-75.5464038786
 10
-35.9127640595
 20
-75.5915125591
 10
-35.9320392052
 20
-75.6376422455
 10
-35.9489847386
 20
-75.6846776376
 10
-35.9635583046
 20
-75.7325011714
 10
-35.975723477
 20
-75.7809933129
 10
-35.9854498492
 20
-75.8300328571
 10
-35.9927131102
 20
-75.8794972306
 10
-35.9974951058
 20
-75.9292627983
 10
-35.9997838834
 20
-75.9792051722
 10
-36.0000001192
 20
-76.0
  0
LWPOLYLINE
  5
B7
330
2A
100
AcDbEntity
  8
0
 62
     0
100
AcDbPolyline
 90
       33
 70
     0
 43
0.0
 10
-1.00000011921
 20
-65.0
 10
-0.950020949939
 20
-64.9987502604
 10
-0.900166702562
 20
-64.9950041653
 10
-0.850561986736
 20
-64.9887710779
 10
-0.801330788414
 20
-64.9800665778
 10
-0.752596159955
 20
-64.9689124217
 10
-0.704479912548
 20
-64.9553364891
 10
-0.657102311754
 20
-64.9393727128
 10
-0.610581776901
 20
-64.921060994
 10
-0.565034585098
 20
-64.9004471024
 10
-0.520574580605
 20
-64.8775825619
 10
-0.477312890279
 20
-64.8525245221
 10
-0.435357645814
 20
-64.8253356149
 10
-0.394813713473
 20
-64.7960837985
 10
-0.355782431972
 20
-64.7648421873
 10
-0.318361359186
 20
-64.7316888689
 10
-0.28264402831
 20
-64.6967067093
 10
-0.248719714069
 20
-64.6599831459
 10
-0.216673209582
 20
-64.6216099683
 10
-0.18658461442
 20
-64.5816830895
 10
-0.158529134401
 20
-64.5403023059
 10
-0.132576893615
 20
-64.4975710479
 10
-0.108792759148
 20
-64.4535961214
 10
-0.0872361789488
 20
-64.4084874409
 10
-0.0679610332421
 20
-64.3623577545
 10
-0.0510154998537
 20
-64.3153223624
 10
-0.0364419337921
 20
-64.2674988286
 10
-0.0242767613826
 20
-64.2190066871
 10
-0.0145503892208
 20
-64.1699671429
 10
-0.00728712817171
 20
-64.1205027694
 10
-0.00250513260524
 20
-64.0707372017
 10
-0.000216355019939
 20
-64.0207948278
 10
-0.0000001192092964
 20
-64.0
  0
LWPOLYLINE
  5
DA
330
2A
100
AcDbEntity
  8
0
 62
     0
100
AcDbPolyline
 90
       33
 70
     0
 43
0.0
 10
-0.0000001192092964
 20
-61.0
 10
-0.00124985881433
 20
-60.9500208307
 10
-0.00499595393127
 20
-60.9001665834
 10
-0.0112290412733
 20
-60.8505618675
 10
-0.0199335413681
 20
-60.8013306692
 10
-0.0310876974987
 20
-60.7525960407
 10
-0.0446636300837
 20
-60.7044797933
 10
-0.0606274063619
 20
-60.6571021925
 10
-0.0789391252064
 20
-60.6105816577
 10
-0.0995530168566
 20
-60.5650344659
 10
-0.122417557319
 20
-60.5205744614
 10
-0.14747559715
 20
-60.4773127711
 10
-0.1746645043
 20
-60.4353575266
 10
-0.20391632066
 20
-60.3948135943
 10
-0.235157931925
 20
-60.3557823128
 10
-0.268311250335
 20
-60.31836124
 10
-0.303293409862
 20
-60.2826439091
 10
-0.340016973324
 20
-60.2487195949
 10
-0.378390150939
 20
-60.2166730904
 10
-0.418317029745
 20
-60.1865844952
 10
-0.459697813341
 20
-60.1585290152
 10
-0.502429071318
 20
-60.1325767744
 10
-0.546403997784
 20
-60.1087926399
 10
-0.591512678325
 20
-60.0872360597
 10
-0.637642364733
 20
-60.067960914
 10
-0.684677756814
 20
-60.0510153806
 10
-0.732501290585
 20
-60.0364418146
 10
-0.780993432116
 20
-60.0242766422
 10
-0.830032976309
 20
-60.01455027
 10
-0.879497349842
 20
-60.007287009
 10
-0.929262917542
 20
-60.0025050134
 10
-0.979205291406
 20
-60.0002162358
 10
-1.00000011921
 20
-60.0
  0
LWPOLYLINE
  5
FD
330
2A
100
AcDbEntity
  8
0
 62
     0
100
AcDbPolyline
 90
       33
 70
     0
 43
0.0
 10
-36.0000001192
 20
-64.0
 10
-35.9987503796
 20
-64.0499791693
 10
-35.9950042845
 20
-64.0998334166
 10
-35.9887711971
 20
-64.1494381325
 10
-35.9800666971
 20
-64.1986693308
 10
-35.9689125409
 20
-64.2474039593
 10
-35.9553366083
 20
-64.2955202067
 10
-35.9393728321
 20
-64.3428978075
 10
-35.9210611132
 20
-64.3894183423
 10
-35.9004472216
 20
-64.4349655341
 10
-35.8775826811
 20
-64.4794255386
 10
-35.8525246413
 20
-64.5226872289
 10
-35.8253357341
 20
-64.5646424734
 10
-35.7960839178
 20
-64.6051864057
 10
-35.7648423065
 20
-64.6442176872
 10
-35.7316889881
 20
-64.68163876
 10
-35.6967068286
 20
-64.7173560909
 10
-35.6599832651
 20
-64.7512804051
 10
-35.6216100875
 20
-64.7833269096
 10
-35.5816832087
 20
-64.8134155048
 10
-35.5403024251
 20
-64.8414709848
 10
-35.4975711671
 20
-64.8674232256
 10
-35.4535962406
 20
-64.8912073601
 10
-35.4084875601
 20
-64.9127639403
 10
-35.3623578737
 20
-64.932039086
 10
-35.3153224816
 20
-64.9489846194
 10
-35.2674989478
 20
-64.9635581854
 10
-35.2190068063
 20
-64.9757233578
 10
-35.1699672621
 20
-64.98544973
 10
-35.1205028886
 20
-64.992712991
 10
-35.0707373209
 20
-64.9974949866
 10
-35.020794947
 20
-64.9997837642
 10
-35.0000001192
 20
-65.0
  0
LWPOLYLINE
  5
120
330
2A
100
AcDbEntity
  8
0
 62
     0
100
AcDbPolyline
 90
       33
 70
     0
 43
0.0
 10
-35.0000001192
 20
-60.0
 10
-35.0499792885
 20
-60.0012497396
 10
-35.0998335359
 20
-60.0049958347
 10
-35.1494382517
 20
-60.0112289221
 10
-35.19866945
 20
-60.0199334222
 10
-35.2474040785
 20
-60.0310875783
 10
-35.2955203259
 20
-60.0446635109
 10
-35.3428979267
 20
-60.0606272872
 10
-35.3894184615
 20
-60.078939006
 10
-35.4349656533
 20
-60.0995528976
 10
-35.4794256578
 20
-60.1224174381
 10
-35.5226873481
 20
-60.1474754779
 10
-35.5646425926
 20
-60.1746643851
 10
-35.6051865249
 20
-60.2039162015
 10
-35.6442178064
 20
-60.2351578127
 10
-35.6816388792
 20
-60.2683111311
 10
-35.7173562101
 20
-60.3032932907
 10
-35.7512805243
 20
-60.3400168541
 10
-35.7833270288
 20
-60.3783900317
 10
-35.813415624
 20
-60.4183169105
 10
-35.841471104
 20
-60.4596976941
 10
-35.8674233448
 20
-60.5024289521
 10
-35.8912074793
 20
-60.5464038786
 10
-35.9127640595
 20
-60.5915125591
 10
-35.9320392052
 20
-60.6376422455
 10
-35.9489847386
 20
-60.6846776376
 10
-35.9635583046
 20
-60.7325011714
 10
-35.975723477
 20
-60.7809933129
 10
-35.9854498492
 20
-60.8300328571
 10
-35.9927131102
 20
-60.8794972306
 10
-35.9974951058
 20
-60.9292627983
 10
-35.9997838834
 20
-60.9792051722
 10
-36.0000001192
 20
-61.0
  0
LWPOLYLINE
  5
143
330
2A
100
AcDbEntity
  8
0
 62
     0
100
AcDbPolyline
 90
       33
 70
     0
 43
0.0
 10
-1.00000011921
 20
-50.0
 10
-0.950020949939
 20
-49.9987502604
 10
-0.900166702562
 20
-49.9950041653
 10
-0.850561986736
 20
-49.9887710779
 10
-0.801330788414
 20
-49.9800665778
 10
-0.752596159955
 20
-49.9689124217
 10
-0.704479912548
 20
-49.9553364891
 10
-0.657102311754
 20
-49.9393727128
 10
-0.610581776901
 20
-49.921060994
 10
-0.565034585098
 20
-49.9004471024
 10
-0.520574580605
 20
-49.8775825619
 10
-0.477312890279
 20
-49.8525245221
 10
-0.435357645814
 20
-49.8253356149
 10
-0.394813713473
 20
-49.7960837985
 10
-0.355782431972
 20
-49.7648421873
 10
-0.318361359186
 20
-49.7316888689
 10
-0.28264402831
 20
-49.6967067093
 10
-0.248719714069
 20
-49.6599831459
 10
-0.216673209582
 20
-49.6216099683
 10
-0.18658461442
 20
-49.5816830895
 10
-0.158529134401
 20
-49.5403023059
 10
-0.132576893615
 20
-49.4975710479
 10
-0.108792759148
 20
-49.4535961214
 10
-0.0872361789488
 20
-49.4084874409
 10
-0.0679610332421
 20
-49.3623577545
 10
-0.0510154998537
 20
-49.3153223624
 10
-0.0364419337921
 20
-49.2674988286
 10
-0.0242767613826
 20
-49.2190066871
 10
-0.0145503892208
 20
-49.1699671429
 10
-0.00728712817171
 20
-49.1205027694
 10
-0.00250513260524
 20
-49.0707372017
 10
-0.000216355019939
 20
-49.0207948278
 10
-0.0000001192092964
 20
-49.0
  0
LWPOLYLINE
  5
166
330
2A
100
AcDbEntity
  8
0
 62
     0
100
AcDbPolyline
 90
       33
 70
     0
 43
0.0
 10
-0.0000001192092964
 20
-46.0
 10
-0.00124985881433
 20
-45.9500208307
 10
-0.00499595393127
 20
-45.9001665834
 10
-0.0112290412733
 20
-45.8505618675
 10
-0.0199335413681
 20
-45.8013306692
 10
-0.0310876974987
 20
-45.7525960407
 10
-0.0446636300837
 20
-45.7044797933
 10
-0.0606274063619
 20
-45.6571021925
 10
-0.0789391252064
 20
-45.6105816577
 10
-0.0995530168566
 20
-45.5650344659
 10
-0.122417557319
 20
-45.5205744614
 10
-0.14747559715
 20
-45.4773127711
 10
-0.1746645043
 20
-45.4353575266
 10
-0.20391632066
 20
-45.3948135943
 10
-0.235157931925
 20
-45.3557823128
 10
-0.268311250335
 20
-45.31836124
 10
-0.303293409862
 20
-45.2826439091
 10
-0.340016973324
 20
-45.2487195949
 10
-0.378390150939
 20
-45.2166730904
 10
-0.418317029745
 20
-45.1865844952
 10
-0.459697813341
 20
-45.1585290152
 10
-0.502429071318
 20
-45.1325767744
 10
-0.546403997784
 20
-45.1087926399
 10
-0.591512678325
 20
-45.0872360597
 10
-0.637642364733
 20
-45.067960914
 10
-0.684677756814
 20
-45.0510153806
 10
-0.732501290585
 20
-45.0364418146
 10
-0.780993432116
 20
-45.0242766422
 10
-0.830032976309
 20
-45.01455027
 10
-0.879497349842
 20
-45.007287009
 10
-0.929262917542
 20
-45.0025050134
 10
-0.979205291406
 20
-45.0002162358
 10
-1.00000011921
 20
-45.0
  0
LWPOLYLINE
  5
189
330
2A
100
AcDbEntity
  8
0
 62
     0
100
AcDbPolyline
 90
       33
 70
     0
 43
0.0
 10
-36.0000001192
 20
-49.0
 10
-35.9987503796
 20
-49.0499791693
 10
-35.9950042845
 20
-49.0998334166
 10
-35.9887711971
 20
-49.1494381325
 10
-35.9800666971
 20
-49.1986693308
 10
-35.9689125409
 20
-49.2474039593
 10
-35.9553366083
 20
-49.2955202067
 10
-35.9393728321
 20
-49.3428978075
 10
-35.9210611132
 20
-49.3894183423
 10
-35.9004472216
 20
-49.4349655341
 10
-35.8775826811
 20
-49.4794255386
 10
-35.8525246413
 20
-49.5226872289
 10
-35.8253357341
 20
-49.5646424734
 10
-35.7960839178
 20
-49.6051864057
 10
-35.7648423065
 20
-49.6442176872
 10
-35.7316889881
 20
-49.68163876
 10
-35.6967068286
 20
-49.7173560909
 10
-35.6599832651
 20
-49.7512804051
 10
-35.6216100875
 20
-49.7833269096
 10
-35.5816832087
 20
-49.8134155048
 10
-35.5403024251
 20
-49.8414709848
 10
-35.4975711671
 20
-49.8674232256
 10
-35.4535962406
 20
-49.8912073601
 10
-35.4084875601
 20
-49.9127639403
 10
-35.3623578737
 20
-49.932039086
 10
-35.3153224816
 20
-49.9489846194
 10
-35.2674989478
 20
-49.9635581854
 10
-35.2190068063
 20
-49.9757233578
 10
-35.1699672621
 20
-49.98544973
 10
-35.1205028886
 20
-49.992712991
 10
-35.0707373209
 20
-49.9974949866
 10
-35.020794947
 20
-49.9997837642
 10
-35.0000001192
 20
-50.0
  0
LWPOLYLINE
  5
1AC
330
2A
100
AcDbEntity
  8
0
 62
     0
100
AcDbPolyline
 90
       33
 70
     0
 43
0.0
 10
-35.0000001192
 20
-45.0
 10
-35.0499792885
 20
-45.0012497396
 10
-35.0998335359
 20
-45.0049958347
 10
-35.1494382517
 20
-45.0112289221
 10
-35.19866945
 20
-45.0199334222
 10
-35.2474040785
 20
-45.0310875783
 10
-35.2955203259
 20
-45.0446635109
 10
-35.3428979267
 20
-45.0606272872
 10
-35.3894184615
 20
-45.078939006
 10
-35.4349656533
 20
-45.0995528976
 10
-35.4794256578
 20
-45.1224174381
 10
-35.5226873481
 20
-45.1474754779
 10
-35.5646425926
 20
-45.1746643851
 10
-35.6051865249
 20
-45.2039162015
 10
-35.6442178064
 20
-45.2351578127
 10
-35.6816388792
 20
-45.2683111311
 10
-35.7173562101
 20
-45.3032932907
 10
-35.7512805243
 20
-45.3400168541
 10
-35.7833270288
 20
-45.3783900317
 10
-35.813415624
 20
-45.4183169105
 10
-35.841471104
 20
-45.4596976941
 10
-35.8674233448
 20
-45.5024289521
 10
-35.8912074793
 20
-45.5464038786
 10
-35.9127640595
 20
-45.5915125591
 10
-35.9320392052
 20
-45.6376422455
 10
-35.9489847386
 20
-45.6846776376
 10
-35.9635583046
 20
-45.7325011714
 10
-35.975723477
 20
-45.7809933129
 10
-35.9854498492
 20
-45.8300328571
 10
-35.9927131102
 20
-45.8794972306
 10
-35.9974951058
 20
-45.9292627983
 10
-35.9997838834
 20
-45.9792051722
 10
-36.0000001192
 20
-46.0
  0
LWPOLYLINE
  5
1CF
330
2A
100
AcDbEntity
  8
0
 62
     0
100
AcDbPolyline
 90
       33
 70
     0
 43
0.0
 10
-1.00000011921
 20
-35.0
 10
-0.950020949939
 20
-34.9987502604
 10
-0.900166702562
 20
-34.9950041653
 10
-0.850561986736
 20
-34.9887710779
 10
-0.801330788414
 20
-34.9800665778
 10
-0.752596159955
 20
-34.9689124217
 10
-0.704479912548
 20
-34.9553364891
 10
-0.657102311754
 20
-34.9393727128
 10
-0.610581776901
 20
-34.921060994
 10
-0.565034585098
 20
-34.9004471024
 10
-0.520574580605
 20
-34.8775825619
 10
-0.477312890279
 20
-34.8525245221
 10
-0.435357645814
 20
-34.8253356149
 10
-0.394813713473
 20
-34.7960837985
 10
-0.355782431972
 20
-34.7648421873
 10
-0.318361359186
 20
-34.7316888689
 10
-0.28264402831
 20
-34.6967067093
 10
-0.248719714069
 20
-34.6599831459
 10
-0.216673209582
 20
-34.6216099683
 10
-0.18658461442
 20
-34.5816830895
 10
-0.158529134401
 20
-34.5403023059
 10
-0.132576893615
 20
-34.4975710479
 10
-0.108792759148
 20
-34.4535961214
 10
-0.0872361789488
 20
-34.4084874409
 10
-0.0679610332421
 20
-34.3623577545
 10
-0.0510154998537
 20
-34.3153223624
 10
-0.0364419337921
 20
-34.2674988286
 10
-0.0242767613826
 20
-34.2190066871
 10
-0.0145503892208
 20
-34.1699671429
 10
-0.00728712817171
 20
-34.1205027694
 10
-0.00250513260524
 20
-34.0707372017
 10
-0.000216355019939
 20
-34.0207948278
 10
-0.0000001192092964
 20
-34.0
  0
LWPOLYLINE
  5
1F2
330
2A
100
AcDbEntity
  8
0
 62
     0
100
AcDbPolyline
 90
       33
 70
     0
 43
0.0
 10
-0.0000001192092964
 20
-31.0
 10
-0.00124985881433
 20
-30.9500208307
 10
-0.00499595393127
 20
-30.9001665834
 10
-0.0112290412733
 20
-30.8505618675
 10
-0.0199335413681
 20
-30.8013306692
 10
-0.0310876974987
 20
-30.7525960407
 10
-0.0446636300837
 20
-30.7044797933
 10
-0.0606274063619
 20
-30.6571021925
 10
-0.0789391252064
 20
-30.6105816577
 10
-0.0995530168566
 20
-30.5650344659
 10
-0.122417557319
 20
-30.5205744614
 10
-0.14747559715
 20
-30.4773127711
 10
-0.1746645043
 20
-30.4353575266
 10
-0.20391632066
 20
-30.3948135943
 10
-0.235157931925
 20
-30.3557823128
 10
-0.268311250335
 20
-30.31836124
 10
-0.303293409862
 20
-30.2826439091
 10
-0.340016973324
 20
-30.2487195949
 10
-0.378390150939
 20
-30.2166730904
 10
-0.418317029745
 20
-30.1865844952
 10
-0.459697813341
 20
-30.1585290152
 10
-0.502429071318
 20
-30.1325767744
 10
-0.546403997784
 20
-30.1087926399
 10
-0.591512678325
 20
-30.0872360597
 10
-0.637642364733
 20
-30.067960914
 10
-0.684677756814
 20
-30.0510153806
 10
-0.732501290585
 20
-30.0364418146
 10
-0.780993432116
 20
-30.0242766422
 10
-0.830032976309
 20
-30.01455027
 10
-0.879497349842
 20
-30.007287009
 10
-0.929262917542
 20
-30.0025050134
 10
-0.979205291406
 20
-30.0002162358
 10
-1.00000011921
 20
-30.0
  0
LWPOLYLINE
  5
215
330
2A
100
AcDbEntity
  8
0
 62
     0
100
AcDbPolyline
 90
       33
 70
     0
 43
0.0
 10
-36.0000001192
 20
-34.0
 10
-35.9987503796
 20
-34.0499791693
 10
-35.9950042845
 20
-34.0998334166
 10
-35.9887711971
 20
-34.1494381325
 10
-35.9800666971
 20
-34.1986693308
 10
-35.9689125409
 20
-34.2474039593
 10
-35.9553366083
 20
-34.2955202067
 10
-35.9393728321
 20
-34.3428978075
 10
-35.9210611132
 20
-34.3894183423
 10
-35.9004472216
 20
-34.4349655341
 10
-35.8775826811
 20
-34.4794255386
 10
-35.8525246413
 20
-34.5226872289
 10
-35.8253357341
 20
-34.5646424734
 10
-35.7960839178
 20
-34.6051864057
 10
-35.7648423065
 20
-34.6442176872
 10
-35.7316889881
 20
-34.68163876
 10
-35.6967068286
 20
-34.7173560909
 10
-35.6599832651
 20
-34.7512804051
 10
-35.6216100875
 20
-34.7833269096
 10
-35.5816832087
 20
-34.8134155048
 10
-35.5403024251
 20
-34.8414709848
 10
-35.4975711671
 20
-34.8674232256
 10
-35.4535962406
 20
-34.8912073601
 10
-35.4084875601
 20
-34.9127639403
 10
-35.3623578737
 20
-34.932039086
 10
-35.3153224816
 20
-34.9489846194
 10
-35.2674989478
 20
-34.9635581854
 10
-35.2190068063
 20
-34.9757233578
 10
-35.1699672621
 20
-34.98544973
 10
-35.1205028886
 20
-34.992712991
 10
-35.0707373209
 20
-34.9974949866
 10
-35.020794947
 20
-34.9997837642
 10
-35.0000001192
 20
-35.0
  0
LWPOLYLINE
  5
238
330
2A
100
AcDbEntity
  8
0
 62
     0
100
AcDbPolyline
 90
       33
 70
     0
 43
0.0
 10
-35.0000001192
 20
-30.0
 10
-35.0499792885
 20
-30.0012497396
 10
-35.0998335359
 20
-30.0049958347
 10
-35.1494382517
 20
-30.0112289221
 10
-35.19866945
 20
-30.0199334222
 10
-35.2474040785
 20
-30.0310875783
 10
-35.2955203259
 20
-30.0446635109
 10
-35.3428979267
 20
-30.0606272872
 10
-35.3894184615
 20
-30.078939006
 10
-35.4349656533
 20
-30.0995528976
 10
-35.4794256578
 20
-30.1224174381
 10
-35.5226873481
 20
-30.1474754779
 10
-35.5646425926
 20
-30.1746643851
 10
-35.6051865249
 20
-30.2039162015
 10
-35.6442178064
 20
-30.2351578127
 10
-35.6816388792
 20
-30.2683111311
 10
-35.7173562101
 20
-30.3032932907
 10
-35.7512805243
 20
-30.3400168541
 10
-35.7833270288
 20
-30.3783900317
 10
-35.813415624
 20
-30.4183169105
 10
-35.841471104
 20
-30.4596976941
 10
-35.8674233448
 20
-30.5024289521
 10
-35.8912074793
 20
-30.5464038786
 10
-35.9127640595
 20
-30.5915125591
 10
-35.9320392052
 20
-30.6376422455
 10
-35.9489847386
 20
-30.6846776376
 10
-35.9635583046
 20
-30.7325011714
 10
-35.975723477
 20
-30.7809933129
 10
-35.9854498492
 20
-30.8300328571
 10
-35.9927131102
 20
-30.8794972306
 10
-35.9974951058
 20
-30.9292627983
 10
-35.9997838834
 20
-30.9792051722
 10
-36.0000001192
 20
-31.0
  0
LWPOLYLINE
  5
25B
330
2A
100
AcDbEntity
  8
0
 62
     0
100
AcDbPolyline
 90
       33
 70
     0
 43
0.0
 10
-1.00000011921
 20
-20.0
 10
-0.950020949939
 20
-19.9987502604
 10
-0.900166702562
 20
-19.9950041653
 10
-0.850561986736
 20
-19.9887710779
 10
-0.801330788414
 20
-19.9800665778
 10
-0.752596159955
 20
-19.9689124217
 10
-0.704479912548
 20
-19.9553364891
 10
-0.657102311754
 20
-19.9393727128
 10
-0.610581776901
 20
-19.921060994
 10
-0.565034585098
 20
-19.9004471024
 10
-0.520574580605
 20
-19.8775825619
 10
-0.477312890279
 20
-19.8525245221
 10
-0.435357645814
 20
-19.8253356149
 10
-0.394813713473
 20
-19.7960837985
 10
-0.355782431972
 20
-19.7648421873
 10
-0.318361359186
 20
-19.7316888689
 10
-0.28264402831
 20
-19.6967067093
 10
-0.248719714069
 20
-19.6599831459
 10
-0.216673209582
 20
-19.6216099683
 10
-0.18658461442
 20
-19.5816830895
 10
-0.158529134401
 20
-19.5403023059
 10
-0.132576893615
 20
-19.4975710479
 10
-0.108792759148
 20
-19.4535961214
 10
-0.0872361789488
 20
-19.4084874409
 10
-0.0679610332421
 20
-19.3623577545
 10
-0.0510154998537
 20
-19.3153223624
 10
-0.0364419337921
 20
-19.2674988286
 10
-0.0242767613826
 20
-19.2190066871
 10
-0.0145503892208
 20
-19.1699671429
 10
-0.00728712817171
 20
-19.1205027694
 10
-0.00250513260524
 20
-19.0707372017
 10
-0.000216355019939
 20
-19.0207948278
 10
-0.0000001192092964
 20
-19.0
  0
LWPOLYLINE
  5
27E
330
2A
100
AcDbEntity
  8
0
 62
     0
100
AcDbPolyline
 90
       33
 70
     0
 43
0.0
 10
-0.0000001192092964
 20
-16.0
 10
-0.00124985881433
 20
-15.9500208307
 10
-0.00499595393127
 20
-15.9001665834
 10
-0.0112290412733
 20
-15.8505618675
 10
-0.0199335413681
 20
-15.8013306692
 10
-0.0310876974987
 20
-15.7525960407
 10
-0.0446636300837
 20
-15.7044797933
 10
-0.0606274063619
 20
-15.6571021925
 10
-0.0789391252064
 20
-15.6105816577
 10
-0.0995530168566
 20
-15.5650344659
 10
-0.122417557319
 20
-15.5205744614
 10
-0.14747559715
 20
-15.4773127711
 10
-0.1746645043
 20
-15.4353575266
 10
-0.20391632066
 20
-15.3948135943
 10
-0.235157931925
 20
-15.3557823128
 10
-0.268311250335
 20
-15.31836124
 10
-0.303293409862
 20
-15.2826439091
 10
-0.340016973324
 20
-15.2487195949
 10
-0.378390150939
 20
-15.2166730904
 10
-0.418317029745
 20
-15.1865844952
 10
-0.459697813341
 20
-15.1585290152
 10
-0.502429071318
 20
-15.1325767744
 10
-0.546403997784
 20
-15.1087926399
 10
-0.591512678325
 20
-15.0872360597
 10
-0.637642364733
 20
-15.067960914
 10
-0.684677756814
 20
-15.0510153806
 10
-0.732501290585
 20
-15.0364418146
 10
-0.780993432116
 20
-15.0242766422
 10
-0.830032976309
 20
-15.01455027
 10
-0.879497349842
 20
-15.007287009
 10
-0.929262917542
 20
-15.0025050134
 10
-0.979205291406
 20
-15.0002162358
 10
-1.00000011921
 20
-15.0
  0
LWPOLYLINE
  5
2A1
330
2A
100
AcDbEntity
  8
0
 62
     0
100
AcDbPolyline
 90
       33
 70
     0
 43
0.0
 10
-36.0000001192
 20
-19.0
 10
-35.9987503796
 20
-19.0499791693
 10
-35.9950042845
 20
-19.0998334166
 10
-35.9887711971
 20
-19.1494381325
 10
-35.9800666971
 20
-19.1986693308
 10
-35.9689125409
 20
-19.2474039593
 10
-35.9553366083
 20
-19.2955202067
 10
-35.9393728321
 20
-19.3428978075
 10
-35.9210611132
 20
-19.3894183423
 10
-35.9004472216
 20
-19.4349655341
 10
-35.8775826811
 20
-19.4794255386
 10
-35.8525246413
 20
-19.5226872289
 10
-35.8253357341
 20
-19.5646424734
 10
-35.7960839178
 20
-19.6051864057
 10
-35.7648423065
 20
-19.6442176872
 10
-35.7316889881
 20
-19.68163876
 10
-35.6967068286
 20
-19.7173560909
 10
-35.6599832651
 20
-19.7512804051
 10
-35.6216100875
 20
-19.7833269096
 10
-35.5816832087
 20
-19.8134155048
 10
-35.5403024251
 20
-19.8414709848
 10
-35.4975711671
 20
-19.8674232256
 10
-35.4535962406
 20
-19.8912073601
 10
-35.4084875601
 20
-19.9127639403
 10
-35.3623578737
 20
-19.932039086
 10
-35.3153224816
 20
-19.9489846194
 10
-35.2674989478
 20
-19.9635581854
 10
-35.2190068063
 20
-19.9757233578
 10
-35.1699672621
 20
-19.98544973
 10
-35.1205028886
 20
-19.992712991
 10
-35.0707373209
 20
-19.9974949866
 10
-35.020794947
 20
-19.9997837642
 10
-35.0000001192
 20
-20.0
  0
LWPOLYLINE
  5
2C4
330
2A
100
AcDbEntity
  8
0
 62
     0
100
AcDbPolyline
 90
       33
 70
     0
 43
0.0
 10
-35.0000001192
 20
-15.0
 10
-35.0499792885
 20
-15.0012497396
 10
-35.0998335359
 20
-15.0049958347
 10
-35.1494382517
 20
-15.0112289221
 10
-35.19866945
 20
-15.0199334222
 10
-35.2474040785
 20
-15.0310875783
 10
-35.2955203259
 20
-15.0446635109
 10
-35.3428979267
 20
-15.0606272872
 10
-35.3894184615
 20
-15.078939006
 10
-35.4349656533
 20
-15.0995528976
 10
-35.4794256578
 20
-15.1224174381
 10
-35.5226873481
 20
-15.1474754779
 10
-35.5646425926
 20
-15.1746643851
 10
-35.6051865249
 20
-15.2039162015
 10
-35.6442178064
 20
-15.2351578127
 10
-35.6816388792
 20
-15.2683111311
 10
-35.7173562101
 20
-15.3032932907
 10
-35.7512805243
 20
-15.3400168541
 10
-35.7833270288
 20
-15.3783900317
 10
-35.813415624
 20
-15.4183169105
 10
-35.841471104
 20
-15.4596976941
 10
-35.8674233448
 20
-15.5024289521
 10
-35.8912074793
 20
-15.5464038786
 10
-35.9127640595
 20
-15.5915125591
 10
-35.9320392052
 20
-15.6376422455
 10
-35.9489847386
 20
-15.6846776376
 10
-35.9635583046
 20
-15.7325011714
 10
-35.975723477
 20
-15.7809933129
 10
-35.9854498492
 20
-15.8300328571
 10
-35.9927131102
 20
-15.8794972306
 10
-35.9974951058
 20
-15.9292627983
 10
-35.9997838834
 20
-15.9792051722
 10
-36.0000001192
 20
-16.0
  0
LWPOLYLINE
  5
2E7
330
2A
100
AcDbEntity
  8
0
 62
     0
100
AcDbPolyline
 90
       33
 70
     0
 43
0.0
 10
-1.00000011921
 20
-5.0
 10
-0.950020949939
 20
-4.99875026039
 10
-0.900166702562
 20
-4.99500416528
 10
-0.850561986736
 20
-4.98877107794
 10
-0.801330788414
 20
-4.98006657784
 10
-0.752596159955
 20
-4.96891242171
 10
-0.704479912548
 20
-4.95533648913
 10
-0.657102311754
 20
-4.93937271285
 10
-0.610581776901
 20
-4.921060994
 10
-0.565034585098
 20
-4.90044710235
 10
-0.520574580605
 20
-4.87758256189
 10
-0.477312890279
 20
-4.85252452206
 10
-0.435357645814
 20
-4.82533561491
 10
-0.394813713473
 20
-4.79608379855
 10
-0.355782431972
 20
-4.76484218728
 10
-0.318361359186
 20
-4.73168886887
 10
-0.28264402831
 20
-4.69670670935
 10
-0.248719714069
 20
-4.65998314588
 10
-0.216673209582
 20
-4.62160996827
 10
-0.18658461442
 20
-4.58168308946
 10
-0.158529134401
 20
-4.54030230587
 10
-0.132576893615
 20
-4.49757104789
 10
-0.108792759148
 20
-4.45359612143
 10
-0.0872361789488
 20
-4.40848744088
 10
-0.0679610332421
 20
-4.36235775448
 10
-0.0510154998537
 20
-4.3153223624
 10
-0.0364419337921
 20
-4.26749882862
 10
-0.0242767613826
 20
-4.21900668709
 10
-0.0145503892208
 20
-4.1699671429
 10
-0.00728712817171
 20
-4.12050276937
 10
-0.00250513260524
 20
-4.07073720167
 10
-0.000216355019939
 20
-4.0207948278
 10
-0.0000001192092964
 20
-4.0
  0
LWPOLYLINE
  5
30A
330
2A
100
AcDbEntity
  8
0
 62
     0
100
AcDbPolyline
 90
       33
 70
     0
 43
0.0
 10
-0.0000001192092964
 20
-1.0
 10
-0.00124985881433
 20
-0.950020830729
 10
-0.00499595393127
 20
-0.900166583353
 10
-0.0112290412733
 20
-0.850561867526
 10
-0.0199335413681
 20
-0.801330669205
 10
-0.0310876974987
 20
-0.752596040745
 10
-0.0446636300837
 20
-0.704479793339
 10
-0.0606274063619
 20
-0.657102192545
 10
-0.0789391252064
 20
-0.610581657691
 10
-0.0995530168566
 20
-0.565034465889
 10
-0.122417557319
 20
-0.520574461396
 10
-0.14747559715
 20
-0.477312771069
 10
-0.1746645043
 20
-0.435357526605
 10
-0.20391632066
 20
-0.394813594264
 10
-0.235157931925
 20
-0.355782312762
 10
-0.268311250335
 20
-0.318361239977
 10
-0.303293409862
 20
-0.2826439091
 10
-0.340016973324
 20
-0.24871959486
 10
-0.378390150939
 20
-0.216673090373
 10
-0.418317029745
 20
-0.186584495211
 10
-0.459697813341
 20
-0.158529015192
 10
-0.502429071318
 20
-0.132576774406
 10
-0.546403997784
 20
-0.108792639939
 10
-0.591512678325
 20
-0.0872360597395
 10
-0.637642364733
 20
-0.0679609140328
 10
-0.684677756814
 20
-0.0510153806444
 10
-0.732501290585
 20
-0.0364418145828
 10
-0.780993432116
 20
-0.0242766421733
 10
-0.830032976309
 20
-0.0145502700115
 10
-0.879497349842
 20
-0.00728700896241
 10
-0.929262917542
 20
-0.00250501339595
 10
-0.979205291406
 20
-0.000216235810643
 10
-1.00000011921
 20
0.0000000000000002
  0
LWPOLYLINE
  5
32D
330
2A
100
AcDbEntity
  8
0
 62
     0
100
AcDbPolyline
 90
       33
 70
     0
 43
0.0
 10
-36.0000001192
 20
-4.0
 10
-35.9987503796
 20
-4.04997916927
 10
-35.9950042845
 20
-4.09983341665
 10
-35.9887711971
 20
-4.14943813247
 10
-35.9800666971
 20
-4.1986693308
 10
-35.9689125409
 20
-4.24740395925
 10
-35.9553366083
 20
-4.29552020666
 10
-35.9393728321
 20
-4.34289780746
 10
-35.9210611132
 20
-4.38941834231
 10
-35.9004472216
 20
-4.43496553411
 10
-35.8775826811
 20
-4.4794255386
 10
-35.8525246413
 20
-4.52268722893
 10
-35.8253357341
 20
-4.5646424734
 10
-35.7960839178
 20
-4.60518640574
 10
-35.7648423065
 20
-4.64421768724
 10
-35.7316889881
 20
-4.68163876002
 10
-35.6967068286
 20
-4.7173560909
 10
-35.6599832651
 20
-4.75128040514
 10
-35.6216100875
 20
-4.78332690963
 10
-35.5816832087
 20
-4.81341550479
 10
-35.5403024251
 20
-4.84147098481
 10
-35.4975711671
 20
-4.86742322559
 10
-35.4535962406
 20
-4.89120736006
 10
-35.4084875601
 20
-4.91276394026
 10
-35.3623578737
 20
-4.93203908597
 10
-35.3153224816
 20
-4.94898461936
 10
-35.2674989478
 20
-4.96355818542
 10
-35.2190068063
 20
-4.97572335783
 10
-35.1699672621
 20
-4.98544972999
 10
-35.1205028886
 20
-4.99271299104
 10
-35.0707373209
 20
-4.9974949866
 10
-35.020794947
 20
-4.99978376419
 10
-35.0000001192
 20
-5.0
  0
LWPOLYLINE
  5
350
330
2A
100
AcDbEntity
  8
0
 62
     0
100
AcDbPolyline
 90
       33
 70
     0
 43
0.0
 10
-35.0000001192
 20
0.0000000000000002
 10
-35.0499792885
 20
-0.00124973960503
 10
-35.0998335359
 20
-0.00499583472197
 10
-35.1494382517
 20
-0.011228922064
 10
-35.19866945
 20
-0.0199334221588
 10
-35.2474040785
 20
-0.0310875782894
 10
-35.2955203259
 20
-0.0446635108744
 10
-35.3428979267
 20
-0.0606272871526
 10
-35.3894184615
 20
-0.0789390059971
 10
-35.4349656533
 20
-0.0995528976473
 10
-35.4794256578
 20
-0.12241743811
 10
-35.5226873481
 20
-0.14747547794
 10
-35.5646425926
 20
-0.17466438509
 10
-35.6051865249
 20
-0.203916201451
 10
-35.6442178064
 20
-0.235157812716
 10
-35.6816388792
 20
-0.268311131126
 10
-35.7173562101
 20
-0.303293290653
 10
-35.7512805243
 20
-0.340016854115
 10
-35.7833270288
 20
-0.378390031729
 10
-35.813415624
 20
-0.418316910536
 10
-35.841471104
 20
-0.459697694132
 10
-35.8674233448
 20
-0.502428952108
 10
-35.8912074793
 20
-0.546403878574
 10
-35.9127640595
 20
-0.591512559116
 10
-35.9320392052
 20
-0.637642245523
 10
-35.9489847386
 20
-0.684677637605
 10
-35.9635583046
 20
-0.732501171375
 10
-35.975723477
 20
-0.780993312907
 10
-35.9854498492
 20
-0.8300328571
 10
-35.9927131102
 20
-0.879497230633
 10
-35.9974951058
 20
-0.929262798332
 10
-35.9997838834
 20
-0.979205172197
 10
-36.0000001192
 20
-1.0
  0
LWPOLYLINE
  5
373
330
2A
100
AcDbEntity
  8
0
 62
     0
100
AcDbPolyline
 90
       35
 70
     0
 43
0.0
 10
-18.2434761511
 20
-12.9863567332
 10
-18.2934712096
 20
-12.9858759593
 10
-18.3434163729
 20
-12.9835949819
 10
-18.3932427315
 20
-12.9794669588
 10
-18.4428758578
 20
-12.9734467464
 10
-18.4922356187
 20
-12.9654914356
 10
-18.541236033
 20
-12.9555609584
 10
-18.5897851881
 20
-12.9436187725
 10
-18.637785235
 20
-12.9296326238
 10
-18.6851324844
 20
-12.913575387
 10
-18.7317176261
 20
-12.8954259786
 10
-18.7774260991
 20
-12.8751703312
 10
-18.8221386387
 20
-12.8528024121
 10
-18.865732026
 20
-12.8283252583
 10
-18.9080800612
 20
-12.8017519935
 10
-18.9490547752
 20
-12.77310678
 10
-18.9885278814
 20
-12.7424256519
 10
-19.0263724574
 20
-12.709757167
 10
-19.0624648239
 20
-12.6751628137
 10
-19.0966865714
 20
-12.6387171103
 10
-19.1289266603
 20
-12.6005073443
 10
-19.1590835052
 20
-12.5606329162
 10
-19.1870669392
 20
-12.5192042752
 10
-19.212799951
 20
-12.4763414657
 10
-19.236220095
 20
-12.4321723292
 10
-19.25728049
 20
-12.3868304417
 10
-19.2759503514
 20
-12.3404528816
 10
-19.2922150344
 20
-12.2931779423
 10
-19.3060756007
 20
-12.2451429007
 10
-19.3175479546
 20
-12.1964819456
 10
-19.3266616202
 20
-12.147324351
 10
-19.3334582495
 20
-12.0977929519
 10
-19.3379899549
 20
-12.0480029574
 10
-19.3403175618
 20
-11.9980611064
 10
-19.340645553
 20
-11.9781755473
  0
LWPOLYLINE
  5
398
330
2A
100
AcDbEntity
  8
0
 62
     0
100
AcDbPolyline
 90
       35
 70
     0
 43
0.0
 10
-17.1647163695
 20
-11.9606202498
 10
-17.1653769496
 20
-12.0106120684
 10
-17.168212302
 20
-12.0605275257
 10
-17.1732879067
 20
-12.1102648765
 10
-17.1806614801
 20
-12.1597135399
 10
-17.1903812172
 20
-12.2087547624
 10
-17.202484071
 20
-12.2572626176
 10
-17.2169941549
 20
-12.3051053469
 10
-17.2339213657
 20
-12.3521470252
 10
-17.2532603179
 20
-12.3982495037
 10
-17.2749896723
 20
-12.443274561
 10
-17.2990719185
 20
-12.4870861664
 10
-17.3254536409
 20
-12.5295527494
 10
-17.354066266
 20
-12.5705493612
 10
-17.3848272511
 20
-12.6099596224
 10
-17.4176416457
 20
-12.6476773695
 10
-17.4524039344
 20
-12.6836079359
 10
-17.4890000571
 20
-12.7176690346
 10
-17.5273094995
 20
-12.7497912398
 10
-17.5672073597
 20
-12.7799180891
 10
-17.608566305
 20
-12.8080058507
 10
-17.6512583603
 20
-12.8340230122
 10
-17.6951564827
 20
-12.857949554
 10
-17.740135905
 20
-12.8797760704
 10
-17.786075238
 20
-12.8995027956
 10
-17.8328573448
 20
-12.917138586
 10
-17.8803699999
 20
-12.9326998989
 10
-17.9285063601
 20
-12.9462097996
 10
-17.9771652699
 20
-12.9576970187
 10
-18.0262514291
 20
-12.9671950747
 10
-18.0756754482
 20
-12.9747414701
 10
-18.1253538116
 20
-12.9803769654
 10
-18.1752087723
 20
-12.9841449284
 10
-18.2251681923
 20
-12.9860907585
 10
-18.2434761511
 20
-12.9863567332
  0
LWPOLYLINE
  5
3BD
330
2A
100
AcDbEntity
  8
0
 62
     0
100
AcDbPolyline
 90
       35
 70
     0
 43
0.0
 10
-18.2598858364
 20
-10.9524229284
 10
-18.209890725
 20
-10.9529002546
 10
-18.1599451021
 20
-10.9551715319
 10
-18.1101175002
 20
-10.9592846969
 10
-18.0604820919
 20
-10.965286154
 10
-18.0111189066
 20
-10.9732202275
 10
-17.9621140031
 20
-10.9831285333
 10
-17.9135595805
 20
-10.9950492643
 10
-17.865554006
 20
-11.0090163876
 10
-17.8182017355
 20
-11.0250587535
 10
-17.7716131008
 20
-11.0431991217
 10
-17.725903933
 20
-11.0634531169
 10
-17.6811949921
 20
-11.0858281343
 10
-17.6376111758
 20
-11.1103222246
 10
-17.5952804826
 20
-11.1369229997
 10
-17.5543327154
 20
-11.1656066105
 10
-17.5148979238
 20
-11.1963368598
 10
-17.4771046017
 20
-11.2290645186
 10
-17.4410776773
 20
-11.2637269175
 10
-17.4069363569
 20
-11.3002478806
 10
-17.374791907
 20
-11.3385380569
 10
-17.3447454767
 20
-11.3784956822
 10
-17.3168860768
 20
-11.4200077794
 10
-17.2912888304
 20
-11.4629517672
 10
-17.2680136005
 20
-11.5071974182
 10
-17.2471040763
 20
-11.5526090746
 10
-17.2285873678
 20
-11.5990480091
 10
-17.2124741193
 20
-11.6463748081
 10
-17.1987591148
 20
-11.6944516581
 10
-17.1874223144
 20
-11.7431444303
 10
-17.1784302361
 20
-11.7923244805
 10
-17.1717375836
 20
-11.8418701141
 10
-17.1672890171
 20
-11.8916676905
 10
-17.1650209713
 20
-11.9416123718
 10
-17.1647163695
 20
-11.9606202498
  0
LWPOLYLINE
  5
3E2
330
2A
100
AcDbEntity
  8
0
 62
     0
100
AcDbPolyline
 90
       35
 70
     0
 43
0.0
 10
-19.340645553
 20
-11.9781755473
 10
-19.3399927468
 20
-11.9281835724
 10
-19.3371793014
 20
-11.8782668273
 10
-19.3321373813
 20
-11.8285260097
 10
-19.3248066508
 20
-11.7790709445
 10
-19.3151361081
 20
-11.730019975
 10
-19.3030859072
 20
-11.6814990016
 10
-19.2886290724
 20
-11.6336401548
 10
-19.2717530051
 20
-11.5865801165
 10
-19.2524606784
 20
-11.5404581308
 10
-19.2307714258
 20
-11.4954137766
 10
-19.2067212548
 20
-11.4515845998
 10
-19.1803626414
 20
-11.4091037217
 10
-19.1517638058
 20
-11.3680975478
 10
-19.121007503
 20
-11.3286836942
 10
-19.0881894024
 20
-11.2909692345
 10
-19.0534161535
 20
-11.2550493359
 10
-19.0168032528
 20
-11.2210063289
 10
-18.978472829
 20
-11.1889092115
 10
-18.9385514546
 20
-11.1588135663
 10
-18.8971680762
 20
-11.1307618414
 10
-18.8544521331
 20
-11.1047839291
 10
-18.8105319086
 20
-11.0808979758
 10
-18.7655331395
 20
-11.0591113476
 10
-18.7195778855
 20
-11.0394216919
 10
-18.6727836499
 20
-11.0218180358
 10
-18.6252627299
 20
-11.0062818783
 10
-18.5771217696
 20
-10.9927882434
 10
-18.5284614862
 20
-10.9813066686
 10
-18.4793765402
 20
-10.9718021166
 10
-18.4299555207
 20
-10.9642358011
 10
-18.3802810224
 20
-10.9585659247
 10
-18.3304297898
 20
-10.954748332
 10
-18.2804729131
 20
-10.9527370795
 10
-18.2598858364
 20
-10.9524229284
  0
LWPOLYLINE
  5
407
330
2A
100
AcDbEntity
  8
0
 62
     0
100
AcDbPolyline
 90
      409
 70
     1
 43
0.0
 10
-12.0000001192
 20
-6.75
 10
-12.0499981468
 20
-6.7503846078
 10
-12.0999843409
 20
-6.75153834016
 10
-12.1499468704
 20
-6.75346092403
 10
-12.1998739104
 20
-6.75615190436
 10
-12.2497536438
 20
-6.75961064424
 10
-12.2995742652
 20
-6.76383632505
 10
-12.3493239828
 20
-6.76882794665
 10
-12.3989910219
 20
-6.77458432763
 10
-12.4485636271
 20
-6.78110410553
 10
-12.4980300655
 20
-6.78838573726
 10
-12.5473786293
 20
-6.79642749939
 10
-12.5965976387
 20
-6.80522748857
 10
-12.6456754443
 20
-6.81478362202
 10
-12.6946004304
 20
-6.82509363796
 10
-12.7433610172
 20
-6.8361550962
 10
-12.7919456642
 20
-6.84796537871
 10
-12.8403428721
 20
-6.8605216902
 10
-12.8885411862
 20
-6.87382105882
 10
-12.9365291989
 20
-6.88786033686
 10
-12.9842955523
 20
-6.90263620147
 10
-13.0318289409
 20
-6.91814515548
 10
-13.0791181146
 20
-6.93438352821
 10
-13.1261518807
 20
-6.95134747632
 10
-13.1729191073
 20
-6.96903298476
 10
-13.2194087253
 20
-6.98743586769
 10
-13.2656097317
 20
-7.00655176949
 10
-13.3115111914
 20
-7.02637616577
 10
-13.3571022404
 20
-7.04690436447
 10
-13.4023720882
 20
-7.06813150692
 10
-13.4473100201
 20
-7.09005256906
 10
-13.4919054002
 20
-7.11266236256
 10
-13.5361476736
 20
-7.13595553611
 10
-13.580026369
 20
-7.15992657664
 10
-13.623531101
 20
-7.18456981064
 10
-13.6666515729
 20
-7.2098794055
 10
-13.7093775789
 20
-7.23584937091
 10
-13.7516990065
 20
-7.26247356025
 10
-13.793605839
 20
-7.28974567207
 10
-13.8350881577
 20
-7.31765925154
 10
-13.8761361447
 20
-7.34620769205
 10
-13.9167400846
 20
-7.37538423668
 10
-13.9568903672
 20
-7.4051819799
 10
-13.9965774896
 20
-7.43559386912
 10
-14.0357920586
 20
-7.46661270639
 10
-14.0745247929
 20
-7.49823115013
 10
-14.1127665251
 20
-7.53044171683
 10
-14.1505082042
 20
-7.56323678284
 10
-14.1877408972
 20
-7.59660858616
 10
-14.2244557921
 20
-7.63054922831
 10
-14.2606441989
 20
-7.66505067614
 10
-14.2962975526
 20
-7.7001047638
 10
-14.3314074146
 20
-7.73570319462
 10
-14.3659654752
 20
-7.77183754311
 10
-14.399963555
 20
-7.80849925693
 10
-14.4333936073
 20
-7.84567965892
 10
-14.4662477199
 20
-7.88336994916
 10
-14.4985181167
 20
-7.92156120704
 10
-14.53019716
 20
-7.9602443934
 10
-14.5612773519
 20
-7.99941035263
 10
-14.5917513363
 20
-8.03904981486
 10
-14.6216119006
 20
-8.07915339815
 10
-14.6508519772
 20
-8.11971161073
 10
-14.6794646457
 20
-8.16071485321
 10
-14.7074431339
 20
-8.20215342086
 10
-14.7347808198
 20
-8.24401750593
 10
-14.7614712332
 20
-8.28629719996
 10
-14.7875080567
 20
-8.32898249613
 10
-14.8128851281
 20
-8.37206329159
 10
-14.8375964411
 20
-8.41552938992
 10
-14.8616361468
 20
-8.45937050348
 10
-14.8849985556
 20
-8.50357625589
 10
-14.907678138
 20
-8.54813618444
 10
-14.9296695262
 20
-8.59303974262
 10
-14.9509675151
 20
-8.63827630258
 10
-14.9715670641
 20
-8.68383515765
 10
-14.9914632974
 20
-8.72970552488
 10
-15.0106515061
 20
-8.77587654759
 10
-15.0291271486
 20
-8.82233729795
 10
-15.0468858521
 20
-8.86907677955
 10
-15.0639234135
 20
-8.91608393
 10
-15.0802358002
 20
-8.96334762357
 10
-15.0958191514
 20
-9.01085667382
 10
-15.1106697789
 20
-9.05859983621
 10
-15.1247841677
 20
-9.10656581081
 10
-15.1381589772
 20
-9.15474324496
 10
-15.1507910419
 20
-9.20312073593
 10
-15.162677372
 20
-9.25168683365
 10
-15.1738151541
 20
-9.30043004343
 10
-15.1842017523
 20
-9.34933882862
 10
-15.1938347081
 20
-9.39840161343
 10
-15.2027117417
 20
-9.44760678557
 10
-15.2108307519
 20
-9.4969426991
 10
-15.2181898173
 20
-9.54639767709
 10
-15.2247871959
 20
-9.59596001446
 10
-15.2306213264
 20
-9.64561798071
 10
-15.2356908279
 20
-9.69535982271
 10
-15.2399945006
 20
-9.74517376747
 10
-15.2435313258
 20
-9.79504802494
 10
-15.2463004664
 20
-9.84497079079
 10
-15.2483012671
 20
-9.89493024923
 10
-15.2495332543
 20
-9.94491457576
 10
-15.2499961364
 20
-9.99491194
 10
-15.2496898038
 20
-10.0449105085
 10
-15.2486143291
 20
-10.0948984475
 10
-15.2467699668
 20
-10.1448639257
 10
-15.2441571534
 20
-10.1947951174
 10
-15.2407765073
 20
-10.2446802045
 10
-15.2366288287
 20
-10.2945073804
 10
-15.2317150992
 20
-10.3442648517
 10
-15.2260364819
 20
-10.3939408419
 10
-15.2195943207
 20
-10.4435235934
 10
-15.2123901404
 20
-10.493001371
 10
-15.2044256461
 20
-10.5423624642
 10
-15.1957027229
 20
-10.5915951901
 10
-15.1862234352
 20
-10.6406878963
 10
-15.1759900268
 20
-10.6896289633
 10
-15.1650049196
 20
-10.7384068078
 10
-15.1532707136
 20
-10.7870098848
 10
-15.140790186
 20
-10.835426691
 10
-15.1275662909
 20
-10.883645767
 10
-15.1136021581
 20
-10.9316557002
 10
-15.0989010925
 20
-10.9794451275
 10
-15.0834665737
 20
-11.027002738
 10
-15.0673022548
 20
-11.0743172758
 10
-15.0504119615
 20
-11.1213775423
 10
-15.0327996915
 20
-11.1681723993
 10
-15.0144696133
 20
-11.2146907711
 10
-14.9954260652
 20
-11.2609216479
 10
-14.9756735545
 20
-11.3068540876
 10
-14.9552167564
 20
-11.3524772188
 10
-14.9340605125
 20
-11.3977802433
 10
-14.9122098301
 20
-11.4427524389
 10
-14.8896698809
 20
-11.4873831612
 10
-14.8664459997
 20
-11.5316618472
 10
-14.8425436831
 20
-11.5755780169
 10
-14.8179685885
 20
-11.619121276
 10
-14.7927265322
 20
-11.6622813186
 10
-14.7668234886
 20
-11.7050479297
 10
-14.7402655885
 20
-11.7474109871
 10
-14.7130591176
 20
-11.7893604643
 10
-14.6852105153
 20
-11.8308864325
 10
-14.6567263727
 20
-11.8719790634
 10
-14.6276134316
 20
-11.9126286311
 10
-14.5978785825
 20
-11.9528255145
 10
-14.567528863
 20
-11.9925601998
 10
-14.5365714564
 20
-12.0318232826
 10
-14.5050136897
 20
-12.0706054699
 10
-14.472863032
 20
-12.1088975827
 10
-14.440127093
 20
-12.146690558
 10
-14.4068136204
 20
-12.1839754509
 10
-14.3729304992
 20
-12.2207434368
 10
-14.3384857486
 20
-12.2569858132
 10
-14.3034875213
 20
-12.2926940024
 10
-14.2679441006
 20
-12.3278595528
 10
-14.231863899
 20
-12.3624741414
 10
-14.195255456
 20
-12.3965295755
 10
-14.1581274362
 20
-12.4300177949
 10
-14.1204886272
 20
-12.4629308735
 10
-14.0823479372
 20
-12.4952610214
 10
-14.0437143936
 20
-12.5270005866
 10
-14.0045971402
 20
-12.5581420569
 10
-13.9650054353
 20
-12.5886780618
 10
-13.9249486496
 20
-12.6186013739
 10
-13.8844362637
 20
-12.6479049109
 10
-13.8434778662
 20
-12.6765817373
 10
-13.8020831513
 20
-12.7046250656
 10
-13.7602619162
 20
-12.7320282586
 10
-13.7180240594
 20
-12.7587848305
 10
-13.6753795776
 20
-12.7848884484
 10
-13.6323385642
 20
-12.8103329342
 10
-13.5889112061
 20
-12.8351122655
 10
-13.5451077818
 20
-12.8592205775
 10
-13.5009386588
 20
-12.8826521643
 10
-13.456414291
 20
-12.90540148
 10
-13.4115452166
 20
-12.9274631403
 10
-13.3663420553
 20
-12.9488319236
 10
-13.3208155058
 20
-12.9695027723
 10
-13.2749763435
 20
-12.9894707939
 10
-13.2288354176
 20
-13.0087312624
 10
-13.1824036488
 20
-13.0272796192
 10
-13.1356920268
 20
-13.0451114743
 10
-13.0887116072
 20
-13.0622226072
 10
-13.0414735095
 20
-13.0786089679
 10
-12.9939889141
 20
-13.0942666782
 10
-12.9462690598
 20
-13.109192032
 10
-12.8983252408
 20
-13.123381497
 10
-12.8501688047
 20
-13.1368317147
 10
-12.8018111493
 20
-13.1495395016
 10
-12.7532637198
 20
-13.1615018501
 10
-12.7045380066
 20
-13.1727159289
 10
-12.6556455421
 20
-13.1831790838
 10
-12.6065978984
 20
-13.1928888384
 10
-12.557406684
 20
-13.2018428946
 10
-12.5080835418
 20
-13.2100391331
 10
-12.4586401454
 20
-13.217475614
 10
-12.4090881973
 20
-13.2241505772
 10
-12.3594394256
 20
-13.2300624429
 10
-12.3097055812
 20
-13.2352098119
 10
-12.2598984351
 20
-13.2395914658
 10
-12.2100297758
 20
-13.2432063677
 10
-12.1601114064
 20
-13.2460536619
 10
-12.1101551416
 20
-13.2481326745
 10
-12.060172805
 20
-13.2494429135
 10
-12.0101762267
 20
-13.2499840687
 10
-11.9601772399
 20
-13.2497560121
 10
-11.9101876785
 20
-13.2487587977
 10
-11.860219374
 20
-13.2469926614
 10
-11.8102841531
 20
-13.2444580213
 10
-11.7603938344
 20
-13.2411554773
 10
-11.7105602262
 20
-13.2370858111
 10
-11.6607951231
 20
-13.2322499858
 10
-11.6111103037
 20
-13.226649146
 10
-11.5615175273
 20
-13.2202846173
 10
-11.5120285318
 20
-13.2131579062
 10
-11.4626550302
 20
-13.2052706992
 10
-11.4134087084
 20
-13.1966248633
 10
-11.3643012221
 20
-13.1872224447
 10
-11.315344194
 20
-13.1770656688
 10
-11.2665492115
 20
-13.1661569396
 10
-11.2179278235
 20
-13.1544988388
 10
-11.1694915376
 20
-13.1420941259
 10
-11.121251818
 20
-13.1289457367
 10
-11.073220082
 20
-13.1150567832
 10
-11.0254076979
 20
-13.1004305527
 10
-10.977825982
 20
-13.085070507
 10
-10.9304861961
 20
-13.0689802815
 10
-10.8833995445
 20
-13.0521636844
 10
-10.8365771719
 20
-13.034624696
 10
-10.7900301603
 20
-13.0163674674
 10
-10.7437695264
 20
-12.9973963197
 10
-10.6978062193
 20
-12.9777157432
 10
-10.6521511177
 20
-12.9573303957
 10
-10.6068150274
 20
-12.9362451022
 10
-10.5618086785
 20
-12.9144648531
 10
-10.5171427232
 20
-12.8919948035
 10
-10.4728277332
 20
-12.8688402715
 10
-10.428874197
 20
-12.8450067375
 10
-10.3852925175
 20
-12.8204998424
 10
-10.3420930098
 20
-12.7953253866
 10
-10.2992858985
 20
-12.7694893283
 10
-10.2568813151
 20
-12.7429977825
 10
-10.2148892961
 20
-12.7158570193
 10
-10.1733197801
 20
-12.6880734623
 10
-10.1321826061
 20
-12.6596536875
 10
-10.0914875102
 20
-12.6306044213
 10
-10.0512441245
 20
-12.6009325391
 10
-10.0114619736
 20
-12.5706450637
 10
-9.97215047344
 20
-12.5397491636
 10
-9.93331892818
 20
-12.5082521513
 10
-9.89497652859
 20
-12.4761614816
 10
-9.85713234961
 20
-12.4434847497
 10
-9.81979534826
 20
-12.4102296896
 10
-9.78297436152
 20
-12.3764041722
 10
-9.74667810427
 20
-12.3420162034
 10
-9.71091516715
 20
-12.3070739221
 10
-9.6756940146
 20
-12.2715855987
 10
-9.64102298281
 20
-12.2355596324
 10
-9.60691027781
 20
-12.19900455
 10
-9.57336397342
 20
-12.1619290034
 10
-9.54039200946
 20
-12.1243417678
 10
-9.50800218978
 20
-12.0862517393
 10
-9.47620218046
 20
-12.0476679331
 10
-9.44499950799
 20
-12.0085994814
 10
-9.41440155746
 20
-11.9690556309
 10
-9.38441557085
 20
-11.9290457409
 10
-9.3550486453
 20
-11.888579281
 10
-9.32630773141
 20
-11.8476658289
 10
-9.29819963165
 20
-11.8063150681
 10
-9.27073099867
 20
-11.7645367856
 10
-9.24390833382
 20
-11.7223408694
 10
-9.21773798551
 20
-11.6797373067
 10
-9.1922261478
 20
-11.6367361808
 10
-9.16737885887
 20
-11.5933476694
 10
-9.14320199961
 20
-11.5495820417
 10
-9.11970129225
 20
-11.5054496562
 10
-9.09688229898
 20
-11.4609609584
 10
-9.07475042064
 20
-11.4161264778
 10
-9.05331089543
 20
-11.3709568259
 10
-9.0325687977
 20
-11.3254626936
 10
-9.01252903673
 20
-11.2796548485
 10
-8.99319635556
 20
-11.2335441325
 10
-8.97457532988
 20
-11.1871414592
 10
-8.95667036695
 20
-11.1404578112
 10
-8.93948570455
 20
-11.0935042376
 10
-8.92302540997
 20
-11.0462918516
 10
-8.90729337907
 20
-10.9988318274
 10
-8.89229333532
 20
-10.951135398
 10
-8.87802882897
 20
-10.9032138522
 10
-8.86450323615
 20
-10.8550785323
 10
-8.85171975814
 20
-10.8067408308
 10
-8.83968142055
 20
-10.7582121886
 10
-8.82839107263
 20
-10.7095040914
 10
-8.8178513866
 20
-10.6606280675
 10
-8.80806485701
 20
-10.611595685
 10
-8.79903380016
 20
-10.5624185491
 10
-8.79076035353
 20
-10.5131082989
 10
-8.78324647529
 20
-10.4636766054
 10
-8.77649394385
 20
-10.4141351681
 10
-8.7705043574
 20
-10.3644957125
 10
-8.76527913357
 20
-10.3147699875
 10
-8.76081950907
 20
-10.2649697622
 10
-8.75712653942
 20
-10.2151068234
 10
-8.75420109867
 20
-10.1651929728
 10
-8.75204387922
 20
-10.115240024
 10
-8.75065539165
 20
-10.0652598
 10
-8.75003596459
 20
-10.0152641301
 10
-8.75018574464
 20
-9.96526484757
 10
-8.75110469635
 20
-9.91527378619
 10
-8.75279260222
 20
-9.86530277795
 10
-8.75524906277
 20
-9.81536365008
 10
-8.75847349658
 20
-9.76546822226
 10
-8.76246514049
 20
-9.71562830382
 10
-8.76722304976
 20
-9.66585569097
 10
-8.77274609828
 20
-9.61616216397
 10
-8.77903297883
 20
-9.56655948437
 10
-8.78608220343
 20
-9.51705939221
 10
-8.79389210366
 20
-9.46767360327
 10
-8.80246083106
 20
-9.41841380626
 10
-8.81178635756
 20
-9.36929166008
 10
-8.82186647599
 20
-9.32031879102
 10
-8.83269880056
 20
-9.27150679009
 10
-8.84428076746
 20
-9.22286721018
 10
-8.85660963545
 20
-9.17441156341
 10
-8.86968248652
 20
-9.12615131832
 10
-8.88349622655
 20
-9.07809789724
 10
-8.8980475861
 20
-9.03026267355
 10
-8.91333312111
 20
-8.98265696895
 10
-8.92934921378
 20
-8.93529205085
 10
-8.94609207339
 20
-8.88817912967
 10
-8.96355773723
 20
-8.84132935616
 10
-8.98174207147
 20
-8.79475381882
 10
-9.00064077223
 20
-8.74846354122
 10
-9.02024936652
 20
-8.70246947942
 10
-9.04056321335
 20
-8.65678251938
 10
-9.06157750481
 20
-8.61141347437
 10
-9.08328726719
 20
-8.56637308241
 10
-9.10568736219
 20
-8.52167200373
 10
-9.12877248812
 20
-8.47732081827
 10
-9.15253718115
 20
-8.43333002315
 10
-9.17697581661
 20
-8.38971003017
 10
-9.20208261033
 20
-8.34647116339
 10
-9.22785161998
 20
-8.30362365667
 10
-9.25427674651
 20
-8.26117765122
 10
-9.28135173558
 20
-8.21914319324
 10
-9.30907017903
 20
-8.17753023152
 10
-9.33742551641
 20
-8.13634861508
 10
-9.36641103653
 20
-8.09560809086
 10
-9.39601987906
 20
-8.05531830139
 10
-9.42624503611
 20
-8.01548878254
 10
-9.45707935395
 20
-7.97612896122
 10
-9.48851553465
 20
-7.93724815319
 10
-9.52054613785
 20
-7.89885556081
 10
-9.55316358249
 20
-7.86096027092
 10
-9.58636014862
 20
-7.82357125264
 10
-9.62012797921
 20
-7.78669735525
 10
-9.65445908203
 20
-7.75034730616
 10
-9.68934533155
 20
-7.71452970873
 10
-9.72477847082
 20
-7.67925304035
 10
-9.76075011347
 20
-7.64452565036
 10
-9.79725174567
 20
-7.61035575809
 10
-9.83427472815
 20
-7.57675145094
 10
-9.87181029824
 20
-7.54372068243
 10
-9.90984957197
 20
-7.51127127033
 10
-9.94838354612
 20
-7.47941089484
 10
-9.98740310042
 20
-7.44814709672
 10
-10.0268989997
 20
-7.41748727554
 10
-10.0668618959
 20
-7.38743868792
 10
-10.1072823305
 20
-7.35800844581
 10
-10.1481507369
 20
-7.32920351481
 10
-10.1894574422
 20
-7.30103071252
 10
-10.2311926699
 20
-7.27349670693
 10
-10.2733465419
 20
-7.24660801483
 10
-10.3159090813
 20
-7.22037100029
 10
-10.3588702142
 20
-7.19479187314
 10
-10.4022197726
 20
-7.16987668747
 10
-10.4459474965
 20
-7.14563134026
 10
-10.4900430361
 20
-7.12206156994
 10
-10.534495955
 20
-7.09917295505
 10
-10.579295732
 20
-7.07697091289
 10
-10.6244317637
 20
-7.0554606983
 10
-10.6698933673
 20
-7.03464740234
 10
-10.7156697828
 20
-7.01453595113
 10
-10.7617501759
 20
-6.9951311047
 10
-10.8081236401
 20
-6.97643745582
 10
-10.8547791997
 20
-6.95845942892
 10
-10.9017058121
 20
-6.94120127909
 10
-10.9488923708
 20
-6.924667091
 10
-10.9963277074
 20
-6.90886077801
 10
-11.0440005949
 20
-6.89378608117
 10
-11.0918997501
 20
-6.87944656839
 10
-11.140013836
 20
-6.86584563357
 10
-11.1883314649
 20
-6.8529864958
 10
-11.236841201
 20
-6.84087219861
 10
-11.2855315628
 20
-6.82950560922
 10
-11.3343910263
 20
-6.81888941791
 10
-11.3834080273
 20
-6.80902613733
 10
-11.4325709644
 20
-6.79991810194
 10
-11.4818682016
 20
-6.79156746745
 10
-11.5312880711
 20
-6.78397621029
 10
-11.5808188762
 20
-6.77714612718
 10
-11.6304488939
 20
-6.77107883468
 10
-11.6801663776
 20
-6.7657757688
 10
-11.7299595601
 20
-6.76123818467
 10
-11.7798166562
 20
-6.75746715628
 10
-11.8297258657
 20
-6.75446357614
 10
-11.8796753761
 20
-6.75222815515
 10
-11.9296533651
 20
-6.7507614224
 10
-11.9796480039
 20
-6.75006372502
  0
LWPOLYLINE
  5
5A2
330
2A
100
AcDbEntity
  8
0
 62
     0
100
AcDbPolyline
 90
       29
 70
     0
 43
0.0
 10
-17.1464027089
 20
-14.2305463741
 10
-17.146903963
 20
-14.2805410615
 10
-17.1493108022
 20
-14.3304798207
 10
-17.1537753816
 20
-14.3802762453
 10
-17.1604588615
 20
-14.4298230056
 10
-17.1695287396
 20
-14.4789881452
 10
-17.1811544749
 20
-14.5276114751
 10
-17.195500968
 20
-14.5755016209
 10
-17.2127195991
 20
-14.622434559
 10
-17.2329368691
 20
-14.6681547329
 10
-17.2562413065
 20
-14.7123799397
 10
-17.282670128
 20
-14.7548109228
 10
-17.3121979658
 20
-14.7951458257
 10
-17.3447303711
 20
-14.8330983879
 10
-17.3801043535
 20
-14.8684173372
 10
-17.418096773
 20
-14.9009035159
 10
-17.4584394077
 20
-14.9304214583
 10
-17.5008378118
 20
-14.9569034968
 10
-17.544990416
 20
-14.9803464414
 10
-17.5906048654
 20
-15.0008025708
 10
-17.6374098899
 20
-15.0183674991
 10
-17.6851623783
 20
-15.0331673736
 10
-17.7336503034
 20
-15.0453471803
 10
-17.7826925902
 20
-15.0550611037
 10
-17.8321370487
 20
-15.0624652123
 10
-17.881857291
 20
-15.0677123098
 10
-17.9317492886
 20
-15.0709485847
 10
-17.9817279802
 20
-15.0723116441
 10
-17.9836387188
 20
-15.0723283315
  0
LWPOLYLINE
  5
5C1
330
2A
100
AcDbEntity
  8
0
 62
     0
100
AcDbPolyline
 90
       28
 70
     0
 43
0.0
 10
-17.9941199295
 20
-13.40135851
 10
-17.9441253964
 20
-13.4018696715
 10
-17.8941876423
 20
-13.4042970373
 10
-17.8443926515
 20
-13.4087780494
 10
-17.7948453344
 20
-13.4154582088
 10
-17.7456728076
 20
-13.4244889826
 10
-17.6970276753
 20
-13.4360243418
 10
-17.6490908981
 20
-13.4502155429
 10
-17.6020736064
 20
-13.4672038365
 10
-17.5562169771
 20
-13.487110998
 10
-17.5117891249
 20
-13.5100279974
 10
-17.4690780246
 20
-13.536002773
 10
-17.4283799277
 20
-13.5650288207
 10
-17.389983667
 20
-13.5970369015
 10
-17.3541525012
 20
-13.6318922065
 10
-17.3211063059
 20
-13.6693985125
 10
-17.291007363
 20
-13.7093092953
 10
-17.2639523704
 20
-13.7513439908
 10
-17.2399717433
 20
-13.795206382
 10
-17.2190354792
 20
-13.8406019275
 10
-17.2010635533
 20
-13.887251671
 10
-17.185938374
 20
-13.9349016493
 10
-17.1735171546
 20
-13.9833278837
 10
-17.1636427852
 20
-14.0323377752
 10
-17.1561525363
 20
-14.0817689813
 10
-17.1508844979
 20
-14.1314867936
 10
-17.1476819962
 20
-14.1813808084
 10
-17.1464027089
 20
-14.2305463741
  0
LWPOLYLINE
  5
5DF
330
2A
100
AcDbEntity
  8
0
 62
     0
100
AcDbPolyline
 90
       21
 70
     0
 43
0.0
 10
-17.3733953214
 20
-14.2323777401
 10
-17.375247756
 20
-14.1824193268
 10
-17.3802026497
 20
-14.1326744294
 10
-17.3885768935
 20
-14.0833918465
 10
-17.4006871114
 20
-14.0348943905
 10
-17.4168233161
 20
-13.9875867127
 10
-17.4372118043
 20
-13.9419530657
 10
-17.4619710414
 20
-13.8985381499
 10
-17.49107061
 20
-13.8579067064
 10
-17.5243081647
 20
-13.8205852001
 10
-17.5613172775
 20
-13.7869993709
 10
-17.601607886
 20
-13.7574272543
 10
-17.6446268097
 20
-13.7319822279
 10
-17.6898187167
 20
-13.7106272711
 10
-17.736672035
 20
-13.6932096959
 10
-17.7847443115
 20
-13.6795020272
 10
-17.8336698384
 20
-13.6692384106
 10
-17.8831557738
 20
-13.66214183
 10
-17.9329726176
 20
-13.6579418546
 10
-17.9829430541
 20
-13.6563847513
 10
-17.9980624728
 20
-13.6563986174
  0
LWPOLYLINE
  5
5F6
330
2A
100
AcDbEntity
  8
0
 62
     0
100
AcDbPolyline
 90
       21
 70
     0
 43
0.0
 10
-17.9886958826
 20
-14.8173608334
 10
-17.9387266353
 20
-14.8157554548
 10
-17.8889061972
 20
-14.8115933533
 10
-17.8394009474
 20
-14.8046291656
 10
-17.7904263816
 20
-14.7945991417
 10
-17.7422582917
 20
-14.781229411
 10
-17.6952431349
 20
-14.7642512067
 10
-17.6498041419
 20
-14.7434251881
 10
-17.6064377199
 20
-14.7185754878
 10
-17.5656936252
 20
-14.6896303489
 10
-17.5281344237
 20
-14.6566604038
 10
-17.4942768289
 20
-14.6199006004
 10
-17.4645279494
 20
-14.5797427163
 10
-17.4391364302
 20
-14.536695418
 10
-17.4181746647
 20
-14.4913232349
 10
-17.4015547059
 20
-14.4441842928
 10
-17.3890670025
 20
-14.3957835175
 10
-17.3804261584
 20
-14.3465476983
 10
-17.3753115299
 20
-14.2968195538
 10
-17.3733971446
 20
-14.2468639387
 10
-17.3733953214
 20
-14.2323777401
  0
LWPOLYLINE
  5
60D
330
2A
100
AcDbEntity
  8
0
 62
     0
100
AcDbPolyline
 90
       15
 70
     0
 43
0.0
 10
-7.16257913339
 20
-5.73972363347
 10
-7.160323351
 20
-5.78966123703
 10
-7.15436626951
 20
-5.83929350001
 10
-7.14474274096
 20
-5.88834696702
 10
-7.13152256157
 20
-5.93655584794
 10
-7.11480368079
 20
-5.98366600632
 10
-7.09470492604
 20
-6.02943660099
 10
-7.07135914052
 20
-6.07363952081
 10
-7.0449074092
 20
-6.11605697634
 10
-7.01549480456
 20
-6.15647771015
 10
-6.98326788452
 20
-6.19469229241
 10
-6.94837405218
 20
-6.23048793137
 10
-6.91096283862
 20
-6.26364319998
 10
-6.87118917592
 20
-6.29392310302
 10
-6.849982505
 20
-6.30822020155
  0
LWPOLYLINE
  5
61E
330
2A
100
AcDbEntity
  8
0
 62
     0
100
AcDbPolyline
 90
       27
 70
     0
 43
0.0
 10
-6.30790802143
 20
-4.95180276792
 10
-6.35788030908
 20
-4.95333310783
 10
-6.40772850841
 20
-4.95716691492
 10
-6.45733666941
 20
-4.96337494274
 10
-6.50657794778
 20
-4.97202206126
 10
-6.55531458148
 20
-4.98316577873
 10
-6.60339806129
 20
-4.99685466577
 10
-6.6506695273
 20
-5.01312670099
 10
-6.69696042377
 20
-5.03200756342
 10
-6.7420934457
 20
-5.05350890294
 10
-6.78588380961
 20
-5.07762662773
 10
-6.82814087988
 20
-5.1043392571
 10
-6.8686701776
 20
-5.13360639954
 10
-6.90727579059
 20
-5.16536742937
 10
-6.94376318869
 20
-5.19954045007
 10
-6.97794242616
 20
-5.23602164658
 10
-7.00963168048
 20
-5.2746851385
 10
-7.03866103642
 20
-5.31538344762
 10
-7.0648763764
 20
-5.35794868059
 10
-7.08814319111
 20
-5.40219449705
 10
-7.10835008515
 20
-5.44791888246
 10
-7.12541173306
 20
-5.49490767702
 10
-7.13927104966
 20
-5.54293873313
 10
-7.14990038142
 20
-5.59178649828
 10
-7.15730160031
 20
-5.64122676103
 10
-7.16150507843
 20
-5.69104126925
 10
-7.16257913339
 20
-5.73972363347
  0
LWPOLYLINE
  5
63B
330
2A
100
AcDbEntity
  8
0
 62
     0
100
AcDbPolyline
 90
       27
 70
     0
 43
0.0
 10
-5.44163514223
 20
-5.72583913577
 10
-5.4435971166
 20
-5.67588582817
 10
-5.44872178789
 20
-5.62615777237
 10
-5.4570582306
 20
-5.57686669197
 10
-5.46862790185
 20
-5.52823315115
 10
-5.48342297246
 20
-5.48048209351
 10
-5.50140578909
 20
-5.43383809416
 10
-5.52250949874
 20
-5.38852063288
 10
-5.54663975491
 20
-5.34473968367
 10
-5.57367732969
 20
-5.30269186456
 10
-5.6034813937
 20
-5.26255731401
 10
-5.63589320182
 20
-5.22449737317
 10
-5.67073993468
 20
-5.18865307227
 10
-5.70783848429
 20
-5.15514435702
 10
-5.74699902468
 20
-5.12406995086
 10
-5.7880282634
 20
-5.09550773208
 10
-5.83073231864
 20
-5.06951550569
 10
-5.87491920488
 20
-5.04613206263
 10
-5.92040093607
 20
-5.0253784373
 10
-5.96699527061
 20
-5.00725929382
 10
-6.01452712913
 20
-4.99176438867
 10
-6.06282971752
 20
-4.97887007075
 10
-6.11174538588
 20
-4.96854078997
 10
-6.16112625083
 20
-4.96073059147
 10
-6.21083460622
 20
-4.95538457679
 10
-6.2607431446
 20
-4.95244031559
 10
-6.30790802143
 20
-4.95180276792
  0
LWPOLYLINE
  5
658
330
2A
100
AcDbEntity
  8
0
 62
     0
100
AcDbPolyline
 90
       15
 70
     0
 43
0.0
 10
-5.74501846651
 20
-6.29930540204
 10
-5.70435674669
 20
-6.27023003699
 10
-5.66603854297
 20
-6.23812836092
 10
-5.63023973493
 20
-6.20323873079
 10
-5.59712290977
 20
-6.16579351125
 10
-5.56684086754
 20
-6.12602060458
 10
-5.53953862236
 20
-6.08414599967
 10
-5.51535382152
 20
-6.04039679983
 10
-5.49441558895
 20
-5.9950042404
 10
-5.47684188657
 20
-5.94820623518
 10
-5.46273559898
 20
-5.90024901335
 10
-5.45217969088
 20
-5.85138745287
 10
-5.44523194813
 20
-5.80188381312
 10
-5.44191995651
 20
-5.75200473712
 10
-5.44163514223
 20
-5.72583913577
  0
LWPOLYLINE
  5
669
330
2A
100
AcDbEntity
  8
0
 62
     0
100
AcDbPolyline
 90
       20
 70
     0
 43
0.0
 10
-5.2146425298
 20
-5.72400776972
 10
-5.21529719095
 20
-5.77399967171
 10
-5.21815628273
 20
-5.82391354531
 10
-5.22334805975
 20
-5.87363841361
 10
-5.23099066624
 20
-5.92304544687
 10
-5.24118589447
 20
-5.97198899507
 10
-5.25401250359
 20
-6.0203092384
 10
-5.26951977604
 20
-6.06783665063
 10
-5.28772217378
 20
-6.11439819344
 10
-5.30859598578
 20
-6.15982480099
 10
-5.33207866558
 20
-6.20395936652
 10
-5.3580711487
 20
-6.24666423102
 10
-5.38644291367
 20
-6.28782719421
 10
-5.41703906872
 20
-6.32736533481
 10
-5.44968845589
 20
-6.36522635524
 10
-5.48421173519
 20
-6.40138761422
 10
-5.52042860724
 20
-6.43585334763
 10
-5.55816365163
 20
-6.46865073764
 10
-5.59725058606
 20
-6.49982548108
 10
-5.61926374519
 20
-6.51629791358
  0
LWPOLYLINE
  5
67F
330
2A
100
AcDbEntity
  8
0
 62
     0
100
AcDbPolyline
 90
       35
 70
     0
 43
0.0
 10
-6.31003789208
 20
-4.68781135963
 10
-6.26004344457
 20
-4.68832992268
 10
-6.21010412465
 20
-4.69072990537
 10
-6.16029567341
 20
-4.69506525032
 10
-6.11070025656
 20
-4.70138607049
 10
-6.06140635348
 20
-4.70973772932
 10
-6.01250851515
 20
-4.72015989101
 10
-5.96410697877
 20
-4.73268556481
 10
-5.91630713202
 20
-4.74734017148
 10
-5.86921882541
 20
-4.7641406627
 10
-5.82295553779
 20
-4.7830947259
 10
-5.7776334075
 20
-4.80420010622
 10
-5.7333701486
 20
-4.82744407494
 10
-5.69028387811
 20
-4.85280306881
 10
-5.64849188544
 20
-4.88024251839
 10
-5.60810937828
 20
-4.9097168754
 10
-5.56924824058
 20
-4.94116984078
 10
-5.53201583726
 20
-4.97453478623
 10
-5.49651389684
 20
-5.00973535462
 10
-5.4628374988
 20
-5.04668621789
 10
-5.43107418637
 20
-5.08529396659
 10
-5.40130321916
 20
-5.1254581025
 10
-5.37359497368
 20
-5.16707210502
 10
-5.34801049433
 20
-5.21002454266
 10
-5.32460119248
 20
-5.25420020341
 10
-5.30340868759
 20
-5.29948122027
 10
-5.28446478189
 20
-5.34574817177
 10
-5.2677915582
 20
-5.39288114045
 10
-5.25340158969
 20
-5.44076071558
 10
-5.24129824984
 20
-5.48926892884
 10
-5.23147611082
 20
-5.53829011435
 10
-5.22392141831
 20
-5.58771168628
 10
-5.21861263108
 20
-5.63742482914
 10
-5.21552101336
 20
-5.68732509724
 10
-5.2146425298
 20
-5.72400776972
  0
LWPOLYLINE
  5
6A4
330
2A
100
AcDbEntity
  8
0
 62
     0
100
AcDbPolyline
 90
       35
 70
     0
 43
0.0
 10
-7.39057171328
 20
-5.74156306722
 10
-7.38988919796
 20
-5.69157168301
 10
-7.38700835152
 20
-5.64165886177
 10
-7.3818940474
 20
-5.59192539276
 10
-7.37451791704
 20
-5.54247691174
 10
-7.36485898362
 20
-5.49342336236
 10
-7.35290424935
 20
-5.44487836386
 10
-7.33864922431
 20
-5.39695848799
 10
-7.32209838458
 20
-5.34978244955
 10
-7.30326554805
 20
-5.30347021666
 10
-7.28217415595
 20
-5.25814204895
 10
-7.25885744899
 20
-5.21391747338
 10
-7.23335852676
 20
-5.17091421038
 10
-7.20573028041
 20
-5.12924706512
 10
-7.17603518935
 20
-5.08902680208
 10
-7.14434497494
 20
-5.05035902383
 10
-7.11074010708
 20
-5.01334307812
 10
-7.07530916323
 20
-4.97807101956
 10
-7.03814804447
 20
-4.94462665392
 10
-6.99935905858
 20
-4.91308469322
 10
-6.95904988649
 20
-4.88351004838
 10
-6.9173324538
 20
-4.85595728323
 10
-6.87432173521
 20
-4.83047024837
 10
-6.83013452291
 20
-4.807081907
 10
-6.78488819309
 20
-4.78581435712
 10
-6.73869950476
 20
-4.766679046
 10
-6.6916834634
 20
-4.74967716512
 10
-6.64395227838
 20
-4.73480020619
 10
-6.59561443758
 20
-4.72203065317
 10
-6.54677391652
 20
-4.7113427814
 10
-6.49752953216
 20
-4.70270353257
 10
-6.44797444482
 20
-4.69607343473
 10
-6.39819580545
 20
-4.69140753784
 10
-6.34827454025
 20
-4.68865633863
 10
-6.31003789208
 20
-4.68781135963
  0
LWPOLYLINE
  5
6C9
330
2A
100
AcDbEntity
  8
0
 62
     0
100
AcDbPolyline
 90
       20
 70
     0
 43
0.0
 10
-6.97224391575
 20
-6.52421359831
 10
-7.01298342903
 20
-6.49523284161
 10
-7.05236713741
 20
-6.46443553428
 10
-7.09024230641
 20
-6.43180152309
 10
-7.12644867887
 20
-6.39732600176
 10
-7.16082183706
 20
-6.36102302702
 10
-7.19319771892
 20
-6.32292863714
 10
-7.2234181706
 20
-6.28310313597
 10
-7.251337213
 20
-6.24163209342
 10
-7.27682749212
 20
-6.19862569652
 10
-7.29978623123
 20
-6.15421627663
 10
-7.32013997018
 20
-6.10855411018
 10
-7.33784749724
 20
-6.06180187944
 10
-7.35290063865
 20
-6.01412840476
 10
-7.36532290405
 20
-5.96570235432
 10
-7.37516630218
 20
-5.91668658108
 10
-7.38250686003
 20
-5.8672335586
 10
-7.38743946257
 20
-5.81748215276
 10
-7.39007258774
 20
-5.76755574151
 10
-7.39057171328
 20
-5.74156306722
  0
LWPOLYLINE
  5
6DF
330
2A
100
AcDbEntity
  8
0
 62
     0
100
AcDbPolyline
 90
      409
 70
     1
 43
0.0
 10
-24.0000001192
 20
-6.75
 10
-24.0499981468
 20
-6.7503846078
 10
-24.0999843409
 20
-6.75153834016
 10
-24.1499468704
 20
-6.75346092403
 10
-24.1998739104
 20
-6.75615190436
 10
-24.2497536438
 20
-6.75961064424
 10
-24.2995742652
 20
-6.76383632505
 10
-24.3493239828
 20
-6.76882794665
 10
-24.3989910219
 20
-6.77458432763
 10
-24.4485636271
 20
-6.78110410553
 10
-24.4980300655
 20
-6.78838573726
 10
-24.5473786293
 20
-6.79642749939
 10
-24.5965976387
 20
-6.80522748857
 10
-24.6456754443
 20
-6.81478362202
 10
-24.6946004304
 20
-6.82509363796
 10
-24.7433610172
 20
-6.8361550962
 10
-24.7919456642
 20
-6.84796537871
 10
-24.8403428721
 20
-6.8605216902
 10
-24.8885411862
 20
-6.87382105882
 10
-24.9365291989
 20
-6.88786033686
 10
-24.9842955523
 20
-6.90263620147
 10
-25.0318289409
 20
-6.91814515548
 10
-25.0791181146
 20
-6.93438352821
 10
-25.1261518807
 20
-6.95134747632
 10
-25.1729191073
 20
-6.96903298476
 10
-25.2194087253
 20
-6.98743586769
 10
-25.2656097317
 20
-7.00655176949
 10
-25.3115111914
 20
-7.02637616577
 10
-25.3571022404
 20
-7.04690436447
 10
-25.4023720882
 20
-7.06813150692
 10
-25.4473100201
 20
-7.09005256906
 10
-25.4919054002
 20
-7.11266236256
 10
-25.5361476736
 20
-7.13595553611
 10
-25.580026369
 20
-7.15992657664
 10
-25.623531101
 20
-7.18456981064
 10
-25.6666515729
 20
-7.2098794055
 10
-25.7093775789
 20
-7.23584937091
 10
-25.7516990065
 20
-7.26247356025
 10
-25.793605839
 20
-7.28974567207
 10
-25.8350881577
 20
-7.31765925154
 10
-25.8761361447
 20
-7.34620769205
 10
-25.9167400846
 20
-7.37538423668
 10
-25.9568903672
 20
-7.4051819799
 10
-25.9965774896
 20
-7.43559386912
 10
-26.0357920586
 20
-7.46661270639
 10
-26.0745247929
 20
-7.49823115013
 10
-26.1127665251
 20
-7.53044171683
 10
-26.1505082042
 20
-7.56323678284
 10
-26.1877408972
 20
-7.59660858616
 10
-26.2244557921
 20
-7.63054922831
 10
-26.2606441989
 20
-7.66505067614
 10
-26.2962975526
 20
-7.7001047638
 10
-26.3314074146
 20
-7.73570319462
 10
-26.3659654752
 20
-7.77183754311
 10
-26.399963555
 20
-7.80849925693
 10
-26.4333936073
 20
-7.84567965892
 10
-26.4662477199
 20
-7.88336994916
 10
-26.4985181167
 20
-7.92156120704
 10
-26.53019716
 20
-7.9602443934
 10
-26.5612773519
 20
-7.99941035263
 10
-26.5917513363
 20
-8.03904981486
 10
-26.6216119006
 20
-8.07915339815
 10
-26.6508519772
 20
-8.11971161073
 10
-26.6794646457
 20
-8.16071485321
 10
-26.7074431339
 20
-8.20215342086
 10
-26.7347808198
 20
-8.24401750593
 10
-26.7614712332
 20
-8.28629719996
 10
-26.7875080567
 20
-8.32898249613
 10
-26.8128851281
 20
-8.37206329159
 10
-26.8375964411
 20
-8.41552938992
 10
-26.8616361468
 20
-8.45937050348
 10
-26.8849985556
 20
-8.50357625589
 10
-26.907678138
 20
-8.54813618444
 10
-26.9296695262
 20
-8.59303974262
 10
-26.9509675151
 20
-8.63827630258
 10
-26.9715670641
 20
-8.68383515765
 10
-26.9914632974
 20
-8.72970552488
 10
-27.0106515061
 20
-8.77587654759
 10
-27.0291271486
 20
-8.82233729795
 10
-27.0468858521
 20
-8.86907677955
 10
-27.0639234135
 20
-8.91608393
 10
-27.0802358002
 20
-8.96334762357
 10
-27.0958191514
 20
-9.01085667382
 10
-27.1106697789
 20
-9.05859983621
 10
-27.1247841677
 20
-9.10656581081
 10
-27.1381589772
 20
-9.15474324496
 10
-27.1507910419
 20
-9.20312073593
 10
-27.162677372
 20
-9.25168683365
 10
-27.1738151541
 20
-9.30043004343
 10
-27.1842017523
 20
-9.34933882862
 10
-27.1938347081
 20
-9.39840161343
 10
-27.2027117417
 20
-9.44760678557
 10
-27.2108307519
 20
-9.4969426991
 10
-27.2181898173
 20
-9.54639767709
 10
-27.2247871959
 20
-9.59596001446
 10
-27.2306213264
 20
-9.64561798071
 10
-27.2356908279
 20
-9.69535982271
 10
-27.2399945006
 20
-9.74517376747
 10
-27.2435313258
 20
-9.79504802494
 10
-27.2463004664
 20
-9.84497079079
 10
-27.2483012671
 20
-9.89493024923
 10
-27.2495332543
 20
-9.94491457576
 10
-27.2499961364
 20
-9.99491194
 10
-27.2496898038
 20
-10.0449105085
 10
-27.2486143291
 20
-10.0948984475
 10
-27.2467699668
 20
-10.1448639257
 10
-27.2441571534
 20
-10.1947951174
 10
-27.2407765073
 20
-10.2446802045
 10
-27.2366288287
 20
-10.2945073804
 10
-27.2317150992
 20
-10.3442648517
 10
-27.2260364819
 20
-10.3939408419
 10
-27.2195943207
 20
-10.4435235934
 10
-27.2123901404
 20
-10.493001371
 10
-27.2044256461
 20
-10.5423624642
 10
-27.1957027229
 20
-10.5915951901
 10
-27.1862234352
 20
-10.6406878963
 10
-27.1759900268
 20
-10.6896289633
 10
-27.1650049196
 20
-10.7384068078
 10
-27.1532707136
 20
-10.7870098848
 10
-27.140790186
 20
-10.835426691
 10
-27.1275662909
 20
-10.883645767
 10
-27.1136021581
 20
-10.9316557002
 10
-27.0989010925
 20
-10.9794451275
 10
-27.0834665737
 20
-11.027002738
 10
-27.0673022548
 20
-11.0743172758
 10
-27.0504119615
 20
-11.1213775423
 10
-27.0327996915
 20
-11.1681723993
 10
-27.0144696133
 20
-11.2146907711
 10
-26.9954260652
 20
-11.2609216479
 10
-26.9756735545
 20
-11.3068540876
 10
-26.9552167564
 20
-11.3524772188
 10
-26.9340605125
 20
-11.3977802433
 10
-26.9122098301
 20
-11.4427524389
 10
-26.8896698809
 20
-11.4873831612
 10
-26.8664459997
 20
-11.5316618472
 10
-26.8425436831
 20
-11.5755780169
 10
-26.8179685885
 20
-11.619121276
 10
-26.7927265322
 20
-11.6622813186
 10
-26.7668234886
 20
-11.7050479297
 10
-26.7402655885
 20
-11.7474109871
 10
-26.7130591176
 20
-11.7893604643
 10
-26.6852105153
 20
-11.8308864325
 10
-26.6567263727
 20
-11.8719790634
 10
-26.6276134316
 20
-11.9126286311
 10
-26.5978785825
 20
-11.9528255145
 10
-26.567528863
 20
-11.9925601998
 10
-26.5365714564
 20
-12.0318232826
 10
-26.5050136897
 20
-12.0706054699
 10
-26.472863032
 20
-12.1088975827
 10
-26.440127093
 20
-12.146690558
 10
-26.4068136204
 20
-12.1839754509
 10
-26.3729304992
 20
-12.2207434368
 10
-26.3384857486
 20
-12.2569858132
 10
-26.3034875213
 20
-12.2926940024
 10
-26.2679441006
 20
-12.3278595528
 10
-26.231863899
 20
-12.3624741414
 10
-26.195255456
 20
-12.3965295755
 10
-26.1581274362
 20
-12.4300177949
 10
-26.1204886272
 20
-12.4629308735
 10
-26.0823479372
 20
-12.4952610214
 10
-26.0437143936
 20
-12.5270005866
 10
-26.0045971402
 20
-12.5581420569
 10
-25.9650054353
 20
-12.5886780618
 10
-25.9249486496
 20
-12.6186013739
 10
-25.8844362637
 20
-12.6479049109
 10
-25.8434778662
 20
-12.6765817373
 10
-25.8020831513
 20
-12.7046250656
 10
-25.7602619162
 20
-12.7320282586
 10
-25.7180240594
 20
-12.7587848305
 10
-25.6753795776
 20
-12.7848884484
 10
-25.6323385642
 20
-12.8103329342
 10
-25.5889112061
 20
-12.8351122655
 10
-25.5451077818
 20
-12.8592205775
 10
-25.5009386588
 20
-12.8826521643
 10
-25.456414291
 20
-12.90540148
 10
-25.4115452166
 20
-12.9274631403
 10
-25.3663420553
 20
-12.9488319236
 10
-25.3208155058
 20
-12.9695027723
 10
-25.2749763435
 20
-12.9894707939
 10
-25.2288354176
 20
-13.0087312624
 10
-25.1824036488
 20
-13.0272796192
 10
-25.1356920268
 20
-13.0451114743
 10
-25.0887116072
 20
-13.0622226072
 10
-25.0414735095
 20
-13.0786089679
 10
-24.9939889141
 20
-13.0942666782
 10
-24.9462690598
 20
-13.109192032
 10
-24.8983252408
 20
-13.123381497
 10
-24.8501688047
 20
-13.1368317147
 10
-24.8018111493
 20
-13.1495395016
 10
-24.7532637198
 20
-13.1615018501
 10
-24.7045380066
 20
-13.1727159289
 10
-24.6556455421
 20
-13.1831790838
 10
-24.6065978984
 20
-13.1928888384
 10
-24.557406684
 20
-13.2018428946
 10
-24.5080835418
 20
-13.2100391331
 10
-24.4586401454
 20
-13.217475614
 10
-24.4090881973
 20
-13.2241505772
 10
-24.3594394256
 20
-13.2300624429
 10
-24.3097055812
 20
-13.2352098119
 10
-24.2598984351
 20
-13.2395914658
 10
-24.2100297758
 20
-13.2432063677
 10
-24.1601114064
 20
-13.2460536619
 10
-24.1101551416
 20
-13.2481326745
 10
-24.060172805
 20
-13.2494429135
 10
-24.0101762267
 20
-13.2499840687
 10
-23.9601772399
 20
-13.2497560121
 10
-23.9101876785
 20
-13.2487587977
 10
-23.860219374
 20
-13.2469926614
 10
-23.8102841531
 20
-13.2444580213
 10
-23.7603938344
 20
-13.2411554773
 10
-23.7105602262
 20
-13.2370858111
 10
-23.6607951231
 20
-13.2322499858
 10
-23.6111103037
 20
-13.226649146
 10
-23.5615175273
 20
-13.2202846173
 10
-23.5120285318
 20
-13.2131579062
 10
-23.4626550302
 20
-13.2052706992
 10
-23.4134087084
 20
-13.1966248633
 10
-23.3643012221
 20
-13.1872224447
 10
-23.315344194
 20
-13.1770656688
 10
-23.2665492115
 20
-13.1661569396
 10
-23.2179278235
 20
-13.1544988388
 10
-23.1694915376
 20
-13.1420941259
 10
-23.121251818
 20
-13.1289457367
 10
-23.073220082
 20
-13.1150567832
 10
-23.0254076979
 20
-13.1004305527
 10
-22.977825982
 20
-13.085070507
 10
-22.9304861961
 20
-13.0689802815
 10
-22.8833995445
 20
-13.0521636844
 10
-22.8365771719
 20
-13.034624696
 10
-22.7900301603
 20
-13.0163674674
 10
-22.7437695264
 20
-12.9973963197
 10
-22.6978062193
 20
-12.9777157432
 10
-22.6521511177
 20
-12.9573303957
 10
-22.6068150274
 20
-12.9362451022
 10
-22.5618086785
 20
-12.9144648531
 10
-22.5171427232
 20
-12.8919948035
 10
-22.4728277332
 20
-12.8688402715
 10
-22.428874197
 20
-12.8450067375
 10
-22.3852925175
 20
-12.8204998424
 10
-22.3420930098
 20
-12.7953253866
 10
-22.2992858985
 20
-12.7694893283
 10
-22.2568813151
 20
-12.7429977825
 10
-22.2148892961
 20
-12.7158570193
 10
-22.1733197801
 20
-12.6880734623
 10
-22.1321826061
 20
-12.6596536875
 10
-22.0914875102
 20
-12.6306044213
 10
-22.0512441245
 20
-12.6009325391
 10
-22.0114619736
 20
-12.5706450637
 10
-21.9721504734
 20
-12.5397491636
 10
-21.9333189282
 20
-12.5082521513
 10
-21.8949765286
 20
-12.4761614816
 10
-21.8571323496
 20
-12.4434847497
 10
-21.8197953483
 20
-12.4102296896
 10
-21.7829743615
 20
-12.3764041722
 10
-21.7466781043
 20
-12.3420162034
 10
-21.7109151671
 20
-12.3070739221
 10
-21.6756940146
 20
-12.2715855987
 10
-21.6410229828
 20
-12.2355596324
 10
-21.6069102778
 20
-12.19900455
 10
-21.5733639734
 20
-12.1619290034
 10
-21.5403920095
 20
-12.1243417678
 10
-21.5080021898
 20
-12.0862517393
 10
-21.4762021805
 20
-12.0476679331
 10
-21.444999508
 20
-12.0085994814
 10
-21.4144015575
 20
-11.9690556309
 10
-21.3844155708
 20
-11.9290457409
 10
-21.3550486453
 20
-11.888579281
 10
-21.3263077314
 20
-11.8476658289
 10
-21.2981996316
 20
-11.8063150681
 10
-21.2707309987
 20
-11.7645367856
 10
-21.2439083338
 20
-11.7223408694
 10
-21.2177379855
 20
-11.6797373067
 10
-21.1922261478
 20
-11.6367361808
 10
-21.1673788589
 20
-11.5933476694
 10
-21.1432019996
 20
-11.5495820417
 10
-21.1197012923
 20
-11.5054496562
 10
-21.096882299
 20
-11.4609609584
 10
-21.0747504206
 20
-11.4161264778
 10
-21.0533108954
 20
-11.3709568259
 10
-21.0325687977
 20
-11.3254626936
 10
-21.0125290367
 20
-11.2796548485
 10
-20.9931963556
 20
-11.2335441325
 10
-20.9745753299
 20
-11.1871414592
 10
-20.956670367
 20
-11.1404578112
 10
-20.9394857046
 20
-11.0935042376
 10
-20.92302541
 20
-11.0462918516
 10
-20.9072933791
 20
-10.9988318274
 10
-20.8922933353
 20
-10.951135398
 10
-20.878028829
 20
-10.9032138522
 10
-20.8645032362
 20
-10.8550785323
 10
-20.8517197581
 20
-10.8067408308
 10
-20.8396814205
 20
-10.7582121886
 10
-20.8283910726
 20
-10.7095040914
 10
-20.8178513866
 20
-10.6606280675
 10
-20.808064857
 20
-10.611595685
 10
-20.7990338002
 20
-10.5624185491
 10
-20.7907603535
 20
-10.5131082989
 10
-20.7832464753
 20
-10.4636766054
 10
-20.7764939439
 20
-10.4141351681
 10
-20.7705043574
 20
-10.3644957125
 10
-20.7652791336
 20
-10.3147699875
 10
-20.7608195091
 20
-10.2649697622
 10
-20.7571265394
 20
-10.2151068234
 10
-20.7542010987
 20
-10.1651929728
 10
-20.7520438792
 20
-10.115240024
 10
-20.7506553917
 20
-10.0652598
 10
-20.7500359646
 20
-10.0152641301
 10
-20.7501857446
 20
-9.96526484757
 10
-20.7511046963
 20
-9.91527378619
 10
-20.7527926022
 20
-9.86530277795
 10
-20.7552490628
 20
-9.81536365008
 10
-20.7584734966
 20
-9.76546822226
 10
-20.7624651405
 20
-9.71562830382
 10
-20.7672230498
 20
-9.66585569097
 10
-20.7727460983
 20
-9.61616216397
 10
-20.7790329788
 20
-9.56655948437
 10
-20.7860822034
 20
-9.51705939221
 10
-20.7938921037
 20
-9.46767360327
 10
-20.8024608311
 20
-9.41841380626
 10
-20.8117863576
 20
-9.36929166008
 10
-20.821866476
 20
-9.32031879102
 10
-20.8326988006
 20
-9.27150679009
 10
-20.8442807675
 20
-9.22286721018
 10
-20.8566096355
 20
-9.17441156341
 10
-20.8696824865
 20
-9.12615131832
 10
-20.8834962266
 20
-9.07809789724
 10
-20.8980475861
 20
-9.03026267355
 10
-20.9133331211
 20
-8.98265696895
 10
-20.9293492138
 20
-8.93529205085
 10
-20.9460920734
 20
-8.88817912967
 10
-20.9635577372
 20
-8.84132935616
 10
-20.9817420715
 20
-8.79475381882
 10
-21.0006407722
 20
-8.74846354122
 10
-21.0202493665
 20
-8.70246947942
 10
-21.0405632134
 20
-8.65678251938
 10
-21.0615775048
 20
-8.61141347437
 10
-21.0832872672
 20
-8.56637308241
 10
-21.1056873622
 20
-8.52167200373
 10
-21.1287724881
 20
-8.47732081827
 10
-21.1525371811
 20
-8.43333002315
 10
-21.1769758166
 20
-8.38971003017
 10
-21.2020826103
 20
-8.34647116339
 10
-21.22785162
 20
-8.30362365667
 10
-21.2542767465
 20
-8.26117765122
 10
-21.2813517356
 20
-8.21914319324
 10
-21.309070179
 20
-8.17753023152
 10
-21.3374255164
 20
-8.13634861508
 10
-21.3664110365
 20
-8.09560809086
 10
-21.3960198791
 20
-8.05531830139
 10
-21.4262450361
 20
-8.01548878254
 10
-21.4570793539
 20
-7.97612896122
 10
-21.4885155347
 20
-7.93724815319
 10
-21.5205461379
 20
-7.89885556081
 10
-21.5531635825
 20
-7.86096027092
 10
-21.5863601486
 20
-7.82357125264
 10
-21.6201279792
 20
-7.78669735525
 10
-21.654459082
 20
-7.75034730616
 10
-21.6893453316
 20
-7.71452970873
 10
-21.7247784708
 20
-7.67925304035
 10
-21.7607501135
 20
-7.64452565036
 10
-21.7972517457
 20
-7.61035575809
 10
-21.8342747282
 20
-7.57675145094
 10
-21.8718102982
 20
-7.54372068243
 10
-21.909849572
 20
-7.51127127033
 10
-21.9483835461
 20
-7.47941089484
 10
-21.9874031004
 20
-7.44814709672
 10
-22.0268989997
 20
-7.41748727554
 10
-22.0668618959
 20
-7.38743868792
 10
-22.1072823305
 20
-7.35800844581
 10
-22.1481507369
 20
-7.32920351481
 10
-22.1894574422
 20
-7.30103071252
 10
-22.2311926699
 20
-7.27349670693
 10
-22.2733465419
 20
-7.24660801483
 10
-22.3159090813
 20
-7.22037100029
 10
-22.3588702142
 20
-7.19479187314
 10
-22.4022197726
 20
-7.16987668747
 10
-22.4459474965
 20
-7.14563134026
 10
-22.4900430361
 20
-7.12206156994
 10
-22.534495955
 20
-7.09917295505
 10
-22.579295732
 20
-7.07697091289
 10
-22.6244317637
 20
-7.0554606983
 10
-22.6698933673
 20
-7.03464740234
 10
-22.7156697828
 20
-7.01453595113
 10
-22.7617501759
 20
-6.9951311047
 10
-22.8081236401
 20
-6.97643745582
 10
-22.8547791997
 20
-6.95845942892
 10
-22.9017058121
 20
-6.94120127909
 10
-22.9488923708
 20
-6.924667091
 10
-22.9963277074
 20
-6.90886077801
 10
-23.0440005949
 20
-6.89378608117
 10
-23.0918997501
 20
-6.87944656839
 10
-23.140013836
 20
-6.86584563357
 10
-23.1883314649
 20
-6.8529864958
 10
-23.236841201
 20
-6.84087219861
 10
-23.2855315628
 20
-6.82950560922
 10
-23.3343910263
 20
-6.81888941791
 10
-23.3834080273
 20
-6.80902613733
 10
-23.4325709644
 20
-6.79991810194
 10
-23.4818682016
 20
-6.79156746745
 10
-23.5312880711
 20
-6.78397621029
 10
-23.5808188762
 20
-6.77714612718
 10
-23.6304488939
 20
-6.77107883468
 10
-23.6801663776
 20
-6.7657757688
 10
-23.7299595601
 20
-6.76123818467
 10
-23.7798166562
 20
-6.75746715628
 10
-23.8297258657
 20
-6.75446357614
 10
-23.8796753761
 20
-6.75222815515
 10
-23.9296533651
 20
-6.7507614224
 10
-23.9796480039
 20
-6.75006372502
  0
LWPOLYLINE
  5
87A
330
2A
100
AcDbEntity
  8
0
 62
     0
100
AcDbPolyline
 90
       20
 70
     0
 43
0.0
 10
-17.2223196894
 20
-4.82085261646
 10
-17.2229743506
 20
-4.87084451846
 10
-17.2258334423
 20
-4.92075839206
 10
-17.2310252193
 20
-4.97048326035
 10
-17.2386678258
 20
-5.01989029362
 10
-17.2488630541
 20
-5.06883384181
 10
-17.2616896632
 20
-5.11715408514
 10
-17.2771969356
 20
-5.16468149737
 10
-17.2953993334
 20
-5.21124304018
 10
-17.3162731454
 20
-5.25666964773
 10
-17.3397558252
 20
-5.30080421327
 10
-17.3657483083
 20
-5.34350907776
 10
-17.3941200733
 20
-5.38467204095
 10
-17.4247162283
 20
-5.42421018155
 10
-17.4573656155
 20
-5.46207120198
 10
-17.4918888948
 20
-5.49823246097
 10
-17.5281057668
 20
-5.53269819438
 10
-17.5658408112
 20
-5.56549558439
 10
-17.6049277457
 20
-5.59667032783
 10
-17.6269409048
 20
-5.61314276032
  0
LWPOLYLINE
  5
890
330
2A
100
AcDbEntity
  8
0
 62
     0
100
AcDbPolyline
 90
       35
 70
     0
 43
0.0
 10
-18.3177150517
 20
-3.78465620637
 10
-18.2677206042
 20
-3.78517476943
 10
-18.2177812842
 20
-3.78757475211
 10
-18.167972833
 20
-3.79191009707
 10
-18.1183774162
 20
-3.79823091724
 10
-18.0690835131
 20
-3.80658257607
 10
-18.0201856748
 20
-3.81700473775
 10
-17.9717841384
 20
-3.82953041155
 10
-17.9239842916
 20
-3.84418501822
 10
-17.876895985
 20
-3.86098550945
 10
-17.8306326974
 20
-3.87993957264
 10
-17.7853105671
 20
-3.90104495296
 10
-17.7410473082
 20
-3.92428892168
 10
-17.6979610377
 20
-3.94964791555
 10
-17.656169045
 20
-3.97708736513
 10
-17.6157865379
 20
-4.00656172215
 10
-17.5769254002
 20
-4.03801468752
 10
-17.5396929969
 20
-4.07137963297
 10
-17.5041910564
 20
-4.10658020136
 10
-17.4705146584
 20
-4.14353106463
 10
-17.438751346
 20
-4.18213881333
 10
-17.4089803788
 20
-4.22230294925
 10
-17.3812721333
 20
-4.26391695176
 10
-17.3556876539
 20
-4.3068693894
 10
-17.3322783521
 20
-4.35104505015
 10
-17.3110858472
 20
-4.39632606702
 10
-17.2921419415
 20
-4.44259301851
 10
-17.2754687178
 20
-4.48972598719
 10
-17.2610787493
 20
-4.53760556232
 10
-17.2489754094
 20
-4.58611377558
 10
-17.2391532704
 20
-4.63513496109
 10
-17.2315985779
 20
-4.68455653303
 10
-17.2262897907
 20
-4.73426967588
 10
-17.223198173
 20
-4.78416994399
 10
-17.2223196894
 20
-4.82085261646
  0
LWPOLYLINE
  5
8B5
330
2A
100
AcDbEntity
  8
0
 62
     0
100
AcDbPolyline
 90
       35
 70
     0
 43
0.0
 10
-19.3982488729
 20
-4.83840791396
 10
-19.3975663576
 20
-4.78841652976
 10
-19.3946855111
 20
-4.73850370852
 10
-19.389571207
 20
-4.68877023951
 10
-19.3821950766
 20
-4.63932175849
 10
-19.3725361432
 20
-4.5902682091
 10
-19.360581409
 20
-4.5417232106
 10
-19.3463263839
 20
-4.49380333474
 10
-19.3297755442
 20
-4.44662729629
 10
-19.3109427076
 20
-4.4003150634
 10
-19.2898513156
 20
-4.35498689569
 10
-19.2665346086
 20
-4.31076232012
 10
-19.2410356864
 20
-4.26775905712
 10
-19.21340744
 20
-4.22609191187
 10
-19.1837123489
 20
-4.18587164882
 10
-19.1520221345
 20
-4.14720387057
 10
-19.1184172667
 20
-4.11018792486
 10
-19.0829863228
 20
-4.0749158663
 10
-19.0458252041
 20
-4.04147150067
 10
-19.0070362182
 20
-4.00992953996
 10
-18.9667270461
 20
-3.98035489512
 10
-18.9250096134
 20
-3.95280212997
 10
-18.8819988948
 20
-3.92731509511
 10
-18.8378116825
 20
-3.90392675375
 10
-18.7925653527
 20
-3.88265920386
 10
-18.7463766644
 20
-3.86352389274
 10
-18.699360623
 20
-3.84652201186
 10
-18.651629438
 20
-3.83164505293
 10
-18.6032915972
 20
-3.81887549992
 10
-18.5544510761
 20
-3.80818762815
 10
-18.5052066918
 20
-3.79954837931
 10
-18.4556516044
 20
-3.79291828148
 10
-18.405872965
 20
-3.78825238458
 10
-18.3559516998
 20
-3.78550118538
 10
-18.3177150517
 20
-3.78465620637
  0
LWPOLYLINE
  5
8DA
330
2A
100
AcDbEntity
  8
0
 62
     0
100
AcDbPolyline
 90
       20
 70
     0
 43
0.0
 10
-18.9799210753
 20
-5.62105844505
 10
-19.0206605886
 20
-5.59207768836
 10
-19.060044297
 20
-5.56128038102
 10
-19.097919466
 20
-5.52864636984
 10
-19.1341258385
 20
-5.4941708485
 10
-19.1684989967
 20
-5.45786787377
 10
-19.2008748785
 20
-5.41977348388
 10
-19.2310953302
 20
-5.37994798271
 10
-19.2590143726
 20
-5.33847694016
 10
-19.2845046517
 20
-5.29547054326
 10
-19.3074633908
 20
-5.25106112337
 10
-19.3278171298
 20
-5.20539895693
 10
-19.3455246568
 20
-5.15864672619
 10
-19.3605777982
 20
-5.1109732515
 10
-19.3730000636
 20
-5.06254720106
 10
-19.3828434618
 20
-5.01353142782
 10
-19.3901840196
 20
-4.96407840534
 10
-19.3951166222
 20
-4.9143269995
 10
-19.3977497473
 20
-4.86440058825
 10
-19.3982488729
 20
-4.83840791396
  0
LWPOLYLINE
  5
8F0
330
2A
100
AcDbEntity
  8
0
 62
     0
100
AcDbPolyline
 90
       15
 70
     0
 43
0.0
 10
-19.170256293
 20
-4.83656848022
 10
-19.1680005106
 20
-4.88650608378
 10
-19.1620434291
 20
-4.93613834676
 10
-19.1524199006
 20
-4.98519181376
 10
-19.1391997212
 20
-5.03340069468
 10
-19.1224808404
 20
-5.08051085307
 10
-19.1023820856
 20
-5.12628144774
 10
-19.0790363001
 20
-5.17048436756
 10
-19.0525845688
 20
-5.21290182309
 10
-19.0231719642
 20
-5.2533225569
 10
-18.9909450441
 20
-5.29153713915
 10
-18.9560512118
 20
-5.32733277812
 10
-18.9186399982
 20
-5.36048804673
 10
-18.8788663355
 20
-5.39076794976
 10
-18.8576596646
 20
-5.4050650483
  0
LWPOLYLINE
  5
901
330
2A
100
AcDbEntity
  8
0
 62
     0
100
AcDbPolyline
 90
       27
 70
     0
 43
0.0
 10
-18.315585181
 20
-4.04864761466
 10
-18.3655574687
 20
-4.05017795457
 10
-18.415405668
 20
-4.05401176166
 10
-18.465013829
 20
-4.06021978948
 10
-18.5142551074
 20
-4.068866908
 10
-18.5629917411
 20
-4.08001062548
 10
-18.6110752209
 20
-4.09369951251
 10
-18.6583466869
 20
-4.10997154773
 10
-18.7046375834
 20
-4.12885241016
 10
-18.7497706053
 20
-4.15035374969
 10
-18.7935609692
 20
-4.17447147448
 10
-18.8358180395
 20
-4.20118410385
 10
-18.8763473372
 20
-4.23045124629
 10
-18.9149529502
 20
-4.26221227611
 10
-18.9514403483
 20
-4.29638529681
 10
-18.9856195858
 20
-4.33286649332
 10
-19.0173088401
 20
-4.37152998525
 10
-19.046338196
 20
-4.41222829436
 10
-19.072553536
 20
-4.45479352734
 10
-19.0958203507
 20
-4.49903934379
 10
-19.1160272447
 20
-4.5447637292
 10
-19.1330888927
 20
-4.59175252376
 10
-19.1469482093
 20
-4.63978357988
 10
-19.157577541
 20
-4.68863134502
 10
-19.1649787599
 20
-4.73807160778
 10
-19.169182238
 20
-4.787886116
 10
-19.170256293
 20
-4.83656848022
  0
LWPOLYLINE
  5
91E
330
2A
100
AcDbEntity
  8
0
 62
     0
100
AcDbPolyline
 90
       27
 70
     0
 43
0.0
 10
-17.4493123018
 20
-4.82268398252
 10
-17.4512742762
 20
-4.77273067492
 10
-17.4563989475
 20
-4.72300261912
 10
-17.4647353902
 20
-4.67371153872
 10
-17.4763050615
 20
-4.62507799789
 10
-17.4911001321
 20
-4.57732694026
 10
-17.5090829487
 20
-4.5306829409
 10
-17.5301866583
 20
-4.48536547962
 10
-17.5543169145
 20
-4.44158453041
 10
-17.5813544893
 20
-4.3995367113
 10
-17.6111585533
 20
-4.35940216076
 10
-17.6435703614
 20
-4.32134221991
 10
-17.6784170943
 20
-4.28549791901
 10
-17.7155156439
 20
-4.25198920376
 10
-17.7546761843
 20
-4.2209147976
 10
-17.795705423
 20
-4.19235257882
 10
-17.8384094782
 20
-4.16636035243
 10
-17.8825963645
 20
-4.14297690937
 10
-17.9280780957
 20
-4.12222328404
 10
-17.9746724302
 20
-4.10410414056
 10
-18.0222042887
 20
-4.08860923541
 10
-18.0705068771
 20
-4.0757149175
 10
-18.1194225455
 20
-4.06538563672
 10
-18.1688034104
 20
-4.05757543822
 10
-18.2185117658
 20
-4.05222942354
 10
-18.2684203042
 20
-4.04928516233
 10
-18.315585181
 20
-4.04864761466
  0
LWPOLYLINE
  5
93B
330
2A
100
AcDbEntity
  8
0
 62
     0
100
AcDbPolyline
 90
       15
 70
     0
 43
0.0
 10
-17.7526956261
 20
-5.39615024878
 10
-17.7120339063
 20
-5.36707488374
 10
-17.6737157026
 20
-5.33497320766
 10
-17.6379168945
 20
-5.30008357754
 10
-17.6048000694
 20
-5.26263835799
 10
-17.5745180271
 20
-5.22286545132
 10
-17.547215782
 20
-5.18099084642
 10
-17.5230309811
 20
-5.13724164658
 10
-17.5020927485
 20
-5.09184908714
 10
-17.4845190462
 20
-5.04505108193
 10
-17.4704127586
 20
-4.99709386009
 10
-17.4598568505
 20
-4.94823229962
 10
-17.4529091077
 20
-4.89872865987
 10
-17.4495971161
 20
-4.84884958386
 10
-17.4493123018
 20
-4.82268398252
  0
LWPOLYLINE
  5
94C
330
2A
100
AcDbEntity
  8
0
 62
     0
100
AcDbPolyline
 90
       27
 70
     0
 43
0.0
 10
-18.2456060218
 20
-12.7223653249
 10
-18.195630073
 20
-12.7209342439
 10
-18.1457590794
 20
-12.7173987234
 10
-18.0960908503
 20
-12.7116845011
 10
-18.0467342968
 20
-12.7037169435
 10
-17.9978106105
 20
-12.6934219676
 10
-17.9494544594
 20
-12.6807273039
 10
-17.9018151319
 20
-12.6655641833
 10
-17.8550575169
 20
-12.6478695323
 10
-17.8093627647
 20
-12.6275887528
 10
-17.7649284187
 20
-12.6046791372
 10
-17.7219677518
 20
-12.5791139119
 10
-17.680708003
 20
-12.5508868144
 10
-17.6413872015
 20
-12.520016976
 10
-17.6042493213
 20
-12.4865537202
 10
-17.5695376544
 20
-12.450580714
 10
-17.5374865404
 20
-12.4122187781
 10
-17.5083119241
 20
-12.3716266349
 10
-17.4822015712
 20
-12.3289990105
 10
-17.4593060448
 20
-12.2845618349
 10
-17.439731621
 20
-12.2385647566
 10
-17.4235361216
 20
-12.1912716881
 10
-17.4107281942
 20
-12.1429504723
 10
-17.4012699901
 20
-12.093862885
 10
-17.395082652
 20
-12.0442560383
 10
-17.3920536739
 20
-11.9943558891
 10
-17.3917089819
 20
-11.9624516158
  0
LWPOLYLINE
  5
969
330
2A
100
AcDbEntity
  8
0
 62
     0
100
AcDbPolyline
 90
       27
 70
     0
 43
0.0
 10
-19.1126529731
 20
-11.9763361135
 10
-19.1107740866
 20
-12.0262934006
 10
-19.1058475768
 20
-12.0760418888
 10
-19.0977442852
 20
-12.125371817
 10
-19.0863626996
 20
-12.1740492403
 10
-19.0716370589
 20
-12.2218208088
 10
-19.0535443997
 20
-12.2684209219
 10
-19.0321094882
 20
-12.3135808924
 10
-19.0074067391
 20
-12.3570393135
 10
-18.9795586172
 20
-12.3985524831
 10
-18.9487305978
 20
-12.4379036424
 10
-18.9151233393
 20
-12.4749099696
 10
-18.8789631399
 20
-12.5094266979
 10
-18.8404918967
 20
-12.5413482535
 10
-18.7999576575
 20
-12.5706067734
 10
-18.7576065413
 20
-12.5971686649
 10
-18.7136764301
 20
-12.6210299672
 10
-18.6683925018
 20
-12.6422112175
 10
-18.6219644397
 20
-12.6607523661
 10
-18.5745850251
 20
-12.6767081047
 10
-18.5264297831
 20
-12.6901438053
 10
-18.477657371
 20
-12.7011321377
 10
-18.4284104436
 20
-12.7097503524
 10
-18.3788167949
 20
-12.7160781614
 10
-18.3289906235
 20
-12.7201961331
 10
-18.2790338239
 20
-12.7221845085
 10
-18.2456060218
 20
-12.7223653249
  0
LWPOLYLINE
  5
986
330
2A
100
AcDbEntity
  8
0
 62
     0
100
AcDbPolyline
 90
       27
 70
     0
 43
0.0
 10
-17.3917089819
 20
-11.9624516158
 10
-17.39358128
 20
-11.9124940183
 10
-17.3984900051
 20
-11.8627437208
 10
-17.4065675354
 20
-11.813409531
 10
-17.417918763
 20
-11.7647249991
 10
-17.4326127247
 20
-11.7169436741
 10
-17.4506752678
 20
-11.6703318932
 10
-17.4720838577
 20
-11.6251594667
 10
-17.4967654854
 20
-11.5816890852
 10
-17.5245982182
 20
-11.5401656408
 10
-17.5554163287
 20
-11.5008067659
 10
-17.589018322
 20
-11.4637956991
 10
-17.6251767363
 20
-11.4292771343
 10
-17.663648438
 20
-11.397356155
 10
-17.704184275
 20
-11.3680998618
 10
-17.7465372847
 20
-11.3415409927
 10
-17.7904690526
 20
-11.3176827357
 10
-17.8357541648
 20
-11.2965040069
 10
-17.8821829403
 20
-11.2779646343
 10
-17.929562757
 20
-11.2620100835
 10
-17.9777183179
 20
-11.2485755316
 10
-18.0264911817
 20
-11.2375892317
 10
-18.0757388278
 20
-11.2289751908
 10
-18.1253334608
 20
-11.2226552357
 10
-18.175160706
 20
-11.2185505602
 10
-18.2251182947
 20
-11.216582849
 10
-18.2577559657
 20
-11.2164143367
  0
LWPOLYLINE
  5
9A3
330
2A
100
AcDbEntity
  8
0
 62
     0
100
AcDbPolyline
 90
       27
 70
     0
 43
0.0
 10
-18.2577559657
 20
-11.2164143367
 10
-18.3077328185
 20
-11.2178196627
 10
-18.3576091737
 20
-11.2212810834
 10
-18.4072908812
 20
-11.2268782529
 10
-18.456672146
 20
-11.2346920493
 10
-18.5056341841
 20
-11.2448036153
 10
-18.5540438484
 20
-11.2572930134
 10
-18.6017523064
 20
-11.2722373972
 10
-18.6485938971
 20
-11.2897086019
 10
-18.6943853448
 20
-11.3097700614
 10
-18.7389255788
 20
-11.3324729983
 10
-18.781996462
 20
-11.3578518959
 10
-18.8233647828
 20
-11.3859193749
 10
-18.8627858618
 20
-11.4166607555
 10
-18.9000090433
 20
-11.4500287799
 10
-18.934785158
 20
-11.4859391675
 10
-18.9668757275
 20
-11.5242678086
 10
-18.9960632873
 20
-11.5648503945
 10
-19.0221618084
 20
-11.6074850747
 10
-19.0450259379
 20
-11.6519382983
 10
-19.0645577848
 20
-11.6979534376
 10
-19.0807103011
 20
-11.7452612474
 10
-19.0934868804
 20
-11.7935908754
 10
-19.1029374576
 20
-11.8426801038
 10
-19.1091519247
 20
-11.892283775
 10
-19.1122519681
 20
-11.9421798044
 10
-19.1126529731
 20
-11.9763361135
  0
LWPOLYLINE
  5
9C0
330
2A
100
AcDbEntity
  8
0
 62
     0
100
AcDbPolyline
 90
      189
 70
     1
 43
0.0
 10
-23.9999998212
 20
-8.5
 10
-24.0499905624
 20
-8.50083325618
 10
-24.0999257636
 20
-8.50333209895
 10
-24.1497499462
 20
-8.50749375208
 10
-24.1994077551
 20
-8.51331359195
 10
-24.2488440202
 20
-8.52078515266
 10
-24.2980038174
 20
-8.52990013324
 10
-24.3468325296
 20
-8.54064840688
 10
-24.3952759079
 20
-8.55301803215
 10
-24.4432801312
 20
-8.56699526631
 10
-24.4907918664
 20
-8.58256458053
 10
-24.5377583276
 20
-8.59970867717
 10
-24.5841273346
 20
-8.618408509
 10
-24.6298473712
 20
-8.63864330035
 10
-24.674867642
 20
-8.6603905702
 10
-24.7191381291
 20
-8.68362615716
 10
-24.7626096476
 20
-8.70832424631
 10
-24.8052339003
 20
-8.73445739784
 10
-24.8469635313
 20
-8.76199657764
 10
-24.8877521786
 20
-8.79091118942
 10
-24.9275545258
 20
-8.82116910883
 10
-24.966326352
 20
-8.85273671907
 10
-25.0040245816
 20
-8.88557894826
 10
-25.0406073313
 20
-8.91965930842
 10
-25.0760339575
 20
-8.95493993598
 10
-25.110265101
 20
-8.99138163388
 10
-25.1432627306
 20
-9.02894391508
 10
-25.1749901856
 20
-9.06758504759
 10
-25.2054122167
 20
-9.1072621008
 10
-25.2344950247
 20
-9.14793099316
 10
-25.2622062984
 20
-9.1895465412
 10
-25.2885152503
 20
-9.23206250971
 10
-25.3133926509
 20
-9.27543166309
 10
-25.3368108613
 20
-9.31960581786
 10
-25.3587438636
 20
-9.36453589617
 10
-25.3791672901
 20
-9.41017198034
 10
-25.3980584501
 20
-9.45646336828
 10
-25.4153963556
 20
-9.50335862991
 10
-25.4311617438
 20
-9.55080566418
 10
-25.4453370993
 20
-9.59875175706
 10
-25.4579066732
 20
-9.64714364005
 10
-25.4688565006
 20
-9.69592754935
 10
-25.4781744162
 20
-9.74504928565
 10
-25.4858500676
 20
-9.79445427429
 10
-25.4918749271
 20
-9.84408762593
 10
-25.4962423011
 20
-9.8938941975
 10
-25.4989473374
 20
-9.94381865349
 10
-25.4999870306
 20
-9.99380552741
 10
-25.4993602257
 20
-10.0437992835
 10
-25.4970676191
 20
-10.0937443781
 10
-25.4931117578
 20
-10.143585322
 10
-25.4874970369
 20
-10.1932667414
 10
-25.4802296943
 20
-10.2427334399
 10
-25.4713178041
 20
-10.2919304596
 10
-25.4607712675
 20
-10.340803142
 10
-25.4486018018
 20
-10.3892971894
 10
-25.4348229274
 20
-10.4373587244
 10
-25.4194499527
 20
-10.4849343503
 10
-25.4024999572
 20
-10.5319712101
 10
-25.3839917726
 20
-10.5784170455
 10
-25.3639459614
 20
-10.6242202548
 10
-25.3423847949
 20
-10.6693299503
 10
-25.3193322276
 20
-10.7136960147
 10
-25.2948138712
 20
-10.7572691569
 10
-25.2688569656
 20
-10.8000009669
 10
-25.2414903494
 20
-10.8418439692
 10
-25.2127444269
 20
-10.8827516759
 10
-25.1826511352
 20
-10.9226786382
 10
-25.1512439082
 20
-10.961580497
 10
-25.1185576395
 20
-10.9994140319
 10
-25.0846286438
 20
-11.0361372096
 10
-25.0494946166
 20
-11.0717092304
 10
-25.013194592
 20
-11.1060905733
 10
-24.9757688997
 20
-11.1392430405
 10
-24.9372591199
 20
-11.1711297994
 10
-24.8977080373
 20
-11.2017154233
 10
-24.8571595935
 20
-11.2309659316
 10
-24.8156588382
 20
-11.2588488265
 10
-24.7732518789
 20
-11.2853331301
 10
-24.7299858303
 20
-11.3103894179
 10
-24.6859087611
 20
-11.3339898523
 10
-24.6410696415
 20
-11.356108213
 10
-24.5955182881
 20
-11.3767199263
 10
-24.5493053087
 20
-11.3958020925
 10
-24.5024820464
 20
-11.413333511
 10
-24.4551005222
 20
-11.4292947044
 10
-24.4072133774
 20
-11.4436679395
 10
-24.358873815
 20
-11.4564372477
 10
-24.3101355406
 20
-11.4675884421
 10
-24.2610527029
 20
-11.4771091337
 10
-24.2116798333
 20
-11.4849887449
 10
-24.1620717854
 20
-11.4912185213
 10
-24.1122836743
 20
-11.4957915417
 10
-24.0623708148
 20
-11.4987027254
 10
-24.0123886607
 20
-11.499948838
 10
-23.9623927425
 20
-11.4995284951
 10
-23.912438606
 20
-11.4974421637
 10
-23.8625817508
 20
-11.4936921617
 10
-23.8128775682
 20
-11.4882826554
 10
-23.76338128
 20
-11.4812196549
 10
-23.7141478769
 20
-11.4725110071
 10
-23.6652320576
 20
-11.4621663874
 10
-23.6166881681
 20
-11.4501972889
 10
-23.5685701411
 20
-11.4366170092
 10
-23.5209314359
 20
-11.4214406362
 10
-23.4738249797
 20
-11.4046850309
 10
-23.427303108
 20
-11.386368809
 10
-23.3814175071
 20
-11.36651232
 10
-23.3362191562
 20
-11.3451376245
 10
-23.2917582712
 20
-11.32226847
 10
-23.2480842483
 20
-11.2979302644
 10
-23.2052456098
 20
-11.2721500476
 10
-23.1632899498
 20
-11.2449564615
 10
-23.1222638814
 20
-11.2163797187
 10
-23.0822129848
 20
-11.1864515679
 10
-23.0431817569
 20
-11.1552052596
 10
-23.0052135618
 20
-11.1226755088
 10
-22.9683505824
 20
-11.0888984563
 10
-22.9326337738
 20
-11.0539116286
 10
-22.8981028177
 20
-11.0177538964
 10
-22.8647960782
 20
-10.9804654313
 10
-22.8327505595
 20
-10.942087661
 10
-22.8020018642
 20
-10.9026632235
 10
-22.7725841546
 20
-10.8622359198
 10
-22.7445301139
 20
-10.8208506649
 10
-22.7178709103
 20
-10.7785534381
 10
-22.6926361626
 20
-10.735391232
 10
-22.6688539066
 20
-10.6914120002
 10
-22.6465505647
 20
-10.646664604
 10
-22.6257509161
 20
-10.6011987581
 10
-22.6064780693
 20
-10.5550649754
 10
-22.5887534366
 20
-10.508314511
 10
-22.5725967104
 20
-10.460999305
 10
-22.5580258407
 20
-10.4131719249
 10
-22.545057016
 20
-10.3648855074
 10
-22.5337046447
 20
-10.3161936991
 10
-22.5239813394
 20
-10.2671505971
 10
-22.5158979029
 20
-10.2178106885
 10
-22.5094633157
 20
-10.1682287904
 10
-22.5046847269
 20
-10.1184599888
 10
-22.5015674455
 20
-10.0685595771
 10
-22.5001149348
 20
-10.0185829952
 10
-22.5003288086
 20
-9.96858576742
 10
-22.5022088292
 20
-9.91862344112
 10
-22.5057529079
 20
-9.86875152484
 10
-22.5109571073
 20
-9.8190254267
 10
-22.5178156454
 20
-9.7695003928
 10
-22.5263209022
 20
-9.72023144587
 10
-22.5364634286
 20
-9.6712733241
 10
-22.5482319558
 20
-9.62268042037
 10
-22.5616134092
 20
-9.57450672181
 10
-22.5765929217
 20
-9.52680574978
 10
-22.593153851
 20
-9.47963050045
 10
-22.6112777977
 20
-9.43303338593
 10
-22.630944626
 20
-9.38706617598
 10
-22.652132486
 20
-9.34177994056
 10
-22.6748178376
 20
-9.29722499305
 10
-22.6989754773
 20
-9.25345083435
 10
-22.7245785658
 20
-9.21050609793
 10
-22.7515986579
 20
-9.16843849573
 10
-22.7800057338
 20
-9.12729476521
 10
-22.8097682333
 20
-9.08712061739
 10
-22.8408530899
 20
-9.04796068609
 10
-22.873225768
 20
-9.0098584783
 10
-22.9068503013
 20
-8.97285632589
 10
-22.9416893328
 20
-8.93699533856
 10
-22.977704156
 20
-8.90231535817
 10
-23.014854758
 20
-8.86885491445
 10
-23.0530998644
 20
-8.83665118223
 10
-23.0923969844
 20
-8.80573994014
 10
-23.1327024586
 20
-8.7761555308
 10
-23.1739715073
 20
-8.74793082274
 10
-23.2161582803
 20
-8.72109717385
 10
-23.2592159077
 20
-8.69568439653
 10
-23.3030965521
 20
-8.67172072459
 10
-23.3477514617
 20
-8.64923278186
 10
-23.3931310247
 20
-8.62824555263
 10
-23.4391848239
 20
-8.60878235388
 10
-23.4858616932
 20
-8.5908648094
 10
-23.5331097742
 20
-8.57451282572
 10
-23.5808765739
 20
-8.55974457002
 10
-23.6291090229
 20
-8.54657644997
 10
-23.6777535347
 20
-8.53502309545
 10
-23.7267560648
 20
-8.52509734234
 10
-23.7760621709
 20
-8.51681021822
 10
-23.8256170736
 20
-8.51017093016
 10
-23.875365717
 20
-8.50518685447
 10
-23.9252528298
 20
-8.50186352848
 10
-23.9752229872
 20
-8.50020464446
  0
LWPOLYLINE
  5
A7F
330
2A
100
AcDbEntity
  8
0
 62
     0
100
AcDbPolyline
 90
      189
 70
     1
 43
0.0
 10
-11.9999998212
 20
-8.5
 10
-12.0499905624
 20
-8.50083325618
 10
-12.0999257636
 20
-8.50333209895
 10
-12.1497499462
 20
-8.50749375208
 10
-12.1994077551
 20
-8.51331359195
 10
-12.2488440202
 20
-8.52078515266
 10
-12.2980038174
 20
-8.52990013324
 10
-12.3468325296
 20
-8.54064840688
 10
-12.3952759079
 20
-8.55301803215
 10
-12.4432801312
 20
-8.56699526631
 10
-12.4907918664
 20
-8.58256458053
 10
-12.5377583276
 20
-8.59970867717
 10
-12.5841273346
 20
-8.618408509
 10
-12.6298473712
 20
-8.63864330035
 10
-12.674867642
 20
-8.6603905702
 10
-12.7191381291
 20
-8.68362615716
 10
-12.7626096476
 20
-8.70832424631
 10
-12.8052339003
 20
-8.73445739784
 10
-12.8469635313
 20
-8.76199657764
 10
-12.8877521786
 20
-8.79091118942
 10
-12.9275545258
 20
-8.82116910883
 10
-12.966326352
 20
-8.85273671907
 10
-13.0040245816
 20
-8.88557894826
 10
-13.0406073313
 20
-8.91965930842
 10
-13.0760339575
 20
-8.95493993598
 10
-13.110265101
 20
-8.99138163388
 10
-13.1432627306
 20
-9.02894391508
 10
-13.1749901856
 20
-9.06758504759
 10
-13.2054122167
 20
-9.1072621008
 10
-13.2344950247
 20
-9.14793099316
 10
-13.2622062984
 20
-9.1895465412
 10
-13.2885152503
 20
-9.23206250971
 10
-13.3133926509
 20
-9.27543166309
 10
-13.3368108613
 20
-9.31960581786
 10
-13.3587438636
 20
-9.36453589617
 10
-13.3791672901
 20
-9.41017198034
 10
-13.3980584501
 20
-9.45646336828
 10
-13.4153963556
 20
-9.50335862991
 10
-13.4311617438
 20
-9.55080566418
 10
-13.4453370993
 20
-9.59875175706
 10
-13.4579066732
 20
-9.64714364005
 10
-13.4688565006
 20
-9.69592754935
 10
-13.4781744162
 20
-9.74504928565
 10
-13.4858500676
 20
-9.79445427429
 10
-13.4918749271
 20
-9.84408762593
 10
-13.4962423011
 20
-9.8938941975
 10
-13.4989473374
 20
-9.94381865349
 10
-13.4999870306
 20
-9.99380552741
 10
-13.4993602257
 20
-10.0437992835
 10
-13.4970676191
 20
-10.0937443781
 10
-13.4931117578
 20
-10.143585322
 10
-13.4874970369
 20
-10.1932667414
 10
-13.4802296943
 20
-10.2427334399
 10
-13.4713178041
 20
-10.2919304596
 10
-13.4607712675
 20
-10.340803142
 10
-13.4486018018
 20
-10.3892971894
 10
-13.4348229274
 20
-10.4373587244
 10
-13.4194499527
 20
-10.4849343503
 10
-13.4024999572
 20
-10.5319712101
 10
-13.3839917726
 20
-10.5784170455
 10
-13.3639459614
 20
-10.6242202548
 10
-13.3423847949
 20
-10.6693299503
 10
-13.3193322276
 20
-10.7136960147
 10
-13.2948138712
 20
-10.7572691569
 10
-13.2688569656
 20
-10.8000009669
 10
-13.2414903494
 20
-10.8418439692
 10
-13.2127444269
 20
-10.8827516759
 10
-13.1826511352
 20
-10.9226786382
 10
-13.1512439082
 20
-10.961580497
 10
-13.1185576395
 20
-10.9994140319
 10
-13.0846286438
 20
-11.0361372096
 10
-13.0494946166
 20
-11.0717092304
 10
-13.013194592
 20
-11.1060905733
 10
-12.9757688997
 20
-11.1392430405
 10
-12.9372591199
 20
-11.1711297994
 10
-12.8977080373
 20
-11.2017154233
 10
-12.8571595935
 20
-11.2309659316
 10
-12.8156588382
 20
-11.2588488265
 10
-12.7732518789
 20
-11.2853331301
 10
-12.7299858303
 20
-11.3103894179
 10
-12.6859087611
 20
-11.3339898523
 10
-12.6410696415
 20
-11.356108213
 10
-12.5955182881
 20
-11.3767199263
 10
-12.5493053087
 20
-11.3958020925
 10
-12.5024820464
 20
-11.413333511
 10
-12.4551005222
 20
-11.4292947044
 10
-12.4072133774
 20
-11.4436679395
 10
-12.358873815
 20
-11.4564372477
 10
-12.3101355406
 20
-11.4675884421
 10
-12.2610527029
 20
-11.4771091337
 10
-12.2116798333
 20
-11.4849887449
 10
-12.1620717854
 20
-11.4912185213
 10
-12.1122836743
 20
-11.4957915417
 10
-12.0623708148
 20
-11.4987027254
 10
-12.0123886607
 20
-11.499948838
 10
-11.9623927425
 20
-11.4995284951
 10
-11.912438606
 20
-11.4974421637
 10
-11.8625817508
 20
-11.4936921617
 10
-11.8128775682
 20
-11.4882826554
 10
-11.76338128
 20
-11.4812196549
 10
-11.7141478769
 20
-11.4725110071
 10
-11.6652320576
 20
-11.4621663874
 10
-11.6166881681
 20
-11.4501972889
 10
-11.5685701411
 20
-11.4366170092
 10
-11.5209314359
 20
-11.4214406362
 10
-11.4738249797
 20
-11.4046850309
 10
-11.427303108
 20
-11.386368809
 10
-11.3814175071
 20
-11.36651232
 10
-11.3362191562
 20
-11.3451376245
 10
-11.2917582712
 20
-11.32226847
 10
-11.2480842483
 20
-11.2979302644
 10
-11.2052456098
 20
-11.2721500476
 10
-11.1632899498
 20
-11.2449564615
 10
-11.1222638814
 20
-11.2163797187
 10
-11.0822129848
 20
-11.1864515679
 10
-11.0431817569
 20
-11.1552052596
 10
-11.0052135618
 20
-11.1226755088
 10
-10.9683505824
 20
-11.0888984563
 10
-10.9326337738
 20
-11.0539116286
 10
-10.8981028177
 20
-11.0177538964
 10
-10.8647960782
 20
-10.9804654313
 10
-10.8327505595
 20
-10.942087661
 10
-10.8020018642
 20
-10.9026632235
 10
-10.7725841546
 20
-10.8622359198
 10
-10.7445301139
 20
-10.8208506649
 10
-10.7178709103
 20
-10.7785534381
 10
-10.6926361626
 20
-10.735391232
 10
-10.6688539066
 20
-10.6914120002
 10
-10.6465505647
 20
-10.646664604
 10
-10.6257509161
 20
-10.6011987581
 10
-10.6064780693
 20
-10.5550649754
 10
-10.5887534366
 20
-10.508314511
 10
-10.5725967104
 20
-10.460999305
 10
-10.5580258407
 20
-10.4131719249
 10
-10.545057016
 20
-10.3648855074
 10
-10.5337046447
 20
-10.3161936991
 10
-10.5239813394
 20
-10.2671505971
 10
-10.5158979029
 20
-10.2178106885
 10
-10.5094633157
 20
-10.1682287904
 10
-10.5046847269
 20
-10.1184599888
 10
-10.5015674455
 20
-10.0685595771
 10
-10.5001149348
 20
-10.0185829952
 10
-10.5003288086
 20
-9.96858576742
 10
-10.5022088292
 20
-9.91862344112
 10
-10.5057529079
 20
-9.86875152484
 10
-10.5109571073
 20
-9.8190254267
 10
-10.5178156454
 20
-9.7695003928
 10
-10.5263209022
 20
-9.72023144587
 10
-10.5364634286
 20
-9.6712733241
 10
-10.5482319558
 20
-9.62268042037
 10
-10.5616134092
 20
-9.57450672181
 10
-10.5765929217
 20
-9.52680574978
 10
-10.593153851
 20
-9.47963050045
 10
-10.6112777977
 20
-9.43303338593
 10
-10.630944626
 20
-9.38706617598
 10
-10.652132486
 20
-9.34177994056
 10
-10.6748178376
 20
-9.29722499305
 10
-10.6989754773
 20
-9.25345083435
 10
-10.7245785658
 20
-9.21050609793
 10
-10.7515986579
 20
-9.16843849573
 10
-10.7800057338
 20
-9.12729476521
 10
-10.8097682333
 20
-9.08712061739
 10
-10.8408530899
 20
-9.04796068609
 10
-10.873225768
 20
-9.0098584783
 10
-10.9068503013
 20
-8.97285632589
 10
-10.9416893328
 20
-8.93699533856
 10
-10.977704156
 20
-8.90231535817
 10
-11.014854758
 20
-8.86885491445
 10
-11.0530998644
 20
-8.83665118223
 10
-11.0923969844
 20
-8.80573994014
 10
-11.1327024586
 20
-8.7761555308
 10
-11.1739715073
 20
-8.74793082274
 10
-11.2161582803
 20
-8.72109717385
 10
-11.2592159077
 20
-8.69568439653
 10
-11.3030965521
 20
-8.67172072459
 10
-11.3477514617
 20
-8.64923278186
 10
-11.3931310247
 20
-8.62824555263
 10
-11.4391848239
 20
-8.60878235388
 10
-11.4858616932
 20
-8.5908648094
 10
-11.5331097742
 20
-8.57451282572
 10
-11.5808765739
 20
-8.55974457002
 10
-11.6291090229
 20
-8.54657644997
 10
-11.6777535347
 20
-8.53502309545
 10
-11.7267560648
 20
-8.52509734234
 10
-11.7760621709
 20
-8.51681021822
 10
-11.8256170736
 20
-8.51017093016
 10
-11.875365717
 20
-8.50518685447
 10
-11.9252528298
 20
-8.50186352848
 10
-11.9752229872
 20
-8.50020464446
  0
LINE
  5
B3E
330
2A
100
AcDbEntity
  8
0
 62
     0
100
AcDbLine
 10
-3.00000011921
 20
-80.0
 30
0.0
 11
-1.00000011921
 21
-80.0
 31
0.0
  0
LINE
  5
B3F
330
2A
100
AcDbEntity
  8
0
 62
     0
100
AcDbLine
 10
-33.0000001192
 20
-80.0
 30
0.0
 11
-3.00000011921
 21
-80.0
 31
0.0
  0
LINE
  5
B40
330
2A
100
AcDbEntity
  8
0
 62
     0
100
AcDbLine
 10
-0.0000001192092967
 20
-79.0
 30
0.0
 11
-0.0000001192092967
 21
-76.0
 31
0.0
  0
LINE
  5
B41
330
2A
100
AcDbEntity
  8
0
 62
     0
100
AcDbLine
 10
-33.0000001192
 20
-80.0
 30
0.0
 11
-35.0000001192
 21
-80.0
 31
0.0
  0
LINE
  5
B42
330
2A
100
AcDbEntity
  8
0
 62
     0
100
AcDbLine
 10
-1.00000011921
 20
-75.0
 30
0.0
 11
-3.00000011921
 21
-75.0
 31
0.0
  0
LINE
  5
B43
330
2A
100
AcDbEntity
  8
0
 62
     0
100
AcDbLine
 10
-36.0000001192
 20
-79.0
 30
0.0
 11
-36.0000001192
 21
-76.0
 31
0.0
  0
LINE
  5
B44
330
2A
100
AcDbEntity
  8
0
 62
     0
100
AcDbLine
 10
-3.00000011921
 20
-75.0
 30
0.0
 11
-3.00000011921
 21
-65.0
 31
0.0
  0
LINE
  5
B45
330
2A
100
AcDbEntity
  8
0
 62
     0
100
AcDbLine
 10
-3.00000011921
 20
-65.0
 30
0.0
 11
-1.00000011921
 21
-65.0
 31
0.0
  0
LINE
  5
B46
330
2A
100
AcDbEntity
  8
0
 62
     0
100
AcDbLine
 10
-35.0000001192
 20
-75.0
 30
0.0
 11
-33.0000001192
 21
-75.0
 31
0.0
  0
LINE
  5
B47
330
2A
100
AcDbEntity
  8
0
 62
     0
100
AcDbLine
 10
-33.0000001192
 20
-75.0
 30
0.0
 11
-33.0000001192
 21
-65.0
 31
0.0
  0
LINE
  5
B48
330
2A
100
AcDbEntity
  8
0
 62
     0
100
AcDbLine
 10
-0.0000001192092967
 20
-64.0
 30
0.0
 11
-0.0000001192092967
 21
-61.0
 31
0.0
  0
LINE
  5
B49
330
2A
100
AcDbEntity
  8
0
 62
     0
100
AcDbLine
 10
-33.0000001192
 20
-65.0
 30
0.0
 11
-35.0000001192
 21
-65.0
 31
0.0
  0
LINE
  5
B4A
330
2A
100
AcDbEntity
  8
0
 62
     0
100
AcDbLine
 10
-1.00000011921
 20
-60.0
 30
0.0
 11
-3.00000011921
 21
-60.0
 31
0.0
  0
LINE
  5
B4B
330
2A
100
AcDbEntity
  8
0
 62
     0
100
AcDbLine
 10
-36.0000001192
 20
-64.0
 30
0.0
 11
-36.0000001192
 21
-61.0
 31
0.0
  0
LINE
  5
B4C
330
2A
100
AcDbEntity
  8
0
 62
     0
100
AcDbLine
 10
-3.00000011921
 20
-60.0
 30
0.0
 11
-3.00000011921
 21
-50.0
 31
0.0
  0
LINE
  5
B4D
330
2A
100
AcDbEntity
  8
0
 62
     0
100
AcDbLine
 10
-3.00000011921
 20
-50.0
 30
0.0
 11
-1.00000011921
 21
-50.0
 31
0.0
  0
LINE
  5
B4E
330
2A
100
AcDbEntity
  8
0
 62
     0
100
AcDbLine
 10
-35.0000001192
 20
-60.0
 30
0.0
 11
-33.0000001192
 21
-60.0
 31
0.0
  0
LINE
  5
B4F
330
2A
100
AcDbEntity
  8
0
 62
     0
100
AcDbLine
 10
-33.0000001192
 20
-60.0
 30
0.0
 11
-33.0000001192
 21
-50.0
 31
0.0
  0
LINE
  5
B50
330
2A
100
AcDbEntity
  8
0
 62
     0
100
AcDbLine
 10
-0.0000001192092967
 20
-49.0
 30
0.0
 11
-0.0000001192092967
 21
-46.0
 31
0.0
  0
LINE
  5
B51
330
2A
100
AcDbEntity
  8
0
 62
     0
100
AcDbLine
 10
-33.0000001192
 20
-50.0
 30
0.0
 11
-35.0000001192
 21
-50.0
 31
0.0
  0
LINE
  5
B52
330
2A
100
AcDbEntity
  8
0
 62
     0
100
AcDbLine
 10
-1.00000011921
 20
-45.0
 30
0.0
 11
-3.00000011921
 21
-45.0
 31
0.0
  0
LINE
  5
B53
330
2A
100
AcDbEntity
  8
0
 62
     0
100
AcDbLine
 10
-36.0000001192
 20
-49.0
 30
0.0
 11
-36.0000001192
 21
-46.0
 31
0.0
  0
LINE
  5
B54
330
2A
100
AcDbEntity
  8
0
 62
     0
100
AcDbLine
 10
-3.00000011921
 20
-45.0
 30
0.0
 11
-3.00000011921
 21
-35.0
 31
0.0
  0
LINE
  5
B55
330
2A
100
AcDbEntity
  8
0
 62
     0
100
AcDbLine
 10
-3.00000011921
 20
-35.0
 30
0.0
 11
-1.00000011921
 21
-35.0
 31
0.0
  0
LINE
  5
B56
330
2A
100
AcDbEntity
  8
0
 62
     0
100
AcDbLine
 10
-35.0000001192
 20
-45.0
 30
0.0
 11
-33.0000001192
 21
-45.0
 31
0.0
  0
LINE
  5
B57
330
2A
100
AcDbEntity
  8
0
 62
     0
100
AcDbLine
 10
-33.0000001192
 20
-45.0
 30
0.0
 11
-33.0000001192
 21
-35.0
 31
0.0
  0
LINE
  5
B58
330
2A
100
AcDbEntity
  8
0
 62
     0
100
AcDbLine
 10
-0.0000001192092967
 20
-34.0
 30
0.0
 11
-0.0000001192092967
 21
-31.0
 31
0.0
  0
LINE
  5
B59
330
2A
100
AcDbEntity
  8
0
 62
     0
100
AcDbLine
 10
-33.0000001192
 20
-35.0
 30
0.0
 11
-35.0000001192
 21
-35.0
 31
0.0
  0
LINE
  5
B5A
330
2A
100
AcDbEntity
  8
0
 62
     0
100
AcDbLine
 10
-1.00000011921
 20
-30.0
 30
0.0
 11
-3.00000011921
 21
-30.0
 31
0.0
  0
LINE
  5
B5B
330
2A
100
AcDbEntity
  8
0
 62
     0
100
AcDbLine
 10
-36.0000001192
 20
-34.0
 30
0.0
 11
-36.0000001192
 21
-31.0
 31
0.0
  0
LINE
  5
B5C
330
2A
100
AcDbEntity
  8
0
 62
     0
100
AcDbLine
 10
-3.00000011921
 20
-30.0
 30
0.0
 11
-3.00000011921
 21
-20.0
 31
0.0
  0
LINE
  5
B5D
330
2A
100
AcDbEntity
  8
0
 62
     0
100
AcDbLine
 10
-3.00000011921
 20
-20.0
 30
0.0
 11
-1.00000011921
 21
-20.0
 31
0.0
  0
LINE
  5
B5E
330
2A
100
AcDbEntity
  8
0
 62
     0
100
AcDbLine
 10
-35.0000001192
 20
-30.0
 30
0.0
 11
-33.0000001192
 21
-30.0
 31
0.0
  0
LINE
  5
B5F
330
2A
100
AcDbEntity
  8
0
 62
     0
100
AcDbLine
 10
-33.0000001192
 20
-30.0
 30
0.0
 11
-33.0000001192
 21
-20.0
 31
0.0
  0
LINE
  5
B60
330
2A
100
AcDbEntity
  8
0
 62
     0
100
AcDbLine
 10
-0.0000001192092967
 20
-19.0
 30
0.0
 11
-0.0000001192092967
 21
-16.0
 31
0.0
  0
LINE
  5
B61
330
2A
100
AcDbEntity
  8
0
 62
     0
100
AcDbLine
 10
-33.0000001192
 20
-20.0
 30
0.0
 11
-35.0000001192
 21
-20.0
 31
0.0
  0
LINE
  5
B62
330
2A
100
AcDbEntity
  8
0
 62
     0
100
AcDbLine
 10
-1.00000011921
 20
-15.0
 30
0.0
 11
-3.00000011921
 21
-15.0
 31
0.0
  0
LINE
  5
B63
330
2A
100
AcDbEntity
  8
0
 62
     0
100
AcDbLine
 10
-36.0000001192
 20
-19.0
 30
0.0
 11
-36.0000001192
 21
-16.0
 31
0.0
  0
LINE
  5
B64
330
2A
100
AcDbEntity
  8
0
 62
     0
100
AcDbLine
 10
-3.00000011921
 20
-15.0
 30
0.0
 11
-3.00000011921
 21
-5.0
 31
0.0
  0
LINE
  5
B65
330
2A
100
AcDbEntity
  8
0
 62
     0
100
AcDbLine
 10
-3.00000011921
 20
-5.0
 30
0.0
 11
-1.00000011921
 21
-5.0
 31
0.0
  0
LINE
  5
B66
330
2A
100
AcDbEntity
  8
0
 62
     0
100
AcDbLine
 10
-35.0000001192
 20
-15.0
 30
0.0
 11
-33.0000001192
 21
-15.0
 31
0.0
  0
LINE
  5
B67
330
2A
100
AcDbEntity
  8
0
 62
     0
100
AcDbLine
 10
-33.0000001192
 20
-15.0
 30
0.0
 11
-33.0000001192
 21
-5.0
 31
0.0
  0
LINE
  5
B68
330
2A
100
AcDbEntity
  8
0
 62
     0
100
AcDbLine
 10
-0.0000001192092967
 20
-4.0
 30
0.0
 11
-0.0000001192092967
 21
-1.0
 31
0.0
  0
LINE
  5
B69
330
2A
100
AcDbEntity
  8
0
 62
     0
100
AcDbLine
 10
-33.0000001192
 20
-5.0
 30
0.0
 11
-35.0000001192
 21
-5.0
 31
0.0
  0
LINE
  5
B6A
330
2A
100
AcDbEntity
  8
0
 62
     0
100
AcDbLine
 10
-1.00000011921
 20
0.0
 30
0.0
 11
-3.00000011921
 21
0.0
 31
0.0
  0
LINE
  5
B6B
330
2A
100
AcDbEntity
  8
0
 62
     0
100
AcDbLine
 10
-36.0000001192
 20
-4.0
 30
0.0
 11
-36.0000001192
 21
-1.0
 31
0.0
  0
LINE
  5
B6C
330
2A
100
AcDbEntity
  8
0
 62
     0
100
AcDbLine
 10
-3.00000011921
 20
0.0
 30
0.0
 11
-33.0000001192
 21
0.0
 31
0.0
  0
LINE
  5
B6D
330
2A
100
AcDbEntity
  8
0
 62
     0
100
AcDbLine
 10
-35.0000001192
 20
0.0
 30
0.0
 11
-33.0000001192
 21
0.0
 31
0.0
  0
LINE
  5
B6E
330
2A
100
AcDbEntity
  8
0
 62
     0
100
AcDbLine
 10
-17.2631068571
 20
-7.69827531863
 30
0.0
 11
-17.9500844991
 21
-7.70381782294
 31
0.0
  0
LINE
  5
B6F
330
2A
100
AcDbEntity
  8
0
 62
     0
100
AcDbLine
 10
-17.2651641185
 20
-7.44328361744
 30
0.0
 11
-17.2631068571
 21
-7.69827531863
 31
0.0
  0
LINE
  5
B70
330
2A
100
AcDbEntity
  8
0
 62
     0
100
AcDbLine
 10
-19.3130974676
 20
-7.45980625038
 30
0.0
 11
-17.2651641185
 21
-7.44328361744
 31
0.0
  0
LINE
  5
B71
330
2A
100
AcDbEntity
  8
0
 62
     0
100
AcDbLine
 10
-19.3110402062
 20
-7.71479795157
 30
0.0
 11
-19.3130974676
 21
-7.45980625038
 31
0.0
  0
LINE
  5
B72
330
2A
100
AcDbEntity
  8
0
 62
     0
100
AcDbLine
 10
-18.2510747032
 20
-7.7062461982
 30
0.0
 11
-19.3110402062
 21
-7.71479795157
 31
0.0
  0
LINE
  5
B73
330
2A
100
AcDbEntity
  8
0
 62
     0
100
AcDbLine
 10
-19.3037308774
 20
-8.62076846639
 30
0.0
 11
-18.2510747032
 21
-7.7062461982
 31
0.0
  0
LINE
  5
B74
330
2A
100
AcDbEntity
  8
0
 62
     0
100
AcDbLine
 10
-19.301149216
 20
-8.94075805219
 30
0.0
 11
-19.3037308774
 21
-8.62076846639
 31
0.0
  0
LINE
  5
B75
330
2A
100
AcDbEntity
  8
0
 62
     0
100
AcDbLine
 10
-18.334070723
 20
-8.0789279132
 30
0.0
 11
-19.301149216
 21
-8.94075805219
 31
0.0
  0
LINE
  5
B76
330
2A
100
AcDbEntity
  8
0
 62
     0
100
AcDbLine
 10
-17.2526188576
 20
-8.99823301097
 30
0.0
 11
-18.334070723
 21
-8.0789279132
 31
0.0
  0
LINE
  5
B77
330
2A
100
AcDbEntity
  8
0
 62
     0
100
AcDbLine
 10
-17.255176316
 20
-8.68124332753
 30
0.0
 11
-17.2526188576
 21
-8.99823301097
 31
0.0
  0
LINE
  5
B78
330
2A
100
AcDbEntity
  8
0
 62
     0
100
AcDbLine
 10
-18.1824149392
 20
-7.9116989587
 30
0.0
 11
-17.255176316
 21
-8.68124332753
 31
0.0
  0
LINE
  5
B79
330
2A
100
AcDbEntity
  8
0
 62
     0
100
AcDbLine
 10
-17.9500844991
 20
-7.70381782294
 30
0.0
 11
-18.1824149392
 21
-7.9116989587
 31
0.0
  0
LINE
  5
B7A
330
2A
100
AcDbEntity
  8
0
 62
     0
100
AcDbLine
 10
-17.2775560932
 20
-5.90733360557
 30
0.0
 11
-17.2678103214
 21
-7.11529429199
 31
0.0
  0
LINE
  5
B7B
330
2A
100
AcDbEntity
  8
0
 62
     0
100
AcDbLine
 10
-19.3254894424
 20
-5.92385623851
 30
0.0
 11
-17.2775560932
 21
-5.90733360557
 31
0.0
  0
LINE
  5
B7C
330
2A
100
AcDbEntity
  8
0
 62
     0
100
AcDbLine
 10
-19.3234321809
 20
-6.1788479397
 30
0.0
 11
-19.3254894424
 21
-5.92385623851
 31
0.0
  0
LINE
  5
B7D
330
2A
100
AcDbEntity
  8
0
 62
     0
100
AcDbLine
 10
-17.5024914442
 20
-6.16415667282
 30
0.0
 11
-19.3234321809
 21
-6.1788479397
 31
0.0
  0
LINE
  5
B7E
330
2A
100
AcDbEntity
  8
0
 62
     0
100
AcDbLine
 10
-17.4948029339
 20
-7.11712565804
 30
0.0
 11
-17.5024914442
 21
-6.16415667282
 31
0.0
  0
LINE
  5
B7F
330
2A
100
AcDbEntity
  8
0
 62
     0
100
AcDbLine
 10
-17.2678103214
 20
-7.11529429199
 30
0.0
 11
-17.4948029339
 21
-7.11712565804
 31
0.0
  0
LINE
  5
B80
330
2A
100
AcDbEntity
  8
0
 62
     0
100
AcDbLine
 10
-16.9410824749
 20
-10.798778229
 30
0.0
 11
-17.1100769749
 21
-10.8001416689
 31
0.0
  0
LINE
  5
B81
330
2A
100
AcDbEntity
  8
0
 62
     0
100
AcDbLine
 10
-16.9552090033
 20
-9.04783521418
 30
0.0
 11
-16.9410824749
 21
-10.798778229
 31
0.0
  0
LINE
  5
B82
330
2A
100
AcDbEntity
  8
0
 62
     0
100
AcDbLine
 10
-17.1242035033
 20
-9.0491986541
 30
0.0
 11
-16.9552090033
 21
-9.04783521418
 31
0.0
  0
LINE
  5
B83
330
2A
100
AcDbEntity
  8
0
 62
     0
100
AcDbLine
 10
-17.1100769749
 20
-10.8001416689
 30
0.0
 11
-17.1242035033
 21
-9.0491986541
 31
0.0
  0
LINE
  5
B84
330
2A
100
AcDbEntity
  8
0
 62
     0
100
AcDbLine
 10
-19.253654714
 20
-14.8275664636
 30
0.0
 11
-17.9886958826
 21
-14.8173608334
 31
0.0
  0
LINE
  5
B85
330
2A
100
AcDbEntity
  8
0
 62
     0
100
AcDbLine
 10
-19.2515974526
 20
-15.0825581648
 30
0.0
 11
-19.253654714
 21
-14.8275664636
 31
0.0
  0
LINE
  5
B86
330
2A
100
AcDbEntity
  8
0
 62
     0
100
AcDbLine
 10
-17.9836387188
 20
-15.0723283315
 30
0.0
 11
-19.2515974526
 21
-15.0825581648
 31
0.0
  0
LINE
  5
B87
330
2A
100
AcDbEntity
  8
0
 62
     0
100
AcDbLine
 10
-19.2650785657
 20
-13.4116125464
 30
0.0
 11
-17.9941199295
 21
-13.40135851
 31
0.0
  0
LINE
  5
B88
330
2A
100
AcDbEntity
  8
0
 62
     0
100
AcDbLine
 10
-19.2630213042
 20
-13.6666042476
 30
0.0
 11
-19.2650785657
 21
-13.4116125464
 31
0.0
  0
LINE
  5
B89
330
2A
100
AcDbEntity
  8
0
 62
     0
100
AcDbLine
 10
-17.9980624728
 20
-13.6563986174
 30
0.0
 11
-19.2630213042
 21
-13.6666042476
 31
0.0
  0
LINE
  5
B8A
330
2A
100
AcDbEntity
  8
0
 62
     0
100
AcDbLine
 10
-5.64025319066
 20
-14.0787133639
 30
0.0
 11
-7.26872037775
 21
-12.9118133594
 31
0.0
  0
LINE
  5
B8B
330
2A
100
AcDbEntity
  8
0
 62
     0
100
AcDbLine
 10
-7.25920050135
 20
-14.091774957
 30
0.0
 11
-5.64025319066
 21
-14.0787133639
 31
0.0
  0
LINE
  5
B8C
330
2A
100
AcDbEntity
  8
0
 62
     0
100
AcDbLine
 10
-7.25714323992
 20
-14.3467666582
 30
0.0
 11
-7.25920050135
 21
-14.091774957
 31
0.0
  0
LINE
  5
B8D
330
2A
100
AcDbEntity
  8
0
 62
     0
100
AcDbLine
 10
-5.20920989076
 20
-14.3302440253
 30
0.0
 11
-7.25714323992
 21
-14.3467666582
 31
0.0
  0
LINE
  5
B8E
330
2A
100
AcDbEntity
  8
0
 62
     0
100
AcDbLine
 10
-5.21119454296
 20
-14.0842520312
 30
0.0
 11
-5.20920989076
 21
-14.3302440253
 31
0.0
  0
LINE
  5
B8F
330
2A
100
AcDbEntity
  8
0
 62
     0
100
AcDbLine
 10
-6.87178170401
 20
-12.902610681
 30
0.0
 11
-5.21119454296
 21
-14.0842520312
 31
0.0
  0
LINE
  5
B90
330
2A
100
AcDbEntity
  8
0
 62
     0
100
AcDbLine
 10
-5.22083543474
 20
-12.8892909217
 30
0.0
 11
-6.87178170401
 21
-12.902610681
 31
0.0
  0
LINE
  5
B91
330
2A
100
AcDbEntity
  8
0
 62
     0
100
AcDbLine
 10
-5.22289269617
 20
-12.6342992205
 30
0.0
 11
-5.22083543474
 21
-12.8892909217
 31
0.0
  0
LINE
  5
B92
330
2A
100
AcDbEntity
  8
0
 62
     0
100
AcDbLine
 10
-7.27082604533
 20
-12.6508218534
 30
0.0
 11
-5.22289269617
 21
-12.6342992205
 31
0.0
  0
LINE
  5
B93
330
2A
100
AcDbEntity
  8
0
 62
     0
100
AcDbLine
 10
-7.26872037775
 20
-12.9118133594
 30
0.0
 11
-7.27082604533
 21
-12.6508218534
 31
0.0
  0
LINE
  5
B94
330
2A
100
AcDbEntity
  8
0
 62
     0
100
AcDbLine
 10
-5.22651508982
 20
-12.1853138329
 30
0.0
 11
-7.27444843898
 21
-12.2018364659
 31
0.0
  0
LINE
  5
B95
330
2A
100
AcDbEntity
  8
0
 62
     0
100
AcDbLine
 10
-5.22857235124
 20
-11.9303221317
 30
0.0
 11
-5.22651508982
 21
-12.1853138329
 31
0.0
  0
LINE
  5
B96
330
2A
100
AcDbEntity
  8
0
 62
     0
100
AcDbLine
 10
-7.2765057004
 20
-11.9468447647
 30
0.0
 11
-5.22857235124
 21
-11.9303221317
 31
0.0
  0
LINE
  5
B97
330
2A
100
AcDbEntity
  8
0
 62
     0
100
AcDbLine
 10
-7.27444843898
 20
-12.2018364659
 30
0.0
 11
-7.2765057004
 21
-11.9468447647
 31
0.0
  0
LINE
  5
B98
330
2A
100
AcDbEntity
  8
0
 62
     0
100
AcDbLine
 10
-6.32639356345
 20
-8.98208306645
 30
0.0
 11
-7.2934720564
 21
-9.84391320545
 31
0.0
  0
LINE
  5
B99
330
2A
100
AcDbEntity
  8
0
 62
     0
100
AcDbLine
 10
-5.24494169804
 20
-9.90138816423
 30
0.0
 11
-6.32639356345
 21
-8.98208306645
 31
0.0
  0
LINE
  5
B9A
330
2A
100
AcDbEntity
  8
0
 62
     0
100
AcDbLine
 10
-5.24749915636
 20
-9.58439848079
 30
0.0
 11
-5.24494169804
 21
-9.90138816423
 31
0.0
  0
LINE
  5
B9B
330
2A
100
AcDbEntity
  8
0
 62
     0
100
AcDbLine
 10
-6.17473777959
 20
-8.81485411196
 30
0.0
 11
-5.24749915636
 21
-9.58439848079
 31
0.0
  0
LINE
  5
B9C
330
2A
100
AcDbEntity
  8
0
 62
     0
100
AcDbLine
 10
-5.94240733949
 20
-8.6069729762
 30
0.0
 11
-6.17473777959
 21
-8.81485411196
 31
0.0
  0
LINE
  5
B9D
330
2A
100
AcDbEntity
  8
0
 62
     0
100
AcDbLine
 10
-5.25542969746
 20
-8.60143047189
 30
0.0
 11
-5.94240733949
 21
-8.6069729762
 31
0.0
  0
LINE
  5
B9E
330
2A
100
AcDbEntity
  8
0
 62
     0
100
AcDbLine
 10
-5.25748695889
 20
-8.3464387707
 30
0.0
 11
-5.25542969746
 21
-8.60143047189
 31
0.0
  0
LINE
  5
B9F
330
2A
100
AcDbEntity
  8
0
 62
     0
100
AcDbLine
 10
-7.30542030805
 20
-8.36296140364
 30
0.0
 11
-5.25748695889
 21
-8.3464387707
 31
0.0
  0
LINE
  5
BA0
330
2A
100
AcDbEntity
  8
0
 62
     0
100
AcDbLine
 10
-7.30336304662
 20
-8.61795310483
 30
0.0
 11
-7.30542030805
 21
-8.36296140364
 31
0.0
  0
LINE
  5
BA1
330
2A
100
AcDbEntity
  8
0
 62
     0
100
AcDbLine
 10
-6.24339754364
 20
-8.60940135145
 30
0.0
 11
-7.30336304662
 21
-8.61795310483
 31
0.0
  0
LINE
  5
BA2
330
2A
100
AcDbEntity
  8
0
 62
     0
100
AcDbLine
 10
-7.29605371779
 20
-9.52392361964
 30
0.0
 11
-6.24339754364
 21
-8.60940135145
 31
0.0
  0
LINE
  5
BA3
330
2A
100
AcDbEntity
  8
0
 62
     0
100
AcDbLine
 10
-7.2934720564
 20
-9.84391320545
 30
0.0
 11
-7.29605371779
 21
-9.52392361964
 31
0.0
  0
LINE
  5
BA4
330
2A
100
AcDbEntity
  8
0
 62
     0
100
AcDbLine
 10
-7.31575502133
 20
-7.08200309296
 30
0.0
 11
-7.31781228275
 21
-6.82701139177
 31
0.0
  0
LINE
  5
BA5
330
2A
100
AcDbEntity
  8
0
 62
     0
100
AcDbLine
 10
-5.4948142846
 20
-7.06731182607
 30
0.0
 11
-7.31575502133
 21
-7.08200309296
 31
0.0
  0
LINE
  5
BA6
330
2A
100
AcDbEntity
  8
0
 62
     0
100
AcDbLine
 10
-5.48712577425
 20
-8.0202808113
 30
0.0
 11
-5.4948142846
 21
-7.06731182607
 31
0.0
  0
LINE
  5
BA7
330
2A
100
AcDbEntity
  8
0
 62
     0
100
AcDbLine
 10
-5.26013316182
 20
-8.01844944525
 30
0.0
 11
-5.48712577425
 21
-8.0202808113
 31
0.0
  0
LINE
  5
BA8
330
2A
100
AcDbEntity
  8
0
 62
     0
100
AcDbLine
 10
-5.26987893359
 20
-6.81048875883
 30
0.0
 11
-5.26013316182
 21
-8.01844944525
 31
0.0
  0
LINE
  5
BA9
330
2A
100
AcDbEntity
  8
0
 62
     0
100
AcDbLine
 10
-7.31781228275
 20
-6.82701139177
 30
0.0
 11
-5.26987893359
 21
-6.81048875883
 31
0.0
  0
LINE
  5
BAA
330
2A
100
AcDbEntity
  8
0
 62
     0
100
AcDbLine
 10
-6.849982505
 20
-6.30822020155
 30
0.0
 11
-6.97224391575
 21
-6.52421359831
 31
0.0
  0
LINE
  5
BAB
330
2A
100
AcDbEntity
  8
0
 62
     0
100
AcDbLine
 10
-5.61926374519
 20
-6.51629791358
 30
0.0
 11
-5.74501846651
 21
-6.29930540204
 31
0.0
  0
LINE
  5
BAC
330
2A
100
AcDbEntity
  8
0
 62
     0
100
AcDbLine
 10
-19.0133831071
 20
-16.3476774973
 30
0.0
 11
-19.0081310397
 21
-16.9986563109
 31
0.0
  0
LINE
  5
BAD
330
2A
100
AcDbEntity
  8
0
 62
     0
100
AcDbLine
 10
-17.1934423378
 20
-16.3329942981
 30
0.0
 11
-19.0133831071
 21
-16.3476774973
 31
0.0
  0
LINE
  5
BAE
330
2A
100
AcDbEntity
  8
0
 62
     0
100
AcDbLine
 10
-17.1954995992
 20
-16.0780025969
 30
0.0
 11
-17.1934423378
 21
-16.3329942981
 31
0.0
  0
LINE
  5
BAF
330
2A
100
AcDbEntity
  8
0
 62
     0
100
AcDbLine
 10
-19.0154403685
 20
-16.0926857961
 30
0.0
 11
-17.1954995992
 21
-16.0780025969
 31
0.0
  0
LINE
  5
BB0
330
2A
100
AcDbEntity
  8
0
 62
     0
100
AcDbLine
 10
-19.0206682328
 20
-15.4447068849
 30
0.0
 11
-19.0154403685
 21
-16.0926857961
 31
0.0
  0
LINE
  5
BB1
330
2A
100
AcDbEntity
  8
0
 62
     0
100
AcDbLine
 10
-19.2486608127
 20
-15.4465463186
 30
0.0
 11
-19.0206682328
 21
-15.4447068849
 31
0.0
  0
LINE
  5
BB2
330
2A
100
AcDbEntity
  8
0
 62
     0
100
AcDbLine
 10
-19.2361236196
 20
-17.0004957447
 30
0.0
 11
-19.2486608127
 21
-15.4465463186
 31
0.0
  0
LINE
  5
BB3
330
2A
100
AcDbEntity
  8
0
 62
     0
100
AcDbLine
 10
-19.0081310397
 20
-16.9986563109
 30
0.0
 11
-19.2361236196
 21
-17.0004957447
 31
0.0
  0
LINE
  5
BB4
330
2A
100
AcDbEntity
  8
0
 62
     0
100
AcDbLine
 10
-18.2212851192
 20
-74.984853
 30
0.0
 11
-18.2212851192
 21
-19.886894
 31
0.0
  0
LINE
  5
BB5
330
2A
100
AcDbEntity
  8
0
 62
     0
100
AcDbLine
 10
-8.01874411921
 20
-74.984853
 30
0.0
 11
-18.2212851192
 21
-74.984853
 31
0.0
  0
LINE
  5
BB6
330
2A
100
AcDbEntity
  8
0
 62
     0
100
AcDbLine
 10
-18.2212851192
 20
-19.886894
 30
0.0
 11
-8.01874411921
 21
-19.886894
 31
0.0
  0
LINE
  5
BB7
330
2A
100
AcDbEntity
  8
0
 62
     0
100
AcDbLine
 10
-8.01874411921
 20
-19.886894
 30
0.0
 11
-8.01874411921
 21
-74.984853
 31
0.0
  0
LINE
  5
BB8
330
2A
100
AcDbEntity
  8
0
 62
     0
100
AcDbLine
 10
-4.94753184373
 20
-9.95099036743
 30
0.0
 11
-4.93340531528
 21
-11.7019333823
 31
0.0
  0
LINE
  5
BB9
330
2A
100
AcDbEntity
  8
0
 62
     0
100
AcDbLine
 10
-5.11652634374
 20
-9.95235380736
 30
0.0
 11
-4.94753184373
 21
-9.95099036743
 31
0.0
  0
LINE
  5
BBA
330
2A
100
AcDbEntity
  8
0
 62
     0
100
AcDbLine
 10
-5.10239981528
 20
-11.7032968222
 30
0.0
 11
-5.11652634374
 21
-9.95235380736
 31
0.0
  0
LINE
  5
BBB
330
2A
100
AcDbEntity
  8
0
 62
     0
100
AcDbLine
 10
-4.93340531528
 20
-11.7019333823
 30
0.0
 11
-5.10239981528
 21
-11.7032968222
 31
0.0
  0
LINE
  5
BBC
330
2A
100
AcDbEntity
  8
0
 62
     0
100
AcDbLine
 10
-17.6269409048
 20
-5.61314276032
 30
0.0
 11
-17.7526956261
 21
-5.39615024878
 31
0.0
  0
LINE
  5
BBD
330
2A
100
AcDbEntity
  8
0
 62
     0
100
AcDbLine
 10
-18.8576596646
 20
-5.4050650483
 30
0.0
 11
-18.9799210753
 21
-5.62105844505
 31
0.0
  0
ENDBLK
  5
BBE
330
2A
100
AcDbEntity
  8
0
100
AcDbBlockEnd
  0
ENDSEC
  0
SECTION
  2
ENTITIES
  0
INSERT
  5
BBF
330
1D
100
AcDbEntity
  8
0
 62
     0
100
AcDbBlockReference
  2
FUSION040
 10
0.0
 20
0.0
 30
0.0
  0
ENDSEC
  0
SECTION
  2
OBJECTS
  0
DICTIONARY
  5
C
330
0
100
AcDbDictionary
  3
ACAD_GROUP
350
D
  3
ACAD_IMAGE_VARS
350
C05
  3
ACAD_MLINESTYLE
350
17
  3
ACAD_SCALELIST
350
BC0
  3
APPDATA
350
C03
  3
DWGPROPS
350
C06
  0
DICTIONARY
  5
D
102
{ACAD_REACTORS
330
C
102
}
330
C
100
AcDbDictionary
  0
RASTERVARIABLES
  5
C05
102
{ACAD_REACTORS
330
C
102
}
330
C
100
AcDbRasterVariables
 90
        0
 70
     1
 71
     1
 72
     0
  0
DICTIONARY
  5
17
102
{ACAD_REACTORS
330
C
102
}
330
C
100
AcDbDictionary
  3
STANDARD
350
18
  0
DICTIONARY
  5
BC0
102
{ACAD_REACTORS
330
C
102
}
330
C
100
AcDbDictionary
  0
DICTIONARY
  5
C03
102
{ACAD_REACTORS
330
C
102
}
330
C
100
AcDbDictionary
  0
XRECORD
  5
C06
102
{ACAD_REACTORS
330
C
102
}
330
C
100
AcDbXrecord
  1
DWGPROPS COOKIE
  2

  3

  4

  6

  7

  8

  9

300
=
301
=
302
=
303
=
304
=
305
=
306
=
307
=
308
=
309
=
 40
0.0
 41
2458100.582446204
 42
2458100.582648414
  1

 90
        0
  0
MLINESTYLE
  5
18
102
{ACAD_REACTORS
330
17
102
}
330
17
100
AcDbMlineStyle
  2
Standard
 70
     0
  3

 62
   256
 51
90.0
 52
90.0
 71
     2
 49
0.5
 62
   256
  6
BYLAYER
 49
-0.5
 62
   256
  6
BYLAYER
  0
ENDSEC
  0
EOF
